G75*
%MOIN*%
%OFA0B0*%
%FSLAX25Y25*%
%IPPOS*%
%LPD*%
%AMOC8*
5,1,8,0,0,1.08239X$1,22.5*
%
%ADD10OC8,0.10000*%
%ADD11OC8,0.06300*%
%ADD12C,0.06300*%
%ADD13C,0.05200*%
%ADD14C,0.04400*%
%ADD15C,0.06000*%
%ADD16OC8,0.06496*%
%ADD17R,0.09000X0.09000*%
%ADD18C,0.05200*%
%ADD19C,0.07874*%
%ADD20C,0.02400*%
%ADD21R,0.03962X0.03962*%
%ADD22C,0.08600*%
D10*
X0044007Y0206099D03*
X0087007Y0206099D03*
X0087007Y0249099D03*
X0044007Y0249099D03*
D11*
X0130303Y0128108D03*
D12*
X0130303Y0114108D03*
D13*
X0181233Y0106727D02*
X0186433Y0106727D01*
X0221233Y0106727D02*
X0226433Y0106727D01*
X0241514Y0102775D02*
X0241514Y0097575D01*
X0257073Y0118831D02*
X0262273Y0118831D01*
X0262273Y0128831D02*
X0257073Y0128831D01*
X0257073Y0138831D02*
X0262273Y0138831D01*
X0262273Y0148831D02*
X0257073Y0148831D01*
X0257073Y0158831D02*
X0262273Y0158831D01*
X0262273Y0168831D02*
X0257073Y0168831D01*
X0257073Y0178831D02*
X0262273Y0178831D01*
X0262273Y0188831D02*
X0257073Y0188831D01*
X0257073Y0198831D02*
X0262273Y0198831D01*
X0262273Y0208831D02*
X0257073Y0208831D01*
X0257073Y0218831D02*
X0262273Y0218831D01*
X0262273Y0228831D02*
X0257073Y0228831D01*
X0257073Y0238831D02*
X0262273Y0238831D01*
X0262273Y0248831D02*
X0257073Y0248831D01*
X0287073Y0248831D02*
X0292273Y0248831D01*
X0292273Y0238831D02*
X0287073Y0238831D01*
X0287073Y0228831D02*
X0292273Y0228831D01*
X0292273Y0218831D02*
X0287073Y0218831D01*
X0287073Y0208831D02*
X0292273Y0208831D01*
X0292273Y0198831D02*
X0287073Y0198831D01*
X0287073Y0188831D02*
X0292273Y0188831D01*
X0292273Y0178831D02*
X0287073Y0178831D01*
X0287073Y0168831D02*
X0292273Y0168831D01*
X0292273Y0158831D02*
X0287073Y0158831D01*
X0287073Y0148831D02*
X0292273Y0148831D01*
X0292273Y0138831D02*
X0287073Y0138831D01*
X0287073Y0128831D02*
X0292273Y0128831D01*
X0292273Y0118831D02*
X0287073Y0118831D01*
X0241514Y0137575D02*
X0241514Y0142775D01*
D14*
X0210406Y0156569D03*
X0210406Y0166569D03*
X0210406Y0176569D03*
X0212400Y0217999D03*
X0212400Y0227999D03*
X0212400Y0237999D03*
X0092558Y0129548D03*
X0082558Y0129548D03*
X0072558Y0129548D03*
D15*
X0025408Y0138177D02*
X0019408Y0138177D01*
X0019408Y0148177D02*
X0025408Y0148177D01*
X0025120Y0116447D02*
X0019120Y0116447D01*
X0019120Y0106447D02*
X0025120Y0106447D01*
X0116435Y0195268D02*
X0116435Y0201268D01*
X0126435Y0201268D02*
X0126435Y0195268D01*
X0136435Y0195268D02*
X0136435Y0201268D01*
X0169702Y0201268D02*
X0169702Y0195268D01*
X0179702Y0195268D02*
X0179702Y0201268D01*
X0189702Y0201268D02*
X0189702Y0195268D01*
X0229557Y0195130D02*
X0235557Y0195130D01*
X0235557Y0185130D02*
X0229557Y0185130D01*
X0229557Y0175130D02*
X0235557Y0175130D01*
X0235557Y0205130D02*
X0229557Y0205130D01*
X0229557Y0215130D02*
X0235557Y0215130D01*
X0235557Y0225130D02*
X0229557Y0225130D01*
X0229557Y0235130D02*
X0235557Y0235130D01*
X0235557Y0245130D02*
X0229557Y0245130D01*
X0322835Y0237294D02*
X0322835Y0231294D01*
X0340635Y0231294D02*
X0340635Y0237294D01*
X0340635Y0256894D02*
X0340635Y0262894D01*
X0322835Y0262894D02*
X0322835Y0256894D01*
X0325492Y0159405D02*
X0319492Y0159405D01*
X0319492Y0149405D02*
X0325492Y0149405D01*
X0325492Y0139405D02*
X0319492Y0139405D01*
X0319492Y0129405D02*
X0325492Y0129405D01*
X0325492Y0119405D02*
X0319492Y0119405D01*
X0319492Y0109405D02*
X0325492Y0109405D01*
X0342258Y0119859D02*
X0348258Y0119859D01*
X0348258Y0129859D02*
X0342258Y0129859D01*
X0291312Y0074394D02*
X0291312Y0068394D01*
X0281312Y0068394D02*
X0281312Y0074394D01*
X0271312Y0074394D02*
X0271312Y0068394D01*
X0303064Y0024675D02*
X0303064Y0018675D01*
X0313064Y0018675D02*
X0313064Y0024675D01*
X0332731Y0059455D02*
X0338731Y0059455D01*
X0338731Y0069455D02*
X0332731Y0069455D01*
X0022444Y0228662D02*
X0016444Y0228662D01*
X0016444Y0238662D02*
X0022444Y0238662D01*
D16*
X0039635Y0163609D03*
X0159635Y0163609D03*
D17*
X0174838Y0245906D03*
X0114838Y0245906D03*
D18*
X0320797Y0212581D03*
X0320797Y0193581D03*
D19*
X0232814Y0078865D03*
X0232717Y0040218D03*
X0030039Y0040218D03*
X0030137Y0078865D03*
D20*
X0030972Y0017412D02*
X0029626Y0016067D01*
X0240286Y0016090D01*
X0238947Y0017429D01*
X0237433Y0020051D01*
X0236650Y0022975D01*
X0236650Y0026003D01*
X0237433Y0028928D01*
X0238947Y0031550D01*
X0241088Y0033691D01*
X0243710Y0035205D01*
X0246635Y0035988D01*
X0249663Y0035988D01*
X0252587Y0035205D01*
X0255210Y0033691D01*
X0257351Y0031550D01*
X0258865Y0028928D01*
X0259648Y0026003D01*
X0259648Y0022975D01*
X0258865Y0020051D01*
X0257351Y0017429D01*
X0256014Y0016092D01*
X0298308Y0016097D01*
X0297683Y0017605D01*
X0297683Y0017608D01*
X0285648Y0029643D01*
X0284631Y0032098D01*
X0284631Y0064377D01*
X0284038Y0063946D01*
X0283308Y0063575D01*
X0282530Y0063322D01*
X0281721Y0063194D01*
X0281312Y0063194D01*
X0281312Y0071393D01*
X0281312Y0071393D01*
X0281312Y0063194D01*
X0280903Y0063194D01*
X0280094Y0063322D01*
X0279316Y0063575D01*
X0278587Y0063946D01*
X0277925Y0064427D01*
X0277346Y0065006D01*
X0276865Y0065668D01*
X0276493Y0066397D01*
X0276412Y0066645D01*
X0275874Y0065345D01*
X0274360Y0063832D01*
X0272382Y0063012D01*
X0270242Y0063012D01*
X0268264Y0063832D01*
X0266750Y0065345D01*
X0265931Y0067323D01*
X0265931Y0075464D01*
X0266750Y0077442D01*
X0268264Y0078955D01*
X0270242Y0079775D01*
X0272382Y0079775D01*
X0274360Y0078955D01*
X0275874Y0077442D01*
X0276412Y0076142D01*
X0276493Y0076390D01*
X0276865Y0077119D01*
X0277346Y0077781D01*
X0277925Y0078360D01*
X0278587Y0078841D01*
X0279316Y0079213D01*
X0280094Y0079465D01*
X0280903Y0079594D01*
X0281312Y0079594D01*
X0281312Y0071394D01*
X0281312Y0071394D01*
X0281312Y0079594D01*
X0281721Y0079594D01*
X0282530Y0079465D01*
X0283308Y0079213D01*
X0284038Y0078841D01*
X0284700Y0078360D01*
X0285278Y0077781D01*
X0285760Y0077119D01*
X0286131Y0076390D01*
X0286212Y0076142D01*
X0286750Y0077442D01*
X0288264Y0078955D01*
X0290242Y0079775D01*
X0292382Y0079775D01*
X0294360Y0078955D01*
X0295874Y0077442D01*
X0296693Y0075464D01*
X0296693Y0075461D01*
X0296976Y0075178D01*
X0297993Y0072722D01*
X0297993Y0036195D01*
X0304132Y0030056D01*
X0304135Y0030056D01*
X0306112Y0029237D01*
X0307626Y0027723D01*
X0308064Y0026666D01*
X0308502Y0027723D01*
X0310016Y0029237D01*
X0311994Y0030056D01*
X0314135Y0030056D01*
X0316112Y0029237D01*
X0317626Y0027723D01*
X0318445Y0025746D01*
X0318445Y0017605D01*
X0317822Y0016099D01*
X0351884Y0016103D01*
X0352183Y0116174D01*
X0351306Y0115297D01*
X0349328Y0114478D01*
X0341188Y0114478D01*
X0339210Y0115297D01*
X0337696Y0116811D01*
X0336877Y0118789D01*
X0336877Y0120930D01*
X0337696Y0122907D01*
X0339210Y0124421D01*
X0340510Y0124960D01*
X0340262Y0125040D01*
X0339533Y0125412D01*
X0338870Y0125893D01*
X0338292Y0126472D01*
X0337811Y0127134D01*
X0337439Y0127863D01*
X0337186Y0128642D01*
X0337058Y0129450D01*
X0337058Y0129859D01*
X0345258Y0129859D01*
X0345258Y0129859D01*
X0337058Y0129859D01*
X0337058Y0130268D01*
X0337186Y0131077D01*
X0337439Y0131855D01*
X0337811Y0132585D01*
X0338292Y0133247D01*
X0338870Y0133826D01*
X0339533Y0134307D01*
X0340262Y0134678D01*
X0341040Y0134931D01*
X0341849Y0135059D01*
X0345258Y0135059D01*
X0345258Y0129859D01*
X0345258Y0129859D01*
X0345258Y0135059D01*
X0348667Y0135059D01*
X0349476Y0134931D01*
X0350254Y0134678D01*
X0350983Y0134307D01*
X0351646Y0133826D01*
X0352224Y0133247D01*
X0352234Y0133234D01*
X0352651Y0272931D01*
X0337454Y0272943D01*
X0338447Y0271950D01*
X0342416Y0267980D01*
X0343683Y0267456D01*
X0345197Y0265942D01*
X0346016Y0263964D01*
X0346016Y0255824D01*
X0345197Y0253846D01*
X0343683Y0252332D01*
X0341705Y0251513D01*
X0339565Y0251513D01*
X0337587Y0252332D01*
X0336073Y0253846D01*
X0335254Y0255824D01*
X0335254Y0263964D01*
X0335561Y0264707D01*
X0333927Y0266340D01*
X0326998Y0266340D01*
X0327397Y0265942D01*
X0328216Y0263964D01*
X0328216Y0255824D01*
X0327397Y0253846D01*
X0325883Y0252332D01*
X0323905Y0251513D01*
X0321765Y0251513D01*
X0319787Y0252332D01*
X0318273Y0253846D01*
X0317454Y0255824D01*
X0317454Y0263964D01*
X0318273Y0265942D01*
X0318671Y0266340D01*
X0277052Y0266340D01*
X0275212Y0264501D01*
X0275212Y0204522D01*
X0274667Y0203206D01*
X0267581Y0196119D01*
X0266573Y0195112D01*
X0265257Y0194567D01*
X0264995Y0194567D01*
X0263264Y0193850D01*
X0256082Y0193850D01*
X0254251Y0194608D01*
X0252850Y0196009D01*
X0252092Y0197840D01*
X0252092Y0199821D01*
X0252850Y0201652D01*
X0254251Y0203053D01*
X0256082Y0203812D01*
X0263264Y0203812D01*
X0264593Y0203261D01*
X0268050Y0206718D01*
X0268050Y0266697D01*
X0268595Y0268013D01*
X0269603Y0269020D01*
X0273540Y0272957D01*
X0273627Y0272993D01*
X0256077Y0273007D01*
X0257365Y0271719D01*
X0258879Y0269097D01*
X0259663Y0266172D01*
X0259663Y0263144D01*
X0258879Y0260220D01*
X0257365Y0257598D01*
X0255224Y0255457D01*
X0252602Y0253943D01*
X0249677Y0253159D01*
X0246649Y0253159D01*
X0243725Y0253943D01*
X0241103Y0255457D01*
X0238962Y0257598D01*
X0237448Y0260220D01*
X0236664Y0263144D01*
X0236664Y0266172D01*
X0237448Y0269097D01*
X0238962Y0271719D01*
X0240262Y0273020D01*
X0029490Y0273186D01*
X0030971Y0271705D01*
X0032485Y0269083D01*
X0033269Y0266158D01*
X0033269Y0263130D01*
X0032485Y0260206D01*
X0030971Y0257584D01*
X0028830Y0255443D01*
X0026208Y0253929D01*
X0023283Y0253145D01*
X0020255Y0253145D01*
X0017331Y0253929D01*
X0014709Y0255443D01*
X0014253Y0255898D01*
X0014273Y0243587D01*
X0015374Y0244043D01*
X0023514Y0244043D01*
X0025492Y0243223D01*
X0027006Y0241710D01*
X0027825Y0239732D01*
X0027825Y0237591D01*
X0027006Y0235613D01*
X0025492Y0234100D01*
X0024434Y0233662D01*
X0025492Y0233223D01*
X0027006Y0231710D01*
X0027825Y0229732D01*
X0027825Y0227591D01*
X0027006Y0225613D01*
X0025492Y0224100D01*
X0023514Y0223281D01*
X0015374Y0223281D01*
X0014304Y0223724D01*
X0014420Y0149652D01*
X0014589Y0150173D01*
X0014961Y0150902D01*
X0015442Y0151564D01*
X0016021Y0152143D01*
X0016683Y0152624D01*
X0017412Y0152996D01*
X0018190Y0153249D01*
X0018999Y0153377D01*
X0022408Y0153377D01*
X0022408Y0148177D01*
X0022408Y0148177D01*
X0022408Y0153377D01*
X0025817Y0153377D01*
X0026626Y0153249D01*
X0027404Y0152996D01*
X0028133Y0152624D01*
X0028796Y0152143D01*
X0029374Y0151564D01*
X0029856Y0150902D01*
X0030227Y0150173D01*
X0030480Y0149395D01*
X0030608Y0148586D01*
X0030608Y0148177D01*
X0022408Y0148177D01*
X0022408Y0148177D01*
X0022408Y0148177D01*
X0022408Y0138177D01*
X0022408Y0138177D01*
X0022408Y0142977D01*
X0022408Y0148177D01*
X0030608Y0148177D01*
X0030608Y0147768D01*
X0030480Y0146959D01*
X0030227Y0146181D01*
X0029856Y0145451D01*
X0029374Y0144789D01*
X0028796Y0144211D01*
X0028133Y0143729D01*
X0027404Y0143358D01*
X0026847Y0143177D01*
X0027404Y0142996D01*
X0028133Y0142624D01*
X0028796Y0142143D01*
X0029374Y0141564D01*
X0029856Y0140902D01*
X0030227Y0140173D01*
X0030480Y0139395D01*
X0030608Y0138586D01*
X0030608Y0138177D01*
X0022408Y0138177D01*
X0022408Y0138177D01*
X0022408Y0138177D01*
X0022408Y0132977D01*
X0018999Y0132977D01*
X0018190Y0133105D01*
X0017412Y0133358D01*
X0016683Y0133729D01*
X0016021Y0134211D01*
X0015442Y0134789D01*
X0014961Y0135451D01*
X0014589Y0136181D01*
X0014440Y0136639D01*
X0014467Y0119275D01*
X0014558Y0119495D01*
X0016072Y0121009D01*
X0018050Y0121828D01*
X0026191Y0121828D01*
X0028168Y0121009D01*
X0029682Y0119495D01*
X0030501Y0117518D01*
X0030501Y0115377D01*
X0029682Y0113399D01*
X0028168Y0111885D01*
X0027111Y0111447D01*
X0028168Y0111009D01*
X0029682Y0109495D01*
X0030501Y0107518D01*
X0030501Y0105377D01*
X0029682Y0103399D01*
X0028168Y0101885D01*
X0026191Y0101066D01*
X0018050Y0101066D01*
X0016072Y0101885D01*
X0014558Y0103399D01*
X0014492Y0103560D01*
X0014602Y0033567D01*
X0014709Y0033674D01*
X0017331Y0035188D01*
X0020256Y0035972D01*
X0023284Y0035972D01*
X0026107Y0035216D01*
X0024683Y0036639D01*
X0023721Y0038961D01*
X0023721Y0041475D01*
X0024683Y0043797D01*
X0026460Y0045574D01*
X0028783Y0046536D01*
X0031296Y0046536D01*
X0033618Y0045574D01*
X0035396Y0043797D01*
X0036357Y0041475D01*
X0036357Y0038961D01*
X0035396Y0036639D01*
X0033618Y0034862D01*
X0031296Y0033900D01*
X0028783Y0033900D01*
X0027570Y0034402D01*
X0028831Y0033674D01*
X0030972Y0031533D01*
X0032486Y0028911D01*
X0033269Y0025987D01*
X0033269Y0022959D01*
X0032486Y0020034D01*
X0030972Y0017412D01*
X0031368Y0018098D02*
X0238561Y0018098D01*
X0237314Y0020497D02*
X0032609Y0020497D01*
X0033252Y0022895D02*
X0236671Y0022895D01*
X0236650Y0025294D02*
X0033269Y0025294D01*
X0032812Y0027692D02*
X0237102Y0027692D01*
X0238105Y0030091D02*
X0031805Y0030091D01*
X0030016Y0032489D02*
X0239887Y0032489D01*
X0236835Y0034888D02*
X0243161Y0034888D01*
X0238478Y0036531D02*
X0239495Y0038987D01*
X0239495Y0041645D01*
X0239495Y0080194D01*
X0238478Y0082650D01*
X0236598Y0084529D01*
X0234143Y0085547D01*
X0231485Y0085547D01*
X0229029Y0084529D01*
X0227150Y0082650D01*
X0226133Y0080194D01*
X0226133Y0041782D01*
X0226035Y0041547D01*
X0226035Y0038889D01*
X0227053Y0036434D01*
X0228932Y0034554D01*
X0231388Y0033537D01*
X0234045Y0033537D01*
X0236501Y0034554D01*
X0238478Y0036531D01*
X0238791Y0037286D02*
X0284631Y0037286D01*
X0284631Y0034888D02*
X0253137Y0034888D01*
X0256411Y0032489D02*
X0284631Y0032489D01*
X0285463Y0030091D02*
X0258193Y0030091D01*
X0259196Y0027692D02*
X0287599Y0027692D01*
X0289997Y0025294D02*
X0259648Y0025294D01*
X0259627Y0022895D02*
X0292396Y0022895D01*
X0294794Y0020497D02*
X0258984Y0020497D01*
X0257737Y0018098D02*
X0297193Y0018098D01*
X0307639Y0027692D02*
X0308489Y0027692D01*
X0304097Y0030091D02*
X0351926Y0030091D01*
X0351933Y0032489D02*
X0301699Y0032489D01*
X0299300Y0034888D02*
X0351940Y0034888D01*
X0351948Y0037286D02*
X0297993Y0037286D01*
X0297993Y0039685D02*
X0351955Y0039685D01*
X0351962Y0042083D02*
X0297993Y0042083D01*
X0297993Y0044482D02*
X0351969Y0044482D01*
X0351976Y0046880D02*
X0297993Y0046880D01*
X0297993Y0049279D02*
X0351983Y0049279D01*
X0351990Y0051677D02*
X0297993Y0051677D01*
X0297993Y0054076D02*
X0331656Y0054076D01*
X0331661Y0054074D02*
X0339801Y0054074D01*
X0341779Y0054893D01*
X0343293Y0056407D01*
X0344112Y0058385D01*
X0344112Y0060526D01*
X0343293Y0062503D01*
X0341779Y0064017D01*
X0340479Y0064556D01*
X0340727Y0064636D01*
X0341456Y0065008D01*
X0342119Y0065489D01*
X0342697Y0066068D01*
X0343178Y0066730D01*
X0343550Y0067459D01*
X0343803Y0068238D01*
X0343931Y0069046D01*
X0343931Y0069455D01*
X0335731Y0069455D01*
X0335731Y0069455D01*
X0327531Y0069455D01*
X0327531Y0069046D01*
X0327659Y0068238D01*
X0327912Y0067459D01*
X0328284Y0066730D01*
X0328765Y0066068D01*
X0329343Y0065489D01*
X0330006Y0065008D01*
X0330735Y0064636D01*
X0330983Y0064556D01*
X0329683Y0064017D01*
X0328169Y0062503D01*
X0327350Y0060526D01*
X0327350Y0058385D01*
X0328169Y0056407D01*
X0329683Y0054893D01*
X0331661Y0054074D01*
X0328141Y0056474D02*
X0297993Y0056474D01*
X0297993Y0058873D02*
X0327350Y0058873D01*
X0327659Y0061271D02*
X0297993Y0061271D01*
X0297993Y0063670D02*
X0329336Y0063670D01*
X0328764Y0066068D02*
X0297993Y0066068D01*
X0297993Y0068467D02*
X0327623Y0068467D01*
X0327531Y0069455D02*
X0335731Y0069455D01*
X0335731Y0069455D01*
X0343931Y0069455D01*
X0343931Y0069864D01*
X0343803Y0070673D01*
X0343550Y0071451D01*
X0343178Y0072181D01*
X0342697Y0072843D01*
X0342119Y0073422D01*
X0341456Y0073903D01*
X0340727Y0074274D01*
X0339949Y0074527D01*
X0339140Y0074655D01*
X0335731Y0074655D01*
X0335731Y0069455D01*
X0335731Y0069455D01*
X0335731Y0074655D01*
X0332322Y0074655D01*
X0331513Y0074527D01*
X0330735Y0074274D01*
X0330006Y0073903D01*
X0329343Y0073422D01*
X0328765Y0072843D01*
X0328284Y0072181D01*
X0327912Y0071451D01*
X0327659Y0070673D01*
X0327531Y0069864D01*
X0327531Y0069455D01*
X0327722Y0070865D02*
X0297993Y0070865D01*
X0297769Y0073264D02*
X0329186Y0073264D01*
X0335731Y0073264D02*
X0335731Y0073264D01*
X0335731Y0070865D02*
X0335731Y0070865D01*
X0342276Y0073264D02*
X0352055Y0073264D01*
X0352062Y0075662D02*
X0296611Y0075662D01*
X0295255Y0078061D02*
X0352069Y0078061D01*
X0352076Y0080459D02*
X0239385Y0080459D01*
X0239495Y0078061D02*
X0267370Y0078061D01*
X0266013Y0075662D02*
X0239495Y0075662D01*
X0239495Y0073264D02*
X0265931Y0073264D01*
X0265931Y0070865D02*
X0239495Y0070865D01*
X0239495Y0068467D02*
X0265931Y0068467D01*
X0266451Y0066068D02*
X0239495Y0066068D01*
X0239495Y0063670D02*
X0268654Y0063670D01*
X0273970Y0063670D02*
X0279129Y0063670D01*
X0281312Y0063670D02*
X0281312Y0063670D01*
X0283495Y0063670D02*
X0284631Y0063670D01*
X0284631Y0061271D02*
X0239495Y0061271D01*
X0239495Y0058873D02*
X0284631Y0058873D01*
X0284631Y0056474D02*
X0239495Y0056474D01*
X0239495Y0054076D02*
X0284631Y0054076D01*
X0284631Y0051677D02*
X0239495Y0051677D01*
X0239495Y0049279D02*
X0284631Y0049279D01*
X0284631Y0046880D02*
X0239495Y0046880D01*
X0239495Y0044482D02*
X0284631Y0044482D01*
X0284631Y0042083D02*
X0239495Y0042083D01*
X0239495Y0039685D02*
X0284631Y0039685D01*
X0281312Y0066068D02*
X0281312Y0066068D01*
X0281312Y0068467D02*
X0281312Y0068467D01*
X0281312Y0070865D02*
X0281312Y0070865D01*
X0281312Y0073264D02*
X0281312Y0073264D01*
X0281312Y0075662D02*
X0281312Y0075662D01*
X0281312Y0078061D02*
X0281312Y0078061D01*
X0277626Y0078061D02*
X0275255Y0078061D01*
X0284999Y0078061D02*
X0287370Y0078061D01*
X0276661Y0066068D02*
X0276173Y0066068D01*
X0244030Y0093469D02*
X0243357Y0093126D01*
X0242638Y0092893D01*
X0241892Y0092775D01*
X0241514Y0092775D01*
X0241514Y0100175D01*
X0241514Y0100175D01*
X0241514Y0107575D01*
X0241892Y0107575D01*
X0242638Y0107456D01*
X0243357Y0107223D01*
X0244030Y0106880D01*
X0244641Y0106436D01*
X0245175Y0105902D01*
X0245619Y0105290D01*
X0245962Y0104617D01*
X0246196Y0103899D01*
X0246314Y0103152D01*
X0246314Y0100175D01*
X0241514Y0100175D01*
X0241514Y0107575D01*
X0241136Y0107575D01*
X0240390Y0107456D01*
X0239671Y0107223D01*
X0238998Y0106880D01*
X0238387Y0106436D01*
X0237853Y0105902D01*
X0237409Y0105290D01*
X0237066Y0104617D01*
X0236832Y0103899D01*
X0236714Y0103152D01*
X0236714Y0100175D01*
X0241514Y0100175D01*
X0241514Y0100175D01*
X0241514Y0100175D01*
X0246314Y0100175D01*
X0246314Y0097197D01*
X0246196Y0096451D01*
X0245962Y0095732D01*
X0245619Y0095059D01*
X0245175Y0094448D01*
X0244641Y0093913D01*
X0244030Y0093469D01*
X0245468Y0094851D02*
X0352119Y0094851D01*
X0352126Y0097249D02*
X0246314Y0097249D01*
X0246314Y0099648D02*
X0352134Y0099648D01*
X0352141Y0102046D02*
X0246314Y0102046D01*
X0246018Y0104445D02*
X0317930Y0104445D01*
X0318274Y0104333D02*
X0319083Y0104205D01*
X0322492Y0104205D01*
X0325901Y0104205D01*
X0326710Y0104333D01*
X0327488Y0104586D01*
X0328217Y0104957D01*
X0328879Y0105438D01*
X0329458Y0106017D01*
X0329939Y0106679D01*
X0330311Y0107409D01*
X0330564Y0108187D01*
X0330692Y0108995D01*
X0330692Y0109405D01*
X0330692Y0109814D01*
X0330564Y0110622D01*
X0330311Y0111401D01*
X0329939Y0112130D01*
X0329458Y0112792D01*
X0328879Y0113371D01*
X0328217Y0113852D01*
X0327488Y0114224D01*
X0327240Y0114304D01*
X0328540Y0114843D01*
X0330054Y0116356D01*
X0330873Y0118334D01*
X0330873Y0120475D01*
X0330054Y0122453D01*
X0328540Y0123967D01*
X0327482Y0124405D01*
X0328540Y0124843D01*
X0330054Y0126356D01*
X0330873Y0128334D01*
X0330873Y0130475D01*
X0330054Y0132453D01*
X0328540Y0133967D01*
X0327482Y0134405D01*
X0328540Y0134843D01*
X0330054Y0136356D01*
X0330873Y0138334D01*
X0330873Y0140475D01*
X0330054Y0142453D01*
X0328540Y0143967D01*
X0327482Y0144405D01*
X0328540Y0144843D01*
X0330054Y0146356D01*
X0330873Y0148334D01*
X0330873Y0150475D01*
X0330054Y0152453D01*
X0328540Y0153967D01*
X0327482Y0154405D01*
X0328540Y0154843D01*
X0330054Y0156356D01*
X0330873Y0158334D01*
X0330873Y0160475D01*
X0330054Y0162453D01*
X0328540Y0163967D01*
X0326562Y0164786D01*
X0318422Y0164786D01*
X0316444Y0163967D01*
X0314930Y0162453D01*
X0314111Y0160475D01*
X0314111Y0158334D01*
X0314930Y0156356D01*
X0316444Y0154843D01*
X0317501Y0154405D01*
X0316444Y0153967D01*
X0314930Y0152453D01*
X0314111Y0150475D01*
X0314111Y0148334D01*
X0314930Y0146356D01*
X0316444Y0144843D01*
X0317501Y0144405D01*
X0316444Y0143967D01*
X0314930Y0142453D01*
X0314111Y0140475D01*
X0314111Y0138334D01*
X0314930Y0136356D01*
X0316444Y0134843D01*
X0317501Y0134405D01*
X0316444Y0133967D01*
X0314930Y0132453D01*
X0314111Y0130475D01*
X0314111Y0128334D01*
X0314930Y0126356D01*
X0316444Y0124843D01*
X0317501Y0124405D01*
X0316444Y0123967D01*
X0314930Y0122453D01*
X0314111Y0120475D01*
X0314111Y0118334D01*
X0314930Y0116356D01*
X0316444Y0114843D01*
X0317744Y0114304D01*
X0317496Y0114224D01*
X0316766Y0113852D01*
X0316104Y0113371D01*
X0315526Y0112792D01*
X0315044Y0112130D01*
X0314673Y0111401D01*
X0314420Y0110622D01*
X0314292Y0109814D01*
X0314292Y0109405D01*
X0322492Y0109405D01*
X0330692Y0109405D01*
X0322492Y0109405D01*
X0322492Y0109405D01*
X0322492Y0109405D01*
X0322492Y0104205D01*
X0322492Y0109405D01*
X0322492Y0109405D01*
X0314292Y0109405D01*
X0314292Y0108995D01*
X0314420Y0108187D01*
X0314673Y0107409D01*
X0315044Y0106679D01*
X0315526Y0106017D01*
X0316104Y0105438D01*
X0316766Y0104957D01*
X0317496Y0104586D01*
X0318274Y0104333D01*
X0314961Y0106843D02*
X0244080Y0106843D01*
X0241514Y0106843D02*
X0241514Y0106843D01*
X0241514Y0104445D02*
X0241514Y0104445D01*
X0241514Y0102046D02*
X0241514Y0102046D01*
X0241514Y0100175D02*
X0236714Y0100175D01*
X0236714Y0097197D01*
X0236832Y0096451D01*
X0237066Y0095732D01*
X0237409Y0095059D01*
X0237853Y0094448D01*
X0238387Y0093913D01*
X0238998Y0093469D01*
X0239671Y0093126D01*
X0240390Y0092893D01*
X0241136Y0092775D01*
X0241514Y0092775D01*
X0241514Y0100175D01*
X0241514Y0100175D01*
X0241514Y0099648D02*
X0241514Y0099648D01*
X0241514Y0097249D02*
X0241514Y0097249D01*
X0241514Y0094851D02*
X0241514Y0094851D01*
X0237560Y0094851D02*
X0014506Y0094851D01*
X0014502Y0097249D02*
X0236714Y0097249D01*
X0236714Y0099648D02*
X0014498Y0099648D01*
X0014494Y0102046D02*
X0015911Y0102046D01*
X0028329Y0102046D02*
X0179518Y0102046D01*
X0180242Y0101746D02*
X0178411Y0102504D01*
X0177010Y0103906D01*
X0176252Y0105736D01*
X0176252Y0107718D01*
X0177010Y0109549D01*
X0178411Y0110950D01*
X0180242Y0111708D01*
X0187424Y0111708D01*
X0189254Y0110950D01*
X0190656Y0109549D01*
X0191414Y0107718D01*
X0191414Y0105736D01*
X0190656Y0103906D01*
X0189254Y0102504D01*
X0187424Y0101746D01*
X0180242Y0101746D01*
X0176787Y0104445D02*
X0030115Y0104445D01*
X0030501Y0106843D02*
X0176252Y0106843D01*
X0176883Y0109242D02*
X0133009Y0109242D01*
X0133436Y0109419D02*
X0134992Y0110975D01*
X0135834Y0113007D01*
X0135834Y0115208D01*
X0134992Y0117241D01*
X0133436Y0118797D01*
X0131404Y0119639D01*
X0129203Y0119639D01*
X0127170Y0118797D01*
X0125614Y0117241D01*
X0124772Y0115208D01*
X0124772Y0113007D01*
X0125614Y0110975D01*
X0127170Y0109419D01*
X0129203Y0108577D01*
X0131404Y0108577D01*
X0133436Y0109419D01*
X0135268Y0111640D02*
X0180078Y0111640D01*
X0187588Y0111640D02*
X0314795Y0111640D01*
X0314292Y0109242D02*
X0230539Y0109242D01*
X0230538Y0109243D02*
X0230094Y0109854D01*
X0229560Y0110388D01*
X0228949Y0110832D01*
X0228275Y0111176D01*
X0227557Y0111409D01*
X0226811Y0111527D01*
X0223833Y0111527D01*
X0223833Y0106727D01*
X0223833Y0101927D01*
X0226811Y0101927D01*
X0227557Y0102045D01*
X0228275Y0102279D01*
X0228949Y0102622D01*
X0229560Y0103066D01*
X0230094Y0103600D01*
X0230538Y0104211D01*
X0230881Y0104885D01*
X0231115Y0105603D01*
X0231233Y0106349D01*
X0231233Y0106727D01*
X0223833Y0106727D01*
X0223833Y0106727D01*
X0223833Y0106727D01*
X0223833Y0101927D01*
X0220855Y0101927D01*
X0220109Y0102045D01*
X0219390Y0102279D01*
X0218717Y0102622D01*
X0218106Y0103066D01*
X0217572Y0103600D01*
X0217128Y0104211D01*
X0216785Y0104885D01*
X0216551Y0105603D01*
X0216433Y0106349D01*
X0216433Y0106727D01*
X0223833Y0106727D01*
X0231233Y0106727D01*
X0231233Y0107105D01*
X0231115Y0107851D01*
X0230881Y0108570D01*
X0230538Y0109243D01*
X0231233Y0106843D02*
X0238947Y0106843D01*
X0237010Y0104445D02*
X0230657Y0104445D01*
X0227559Y0102046D02*
X0236714Y0102046D01*
X0223833Y0102046D02*
X0223833Y0102046D01*
X0223833Y0104445D02*
X0223833Y0104445D01*
X0223833Y0106727D02*
X0223833Y0106727D01*
X0223833Y0106727D01*
X0216433Y0106727D01*
X0216433Y0107105D01*
X0216551Y0107851D01*
X0216785Y0108570D01*
X0217128Y0109243D01*
X0217572Y0109854D01*
X0218106Y0110388D01*
X0218717Y0110832D01*
X0219390Y0111176D01*
X0220109Y0111409D01*
X0220855Y0111527D01*
X0223833Y0111527D01*
X0223833Y0106727D01*
X0223833Y0106843D02*
X0223833Y0106843D01*
X0223833Y0109242D02*
X0223833Y0109242D01*
X0217127Y0109242D02*
X0190783Y0109242D01*
X0191414Y0106843D02*
X0216433Y0106843D01*
X0217009Y0104445D02*
X0190879Y0104445D01*
X0188148Y0102046D02*
X0220107Y0102046D01*
X0230785Y0085257D02*
X0014521Y0085257D01*
X0014517Y0087655D02*
X0352098Y0087655D01*
X0352091Y0085257D02*
X0234843Y0085257D01*
X0238270Y0082858D02*
X0352084Y0082858D01*
X0352105Y0090054D02*
X0014513Y0090054D01*
X0014509Y0092452D02*
X0352112Y0092452D01*
X0352148Y0104445D02*
X0327054Y0104445D01*
X0330023Y0106843D02*
X0352155Y0106843D01*
X0352162Y0109242D02*
X0330692Y0109242D01*
X0330189Y0111640D02*
X0352169Y0111640D01*
X0352177Y0114039D02*
X0327851Y0114039D01*
X0330087Y0116437D02*
X0338070Y0116437D01*
X0336877Y0118836D02*
X0330873Y0118836D01*
X0330559Y0121234D02*
X0337003Y0121234D01*
X0338421Y0123633D02*
X0328874Y0123633D01*
X0329728Y0126031D02*
X0338732Y0126031D01*
X0337255Y0128430D02*
X0330873Y0128430D01*
X0330727Y0130828D02*
X0337147Y0130828D01*
X0338277Y0133227D02*
X0329280Y0133227D01*
X0329323Y0135625D02*
X0352241Y0135625D01*
X0352248Y0138024D02*
X0330744Y0138024D01*
X0330873Y0140422D02*
X0352255Y0140422D01*
X0352262Y0142821D02*
X0329686Y0142821D01*
X0328917Y0145219D02*
X0352270Y0145219D01*
X0352277Y0147618D02*
X0330576Y0147618D01*
X0330873Y0150016D02*
X0352284Y0150016D01*
X0352291Y0152415D02*
X0330069Y0152415D01*
X0328469Y0154813D02*
X0352298Y0154813D01*
X0352305Y0157212D02*
X0330408Y0157212D01*
X0330873Y0159610D02*
X0352313Y0159610D01*
X0352320Y0162009D02*
X0330238Y0162009D01*
X0327476Y0164407D02*
X0352327Y0164407D01*
X0352334Y0166806D02*
X0296826Y0166806D01*
X0296496Y0166009D02*
X0297254Y0167840D01*
X0297254Y0169821D01*
X0296496Y0171652D01*
X0295094Y0173053D01*
X0293264Y0173812D01*
X0286082Y0173812D01*
X0284251Y0173053D01*
X0282850Y0171652D01*
X0282092Y0169821D01*
X0282092Y0167840D01*
X0282850Y0166009D01*
X0284251Y0164608D01*
X0286082Y0163850D01*
X0293264Y0163850D01*
X0295094Y0164608D01*
X0296496Y0166009D01*
X0294610Y0164407D02*
X0317508Y0164407D01*
X0314746Y0162009D02*
X0296139Y0162009D01*
X0296496Y0161652D02*
X0295094Y0163053D01*
X0293264Y0163812D01*
X0286082Y0163812D01*
X0284251Y0163053D01*
X0282850Y0161652D01*
X0282092Y0159821D01*
X0282092Y0157840D01*
X0282850Y0156009D01*
X0284251Y0154608D01*
X0286082Y0153850D01*
X0293264Y0153850D01*
X0295094Y0154608D01*
X0296496Y0156009D01*
X0297254Y0157840D01*
X0297254Y0159821D01*
X0296496Y0161652D01*
X0297254Y0159610D02*
X0314111Y0159610D01*
X0314576Y0157212D02*
X0296994Y0157212D01*
X0295300Y0154813D02*
X0316515Y0154813D01*
X0314914Y0152415D02*
X0295733Y0152415D01*
X0295094Y0153053D02*
X0296496Y0151652D01*
X0297254Y0149821D01*
X0297254Y0147840D01*
X0296496Y0146009D01*
X0295094Y0144608D01*
X0293264Y0143850D01*
X0286082Y0143850D01*
X0284251Y0144608D01*
X0282850Y0146009D01*
X0282092Y0147840D01*
X0282092Y0149821D01*
X0282850Y0151652D01*
X0284251Y0153053D01*
X0286082Y0153812D01*
X0293264Y0153812D01*
X0295094Y0153053D01*
X0297173Y0150016D02*
X0314111Y0150016D01*
X0314408Y0147618D02*
X0297162Y0147618D01*
X0295706Y0145219D02*
X0316067Y0145219D01*
X0315298Y0142821D02*
X0295327Y0142821D01*
X0295094Y0143053D02*
X0293264Y0143812D01*
X0286082Y0143812D01*
X0284251Y0143053D01*
X0282850Y0141652D01*
X0282092Y0139821D01*
X0282092Y0137840D01*
X0282850Y0136009D01*
X0284251Y0134608D01*
X0286082Y0133850D01*
X0293264Y0133850D01*
X0295094Y0134608D01*
X0296496Y0136009D01*
X0297254Y0137840D01*
X0297254Y0139821D01*
X0296496Y0141652D01*
X0295094Y0143053D01*
X0297005Y0140422D02*
X0314111Y0140422D01*
X0314239Y0138024D02*
X0297254Y0138024D01*
X0296112Y0135625D02*
X0315661Y0135625D01*
X0315704Y0133227D02*
X0294676Y0133227D01*
X0295094Y0133053D02*
X0293264Y0133812D01*
X0286082Y0133812D01*
X0284251Y0133053D01*
X0282850Y0131652D01*
X0282092Y0129821D01*
X0282092Y0127840D01*
X0282850Y0126009D01*
X0284251Y0124608D01*
X0286082Y0123850D01*
X0293264Y0123850D01*
X0295094Y0124608D01*
X0296496Y0126009D01*
X0297254Y0127840D01*
X0297254Y0129821D01*
X0296496Y0131652D01*
X0295094Y0133053D01*
X0296837Y0130828D02*
X0314257Y0130828D01*
X0314111Y0128430D02*
X0297254Y0128430D01*
X0296505Y0126031D02*
X0315255Y0126031D01*
X0316110Y0123633D02*
X0293696Y0123633D01*
X0293264Y0123812D02*
X0286082Y0123812D01*
X0284251Y0123053D01*
X0282850Y0121652D01*
X0282092Y0119821D01*
X0282092Y0117840D01*
X0282850Y0116009D01*
X0284251Y0114608D01*
X0286082Y0113850D01*
X0293264Y0113850D01*
X0295094Y0114608D01*
X0296496Y0116009D01*
X0297254Y0117840D01*
X0297254Y0119821D01*
X0296496Y0121652D01*
X0295094Y0123053D01*
X0293264Y0123812D01*
X0296669Y0121234D02*
X0314425Y0121234D01*
X0314111Y0118836D02*
X0297254Y0118836D01*
X0296673Y0116437D02*
X0314897Y0116437D01*
X0317133Y0114039D02*
X0293720Y0114039D01*
X0285625Y0114039D02*
X0263720Y0114039D01*
X0263264Y0113850D02*
X0265094Y0114608D01*
X0266496Y0116009D01*
X0267254Y0117840D01*
X0267254Y0119821D01*
X0266496Y0121652D01*
X0265094Y0123053D01*
X0263264Y0123812D01*
X0256082Y0123812D01*
X0254251Y0123053D01*
X0252850Y0121652D01*
X0252092Y0119821D01*
X0252092Y0117840D01*
X0252850Y0116009D01*
X0254251Y0114608D01*
X0256082Y0113850D01*
X0263264Y0113850D01*
X0266673Y0116437D02*
X0282673Y0116437D01*
X0282092Y0118836D02*
X0267254Y0118836D01*
X0266669Y0121234D02*
X0282677Y0121234D01*
X0285650Y0123633D02*
X0263696Y0123633D01*
X0263264Y0123850D02*
X0265094Y0124608D01*
X0266496Y0126009D01*
X0267254Y0127840D01*
X0267254Y0129821D01*
X0266496Y0131652D01*
X0265094Y0133053D01*
X0263264Y0133812D01*
X0256082Y0133812D01*
X0254251Y0133053D01*
X0252850Y0131652D01*
X0252092Y0129821D01*
X0252092Y0127840D01*
X0252850Y0126009D01*
X0254251Y0124608D01*
X0256082Y0123850D01*
X0263264Y0123850D01*
X0266505Y0126031D02*
X0282841Y0126031D01*
X0282092Y0128430D02*
X0267254Y0128430D01*
X0266837Y0130828D02*
X0282509Y0130828D01*
X0284670Y0133227D02*
X0264676Y0133227D01*
X0265094Y0134608D02*
X0266496Y0136009D01*
X0267254Y0137840D01*
X0267254Y0139821D01*
X0266496Y0141652D01*
X0265094Y0143053D01*
X0263264Y0143812D01*
X0256082Y0143812D01*
X0254251Y0143053D01*
X0252850Y0141652D01*
X0252092Y0139821D01*
X0252092Y0137840D01*
X0252850Y0136009D01*
X0254251Y0134608D01*
X0256082Y0133850D01*
X0263264Y0133850D01*
X0265094Y0134608D01*
X0266112Y0135625D02*
X0283234Y0135625D01*
X0282092Y0138024D02*
X0267254Y0138024D01*
X0267005Y0140422D02*
X0282341Y0140422D01*
X0284019Y0142821D02*
X0265327Y0142821D01*
X0265094Y0144608D02*
X0266496Y0146009D01*
X0267254Y0147840D01*
X0267254Y0149821D01*
X0266496Y0151652D01*
X0265094Y0153053D01*
X0263264Y0153812D01*
X0256082Y0153812D01*
X0254251Y0153053D01*
X0252850Y0151652D01*
X0252092Y0149821D01*
X0252092Y0147840D01*
X0252850Y0146009D01*
X0254251Y0144608D01*
X0256082Y0143850D01*
X0263264Y0143850D01*
X0265094Y0144608D01*
X0265706Y0145219D02*
X0283640Y0145219D01*
X0282184Y0147618D02*
X0267162Y0147618D01*
X0267173Y0150016D02*
X0282172Y0150016D01*
X0283613Y0152415D02*
X0265733Y0152415D01*
X0265094Y0154608D02*
X0263264Y0153850D01*
X0256082Y0153850D01*
X0254251Y0154608D01*
X0252850Y0156009D01*
X0252092Y0157840D01*
X0252092Y0159821D01*
X0252850Y0161652D01*
X0254251Y0163053D01*
X0256082Y0163812D01*
X0263264Y0163812D01*
X0265094Y0163053D01*
X0266496Y0161652D01*
X0267254Y0159821D01*
X0267254Y0157840D01*
X0266496Y0156009D01*
X0265094Y0154608D01*
X0265300Y0154813D02*
X0284046Y0154813D01*
X0282352Y0157212D02*
X0266994Y0157212D01*
X0267254Y0159610D02*
X0282092Y0159610D01*
X0283207Y0162009D02*
X0266139Y0162009D01*
X0265094Y0164608D02*
X0266496Y0166009D01*
X0267254Y0167840D01*
X0267254Y0169821D01*
X0266496Y0171652D01*
X0265094Y0173053D01*
X0263264Y0173812D01*
X0256082Y0173812D01*
X0254251Y0173053D01*
X0252850Y0171652D01*
X0252092Y0169821D01*
X0252092Y0167840D01*
X0252850Y0166009D01*
X0254251Y0164608D01*
X0256082Y0163850D01*
X0263264Y0163850D01*
X0265094Y0164608D01*
X0264610Y0164407D02*
X0284735Y0164407D01*
X0282520Y0166806D02*
X0266826Y0166806D01*
X0267254Y0169204D02*
X0282092Y0169204D01*
X0282830Y0171603D02*
X0266516Y0171603D01*
X0264789Y0174725D02*
X0264115Y0174382D01*
X0263397Y0174149D01*
X0262651Y0174031D01*
X0259673Y0174031D01*
X0259673Y0178831D01*
X0259673Y0178831D01*
X0259673Y0183631D01*
X0262651Y0183631D01*
X0263397Y0183512D01*
X0264115Y0183279D01*
X0264789Y0182936D01*
X0265400Y0182492D01*
X0265934Y0181958D01*
X0266378Y0181346D01*
X0266721Y0180673D01*
X0266955Y0179955D01*
X0267073Y0179208D01*
X0267073Y0178831D01*
X0259673Y0178831D01*
X0259673Y0178831D01*
X0259673Y0183631D01*
X0256695Y0183631D01*
X0255949Y0183512D01*
X0255230Y0183279D01*
X0254557Y0182936D01*
X0253946Y0182492D01*
X0253412Y0181958D01*
X0252967Y0181346D01*
X0252624Y0180673D01*
X0252391Y0179955D01*
X0252273Y0179208D01*
X0252273Y0178831D01*
X0259673Y0178831D01*
X0267073Y0178831D01*
X0267073Y0178453D01*
X0266955Y0177707D01*
X0266721Y0176988D01*
X0266378Y0176315D01*
X0265934Y0175704D01*
X0265400Y0175169D01*
X0264789Y0174725D01*
X0266421Y0176400D02*
X0282688Y0176400D01*
X0282850Y0176009D02*
X0282092Y0177840D01*
X0282092Y0179821D01*
X0282850Y0181652D01*
X0284251Y0183053D01*
X0286082Y0183812D01*
X0293264Y0183812D01*
X0295094Y0183053D01*
X0296496Y0181652D01*
X0297254Y0179821D01*
X0297254Y0177840D01*
X0296496Y0176009D01*
X0295094Y0174608D01*
X0293264Y0173850D01*
X0286082Y0173850D01*
X0284251Y0174608D01*
X0282850Y0176009D01*
X0282092Y0178798D02*
X0267073Y0178798D01*
X0266454Y0181197D02*
X0282661Y0181197D01*
X0285560Y0183595D02*
X0262872Y0183595D01*
X0263264Y0183850D02*
X0265094Y0184608D01*
X0266496Y0186009D01*
X0267254Y0187840D01*
X0267254Y0189821D01*
X0266496Y0191652D01*
X0265094Y0193053D01*
X0263264Y0193812D01*
X0256082Y0193812D01*
X0254251Y0193053D01*
X0252850Y0191652D01*
X0252092Y0189821D01*
X0252092Y0187840D01*
X0252850Y0186009D01*
X0254251Y0184608D01*
X0256082Y0183850D01*
X0263264Y0183850D01*
X0259673Y0183595D02*
X0259673Y0183595D01*
X0259673Y0181197D02*
X0259673Y0181197D01*
X0259673Y0178831D02*
X0259673Y0178831D01*
X0259673Y0178831D01*
X0252273Y0178831D01*
X0252273Y0178453D01*
X0252391Y0177707D01*
X0252624Y0176988D01*
X0252967Y0176315D01*
X0253412Y0175704D01*
X0253946Y0175169D01*
X0254557Y0174725D01*
X0255230Y0174382D01*
X0255949Y0174149D01*
X0256695Y0174031D01*
X0259673Y0174031D01*
X0259673Y0178831D01*
X0259673Y0178798D02*
X0259673Y0178798D01*
X0259673Y0176400D02*
X0259673Y0176400D01*
X0252924Y0176400D02*
X0240612Y0176400D01*
X0240629Y0176348D02*
X0240376Y0177126D01*
X0240004Y0177855D01*
X0239523Y0178518D01*
X0238944Y0179096D01*
X0238282Y0179577D01*
X0237553Y0179949D01*
X0237305Y0180030D01*
X0238605Y0180568D01*
X0240119Y0182082D01*
X0240938Y0184060D01*
X0240938Y0186200D01*
X0240119Y0188178D01*
X0238605Y0189692D01*
X0237547Y0190130D01*
X0238605Y0190568D01*
X0240119Y0192082D01*
X0240938Y0194060D01*
X0240938Y0196200D01*
X0240119Y0198178D01*
X0238605Y0199692D01*
X0237547Y0200130D01*
X0238605Y0200568D01*
X0240119Y0202082D01*
X0240938Y0204060D01*
X0240938Y0206200D01*
X0240119Y0208178D01*
X0238605Y0209692D01*
X0237547Y0210130D01*
X0238605Y0210568D01*
X0240119Y0212082D01*
X0240938Y0214060D01*
X0240938Y0216200D01*
X0240119Y0218178D01*
X0238605Y0219692D01*
X0237547Y0220130D01*
X0238605Y0220568D01*
X0240119Y0222082D01*
X0240938Y0224060D01*
X0240938Y0226200D01*
X0240119Y0228178D01*
X0238605Y0229692D01*
X0237547Y0230130D01*
X0238605Y0230568D01*
X0240119Y0232082D01*
X0240938Y0234060D01*
X0240938Y0236200D01*
X0240119Y0238178D01*
X0238605Y0239692D01*
X0237547Y0240130D01*
X0238605Y0240568D01*
X0240119Y0242082D01*
X0240938Y0244060D01*
X0240938Y0246200D01*
X0240119Y0248178D01*
X0238605Y0249692D01*
X0236627Y0250511D01*
X0228486Y0250511D01*
X0226508Y0249692D01*
X0224995Y0248178D01*
X0224176Y0246200D01*
X0224176Y0244060D01*
X0224995Y0242082D01*
X0226508Y0240568D01*
X0227566Y0240130D01*
X0226508Y0239692D01*
X0224995Y0238178D01*
X0224176Y0236200D01*
X0224176Y0234060D01*
X0224995Y0232082D01*
X0226508Y0230568D01*
X0227566Y0230130D01*
X0226508Y0229692D01*
X0224995Y0228178D01*
X0224176Y0226200D01*
X0224176Y0224060D01*
X0224995Y0222082D01*
X0226508Y0220568D01*
X0227566Y0220130D01*
X0226508Y0219692D01*
X0224995Y0218178D01*
X0224176Y0216200D01*
X0224176Y0214060D01*
X0224995Y0212082D01*
X0226508Y0210568D01*
X0227566Y0210130D01*
X0226508Y0209692D01*
X0224995Y0208178D01*
X0224176Y0206200D01*
X0224176Y0204060D01*
X0224995Y0202082D01*
X0226508Y0200568D01*
X0227566Y0200130D01*
X0226508Y0199692D01*
X0224995Y0198178D01*
X0224176Y0196200D01*
X0224176Y0194060D01*
X0224995Y0192082D01*
X0226508Y0190568D01*
X0227566Y0190130D01*
X0226508Y0189692D01*
X0224995Y0188178D01*
X0224176Y0186200D01*
X0224176Y0184060D01*
X0224995Y0182082D01*
X0226508Y0180568D01*
X0227809Y0180030D01*
X0227561Y0179949D01*
X0226831Y0179577D01*
X0226169Y0179096D01*
X0225590Y0178518D01*
X0225109Y0177855D01*
X0224738Y0177126D01*
X0224485Y0176348D01*
X0224357Y0175539D01*
X0224357Y0175130D01*
X0224357Y0174721D01*
X0224485Y0173912D01*
X0224738Y0173134D01*
X0225109Y0172405D01*
X0225590Y0171742D01*
X0226169Y0171164D01*
X0226831Y0170683D01*
X0227561Y0170311D01*
X0228339Y0170058D01*
X0229147Y0169930D01*
X0232557Y0169930D01*
X0235966Y0169930D01*
X0236774Y0170058D01*
X0237553Y0170311D01*
X0238282Y0170683D01*
X0238944Y0171164D01*
X0239523Y0171742D01*
X0240004Y0172405D01*
X0240376Y0173134D01*
X0240629Y0173912D01*
X0240757Y0174721D01*
X0240757Y0175130D01*
X0232557Y0175130D01*
X0232557Y0175130D01*
X0240757Y0175130D01*
X0240757Y0175539D01*
X0240629Y0176348D01*
X0240643Y0174001D02*
X0285715Y0174001D01*
X0293630Y0174001D02*
X0352355Y0174001D01*
X0352348Y0171603D02*
X0296516Y0171603D01*
X0297254Y0169204D02*
X0352341Y0169204D01*
X0352363Y0176400D02*
X0296657Y0176400D01*
X0297254Y0178798D02*
X0352370Y0178798D01*
X0352377Y0181197D02*
X0296684Y0181197D01*
X0293786Y0183595D02*
X0352384Y0183595D01*
X0352391Y0185994D02*
X0296145Y0185994D01*
X0295934Y0185704D02*
X0296378Y0186315D01*
X0296721Y0186988D01*
X0296955Y0187707D01*
X0297073Y0188453D01*
X0297073Y0188831D01*
X0297073Y0189208D01*
X0296955Y0189955D01*
X0296721Y0190673D01*
X0296378Y0191346D01*
X0295934Y0191958D01*
X0295400Y0192492D01*
X0294789Y0192936D01*
X0294115Y0193279D01*
X0293397Y0193512D01*
X0292651Y0193631D01*
X0289673Y0193631D01*
X0289673Y0188831D01*
X0289673Y0188831D01*
X0297073Y0188831D01*
X0289673Y0188831D01*
X0289673Y0188831D01*
X0289673Y0193631D01*
X0286695Y0193631D01*
X0285949Y0193512D01*
X0285230Y0193279D01*
X0284557Y0192936D01*
X0283946Y0192492D01*
X0283412Y0191958D01*
X0282967Y0191346D01*
X0282624Y0190673D01*
X0282391Y0189955D01*
X0282273Y0189208D01*
X0282273Y0188831D01*
X0289673Y0188831D01*
X0289673Y0188831D01*
X0289673Y0184031D01*
X0292651Y0184031D01*
X0293397Y0184149D01*
X0294115Y0184382D01*
X0294789Y0184725D01*
X0295400Y0185169D01*
X0295934Y0185704D01*
X0297063Y0188393D02*
X0352398Y0188393D01*
X0352406Y0190791D02*
X0325033Y0190791D01*
X0325020Y0190760D02*
X0325778Y0192591D01*
X0325778Y0194572D01*
X0325020Y0196403D01*
X0323619Y0197804D01*
X0321788Y0198562D01*
X0319806Y0198562D01*
X0317975Y0197804D01*
X0316574Y0196403D01*
X0315816Y0194572D01*
X0315816Y0192591D01*
X0316574Y0190760D01*
X0317975Y0189359D01*
X0319806Y0188600D01*
X0321788Y0188600D01*
X0323619Y0189359D01*
X0325020Y0190760D01*
X0325778Y0193190D02*
X0352413Y0193190D01*
X0352420Y0195588D02*
X0325357Y0195588D01*
X0323178Y0197987D02*
X0352427Y0197987D01*
X0352434Y0200385D02*
X0297020Y0200385D01*
X0297254Y0199821D02*
X0296496Y0201652D01*
X0295094Y0203053D01*
X0293264Y0203812D01*
X0286082Y0203812D01*
X0284251Y0203053D01*
X0282850Y0201652D01*
X0282092Y0199821D01*
X0282092Y0197840D01*
X0282850Y0196009D01*
X0284251Y0194608D01*
X0286082Y0193850D01*
X0293264Y0193850D01*
X0295094Y0194608D01*
X0296496Y0196009D01*
X0297254Y0197840D01*
X0297254Y0199821D01*
X0297254Y0197987D02*
X0318416Y0197987D01*
X0316237Y0195588D02*
X0296075Y0195588D01*
X0294291Y0193190D02*
X0315816Y0193190D01*
X0316561Y0190791D02*
X0296661Y0190791D01*
X0289673Y0190791D02*
X0289673Y0190791D01*
X0289673Y0188831D02*
X0282273Y0188831D01*
X0282273Y0188453D01*
X0282391Y0187707D01*
X0282624Y0186988D01*
X0282967Y0186315D01*
X0283412Y0185704D01*
X0283946Y0185169D01*
X0284557Y0184725D01*
X0285230Y0184382D01*
X0285949Y0184149D01*
X0286695Y0184031D01*
X0289673Y0184031D01*
X0289673Y0188831D01*
X0289673Y0188831D01*
X0289673Y0188393D02*
X0289673Y0188393D01*
X0289673Y0185994D02*
X0289673Y0185994D01*
X0283201Y0185994D02*
X0266480Y0185994D01*
X0267254Y0188393D02*
X0282282Y0188393D01*
X0282684Y0190791D02*
X0266852Y0190791D01*
X0264766Y0193190D02*
X0285055Y0193190D01*
X0283271Y0195588D02*
X0267049Y0195588D01*
X0269448Y0197987D02*
X0282092Y0197987D01*
X0282325Y0200385D02*
X0271846Y0200385D01*
X0274245Y0202784D02*
X0283981Y0202784D01*
X0284251Y0204608D02*
X0286082Y0203850D01*
X0293264Y0203850D01*
X0295094Y0204608D01*
X0296496Y0206009D01*
X0297254Y0207840D01*
X0297254Y0209821D01*
X0296496Y0211652D01*
X0295094Y0213053D01*
X0293264Y0213812D01*
X0286082Y0213812D01*
X0284251Y0213053D01*
X0282850Y0211652D01*
X0282092Y0209821D01*
X0282092Y0207840D01*
X0282850Y0206009D01*
X0284251Y0204608D01*
X0283677Y0205182D02*
X0275212Y0205182D01*
X0275212Y0207581D02*
X0282199Y0207581D01*
X0282157Y0209979D02*
X0275212Y0209979D01*
X0275212Y0212378D02*
X0283575Y0212378D01*
X0284251Y0214608D02*
X0286082Y0213850D01*
X0293264Y0213850D01*
X0295094Y0214608D01*
X0296496Y0216009D01*
X0297254Y0217840D01*
X0297254Y0219821D01*
X0296496Y0221652D01*
X0295094Y0223053D01*
X0293264Y0223812D01*
X0286082Y0223812D01*
X0284251Y0223053D01*
X0282850Y0221652D01*
X0282092Y0219821D01*
X0282092Y0217840D01*
X0282850Y0216009D01*
X0284251Y0214608D01*
X0284083Y0214776D02*
X0275212Y0214776D01*
X0275212Y0217175D02*
X0282367Y0217175D01*
X0282092Y0219573D02*
X0275212Y0219573D01*
X0275212Y0221972D02*
X0283169Y0221972D01*
X0284251Y0224608D02*
X0286082Y0223850D01*
X0293264Y0223850D01*
X0295094Y0224608D01*
X0296496Y0226009D01*
X0297254Y0227840D01*
X0297254Y0229821D01*
X0296496Y0231652D01*
X0295094Y0233053D01*
X0293264Y0233812D01*
X0286082Y0233812D01*
X0284251Y0233053D01*
X0282850Y0231652D01*
X0282092Y0229821D01*
X0282092Y0227840D01*
X0282850Y0226009D01*
X0284251Y0224608D01*
X0284825Y0224370D02*
X0275212Y0224370D01*
X0275212Y0226769D02*
X0282535Y0226769D01*
X0282092Y0229167D02*
X0275212Y0229167D01*
X0275212Y0231566D02*
X0282814Y0231566D01*
X0284251Y0234608D02*
X0286082Y0233850D01*
X0293264Y0233850D01*
X0295094Y0234608D01*
X0296496Y0236009D01*
X0297254Y0237840D01*
X0297254Y0239821D01*
X0296496Y0241652D01*
X0295094Y0243053D01*
X0293264Y0243812D01*
X0286082Y0243812D01*
X0284251Y0243053D01*
X0282850Y0241652D01*
X0282092Y0239821D01*
X0282092Y0237840D01*
X0282850Y0236009D01*
X0284251Y0234608D01*
X0285805Y0233964D02*
X0275212Y0233964D01*
X0275212Y0236363D02*
X0282704Y0236363D01*
X0282092Y0238761D02*
X0275212Y0238761D01*
X0275212Y0241160D02*
X0282646Y0241160D01*
X0285470Y0243558D02*
X0275212Y0243558D01*
X0275212Y0245957D02*
X0282902Y0245957D01*
X0282850Y0246009D02*
X0284251Y0244608D01*
X0286082Y0243850D01*
X0293264Y0243850D01*
X0295094Y0244608D01*
X0296496Y0246009D01*
X0297254Y0247840D01*
X0297254Y0249821D01*
X0296496Y0251652D01*
X0295094Y0253053D01*
X0293264Y0253812D01*
X0286082Y0253812D01*
X0284251Y0253053D01*
X0282850Y0251652D01*
X0282092Y0249821D01*
X0282092Y0247840D01*
X0282850Y0246009D01*
X0282092Y0248355D02*
X0275212Y0248355D01*
X0275212Y0250754D02*
X0282478Y0250754D01*
X0284490Y0253152D02*
X0275212Y0253152D01*
X0275212Y0255551D02*
X0317567Y0255551D01*
X0317454Y0257949D02*
X0275212Y0257949D01*
X0275212Y0260348D02*
X0317454Y0260348D01*
X0317454Y0262746D02*
X0275212Y0262746D01*
X0275856Y0265145D02*
X0317943Y0265145D01*
X0327727Y0265145D02*
X0335123Y0265145D01*
X0335254Y0262746D02*
X0328216Y0262746D01*
X0328216Y0260348D02*
X0335254Y0260348D01*
X0335254Y0257949D02*
X0328216Y0257949D01*
X0328103Y0255551D02*
X0335367Y0255551D01*
X0336766Y0253152D02*
X0326703Y0253152D01*
X0318966Y0253152D02*
X0294856Y0253152D01*
X0296868Y0250754D02*
X0352584Y0250754D01*
X0352592Y0253152D02*
X0344503Y0253152D01*
X0345903Y0255551D02*
X0352599Y0255551D01*
X0352606Y0257949D02*
X0346016Y0257949D01*
X0346016Y0260348D02*
X0352613Y0260348D01*
X0352620Y0262746D02*
X0346016Y0262746D01*
X0345527Y0265145D02*
X0352627Y0265145D01*
X0352635Y0267543D02*
X0343472Y0267543D01*
X0340455Y0269942D02*
X0352642Y0269942D01*
X0352649Y0272340D02*
X0338056Y0272340D01*
X0335411Y0269921D02*
X0275568Y0269921D01*
X0271631Y0265984D01*
X0271631Y0205235D01*
X0264545Y0198148D01*
X0260355Y0198148D01*
X0259673Y0198831D01*
X0256082Y0203850D02*
X0263264Y0203850D01*
X0265094Y0204608D01*
X0266496Y0206009D01*
X0267254Y0207840D01*
X0267254Y0209821D01*
X0266496Y0211652D01*
X0265094Y0213053D01*
X0263264Y0213812D01*
X0256082Y0213812D01*
X0254251Y0213053D01*
X0252850Y0211652D01*
X0252092Y0209821D01*
X0252092Y0207840D01*
X0252850Y0206009D01*
X0254251Y0204608D01*
X0256082Y0203850D01*
X0253981Y0202784D02*
X0240409Y0202784D01*
X0240938Y0205182D02*
X0253677Y0205182D01*
X0252199Y0207581D02*
X0240366Y0207581D01*
X0237912Y0209979D02*
X0252157Y0209979D01*
X0253575Y0212378D02*
X0240241Y0212378D01*
X0240938Y0214776D02*
X0254083Y0214776D01*
X0254251Y0214608D02*
X0256082Y0213850D01*
X0263264Y0213850D01*
X0265094Y0214608D01*
X0266496Y0216009D01*
X0267254Y0217840D01*
X0267254Y0219821D01*
X0266496Y0221652D01*
X0265094Y0223053D01*
X0263264Y0223812D01*
X0256082Y0223812D01*
X0254251Y0223053D01*
X0252850Y0221652D01*
X0252092Y0219821D01*
X0252092Y0217840D01*
X0252850Y0216009D01*
X0254251Y0214608D01*
X0252367Y0217175D02*
X0240534Y0217175D01*
X0238724Y0219573D02*
X0252092Y0219573D01*
X0253169Y0221972D02*
X0240008Y0221972D01*
X0240938Y0224370D02*
X0254825Y0224370D01*
X0254251Y0224608D02*
X0256082Y0223850D01*
X0263264Y0223850D01*
X0265094Y0224608D01*
X0266496Y0226009D01*
X0267254Y0227840D01*
X0267254Y0229821D01*
X0266496Y0231652D01*
X0265094Y0233053D01*
X0263264Y0233812D01*
X0256082Y0233812D01*
X0254251Y0233053D01*
X0252850Y0231652D01*
X0252092Y0229821D01*
X0252092Y0227840D01*
X0252850Y0226009D01*
X0254251Y0224608D01*
X0252535Y0226769D02*
X0240702Y0226769D01*
X0239130Y0229167D02*
X0252092Y0229167D01*
X0252814Y0231566D02*
X0239602Y0231566D01*
X0240898Y0233964D02*
X0255805Y0233964D01*
X0256082Y0233850D02*
X0254251Y0234608D01*
X0252850Y0236009D01*
X0252092Y0237840D01*
X0252092Y0239821D01*
X0252850Y0241652D01*
X0254251Y0243053D01*
X0256082Y0243812D01*
X0263264Y0243812D01*
X0265094Y0243053D01*
X0266496Y0241652D01*
X0267254Y0239821D01*
X0267254Y0237840D01*
X0266496Y0236009D01*
X0265094Y0234608D01*
X0263264Y0233850D01*
X0256082Y0233850D01*
X0252704Y0236363D02*
X0240871Y0236363D01*
X0239535Y0238761D02*
X0252092Y0238761D01*
X0252646Y0241160D02*
X0239196Y0241160D01*
X0240730Y0243558D02*
X0255470Y0243558D01*
X0256082Y0243850D02*
X0254251Y0244608D01*
X0252850Y0246009D01*
X0252092Y0247840D01*
X0252092Y0249821D01*
X0252850Y0251652D01*
X0254251Y0253053D01*
X0256082Y0253812D01*
X0263264Y0253812D01*
X0265094Y0253053D01*
X0266496Y0251652D01*
X0267254Y0249821D01*
X0267254Y0247840D01*
X0266496Y0246009D01*
X0265094Y0244608D01*
X0263264Y0243850D01*
X0256082Y0243850D01*
X0252902Y0245957D02*
X0240938Y0245957D01*
X0239941Y0248355D02*
X0252092Y0248355D01*
X0252478Y0250754D02*
X0181719Y0250754D01*
X0181719Y0251392D02*
X0180324Y0252787D01*
X0169351Y0252787D01*
X0167957Y0251392D01*
X0167957Y0240419D01*
X0169351Y0239025D01*
X0180324Y0239025D01*
X0181719Y0240419D01*
X0181719Y0251392D01*
X0181719Y0248355D02*
X0225172Y0248355D01*
X0224176Y0245957D02*
X0181719Y0245957D01*
X0181719Y0243558D02*
X0224383Y0243558D01*
X0225917Y0241160D02*
X0215461Y0241160D01*
X0215266Y0241355D02*
X0214706Y0241762D01*
X0214089Y0242076D01*
X0213430Y0242290D01*
X0212746Y0242399D01*
X0212400Y0242399D01*
X0212400Y0237999D01*
X0212400Y0237999D01*
X0216800Y0237999D01*
X0216800Y0238345D01*
X0216691Y0239029D01*
X0216477Y0239688D01*
X0216163Y0240305D01*
X0215756Y0240865D01*
X0215266Y0241355D01*
X0212400Y0241160D02*
X0212400Y0241160D01*
X0212400Y0242399D02*
X0212054Y0242399D01*
X0211369Y0242290D01*
X0210711Y0242076D01*
X0210094Y0241762D01*
X0209533Y0241355D01*
X0209044Y0240865D01*
X0208637Y0240305D01*
X0208322Y0239688D01*
X0208108Y0239029D01*
X0208000Y0238345D01*
X0208000Y0237999D01*
X0212400Y0237999D01*
X0212400Y0237998D01*
X0212400Y0233599D01*
X0212746Y0233599D01*
X0213430Y0233707D01*
X0214089Y0233921D01*
X0214706Y0234235D01*
X0215266Y0234642D01*
X0215756Y0235132D01*
X0216163Y0235692D01*
X0216477Y0236310D01*
X0216691Y0236968D01*
X0216800Y0237652D01*
X0216800Y0237998D01*
X0212400Y0237998D01*
X0212400Y0237998D01*
X0212400Y0233599D01*
X0212054Y0233599D01*
X0211369Y0233707D01*
X0210711Y0233921D01*
X0210094Y0234235D01*
X0209533Y0234642D01*
X0209044Y0235132D01*
X0208637Y0235692D01*
X0208322Y0236310D01*
X0208108Y0236968D01*
X0208000Y0237652D01*
X0208000Y0237998D01*
X0212400Y0237998D01*
X0212400Y0237999D01*
X0212400Y0242399D01*
X0209338Y0241160D02*
X0181719Y0241160D01*
X0167957Y0241160D02*
X0121719Y0241160D01*
X0121719Y0240419D02*
X0120324Y0239025D01*
X0109351Y0239025D01*
X0107957Y0240419D01*
X0107957Y0251392D01*
X0109351Y0252787D01*
X0120324Y0252787D01*
X0121719Y0251392D01*
X0121719Y0240419D01*
X0121719Y0243558D02*
X0167957Y0243558D01*
X0167957Y0245957D02*
X0121719Y0245957D01*
X0121719Y0248355D02*
X0167957Y0248355D01*
X0167957Y0250754D02*
X0121719Y0250754D01*
X0107957Y0250754D02*
X0094388Y0250754D01*
X0094388Y0252156D02*
X0090064Y0256480D01*
X0083950Y0256480D01*
X0079626Y0252156D01*
X0079626Y0246041D01*
X0083950Y0241718D01*
X0090064Y0241718D01*
X0094388Y0246041D01*
X0094388Y0252156D01*
X0093392Y0253152D02*
X0254490Y0253152D01*
X0255318Y0255551D02*
X0268050Y0255551D01*
X0268050Y0257949D02*
X0257568Y0257949D01*
X0258913Y0260348D02*
X0268050Y0260348D01*
X0268050Y0262746D02*
X0259556Y0262746D01*
X0259663Y0265145D02*
X0268050Y0265145D01*
X0268401Y0267543D02*
X0259295Y0267543D01*
X0258391Y0269942D02*
X0270524Y0269942D01*
X0272923Y0272340D02*
X0256744Y0272340D01*
X0239583Y0272340D02*
X0030336Y0272340D01*
X0031989Y0269942D02*
X0237936Y0269942D01*
X0237032Y0267543D02*
X0032897Y0267543D01*
X0033269Y0265145D02*
X0236664Y0265145D01*
X0236771Y0262746D02*
X0033166Y0262746D01*
X0032523Y0260348D02*
X0237413Y0260348D01*
X0238759Y0257949D02*
X0031182Y0257949D01*
X0028938Y0255551D02*
X0040021Y0255551D01*
X0040950Y0256480D02*
X0036626Y0252156D01*
X0036626Y0246041D01*
X0040950Y0241718D01*
X0047064Y0241718D01*
X0051388Y0246041D01*
X0051388Y0252156D01*
X0047064Y0256480D01*
X0040950Y0256480D01*
X0037622Y0253152D02*
X0023311Y0253152D01*
X0020228Y0253152D02*
X0014258Y0253152D01*
X0014261Y0250754D02*
X0036626Y0250754D01*
X0036626Y0248355D02*
X0014265Y0248355D01*
X0014269Y0245957D02*
X0036710Y0245957D01*
X0039109Y0243558D02*
X0024684Y0243558D01*
X0027234Y0241160D02*
X0107957Y0241160D01*
X0107957Y0243558D02*
X0091905Y0243558D01*
X0094304Y0245957D02*
X0107957Y0245957D01*
X0107957Y0248355D02*
X0094388Y0248355D01*
X0090993Y0255551D02*
X0241008Y0255551D01*
X0225578Y0238761D02*
X0216734Y0238761D01*
X0216495Y0236363D02*
X0224243Y0236363D01*
X0224215Y0233964D02*
X0214174Y0233964D01*
X0213311Y0232580D02*
X0211489Y0232580D01*
X0209805Y0231882D01*
X0208516Y0230594D01*
X0207819Y0228910D01*
X0207819Y0227087D01*
X0208516Y0225404D01*
X0209240Y0224680D01*
X0175860Y0224680D01*
X0175750Y0224634D01*
X0133294Y0224634D01*
X0130839Y0223617D01*
X0120771Y0213549D01*
X0119754Y0211093D01*
X0119754Y0205559D01*
X0119483Y0205830D01*
X0117505Y0206649D01*
X0115364Y0206649D01*
X0113387Y0205830D01*
X0111873Y0204316D01*
X0111054Y0202338D01*
X0111054Y0194198D01*
X0111873Y0192220D01*
X0113387Y0190706D01*
X0115364Y0189887D01*
X0117505Y0189887D01*
X0119483Y0190706D01*
X0120997Y0192220D01*
X0121435Y0193278D01*
X0121873Y0192220D01*
X0123387Y0190706D01*
X0125364Y0189887D01*
X0127505Y0189887D01*
X0129483Y0190706D01*
X0130997Y0192220D01*
X0131435Y0193278D01*
X0131873Y0192220D01*
X0133387Y0190706D01*
X0135364Y0189887D01*
X0137505Y0189887D01*
X0139483Y0190706D01*
X0140997Y0192220D01*
X0141816Y0194198D01*
X0141816Y0202338D01*
X0140997Y0204316D01*
X0139483Y0205830D01*
X0137505Y0206649D01*
X0135364Y0206649D01*
X0133387Y0205830D01*
X0133116Y0205559D01*
X0133116Y0206997D01*
X0137391Y0211272D01*
X0163375Y0211272D01*
X0163375Y0200452D01*
X0163021Y0199597D01*
X0163021Y0196939D01*
X0164039Y0194483D01*
X0164321Y0194201D01*
X0164321Y0194198D01*
X0165141Y0192220D01*
X0166654Y0190706D01*
X0168632Y0189887D01*
X0170773Y0189887D01*
X0172751Y0190706D01*
X0174264Y0192220D01*
X0174702Y0193278D01*
X0175141Y0192220D01*
X0176654Y0190706D01*
X0178632Y0189887D01*
X0180773Y0189887D01*
X0182751Y0190706D01*
X0184264Y0192220D01*
X0184702Y0193278D01*
X0185141Y0192220D01*
X0186654Y0190706D01*
X0188632Y0189887D01*
X0190773Y0189887D01*
X0192751Y0190706D01*
X0194264Y0192220D01*
X0195084Y0194198D01*
X0195084Y0202338D01*
X0194264Y0204316D01*
X0192751Y0205830D01*
X0190773Y0206649D01*
X0188632Y0206649D01*
X0186654Y0205830D01*
X0185141Y0204316D01*
X0184702Y0203258D01*
X0184264Y0204316D01*
X0182751Y0205830D01*
X0180773Y0206649D01*
X0178632Y0206649D01*
X0176738Y0205864D01*
X0176738Y0208099D01*
X0179911Y0211272D01*
X0185513Y0211272D01*
X0185623Y0211317D01*
X0213729Y0211317D01*
X0216184Y0212335D01*
X0218064Y0214214D01*
X0219081Y0216670D01*
X0219081Y0219327D01*
X0218064Y0221783D01*
X0216184Y0223662D01*
X0215023Y0224143D01*
X0216283Y0225404D01*
X0216981Y0227087D01*
X0216981Y0228910D01*
X0216283Y0230594D01*
X0214995Y0231882D01*
X0213311Y0232580D01*
X0212400Y0233964D02*
X0212400Y0233964D01*
X0210626Y0233964D02*
X0025165Y0233964D01*
X0027066Y0231566D02*
X0209488Y0231566D01*
X0207925Y0229167D02*
X0027825Y0229167D01*
X0027484Y0226769D02*
X0207951Y0226769D01*
X0215250Y0224370D02*
X0224176Y0224370D01*
X0224411Y0226769D02*
X0216849Y0226769D01*
X0216874Y0229167D02*
X0225984Y0229167D01*
X0225511Y0231566D02*
X0215311Y0231566D01*
X0212400Y0236363D02*
X0212400Y0236363D01*
X0212400Y0238761D02*
X0212400Y0238761D01*
X0208066Y0238761D02*
X0027825Y0238761D01*
X0027316Y0236363D02*
X0208305Y0236363D01*
X0217875Y0221972D02*
X0225105Y0221972D01*
X0226390Y0219573D02*
X0218979Y0219573D01*
X0219081Y0217175D02*
X0224579Y0217175D01*
X0224176Y0214776D02*
X0218297Y0214776D01*
X0216227Y0212378D02*
X0224872Y0212378D01*
X0227202Y0209979D02*
X0178618Y0209979D01*
X0176738Y0207581D02*
X0224747Y0207581D01*
X0224176Y0205182D02*
X0193398Y0205182D01*
X0194899Y0202784D02*
X0224704Y0202784D01*
X0226951Y0200385D02*
X0195084Y0200385D01*
X0195084Y0197987D02*
X0224915Y0197987D01*
X0224176Y0195588D02*
X0195084Y0195588D01*
X0194666Y0193190D02*
X0224536Y0193190D01*
X0226286Y0190791D02*
X0192836Y0190791D01*
X0186569Y0190791D02*
X0182836Y0190791D01*
X0184666Y0193190D02*
X0184739Y0193190D01*
X0176569Y0190791D02*
X0172836Y0190791D01*
X0174666Y0193190D02*
X0174739Y0193190D01*
X0166569Y0190791D02*
X0139568Y0190791D01*
X0141398Y0193190D02*
X0164739Y0193190D01*
X0163581Y0195588D02*
X0141816Y0195588D01*
X0141816Y0197987D02*
X0163021Y0197987D01*
X0163348Y0200385D02*
X0141816Y0200385D01*
X0141631Y0202784D02*
X0163375Y0202784D01*
X0163375Y0205182D02*
X0140131Y0205182D01*
X0136098Y0209979D02*
X0163375Y0209979D01*
X0163375Y0207581D02*
X0133700Y0207581D01*
X0124397Y0217175D02*
X0014314Y0217175D01*
X0014310Y0219573D02*
X0126795Y0219573D01*
X0129194Y0221972D02*
X0014306Y0221972D01*
X0014318Y0214776D02*
X0121998Y0214776D01*
X0120286Y0212378D02*
X0091166Y0212378D01*
X0090064Y0213480D02*
X0083950Y0213480D01*
X0079626Y0209156D01*
X0079626Y0203041D01*
X0083950Y0198718D01*
X0090064Y0198718D01*
X0094388Y0203041D01*
X0094388Y0209156D01*
X0090064Y0213480D01*
X0093565Y0209979D02*
X0119754Y0209979D01*
X0119754Y0207581D02*
X0094388Y0207581D01*
X0094388Y0205182D02*
X0112739Y0205182D01*
X0111238Y0202784D02*
X0094130Y0202784D01*
X0091732Y0200385D02*
X0111054Y0200385D01*
X0111054Y0197987D02*
X0014344Y0197987D01*
X0014340Y0200385D02*
X0039538Y0200385D01*
X0041025Y0198899D02*
X0036807Y0203116D01*
X0036807Y0205999D01*
X0043907Y0205999D01*
X0043907Y0206199D01*
X0043907Y0213299D01*
X0041025Y0213299D01*
X0036807Y0209081D01*
X0036807Y0206199D01*
X0043907Y0206199D01*
X0044107Y0206199D01*
X0044107Y0213299D01*
X0046989Y0213299D01*
X0051207Y0209081D01*
X0051207Y0206199D01*
X0044107Y0206199D01*
X0044107Y0205999D01*
X0051207Y0205999D01*
X0051207Y0203116D01*
X0046989Y0198899D01*
X0044107Y0198899D01*
X0044107Y0205999D01*
X0043907Y0205999D01*
X0043907Y0198899D01*
X0041025Y0198899D01*
X0043907Y0200385D02*
X0044107Y0200385D01*
X0044107Y0202784D02*
X0043907Y0202784D01*
X0043907Y0205182D02*
X0044107Y0205182D01*
X0044107Y0207581D02*
X0043907Y0207581D01*
X0043907Y0209979D02*
X0044107Y0209979D01*
X0044107Y0212378D02*
X0043907Y0212378D01*
X0040104Y0212378D02*
X0014321Y0212378D01*
X0014325Y0209979D02*
X0037705Y0209979D01*
X0036807Y0207581D02*
X0014329Y0207581D01*
X0014333Y0205182D02*
X0036807Y0205182D01*
X0037140Y0202784D02*
X0014336Y0202784D01*
X0014348Y0195588D02*
X0111054Y0195588D01*
X0111471Y0193190D02*
X0014352Y0193190D01*
X0014355Y0190791D02*
X0113302Y0190791D01*
X0119568Y0190791D02*
X0123302Y0190791D01*
X0121471Y0193190D02*
X0121398Y0193190D01*
X0129568Y0190791D02*
X0133302Y0190791D01*
X0131471Y0193190D02*
X0131398Y0193190D01*
X0157269Y0169204D02*
X0014389Y0169204D01*
X0014393Y0166806D02*
X0035127Y0166806D01*
X0034187Y0165866D02*
X0034187Y0163609D01*
X0034187Y0161353D01*
X0037378Y0158161D01*
X0039635Y0158161D01*
X0039635Y0163609D01*
X0039635Y0163609D01*
X0039635Y0158161D01*
X0041892Y0158161D01*
X0045083Y0161353D01*
X0045083Y0163609D01*
X0039635Y0163609D01*
X0034187Y0163609D01*
X0039635Y0163609D01*
X0039635Y0163609D01*
X0039635Y0163609D01*
X0045083Y0163609D01*
X0045083Y0165866D01*
X0041892Y0169057D01*
X0039635Y0169057D01*
X0037378Y0169057D01*
X0034187Y0165866D01*
X0034187Y0164407D02*
X0014397Y0164407D01*
X0014400Y0162009D02*
X0034187Y0162009D01*
X0035929Y0159610D02*
X0014404Y0159610D01*
X0014408Y0157212D02*
X0205824Y0157212D01*
X0205824Y0157480D02*
X0205824Y0155657D01*
X0206522Y0153974D01*
X0207811Y0152685D01*
X0209494Y0151988D01*
X0211317Y0151988D01*
X0213001Y0152685D01*
X0214289Y0153974D01*
X0214987Y0155657D01*
X0214987Y0157480D01*
X0214289Y0159164D01*
X0213001Y0160452D01*
X0211317Y0161150D01*
X0209494Y0161150D01*
X0207811Y0160452D01*
X0206522Y0159164D01*
X0205824Y0157480D01*
X0206969Y0159610D02*
X0163597Y0159610D01*
X0161967Y0157980D02*
X0165264Y0161278D01*
X0165264Y0165941D01*
X0161967Y0169239D01*
X0157303Y0169239D01*
X0154006Y0165941D01*
X0154006Y0161278D01*
X0157303Y0157980D01*
X0161967Y0157980D01*
X0165264Y0162009D02*
X0209443Y0162009D01*
X0209494Y0161988D02*
X0211317Y0161988D01*
X0213001Y0162685D01*
X0213303Y0162988D01*
X0213637Y0162988D01*
X0236533Y0140091D01*
X0236533Y0136584D01*
X0237291Y0134753D01*
X0238692Y0133352D01*
X0240523Y0132594D01*
X0242505Y0132594D01*
X0244336Y0133352D01*
X0245737Y0134753D01*
X0246495Y0136584D01*
X0246495Y0143765D01*
X0245737Y0145596D01*
X0244336Y0146997D01*
X0242505Y0147756D01*
X0240523Y0147756D01*
X0239444Y0147309D01*
X0217148Y0169605D01*
X0215832Y0170150D01*
X0213303Y0170150D01*
X0213001Y0170452D01*
X0211317Y0171150D01*
X0209494Y0171150D01*
X0207811Y0170452D01*
X0206522Y0169164D01*
X0205824Y0167480D01*
X0205824Y0165657D01*
X0206522Y0163974D01*
X0207811Y0162685D01*
X0209494Y0161988D01*
X0211368Y0162009D02*
X0214615Y0162009D01*
X0213842Y0159610D02*
X0217014Y0159610D01*
X0214987Y0157212D02*
X0219412Y0157212D01*
X0221811Y0154813D02*
X0214637Y0154813D01*
X0212348Y0152415D02*
X0224209Y0152415D01*
X0226608Y0150016D02*
X0030278Y0150016D01*
X0030584Y0147618D02*
X0229006Y0147618D01*
X0231405Y0145219D02*
X0029687Y0145219D01*
X0027748Y0142821D02*
X0233803Y0142821D01*
X0236202Y0140422D02*
X0030100Y0140422D01*
X0030608Y0138177D02*
X0022408Y0138177D01*
X0022408Y0132977D01*
X0025817Y0132977D01*
X0026626Y0133105D01*
X0027404Y0133358D01*
X0028133Y0133729D01*
X0028796Y0134211D01*
X0029374Y0134789D01*
X0029856Y0135451D01*
X0030227Y0136181D01*
X0030480Y0136959D01*
X0030608Y0137768D01*
X0030608Y0138177D01*
X0030608Y0138024D02*
X0236533Y0138024D01*
X0236930Y0135625D02*
X0029944Y0135625D01*
X0027001Y0133227D02*
X0070136Y0133227D01*
X0070252Y0133311D02*
X0069692Y0132904D01*
X0069202Y0132414D01*
X0068795Y0131854D01*
X0068480Y0131237D01*
X0068266Y0130578D01*
X0068158Y0129894D01*
X0068158Y0129548D01*
X0072558Y0129548D01*
X0072558Y0133948D01*
X0072212Y0133948D01*
X0071528Y0133839D01*
X0070869Y0133625D01*
X0070252Y0133311D01*
X0072558Y0133227D02*
X0072558Y0133227D01*
X0072558Y0133948D02*
X0072558Y0129548D01*
X0072558Y0129548D01*
X0072558Y0129548D01*
X0076958Y0129548D01*
X0076958Y0129894D01*
X0076850Y0130578D01*
X0076636Y0131237D01*
X0076321Y0131854D01*
X0075914Y0132414D01*
X0075424Y0132904D01*
X0074864Y0133311D01*
X0074247Y0133625D01*
X0073588Y0133839D01*
X0072904Y0133948D01*
X0072558Y0133948D01*
X0074980Y0133227D02*
X0079758Y0133227D01*
X0079963Y0133431D02*
X0078674Y0132143D01*
X0077977Y0130459D01*
X0077977Y0128636D01*
X0078674Y0126953D01*
X0079963Y0125664D01*
X0081647Y0124967D01*
X0083469Y0124967D01*
X0085153Y0125664D01*
X0086442Y0126953D01*
X0087139Y0128636D01*
X0087139Y0130459D01*
X0086442Y0132143D01*
X0085153Y0133431D01*
X0083469Y0134129D01*
X0081647Y0134129D01*
X0079963Y0133431D01*
X0078130Y0130828D02*
X0076768Y0130828D01*
X0076958Y0129548D02*
X0072558Y0129548D01*
X0072558Y0129548D01*
X0068158Y0129548D01*
X0068158Y0129201D01*
X0068266Y0128517D01*
X0068480Y0127859D01*
X0068795Y0127242D01*
X0069202Y0126681D01*
X0069692Y0126192D01*
X0070252Y0125784D01*
X0070869Y0125470D01*
X0071528Y0125256D01*
X0072212Y0125148D01*
X0072558Y0125148D01*
X0072904Y0125148D01*
X0073588Y0125256D01*
X0074247Y0125470D01*
X0074864Y0125784D01*
X0075424Y0126192D01*
X0075914Y0126681D01*
X0076321Y0127242D01*
X0076636Y0127859D01*
X0076850Y0128517D01*
X0076958Y0129201D01*
X0076958Y0129548D01*
X0076821Y0128430D02*
X0078063Y0128430D01*
X0079596Y0126031D02*
X0075204Y0126031D01*
X0072558Y0126031D02*
X0072558Y0126031D01*
X0072558Y0125148D02*
X0072558Y0129548D01*
X0072558Y0129548D01*
X0072558Y0125148D01*
X0069912Y0126031D02*
X0014457Y0126031D01*
X0014460Y0123633D02*
X0127212Y0123633D01*
X0128087Y0122758D02*
X0124953Y0125892D01*
X0124953Y0128108D01*
X0130303Y0128108D01*
X0130303Y0133458D01*
X0128087Y0133458D01*
X0124953Y0130324D01*
X0124953Y0128108D01*
X0130303Y0128108D01*
X0130303Y0128108D01*
X0130303Y0128108D01*
X0130303Y0133458D01*
X0132519Y0133458D01*
X0135653Y0130324D01*
X0135653Y0128108D01*
X0130303Y0128108D01*
X0130303Y0128108D01*
X0130303Y0128108D01*
X0130303Y0122758D01*
X0128087Y0122758D01*
X0130303Y0122758D02*
X0132519Y0122758D01*
X0135653Y0125892D01*
X0135653Y0128108D01*
X0130303Y0128108D01*
X0130303Y0122758D01*
X0130303Y0123633D02*
X0130303Y0123633D01*
X0130303Y0126031D02*
X0130303Y0126031D01*
X0130303Y0128430D02*
X0130303Y0128430D01*
X0130303Y0130828D02*
X0130303Y0130828D01*
X0130303Y0133227D02*
X0130303Y0133227D01*
X0127856Y0133227D02*
X0095358Y0133227D01*
X0095153Y0133431D02*
X0093469Y0134129D01*
X0091647Y0134129D01*
X0089963Y0133431D01*
X0088674Y0132143D01*
X0087977Y0130459D01*
X0087977Y0128636D01*
X0088674Y0126953D01*
X0089963Y0125664D01*
X0091647Y0124967D01*
X0093469Y0124967D01*
X0095153Y0125664D01*
X0096442Y0126953D01*
X0097139Y0128636D01*
X0097139Y0130459D01*
X0096442Y0132143D01*
X0095153Y0133431D01*
X0096986Y0130828D02*
X0125458Y0130828D01*
X0124953Y0128430D02*
X0097054Y0128430D01*
X0095520Y0126031D02*
X0124953Y0126031D01*
X0133394Y0123633D02*
X0255650Y0123633D01*
X0252841Y0126031D02*
X0135653Y0126031D01*
X0135653Y0128430D02*
X0252092Y0128430D01*
X0252509Y0130828D02*
X0135149Y0130828D01*
X0132750Y0133227D02*
X0238995Y0133227D01*
X0244033Y0133227D02*
X0254670Y0133227D01*
X0253234Y0135625D02*
X0246098Y0135625D01*
X0246495Y0138024D02*
X0252092Y0138024D01*
X0252341Y0140422D02*
X0246495Y0140422D01*
X0246495Y0142821D02*
X0254019Y0142821D01*
X0253640Y0145219D02*
X0245893Y0145219D01*
X0242838Y0147618D02*
X0252184Y0147618D01*
X0252172Y0150016D02*
X0236737Y0150016D01*
X0239135Y0147618D02*
X0240190Y0147618D01*
X0234338Y0152415D02*
X0253613Y0152415D01*
X0254046Y0154813D02*
X0231940Y0154813D01*
X0229541Y0157212D02*
X0252352Y0157212D01*
X0252092Y0159610D02*
X0227143Y0159610D01*
X0224744Y0162009D02*
X0253207Y0162009D01*
X0254735Y0164407D02*
X0222346Y0164407D01*
X0219947Y0166806D02*
X0252520Y0166806D01*
X0252092Y0169204D02*
X0217549Y0169204D01*
X0215120Y0166569D02*
X0241514Y0140175D01*
X0252677Y0121234D02*
X0027625Y0121234D01*
X0029955Y0118836D02*
X0127264Y0118836D01*
X0125281Y0116437D02*
X0030501Y0116437D01*
X0029947Y0114039D02*
X0124772Y0114039D01*
X0125339Y0111640D02*
X0027576Y0111640D01*
X0029787Y0109242D02*
X0127597Y0109242D01*
X0135834Y0114039D02*
X0255625Y0114039D01*
X0252673Y0116437D02*
X0135325Y0116437D01*
X0133342Y0118836D02*
X0252092Y0118836D01*
X0227358Y0082858D02*
X0035079Y0082858D01*
X0035493Y0082444D02*
X0033716Y0084222D01*
X0031393Y0085184D01*
X0028880Y0085184D01*
X0026558Y0084222D01*
X0024780Y0082444D01*
X0023819Y0080122D01*
X0023819Y0077609D01*
X0024780Y0075287D01*
X0026558Y0073509D01*
X0028880Y0072547D01*
X0031393Y0072547D01*
X0033716Y0073509D01*
X0035493Y0075287D01*
X0036455Y0077609D01*
X0036455Y0080122D01*
X0035493Y0082444D01*
X0036315Y0080459D02*
X0226243Y0080459D01*
X0226133Y0078061D02*
X0036455Y0078061D01*
X0035649Y0075662D02*
X0226133Y0075662D01*
X0226133Y0073264D02*
X0033123Y0073264D01*
X0027150Y0073264D02*
X0014539Y0073264D01*
X0014536Y0075662D02*
X0024625Y0075662D01*
X0023819Y0078061D02*
X0014532Y0078061D01*
X0014528Y0080459D02*
X0023958Y0080459D01*
X0025194Y0082858D02*
X0014524Y0082858D01*
X0014543Y0070865D02*
X0226133Y0070865D01*
X0226133Y0068467D02*
X0014547Y0068467D01*
X0014551Y0066068D02*
X0226133Y0066068D01*
X0226133Y0063670D02*
X0014554Y0063670D01*
X0014558Y0061271D02*
X0226133Y0061271D01*
X0226133Y0058873D02*
X0014562Y0058873D01*
X0014566Y0056474D02*
X0226133Y0056474D01*
X0226133Y0054076D02*
X0014569Y0054076D01*
X0014573Y0051677D02*
X0226133Y0051677D01*
X0226133Y0049279D02*
X0014577Y0049279D01*
X0014581Y0046880D02*
X0226133Y0046880D01*
X0226133Y0044482D02*
X0034711Y0044482D01*
X0036105Y0042083D02*
X0226133Y0042083D01*
X0226035Y0039685D02*
X0036357Y0039685D01*
X0035664Y0037286D02*
X0226699Y0037286D01*
X0228598Y0034888D02*
X0033644Y0034888D01*
X0024415Y0037286D02*
X0014596Y0037286D01*
X0014599Y0034888D02*
X0016811Y0034888D01*
X0014592Y0039685D02*
X0023721Y0039685D01*
X0023973Y0042083D02*
X0014588Y0042083D01*
X0014584Y0044482D02*
X0025368Y0044482D01*
X0016616Y0121234D02*
X0014464Y0121234D01*
X0014453Y0128430D02*
X0068295Y0128430D01*
X0068348Y0130828D02*
X0014449Y0130828D01*
X0014445Y0133227D02*
X0017815Y0133227D01*
X0014872Y0135625D02*
X0014442Y0135625D01*
X0022408Y0135625D02*
X0022408Y0135625D01*
X0022408Y0133227D02*
X0022408Y0133227D01*
X0022408Y0138024D02*
X0022408Y0138024D01*
X0022408Y0140422D02*
X0022408Y0140422D01*
X0022408Y0142821D02*
X0022408Y0142821D01*
X0022408Y0145219D02*
X0022408Y0145219D01*
X0022408Y0147618D02*
X0022408Y0147618D01*
X0022408Y0150016D02*
X0022408Y0150016D01*
X0022408Y0152415D02*
X0022408Y0152415D01*
X0028422Y0152415D02*
X0208463Y0152415D01*
X0206174Y0154813D02*
X0014412Y0154813D01*
X0014415Y0152415D02*
X0016394Y0152415D01*
X0014538Y0150016D02*
X0014419Y0150016D01*
X0039635Y0159610D02*
X0039635Y0159610D01*
X0039635Y0162009D02*
X0039635Y0162009D01*
X0039635Y0163610D02*
X0039635Y0169057D01*
X0039635Y0163610D01*
X0039635Y0163610D01*
X0039635Y0164407D02*
X0039635Y0164407D01*
X0039635Y0166806D02*
X0039635Y0166806D01*
X0044143Y0166806D02*
X0154871Y0166806D01*
X0154006Y0164407D02*
X0045083Y0164407D01*
X0045083Y0162009D02*
X0154006Y0162009D01*
X0155673Y0159610D02*
X0043341Y0159610D01*
X0014385Y0171603D02*
X0225730Y0171603D01*
X0224471Y0174001D02*
X0213979Y0174001D01*
X0214169Y0174263D02*
X0214483Y0174880D01*
X0214697Y0175538D01*
X0214806Y0176222D01*
X0214806Y0176569D01*
X0214806Y0176915D01*
X0214697Y0177599D01*
X0214483Y0178258D01*
X0214169Y0178875D01*
X0213762Y0179435D01*
X0213272Y0179925D01*
X0212712Y0180332D01*
X0212095Y0180646D01*
X0211436Y0180860D01*
X0210752Y0180969D01*
X0210406Y0180969D01*
X0210406Y0176569D01*
X0214806Y0176569D01*
X0210406Y0176569D01*
X0210406Y0176569D01*
X0210405Y0176569D01*
X0210405Y0176569D01*
X0206006Y0176569D01*
X0206006Y0176915D01*
X0206114Y0177599D01*
X0206328Y0178258D01*
X0206642Y0178875D01*
X0207049Y0179435D01*
X0207539Y0179925D01*
X0208099Y0180332D01*
X0208717Y0180646D01*
X0209375Y0180860D01*
X0210059Y0180969D01*
X0210405Y0180969D01*
X0210405Y0176569D01*
X0206006Y0176569D01*
X0206006Y0176222D01*
X0206114Y0175538D01*
X0206328Y0174880D01*
X0206642Y0174263D01*
X0207049Y0173702D01*
X0207539Y0173213D01*
X0208099Y0172805D01*
X0208717Y0172491D01*
X0209375Y0172277D01*
X0210059Y0172169D01*
X0210405Y0172169D01*
X0210405Y0176569D01*
X0210406Y0176569D01*
X0210406Y0172169D01*
X0210752Y0172169D01*
X0211436Y0172277D01*
X0212095Y0172491D01*
X0212712Y0172805D01*
X0213272Y0173213D01*
X0213762Y0173702D01*
X0214169Y0174263D01*
X0214806Y0176400D02*
X0224502Y0176400D01*
X0224357Y0175130D02*
X0232557Y0175130D01*
X0232557Y0169930D01*
X0232557Y0175130D01*
X0232557Y0175130D01*
X0224357Y0175130D01*
X0225871Y0178798D02*
X0214208Y0178798D01*
X0210406Y0178798D02*
X0210405Y0178798D01*
X0210405Y0176400D02*
X0210406Y0176400D01*
X0210405Y0174001D02*
X0210406Y0174001D01*
X0206832Y0174001D02*
X0014382Y0174001D01*
X0014378Y0176400D02*
X0206006Y0176400D01*
X0206603Y0178798D02*
X0014374Y0178798D01*
X0014370Y0181197D02*
X0225880Y0181197D01*
X0224368Y0183595D02*
X0014367Y0183595D01*
X0014363Y0185994D02*
X0224176Y0185994D01*
X0225209Y0188393D02*
X0014359Y0188393D01*
X0048476Y0200385D02*
X0082282Y0200385D01*
X0079884Y0202784D02*
X0050874Y0202784D01*
X0051207Y0205182D02*
X0079626Y0205182D01*
X0079626Y0207581D02*
X0051207Y0207581D01*
X0050309Y0209979D02*
X0080449Y0209979D01*
X0082847Y0212378D02*
X0047910Y0212378D01*
X0025763Y0224370D02*
X0132657Y0224370D01*
X0183398Y0205182D02*
X0186007Y0205182D01*
X0206563Y0169204D02*
X0162001Y0169204D01*
X0164399Y0166806D02*
X0205824Y0166806D01*
X0206342Y0164407D02*
X0165264Y0164407D01*
X0210406Y0166569D02*
X0215120Y0166569D01*
X0232557Y0171603D02*
X0232557Y0171603D01*
X0232557Y0174001D02*
X0232557Y0174001D01*
X0232557Y0175130D02*
X0232557Y0175130D01*
X0239242Y0178798D02*
X0252273Y0178798D01*
X0252891Y0181197D02*
X0239234Y0181197D01*
X0240745Y0183595D02*
X0256473Y0183595D01*
X0252865Y0185994D02*
X0240938Y0185994D01*
X0239904Y0188393D02*
X0252092Y0188393D01*
X0252493Y0190791D02*
X0238828Y0190791D01*
X0240577Y0193190D02*
X0254580Y0193190D01*
X0253271Y0195588D02*
X0240938Y0195588D01*
X0240198Y0197987D02*
X0252092Y0197987D01*
X0252325Y0200385D02*
X0238163Y0200385D01*
X0265669Y0205182D02*
X0266514Y0205182D01*
X0267146Y0207581D02*
X0268050Y0207581D01*
X0268050Y0209979D02*
X0267189Y0209979D01*
X0268050Y0212378D02*
X0265770Y0212378D01*
X0265263Y0214776D02*
X0268050Y0214776D01*
X0268050Y0217175D02*
X0266978Y0217175D01*
X0267254Y0219573D02*
X0268050Y0219573D01*
X0268050Y0221972D02*
X0266176Y0221972D01*
X0264520Y0224370D02*
X0268050Y0224370D01*
X0268050Y0226769D02*
X0266810Y0226769D01*
X0267254Y0229167D02*
X0268050Y0229167D01*
X0268050Y0231566D02*
X0266531Y0231566D01*
X0268050Y0233964D02*
X0263540Y0233964D01*
X0266642Y0236363D02*
X0268050Y0236363D01*
X0268050Y0238761D02*
X0267254Y0238761D01*
X0266700Y0241160D02*
X0268050Y0241160D01*
X0268050Y0243558D02*
X0263876Y0243558D01*
X0266443Y0245957D02*
X0268050Y0245957D01*
X0268050Y0248355D02*
X0267254Y0248355D01*
X0266868Y0250754D02*
X0268050Y0250754D01*
X0268050Y0253152D02*
X0264856Y0253152D01*
X0293540Y0233964D02*
X0317454Y0233964D01*
X0317454Y0231566D02*
X0296531Y0231566D01*
X0297254Y0229167D02*
X0317891Y0229167D01*
X0318273Y0228246D02*
X0319787Y0226732D01*
X0321765Y0225913D01*
X0323905Y0225913D01*
X0325883Y0226732D01*
X0327397Y0228246D01*
X0328216Y0230224D01*
X0328216Y0238364D01*
X0327397Y0240342D01*
X0325883Y0241856D01*
X0323905Y0242675D01*
X0321765Y0242675D01*
X0319787Y0241856D01*
X0318273Y0240342D01*
X0317454Y0238364D01*
X0317454Y0230224D01*
X0318273Y0228246D01*
X0319750Y0226769D02*
X0296810Y0226769D01*
X0294520Y0224370D02*
X0352506Y0224370D01*
X0352499Y0221972D02*
X0296176Y0221972D01*
X0297254Y0219573D02*
X0352491Y0219573D01*
X0352484Y0217175D02*
X0322724Y0217175D01*
X0323619Y0216804D02*
X0321788Y0217562D01*
X0319806Y0217562D01*
X0317975Y0216804D01*
X0316574Y0215403D01*
X0315816Y0213572D01*
X0315816Y0211591D01*
X0316574Y0209760D01*
X0317975Y0208359D01*
X0319806Y0207600D01*
X0321788Y0207600D01*
X0323619Y0208359D01*
X0325020Y0209760D01*
X0325778Y0211591D01*
X0325778Y0213572D01*
X0325020Y0215403D01*
X0323619Y0216804D01*
X0325279Y0214776D02*
X0352477Y0214776D01*
X0352470Y0212378D02*
X0325778Y0212378D01*
X0325111Y0209979D02*
X0352463Y0209979D01*
X0352456Y0207581D02*
X0297146Y0207581D01*
X0297189Y0209979D02*
X0316483Y0209979D01*
X0315816Y0212378D02*
X0295770Y0212378D01*
X0295263Y0214776D02*
X0316315Y0214776D01*
X0318870Y0217175D02*
X0296978Y0217175D01*
X0295669Y0205182D02*
X0352448Y0205182D01*
X0352441Y0202784D02*
X0295364Y0202784D01*
X0289673Y0193190D02*
X0289673Y0193190D01*
X0252830Y0171603D02*
X0239383Y0171603D01*
X0322492Y0109242D02*
X0322492Y0109242D01*
X0322492Y0106843D02*
X0322492Y0106843D01*
X0322492Y0104445D02*
X0322492Y0104445D01*
X0345258Y0130828D02*
X0345258Y0130828D01*
X0345258Y0133227D02*
X0345258Y0133227D01*
X0343740Y0070865D02*
X0352048Y0070865D01*
X0352041Y0068467D02*
X0343839Y0068467D01*
X0342698Y0066068D02*
X0352033Y0066068D01*
X0352026Y0063670D02*
X0342126Y0063670D01*
X0343803Y0061271D02*
X0352019Y0061271D01*
X0352012Y0058873D02*
X0344112Y0058873D01*
X0343321Y0056474D02*
X0352005Y0056474D01*
X0351998Y0054076D02*
X0339806Y0054076D01*
X0351919Y0027692D02*
X0317639Y0027692D01*
X0318445Y0025294D02*
X0351912Y0025294D01*
X0351905Y0022895D02*
X0318445Y0022895D01*
X0318445Y0020497D02*
X0351897Y0020497D01*
X0351890Y0018098D02*
X0318445Y0018098D01*
X0089596Y0126031D02*
X0085520Y0126031D01*
X0087054Y0128430D02*
X0088063Y0128430D01*
X0088130Y0130828D02*
X0086986Y0130828D01*
X0085358Y0133227D02*
X0089758Y0133227D01*
X0072558Y0130828D02*
X0072558Y0130828D01*
X0072558Y0128430D02*
X0072558Y0128430D01*
X0082109Y0243558D02*
X0048905Y0243558D01*
X0051304Y0245957D02*
X0079710Y0245957D01*
X0079626Y0248355D02*
X0051388Y0248355D01*
X0051388Y0250754D02*
X0079626Y0250754D01*
X0080622Y0253152D02*
X0050392Y0253152D01*
X0047993Y0255551D02*
X0083021Y0255551D01*
X0014600Y0255551D02*
X0014254Y0255551D01*
X0293876Y0243558D02*
X0352563Y0243558D01*
X0352556Y0241160D02*
X0344379Y0241160D01*
X0343683Y0241856D02*
X0341705Y0242675D01*
X0339565Y0242675D01*
X0337587Y0241856D01*
X0336073Y0240342D01*
X0335254Y0238364D01*
X0335254Y0230224D01*
X0336073Y0228246D01*
X0337587Y0226732D01*
X0339565Y0225913D01*
X0341705Y0225913D01*
X0343683Y0226732D01*
X0345197Y0228246D01*
X0346016Y0230224D01*
X0346016Y0238364D01*
X0345197Y0240342D01*
X0343683Y0241856D01*
X0345852Y0238761D02*
X0352549Y0238761D01*
X0352541Y0236363D02*
X0346016Y0236363D01*
X0346016Y0233964D02*
X0352534Y0233964D01*
X0352527Y0231566D02*
X0346016Y0231566D01*
X0345578Y0229167D02*
X0352520Y0229167D01*
X0352513Y0226769D02*
X0343720Y0226769D01*
X0337550Y0226769D02*
X0325920Y0226769D01*
X0327778Y0229167D02*
X0335691Y0229167D01*
X0335254Y0231566D02*
X0328216Y0231566D01*
X0328216Y0233964D02*
X0335254Y0233964D01*
X0335254Y0236363D02*
X0328216Y0236363D01*
X0328052Y0238761D02*
X0335418Y0238761D01*
X0336891Y0241160D02*
X0326579Y0241160D01*
X0319091Y0241160D02*
X0296700Y0241160D01*
X0297254Y0238761D02*
X0317618Y0238761D01*
X0317454Y0236363D02*
X0296642Y0236363D01*
X0296443Y0245957D02*
X0352570Y0245957D01*
X0352577Y0248355D02*
X0297254Y0248355D01*
X0335411Y0269921D02*
X0340635Y0264697D01*
X0340635Y0259894D01*
D21*
X0328307Y0226536D03*
X0335035Y0220244D03*
X0335394Y0205277D03*
X0309410Y0186379D03*
X0316496Y0178505D03*
X0329416Y0173387D03*
X0332888Y0183326D03*
X0315709Y0167481D03*
X0309410Y0158820D03*
X0301536Y0158820D03*
X0342248Y0151430D03*
X0310197Y0125749D03*
X0287362Y0093466D03*
X0297599Y0088741D03*
X0316496Y0086379D03*
X0331142Y0083151D03*
X0321631Y0061660D03*
X0302323Y0039135D03*
X0277992Y0040434D03*
X0248425Y0046497D03*
X0228307Y0091103D03*
X0205473Y0093466D03*
X0184213Y0117875D03*
X0210984Y0119450D03*
X0232992Y0122599D03*
X0255079Y0099765D03*
X0235394Y0161182D03*
X0225945Y0165907D03*
X0247992Y0180867D03*
X0211772Y0198190D03*
X0193662Y0175355D03*
X0140118Y0158820D03*
X0138543Y0139135D03*
X0155866Y0121025D03*
X0155906Y0106694D03*
X0092087Y0071418D03*
X0077284Y0051458D03*
X0045630Y0095040D03*
X0051969Y0128111D03*
X0175118Y0053820D03*
X0309410Y0224962D03*
X0301536Y0226536D03*
X0260591Y0261970D03*
X0209410Y0250946D03*
D22*
X0212400Y0217999D02*
X0184230Y0217999D01*
X0184184Y0217953D01*
X0134623Y0217953D01*
X0126435Y0209764D01*
X0126435Y0198268D01*
X0169702Y0198268D02*
X0170056Y0198622D01*
X0170056Y0210866D01*
X0177189Y0217999D01*
X0184230Y0217999D01*
X0232814Y0078865D02*
X0232814Y0040316D01*
X0232717Y0040218D01*
X0291312Y0033427D02*
X0303064Y0021675D01*
X0291312Y0033427D02*
X0291312Y0071394D01*
M02*
