%
M48
M72
T01C0.02362
T02C0.02400
T03C0.03200
T04C0.04000
T05C0.04331
T06C0.05200
T07C0.05600
T08C0.12598
%
T01
X77284Y51458
X92087Y71418
X45630Y95040
X51969Y128111
X138543Y139135
X140118Y158820
X155866Y121025
X155906Y106694
X184213Y117875
X210984Y119450
X232992Y122599
X255079Y99765
X228307Y91103
X205473Y93466
X175118Y53820
X248425Y46497
X277992Y40434
X302323Y39135
X321631Y61660
X331142Y83151
X316496Y86379
X297599Y88741
X287362Y93466
X310197Y125749
X342248Y151430
X329416Y173387
X332888Y183326
X316496Y178505
X309410Y186379
X315709Y167481
X309410Y158820
X301536Y158820
X247992Y180867
X225945Y165907
X235394Y161182
X193662Y175355
X211772Y198190
X209410Y250946
X260591Y261970
X301536Y226536
X309410Y224962
X328307Y226536
X335035Y220244
X335394Y205277
T02
X212400Y217999
X212400Y227999
X212400Y237999
X210406Y176569
X210406Y166569
X210406Y156569
X92558Y129548
X82558Y129548
X72558Y129548
T03
X130303Y128108
X130303Y114108
X183833Y106727
X223833Y106727
X241514Y100175
X259673Y118831
X259673Y128831
X259673Y138831
X259673Y148831
X259673Y158831
X259673Y168831
X259673Y178831
X259673Y188831
X259673Y198831
X259673Y208831
X259673Y218831
X259673Y228831
X259673Y238831
X259673Y248831
X289673Y248831
X289673Y238831
X289673Y228831
X289673Y218831
X289673Y208831
X289673Y198831
X289673Y188831
X289673Y178831
X289673Y168831
X289673Y158831
X289673Y148831
X289673Y138831
X289673Y128831
X289673Y118831
X241514Y140175
X320797Y193581
X320797Y212581
T04
X322835Y234294
X340635Y234294
X340635Y259894
X322835Y259894
X232557Y245130
X232557Y235130
X232557Y225130
X232557Y215130
X232557Y205130
X232557Y195130
X232557Y185130
X232557Y175130
X189702Y198268
X179702Y198268
X169702Y198268
X136435Y198268
X126435Y198268
X116435Y198268
X22408Y148177
X22408Y138177
X22120Y116447
X22120Y106447
X19444Y228662
X19444Y238662
X271312Y71394
X281312Y71394
X291312Y71394
X335731Y69455
X335731Y59455
X313064Y21675
X303064Y21675
X322492Y109405
X322492Y119405
X322492Y129405
X322492Y139405
X322492Y149405
X322492Y159405
X345258Y129859
X345258Y119859
T05
X232814Y78865
X232717Y40218
X159635Y163609
X39635Y163609
X30137Y78865
X30039Y40218
T06
X44007Y206099
X87007Y206099
X87007Y249099
X44007Y249099
T07
X114838Y245906
X174838Y245906
T08
X21770Y24473
X248149Y24489
X248163Y264658
X21769Y264644
M30
