G75*
%MOIN*%
%OFA0B0*%
%FSLAX25Y25*%
%IPPOS*%
%LPD*%
%AMOC8*
5,1,8,0,0,1.08239X$1,22.5*
%
%ADD10C,0.00600*%
%ADD11R,0.02000X0.08000*%
%ADD12R,0.07500X0.02000*%
%ADD13C,0.01000*%
%ADD14R,0.05522X0.02400*%
%ADD15C,0.01200*%
%ADD16C,0.01600*%
%ADD17R,0.06358X0.03150*%
%ADD18C,0.00200*%
%ADD19R,0.08000X0.02000*%
%ADD20R,0.02000X0.07500*%
D10*
X0041693Y0022010D02*
X0041693Y0058427D01*
X0221063Y0058427D01*
X0221063Y0022010D01*
X0041693Y0022010D01*
X0041790Y0060657D02*
X0041790Y0097074D01*
X0221160Y0097074D01*
X0221160Y0060657D01*
X0041790Y0060657D01*
X0024620Y0101447D02*
X0019620Y0101447D01*
X0017120Y0103947D01*
X0017120Y0108947D01*
X0019620Y0111447D01*
X0017120Y0113947D01*
X0017120Y0118947D01*
X0019620Y0121447D01*
X0024620Y0121447D01*
X0027120Y0118947D01*
X0027120Y0113947D01*
X0024620Y0111447D01*
X0027120Y0108947D01*
X0027120Y0103947D01*
X0024620Y0101447D01*
X0024620Y0111447D02*
X0019620Y0111447D01*
X0019908Y0133177D02*
X0017408Y0135677D01*
X0017408Y0140677D01*
X0019908Y0143177D01*
X0017408Y0145677D01*
X0017408Y0150677D01*
X0019908Y0153177D01*
X0024908Y0153177D01*
X0027408Y0150677D01*
X0027408Y0145677D01*
X0024908Y0143177D01*
X0027408Y0140677D01*
X0027408Y0135677D01*
X0024908Y0133177D01*
X0019908Y0133177D01*
X0019908Y0143177D02*
X0024908Y0143177D01*
X0049940Y0145302D02*
X0049940Y0163708D01*
X0049940Y0182212D01*
X0149330Y0182212D01*
X0149330Y0163708D01*
X0149330Y0145302D01*
X0049940Y0145302D01*
X0068184Y0129548D02*
X0068186Y0129680D01*
X0068192Y0129811D01*
X0068202Y0129942D01*
X0068216Y0130073D01*
X0068234Y0130203D01*
X0068256Y0130333D01*
X0068281Y0130462D01*
X0068311Y0130590D01*
X0068345Y0130718D01*
X0068382Y0130844D01*
X0068423Y0130969D01*
X0068468Y0131092D01*
X0068517Y0131215D01*
X0068570Y0131335D01*
X0068626Y0131454D01*
X0068685Y0131572D01*
X0068748Y0131687D01*
X0068815Y0131800D01*
X0068885Y0131912D01*
X0068959Y0132021D01*
X0069035Y0132128D01*
X0069115Y0132232D01*
X0069198Y0132334D01*
X0069284Y0132434D01*
X0069373Y0132531D01*
X0069465Y0132625D01*
X0069560Y0132716D01*
X0069658Y0132805D01*
X0069758Y0132890D01*
X0069860Y0132972D01*
X0069966Y0133051D01*
X0070073Y0133127D01*
X0070183Y0133200D01*
X0070295Y0133269D01*
X0070409Y0133335D01*
X0070525Y0133397D01*
X0070642Y0133456D01*
X0070762Y0133511D01*
X0070883Y0133562D01*
X0071005Y0133610D01*
X0071129Y0133654D01*
X0071255Y0133695D01*
X0071381Y0133731D01*
X0071509Y0133764D01*
X0071637Y0133792D01*
X0071766Y0133817D01*
X0071896Y0133838D01*
X0072027Y0133855D01*
X0072158Y0133868D01*
X0072289Y0133877D01*
X0072420Y0133882D01*
X0072552Y0133883D01*
X0072683Y0133880D01*
X0072815Y0133873D01*
X0072946Y0133862D01*
X0073077Y0133847D01*
X0073207Y0133828D01*
X0073336Y0133805D01*
X0073465Y0133778D01*
X0073593Y0133748D01*
X0073720Y0133713D01*
X0073846Y0133675D01*
X0073971Y0133633D01*
X0074094Y0133587D01*
X0074216Y0133537D01*
X0074336Y0133484D01*
X0074455Y0133427D01*
X0074572Y0133366D01*
X0074686Y0133302D01*
X0074799Y0133235D01*
X0074910Y0133164D01*
X0075019Y0133090D01*
X0075125Y0133012D01*
X0075229Y0132931D01*
X0075331Y0132848D01*
X0075429Y0132761D01*
X0075526Y0132671D01*
X0075619Y0132578D01*
X0075710Y0132483D01*
X0075797Y0132385D01*
X0075882Y0132284D01*
X0075963Y0132180D01*
X0076041Y0132075D01*
X0076117Y0131967D01*
X0076188Y0131856D01*
X0076257Y0131744D01*
X0076322Y0131629D01*
X0076383Y0131513D01*
X0076441Y0131395D01*
X0076495Y0131275D01*
X0076546Y0131154D01*
X0076593Y0131031D01*
X0076636Y0130906D01*
X0076675Y0130781D01*
X0076711Y0130654D01*
X0076742Y0130526D01*
X0076770Y0130398D01*
X0076794Y0130268D01*
X0076814Y0130138D01*
X0076830Y0130008D01*
X0076842Y0129877D01*
X0076850Y0129745D01*
X0076854Y0129614D01*
X0076854Y0129482D01*
X0076850Y0129351D01*
X0076842Y0129219D01*
X0076830Y0129088D01*
X0076814Y0128958D01*
X0076794Y0128828D01*
X0076770Y0128698D01*
X0076742Y0128570D01*
X0076711Y0128442D01*
X0076675Y0128315D01*
X0076636Y0128190D01*
X0076593Y0128065D01*
X0076546Y0127942D01*
X0076495Y0127821D01*
X0076441Y0127701D01*
X0076383Y0127583D01*
X0076322Y0127467D01*
X0076257Y0127352D01*
X0076188Y0127240D01*
X0076117Y0127129D01*
X0076041Y0127021D01*
X0075963Y0126916D01*
X0075882Y0126812D01*
X0075797Y0126711D01*
X0075710Y0126613D01*
X0075619Y0126518D01*
X0075526Y0126425D01*
X0075429Y0126335D01*
X0075331Y0126248D01*
X0075229Y0126165D01*
X0075125Y0126084D01*
X0075019Y0126006D01*
X0074910Y0125932D01*
X0074799Y0125861D01*
X0074687Y0125794D01*
X0074572Y0125730D01*
X0074455Y0125669D01*
X0074336Y0125612D01*
X0074216Y0125559D01*
X0074094Y0125509D01*
X0073971Y0125463D01*
X0073846Y0125421D01*
X0073720Y0125383D01*
X0073593Y0125348D01*
X0073465Y0125318D01*
X0073336Y0125291D01*
X0073207Y0125268D01*
X0073077Y0125249D01*
X0072946Y0125234D01*
X0072815Y0125223D01*
X0072683Y0125216D01*
X0072552Y0125213D01*
X0072420Y0125214D01*
X0072289Y0125219D01*
X0072158Y0125228D01*
X0072027Y0125241D01*
X0071896Y0125258D01*
X0071766Y0125279D01*
X0071637Y0125304D01*
X0071509Y0125332D01*
X0071381Y0125365D01*
X0071255Y0125401D01*
X0071129Y0125442D01*
X0071005Y0125486D01*
X0070883Y0125534D01*
X0070762Y0125585D01*
X0070642Y0125640D01*
X0070525Y0125699D01*
X0070409Y0125761D01*
X0070295Y0125827D01*
X0070183Y0125896D01*
X0070073Y0125969D01*
X0069966Y0126045D01*
X0069860Y0126124D01*
X0069758Y0126206D01*
X0069658Y0126291D01*
X0069560Y0126380D01*
X0069465Y0126471D01*
X0069373Y0126565D01*
X0069284Y0126662D01*
X0069198Y0126762D01*
X0069115Y0126864D01*
X0069035Y0126968D01*
X0068959Y0127075D01*
X0068885Y0127184D01*
X0068815Y0127296D01*
X0068748Y0127409D01*
X0068685Y0127524D01*
X0068626Y0127642D01*
X0068570Y0127761D01*
X0068517Y0127881D01*
X0068468Y0128004D01*
X0068423Y0128127D01*
X0068382Y0128252D01*
X0068345Y0128378D01*
X0068311Y0128506D01*
X0068281Y0128634D01*
X0068256Y0128763D01*
X0068234Y0128893D01*
X0068216Y0129023D01*
X0068202Y0129154D01*
X0068192Y0129285D01*
X0068186Y0129416D01*
X0068184Y0129548D01*
X0124303Y0109108D02*
X0127303Y0109108D01*
X0125803Y0107608D02*
X0125803Y0110608D01*
X0110303Y0121108D02*
X0110309Y0121599D01*
X0110327Y0122089D01*
X0110357Y0122579D01*
X0110399Y0123068D01*
X0110453Y0123556D01*
X0110519Y0124043D01*
X0110597Y0124527D01*
X0110687Y0125010D01*
X0110789Y0125490D01*
X0110902Y0125968D01*
X0111027Y0126442D01*
X0111164Y0126914D01*
X0111312Y0127382D01*
X0111472Y0127846D01*
X0111643Y0128306D01*
X0111825Y0128762D01*
X0112019Y0129213D01*
X0112223Y0129659D01*
X0112439Y0130100D01*
X0112665Y0130536D01*
X0112901Y0130966D01*
X0113148Y0131390D01*
X0113406Y0131808D01*
X0113674Y0132219D01*
X0113951Y0132624D01*
X0114239Y0133022D01*
X0114536Y0133413D01*
X0114843Y0133796D01*
X0115159Y0134171D01*
X0115484Y0134539D01*
X0115818Y0134899D01*
X0116161Y0135250D01*
X0116512Y0135593D01*
X0116872Y0135927D01*
X0117240Y0136252D01*
X0117615Y0136568D01*
X0117998Y0136875D01*
X0118389Y0137172D01*
X0118787Y0137460D01*
X0119192Y0137737D01*
X0119603Y0138005D01*
X0120021Y0138263D01*
X0120445Y0138510D01*
X0120875Y0138746D01*
X0121311Y0138972D01*
X0121752Y0139188D01*
X0122198Y0139392D01*
X0122649Y0139586D01*
X0123105Y0139768D01*
X0123565Y0139939D01*
X0124029Y0140099D01*
X0124497Y0140247D01*
X0124969Y0140384D01*
X0125443Y0140509D01*
X0125921Y0140622D01*
X0126401Y0140724D01*
X0126884Y0140814D01*
X0127368Y0140892D01*
X0127855Y0140958D01*
X0128343Y0141012D01*
X0128832Y0141054D01*
X0129322Y0141084D01*
X0129812Y0141102D01*
X0130303Y0141108D01*
X0130794Y0141102D01*
X0131284Y0141084D01*
X0131774Y0141054D01*
X0132263Y0141012D01*
X0132751Y0140958D01*
X0133238Y0140892D01*
X0133722Y0140814D01*
X0134205Y0140724D01*
X0134685Y0140622D01*
X0135163Y0140509D01*
X0135637Y0140384D01*
X0136109Y0140247D01*
X0136577Y0140099D01*
X0137041Y0139939D01*
X0137501Y0139768D01*
X0137957Y0139586D01*
X0138408Y0139392D01*
X0138854Y0139188D01*
X0139295Y0138972D01*
X0139731Y0138746D01*
X0140161Y0138510D01*
X0140585Y0138263D01*
X0141003Y0138005D01*
X0141414Y0137737D01*
X0141819Y0137460D01*
X0142217Y0137172D01*
X0142608Y0136875D01*
X0142991Y0136568D01*
X0143366Y0136252D01*
X0143734Y0135927D01*
X0144094Y0135593D01*
X0144445Y0135250D01*
X0144788Y0134899D01*
X0145122Y0134539D01*
X0145447Y0134171D01*
X0145763Y0133796D01*
X0146070Y0133413D01*
X0146367Y0133022D01*
X0146655Y0132624D01*
X0146932Y0132219D01*
X0147200Y0131808D01*
X0147458Y0131390D01*
X0147705Y0130966D01*
X0147941Y0130536D01*
X0148167Y0130100D01*
X0148383Y0129659D01*
X0148587Y0129213D01*
X0148781Y0128762D01*
X0148963Y0128306D01*
X0149134Y0127846D01*
X0149294Y0127382D01*
X0149442Y0126914D01*
X0149579Y0126442D01*
X0149704Y0125968D01*
X0149817Y0125490D01*
X0149919Y0125010D01*
X0150009Y0124527D01*
X0150087Y0124043D01*
X0150153Y0123556D01*
X0150207Y0123068D01*
X0150249Y0122579D01*
X0150279Y0122089D01*
X0150297Y0121599D01*
X0150303Y0121108D01*
X0150297Y0120617D01*
X0150279Y0120127D01*
X0150249Y0119637D01*
X0150207Y0119148D01*
X0150153Y0118660D01*
X0150087Y0118173D01*
X0150009Y0117689D01*
X0149919Y0117206D01*
X0149817Y0116726D01*
X0149704Y0116248D01*
X0149579Y0115774D01*
X0149442Y0115302D01*
X0149294Y0114834D01*
X0149134Y0114370D01*
X0148963Y0113910D01*
X0148781Y0113454D01*
X0148587Y0113003D01*
X0148383Y0112557D01*
X0148167Y0112116D01*
X0147941Y0111680D01*
X0147705Y0111250D01*
X0147458Y0110826D01*
X0147200Y0110408D01*
X0146932Y0109997D01*
X0146655Y0109592D01*
X0146367Y0109194D01*
X0146070Y0108803D01*
X0145763Y0108420D01*
X0145447Y0108045D01*
X0145122Y0107677D01*
X0144788Y0107317D01*
X0144445Y0106966D01*
X0144094Y0106623D01*
X0143734Y0106289D01*
X0143366Y0105964D01*
X0142991Y0105648D01*
X0142608Y0105341D01*
X0142217Y0105044D01*
X0141819Y0104756D01*
X0141414Y0104479D01*
X0141003Y0104211D01*
X0140585Y0103953D01*
X0140161Y0103706D01*
X0139731Y0103470D01*
X0139295Y0103244D01*
X0138854Y0103028D01*
X0138408Y0102824D01*
X0137957Y0102630D01*
X0137501Y0102448D01*
X0137041Y0102277D01*
X0136577Y0102117D01*
X0136109Y0101969D01*
X0135637Y0101832D01*
X0135163Y0101707D01*
X0134685Y0101594D01*
X0134205Y0101492D01*
X0133722Y0101402D01*
X0133238Y0101324D01*
X0132751Y0101258D01*
X0132263Y0101204D01*
X0131774Y0101162D01*
X0131284Y0101132D01*
X0130794Y0101114D01*
X0130303Y0101108D01*
X0129812Y0101114D01*
X0129322Y0101132D01*
X0128832Y0101162D01*
X0128343Y0101204D01*
X0127855Y0101258D01*
X0127368Y0101324D01*
X0126884Y0101402D01*
X0126401Y0101492D01*
X0125921Y0101594D01*
X0125443Y0101707D01*
X0124969Y0101832D01*
X0124497Y0101969D01*
X0124029Y0102117D01*
X0123565Y0102277D01*
X0123105Y0102448D01*
X0122649Y0102630D01*
X0122198Y0102824D01*
X0121752Y0103028D01*
X0121311Y0103244D01*
X0120875Y0103470D01*
X0120445Y0103706D01*
X0120021Y0103953D01*
X0119603Y0104211D01*
X0119192Y0104479D01*
X0118787Y0104756D01*
X0118389Y0105044D01*
X0117998Y0105341D01*
X0117615Y0105648D01*
X0117240Y0105964D01*
X0116872Y0106289D01*
X0116512Y0106623D01*
X0116161Y0106966D01*
X0115818Y0107317D01*
X0115484Y0107677D01*
X0115159Y0108045D01*
X0114843Y0108420D01*
X0114536Y0108803D01*
X0114239Y0109194D01*
X0113951Y0109592D01*
X0113674Y0109997D01*
X0113406Y0110408D01*
X0113148Y0110826D01*
X0112901Y0111250D01*
X0112665Y0111680D01*
X0112439Y0112116D01*
X0112223Y0112557D01*
X0112019Y0113003D01*
X0111825Y0113454D01*
X0111643Y0113910D01*
X0111472Y0114370D01*
X0111312Y0114834D01*
X0111164Y0115302D01*
X0111027Y0115774D01*
X0110902Y0116248D01*
X0110789Y0116726D01*
X0110687Y0117206D01*
X0110597Y0117689D01*
X0110519Y0118173D01*
X0110453Y0118660D01*
X0110399Y0119148D01*
X0110357Y0119637D01*
X0110327Y0120127D01*
X0110309Y0120617D01*
X0110303Y0121108D01*
X0194833Y0109727D02*
X0194833Y0103727D01*
X0194835Y0103667D01*
X0194840Y0103606D01*
X0194849Y0103547D01*
X0194862Y0103488D01*
X0194878Y0103429D01*
X0194898Y0103372D01*
X0194921Y0103317D01*
X0194948Y0103262D01*
X0194977Y0103210D01*
X0195010Y0103159D01*
X0195046Y0103110D01*
X0195084Y0103064D01*
X0195126Y0103020D01*
X0195170Y0102978D01*
X0195216Y0102940D01*
X0195265Y0102904D01*
X0195316Y0102871D01*
X0195368Y0102842D01*
X0195423Y0102815D01*
X0195478Y0102792D01*
X0195535Y0102772D01*
X0195594Y0102756D01*
X0195653Y0102743D01*
X0195712Y0102734D01*
X0195773Y0102729D01*
X0195833Y0102727D01*
X0211833Y0102727D01*
X0211893Y0102729D01*
X0211954Y0102734D01*
X0212013Y0102743D01*
X0212072Y0102756D01*
X0212131Y0102772D01*
X0212188Y0102792D01*
X0212243Y0102815D01*
X0212298Y0102842D01*
X0212350Y0102871D01*
X0212401Y0102904D01*
X0212450Y0102940D01*
X0212496Y0102978D01*
X0212540Y0103020D01*
X0212582Y0103064D01*
X0212620Y0103110D01*
X0212656Y0103159D01*
X0212689Y0103210D01*
X0212718Y0103262D01*
X0212745Y0103317D01*
X0212768Y0103372D01*
X0212788Y0103429D01*
X0212804Y0103488D01*
X0212817Y0103547D01*
X0212826Y0103606D01*
X0212831Y0103667D01*
X0212833Y0103727D01*
X0212833Y0109727D01*
X0212831Y0109787D01*
X0212826Y0109848D01*
X0212817Y0109907D01*
X0212804Y0109966D01*
X0212788Y0110025D01*
X0212768Y0110082D01*
X0212745Y0110137D01*
X0212718Y0110192D01*
X0212689Y0110244D01*
X0212656Y0110295D01*
X0212620Y0110344D01*
X0212582Y0110390D01*
X0212540Y0110434D01*
X0212496Y0110476D01*
X0212450Y0110514D01*
X0212401Y0110550D01*
X0212350Y0110583D01*
X0212298Y0110612D01*
X0212243Y0110639D01*
X0212188Y0110662D01*
X0212131Y0110682D01*
X0212072Y0110698D01*
X0212013Y0110711D01*
X0211954Y0110720D01*
X0211893Y0110725D01*
X0211833Y0110727D01*
X0195833Y0110727D01*
X0195773Y0110725D01*
X0195712Y0110720D01*
X0195653Y0110711D01*
X0195594Y0110698D01*
X0195535Y0110682D01*
X0195478Y0110662D01*
X0195423Y0110639D01*
X0195368Y0110612D01*
X0195316Y0110583D01*
X0195265Y0110550D01*
X0195216Y0110514D01*
X0195170Y0110476D01*
X0195126Y0110434D01*
X0195084Y0110390D01*
X0195046Y0110344D01*
X0195010Y0110295D01*
X0194977Y0110244D01*
X0194948Y0110192D01*
X0194921Y0110137D01*
X0194898Y0110082D01*
X0194878Y0110025D01*
X0194862Y0109966D01*
X0194849Y0109907D01*
X0194840Y0109848D01*
X0194835Y0109787D01*
X0194833Y0109727D01*
X0201333Y0106727D02*
X0203833Y0106727D01*
X0203833Y0109227D01*
X0204833Y0109227D01*
X0203833Y0106727D02*
X0203833Y0104227D01*
X0203833Y0106727D02*
X0207833Y0109227D01*
X0207833Y0104227D01*
X0203833Y0106727D01*
X0209833Y0106727D01*
X0237514Y0112175D02*
X0237514Y0128175D01*
X0237516Y0128235D01*
X0237521Y0128296D01*
X0237530Y0128355D01*
X0237543Y0128414D01*
X0237559Y0128473D01*
X0237579Y0128530D01*
X0237602Y0128585D01*
X0237629Y0128640D01*
X0237658Y0128692D01*
X0237691Y0128743D01*
X0237727Y0128792D01*
X0237765Y0128838D01*
X0237807Y0128882D01*
X0237851Y0128924D01*
X0237897Y0128962D01*
X0237946Y0128998D01*
X0237997Y0129031D01*
X0238049Y0129060D01*
X0238104Y0129087D01*
X0238159Y0129110D01*
X0238216Y0129130D01*
X0238275Y0129146D01*
X0238334Y0129159D01*
X0238393Y0129168D01*
X0238454Y0129173D01*
X0238514Y0129175D01*
X0244514Y0129175D01*
X0244574Y0129173D01*
X0244635Y0129168D01*
X0244694Y0129159D01*
X0244753Y0129146D01*
X0244812Y0129130D01*
X0244869Y0129110D01*
X0244924Y0129087D01*
X0244979Y0129060D01*
X0245031Y0129031D01*
X0245082Y0128998D01*
X0245131Y0128962D01*
X0245177Y0128924D01*
X0245221Y0128882D01*
X0245263Y0128838D01*
X0245301Y0128792D01*
X0245337Y0128743D01*
X0245370Y0128692D01*
X0245399Y0128640D01*
X0245426Y0128585D01*
X0245449Y0128530D01*
X0245469Y0128473D01*
X0245485Y0128414D01*
X0245498Y0128355D01*
X0245507Y0128296D01*
X0245512Y0128235D01*
X0245514Y0128175D01*
X0245514Y0112175D01*
X0245512Y0112115D01*
X0245507Y0112054D01*
X0245498Y0111995D01*
X0245485Y0111936D01*
X0245469Y0111877D01*
X0245449Y0111820D01*
X0245426Y0111765D01*
X0245399Y0111710D01*
X0245370Y0111658D01*
X0245337Y0111607D01*
X0245301Y0111558D01*
X0245263Y0111512D01*
X0245221Y0111468D01*
X0245177Y0111426D01*
X0245131Y0111388D01*
X0245082Y0111352D01*
X0245031Y0111319D01*
X0244979Y0111290D01*
X0244924Y0111263D01*
X0244869Y0111240D01*
X0244812Y0111220D01*
X0244753Y0111204D01*
X0244694Y0111191D01*
X0244635Y0111182D01*
X0244574Y0111177D01*
X0244514Y0111175D01*
X0238514Y0111175D01*
X0238454Y0111177D01*
X0238393Y0111182D01*
X0238334Y0111191D01*
X0238275Y0111204D01*
X0238216Y0111220D01*
X0238159Y0111240D01*
X0238104Y0111263D01*
X0238049Y0111290D01*
X0237997Y0111319D01*
X0237946Y0111352D01*
X0237897Y0111388D01*
X0237851Y0111426D01*
X0237807Y0111468D01*
X0237765Y0111512D01*
X0237727Y0111558D01*
X0237691Y0111607D01*
X0237658Y0111658D01*
X0237629Y0111710D01*
X0237602Y0111765D01*
X0237579Y0111820D01*
X0237559Y0111877D01*
X0237543Y0111936D01*
X0237530Y0111995D01*
X0237521Y0112054D01*
X0237516Y0112115D01*
X0237514Y0112175D01*
X0241514Y0114175D02*
X0241514Y0120175D01*
X0244014Y0120175D01*
X0244014Y0119175D01*
X0241514Y0120175D02*
X0239014Y0116175D01*
X0244014Y0116175D01*
X0241514Y0120175D01*
X0239014Y0120175D01*
X0241514Y0120175D02*
X0241514Y0122675D01*
X0263673Y0110831D02*
X0263673Y0256831D01*
X0285673Y0256831D01*
X0285673Y0110831D01*
X0277173Y0110831D01*
X0277171Y0110929D01*
X0277165Y0111027D01*
X0277156Y0111125D01*
X0277142Y0111222D01*
X0277125Y0111319D01*
X0277104Y0111415D01*
X0277079Y0111510D01*
X0277051Y0111604D01*
X0277018Y0111696D01*
X0276983Y0111788D01*
X0276943Y0111878D01*
X0276901Y0111966D01*
X0276854Y0112053D01*
X0276805Y0112137D01*
X0276752Y0112220D01*
X0276696Y0112300D01*
X0276636Y0112379D01*
X0276574Y0112455D01*
X0276509Y0112528D01*
X0276441Y0112599D01*
X0276370Y0112667D01*
X0276297Y0112732D01*
X0276221Y0112794D01*
X0276142Y0112854D01*
X0276062Y0112910D01*
X0275979Y0112963D01*
X0275895Y0113012D01*
X0275808Y0113059D01*
X0275720Y0113101D01*
X0275630Y0113141D01*
X0275538Y0113176D01*
X0275446Y0113209D01*
X0275352Y0113237D01*
X0275257Y0113262D01*
X0275161Y0113283D01*
X0275064Y0113300D01*
X0274967Y0113314D01*
X0274869Y0113323D01*
X0274771Y0113329D01*
X0274673Y0113331D01*
X0274575Y0113329D01*
X0274477Y0113323D01*
X0274379Y0113314D01*
X0274282Y0113300D01*
X0274185Y0113283D01*
X0274089Y0113262D01*
X0273994Y0113237D01*
X0273900Y0113209D01*
X0273808Y0113176D01*
X0273716Y0113141D01*
X0273626Y0113101D01*
X0273538Y0113059D01*
X0273451Y0113012D01*
X0273367Y0112963D01*
X0273284Y0112910D01*
X0273204Y0112854D01*
X0273125Y0112794D01*
X0273049Y0112732D01*
X0272976Y0112667D01*
X0272905Y0112599D01*
X0272837Y0112528D01*
X0272772Y0112455D01*
X0272710Y0112379D01*
X0272650Y0112300D01*
X0272594Y0112220D01*
X0272541Y0112137D01*
X0272492Y0112053D01*
X0272445Y0111966D01*
X0272403Y0111878D01*
X0272363Y0111788D01*
X0272328Y0111696D01*
X0272295Y0111604D01*
X0272267Y0111510D01*
X0272242Y0111415D01*
X0272221Y0111319D01*
X0272204Y0111222D01*
X0272190Y0111125D01*
X0272181Y0111027D01*
X0272175Y0110929D01*
X0272173Y0110831D01*
X0263673Y0110831D01*
X0268812Y0076394D02*
X0266312Y0073894D01*
X0266312Y0068894D01*
X0268812Y0066394D01*
X0273812Y0066394D01*
X0276312Y0068894D01*
X0276312Y0073894D01*
X0273812Y0076394D01*
X0268812Y0076394D01*
X0276312Y0073894D02*
X0278812Y0076394D01*
X0283812Y0076394D01*
X0286312Y0073894D01*
X0288812Y0076394D01*
X0293812Y0076394D01*
X0296312Y0073894D01*
X0296312Y0068894D01*
X0293812Y0066394D01*
X0288812Y0066394D01*
X0286312Y0068894D01*
X0283812Y0066394D01*
X0278812Y0066394D01*
X0276312Y0068894D01*
X0286312Y0068894D02*
X0286312Y0073894D01*
X0317492Y0106905D02*
X0319992Y0104405D01*
X0324992Y0104405D01*
X0327492Y0106905D01*
X0327492Y0111905D01*
X0324992Y0114405D01*
X0319992Y0114405D01*
X0317492Y0111905D01*
X0317492Y0106905D01*
X0319992Y0114405D02*
X0317492Y0116905D01*
X0317492Y0121905D01*
X0319992Y0124405D01*
X0317492Y0126905D01*
X0317492Y0131905D01*
X0319992Y0134405D01*
X0317492Y0136905D01*
X0317492Y0141905D01*
X0319992Y0144405D01*
X0317492Y0146905D01*
X0317492Y0151905D01*
X0319992Y0154405D01*
X0317492Y0156905D01*
X0317492Y0161905D01*
X0319992Y0164405D01*
X0324992Y0164405D01*
X0327492Y0161905D01*
X0327492Y0156905D01*
X0324992Y0154405D01*
X0327492Y0151905D01*
X0327492Y0146905D01*
X0324992Y0144405D01*
X0319992Y0144405D01*
X0324992Y0144405D02*
X0327492Y0141905D01*
X0327492Y0136905D01*
X0324992Y0134405D01*
X0327492Y0131905D01*
X0327492Y0126905D01*
X0324992Y0124405D01*
X0327492Y0121905D01*
X0327492Y0116905D01*
X0324992Y0114405D01*
X0324992Y0124405D02*
X0319992Y0124405D01*
X0319992Y0134405D02*
X0324992Y0134405D01*
X0340258Y0132359D02*
X0340258Y0127359D01*
X0342758Y0124859D01*
X0347758Y0124859D01*
X0350258Y0127359D01*
X0350258Y0132359D01*
X0347758Y0134859D01*
X0342758Y0134859D01*
X0340258Y0132359D01*
X0342758Y0124859D02*
X0340258Y0122359D01*
X0340258Y0117359D01*
X0342758Y0114859D01*
X0347758Y0114859D01*
X0350258Y0117359D01*
X0350258Y0122359D01*
X0347758Y0124859D01*
X0324992Y0154405D02*
X0319992Y0154405D01*
X0314297Y0191081D02*
X0314299Y0190921D01*
X0314305Y0190762D01*
X0314315Y0190603D01*
X0314328Y0190444D01*
X0314346Y0190285D01*
X0314367Y0190127D01*
X0314393Y0189970D01*
X0314422Y0189813D01*
X0314455Y0189657D01*
X0314492Y0189502D01*
X0314532Y0189347D01*
X0314577Y0189194D01*
X0314625Y0189042D01*
X0314677Y0188891D01*
X0314733Y0188742D01*
X0314792Y0188594D01*
X0314855Y0188447D01*
X0314921Y0188302D01*
X0314991Y0188159D01*
X0315065Y0188017D01*
X0315141Y0187877D01*
X0315222Y0187739D01*
X0315305Y0187604D01*
X0315392Y0187470D01*
X0315483Y0187338D01*
X0315576Y0187209D01*
X0315673Y0187082D01*
X0315772Y0186957D01*
X0315875Y0186835D01*
X0315981Y0186716D01*
X0316089Y0186599D01*
X0316201Y0186485D01*
X0316315Y0186373D01*
X0316432Y0186265D01*
X0316551Y0186159D01*
X0316673Y0186056D01*
X0316798Y0185957D01*
X0316925Y0185860D01*
X0317054Y0185767D01*
X0317186Y0185676D01*
X0317320Y0185589D01*
X0317455Y0185506D01*
X0317593Y0185425D01*
X0317733Y0185349D01*
X0317875Y0185275D01*
X0318018Y0185205D01*
X0318163Y0185139D01*
X0318310Y0185076D01*
X0318458Y0185017D01*
X0318607Y0184961D01*
X0318758Y0184909D01*
X0318910Y0184861D01*
X0319063Y0184816D01*
X0319218Y0184776D01*
X0319373Y0184739D01*
X0319529Y0184706D01*
X0319686Y0184677D01*
X0319843Y0184651D01*
X0320001Y0184630D01*
X0320160Y0184612D01*
X0320319Y0184599D01*
X0320478Y0184589D01*
X0320637Y0184583D01*
X0320797Y0184581D01*
X0320957Y0184583D01*
X0321116Y0184589D01*
X0321275Y0184599D01*
X0321434Y0184612D01*
X0321593Y0184630D01*
X0321751Y0184651D01*
X0321908Y0184677D01*
X0322065Y0184706D01*
X0322221Y0184739D01*
X0322376Y0184776D01*
X0322531Y0184816D01*
X0322684Y0184861D01*
X0322836Y0184909D01*
X0322987Y0184961D01*
X0323136Y0185017D01*
X0323284Y0185076D01*
X0323431Y0185139D01*
X0323576Y0185205D01*
X0323719Y0185275D01*
X0323861Y0185349D01*
X0324001Y0185425D01*
X0324139Y0185506D01*
X0324274Y0185589D01*
X0324408Y0185676D01*
X0324540Y0185767D01*
X0324669Y0185860D01*
X0324796Y0185957D01*
X0324921Y0186056D01*
X0325043Y0186159D01*
X0325162Y0186265D01*
X0325279Y0186373D01*
X0325393Y0186485D01*
X0325505Y0186599D01*
X0325613Y0186716D01*
X0325719Y0186835D01*
X0325822Y0186957D01*
X0325921Y0187082D01*
X0326018Y0187209D01*
X0326111Y0187338D01*
X0326202Y0187470D01*
X0326289Y0187604D01*
X0326372Y0187739D01*
X0326453Y0187877D01*
X0326529Y0188017D01*
X0326603Y0188159D01*
X0326673Y0188302D01*
X0326739Y0188447D01*
X0326802Y0188594D01*
X0326861Y0188742D01*
X0326917Y0188891D01*
X0326969Y0189042D01*
X0327017Y0189194D01*
X0327062Y0189347D01*
X0327102Y0189502D01*
X0327139Y0189657D01*
X0327172Y0189813D01*
X0327201Y0189970D01*
X0327227Y0190127D01*
X0327248Y0190285D01*
X0327266Y0190444D01*
X0327279Y0190603D01*
X0327289Y0190762D01*
X0327295Y0190921D01*
X0327297Y0191081D01*
X0327297Y0215081D01*
X0327295Y0215241D01*
X0327289Y0215400D01*
X0327279Y0215559D01*
X0327266Y0215718D01*
X0327248Y0215877D01*
X0327227Y0216035D01*
X0327201Y0216192D01*
X0327172Y0216349D01*
X0327139Y0216505D01*
X0327102Y0216660D01*
X0327062Y0216815D01*
X0327017Y0216968D01*
X0326969Y0217120D01*
X0326917Y0217271D01*
X0326861Y0217420D01*
X0326802Y0217568D01*
X0326739Y0217715D01*
X0326673Y0217860D01*
X0326603Y0218003D01*
X0326529Y0218145D01*
X0326453Y0218285D01*
X0326372Y0218423D01*
X0326289Y0218558D01*
X0326202Y0218692D01*
X0326111Y0218824D01*
X0326018Y0218953D01*
X0325921Y0219080D01*
X0325822Y0219205D01*
X0325719Y0219327D01*
X0325613Y0219446D01*
X0325505Y0219563D01*
X0325393Y0219677D01*
X0325279Y0219789D01*
X0325162Y0219897D01*
X0325043Y0220003D01*
X0324921Y0220106D01*
X0324796Y0220205D01*
X0324669Y0220302D01*
X0324540Y0220395D01*
X0324408Y0220486D01*
X0324274Y0220573D01*
X0324139Y0220656D01*
X0324001Y0220737D01*
X0323861Y0220813D01*
X0323719Y0220887D01*
X0323576Y0220957D01*
X0323431Y0221023D01*
X0323284Y0221086D01*
X0323136Y0221145D01*
X0322987Y0221201D01*
X0322836Y0221253D01*
X0322684Y0221301D01*
X0322531Y0221346D01*
X0322376Y0221386D01*
X0322221Y0221423D01*
X0322065Y0221456D01*
X0321908Y0221485D01*
X0321751Y0221511D01*
X0321593Y0221532D01*
X0321434Y0221550D01*
X0321275Y0221563D01*
X0321116Y0221573D01*
X0320957Y0221579D01*
X0320797Y0221581D01*
X0320637Y0221579D01*
X0320478Y0221573D01*
X0320319Y0221563D01*
X0320160Y0221550D01*
X0320001Y0221532D01*
X0319843Y0221511D01*
X0319686Y0221485D01*
X0319529Y0221456D01*
X0319373Y0221423D01*
X0319218Y0221386D01*
X0319063Y0221346D01*
X0318910Y0221301D01*
X0318758Y0221253D01*
X0318607Y0221201D01*
X0318458Y0221145D01*
X0318310Y0221086D01*
X0318163Y0221023D01*
X0318018Y0220957D01*
X0317875Y0220887D01*
X0317733Y0220813D01*
X0317593Y0220737D01*
X0317455Y0220656D01*
X0317320Y0220573D01*
X0317186Y0220486D01*
X0317054Y0220395D01*
X0316925Y0220302D01*
X0316798Y0220205D01*
X0316673Y0220106D01*
X0316551Y0220003D01*
X0316432Y0219897D01*
X0316315Y0219789D01*
X0316201Y0219677D01*
X0316089Y0219563D01*
X0315981Y0219446D01*
X0315875Y0219327D01*
X0315772Y0219205D01*
X0315673Y0219080D01*
X0315576Y0218953D01*
X0315483Y0218824D01*
X0315392Y0218692D01*
X0315305Y0218558D01*
X0315222Y0218423D01*
X0315141Y0218285D01*
X0315065Y0218145D01*
X0314991Y0218003D01*
X0314921Y0217860D01*
X0314855Y0217715D01*
X0314792Y0217568D01*
X0314733Y0217420D01*
X0314677Y0217271D01*
X0314625Y0217120D01*
X0314577Y0216968D01*
X0314532Y0216815D01*
X0314492Y0216660D01*
X0314455Y0216505D01*
X0314422Y0216349D01*
X0314393Y0216192D01*
X0314367Y0216035D01*
X0314346Y0215877D01*
X0314328Y0215718D01*
X0314315Y0215559D01*
X0314305Y0215400D01*
X0314299Y0215241D01*
X0314297Y0215081D01*
X0314297Y0191081D01*
X0320797Y0198081D02*
X0320797Y0200581D01*
X0317797Y0200581D01*
X0317797Y0202081D02*
X0317797Y0204081D01*
X0323797Y0204081D01*
X0323797Y0202081D01*
X0317797Y0202081D01*
X0320797Y0200581D02*
X0323797Y0200581D01*
X0323797Y0205581D02*
X0320797Y0205581D01*
X0320797Y0208081D01*
X0320797Y0205581D02*
X0317797Y0205581D01*
X0328735Y0234094D02*
X0334735Y0234094D01*
X0334735Y0235094D01*
X0335735Y0235094D01*
X0328735Y0235094D02*
X0328735Y0234094D01*
X0328735Y0235094D02*
X0327735Y0235094D01*
X0319735Y0238594D02*
X0319735Y0242594D01*
X0319735Y0252094D01*
X0319735Y0255594D01*
X0327735Y0259094D02*
X0328735Y0259094D01*
X0328735Y0260094D01*
X0334735Y0260094D01*
X0334735Y0259094D01*
X0335735Y0259094D01*
X0343735Y0255594D02*
X0343735Y0252094D01*
X0343735Y0242094D01*
X0343735Y0238594D01*
X0330735Y0247094D02*
X0330737Y0247157D01*
X0330743Y0247219D01*
X0330753Y0247281D01*
X0330766Y0247343D01*
X0330784Y0247403D01*
X0330805Y0247462D01*
X0330830Y0247520D01*
X0330859Y0247576D01*
X0330891Y0247630D01*
X0330926Y0247682D01*
X0330964Y0247731D01*
X0331006Y0247779D01*
X0331050Y0247823D01*
X0331098Y0247865D01*
X0331147Y0247903D01*
X0331199Y0247938D01*
X0331253Y0247970D01*
X0331309Y0247999D01*
X0331367Y0248024D01*
X0331426Y0248045D01*
X0331486Y0248063D01*
X0331548Y0248076D01*
X0331610Y0248086D01*
X0331672Y0248092D01*
X0331735Y0248094D01*
X0331798Y0248092D01*
X0331860Y0248086D01*
X0331922Y0248076D01*
X0331984Y0248063D01*
X0332044Y0248045D01*
X0332103Y0248024D01*
X0332161Y0247999D01*
X0332217Y0247970D01*
X0332271Y0247938D01*
X0332323Y0247903D01*
X0332372Y0247865D01*
X0332420Y0247823D01*
X0332464Y0247779D01*
X0332506Y0247731D01*
X0332544Y0247682D01*
X0332579Y0247630D01*
X0332611Y0247576D01*
X0332640Y0247520D01*
X0332665Y0247462D01*
X0332686Y0247403D01*
X0332704Y0247343D01*
X0332717Y0247281D01*
X0332727Y0247219D01*
X0332733Y0247157D01*
X0332735Y0247094D01*
X0332733Y0247031D01*
X0332727Y0246969D01*
X0332717Y0246907D01*
X0332704Y0246845D01*
X0332686Y0246785D01*
X0332665Y0246726D01*
X0332640Y0246668D01*
X0332611Y0246612D01*
X0332579Y0246558D01*
X0332544Y0246506D01*
X0332506Y0246457D01*
X0332464Y0246409D01*
X0332420Y0246365D01*
X0332372Y0246323D01*
X0332323Y0246285D01*
X0332271Y0246250D01*
X0332217Y0246218D01*
X0332161Y0246189D01*
X0332103Y0246164D01*
X0332044Y0246143D01*
X0331984Y0246125D01*
X0331922Y0246112D01*
X0331860Y0246102D01*
X0331798Y0246096D01*
X0331735Y0246094D01*
X0331672Y0246096D01*
X0331610Y0246102D01*
X0331548Y0246112D01*
X0331486Y0246125D01*
X0331426Y0246143D01*
X0331367Y0246164D01*
X0331309Y0246189D01*
X0331253Y0246218D01*
X0331199Y0246250D01*
X0331147Y0246285D01*
X0331098Y0246323D01*
X0331050Y0246365D01*
X0331006Y0246409D01*
X0330964Y0246457D01*
X0330926Y0246506D01*
X0330891Y0246558D01*
X0330859Y0246612D01*
X0330830Y0246668D01*
X0330805Y0246726D01*
X0330784Y0246785D01*
X0330766Y0246845D01*
X0330753Y0246907D01*
X0330743Y0246969D01*
X0330737Y0247031D01*
X0330735Y0247094D01*
X0324735Y0247094D02*
X0324737Y0247266D01*
X0324743Y0247437D01*
X0324754Y0247609D01*
X0324769Y0247780D01*
X0324788Y0247951D01*
X0324811Y0248121D01*
X0324838Y0248291D01*
X0324870Y0248460D01*
X0324905Y0248628D01*
X0324945Y0248795D01*
X0324989Y0248961D01*
X0325036Y0249126D01*
X0325088Y0249290D01*
X0325144Y0249452D01*
X0325204Y0249613D01*
X0325268Y0249773D01*
X0325336Y0249931D01*
X0325407Y0250087D01*
X0325482Y0250241D01*
X0325562Y0250394D01*
X0325644Y0250544D01*
X0325731Y0250693D01*
X0325821Y0250839D01*
X0325915Y0250983D01*
X0326012Y0251125D01*
X0326113Y0251264D01*
X0326217Y0251401D01*
X0326324Y0251535D01*
X0326435Y0251666D01*
X0326548Y0251795D01*
X0326665Y0251921D01*
X0326785Y0252044D01*
X0326908Y0252164D01*
X0327034Y0252281D01*
X0327163Y0252394D01*
X0327294Y0252505D01*
X0327428Y0252612D01*
X0327565Y0252716D01*
X0327704Y0252817D01*
X0327846Y0252914D01*
X0327990Y0253008D01*
X0328136Y0253098D01*
X0328285Y0253185D01*
X0328435Y0253267D01*
X0328588Y0253347D01*
X0328742Y0253422D01*
X0328898Y0253493D01*
X0329056Y0253561D01*
X0329216Y0253625D01*
X0329377Y0253685D01*
X0329539Y0253741D01*
X0329703Y0253793D01*
X0329868Y0253840D01*
X0330034Y0253884D01*
X0330201Y0253924D01*
X0330369Y0253959D01*
X0330538Y0253991D01*
X0330708Y0254018D01*
X0330878Y0254041D01*
X0331049Y0254060D01*
X0331220Y0254075D01*
X0331392Y0254086D01*
X0331563Y0254092D01*
X0331735Y0254094D01*
X0331907Y0254092D01*
X0332078Y0254086D01*
X0332250Y0254075D01*
X0332421Y0254060D01*
X0332592Y0254041D01*
X0332762Y0254018D01*
X0332932Y0253991D01*
X0333101Y0253959D01*
X0333269Y0253924D01*
X0333436Y0253884D01*
X0333602Y0253840D01*
X0333767Y0253793D01*
X0333931Y0253741D01*
X0334093Y0253685D01*
X0334254Y0253625D01*
X0334414Y0253561D01*
X0334572Y0253493D01*
X0334728Y0253422D01*
X0334882Y0253347D01*
X0335035Y0253267D01*
X0335185Y0253185D01*
X0335334Y0253098D01*
X0335480Y0253008D01*
X0335624Y0252914D01*
X0335766Y0252817D01*
X0335905Y0252716D01*
X0336042Y0252612D01*
X0336176Y0252505D01*
X0336307Y0252394D01*
X0336436Y0252281D01*
X0336562Y0252164D01*
X0336685Y0252044D01*
X0336805Y0251921D01*
X0336922Y0251795D01*
X0337035Y0251666D01*
X0337146Y0251535D01*
X0337253Y0251401D01*
X0337357Y0251264D01*
X0337458Y0251125D01*
X0337555Y0250983D01*
X0337649Y0250839D01*
X0337739Y0250693D01*
X0337826Y0250544D01*
X0337908Y0250394D01*
X0337988Y0250241D01*
X0338063Y0250087D01*
X0338134Y0249931D01*
X0338202Y0249773D01*
X0338266Y0249613D01*
X0338326Y0249452D01*
X0338382Y0249290D01*
X0338434Y0249126D01*
X0338481Y0248961D01*
X0338525Y0248795D01*
X0338565Y0248628D01*
X0338600Y0248460D01*
X0338632Y0248291D01*
X0338659Y0248121D01*
X0338682Y0247951D01*
X0338701Y0247780D01*
X0338716Y0247609D01*
X0338727Y0247437D01*
X0338733Y0247266D01*
X0338735Y0247094D01*
X0338733Y0246922D01*
X0338727Y0246751D01*
X0338716Y0246579D01*
X0338701Y0246408D01*
X0338682Y0246237D01*
X0338659Y0246067D01*
X0338632Y0245897D01*
X0338600Y0245728D01*
X0338565Y0245560D01*
X0338525Y0245393D01*
X0338481Y0245227D01*
X0338434Y0245062D01*
X0338382Y0244898D01*
X0338326Y0244736D01*
X0338266Y0244575D01*
X0338202Y0244415D01*
X0338134Y0244257D01*
X0338063Y0244101D01*
X0337988Y0243947D01*
X0337908Y0243794D01*
X0337826Y0243644D01*
X0337739Y0243495D01*
X0337649Y0243349D01*
X0337555Y0243205D01*
X0337458Y0243063D01*
X0337357Y0242924D01*
X0337253Y0242787D01*
X0337146Y0242653D01*
X0337035Y0242522D01*
X0336922Y0242393D01*
X0336805Y0242267D01*
X0336685Y0242144D01*
X0336562Y0242024D01*
X0336436Y0241907D01*
X0336307Y0241794D01*
X0336176Y0241683D01*
X0336042Y0241576D01*
X0335905Y0241472D01*
X0335766Y0241371D01*
X0335624Y0241274D01*
X0335480Y0241180D01*
X0335334Y0241090D01*
X0335185Y0241003D01*
X0335035Y0240921D01*
X0334882Y0240841D01*
X0334728Y0240766D01*
X0334572Y0240695D01*
X0334414Y0240627D01*
X0334254Y0240563D01*
X0334093Y0240503D01*
X0333931Y0240447D01*
X0333767Y0240395D01*
X0333602Y0240348D01*
X0333436Y0240304D01*
X0333269Y0240264D01*
X0333101Y0240229D01*
X0332932Y0240197D01*
X0332762Y0240170D01*
X0332592Y0240147D01*
X0332421Y0240128D01*
X0332250Y0240113D01*
X0332078Y0240102D01*
X0331907Y0240096D01*
X0331735Y0240094D01*
X0331563Y0240096D01*
X0331392Y0240102D01*
X0331220Y0240113D01*
X0331049Y0240128D01*
X0330878Y0240147D01*
X0330708Y0240170D01*
X0330538Y0240197D01*
X0330369Y0240229D01*
X0330201Y0240264D01*
X0330034Y0240304D01*
X0329868Y0240348D01*
X0329703Y0240395D01*
X0329539Y0240447D01*
X0329377Y0240503D01*
X0329216Y0240563D01*
X0329056Y0240627D01*
X0328898Y0240695D01*
X0328742Y0240766D01*
X0328588Y0240841D01*
X0328435Y0240921D01*
X0328285Y0241003D01*
X0328136Y0241090D01*
X0327990Y0241180D01*
X0327846Y0241274D01*
X0327704Y0241371D01*
X0327565Y0241472D01*
X0327428Y0241576D01*
X0327294Y0241683D01*
X0327163Y0241794D01*
X0327034Y0241907D01*
X0326908Y0242024D01*
X0326785Y0242144D01*
X0326665Y0242267D01*
X0326548Y0242393D01*
X0326435Y0242522D01*
X0326324Y0242653D01*
X0326217Y0242787D01*
X0326113Y0242924D01*
X0326012Y0243063D01*
X0325915Y0243205D01*
X0325821Y0243349D01*
X0325731Y0243495D01*
X0325644Y0243644D01*
X0325562Y0243794D01*
X0325482Y0243947D01*
X0325407Y0244101D01*
X0325336Y0244257D01*
X0325268Y0244415D01*
X0325204Y0244575D01*
X0325144Y0244736D01*
X0325088Y0244898D01*
X0325036Y0245062D01*
X0324989Y0245227D01*
X0324945Y0245393D01*
X0324905Y0245560D01*
X0324870Y0245728D01*
X0324838Y0245897D01*
X0324811Y0246067D01*
X0324788Y0246237D01*
X0324769Y0246408D01*
X0324754Y0246579D01*
X0324743Y0246751D01*
X0324737Y0246922D01*
X0324735Y0247094D01*
X0237557Y0247630D02*
X0237557Y0242630D01*
X0235057Y0240130D01*
X0237557Y0237630D01*
X0237557Y0232630D01*
X0235057Y0230130D01*
X0230057Y0230130D01*
X0227557Y0232630D01*
X0227557Y0237630D01*
X0230057Y0240130D01*
X0227557Y0242630D01*
X0227557Y0247630D01*
X0230057Y0250130D01*
X0235057Y0250130D01*
X0237557Y0247630D01*
X0235057Y0240130D02*
X0230057Y0240130D01*
X0230057Y0230130D02*
X0227557Y0227630D01*
X0227557Y0222630D01*
X0230057Y0220130D01*
X0227557Y0217630D01*
X0227557Y0212630D01*
X0230057Y0210130D01*
X0227557Y0207630D01*
X0227557Y0202630D01*
X0230057Y0200130D01*
X0235057Y0200130D01*
X0237557Y0202630D01*
X0237557Y0207630D01*
X0235057Y0210130D01*
X0230057Y0210130D01*
X0235057Y0210130D02*
X0237557Y0212630D01*
X0237557Y0217630D01*
X0235057Y0220130D01*
X0230057Y0220130D01*
X0235057Y0220130D02*
X0237557Y0222630D01*
X0237557Y0227630D01*
X0235057Y0230130D01*
X0208065Y0217959D02*
X0208067Y0218091D01*
X0208073Y0218222D01*
X0208083Y0218353D01*
X0208097Y0218484D01*
X0208115Y0218614D01*
X0208137Y0218744D01*
X0208162Y0218873D01*
X0208192Y0219001D01*
X0208226Y0219129D01*
X0208263Y0219255D01*
X0208304Y0219380D01*
X0208349Y0219503D01*
X0208398Y0219626D01*
X0208451Y0219746D01*
X0208507Y0219865D01*
X0208566Y0219983D01*
X0208629Y0220098D01*
X0208696Y0220211D01*
X0208766Y0220323D01*
X0208840Y0220432D01*
X0208916Y0220539D01*
X0208996Y0220643D01*
X0209079Y0220745D01*
X0209165Y0220845D01*
X0209254Y0220942D01*
X0209346Y0221036D01*
X0209441Y0221127D01*
X0209539Y0221216D01*
X0209639Y0221301D01*
X0209741Y0221383D01*
X0209847Y0221462D01*
X0209954Y0221538D01*
X0210064Y0221611D01*
X0210176Y0221680D01*
X0210290Y0221746D01*
X0210406Y0221808D01*
X0210523Y0221867D01*
X0210643Y0221922D01*
X0210764Y0221973D01*
X0210886Y0222021D01*
X0211010Y0222065D01*
X0211136Y0222106D01*
X0211262Y0222142D01*
X0211390Y0222175D01*
X0211518Y0222203D01*
X0211647Y0222228D01*
X0211777Y0222249D01*
X0211908Y0222266D01*
X0212039Y0222279D01*
X0212170Y0222288D01*
X0212301Y0222293D01*
X0212433Y0222294D01*
X0212564Y0222291D01*
X0212696Y0222284D01*
X0212827Y0222273D01*
X0212958Y0222258D01*
X0213088Y0222239D01*
X0213217Y0222216D01*
X0213346Y0222189D01*
X0213474Y0222159D01*
X0213601Y0222124D01*
X0213727Y0222086D01*
X0213852Y0222044D01*
X0213975Y0221998D01*
X0214097Y0221948D01*
X0214217Y0221895D01*
X0214336Y0221838D01*
X0214453Y0221777D01*
X0214567Y0221713D01*
X0214680Y0221646D01*
X0214791Y0221575D01*
X0214900Y0221501D01*
X0215006Y0221423D01*
X0215110Y0221342D01*
X0215212Y0221259D01*
X0215310Y0221172D01*
X0215407Y0221082D01*
X0215500Y0220989D01*
X0215591Y0220894D01*
X0215678Y0220796D01*
X0215763Y0220695D01*
X0215844Y0220591D01*
X0215922Y0220486D01*
X0215998Y0220378D01*
X0216069Y0220267D01*
X0216138Y0220155D01*
X0216203Y0220040D01*
X0216264Y0219924D01*
X0216322Y0219806D01*
X0216376Y0219686D01*
X0216427Y0219565D01*
X0216474Y0219442D01*
X0216517Y0219317D01*
X0216556Y0219192D01*
X0216592Y0219065D01*
X0216623Y0218937D01*
X0216651Y0218809D01*
X0216675Y0218679D01*
X0216695Y0218549D01*
X0216711Y0218419D01*
X0216723Y0218288D01*
X0216731Y0218156D01*
X0216735Y0218025D01*
X0216735Y0217893D01*
X0216731Y0217762D01*
X0216723Y0217630D01*
X0216711Y0217499D01*
X0216695Y0217369D01*
X0216675Y0217239D01*
X0216651Y0217109D01*
X0216623Y0216981D01*
X0216592Y0216853D01*
X0216556Y0216726D01*
X0216517Y0216601D01*
X0216474Y0216476D01*
X0216427Y0216353D01*
X0216376Y0216232D01*
X0216322Y0216112D01*
X0216264Y0215994D01*
X0216203Y0215878D01*
X0216138Y0215763D01*
X0216069Y0215651D01*
X0215998Y0215540D01*
X0215922Y0215432D01*
X0215844Y0215327D01*
X0215763Y0215223D01*
X0215678Y0215122D01*
X0215591Y0215024D01*
X0215500Y0214929D01*
X0215407Y0214836D01*
X0215310Y0214746D01*
X0215212Y0214659D01*
X0215110Y0214576D01*
X0215006Y0214495D01*
X0214900Y0214417D01*
X0214791Y0214343D01*
X0214680Y0214272D01*
X0214568Y0214205D01*
X0214453Y0214141D01*
X0214336Y0214080D01*
X0214217Y0214023D01*
X0214097Y0213970D01*
X0213975Y0213920D01*
X0213852Y0213874D01*
X0213727Y0213832D01*
X0213601Y0213794D01*
X0213474Y0213759D01*
X0213346Y0213729D01*
X0213217Y0213702D01*
X0213088Y0213679D01*
X0212958Y0213660D01*
X0212827Y0213645D01*
X0212696Y0213634D01*
X0212564Y0213627D01*
X0212433Y0213624D01*
X0212301Y0213625D01*
X0212170Y0213630D01*
X0212039Y0213639D01*
X0211908Y0213652D01*
X0211777Y0213669D01*
X0211647Y0213690D01*
X0211518Y0213715D01*
X0211390Y0213743D01*
X0211262Y0213776D01*
X0211136Y0213812D01*
X0211010Y0213853D01*
X0210886Y0213897D01*
X0210764Y0213945D01*
X0210643Y0213996D01*
X0210523Y0214051D01*
X0210406Y0214110D01*
X0210290Y0214172D01*
X0210176Y0214238D01*
X0210064Y0214307D01*
X0209954Y0214380D01*
X0209847Y0214456D01*
X0209741Y0214535D01*
X0209639Y0214617D01*
X0209539Y0214702D01*
X0209441Y0214791D01*
X0209346Y0214882D01*
X0209254Y0214976D01*
X0209165Y0215073D01*
X0209079Y0215173D01*
X0208996Y0215275D01*
X0208916Y0215379D01*
X0208840Y0215486D01*
X0208766Y0215595D01*
X0208696Y0215707D01*
X0208629Y0215820D01*
X0208566Y0215935D01*
X0208507Y0216053D01*
X0208451Y0216172D01*
X0208398Y0216292D01*
X0208349Y0216415D01*
X0208304Y0216538D01*
X0208263Y0216663D01*
X0208226Y0216789D01*
X0208192Y0216917D01*
X0208162Y0217045D01*
X0208137Y0217174D01*
X0208115Y0217304D01*
X0208097Y0217434D01*
X0208083Y0217565D01*
X0208073Y0217696D01*
X0208067Y0217827D01*
X0208065Y0217959D01*
X0227557Y0197630D02*
X0230057Y0200130D01*
X0227557Y0197630D02*
X0227557Y0192630D01*
X0230057Y0190130D01*
X0227557Y0187630D01*
X0227557Y0182630D01*
X0230057Y0180130D01*
X0227557Y0177630D01*
X0227557Y0172630D01*
X0230057Y0170130D01*
X0235057Y0170130D01*
X0237557Y0172630D01*
X0237557Y0177630D01*
X0235057Y0180130D01*
X0230057Y0180130D01*
X0235057Y0180130D02*
X0237557Y0182630D01*
X0237557Y0187630D01*
X0235057Y0190130D01*
X0230057Y0190130D01*
X0235057Y0190130D02*
X0237557Y0192630D01*
X0237557Y0197630D01*
X0235057Y0200130D01*
X0206071Y0176608D02*
X0206073Y0176740D01*
X0206079Y0176871D01*
X0206089Y0177002D01*
X0206103Y0177133D01*
X0206121Y0177263D01*
X0206143Y0177393D01*
X0206168Y0177522D01*
X0206198Y0177650D01*
X0206232Y0177778D01*
X0206269Y0177904D01*
X0206310Y0178029D01*
X0206355Y0178152D01*
X0206404Y0178275D01*
X0206457Y0178395D01*
X0206513Y0178514D01*
X0206572Y0178632D01*
X0206635Y0178747D01*
X0206702Y0178860D01*
X0206772Y0178972D01*
X0206846Y0179081D01*
X0206922Y0179188D01*
X0207002Y0179292D01*
X0207085Y0179394D01*
X0207171Y0179494D01*
X0207260Y0179591D01*
X0207352Y0179685D01*
X0207447Y0179776D01*
X0207545Y0179865D01*
X0207645Y0179950D01*
X0207747Y0180032D01*
X0207853Y0180111D01*
X0207960Y0180187D01*
X0208070Y0180260D01*
X0208182Y0180329D01*
X0208296Y0180395D01*
X0208412Y0180457D01*
X0208529Y0180516D01*
X0208649Y0180571D01*
X0208770Y0180622D01*
X0208892Y0180670D01*
X0209016Y0180714D01*
X0209142Y0180755D01*
X0209268Y0180791D01*
X0209396Y0180824D01*
X0209524Y0180852D01*
X0209653Y0180877D01*
X0209783Y0180898D01*
X0209914Y0180915D01*
X0210045Y0180928D01*
X0210176Y0180937D01*
X0210307Y0180942D01*
X0210439Y0180943D01*
X0210570Y0180940D01*
X0210702Y0180933D01*
X0210833Y0180922D01*
X0210964Y0180907D01*
X0211094Y0180888D01*
X0211223Y0180865D01*
X0211352Y0180838D01*
X0211480Y0180808D01*
X0211607Y0180773D01*
X0211733Y0180735D01*
X0211858Y0180693D01*
X0211981Y0180647D01*
X0212103Y0180597D01*
X0212223Y0180544D01*
X0212342Y0180487D01*
X0212459Y0180426D01*
X0212573Y0180362D01*
X0212686Y0180295D01*
X0212797Y0180224D01*
X0212906Y0180150D01*
X0213012Y0180072D01*
X0213116Y0179991D01*
X0213218Y0179908D01*
X0213316Y0179821D01*
X0213413Y0179731D01*
X0213506Y0179638D01*
X0213597Y0179543D01*
X0213684Y0179445D01*
X0213769Y0179344D01*
X0213850Y0179240D01*
X0213928Y0179135D01*
X0214004Y0179027D01*
X0214075Y0178916D01*
X0214144Y0178804D01*
X0214209Y0178689D01*
X0214270Y0178573D01*
X0214328Y0178455D01*
X0214382Y0178335D01*
X0214433Y0178214D01*
X0214480Y0178091D01*
X0214523Y0177966D01*
X0214562Y0177841D01*
X0214598Y0177714D01*
X0214629Y0177586D01*
X0214657Y0177458D01*
X0214681Y0177328D01*
X0214701Y0177198D01*
X0214717Y0177068D01*
X0214729Y0176937D01*
X0214737Y0176805D01*
X0214741Y0176674D01*
X0214741Y0176542D01*
X0214737Y0176411D01*
X0214729Y0176279D01*
X0214717Y0176148D01*
X0214701Y0176018D01*
X0214681Y0175888D01*
X0214657Y0175758D01*
X0214629Y0175630D01*
X0214598Y0175502D01*
X0214562Y0175375D01*
X0214523Y0175250D01*
X0214480Y0175125D01*
X0214433Y0175002D01*
X0214382Y0174881D01*
X0214328Y0174761D01*
X0214270Y0174643D01*
X0214209Y0174527D01*
X0214144Y0174412D01*
X0214075Y0174300D01*
X0214004Y0174189D01*
X0213928Y0174081D01*
X0213850Y0173976D01*
X0213769Y0173872D01*
X0213684Y0173771D01*
X0213597Y0173673D01*
X0213506Y0173578D01*
X0213413Y0173485D01*
X0213316Y0173395D01*
X0213218Y0173308D01*
X0213116Y0173225D01*
X0213012Y0173144D01*
X0212906Y0173066D01*
X0212797Y0172992D01*
X0212686Y0172921D01*
X0212574Y0172854D01*
X0212459Y0172790D01*
X0212342Y0172729D01*
X0212223Y0172672D01*
X0212103Y0172619D01*
X0211981Y0172569D01*
X0211858Y0172523D01*
X0211733Y0172481D01*
X0211607Y0172443D01*
X0211480Y0172408D01*
X0211352Y0172378D01*
X0211223Y0172351D01*
X0211094Y0172328D01*
X0210964Y0172309D01*
X0210833Y0172294D01*
X0210702Y0172283D01*
X0210570Y0172276D01*
X0210439Y0172273D01*
X0210307Y0172274D01*
X0210176Y0172279D01*
X0210045Y0172288D01*
X0209914Y0172301D01*
X0209783Y0172318D01*
X0209653Y0172339D01*
X0209524Y0172364D01*
X0209396Y0172392D01*
X0209268Y0172425D01*
X0209142Y0172461D01*
X0209016Y0172502D01*
X0208892Y0172546D01*
X0208770Y0172594D01*
X0208649Y0172645D01*
X0208529Y0172700D01*
X0208412Y0172759D01*
X0208296Y0172821D01*
X0208182Y0172887D01*
X0208070Y0172956D01*
X0207960Y0173029D01*
X0207853Y0173105D01*
X0207747Y0173184D01*
X0207645Y0173266D01*
X0207545Y0173351D01*
X0207447Y0173440D01*
X0207352Y0173531D01*
X0207260Y0173625D01*
X0207171Y0173722D01*
X0207085Y0173822D01*
X0207002Y0173924D01*
X0206922Y0174028D01*
X0206846Y0174135D01*
X0206772Y0174244D01*
X0206702Y0174356D01*
X0206635Y0174469D01*
X0206572Y0174584D01*
X0206513Y0174702D01*
X0206457Y0174821D01*
X0206404Y0174941D01*
X0206355Y0175064D01*
X0206310Y0175187D01*
X0206269Y0175312D01*
X0206232Y0175438D01*
X0206198Y0175566D01*
X0206168Y0175694D01*
X0206143Y0175823D01*
X0206121Y0175953D01*
X0206103Y0176083D01*
X0206089Y0176214D01*
X0206079Y0176345D01*
X0206073Y0176476D01*
X0206071Y0176608D01*
X0097007Y0198599D02*
X0097007Y0249099D01*
X0087007Y0259099D01*
X0036507Y0259099D01*
X0036409Y0259097D01*
X0036311Y0259091D01*
X0036213Y0259082D01*
X0036116Y0259068D01*
X0036019Y0259051D01*
X0035923Y0259030D01*
X0035828Y0259005D01*
X0035734Y0258977D01*
X0035642Y0258944D01*
X0035550Y0258909D01*
X0035460Y0258869D01*
X0035372Y0258827D01*
X0035285Y0258780D01*
X0035201Y0258731D01*
X0035118Y0258678D01*
X0035038Y0258622D01*
X0034959Y0258562D01*
X0034883Y0258500D01*
X0034810Y0258435D01*
X0034739Y0258367D01*
X0034671Y0258296D01*
X0034606Y0258223D01*
X0034544Y0258147D01*
X0034484Y0258068D01*
X0034428Y0257988D01*
X0034375Y0257905D01*
X0034326Y0257821D01*
X0034279Y0257734D01*
X0034237Y0257646D01*
X0034197Y0257556D01*
X0034162Y0257464D01*
X0034129Y0257372D01*
X0034101Y0257278D01*
X0034076Y0257183D01*
X0034055Y0257087D01*
X0034038Y0256990D01*
X0034024Y0256893D01*
X0034015Y0256795D01*
X0034009Y0256697D01*
X0034007Y0256599D01*
X0034007Y0198599D01*
X0034009Y0198501D01*
X0034015Y0198403D01*
X0034024Y0198305D01*
X0034038Y0198208D01*
X0034055Y0198111D01*
X0034076Y0198015D01*
X0034101Y0197920D01*
X0034129Y0197826D01*
X0034162Y0197734D01*
X0034197Y0197642D01*
X0034237Y0197552D01*
X0034279Y0197464D01*
X0034326Y0197377D01*
X0034375Y0197293D01*
X0034428Y0197210D01*
X0034484Y0197130D01*
X0034544Y0197051D01*
X0034606Y0196975D01*
X0034671Y0196902D01*
X0034739Y0196831D01*
X0034810Y0196763D01*
X0034883Y0196698D01*
X0034959Y0196636D01*
X0035038Y0196576D01*
X0035118Y0196520D01*
X0035201Y0196467D01*
X0035285Y0196418D01*
X0035372Y0196371D01*
X0035460Y0196329D01*
X0035550Y0196289D01*
X0035642Y0196254D01*
X0035734Y0196221D01*
X0035828Y0196193D01*
X0035923Y0196168D01*
X0036019Y0196147D01*
X0036116Y0196130D01*
X0036213Y0196116D01*
X0036311Y0196107D01*
X0036409Y0196101D01*
X0036507Y0196099D01*
X0094507Y0196099D01*
X0094605Y0196101D01*
X0094703Y0196107D01*
X0094801Y0196116D01*
X0094898Y0196130D01*
X0094995Y0196147D01*
X0095091Y0196168D01*
X0095186Y0196193D01*
X0095280Y0196221D01*
X0095372Y0196254D01*
X0095464Y0196289D01*
X0095554Y0196329D01*
X0095642Y0196371D01*
X0095729Y0196418D01*
X0095813Y0196467D01*
X0095896Y0196520D01*
X0095976Y0196576D01*
X0096055Y0196636D01*
X0096131Y0196698D01*
X0096204Y0196763D01*
X0096275Y0196831D01*
X0096343Y0196902D01*
X0096408Y0196975D01*
X0096470Y0197051D01*
X0096530Y0197130D01*
X0096586Y0197210D01*
X0096639Y0197293D01*
X0096688Y0197377D01*
X0096735Y0197464D01*
X0096777Y0197552D01*
X0096817Y0197642D01*
X0096852Y0197734D01*
X0096885Y0197826D01*
X0096913Y0197920D01*
X0096938Y0198015D01*
X0096959Y0198111D01*
X0096976Y0198208D01*
X0096990Y0198305D01*
X0096999Y0198403D01*
X0097005Y0198501D01*
X0097007Y0198599D01*
X0080507Y0205099D02*
X0080505Y0205001D01*
X0080499Y0204903D01*
X0080490Y0204805D01*
X0080476Y0204708D01*
X0080459Y0204611D01*
X0080438Y0204515D01*
X0080413Y0204420D01*
X0080385Y0204326D01*
X0080352Y0204234D01*
X0080317Y0204142D01*
X0080277Y0204052D01*
X0080235Y0203964D01*
X0080188Y0203877D01*
X0080139Y0203793D01*
X0080086Y0203710D01*
X0080030Y0203630D01*
X0079970Y0203551D01*
X0079908Y0203475D01*
X0079843Y0203402D01*
X0079775Y0203331D01*
X0079704Y0203263D01*
X0079631Y0203198D01*
X0079555Y0203136D01*
X0079476Y0203076D01*
X0079396Y0203020D01*
X0079313Y0202967D01*
X0079229Y0202918D01*
X0079142Y0202871D01*
X0079054Y0202829D01*
X0078964Y0202789D01*
X0078872Y0202754D01*
X0078780Y0202721D01*
X0078686Y0202693D01*
X0078591Y0202668D01*
X0078495Y0202647D01*
X0078398Y0202630D01*
X0078301Y0202616D01*
X0078203Y0202607D01*
X0078105Y0202601D01*
X0078007Y0202599D01*
X0077909Y0202601D01*
X0077811Y0202607D01*
X0077713Y0202616D01*
X0077616Y0202630D01*
X0077519Y0202647D01*
X0077423Y0202668D01*
X0077328Y0202693D01*
X0077234Y0202721D01*
X0077142Y0202754D01*
X0077050Y0202789D01*
X0076960Y0202829D01*
X0076872Y0202871D01*
X0076785Y0202918D01*
X0076701Y0202967D01*
X0076618Y0203020D01*
X0076538Y0203076D01*
X0076459Y0203136D01*
X0076383Y0203198D01*
X0076310Y0203263D01*
X0076239Y0203331D01*
X0076171Y0203402D01*
X0076106Y0203475D01*
X0076044Y0203551D01*
X0075984Y0203630D01*
X0075928Y0203710D01*
X0075875Y0203793D01*
X0075826Y0203877D01*
X0075779Y0203964D01*
X0075737Y0204052D01*
X0075697Y0204142D01*
X0075662Y0204234D01*
X0075629Y0204326D01*
X0075601Y0204420D01*
X0075576Y0204515D01*
X0075555Y0204611D01*
X0075538Y0204708D01*
X0075524Y0204805D01*
X0075515Y0204903D01*
X0075509Y0205001D01*
X0075507Y0205099D01*
X0075505Y0205197D01*
X0075499Y0205295D01*
X0075490Y0205393D01*
X0075476Y0205490D01*
X0075459Y0205587D01*
X0075438Y0205683D01*
X0075413Y0205778D01*
X0075385Y0205872D01*
X0075352Y0205964D01*
X0075317Y0206056D01*
X0075277Y0206146D01*
X0075235Y0206234D01*
X0075188Y0206321D01*
X0075139Y0206405D01*
X0075086Y0206488D01*
X0075030Y0206568D01*
X0074970Y0206647D01*
X0074908Y0206723D01*
X0074843Y0206796D01*
X0074775Y0206867D01*
X0074704Y0206935D01*
X0074631Y0207000D01*
X0074555Y0207062D01*
X0074476Y0207122D01*
X0074396Y0207178D01*
X0074313Y0207231D01*
X0074229Y0207280D01*
X0074142Y0207327D01*
X0074054Y0207369D01*
X0073964Y0207409D01*
X0073872Y0207444D01*
X0073780Y0207477D01*
X0073686Y0207505D01*
X0073591Y0207530D01*
X0073495Y0207551D01*
X0073398Y0207568D01*
X0073301Y0207582D01*
X0073203Y0207591D01*
X0073105Y0207597D01*
X0073007Y0207599D01*
X0072909Y0207597D01*
X0072811Y0207591D01*
X0072713Y0207582D01*
X0072616Y0207568D01*
X0072519Y0207551D01*
X0072423Y0207530D01*
X0072328Y0207505D01*
X0072234Y0207477D01*
X0072142Y0207444D01*
X0072050Y0207409D01*
X0071960Y0207369D01*
X0071872Y0207327D01*
X0071785Y0207280D01*
X0071701Y0207231D01*
X0071618Y0207178D01*
X0071538Y0207122D01*
X0071459Y0207062D01*
X0071383Y0207000D01*
X0071310Y0206935D01*
X0071239Y0206867D01*
X0071171Y0206796D01*
X0071106Y0206723D01*
X0071044Y0206647D01*
X0070984Y0206568D01*
X0070928Y0206488D01*
X0070875Y0206405D01*
X0070826Y0206321D01*
X0070779Y0206234D01*
X0070737Y0206146D01*
X0070697Y0206056D01*
X0070662Y0205964D01*
X0070629Y0205872D01*
X0070601Y0205778D01*
X0070576Y0205683D01*
X0070555Y0205587D01*
X0070538Y0205490D01*
X0070524Y0205393D01*
X0070515Y0205295D01*
X0070509Y0205197D01*
X0070507Y0205099D01*
X0060507Y0205099D02*
X0050507Y0205099D01*
X0024444Y0226162D02*
X0021944Y0223662D01*
X0016944Y0223662D01*
X0014444Y0226162D01*
X0014444Y0231162D01*
X0016944Y0233662D01*
X0014444Y0236162D01*
X0014444Y0241162D01*
X0016944Y0243662D01*
X0021944Y0243662D01*
X0024444Y0241162D01*
X0024444Y0236162D01*
X0021944Y0233662D01*
X0024444Y0231162D01*
X0024444Y0226162D01*
X0021944Y0233662D02*
X0016944Y0233662D01*
X0050507Y0247599D02*
X0050509Y0247697D01*
X0050515Y0247795D01*
X0050524Y0247893D01*
X0050538Y0247990D01*
X0050555Y0248087D01*
X0050576Y0248183D01*
X0050601Y0248278D01*
X0050629Y0248372D01*
X0050662Y0248464D01*
X0050697Y0248556D01*
X0050737Y0248646D01*
X0050779Y0248734D01*
X0050826Y0248821D01*
X0050875Y0248905D01*
X0050928Y0248988D01*
X0050984Y0249068D01*
X0051044Y0249147D01*
X0051106Y0249223D01*
X0051171Y0249296D01*
X0051239Y0249367D01*
X0051310Y0249435D01*
X0051383Y0249500D01*
X0051459Y0249562D01*
X0051538Y0249622D01*
X0051618Y0249678D01*
X0051701Y0249731D01*
X0051785Y0249780D01*
X0051872Y0249827D01*
X0051960Y0249869D01*
X0052050Y0249909D01*
X0052142Y0249944D01*
X0052234Y0249977D01*
X0052328Y0250005D01*
X0052423Y0250030D01*
X0052519Y0250051D01*
X0052616Y0250068D01*
X0052713Y0250082D01*
X0052811Y0250091D01*
X0052909Y0250097D01*
X0053007Y0250099D01*
X0053105Y0250097D01*
X0053203Y0250091D01*
X0053301Y0250082D01*
X0053398Y0250068D01*
X0053495Y0250051D01*
X0053591Y0250030D01*
X0053686Y0250005D01*
X0053780Y0249977D01*
X0053872Y0249944D01*
X0053964Y0249909D01*
X0054054Y0249869D01*
X0054142Y0249827D01*
X0054229Y0249780D01*
X0054313Y0249731D01*
X0054396Y0249678D01*
X0054476Y0249622D01*
X0054555Y0249562D01*
X0054631Y0249500D01*
X0054704Y0249435D01*
X0054775Y0249367D01*
X0054843Y0249296D01*
X0054908Y0249223D01*
X0054970Y0249147D01*
X0055030Y0249068D01*
X0055086Y0248988D01*
X0055139Y0248905D01*
X0055188Y0248821D01*
X0055235Y0248734D01*
X0055277Y0248646D01*
X0055317Y0248556D01*
X0055352Y0248464D01*
X0055385Y0248372D01*
X0055413Y0248278D01*
X0055438Y0248183D01*
X0055459Y0248087D01*
X0055476Y0247990D01*
X0055490Y0247893D01*
X0055499Y0247795D01*
X0055505Y0247697D01*
X0055507Y0247599D01*
X0055509Y0247501D01*
X0055515Y0247403D01*
X0055524Y0247305D01*
X0055538Y0247208D01*
X0055555Y0247111D01*
X0055576Y0247015D01*
X0055601Y0246920D01*
X0055629Y0246826D01*
X0055662Y0246734D01*
X0055697Y0246642D01*
X0055737Y0246552D01*
X0055779Y0246464D01*
X0055826Y0246377D01*
X0055875Y0246293D01*
X0055928Y0246210D01*
X0055984Y0246130D01*
X0056044Y0246051D01*
X0056106Y0245975D01*
X0056171Y0245902D01*
X0056239Y0245831D01*
X0056310Y0245763D01*
X0056383Y0245698D01*
X0056459Y0245636D01*
X0056538Y0245576D01*
X0056618Y0245520D01*
X0056701Y0245467D01*
X0056785Y0245418D01*
X0056872Y0245371D01*
X0056960Y0245329D01*
X0057050Y0245289D01*
X0057142Y0245254D01*
X0057234Y0245221D01*
X0057328Y0245193D01*
X0057423Y0245168D01*
X0057519Y0245147D01*
X0057616Y0245130D01*
X0057713Y0245116D01*
X0057811Y0245107D01*
X0057909Y0245101D01*
X0058007Y0245099D01*
X0058105Y0245101D01*
X0058203Y0245107D01*
X0058301Y0245116D01*
X0058398Y0245130D01*
X0058495Y0245147D01*
X0058591Y0245168D01*
X0058686Y0245193D01*
X0058780Y0245221D01*
X0058872Y0245254D01*
X0058964Y0245289D01*
X0059054Y0245329D01*
X0059142Y0245371D01*
X0059229Y0245418D01*
X0059313Y0245467D01*
X0059396Y0245520D01*
X0059476Y0245576D01*
X0059555Y0245636D01*
X0059631Y0245698D01*
X0059704Y0245763D01*
X0059775Y0245831D01*
X0059843Y0245902D01*
X0059908Y0245975D01*
X0059970Y0246051D01*
X0060030Y0246130D01*
X0060086Y0246210D01*
X0060139Y0246293D01*
X0060188Y0246377D01*
X0060235Y0246464D01*
X0060277Y0246552D01*
X0060317Y0246642D01*
X0060352Y0246734D01*
X0060385Y0246826D01*
X0060413Y0246920D01*
X0060438Y0247015D01*
X0060459Y0247111D01*
X0060476Y0247208D01*
X0060490Y0247305D01*
X0060499Y0247403D01*
X0060505Y0247501D01*
X0060507Y0247599D01*
X0070507Y0247599D02*
X0080507Y0247599D01*
X0075507Y0252599D02*
X0075507Y0242599D01*
X0058007Y0227599D02*
X0058009Y0227783D01*
X0058016Y0227967D01*
X0058027Y0228151D01*
X0058043Y0228334D01*
X0058063Y0228517D01*
X0058088Y0228699D01*
X0058117Y0228881D01*
X0058151Y0229062D01*
X0058189Y0229242D01*
X0058232Y0229421D01*
X0058279Y0229599D01*
X0058330Y0229776D01*
X0058386Y0229952D01*
X0058445Y0230126D01*
X0058510Y0230298D01*
X0058578Y0230469D01*
X0058650Y0230638D01*
X0058727Y0230806D01*
X0058808Y0230971D01*
X0058893Y0231134D01*
X0058981Y0231296D01*
X0059074Y0231455D01*
X0059171Y0231611D01*
X0059271Y0231766D01*
X0059375Y0231918D01*
X0059483Y0232067D01*
X0059594Y0232213D01*
X0059709Y0232357D01*
X0059828Y0232498D01*
X0059950Y0232636D01*
X0060075Y0232771D01*
X0060204Y0232902D01*
X0060335Y0233031D01*
X0060470Y0233156D01*
X0060608Y0233278D01*
X0060749Y0233397D01*
X0060893Y0233512D01*
X0061039Y0233623D01*
X0061188Y0233731D01*
X0061340Y0233835D01*
X0061495Y0233935D01*
X0061651Y0234032D01*
X0061810Y0234125D01*
X0061972Y0234213D01*
X0062135Y0234298D01*
X0062300Y0234379D01*
X0062468Y0234456D01*
X0062637Y0234528D01*
X0062808Y0234596D01*
X0062980Y0234661D01*
X0063154Y0234720D01*
X0063330Y0234776D01*
X0063507Y0234827D01*
X0063685Y0234874D01*
X0063864Y0234917D01*
X0064044Y0234955D01*
X0064225Y0234989D01*
X0064407Y0235018D01*
X0064589Y0235043D01*
X0064772Y0235063D01*
X0064955Y0235079D01*
X0065139Y0235090D01*
X0065323Y0235097D01*
X0065507Y0235099D01*
X0065691Y0235097D01*
X0065875Y0235090D01*
X0066059Y0235079D01*
X0066242Y0235063D01*
X0066425Y0235043D01*
X0066607Y0235018D01*
X0066789Y0234989D01*
X0066970Y0234955D01*
X0067150Y0234917D01*
X0067329Y0234874D01*
X0067507Y0234827D01*
X0067684Y0234776D01*
X0067860Y0234720D01*
X0068034Y0234661D01*
X0068206Y0234596D01*
X0068377Y0234528D01*
X0068546Y0234456D01*
X0068714Y0234379D01*
X0068879Y0234298D01*
X0069042Y0234213D01*
X0069204Y0234125D01*
X0069363Y0234032D01*
X0069519Y0233935D01*
X0069674Y0233835D01*
X0069826Y0233731D01*
X0069975Y0233623D01*
X0070121Y0233512D01*
X0070265Y0233397D01*
X0070406Y0233278D01*
X0070544Y0233156D01*
X0070679Y0233031D01*
X0070810Y0232902D01*
X0070939Y0232771D01*
X0071064Y0232636D01*
X0071186Y0232498D01*
X0071305Y0232357D01*
X0071420Y0232213D01*
X0071531Y0232067D01*
X0071639Y0231918D01*
X0071743Y0231766D01*
X0071843Y0231611D01*
X0071940Y0231455D01*
X0072033Y0231296D01*
X0072121Y0231134D01*
X0072206Y0230971D01*
X0072287Y0230806D01*
X0072364Y0230638D01*
X0072436Y0230469D01*
X0072504Y0230298D01*
X0072569Y0230126D01*
X0072628Y0229952D01*
X0072684Y0229776D01*
X0072735Y0229599D01*
X0072782Y0229421D01*
X0072825Y0229242D01*
X0072863Y0229062D01*
X0072897Y0228881D01*
X0072926Y0228699D01*
X0072951Y0228517D01*
X0072971Y0228334D01*
X0072987Y0228151D01*
X0072998Y0227967D01*
X0073005Y0227783D01*
X0073007Y0227599D01*
X0073005Y0227415D01*
X0072998Y0227231D01*
X0072987Y0227047D01*
X0072971Y0226864D01*
X0072951Y0226681D01*
X0072926Y0226499D01*
X0072897Y0226317D01*
X0072863Y0226136D01*
X0072825Y0225956D01*
X0072782Y0225777D01*
X0072735Y0225599D01*
X0072684Y0225422D01*
X0072628Y0225246D01*
X0072569Y0225072D01*
X0072504Y0224900D01*
X0072436Y0224729D01*
X0072364Y0224560D01*
X0072287Y0224392D01*
X0072206Y0224227D01*
X0072121Y0224064D01*
X0072033Y0223902D01*
X0071940Y0223743D01*
X0071843Y0223587D01*
X0071743Y0223432D01*
X0071639Y0223280D01*
X0071531Y0223131D01*
X0071420Y0222985D01*
X0071305Y0222841D01*
X0071186Y0222700D01*
X0071064Y0222562D01*
X0070939Y0222427D01*
X0070810Y0222296D01*
X0070679Y0222167D01*
X0070544Y0222042D01*
X0070406Y0221920D01*
X0070265Y0221801D01*
X0070121Y0221686D01*
X0069975Y0221575D01*
X0069826Y0221467D01*
X0069674Y0221363D01*
X0069519Y0221263D01*
X0069363Y0221166D01*
X0069204Y0221073D01*
X0069042Y0220985D01*
X0068879Y0220900D01*
X0068714Y0220819D01*
X0068546Y0220742D01*
X0068377Y0220670D01*
X0068206Y0220602D01*
X0068034Y0220537D01*
X0067860Y0220478D01*
X0067684Y0220422D01*
X0067507Y0220371D01*
X0067329Y0220324D01*
X0067150Y0220281D01*
X0066970Y0220243D01*
X0066789Y0220209D01*
X0066607Y0220180D01*
X0066425Y0220155D01*
X0066242Y0220135D01*
X0066059Y0220119D01*
X0065875Y0220108D01*
X0065691Y0220101D01*
X0065507Y0220099D01*
X0065323Y0220101D01*
X0065139Y0220108D01*
X0064955Y0220119D01*
X0064772Y0220135D01*
X0064589Y0220155D01*
X0064407Y0220180D01*
X0064225Y0220209D01*
X0064044Y0220243D01*
X0063864Y0220281D01*
X0063685Y0220324D01*
X0063507Y0220371D01*
X0063330Y0220422D01*
X0063154Y0220478D01*
X0062980Y0220537D01*
X0062808Y0220602D01*
X0062637Y0220670D01*
X0062468Y0220742D01*
X0062300Y0220819D01*
X0062135Y0220900D01*
X0061972Y0220985D01*
X0061810Y0221073D01*
X0061651Y0221166D01*
X0061495Y0221263D01*
X0061340Y0221363D01*
X0061188Y0221467D01*
X0061039Y0221575D01*
X0060893Y0221686D01*
X0060749Y0221801D01*
X0060608Y0221920D01*
X0060470Y0222042D01*
X0060335Y0222167D01*
X0060204Y0222296D01*
X0060075Y0222427D01*
X0059950Y0222562D01*
X0059828Y0222700D01*
X0059709Y0222841D01*
X0059594Y0222985D01*
X0059483Y0223131D01*
X0059375Y0223280D01*
X0059271Y0223432D01*
X0059171Y0223587D01*
X0059074Y0223743D01*
X0058981Y0223902D01*
X0058893Y0224064D01*
X0058808Y0224227D01*
X0058727Y0224392D01*
X0058650Y0224560D01*
X0058578Y0224729D01*
X0058510Y0224900D01*
X0058445Y0225072D01*
X0058386Y0225246D01*
X0058330Y0225422D01*
X0058279Y0225599D01*
X0058232Y0225777D01*
X0058189Y0225956D01*
X0058151Y0226136D01*
X0058117Y0226317D01*
X0058088Y0226499D01*
X0058063Y0226681D01*
X0058043Y0226864D01*
X0058027Y0227047D01*
X0058016Y0227231D01*
X0058009Y0227415D01*
X0058007Y0227599D01*
X0298064Y0024175D02*
X0300564Y0026675D01*
X0305564Y0026675D01*
X0308064Y0024175D01*
X0310564Y0026675D01*
X0315564Y0026675D01*
X0318064Y0024175D01*
X0318064Y0019175D01*
X0315564Y0016675D01*
X0310564Y0016675D01*
X0308064Y0019175D01*
X0305564Y0016675D01*
X0300564Y0016675D01*
X0298064Y0019175D01*
X0298064Y0024175D01*
X0308064Y0024175D02*
X0308064Y0019175D01*
X0333231Y0054455D02*
X0330731Y0056955D01*
X0330731Y0061955D01*
X0333231Y0064455D01*
X0330731Y0066955D01*
X0330731Y0071955D01*
X0333231Y0074455D01*
X0338231Y0074455D01*
X0340731Y0071955D01*
X0340731Y0066955D01*
X0338231Y0064455D01*
X0340731Y0061955D01*
X0340731Y0056955D01*
X0338231Y0054455D01*
X0333231Y0054455D01*
X0333231Y0064455D02*
X0338231Y0064455D01*
D11*
X0197333Y0106727D03*
D12*
X0191083Y0106727D03*
X0216583Y0106727D03*
D13*
X0219264Y0148262D02*
X0201547Y0148262D01*
X0201547Y0184876D01*
X0219264Y0184876D01*
X0219264Y0148262D01*
X0221258Y0209691D02*
X0203542Y0209691D01*
X0203542Y0246306D01*
X0221258Y0246306D01*
X0221258Y0209691D01*
X0100865Y0138406D02*
X0100865Y0120689D01*
X0064251Y0120689D01*
X0064251Y0138406D01*
X0100865Y0138406D01*
D14*
X0151874Y0163609D03*
X0047396Y0163609D03*
D15*
X0106838Y0231906D02*
X0106838Y0235906D01*
X0104838Y0235906D01*
X0104838Y0255906D01*
X0106838Y0255906D01*
X0106838Y0259906D01*
X0118838Y0259906D01*
X0118838Y0255906D01*
X0118838Y0254906D01*
X0106838Y0254906D01*
X0106838Y0255906D01*
X0118838Y0255906D02*
X0120838Y0255906D01*
X0168838Y0255906D01*
X0170838Y0255906D01*
X0170838Y0259906D01*
X0182838Y0259906D01*
X0182838Y0255906D01*
X0184838Y0255906D01*
X0184838Y0235906D01*
X0182838Y0235906D01*
X0182838Y0231906D01*
X0170838Y0231906D01*
X0170838Y0235906D01*
X0170838Y0236906D01*
X0182838Y0236906D01*
X0182838Y0235906D01*
X0170838Y0235906D02*
X0168838Y0235906D01*
X0120838Y0235906D01*
X0118838Y0235906D01*
X0118838Y0231906D01*
X0106838Y0231906D01*
X0105838Y0233906D02*
X0102838Y0233906D01*
X0102838Y0238906D01*
X0106838Y0236906D02*
X0106838Y0235906D01*
X0106838Y0236906D02*
X0118838Y0236906D01*
X0118838Y0235906D01*
X0120838Y0235906D02*
X0120838Y0255906D01*
X0168838Y0255906D02*
X0168838Y0235906D01*
X0186838Y0252906D02*
X0186838Y0257906D01*
X0183838Y0257906D01*
X0182838Y0255906D02*
X0182838Y0254906D01*
X0170838Y0254906D01*
X0170838Y0255906D01*
D16*
X0312297Y0215081D02*
X0312297Y0191081D01*
X0312300Y0190874D01*
X0312307Y0190667D01*
X0312320Y0190461D01*
X0312337Y0190254D01*
X0312360Y0190049D01*
X0312388Y0189843D01*
X0312420Y0189639D01*
X0312458Y0189435D01*
X0312500Y0189233D01*
X0312548Y0189031D01*
X0312600Y0188831D01*
X0312657Y0188632D01*
X0312719Y0188435D01*
X0312786Y0188239D01*
X0312858Y0188045D01*
X0312934Y0187852D01*
X0313015Y0187662D01*
X0313101Y0187473D01*
X0313191Y0187287D01*
X0313285Y0187103D01*
X0313385Y0186921D01*
X0313488Y0186742D01*
X0313596Y0186565D01*
X0313708Y0186391D01*
X0313824Y0186220D01*
X0313945Y0186051D01*
X0314069Y0185886D01*
X0314198Y0185724D01*
X0314330Y0185565D01*
X0314466Y0185409D01*
X0314606Y0185256D01*
X0314750Y0185107D01*
X0314897Y0184962D01*
X0315048Y0184820D01*
X0315202Y0184682D01*
X0315360Y0184547D01*
X0315520Y0184417D01*
X0315684Y0184291D01*
X0315851Y0184168D01*
X0316021Y0184050D01*
X0316194Y0183935D01*
X0316369Y0183825D01*
X0316547Y0183720D01*
X0316728Y0183618D01*
X0316910Y0183522D01*
X0317096Y0183429D01*
X0317283Y0183341D01*
X0317473Y0183258D01*
X0317664Y0183179D01*
X0317857Y0183105D01*
X0318053Y0183036D01*
X0318249Y0182972D01*
X0318447Y0182912D01*
X0318647Y0182857D01*
X0318848Y0182807D01*
X0319050Y0182762D01*
X0319253Y0182722D01*
X0319457Y0182687D01*
X0319662Y0182657D01*
X0319867Y0182632D01*
X0320073Y0182612D01*
X0320280Y0182597D01*
X0320487Y0182587D01*
X0320694Y0182582D01*
X0320900Y0182582D01*
X0321107Y0182587D01*
X0321314Y0182597D01*
X0321521Y0182612D01*
X0321727Y0182632D01*
X0321932Y0182657D01*
X0322137Y0182687D01*
X0322341Y0182722D01*
X0322544Y0182762D01*
X0322746Y0182807D01*
X0322947Y0182857D01*
X0323147Y0182912D01*
X0323345Y0182972D01*
X0323541Y0183036D01*
X0323737Y0183105D01*
X0323930Y0183179D01*
X0324121Y0183258D01*
X0324311Y0183341D01*
X0324498Y0183429D01*
X0324684Y0183522D01*
X0324866Y0183618D01*
X0325047Y0183720D01*
X0325225Y0183825D01*
X0325400Y0183935D01*
X0325573Y0184050D01*
X0325743Y0184168D01*
X0325910Y0184291D01*
X0326074Y0184417D01*
X0326234Y0184547D01*
X0326392Y0184682D01*
X0326546Y0184820D01*
X0326697Y0184962D01*
X0326844Y0185107D01*
X0326988Y0185256D01*
X0327128Y0185409D01*
X0327264Y0185565D01*
X0327396Y0185724D01*
X0327525Y0185886D01*
X0327649Y0186051D01*
X0327770Y0186220D01*
X0327886Y0186391D01*
X0327998Y0186565D01*
X0328106Y0186742D01*
X0328209Y0186921D01*
X0328309Y0187103D01*
X0328403Y0187287D01*
X0328493Y0187473D01*
X0328579Y0187662D01*
X0328660Y0187852D01*
X0328736Y0188045D01*
X0328808Y0188239D01*
X0328875Y0188435D01*
X0328937Y0188632D01*
X0328994Y0188831D01*
X0329046Y0189031D01*
X0329094Y0189233D01*
X0329136Y0189435D01*
X0329174Y0189639D01*
X0329206Y0189843D01*
X0329234Y0190049D01*
X0329257Y0190254D01*
X0329274Y0190461D01*
X0329287Y0190667D01*
X0329294Y0190874D01*
X0329297Y0191081D01*
X0329297Y0215081D01*
X0329294Y0215288D01*
X0329287Y0215495D01*
X0329274Y0215701D01*
X0329257Y0215908D01*
X0329234Y0216113D01*
X0329206Y0216319D01*
X0329174Y0216523D01*
X0329136Y0216727D01*
X0329094Y0216929D01*
X0329046Y0217131D01*
X0328994Y0217331D01*
X0328937Y0217530D01*
X0328875Y0217727D01*
X0328808Y0217923D01*
X0328736Y0218117D01*
X0328660Y0218310D01*
X0328579Y0218500D01*
X0328493Y0218689D01*
X0328403Y0218875D01*
X0328309Y0219059D01*
X0328209Y0219241D01*
X0328106Y0219420D01*
X0327998Y0219597D01*
X0327886Y0219771D01*
X0327770Y0219942D01*
X0327649Y0220111D01*
X0327525Y0220276D01*
X0327396Y0220438D01*
X0327264Y0220597D01*
X0327128Y0220753D01*
X0326988Y0220906D01*
X0326844Y0221055D01*
X0326697Y0221200D01*
X0326546Y0221342D01*
X0326392Y0221480D01*
X0326234Y0221615D01*
X0326074Y0221745D01*
X0325910Y0221871D01*
X0325743Y0221994D01*
X0325573Y0222112D01*
X0325400Y0222227D01*
X0325225Y0222337D01*
X0325047Y0222442D01*
X0324866Y0222544D01*
X0324684Y0222640D01*
X0324498Y0222733D01*
X0324311Y0222821D01*
X0324121Y0222904D01*
X0323930Y0222983D01*
X0323737Y0223057D01*
X0323541Y0223126D01*
X0323345Y0223190D01*
X0323147Y0223250D01*
X0322947Y0223305D01*
X0322746Y0223355D01*
X0322544Y0223400D01*
X0322341Y0223440D01*
X0322137Y0223475D01*
X0321932Y0223505D01*
X0321727Y0223530D01*
X0321521Y0223550D01*
X0321314Y0223565D01*
X0321107Y0223575D01*
X0320900Y0223580D01*
X0320694Y0223580D01*
X0320487Y0223575D01*
X0320280Y0223565D01*
X0320073Y0223550D01*
X0319867Y0223530D01*
X0319662Y0223505D01*
X0319457Y0223475D01*
X0319253Y0223440D01*
X0319050Y0223400D01*
X0318848Y0223355D01*
X0318647Y0223305D01*
X0318447Y0223250D01*
X0318249Y0223190D01*
X0318053Y0223126D01*
X0317857Y0223057D01*
X0317664Y0222983D01*
X0317473Y0222904D01*
X0317283Y0222821D01*
X0317096Y0222733D01*
X0316910Y0222640D01*
X0316728Y0222544D01*
X0316547Y0222442D01*
X0316369Y0222337D01*
X0316194Y0222227D01*
X0316021Y0222112D01*
X0315851Y0221994D01*
X0315684Y0221871D01*
X0315520Y0221745D01*
X0315360Y0221615D01*
X0315202Y0221480D01*
X0315048Y0221342D01*
X0314897Y0221200D01*
X0314750Y0221055D01*
X0314606Y0220906D01*
X0314466Y0220753D01*
X0314330Y0220597D01*
X0314198Y0220438D01*
X0314069Y0220276D01*
X0313945Y0220111D01*
X0313824Y0219942D01*
X0313708Y0219771D01*
X0313596Y0219597D01*
X0313488Y0219420D01*
X0313385Y0219241D01*
X0313285Y0219059D01*
X0313191Y0218875D01*
X0313101Y0218689D01*
X0313015Y0218500D01*
X0312934Y0218310D01*
X0312858Y0218117D01*
X0312786Y0217923D01*
X0312719Y0217727D01*
X0312657Y0217530D01*
X0312600Y0217331D01*
X0312548Y0217131D01*
X0312500Y0216929D01*
X0312458Y0216727D01*
X0312420Y0216523D01*
X0312388Y0216319D01*
X0312360Y0216113D01*
X0312337Y0215908D01*
X0312320Y0215701D01*
X0312307Y0215495D01*
X0312300Y0215288D01*
X0312297Y0215081D01*
D17*
X0224635Y0078865D03*
X0224537Y0040218D03*
X0038218Y0040218D03*
X0038316Y0078865D03*
D18*
X0319735Y0242594D02*
X0320735Y0242594D01*
X0320735Y0252094D01*
X0319735Y0252094D01*
X0342735Y0252094D02*
X0342735Y0242094D01*
X0343735Y0242094D01*
X0343735Y0252094D02*
X0342735Y0252094D01*
D19*
X0241514Y0126675D03*
D20*
X0241514Y0132925D03*
X0241514Y0107425D03*
M02*
