G75*
%MOIN*%
%OFA0B0*%
%FSLAX25Y25*%
%IPPOS*%
%LPD*%
%AMOC8*
5,1,8,0,0,1.08239X$1,22.5*
%
%ADD10C,0.00000*%
%ADD11OC8,0.10000*%
%ADD12OC8,0.06300*%
%ADD13C,0.06300*%
%ADD14R,0.07874X0.05906*%
%ADD15C,0.05200*%
%ADD16R,0.02362X0.08661*%
%ADD17C,0.04400*%
%ADD18C,0.06000*%
%ADD19OC8,0.06496*%
%ADD20R,0.09000X0.09000*%
%ADD21C,0.05200*%
%ADD22R,0.07098X0.06299*%
%ADD23R,0.06299X0.05118*%
%ADD24C,0.07874*%
%ADD25C,0.02400*%
%ADD26R,0.03962X0.03962*%
%ADD27C,0.08600*%
D10*
X0009437Y0010864D02*
X0009018Y0278402D01*
X0357866Y0278127D01*
X0357069Y0010903D01*
X0009437Y0010864D01*
X0015471Y0024473D02*
X0015473Y0024631D01*
X0015479Y0024789D01*
X0015489Y0024947D01*
X0015503Y0025105D01*
X0015521Y0025262D01*
X0015542Y0025419D01*
X0015568Y0025575D01*
X0015598Y0025731D01*
X0015631Y0025886D01*
X0015669Y0026039D01*
X0015710Y0026192D01*
X0015755Y0026344D01*
X0015804Y0026495D01*
X0015857Y0026644D01*
X0015913Y0026792D01*
X0015973Y0026938D01*
X0016037Y0027083D01*
X0016105Y0027226D01*
X0016176Y0027368D01*
X0016250Y0027508D01*
X0016328Y0027645D01*
X0016410Y0027781D01*
X0016494Y0027915D01*
X0016583Y0028046D01*
X0016674Y0028175D01*
X0016769Y0028302D01*
X0016866Y0028427D01*
X0016967Y0028549D01*
X0017071Y0028668D01*
X0017178Y0028785D01*
X0017288Y0028899D01*
X0017401Y0029010D01*
X0017516Y0029119D01*
X0017634Y0029224D01*
X0017755Y0029326D01*
X0017878Y0029426D01*
X0018004Y0029522D01*
X0018132Y0029615D01*
X0018262Y0029705D01*
X0018395Y0029791D01*
X0018530Y0029875D01*
X0018666Y0029954D01*
X0018805Y0030031D01*
X0018946Y0030103D01*
X0019088Y0030173D01*
X0019232Y0030238D01*
X0019378Y0030300D01*
X0019525Y0030358D01*
X0019674Y0030413D01*
X0019824Y0030464D01*
X0019975Y0030511D01*
X0020127Y0030554D01*
X0020280Y0030593D01*
X0020435Y0030629D01*
X0020590Y0030660D01*
X0020746Y0030688D01*
X0020902Y0030712D01*
X0021059Y0030732D01*
X0021217Y0030748D01*
X0021374Y0030760D01*
X0021533Y0030768D01*
X0021691Y0030772D01*
X0021849Y0030772D01*
X0022007Y0030768D01*
X0022166Y0030760D01*
X0022323Y0030748D01*
X0022481Y0030732D01*
X0022638Y0030712D01*
X0022794Y0030688D01*
X0022950Y0030660D01*
X0023105Y0030629D01*
X0023260Y0030593D01*
X0023413Y0030554D01*
X0023565Y0030511D01*
X0023716Y0030464D01*
X0023866Y0030413D01*
X0024015Y0030358D01*
X0024162Y0030300D01*
X0024308Y0030238D01*
X0024452Y0030173D01*
X0024594Y0030103D01*
X0024735Y0030031D01*
X0024874Y0029954D01*
X0025010Y0029875D01*
X0025145Y0029791D01*
X0025278Y0029705D01*
X0025408Y0029615D01*
X0025536Y0029522D01*
X0025662Y0029426D01*
X0025785Y0029326D01*
X0025906Y0029224D01*
X0026024Y0029119D01*
X0026139Y0029010D01*
X0026252Y0028899D01*
X0026362Y0028785D01*
X0026469Y0028668D01*
X0026573Y0028549D01*
X0026674Y0028427D01*
X0026771Y0028302D01*
X0026866Y0028175D01*
X0026957Y0028046D01*
X0027046Y0027915D01*
X0027130Y0027781D01*
X0027212Y0027645D01*
X0027290Y0027508D01*
X0027364Y0027368D01*
X0027435Y0027226D01*
X0027503Y0027083D01*
X0027567Y0026938D01*
X0027627Y0026792D01*
X0027683Y0026644D01*
X0027736Y0026495D01*
X0027785Y0026344D01*
X0027830Y0026192D01*
X0027871Y0026039D01*
X0027909Y0025886D01*
X0027942Y0025731D01*
X0027972Y0025575D01*
X0027998Y0025419D01*
X0028019Y0025262D01*
X0028037Y0025105D01*
X0028051Y0024947D01*
X0028061Y0024789D01*
X0028067Y0024631D01*
X0028069Y0024473D01*
X0028067Y0024315D01*
X0028061Y0024157D01*
X0028051Y0023999D01*
X0028037Y0023841D01*
X0028019Y0023684D01*
X0027998Y0023527D01*
X0027972Y0023371D01*
X0027942Y0023215D01*
X0027909Y0023060D01*
X0027871Y0022907D01*
X0027830Y0022754D01*
X0027785Y0022602D01*
X0027736Y0022451D01*
X0027683Y0022302D01*
X0027627Y0022154D01*
X0027567Y0022008D01*
X0027503Y0021863D01*
X0027435Y0021720D01*
X0027364Y0021578D01*
X0027290Y0021438D01*
X0027212Y0021301D01*
X0027130Y0021165D01*
X0027046Y0021031D01*
X0026957Y0020900D01*
X0026866Y0020771D01*
X0026771Y0020644D01*
X0026674Y0020519D01*
X0026573Y0020397D01*
X0026469Y0020278D01*
X0026362Y0020161D01*
X0026252Y0020047D01*
X0026139Y0019936D01*
X0026024Y0019827D01*
X0025906Y0019722D01*
X0025785Y0019620D01*
X0025662Y0019520D01*
X0025536Y0019424D01*
X0025408Y0019331D01*
X0025278Y0019241D01*
X0025145Y0019155D01*
X0025010Y0019071D01*
X0024874Y0018992D01*
X0024735Y0018915D01*
X0024594Y0018843D01*
X0024452Y0018773D01*
X0024308Y0018708D01*
X0024162Y0018646D01*
X0024015Y0018588D01*
X0023866Y0018533D01*
X0023716Y0018482D01*
X0023565Y0018435D01*
X0023413Y0018392D01*
X0023260Y0018353D01*
X0023105Y0018317D01*
X0022950Y0018286D01*
X0022794Y0018258D01*
X0022638Y0018234D01*
X0022481Y0018214D01*
X0022323Y0018198D01*
X0022166Y0018186D01*
X0022007Y0018178D01*
X0021849Y0018174D01*
X0021691Y0018174D01*
X0021533Y0018178D01*
X0021374Y0018186D01*
X0021217Y0018198D01*
X0021059Y0018214D01*
X0020902Y0018234D01*
X0020746Y0018258D01*
X0020590Y0018286D01*
X0020435Y0018317D01*
X0020280Y0018353D01*
X0020127Y0018392D01*
X0019975Y0018435D01*
X0019824Y0018482D01*
X0019674Y0018533D01*
X0019525Y0018588D01*
X0019378Y0018646D01*
X0019232Y0018708D01*
X0019088Y0018773D01*
X0018946Y0018843D01*
X0018805Y0018915D01*
X0018666Y0018992D01*
X0018530Y0019071D01*
X0018395Y0019155D01*
X0018262Y0019241D01*
X0018132Y0019331D01*
X0018004Y0019424D01*
X0017878Y0019520D01*
X0017755Y0019620D01*
X0017634Y0019722D01*
X0017516Y0019827D01*
X0017401Y0019936D01*
X0017288Y0020047D01*
X0017178Y0020161D01*
X0017071Y0020278D01*
X0016967Y0020397D01*
X0016866Y0020519D01*
X0016769Y0020644D01*
X0016674Y0020771D01*
X0016583Y0020900D01*
X0016494Y0021031D01*
X0016410Y0021165D01*
X0016328Y0021301D01*
X0016250Y0021438D01*
X0016176Y0021578D01*
X0016105Y0021720D01*
X0016037Y0021863D01*
X0015973Y0022008D01*
X0015913Y0022154D01*
X0015857Y0022302D01*
X0015804Y0022451D01*
X0015755Y0022602D01*
X0015710Y0022754D01*
X0015669Y0022907D01*
X0015631Y0023060D01*
X0015598Y0023215D01*
X0015568Y0023371D01*
X0015542Y0023527D01*
X0015521Y0023684D01*
X0015503Y0023841D01*
X0015489Y0023999D01*
X0015479Y0024157D01*
X0015473Y0024315D01*
X0015471Y0024473D01*
X0241850Y0024489D02*
X0241852Y0024647D01*
X0241858Y0024805D01*
X0241868Y0024963D01*
X0241882Y0025121D01*
X0241900Y0025278D01*
X0241921Y0025435D01*
X0241947Y0025591D01*
X0241977Y0025747D01*
X0242010Y0025902D01*
X0242048Y0026055D01*
X0242089Y0026208D01*
X0242134Y0026360D01*
X0242183Y0026511D01*
X0242236Y0026660D01*
X0242292Y0026808D01*
X0242352Y0026954D01*
X0242416Y0027099D01*
X0242484Y0027242D01*
X0242555Y0027384D01*
X0242629Y0027524D01*
X0242707Y0027661D01*
X0242789Y0027797D01*
X0242873Y0027931D01*
X0242962Y0028062D01*
X0243053Y0028191D01*
X0243148Y0028318D01*
X0243245Y0028443D01*
X0243346Y0028565D01*
X0243450Y0028684D01*
X0243557Y0028801D01*
X0243667Y0028915D01*
X0243780Y0029026D01*
X0243895Y0029135D01*
X0244013Y0029240D01*
X0244134Y0029342D01*
X0244257Y0029442D01*
X0244383Y0029538D01*
X0244511Y0029631D01*
X0244641Y0029721D01*
X0244774Y0029807D01*
X0244909Y0029891D01*
X0245045Y0029970D01*
X0245184Y0030047D01*
X0245325Y0030119D01*
X0245467Y0030189D01*
X0245611Y0030254D01*
X0245757Y0030316D01*
X0245904Y0030374D01*
X0246053Y0030429D01*
X0246203Y0030480D01*
X0246354Y0030527D01*
X0246506Y0030570D01*
X0246659Y0030609D01*
X0246814Y0030645D01*
X0246969Y0030676D01*
X0247125Y0030704D01*
X0247281Y0030728D01*
X0247438Y0030748D01*
X0247596Y0030764D01*
X0247753Y0030776D01*
X0247912Y0030784D01*
X0248070Y0030788D01*
X0248228Y0030788D01*
X0248386Y0030784D01*
X0248545Y0030776D01*
X0248702Y0030764D01*
X0248860Y0030748D01*
X0249017Y0030728D01*
X0249173Y0030704D01*
X0249329Y0030676D01*
X0249484Y0030645D01*
X0249639Y0030609D01*
X0249792Y0030570D01*
X0249944Y0030527D01*
X0250095Y0030480D01*
X0250245Y0030429D01*
X0250394Y0030374D01*
X0250541Y0030316D01*
X0250687Y0030254D01*
X0250831Y0030189D01*
X0250973Y0030119D01*
X0251114Y0030047D01*
X0251253Y0029970D01*
X0251389Y0029891D01*
X0251524Y0029807D01*
X0251657Y0029721D01*
X0251787Y0029631D01*
X0251915Y0029538D01*
X0252041Y0029442D01*
X0252164Y0029342D01*
X0252285Y0029240D01*
X0252403Y0029135D01*
X0252518Y0029026D01*
X0252631Y0028915D01*
X0252741Y0028801D01*
X0252848Y0028684D01*
X0252952Y0028565D01*
X0253053Y0028443D01*
X0253150Y0028318D01*
X0253245Y0028191D01*
X0253336Y0028062D01*
X0253425Y0027931D01*
X0253509Y0027797D01*
X0253591Y0027661D01*
X0253669Y0027524D01*
X0253743Y0027384D01*
X0253814Y0027242D01*
X0253882Y0027099D01*
X0253946Y0026954D01*
X0254006Y0026808D01*
X0254062Y0026660D01*
X0254115Y0026511D01*
X0254164Y0026360D01*
X0254209Y0026208D01*
X0254250Y0026055D01*
X0254288Y0025902D01*
X0254321Y0025747D01*
X0254351Y0025591D01*
X0254377Y0025435D01*
X0254398Y0025278D01*
X0254416Y0025121D01*
X0254430Y0024963D01*
X0254440Y0024805D01*
X0254446Y0024647D01*
X0254448Y0024489D01*
X0254446Y0024331D01*
X0254440Y0024173D01*
X0254430Y0024015D01*
X0254416Y0023857D01*
X0254398Y0023700D01*
X0254377Y0023543D01*
X0254351Y0023387D01*
X0254321Y0023231D01*
X0254288Y0023076D01*
X0254250Y0022923D01*
X0254209Y0022770D01*
X0254164Y0022618D01*
X0254115Y0022467D01*
X0254062Y0022318D01*
X0254006Y0022170D01*
X0253946Y0022024D01*
X0253882Y0021879D01*
X0253814Y0021736D01*
X0253743Y0021594D01*
X0253669Y0021454D01*
X0253591Y0021317D01*
X0253509Y0021181D01*
X0253425Y0021047D01*
X0253336Y0020916D01*
X0253245Y0020787D01*
X0253150Y0020660D01*
X0253053Y0020535D01*
X0252952Y0020413D01*
X0252848Y0020294D01*
X0252741Y0020177D01*
X0252631Y0020063D01*
X0252518Y0019952D01*
X0252403Y0019843D01*
X0252285Y0019738D01*
X0252164Y0019636D01*
X0252041Y0019536D01*
X0251915Y0019440D01*
X0251787Y0019347D01*
X0251657Y0019257D01*
X0251524Y0019171D01*
X0251389Y0019087D01*
X0251253Y0019008D01*
X0251114Y0018931D01*
X0250973Y0018859D01*
X0250831Y0018789D01*
X0250687Y0018724D01*
X0250541Y0018662D01*
X0250394Y0018604D01*
X0250245Y0018549D01*
X0250095Y0018498D01*
X0249944Y0018451D01*
X0249792Y0018408D01*
X0249639Y0018369D01*
X0249484Y0018333D01*
X0249329Y0018302D01*
X0249173Y0018274D01*
X0249017Y0018250D01*
X0248860Y0018230D01*
X0248702Y0018214D01*
X0248545Y0018202D01*
X0248386Y0018194D01*
X0248228Y0018190D01*
X0248070Y0018190D01*
X0247912Y0018194D01*
X0247753Y0018202D01*
X0247596Y0018214D01*
X0247438Y0018230D01*
X0247281Y0018250D01*
X0247125Y0018274D01*
X0246969Y0018302D01*
X0246814Y0018333D01*
X0246659Y0018369D01*
X0246506Y0018408D01*
X0246354Y0018451D01*
X0246203Y0018498D01*
X0246053Y0018549D01*
X0245904Y0018604D01*
X0245757Y0018662D01*
X0245611Y0018724D01*
X0245467Y0018789D01*
X0245325Y0018859D01*
X0245184Y0018931D01*
X0245045Y0019008D01*
X0244909Y0019087D01*
X0244774Y0019171D01*
X0244641Y0019257D01*
X0244511Y0019347D01*
X0244383Y0019440D01*
X0244257Y0019536D01*
X0244134Y0019636D01*
X0244013Y0019738D01*
X0243895Y0019843D01*
X0243780Y0019952D01*
X0243667Y0020063D01*
X0243557Y0020177D01*
X0243450Y0020294D01*
X0243346Y0020413D01*
X0243245Y0020535D01*
X0243148Y0020660D01*
X0243053Y0020787D01*
X0242962Y0020916D01*
X0242873Y0021047D01*
X0242789Y0021181D01*
X0242707Y0021317D01*
X0242629Y0021454D01*
X0242555Y0021594D01*
X0242484Y0021736D01*
X0242416Y0021879D01*
X0242352Y0022024D01*
X0242292Y0022170D01*
X0242236Y0022318D01*
X0242183Y0022467D01*
X0242134Y0022618D01*
X0242089Y0022770D01*
X0242048Y0022923D01*
X0242010Y0023076D01*
X0241977Y0023231D01*
X0241947Y0023387D01*
X0241921Y0023543D01*
X0241900Y0023700D01*
X0241882Y0023857D01*
X0241868Y0024015D01*
X0241858Y0024173D01*
X0241852Y0024331D01*
X0241850Y0024489D01*
X0241864Y0264658D02*
X0241866Y0264816D01*
X0241872Y0264974D01*
X0241882Y0265132D01*
X0241896Y0265290D01*
X0241914Y0265447D01*
X0241935Y0265604D01*
X0241961Y0265760D01*
X0241991Y0265916D01*
X0242024Y0266071D01*
X0242062Y0266224D01*
X0242103Y0266377D01*
X0242148Y0266529D01*
X0242197Y0266680D01*
X0242250Y0266829D01*
X0242306Y0266977D01*
X0242366Y0267123D01*
X0242430Y0267268D01*
X0242498Y0267411D01*
X0242569Y0267553D01*
X0242643Y0267693D01*
X0242721Y0267830D01*
X0242803Y0267966D01*
X0242887Y0268100D01*
X0242976Y0268231D01*
X0243067Y0268360D01*
X0243162Y0268487D01*
X0243259Y0268612D01*
X0243360Y0268734D01*
X0243464Y0268853D01*
X0243571Y0268970D01*
X0243681Y0269084D01*
X0243794Y0269195D01*
X0243909Y0269304D01*
X0244027Y0269409D01*
X0244148Y0269511D01*
X0244271Y0269611D01*
X0244397Y0269707D01*
X0244525Y0269800D01*
X0244655Y0269890D01*
X0244788Y0269976D01*
X0244923Y0270060D01*
X0245059Y0270139D01*
X0245198Y0270216D01*
X0245339Y0270288D01*
X0245481Y0270358D01*
X0245625Y0270423D01*
X0245771Y0270485D01*
X0245918Y0270543D01*
X0246067Y0270598D01*
X0246217Y0270649D01*
X0246368Y0270696D01*
X0246520Y0270739D01*
X0246673Y0270778D01*
X0246828Y0270814D01*
X0246983Y0270845D01*
X0247139Y0270873D01*
X0247295Y0270897D01*
X0247452Y0270917D01*
X0247610Y0270933D01*
X0247767Y0270945D01*
X0247926Y0270953D01*
X0248084Y0270957D01*
X0248242Y0270957D01*
X0248400Y0270953D01*
X0248559Y0270945D01*
X0248716Y0270933D01*
X0248874Y0270917D01*
X0249031Y0270897D01*
X0249187Y0270873D01*
X0249343Y0270845D01*
X0249498Y0270814D01*
X0249653Y0270778D01*
X0249806Y0270739D01*
X0249958Y0270696D01*
X0250109Y0270649D01*
X0250259Y0270598D01*
X0250408Y0270543D01*
X0250555Y0270485D01*
X0250701Y0270423D01*
X0250845Y0270358D01*
X0250987Y0270288D01*
X0251128Y0270216D01*
X0251267Y0270139D01*
X0251403Y0270060D01*
X0251538Y0269976D01*
X0251671Y0269890D01*
X0251801Y0269800D01*
X0251929Y0269707D01*
X0252055Y0269611D01*
X0252178Y0269511D01*
X0252299Y0269409D01*
X0252417Y0269304D01*
X0252532Y0269195D01*
X0252645Y0269084D01*
X0252755Y0268970D01*
X0252862Y0268853D01*
X0252966Y0268734D01*
X0253067Y0268612D01*
X0253164Y0268487D01*
X0253259Y0268360D01*
X0253350Y0268231D01*
X0253439Y0268100D01*
X0253523Y0267966D01*
X0253605Y0267830D01*
X0253683Y0267693D01*
X0253757Y0267553D01*
X0253828Y0267411D01*
X0253896Y0267268D01*
X0253960Y0267123D01*
X0254020Y0266977D01*
X0254076Y0266829D01*
X0254129Y0266680D01*
X0254178Y0266529D01*
X0254223Y0266377D01*
X0254264Y0266224D01*
X0254302Y0266071D01*
X0254335Y0265916D01*
X0254365Y0265760D01*
X0254391Y0265604D01*
X0254412Y0265447D01*
X0254430Y0265290D01*
X0254444Y0265132D01*
X0254454Y0264974D01*
X0254460Y0264816D01*
X0254462Y0264658D01*
X0254460Y0264500D01*
X0254454Y0264342D01*
X0254444Y0264184D01*
X0254430Y0264026D01*
X0254412Y0263869D01*
X0254391Y0263712D01*
X0254365Y0263556D01*
X0254335Y0263400D01*
X0254302Y0263245D01*
X0254264Y0263092D01*
X0254223Y0262939D01*
X0254178Y0262787D01*
X0254129Y0262636D01*
X0254076Y0262487D01*
X0254020Y0262339D01*
X0253960Y0262193D01*
X0253896Y0262048D01*
X0253828Y0261905D01*
X0253757Y0261763D01*
X0253683Y0261623D01*
X0253605Y0261486D01*
X0253523Y0261350D01*
X0253439Y0261216D01*
X0253350Y0261085D01*
X0253259Y0260956D01*
X0253164Y0260829D01*
X0253067Y0260704D01*
X0252966Y0260582D01*
X0252862Y0260463D01*
X0252755Y0260346D01*
X0252645Y0260232D01*
X0252532Y0260121D01*
X0252417Y0260012D01*
X0252299Y0259907D01*
X0252178Y0259805D01*
X0252055Y0259705D01*
X0251929Y0259609D01*
X0251801Y0259516D01*
X0251671Y0259426D01*
X0251538Y0259340D01*
X0251403Y0259256D01*
X0251267Y0259177D01*
X0251128Y0259100D01*
X0250987Y0259028D01*
X0250845Y0258958D01*
X0250701Y0258893D01*
X0250555Y0258831D01*
X0250408Y0258773D01*
X0250259Y0258718D01*
X0250109Y0258667D01*
X0249958Y0258620D01*
X0249806Y0258577D01*
X0249653Y0258538D01*
X0249498Y0258502D01*
X0249343Y0258471D01*
X0249187Y0258443D01*
X0249031Y0258419D01*
X0248874Y0258399D01*
X0248716Y0258383D01*
X0248559Y0258371D01*
X0248400Y0258363D01*
X0248242Y0258359D01*
X0248084Y0258359D01*
X0247926Y0258363D01*
X0247767Y0258371D01*
X0247610Y0258383D01*
X0247452Y0258399D01*
X0247295Y0258419D01*
X0247139Y0258443D01*
X0246983Y0258471D01*
X0246828Y0258502D01*
X0246673Y0258538D01*
X0246520Y0258577D01*
X0246368Y0258620D01*
X0246217Y0258667D01*
X0246067Y0258718D01*
X0245918Y0258773D01*
X0245771Y0258831D01*
X0245625Y0258893D01*
X0245481Y0258958D01*
X0245339Y0259028D01*
X0245198Y0259100D01*
X0245059Y0259177D01*
X0244923Y0259256D01*
X0244788Y0259340D01*
X0244655Y0259426D01*
X0244525Y0259516D01*
X0244397Y0259609D01*
X0244271Y0259705D01*
X0244148Y0259805D01*
X0244027Y0259907D01*
X0243909Y0260012D01*
X0243794Y0260121D01*
X0243681Y0260232D01*
X0243571Y0260346D01*
X0243464Y0260463D01*
X0243360Y0260582D01*
X0243259Y0260704D01*
X0243162Y0260829D01*
X0243067Y0260956D01*
X0242976Y0261085D01*
X0242887Y0261216D01*
X0242803Y0261350D01*
X0242721Y0261486D01*
X0242643Y0261623D01*
X0242569Y0261763D01*
X0242498Y0261905D01*
X0242430Y0262048D01*
X0242366Y0262193D01*
X0242306Y0262339D01*
X0242250Y0262487D01*
X0242197Y0262636D01*
X0242148Y0262787D01*
X0242103Y0262939D01*
X0242062Y0263092D01*
X0242024Y0263245D01*
X0241991Y0263400D01*
X0241961Y0263556D01*
X0241935Y0263712D01*
X0241914Y0263869D01*
X0241896Y0264026D01*
X0241882Y0264184D01*
X0241872Y0264342D01*
X0241866Y0264500D01*
X0241864Y0264658D01*
X0015470Y0264644D02*
X0015472Y0264802D01*
X0015478Y0264960D01*
X0015488Y0265118D01*
X0015502Y0265276D01*
X0015520Y0265433D01*
X0015541Y0265590D01*
X0015567Y0265746D01*
X0015597Y0265902D01*
X0015630Y0266057D01*
X0015668Y0266210D01*
X0015709Y0266363D01*
X0015754Y0266515D01*
X0015803Y0266666D01*
X0015856Y0266815D01*
X0015912Y0266963D01*
X0015972Y0267109D01*
X0016036Y0267254D01*
X0016104Y0267397D01*
X0016175Y0267539D01*
X0016249Y0267679D01*
X0016327Y0267816D01*
X0016409Y0267952D01*
X0016493Y0268086D01*
X0016582Y0268217D01*
X0016673Y0268346D01*
X0016768Y0268473D01*
X0016865Y0268598D01*
X0016966Y0268720D01*
X0017070Y0268839D01*
X0017177Y0268956D01*
X0017287Y0269070D01*
X0017400Y0269181D01*
X0017515Y0269290D01*
X0017633Y0269395D01*
X0017754Y0269497D01*
X0017877Y0269597D01*
X0018003Y0269693D01*
X0018131Y0269786D01*
X0018261Y0269876D01*
X0018394Y0269962D01*
X0018529Y0270046D01*
X0018665Y0270125D01*
X0018804Y0270202D01*
X0018945Y0270274D01*
X0019087Y0270344D01*
X0019231Y0270409D01*
X0019377Y0270471D01*
X0019524Y0270529D01*
X0019673Y0270584D01*
X0019823Y0270635D01*
X0019974Y0270682D01*
X0020126Y0270725D01*
X0020279Y0270764D01*
X0020434Y0270800D01*
X0020589Y0270831D01*
X0020745Y0270859D01*
X0020901Y0270883D01*
X0021058Y0270903D01*
X0021216Y0270919D01*
X0021373Y0270931D01*
X0021532Y0270939D01*
X0021690Y0270943D01*
X0021848Y0270943D01*
X0022006Y0270939D01*
X0022165Y0270931D01*
X0022322Y0270919D01*
X0022480Y0270903D01*
X0022637Y0270883D01*
X0022793Y0270859D01*
X0022949Y0270831D01*
X0023104Y0270800D01*
X0023259Y0270764D01*
X0023412Y0270725D01*
X0023564Y0270682D01*
X0023715Y0270635D01*
X0023865Y0270584D01*
X0024014Y0270529D01*
X0024161Y0270471D01*
X0024307Y0270409D01*
X0024451Y0270344D01*
X0024593Y0270274D01*
X0024734Y0270202D01*
X0024873Y0270125D01*
X0025009Y0270046D01*
X0025144Y0269962D01*
X0025277Y0269876D01*
X0025407Y0269786D01*
X0025535Y0269693D01*
X0025661Y0269597D01*
X0025784Y0269497D01*
X0025905Y0269395D01*
X0026023Y0269290D01*
X0026138Y0269181D01*
X0026251Y0269070D01*
X0026361Y0268956D01*
X0026468Y0268839D01*
X0026572Y0268720D01*
X0026673Y0268598D01*
X0026770Y0268473D01*
X0026865Y0268346D01*
X0026956Y0268217D01*
X0027045Y0268086D01*
X0027129Y0267952D01*
X0027211Y0267816D01*
X0027289Y0267679D01*
X0027363Y0267539D01*
X0027434Y0267397D01*
X0027502Y0267254D01*
X0027566Y0267109D01*
X0027626Y0266963D01*
X0027682Y0266815D01*
X0027735Y0266666D01*
X0027784Y0266515D01*
X0027829Y0266363D01*
X0027870Y0266210D01*
X0027908Y0266057D01*
X0027941Y0265902D01*
X0027971Y0265746D01*
X0027997Y0265590D01*
X0028018Y0265433D01*
X0028036Y0265276D01*
X0028050Y0265118D01*
X0028060Y0264960D01*
X0028066Y0264802D01*
X0028068Y0264644D01*
X0028066Y0264486D01*
X0028060Y0264328D01*
X0028050Y0264170D01*
X0028036Y0264012D01*
X0028018Y0263855D01*
X0027997Y0263698D01*
X0027971Y0263542D01*
X0027941Y0263386D01*
X0027908Y0263231D01*
X0027870Y0263078D01*
X0027829Y0262925D01*
X0027784Y0262773D01*
X0027735Y0262622D01*
X0027682Y0262473D01*
X0027626Y0262325D01*
X0027566Y0262179D01*
X0027502Y0262034D01*
X0027434Y0261891D01*
X0027363Y0261749D01*
X0027289Y0261609D01*
X0027211Y0261472D01*
X0027129Y0261336D01*
X0027045Y0261202D01*
X0026956Y0261071D01*
X0026865Y0260942D01*
X0026770Y0260815D01*
X0026673Y0260690D01*
X0026572Y0260568D01*
X0026468Y0260449D01*
X0026361Y0260332D01*
X0026251Y0260218D01*
X0026138Y0260107D01*
X0026023Y0259998D01*
X0025905Y0259893D01*
X0025784Y0259791D01*
X0025661Y0259691D01*
X0025535Y0259595D01*
X0025407Y0259502D01*
X0025277Y0259412D01*
X0025144Y0259326D01*
X0025009Y0259242D01*
X0024873Y0259163D01*
X0024734Y0259086D01*
X0024593Y0259014D01*
X0024451Y0258944D01*
X0024307Y0258879D01*
X0024161Y0258817D01*
X0024014Y0258759D01*
X0023865Y0258704D01*
X0023715Y0258653D01*
X0023564Y0258606D01*
X0023412Y0258563D01*
X0023259Y0258524D01*
X0023104Y0258488D01*
X0022949Y0258457D01*
X0022793Y0258429D01*
X0022637Y0258405D01*
X0022480Y0258385D01*
X0022322Y0258369D01*
X0022165Y0258357D01*
X0022006Y0258349D01*
X0021848Y0258345D01*
X0021690Y0258345D01*
X0021532Y0258349D01*
X0021373Y0258357D01*
X0021216Y0258369D01*
X0021058Y0258385D01*
X0020901Y0258405D01*
X0020745Y0258429D01*
X0020589Y0258457D01*
X0020434Y0258488D01*
X0020279Y0258524D01*
X0020126Y0258563D01*
X0019974Y0258606D01*
X0019823Y0258653D01*
X0019673Y0258704D01*
X0019524Y0258759D01*
X0019377Y0258817D01*
X0019231Y0258879D01*
X0019087Y0258944D01*
X0018945Y0259014D01*
X0018804Y0259086D01*
X0018665Y0259163D01*
X0018529Y0259242D01*
X0018394Y0259326D01*
X0018261Y0259412D01*
X0018131Y0259502D01*
X0018003Y0259595D01*
X0017877Y0259691D01*
X0017754Y0259791D01*
X0017633Y0259893D01*
X0017515Y0259998D01*
X0017400Y0260107D01*
X0017287Y0260218D01*
X0017177Y0260332D01*
X0017070Y0260449D01*
X0016966Y0260568D01*
X0016865Y0260690D01*
X0016768Y0260815D01*
X0016673Y0260942D01*
X0016582Y0261071D01*
X0016493Y0261202D01*
X0016409Y0261336D01*
X0016327Y0261472D01*
X0016249Y0261609D01*
X0016175Y0261749D01*
X0016104Y0261891D01*
X0016036Y0262034D01*
X0015972Y0262179D01*
X0015912Y0262325D01*
X0015856Y0262473D01*
X0015803Y0262622D01*
X0015754Y0262773D01*
X0015709Y0262925D01*
X0015668Y0263078D01*
X0015630Y0263231D01*
X0015597Y0263386D01*
X0015567Y0263542D01*
X0015541Y0263698D01*
X0015520Y0263855D01*
X0015502Y0264012D01*
X0015488Y0264170D01*
X0015478Y0264328D01*
X0015472Y0264486D01*
X0015470Y0264644D01*
D11*
X0044007Y0249099D03*
X0087007Y0249099D03*
X0087007Y0206099D03*
X0044007Y0206099D03*
D12*
X0130303Y0128108D03*
D13*
X0130303Y0114108D03*
D14*
X0169424Y0116348D03*
X0169424Y0104537D03*
X0192300Y0124507D03*
X0192300Y0136318D03*
X0221183Y0134574D03*
X0221183Y0122763D03*
X0305082Y0166008D03*
X0305082Y0177819D03*
X0308911Y0113531D03*
X0308911Y0101720D03*
D15*
X0292273Y0118831D02*
X0287073Y0118831D01*
X0287073Y0128831D02*
X0292273Y0128831D01*
X0292273Y0138831D02*
X0287073Y0138831D01*
X0287073Y0148831D02*
X0292273Y0148831D01*
X0292273Y0158831D02*
X0287073Y0158831D01*
X0287073Y0168831D02*
X0292273Y0168831D01*
X0292273Y0178831D02*
X0287073Y0178831D01*
X0287073Y0188831D02*
X0292273Y0188831D01*
X0292273Y0198831D02*
X0287073Y0198831D01*
X0287073Y0208831D02*
X0292273Y0208831D01*
X0292273Y0218831D02*
X0287073Y0218831D01*
X0287073Y0228831D02*
X0292273Y0228831D01*
X0292273Y0238831D02*
X0287073Y0238831D01*
X0287073Y0248831D02*
X0292273Y0248831D01*
X0262273Y0248831D02*
X0257073Y0248831D01*
X0257073Y0238831D02*
X0262273Y0238831D01*
X0262273Y0228831D02*
X0257073Y0228831D01*
X0257073Y0218831D02*
X0262273Y0218831D01*
X0262273Y0208831D02*
X0257073Y0208831D01*
X0257073Y0198831D02*
X0262273Y0198831D01*
X0262273Y0188831D02*
X0257073Y0188831D01*
X0257073Y0178831D02*
X0262273Y0178831D01*
X0262273Y0168831D02*
X0257073Y0168831D01*
X0257073Y0158831D02*
X0262273Y0158831D01*
X0262273Y0148831D02*
X0257073Y0148831D01*
X0257073Y0138831D02*
X0262273Y0138831D01*
X0262273Y0128831D02*
X0257073Y0128831D01*
X0257073Y0118831D02*
X0262273Y0118831D01*
X0241514Y0102775D02*
X0241514Y0097575D01*
X0226433Y0106727D02*
X0221233Y0106727D01*
X0186433Y0106727D02*
X0181233Y0106727D01*
X0241514Y0137575D02*
X0241514Y0142775D01*
D16*
X0181449Y0152632D03*
X0176449Y0152632D03*
X0171449Y0152632D03*
X0166449Y0152632D03*
X0166449Y0132159D03*
X0171449Y0132159D03*
X0176449Y0132159D03*
X0181449Y0132159D03*
D17*
X0210406Y0156569D03*
X0210406Y0166569D03*
X0210406Y0176569D03*
X0212400Y0217999D03*
X0212400Y0227999D03*
X0212400Y0237999D03*
X0092558Y0129548D03*
X0082558Y0129548D03*
X0072558Y0129548D03*
D18*
X0025408Y0138177D02*
X0019408Y0138177D01*
X0019408Y0148177D02*
X0025408Y0148177D01*
X0025120Y0116447D02*
X0019120Y0116447D01*
X0019120Y0106447D02*
X0025120Y0106447D01*
X0116435Y0195268D02*
X0116435Y0201268D01*
X0126435Y0201268D02*
X0126435Y0195268D01*
X0136435Y0195268D02*
X0136435Y0201268D01*
X0169702Y0201268D02*
X0169702Y0195268D01*
X0179702Y0195268D02*
X0179702Y0201268D01*
X0189702Y0201268D02*
X0189702Y0195268D01*
X0229557Y0195130D02*
X0235557Y0195130D01*
X0235557Y0185130D02*
X0229557Y0185130D01*
X0229557Y0175130D02*
X0235557Y0175130D01*
X0235557Y0205130D02*
X0229557Y0205130D01*
X0229557Y0215130D02*
X0235557Y0215130D01*
X0235557Y0225130D02*
X0229557Y0225130D01*
X0229557Y0235130D02*
X0235557Y0235130D01*
X0235557Y0245130D02*
X0229557Y0245130D01*
X0322835Y0237294D02*
X0322835Y0231294D01*
X0340635Y0231294D02*
X0340635Y0237294D01*
X0340635Y0256894D02*
X0340635Y0262894D01*
X0322835Y0262894D02*
X0322835Y0256894D01*
X0325492Y0159405D02*
X0319492Y0159405D01*
X0319492Y0149405D02*
X0325492Y0149405D01*
X0325492Y0139405D02*
X0319492Y0139405D01*
X0319492Y0129405D02*
X0325492Y0129405D01*
X0325492Y0119405D02*
X0319492Y0119405D01*
X0319492Y0109405D02*
X0325492Y0109405D01*
X0342258Y0119859D02*
X0348258Y0119859D01*
X0348258Y0129859D02*
X0342258Y0129859D01*
X0291312Y0074394D02*
X0291312Y0068394D01*
X0281312Y0068394D02*
X0281312Y0074394D01*
X0271312Y0074394D02*
X0271312Y0068394D01*
X0303064Y0024675D02*
X0303064Y0018675D01*
X0313064Y0018675D02*
X0313064Y0024675D01*
X0332731Y0059455D02*
X0338731Y0059455D01*
X0338731Y0069455D02*
X0332731Y0069455D01*
X0022444Y0228662D02*
X0016444Y0228662D01*
X0016444Y0238662D02*
X0022444Y0238662D01*
D19*
X0039635Y0163609D03*
X0159635Y0163609D03*
D20*
X0174838Y0245906D03*
X0114838Y0245906D03*
D21*
X0320797Y0212581D03*
X0320797Y0193581D03*
D22*
X0307165Y0250789D03*
X0307165Y0261985D03*
X0297333Y0110387D03*
X0297333Y0099191D03*
D23*
X0301473Y0191736D03*
X0301473Y0199610D03*
X0301242Y0207983D03*
X0301242Y0215857D03*
D24*
X0232814Y0078865D03*
X0232717Y0040218D03*
X0030039Y0040218D03*
X0030137Y0078865D03*
D25*
X0036708Y0080459D02*
X0226243Y0080459D01*
X0226133Y0080194D02*
X0226133Y0077537D01*
X0227150Y0075081D01*
X0229863Y0072368D01*
X0232319Y0071351D01*
X0254769Y0071351D01*
X0260390Y0065730D01*
X0262560Y0064831D01*
X0219042Y0064831D01*
X0216587Y0063814D01*
X0214707Y0061934D01*
X0199672Y0046899D01*
X0036818Y0046899D01*
X0036818Y0080194D01*
X0035801Y0082650D01*
X0033921Y0084529D01*
X0031466Y0085547D01*
X0028808Y0085547D01*
X0026352Y0084529D01*
X0024473Y0082650D01*
X0023456Y0080194D01*
X0023456Y0041782D01*
X0023358Y0041547D01*
X0023358Y0038889D01*
X0024375Y0036434D01*
X0025406Y0035404D01*
X0023284Y0035972D01*
X0020256Y0035972D01*
X0017331Y0035188D01*
X0014709Y0033674D01*
X0014602Y0033567D01*
X0014492Y0103560D01*
X0014558Y0103399D01*
X0016072Y0101885D01*
X0018050Y0101066D01*
X0018053Y0101066D01*
X0018336Y0100783D01*
X0020791Y0099766D01*
X0023449Y0099766D01*
X0025905Y0100783D01*
X0026188Y0101066D01*
X0026191Y0101066D01*
X0028168Y0101885D01*
X0029652Y0103369D01*
X0029887Y0103368D01*
X0029909Y0103358D01*
X0031214Y0103358D01*
X0032521Y0103350D01*
X0032543Y0103358D01*
X0127564Y0103358D01*
X0130020Y0104376D01*
X0133018Y0107374D01*
X0140441Y0107374D01*
X0142896Y0108391D01*
X0143405Y0108900D01*
X0144077Y0109179D01*
X0145957Y0111058D01*
X0153831Y0118932D01*
X0154848Y0121388D01*
X0154848Y0138414D01*
X0162384Y0145951D01*
X0164251Y0145951D01*
X0164281Y0145920D01*
X0167147Y0145920D01*
X0167153Y0145918D01*
X0169811Y0145918D01*
X0169816Y0145920D01*
X0173616Y0145920D01*
X0173949Y0146252D01*
X0174281Y0145920D01*
X0178171Y0145920D01*
X0178176Y0145918D01*
X0180834Y0145918D01*
X0180840Y0145920D01*
X0180983Y0145920D01*
X0181509Y0145820D01*
X0181989Y0145920D01*
X0183616Y0145920D01*
X0183647Y0145951D01*
X0207797Y0145951D01*
X0210253Y0146968D01*
X0216069Y0152784D01*
X0217087Y0155240D01*
X0217087Y0157898D01*
X0216069Y0160353D01*
X0214190Y0162233D01*
X0213029Y0162714D01*
X0214289Y0163974D01*
X0214987Y0165657D01*
X0214987Y0167480D01*
X0214289Y0169164D01*
X0213001Y0170452D01*
X0211317Y0171150D01*
X0209494Y0171150D01*
X0207811Y0170452D01*
X0206522Y0169164D01*
X0205824Y0167480D01*
X0205824Y0165657D01*
X0206522Y0163974D01*
X0207782Y0162714D01*
X0206621Y0162233D01*
X0203701Y0159313D01*
X0186186Y0159313D01*
X0186186Y0160349D01*
X0186334Y0164340D01*
X0186384Y0164458D01*
X0186384Y0165663D01*
X0186428Y0166868D01*
X0186384Y0166988D01*
X0186384Y0190977D01*
X0186654Y0190706D01*
X0188632Y0189887D01*
X0190773Y0189887D01*
X0192751Y0190706D01*
X0194264Y0192220D01*
X0195084Y0194198D01*
X0195084Y0194201D01*
X0195366Y0194483D01*
X0196384Y0196939D01*
X0196384Y0232370D01*
X0195366Y0234825D01*
X0181719Y0248473D01*
X0181719Y0251392D01*
X0180324Y0252787D01*
X0169351Y0252787D01*
X0167957Y0251392D01*
X0167957Y0240419D01*
X0169351Y0239025D01*
X0172270Y0239025D01*
X0183021Y0228273D01*
X0183021Y0222479D01*
X0181622Y0223059D01*
X0153216Y0223059D01*
X0150760Y0222042D01*
X0135367Y0206649D01*
X0135364Y0206649D01*
X0133387Y0205830D01*
X0131873Y0204316D01*
X0131435Y0203258D01*
X0130997Y0204316D01*
X0129483Y0205830D01*
X0127505Y0206649D01*
X0125364Y0206649D01*
X0123387Y0205830D01*
X0121873Y0204316D01*
X0121435Y0203258D01*
X0120997Y0204316D01*
X0119483Y0205830D01*
X0117505Y0206649D01*
X0115364Y0206649D01*
X0113387Y0205830D01*
X0112506Y0204949D01*
X0104161Y0204949D01*
X0101705Y0203932D01*
X0078083Y0180310D01*
X0076204Y0178430D01*
X0075186Y0175975D01*
X0075186Y0133077D01*
X0074864Y0133311D01*
X0074247Y0133625D01*
X0073588Y0133839D01*
X0072904Y0133948D01*
X0072558Y0133948D01*
X0072212Y0133948D01*
X0071528Y0133839D01*
X0070869Y0133625D01*
X0070252Y0133311D01*
X0069692Y0132904D01*
X0069202Y0132414D01*
X0068795Y0131854D01*
X0068480Y0131237D01*
X0068266Y0130578D01*
X0068158Y0129894D01*
X0068158Y0129548D01*
X0072558Y0129548D01*
X0072558Y0133948D01*
X0072558Y0129548D01*
X0072558Y0129548D01*
X0072558Y0129548D01*
X0068158Y0129548D01*
X0068158Y0129201D01*
X0068266Y0128517D01*
X0068480Y0127859D01*
X0068795Y0127242D01*
X0069202Y0126681D01*
X0069692Y0126192D01*
X0070252Y0125784D01*
X0070869Y0125470D01*
X0071528Y0125256D01*
X0072212Y0125148D01*
X0072558Y0125148D01*
X0072904Y0125148D01*
X0073588Y0125256D01*
X0074247Y0125470D01*
X0074864Y0125784D01*
X0075424Y0126192D01*
X0075914Y0126681D01*
X0076038Y0126852D01*
X0076204Y0126454D01*
X0078774Y0123884D01*
X0081229Y0122867D01*
X0083887Y0122867D01*
X0086343Y0123884D01*
X0087558Y0125099D01*
X0088774Y0123884D01*
X0091229Y0122867D01*
X0093887Y0122867D01*
X0096343Y0123884D01*
X0098222Y0125763D01*
X0099239Y0128219D01*
X0099239Y0160522D01*
X0112194Y0173477D01*
X0133590Y0173477D01*
X0136046Y0174494D01*
X0139983Y0178431D01*
X0141862Y0180310D01*
X0142879Y0182766D01*
X0142879Y0195264D01*
X0157312Y0209697D01*
X0177525Y0209697D01*
X0180573Y0206649D01*
X0178632Y0206649D01*
X0176654Y0205830D01*
X0175141Y0204316D01*
X0174702Y0203258D01*
X0174264Y0204316D01*
X0172751Y0205830D01*
X0170773Y0206649D01*
X0168632Y0206649D01*
X0166654Y0205830D01*
X0165141Y0204316D01*
X0164321Y0202338D01*
X0164321Y0202335D01*
X0164039Y0202053D01*
X0163021Y0199597D01*
X0163021Y0176444D01*
X0153971Y0167394D01*
X0152954Y0164938D01*
X0152954Y0162280D01*
X0153971Y0159825D01*
X0155666Y0158130D01*
X0144382Y0146845D01*
X0142503Y0144966D01*
X0141486Y0142510D01*
X0141486Y0125484D01*
X0136787Y0120785D01*
X0136669Y0120736D01*
X0131759Y0120736D01*
X0131632Y0120789D01*
X0128974Y0120789D01*
X0126519Y0119772D01*
X0123468Y0116721D01*
X0031260Y0116721D01*
X0030501Y0116726D01*
X0030501Y0117518D01*
X0029682Y0119495D01*
X0028168Y0121009D01*
X0026191Y0121828D01*
X0026188Y0121828D01*
X0025905Y0122111D01*
X0023449Y0123128D01*
X0020791Y0123128D01*
X0018336Y0122111D01*
X0018053Y0121828D01*
X0018050Y0121828D01*
X0016072Y0121009D01*
X0014558Y0119495D01*
X0014467Y0119275D01*
X0014440Y0136639D01*
X0014589Y0136181D01*
X0014961Y0135451D01*
X0015442Y0134789D01*
X0016021Y0134211D01*
X0016683Y0133729D01*
X0017412Y0133358D01*
X0018190Y0133105D01*
X0018999Y0132977D01*
X0022408Y0132977D01*
X0022408Y0138177D01*
X0022408Y0148177D01*
X0022408Y0153377D01*
X0018999Y0153377D01*
X0018190Y0153249D01*
X0017412Y0152996D01*
X0016683Y0152624D01*
X0016021Y0152143D01*
X0015442Y0151564D01*
X0014961Y0150902D01*
X0014589Y0150173D01*
X0014420Y0149652D01*
X0014304Y0223724D01*
X0015374Y0223281D01*
X0015377Y0223281D01*
X0015659Y0222998D01*
X0018115Y0221981D01*
X0061677Y0221981D01*
X0079626Y0204031D01*
X0079626Y0203041D01*
X0083950Y0198718D01*
X0090064Y0198718D01*
X0094388Y0203041D01*
X0094388Y0209156D01*
X0090064Y0213480D01*
X0089074Y0213480D01*
X0068228Y0234326D01*
X0065773Y0235343D01*
X0026735Y0235343D01*
X0027006Y0235613D01*
X0027825Y0237591D01*
X0027825Y0237885D01*
X0032016Y0242418D01*
X0040250Y0242418D01*
X0040950Y0241718D01*
X0047064Y0241718D01*
X0051388Y0246041D01*
X0051388Y0252156D01*
X0047064Y0256480D01*
X0040950Y0256480D01*
X0040250Y0255780D01*
X0030287Y0255780D01*
X0030160Y0255827D01*
X0029176Y0255788D01*
X0030971Y0257584D01*
X0032485Y0260206D01*
X0033269Y0263130D01*
X0033269Y0266158D01*
X0032485Y0269083D01*
X0030971Y0271705D01*
X0029490Y0273186D01*
X0240262Y0273020D01*
X0238962Y0271719D01*
X0237448Y0269097D01*
X0236664Y0266172D01*
X0236664Y0263144D01*
X0237448Y0260220D01*
X0238962Y0257598D01*
X0241103Y0255457D01*
X0243725Y0253943D01*
X0246649Y0253159D01*
X0249677Y0253159D01*
X0252602Y0253943D01*
X0255224Y0255457D01*
X0257365Y0257598D01*
X0258879Y0260220D01*
X0259663Y0263144D01*
X0259663Y0266172D01*
X0258879Y0269097D01*
X0257365Y0271719D01*
X0256077Y0273007D01*
X0352651Y0272931D01*
X0352234Y0133234D01*
X0352224Y0133247D01*
X0351646Y0133826D01*
X0350983Y0134307D01*
X0350254Y0134678D01*
X0349476Y0134931D01*
X0348667Y0135059D01*
X0345258Y0135059D01*
X0341849Y0135059D01*
X0341040Y0134931D01*
X0340262Y0134678D01*
X0339533Y0134307D01*
X0338870Y0133826D01*
X0338292Y0133247D01*
X0337811Y0132585D01*
X0337439Y0131855D01*
X0337186Y0131077D01*
X0337058Y0130268D01*
X0337058Y0129859D01*
X0337058Y0129450D01*
X0337186Y0128642D01*
X0337439Y0127863D01*
X0337811Y0127134D01*
X0338292Y0126472D01*
X0338870Y0125893D01*
X0339533Y0125412D01*
X0340262Y0125040D01*
X0340510Y0124960D01*
X0339210Y0124421D01*
X0337696Y0122907D01*
X0336877Y0120930D01*
X0336877Y0118789D01*
X0337696Y0116811D01*
X0339210Y0115297D01*
X0341188Y0114478D01*
X0341869Y0114478D01*
X0341869Y0100539D01*
X0337864Y0096534D01*
X0313983Y0096534D01*
X0315229Y0097781D01*
X0315229Y0097836D01*
X0329824Y0097836D01*
X0331140Y0098382D01*
X0332148Y0099389D01*
X0336085Y0103326D01*
X0336630Y0104642D01*
X0336630Y0156461D01*
X0336085Y0157777D01*
X0335077Y0158784D01*
X0332428Y0161433D01*
X0332428Y0161433D01*
X0331421Y0162441D01*
X0330105Y0162986D01*
X0329521Y0162986D01*
X0328540Y0163967D01*
X0326562Y0164786D01*
X0318422Y0164786D01*
X0316444Y0163967D01*
X0314930Y0162453D01*
X0314111Y0160475D01*
X0314111Y0158334D01*
X0314930Y0156356D01*
X0316444Y0154843D01*
X0317501Y0154405D01*
X0316444Y0153967D01*
X0315205Y0152728D01*
X0308875Y0152502D01*
X0308227Y0152502D01*
X0308166Y0152476D01*
X0308100Y0152474D01*
X0307510Y0152205D01*
X0306911Y0151956D01*
X0306864Y0151910D01*
X0306804Y0151882D01*
X0306362Y0151407D01*
X0301075Y0146121D01*
X0300068Y0145114D01*
X0300062Y0145098D01*
X0297832Y0142869D01*
X0295279Y0142869D01*
X0295094Y0143053D01*
X0293264Y0143812D01*
X0286082Y0143812D01*
X0284251Y0143053D01*
X0282850Y0141652D01*
X0282092Y0139821D01*
X0282092Y0137840D01*
X0282850Y0136009D01*
X0284251Y0134608D01*
X0286082Y0133850D01*
X0293264Y0133850D01*
X0295094Y0134608D01*
X0296193Y0135706D01*
X0300027Y0135706D01*
X0301344Y0136252D01*
X0302351Y0137259D01*
X0306140Y0141048D01*
X0306146Y0141063D01*
X0310475Y0145392D01*
X0315708Y0145579D01*
X0316444Y0144843D01*
X0317501Y0144405D01*
X0316444Y0143967D01*
X0315102Y0142624D01*
X0312620Y0142502D01*
X0311996Y0142502D01*
X0311911Y0142467D01*
X0311820Y0142462D01*
X0311256Y0142195D01*
X0310680Y0141956D01*
X0310615Y0141892D01*
X0310532Y0141853D01*
X0310113Y0141390D01*
X0300200Y0131476D01*
X0296568Y0131476D01*
X0296496Y0131652D01*
X0295094Y0133053D01*
X0293264Y0133812D01*
X0286082Y0133812D01*
X0284251Y0133053D01*
X0282850Y0131652D01*
X0282092Y0129821D01*
X0282092Y0127840D01*
X0282850Y0126009D01*
X0284251Y0124608D01*
X0286082Y0123850D01*
X0293264Y0123850D01*
X0294385Y0124314D01*
X0302395Y0124314D01*
X0303712Y0124859D01*
X0304719Y0125867D01*
X0314264Y0135412D01*
X0315798Y0135488D01*
X0316444Y0134843D01*
X0317501Y0134405D01*
X0316444Y0133967D01*
X0314930Y0132453D01*
X0314111Y0130475D01*
X0314111Y0128334D01*
X0314930Y0126356D01*
X0316444Y0124843D01*
X0317501Y0124405D01*
X0316444Y0123967D01*
X0314930Y0122453D01*
X0314111Y0120475D01*
X0314111Y0118588D01*
X0313834Y0118865D01*
X0303988Y0118865D01*
X0302593Y0117470D01*
X0302593Y0115194D01*
X0301868Y0115918D01*
X0297172Y0115918D01*
X0296683Y0116461D01*
X0297254Y0117840D01*
X0297254Y0119821D01*
X0296496Y0121652D01*
X0295094Y0123053D01*
X0293264Y0123812D01*
X0286082Y0123812D01*
X0284251Y0123053D01*
X0282850Y0121652D01*
X0282092Y0119821D01*
X0282092Y0117840D01*
X0282850Y0116009D01*
X0284251Y0114608D01*
X0286082Y0113850D01*
X0289396Y0113850D01*
X0291403Y0111622D01*
X0291403Y0106252D01*
X0292797Y0104857D01*
X0301868Y0104857D01*
X0302593Y0105581D01*
X0302593Y0103997D01*
X0301868Y0104721D01*
X0292797Y0104721D01*
X0291403Y0103327D01*
X0291403Y0102801D01*
X0281467Y0102851D01*
X0279132Y0105185D01*
X0279132Y0175250D01*
X0283610Y0175250D01*
X0284251Y0174608D01*
X0286082Y0173850D01*
X0293264Y0173850D01*
X0295094Y0174608D01*
X0295736Y0175250D01*
X0298764Y0175250D01*
X0298764Y0173880D01*
X0300159Y0172485D01*
X0310005Y0172485D01*
X0311400Y0173880D01*
X0311400Y0181758D01*
X0310005Y0183153D01*
X0300159Y0183153D01*
X0299418Y0182412D01*
X0295736Y0182412D01*
X0295094Y0183053D01*
X0293264Y0183812D01*
X0286082Y0183812D01*
X0284251Y0183053D01*
X0283610Y0182412D01*
X0280299Y0182412D01*
X0278867Y0183844D01*
X0278744Y0185709D01*
X0278744Y0189140D01*
X0278199Y0190456D01*
X0268478Y0200176D01*
X0267471Y0201184D01*
X0266528Y0201574D01*
X0266496Y0201652D01*
X0265094Y0203053D01*
X0263264Y0203812D01*
X0256082Y0203812D01*
X0254251Y0203053D01*
X0252850Y0201652D01*
X0252092Y0199821D01*
X0252092Y0197840D01*
X0252850Y0196009D01*
X0254251Y0194608D01*
X0256082Y0193850D01*
X0256774Y0193850D01*
X0256774Y0193812D01*
X0256082Y0193812D01*
X0254251Y0193053D01*
X0253610Y0192412D01*
X0240255Y0192412D01*
X0240938Y0194060D01*
X0240938Y0196200D01*
X0240119Y0198178D01*
X0238605Y0199692D01*
X0237547Y0200130D01*
X0238605Y0200568D01*
X0239810Y0201773D01*
X0247147Y0201773D01*
X0248463Y0202319D01*
X0249470Y0203326D01*
X0251394Y0205250D01*
X0253610Y0205250D01*
X0254251Y0204608D01*
X0256082Y0203850D01*
X0263264Y0203850D01*
X0265094Y0204608D01*
X0265736Y0205250D01*
X0268733Y0205250D01*
X0270049Y0205795D01*
X0276022Y0211767D01*
X0277029Y0212775D01*
X0277575Y0214091D01*
X0277575Y0257415D01*
X0278626Y0258466D01*
X0294496Y0258466D01*
X0301235Y0258433D01*
X0301235Y0257850D01*
X0302629Y0256455D01*
X0311700Y0256455D01*
X0313095Y0257850D01*
X0313095Y0258404D01*
X0317454Y0258404D01*
X0317454Y0255824D01*
X0318273Y0253846D01*
X0319787Y0252332D01*
X0321765Y0251513D01*
X0323905Y0251513D01*
X0325883Y0252332D01*
X0327397Y0253846D01*
X0328216Y0255824D01*
X0328216Y0263964D01*
X0327397Y0265942D01*
X0325883Y0267456D01*
X0323905Y0268275D01*
X0321765Y0268275D01*
X0319787Y0267456D01*
X0318273Y0265942D01*
X0318118Y0265567D01*
X0313095Y0265567D01*
X0313095Y0266121D01*
X0311700Y0267516D01*
X0302629Y0267516D01*
X0301235Y0266121D01*
X0301235Y0265596D01*
X0295225Y0265625D01*
X0295217Y0265629D01*
X0294514Y0265629D01*
X0293810Y0265632D01*
X0293801Y0265629D01*
X0276431Y0265629D01*
X0275115Y0265083D01*
X0274107Y0264076D01*
X0270958Y0260926D01*
X0270412Y0259610D01*
X0270412Y0216287D01*
X0266537Y0212412D01*
X0265736Y0212412D01*
X0265094Y0213053D01*
X0263264Y0213812D01*
X0256082Y0213812D01*
X0254251Y0213053D01*
X0253610Y0212412D01*
X0249198Y0212412D01*
X0247882Y0211867D01*
X0244951Y0208936D01*
X0239361Y0208936D01*
X0238605Y0209692D01*
X0237547Y0210130D01*
X0238605Y0210568D01*
X0239586Y0211549D01*
X0241174Y0211549D01*
X0242490Y0212094D01*
X0245556Y0215159D01*
X0253700Y0215159D01*
X0254251Y0214608D01*
X0256082Y0213850D01*
X0263264Y0213850D01*
X0265094Y0214608D01*
X0266496Y0216009D01*
X0267254Y0217840D01*
X0267254Y0219821D01*
X0266496Y0221652D01*
X0265094Y0223053D01*
X0263264Y0223812D01*
X0256082Y0223812D01*
X0254251Y0223053D01*
X0253519Y0222321D01*
X0246419Y0222321D01*
X0247108Y0223011D01*
X0249347Y0225250D01*
X0253610Y0225250D01*
X0254251Y0224608D01*
X0256082Y0223850D01*
X0263264Y0223850D01*
X0265094Y0224608D01*
X0266496Y0226009D01*
X0267254Y0227840D01*
X0267254Y0229821D01*
X0266496Y0231652D01*
X0265094Y0233053D01*
X0263264Y0233812D01*
X0256082Y0233812D01*
X0254251Y0233053D01*
X0253610Y0232412D01*
X0247151Y0232412D01*
X0245835Y0231867D01*
X0242589Y0228621D01*
X0239676Y0228621D01*
X0238605Y0229692D01*
X0237547Y0230130D01*
X0238605Y0230568D01*
X0239731Y0231695D01*
X0244785Y0231695D01*
X0246101Y0232240D01*
X0247108Y0233247D01*
X0249110Y0235250D01*
X0253610Y0235250D01*
X0254251Y0234608D01*
X0256082Y0233850D01*
X0263264Y0233850D01*
X0265094Y0234608D01*
X0266496Y0236009D01*
X0267254Y0237840D01*
X0267254Y0239821D01*
X0266496Y0241652D01*
X0265094Y0243053D01*
X0263264Y0243812D01*
X0256082Y0243812D01*
X0254251Y0243053D01*
X0253610Y0242412D01*
X0246915Y0242412D01*
X0245599Y0241867D01*
X0242589Y0238857D01*
X0239440Y0238857D01*
X0238605Y0239692D01*
X0237547Y0240130D01*
X0238605Y0240568D01*
X0240119Y0242082D01*
X0240938Y0244060D01*
X0240938Y0245250D01*
X0253610Y0245250D01*
X0254251Y0244608D01*
X0256082Y0243850D01*
X0263264Y0243850D01*
X0265094Y0244608D01*
X0266496Y0246009D01*
X0267254Y0247840D01*
X0267254Y0249821D01*
X0266496Y0251652D01*
X0265094Y0253053D01*
X0263264Y0253812D01*
X0256082Y0253812D01*
X0254251Y0253053D01*
X0253610Y0252412D01*
X0235545Y0252412D01*
X0234229Y0251867D01*
X0232873Y0250511D01*
X0228486Y0250511D01*
X0226508Y0249692D01*
X0224995Y0248178D01*
X0224176Y0246200D01*
X0224176Y0244060D01*
X0224995Y0242082D01*
X0226508Y0240568D01*
X0227566Y0240130D01*
X0226508Y0239692D01*
X0224995Y0238178D01*
X0224176Y0236200D01*
X0224176Y0234060D01*
X0224995Y0232082D01*
X0226508Y0230568D01*
X0227566Y0230130D01*
X0226508Y0229692D01*
X0224995Y0228178D01*
X0224176Y0226200D01*
X0224176Y0224060D01*
X0224995Y0222082D01*
X0226508Y0220568D01*
X0227566Y0220130D01*
X0226508Y0219692D01*
X0224995Y0218178D01*
X0224176Y0216200D01*
X0224176Y0214060D01*
X0224995Y0212082D01*
X0226508Y0210568D01*
X0227566Y0210130D01*
X0226508Y0209692D01*
X0224995Y0208178D01*
X0224176Y0206200D01*
X0224176Y0204060D01*
X0224995Y0202082D01*
X0226508Y0200568D01*
X0227566Y0200130D01*
X0227026Y0199906D01*
X0224031Y0202901D01*
X0224031Y0227327D01*
X0223486Y0228643D01*
X0221911Y0230218D01*
X0220904Y0231225D01*
X0219588Y0231770D01*
X0215107Y0231770D01*
X0214995Y0231882D01*
X0213311Y0232580D01*
X0211489Y0232580D01*
X0209805Y0231882D01*
X0208516Y0230594D01*
X0207819Y0228910D01*
X0207819Y0227087D01*
X0208516Y0225404D01*
X0209805Y0224115D01*
X0211489Y0223417D01*
X0213311Y0223417D01*
X0214995Y0224115D01*
X0215488Y0224608D01*
X0216869Y0224608D01*
X0216869Y0219180D01*
X0216283Y0220594D01*
X0214995Y0221882D01*
X0213311Y0222580D01*
X0211489Y0222580D01*
X0209805Y0221882D01*
X0208516Y0220594D01*
X0207819Y0218910D01*
X0207819Y0217087D01*
X0208516Y0215404D01*
X0209805Y0214115D01*
X0211489Y0213417D01*
X0213311Y0213417D01*
X0214995Y0214115D01*
X0216283Y0215404D01*
X0216869Y0216817D01*
X0216869Y0200705D01*
X0217414Y0199389D01*
X0218422Y0198382D01*
X0223702Y0193102D01*
X0224709Y0192094D01*
X0225176Y0191901D01*
X0226508Y0190568D01*
X0227566Y0190130D01*
X0226508Y0189692D01*
X0224995Y0188178D01*
X0224176Y0186200D01*
X0224176Y0184060D01*
X0224995Y0182082D01*
X0226508Y0180568D01*
X0227809Y0180030D01*
X0227561Y0179949D01*
X0226831Y0179577D01*
X0226169Y0179096D01*
X0225590Y0178518D01*
X0225109Y0177855D01*
X0224738Y0177126D01*
X0224485Y0176348D01*
X0224357Y0175539D01*
X0224357Y0175130D01*
X0224357Y0174721D01*
X0224485Y0173912D01*
X0224738Y0173134D01*
X0225109Y0172405D01*
X0225590Y0171742D01*
X0226169Y0171164D01*
X0226831Y0170683D01*
X0227561Y0170311D01*
X0228339Y0170058D01*
X0229147Y0169930D01*
X0232557Y0169930D01*
X0235966Y0169930D01*
X0236774Y0170058D01*
X0237553Y0170311D01*
X0238282Y0170683D01*
X0238944Y0171164D01*
X0239523Y0171742D01*
X0240004Y0172405D01*
X0240376Y0173134D01*
X0240411Y0173243D01*
X0241279Y0172375D01*
X0241279Y0158806D01*
X0237077Y0154605D01*
X0224462Y0154605D01*
X0223146Y0154060D01*
X0208731Y0139644D01*
X0198619Y0139644D01*
X0198619Y0140257D01*
X0197224Y0141652D01*
X0187377Y0141652D01*
X0185982Y0140257D01*
X0185982Y0135740D01*
X0185011Y0135740D01*
X0185011Y0137476D01*
X0183616Y0138871D01*
X0179281Y0138871D01*
X0178949Y0138538D01*
X0178616Y0138871D01*
X0174281Y0138871D01*
X0173949Y0138538D01*
X0173616Y0138871D01*
X0169281Y0138871D01*
X0168778Y0138367D01*
X0168479Y0138540D01*
X0167920Y0138690D01*
X0166449Y0138690D01*
X0166449Y0132159D01*
X0166449Y0125629D01*
X0167868Y0125629D01*
X0167868Y0121682D01*
X0164501Y0121682D01*
X0163106Y0120287D01*
X0163106Y0112409D01*
X0164501Y0111014D01*
X0174347Y0111014D01*
X0174414Y0111081D01*
X0176699Y0108797D01*
X0176252Y0107718D01*
X0176252Y0105736D01*
X0177010Y0103906D01*
X0178411Y0102504D01*
X0180242Y0101746D01*
X0187424Y0101746D01*
X0189254Y0102504D01*
X0190656Y0103906D01*
X0191414Y0105736D01*
X0191414Y0107718D01*
X0191042Y0108616D01*
X0191995Y0109570D01*
X0217365Y0109570D01*
X0217128Y0109243D01*
X0216785Y0108570D01*
X0216551Y0107851D01*
X0216433Y0107105D01*
X0216433Y0106727D01*
X0216433Y0106349D01*
X0216551Y0105603D01*
X0216785Y0104885D01*
X0217128Y0104211D01*
X0217572Y0103600D01*
X0218106Y0103066D01*
X0218717Y0102622D01*
X0219390Y0102279D01*
X0220109Y0102045D01*
X0220855Y0101927D01*
X0223833Y0101927D01*
X0226811Y0101927D01*
X0227557Y0102045D01*
X0228275Y0102279D01*
X0228949Y0102622D01*
X0229560Y0103066D01*
X0230094Y0103600D01*
X0230538Y0104211D01*
X0230881Y0104885D01*
X0231115Y0105603D01*
X0231233Y0106349D01*
X0231233Y0106727D01*
X0223833Y0106727D01*
X0223833Y0101927D01*
X0223833Y0106727D01*
X0223833Y0106727D01*
X0223833Y0106727D01*
X0231233Y0106727D01*
X0231233Y0107105D01*
X0231115Y0107851D01*
X0230881Y0108570D01*
X0230538Y0109243D01*
X0230301Y0109570D01*
X0254705Y0109570D01*
X0256021Y0110115D01*
X0259756Y0113850D01*
X0263264Y0113850D01*
X0265094Y0114608D01*
X0266496Y0116009D01*
X0267254Y0117840D01*
X0267254Y0119821D01*
X0266496Y0121652D01*
X0265094Y0123053D01*
X0263264Y0123812D01*
X0256082Y0123812D01*
X0254251Y0123053D01*
X0252850Y0121652D01*
X0252092Y0119821D01*
X0252092Y0117840D01*
X0252539Y0116761D01*
X0252509Y0116732D01*
X0189800Y0116732D01*
X0188483Y0116187D01*
X0187476Y0115179D01*
X0184005Y0111708D01*
X0183916Y0111708D01*
X0180030Y0115595D01*
X0180030Y0125447D01*
X0183616Y0125447D01*
X0185011Y0126842D01*
X0185011Y0128578D01*
X0186469Y0128578D01*
X0186313Y0128309D01*
X0186163Y0127750D01*
X0186163Y0124784D01*
X0192024Y0124784D01*
X0192024Y0129660D01*
X0191103Y0129660D01*
X0191130Y0129690D01*
X0191571Y0130131D01*
X0191606Y0130216D01*
X0192302Y0130984D01*
X0197224Y0130984D01*
X0198619Y0132379D01*
X0198619Y0132482D01*
X0210926Y0132482D01*
X0212242Y0133027D01*
X0213250Y0134035D01*
X0214865Y0135650D01*
X0214865Y0130635D01*
X0216260Y0129241D01*
X0226106Y0129241D01*
X0227501Y0130635D01*
X0227501Y0130829D01*
X0232169Y0130829D01*
X0233485Y0131375D01*
X0234493Y0132382D01*
X0237166Y0135055D01*
X0237291Y0134753D01*
X0238692Y0133352D01*
X0240523Y0132594D01*
X0242505Y0132594D01*
X0244336Y0133352D01*
X0245258Y0134274D01*
X0245258Y0129518D01*
X0245803Y0128202D01*
X0248081Y0125925D01*
X0249088Y0124917D01*
X0250405Y0124372D01*
X0254821Y0124372D01*
X0256082Y0123850D01*
X0263264Y0123850D01*
X0265094Y0124608D01*
X0266496Y0126009D01*
X0267254Y0127840D01*
X0267254Y0129821D01*
X0266496Y0131652D01*
X0265094Y0133053D01*
X0263264Y0133812D01*
X0256082Y0133812D01*
X0254251Y0133053D01*
X0252850Y0131652D01*
X0252801Y0131534D01*
X0252600Y0131534D01*
X0252420Y0131714D01*
X0252420Y0137047D01*
X0252850Y0136009D01*
X0254251Y0134608D01*
X0256082Y0133850D01*
X0263264Y0133850D01*
X0265094Y0134608D01*
X0266496Y0136009D01*
X0267254Y0137840D01*
X0267254Y0139821D01*
X0266496Y0141652D01*
X0265094Y0143053D01*
X0263264Y0143812D01*
X0256082Y0143812D01*
X0254251Y0143053D01*
X0252850Y0141652D01*
X0252092Y0139821D01*
X0252092Y0138286D01*
X0251875Y0138809D01*
X0250868Y0139816D01*
X0247473Y0143211D01*
X0246495Y0143616D01*
X0246495Y0143765D01*
X0245737Y0145596D01*
X0244336Y0146997D01*
X0242505Y0147756D01*
X0240523Y0147756D01*
X0238692Y0146997D01*
X0237291Y0145596D01*
X0236533Y0143765D01*
X0236533Y0143756D01*
X0236509Y0143756D01*
X0235193Y0143211D01*
X0229974Y0137992D01*
X0227501Y0137992D01*
X0227501Y0138513D01*
X0226106Y0139908D01*
X0219123Y0139908D01*
X0226658Y0147443D01*
X0239273Y0147443D01*
X0240589Y0147988D01*
X0241596Y0148995D01*
X0247896Y0155295D01*
X0248441Y0156611D01*
X0248441Y0174571D01*
X0247896Y0175887D01*
X0246888Y0176894D01*
X0240582Y0183201D01*
X0240938Y0184060D01*
X0240938Y0185250D01*
X0253610Y0185250D01*
X0254251Y0184608D01*
X0256082Y0183850D01*
X0263264Y0183850D01*
X0265094Y0184608D01*
X0266496Y0186009D01*
X0267254Y0187840D01*
X0267254Y0189821D01*
X0266496Y0191652D01*
X0265094Y0193053D01*
X0263937Y0193533D01*
X0263937Y0194128D01*
X0264262Y0194263D01*
X0271582Y0186944D01*
X0271582Y0186182D01*
X0271543Y0186067D01*
X0271582Y0185474D01*
X0271582Y0181771D01*
X0271872Y0181071D01*
X0271970Y0179573D01*
X0271970Y0102989D01*
X0272515Y0101673D01*
X0273523Y0100666D01*
X0277437Y0096752D01*
X0277932Y0096252D01*
X0277941Y0096248D01*
X0277947Y0096241D01*
X0278598Y0095972D01*
X0279246Y0095700D01*
X0279255Y0095700D01*
X0279264Y0095696D01*
X0279968Y0095696D01*
X0291403Y0095639D01*
X0291403Y0095055D01*
X0292797Y0093660D01*
X0297710Y0093660D01*
X0300446Y0090924D01*
X0301453Y0089917D01*
X0302769Y0089372D01*
X0340060Y0089372D01*
X0341376Y0089917D01*
X0347479Y0096019D01*
X0348486Y0097027D01*
X0349031Y0098343D01*
X0349031Y0114478D01*
X0349328Y0114478D01*
X0351306Y0115297D01*
X0352183Y0116174D01*
X0351884Y0016103D01*
X0331038Y0016100D01*
X0338920Y0023982D01*
X0340799Y0025861D01*
X0341816Y0028317D01*
X0341816Y0054931D01*
X0343293Y0056407D01*
X0344112Y0058385D01*
X0344112Y0060526D01*
X0343293Y0062503D01*
X0341779Y0064017D01*
X0340479Y0064556D01*
X0340727Y0064636D01*
X0341456Y0065008D01*
X0342119Y0065489D01*
X0342697Y0066068D01*
X0343178Y0066730D01*
X0343550Y0067459D01*
X0343803Y0068238D01*
X0343931Y0069046D01*
X0343931Y0069455D01*
X0335731Y0069455D01*
X0335731Y0069455D01*
X0327531Y0069455D01*
X0327531Y0069046D01*
X0327659Y0068238D01*
X0327912Y0067459D01*
X0328284Y0066730D01*
X0328765Y0066068D01*
X0329343Y0065489D01*
X0330006Y0065008D01*
X0330735Y0064636D01*
X0330983Y0064556D01*
X0329683Y0064017D01*
X0328169Y0062503D01*
X0327350Y0060526D01*
X0327350Y0058385D01*
X0328169Y0056407D01*
X0328454Y0056122D01*
X0328454Y0032413D01*
X0324397Y0028356D01*
X0319651Y0028356D01*
X0319651Y0048967D01*
X0318634Y0051423D01*
X0316754Y0053302D01*
X0306243Y0063814D01*
X0303787Y0064831D01*
X0295359Y0064831D01*
X0295874Y0065345D01*
X0296693Y0067323D01*
X0296693Y0075464D01*
X0295874Y0077442D01*
X0294360Y0078955D01*
X0292382Y0079775D01*
X0290242Y0079775D01*
X0288264Y0078955D01*
X0286750Y0077442D01*
X0286212Y0076142D01*
X0286131Y0076390D01*
X0285760Y0077119D01*
X0285278Y0077781D01*
X0284700Y0078360D01*
X0284038Y0078841D01*
X0283308Y0079213D01*
X0282530Y0079465D01*
X0281721Y0079594D01*
X0281312Y0079594D01*
X0280903Y0079594D01*
X0280094Y0079465D01*
X0279316Y0079213D01*
X0278587Y0078841D01*
X0277925Y0078360D01*
X0277346Y0077781D01*
X0276865Y0077119D01*
X0276493Y0076390D01*
X0276412Y0076142D01*
X0275874Y0077442D01*
X0274360Y0078955D01*
X0272382Y0079775D01*
X0270242Y0079775D01*
X0268264Y0078955D01*
X0267383Y0078075D01*
X0266942Y0078075D01*
X0263201Y0081816D01*
X0261321Y0083696D01*
X0258866Y0084713D01*
X0236156Y0084713D01*
X0234143Y0085547D01*
X0231485Y0085547D01*
X0229029Y0084529D01*
X0227150Y0082650D01*
X0226133Y0080194D01*
X0226133Y0078061D02*
X0036818Y0078061D01*
X0036818Y0075662D02*
X0226909Y0075662D01*
X0228967Y0073264D02*
X0036818Y0073264D01*
X0036818Y0070865D02*
X0255255Y0070865D01*
X0257653Y0068467D02*
X0036818Y0068467D01*
X0036818Y0066068D02*
X0260052Y0066068D01*
X0275255Y0078061D02*
X0277626Y0078061D01*
X0281312Y0078061D02*
X0281312Y0078061D01*
X0281312Y0079594D02*
X0281312Y0071394D01*
X0281312Y0071394D01*
X0281312Y0079594D01*
X0284999Y0078061D02*
X0287370Y0078061D01*
X0281312Y0075662D02*
X0281312Y0075662D01*
X0281312Y0073264D02*
X0281312Y0073264D01*
X0295255Y0078061D02*
X0352069Y0078061D01*
X0352076Y0080459D02*
X0264558Y0080459D01*
X0262159Y0082858D02*
X0352084Y0082858D01*
X0352091Y0085257D02*
X0234843Y0085257D01*
X0230785Y0085257D02*
X0032166Y0085257D01*
X0028108Y0085257D02*
X0014521Y0085257D01*
X0014517Y0087655D02*
X0352098Y0087655D01*
X0352105Y0090054D02*
X0341513Y0090054D01*
X0343911Y0092452D02*
X0352112Y0092452D01*
X0352119Y0094851D02*
X0346310Y0094851D01*
X0348578Y0097249D02*
X0352126Y0097249D01*
X0352134Y0099648D02*
X0349031Y0099648D01*
X0349031Y0102046D02*
X0352141Y0102046D01*
X0352148Y0104445D02*
X0349031Y0104445D01*
X0349031Y0106843D02*
X0352155Y0106843D01*
X0352162Y0109242D02*
X0349031Y0109242D01*
X0349031Y0111640D02*
X0352169Y0111640D01*
X0352177Y0114039D02*
X0349031Y0114039D01*
X0345450Y0119667D02*
X0345258Y0119859D01*
X0345450Y0119667D02*
X0345450Y0099055D01*
X0339348Y0092953D01*
X0303482Y0092953D01*
X0297333Y0099102D01*
X0297333Y0099191D01*
X0279976Y0099277D01*
X0275551Y0103702D01*
X0275551Y0179691D01*
X0275163Y0185592D01*
X0275163Y0188427D01*
X0265442Y0198148D01*
X0260355Y0198148D01*
X0260355Y0189513D01*
X0259673Y0188831D01*
X0236257Y0188831D01*
X0232557Y0185130D01*
X0233588Y0185130D01*
X0244860Y0173858D01*
X0244860Y0157323D01*
X0238560Y0151024D01*
X0225175Y0151024D01*
X0210214Y0136063D01*
X0192555Y0136063D01*
X0192300Y0136318D01*
X0188535Y0132159D01*
X0181449Y0132159D01*
X0176449Y0132159D02*
X0176449Y0114111D01*
X0183833Y0106727D01*
X0185408Y0108046D01*
X0190512Y0113151D01*
X0253993Y0113151D01*
X0259673Y0118831D01*
X0263720Y0114039D02*
X0271970Y0114039D01*
X0271970Y0116437D02*
X0266673Y0116437D01*
X0267254Y0118836D02*
X0271970Y0118836D01*
X0271970Y0121234D02*
X0266669Y0121234D01*
X0263696Y0123633D02*
X0271970Y0123633D01*
X0271970Y0126031D02*
X0266505Y0126031D01*
X0267254Y0128430D02*
X0271970Y0128430D01*
X0271970Y0130828D02*
X0266837Y0130828D01*
X0264676Y0133227D02*
X0271970Y0133227D01*
X0271970Y0135625D02*
X0266112Y0135625D01*
X0267254Y0138024D02*
X0271970Y0138024D01*
X0271970Y0140422D02*
X0267005Y0140422D01*
X0265327Y0142821D02*
X0271970Y0142821D01*
X0271970Y0145219D02*
X0265706Y0145219D01*
X0265094Y0144608D02*
X0266496Y0146009D01*
X0267254Y0147840D01*
X0267254Y0149821D01*
X0266496Y0151652D01*
X0265094Y0153053D01*
X0263264Y0153812D01*
X0256082Y0153812D01*
X0254251Y0153053D01*
X0252850Y0151652D01*
X0252092Y0149821D01*
X0252092Y0147840D01*
X0252850Y0146009D01*
X0254251Y0144608D01*
X0256082Y0143850D01*
X0263264Y0143850D01*
X0265094Y0144608D01*
X0267162Y0147618D02*
X0271970Y0147618D01*
X0271970Y0150016D02*
X0267173Y0150016D01*
X0265733Y0152415D02*
X0271970Y0152415D01*
X0271970Y0154813D02*
X0265300Y0154813D01*
X0265094Y0154608D02*
X0266496Y0156009D01*
X0267254Y0157840D01*
X0267254Y0159821D01*
X0266496Y0161652D01*
X0265094Y0163053D01*
X0263264Y0163812D01*
X0256082Y0163812D01*
X0254251Y0163053D01*
X0252850Y0161652D01*
X0252092Y0159821D01*
X0252092Y0157840D01*
X0252850Y0156009D01*
X0254251Y0154608D01*
X0256082Y0153850D01*
X0263264Y0153850D01*
X0265094Y0154608D01*
X0266994Y0157212D02*
X0271970Y0157212D01*
X0271970Y0159610D02*
X0267254Y0159610D01*
X0266139Y0162009D02*
X0271970Y0162009D01*
X0271970Y0164407D02*
X0264610Y0164407D01*
X0265094Y0164608D02*
X0266496Y0166009D01*
X0267254Y0167840D01*
X0267254Y0169821D01*
X0266496Y0171652D01*
X0265094Y0173053D01*
X0263264Y0173812D01*
X0256082Y0173812D01*
X0254251Y0173053D01*
X0252850Y0171652D01*
X0252092Y0169821D01*
X0252092Y0167840D01*
X0252850Y0166009D01*
X0254251Y0164608D01*
X0256082Y0163850D01*
X0263264Y0163850D01*
X0265094Y0164608D01*
X0266826Y0166806D02*
X0271970Y0166806D01*
X0271970Y0169204D02*
X0267254Y0169204D01*
X0266516Y0171603D02*
X0271970Y0171603D01*
X0271970Y0174001D02*
X0248441Y0174001D01*
X0248441Y0171603D02*
X0252830Y0171603D01*
X0252092Y0169204D02*
X0248441Y0169204D01*
X0248441Y0166806D02*
X0252520Y0166806D01*
X0254735Y0164407D02*
X0248441Y0164407D01*
X0248441Y0162009D02*
X0253207Y0162009D01*
X0252092Y0159610D02*
X0248441Y0159610D01*
X0248441Y0157212D02*
X0252352Y0157212D01*
X0254046Y0154813D02*
X0247414Y0154813D01*
X0245016Y0152415D02*
X0253613Y0152415D01*
X0252172Y0150016D02*
X0242617Y0150016D01*
X0242838Y0147618D02*
X0252184Y0147618D01*
X0253640Y0145219D02*
X0245893Y0145219D01*
X0247863Y0142821D02*
X0254019Y0142821D01*
X0252341Y0140422D02*
X0250262Y0140422D01*
X0248839Y0136780D02*
X0248839Y0130231D01*
X0251117Y0127953D01*
X0258795Y0127953D01*
X0259673Y0128831D01*
X0255650Y0123633D02*
X0227320Y0123633D01*
X0227320Y0123040D02*
X0227320Y0126006D01*
X0227170Y0126565D01*
X0226881Y0127067D01*
X0226471Y0127477D01*
X0225969Y0127766D01*
X0225410Y0127916D01*
X0221460Y0127916D01*
X0221460Y0123040D01*
X0227320Y0123040D01*
X0227320Y0122487D02*
X0227320Y0119521D01*
X0227170Y0118961D01*
X0226881Y0118460D01*
X0226471Y0118050D01*
X0225969Y0117761D01*
X0225410Y0117611D01*
X0221460Y0117611D01*
X0221460Y0122487D01*
X0221460Y0123040D01*
X0220907Y0123040D01*
X0220907Y0127916D01*
X0216956Y0127916D01*
X0216397Y0127766D01*
X0215895Y0127477D01*
X0215486Y0127067D01*
X0215196Y0126565D01*
X0215046Y0126006D01*
X0215046Y0123040D01*
X0220907Y0123040D01*
X0220907Y0122487D01*
X0221460Y0122487D01*
X0227320Y0122487D01*
X0227320Y0121234D02*
X0252677Y0121234D01*
X0252092Y0118836D02*
X0227098Y0118836D01*
X0221460Y0118836D02*
X0220907Y0118836D01*
X0220907Y0117611D02*
X0220907Y0122487D01*
X0215046Y0122487D01*
X0215046Y0119521D01*
X0215196Y0118961D01*
X0215486Y0118460D01*
X0215895Y0118050D01*
X0216397Y0117761D01*
X0216956Y0117611D01*
X0220907Y0117611D01*
X0220907Y0121234D02*
X0221460Y0121234D01*
X0221460Y0123633D02*
X0220907Y0123633D01*
X0220907Y0126031D02*
X0221460Y0126031D01*
X0227313Y0126031D02*
X0247974Y0126031D01*
X0245709Y0128430D02*
X0198218Y0128430D01*
X0198288Y0128309D02*
X0197998Y0128811D01*
X0197588Y0129220D01*
X0197087Y0129510D01*
X0196527Y0129660D01*
X0192577Y0129660D01*
X0192577Y0124784D01*
X0192024Y0124784D01*
X0192024Y0124231D01*
X0186163Y0124231D01*
X0186163Y0121265D01*
X0186313Y0120705D01*
X0186603Y0120204D01*
X0187013Y0119794D01*
X0187514Y0119504D01*
X0188074Y0119354D01*
X0192024Y0119354D01*
X0192024Y0124231D01*
X0192577Y0124231D01*
X0192577Y0124784D01*
X0198437Y0124784D01*
X0198437Y0127750D01*
X0198288Y0128309D01*
X0198437Y0126031D02*
X0215053Y0126031D01*
X0215046Y0123633D02*
X0198437Y0123633D01*
X0198437Y0124231D02*
X0192577Y0124231D01*
X0192577Y0119354D01*
X0196527Y0119354D01*
X0197087Y0119504D01*
X0197588Y0119794D01*
X0197998Y0120204D01*
X0198288Y0120705D01*
X0198437Y0121265D01*
X0198437Y0124231D01*
X0198429Y0121234D02*
X0215046Y0121234D01*
X0215269Y0118836D02*
X0180030Y0118836D01*
X0180030Y0121234D02*
X0186172Y0121234D01*
X0186163Y0123633D02*
X0180030Y0123633D01*
X0184200Y0126031D02*
X0186163Y0126031D01*
X0186383Y0128430D02*
X0185011Y0128430D01*
X0192024Y0128430D02*
X0192577Y0128430D01*
X0192577Y0126031D02*
X0192024Y0126031D01*
X0192024Y0123633D02*
X0192577Y0123633D01*
X0192577Y0121234D02*
X0192024Y0121234D01*
X0189089Y0116437D02*
X0180030Y0116437D01*
X0181586Y0114039D02*
X0186336Y0114039D01*
X0191667Y0109242D02*
X0217127Y0109242D01*
X0216433Y0106843D02*
X0191414Y0106843D01*
X0190879Y0104445D02*
X0217009Y0104445D01*
X0216433Y0106727D02*
X0223833Y0106727D01*
X0223833Y0106727D01*
X0216433Y0106727D01*
X0220107Y0102046D02*
X0188148Y0102046D01*
X0179518Y0102046D02*
X0175561Y0102046D01*
X0175561Y0101295D02*
X0175561Y0104261D01*
X0169701Y0104261D01*
X0169701Y0104814D01*
X0175561Y0104814D01*
X0175561Y0107780D01*
X0175411Y0108339D01*
X0175122Y0108841D01*
X0174712Y0109250D01*
X0174210Y0109540D01*
X0173651Y0109690D01*
X0169700Y0109690D01*
X0169700Y0104814D01*
X0169148Y0104814D01*
X0169148Y0109690D01*
X0165197Y0109690D01*
X0164638Y0109540D01*
X0164136Y0109250D01*
X0163727Y0108841D01*
X0163437Y0108339D01*
X0163287Y0107780D01*
X0163287Y0104814D01*
X0169148Y0104814D01*
X0169148Y0104261D01*
X0169700Y0104261D01*
X0169700Y0099384D01*
X0173651Y0099384D01*
X0174210Y0099534D01*
X0174712Y0099824D01*
X0175122Y0100234D01*
X0175411Y0100735D01*
X0175561Y0101295D01*
X0174406Y0099648D02*
X0236714Y0099648D01*
X0236714Y0100175D02*
X0236714Y0097197D01*
X0236832Y0096451D01*
X0237066Y0095732D01*
X0237409Y0095059D01*
X0237853Y0094448D01*
X0238387Y0093913D01*
X0238998Y0093469D01*
X0239671Y0093126D01*
X0240390Y0092893D01*
X0241136Y0092775D01*
X0241514Y0092775D01*
X0241892Y0092775D01*
X0242638Y0092893D01*
X0243357Y0093126D01*
X0244030Y0093469D01*
X0244641Y0093913D01*
X0245175Y0094448D01*
X0245619Y0095059D01*
X0245962Y0095732D01*
X0246196Y0096451D01*
X0246314Y0097197D01*
X0246314Y0100175D01*
X0246314Y0103152D01*
X0246196Y0103899D01*
X0245962Y0104617D01*
X0245619Y0105290D01*
X0245175Y0105902D01*
X0244641Y0106436D01*
X0244030Y0106880D01*
X0243357Y0107223D01*
X0242638Y0107456D01*
X0241892Y0107575D01*
X0241514Y0107575D01*
X0241514Y0100175D01*
X0241514Y0100175D01*
X0241514Y0107575D01*
X0241136Y0107575D01*
X0240390Y0107456D01*
X0239671Y0107223D01*
X0238998Y0106880D01*
X0238387Y0106436D01*
X0237853Y0105902D01*
X0237409Y0105290D01*
X0237066Y0104617D01*
X0236832Y0103899D01*
X0236714Y0103152D01*
X0236714Y0100175D01*
X0241514Y0100175D01*
X0246314Y0100175D01*
X0241514Y0100175D01*
X0241514Y0100175D01*
X0241514Y0100175D01*
X0236714Y0100175D01*
X0236714Y0102046D02*
X0227559Y0102046D01*
X0223833Y0102046D02*
X0223833Y0102046D01*
X0223833Y0104445D02*
X0223833Y0104445D01*
X0230657Y0104445D02*
X0237010Y0104445D01*
X0238947Y0106843D02*
X0231233Y0106843D01*
X0230539Y0109242D02*
X0271970Y0109242D01*
X0271970Y0111640D02*
X0257547Y0111640D01*
X0246314Y0102046D02*
X0272361Y0102046D01*
X0271970Y0104445D02*
X0246018Y0104445D01*
X0244080Y0106843D02*
X0271970Y0106843D01*
X0279132Y0106843D02*
X0291403Y0106843D01*
X0291403Y0109242D02*
X0279132Y0109242D01*
X0279132Y0111640D02*
X0291386Y0111640D01*
X0297333Y0110387D02*
X0305768Y0110387D01*
X0308911Y0113531D01*
X0313863Y0118836D02*
X0314111Y0118836D01*
X0314425Y0121234D02*
X0296669Y0121234D01*
X0297254Y0118836D02*
X0303959Y0118836D01*
X0302593Y0116437D02*
X0296704Y0116437D01*
X0297333Y0110387D02*
X0290246Y0118257D01*
X0289673Y0118831D01*
X0285625Y0114039D02*
X0279132Y0114039D01*
X0279132Y0116437D02*
X0282673Y0116437D01*
X0282092Y0118836D02*
X0279132Y0118836D01*
X0279132Y0121234D02*
X0282677Y0121234D01*
X0285650Y0123633D02*
X0279132Y0123633D01*
X0279132Y0126031D02*
X0282841Y0126031D01*
X0282092Y0128430D02*
X0279132Y0128430D01*
X0279132Y0130828D02*
X0282509Y0130828D01*
X0284670Y0133227D02*
X0279132Y0133227D01*
X0279132Y0135625D02*
X0283234Y0135625D01*
X0282092Y0138024D02*
X0279132Y0138024D01*
X0279132Y0140422D02*
X0282341Y0140422D01*
X0284019Y0142821D02*
X0279132Y0142821D01*
X0279132Y0145219D02*
X0283640Y0145219D01*
X0284251Y0144608D02*
X0286082Y0143850D01*
X0293264Y0143850D01*
X0295094Y0144608D01*
X0296496Y0146009D01*
X0297254Y0147840D01*
X0297254Y0149821D01*
X0296496Y0151652D01*
X0295094Y0153053D01*
X0293264Y0153812D01*
X0286082Y0153812D01*
X0284251Y0153053D01*
X0282850Y0151652D01*
X0282092Y0149821D01*
X0282092Y0147840D01*
X0282850Y0146009D01*
X0284251Y0144608D01*
X0282184Y0147618D02*
X0279132Y0147618D01*
X0279132Y0150016D02*
X0282172Y0150016D01*
X0283613Y0152415D02*
X0279132Y0152415D01*
X0279132Y0154813D02*
X0284046Y0154813D01*
X0284251Y0154608D02*
X0286082Y0153850D01*
X0293264Y0153850D01*
X0295094Y0154608D01*
X0296496Y0156009D01*
X0297254Y0157840D01*
X0297254Y0159821D01*
X0296496Y0161652D01*
X0295094Y0163053D01*
X0293264Y0163812D01*
X0286082Y0163812D01*
X0284251Y0163053D01*
X0282850Y0161652D01*
X0282092Y0159821D01*
X0282092Y0157840D01*
X0282850Y0156009D01*
X0284251Y0154608D01*
X0282352Y0157212D02*
X0279132Y0157212D01*
X0279132Y0159610D02*
X0282092Y0159610D01*
X0283207Y0162009D02*
X0279132Y0162009D01*
X0279132Y0164407D02*
X0284735Y0164407D01*
X0284251Y0164608D02*
X0286082Y0163850D01*
X0293264Y0163850D01*
X0295094Y0164608D01*
X0296496Y0166009D01*
X0297254Y0167840D01*
X0297254Y0169821D01*
X0296496Y0171652D01*
X0295094Y0173053D01*
X0293264Y0173812D01*
X0286082Y0173812D01*
X0284251Y0173053D01*
X0282850Y0171652D01*
X0282092Y0169821D01*
X0282092Y0167840D01*
X0282850Y0166009D01*
X0284251Y0164608D01*
X0282520Y0166806D02*
X0279132Y0166806D01*
X0279132Y0169204D02*
X0282092Y0169204D01*
X0282830Y0171603D02*
X0279132Y0171603D01*
X0279132Y0174001D02*
X0285715Y0174001D01*
X0289673Y0178831D02*
X0278816Y0178831D01*
X0275163Y0182484D01*
X0275163Y0185592D01*
X0278744Y0185994D02*
X0283201Y0185994D01*
X0283412Y0185704D02*
X0283946Y0185169D01*
X0284557Y0184725D01*
X0285230Y0184382D01*
X0285949Y0184149D01*
X0286695Y0184031D01*
X0289673Y0184031D01*
X0292651Y0184031D01*
X0293397Y0184149D01*
X0294115Y0184382D01*
X0294789Y0184725D01*
X0295400Y0185169D01*
X0295934Y0185704D01*
X0296378Y0186315D01*
X0296721Y0186988D01*
X0296888Y0187501D01*
X0296973Y0187416D01*
X0297474Y0187126D01*
X0298034Y0186977D01*
X0301393Y0186977D01*
X0301393Y0191656D01*
X0296153Y0191656D01*
X0295934Y0191958D01*
X0295400Y0192492D01*
X0294789Y0192936D01*
X0294115Y0193279D01*
X0293397Y0193512D01*
X0292651Y0193631D01*
X0289673Y0193631D01*
X0289673Y0188831D01*
X0289673Y0188831D01*
X0289673Y0193631D01*
X0286695Y0193631D01*
X0285949Y0193512D01*
X0285230Y0193279D01*
X0284557Y0192936D01*
X0283946Y0192492D01*
X0283412Y0191958D01*
X0282967Y0191346D01*
X0282624Y0190673D01*
X0282391Y0189955D01*
X0282273Y0189208D01*
X0282273Y0188831D01*
X0289673Y0188831D01*
X0289673Y0188831D01*
X0289673Y0184031D01*
X0289673Y0188831D01*
X0289673Y0188831D01*
X0282273Y0188831D01*
X0282273Y0188453D01*
X0282391Y0187707D01*
X0282624Y0186988D01*
X0282967Y0186315D01*
X0283412Y0185704D01*
X0282282Y0188393D02*
X0278744Y0188393D01*
X0277864Y0190791D02*
X0282684Y0190791D01*
X0285055Y0193190D02*
X0275465Y0193190D01*
X0273066Y0195588D02*
X0283271Y0195588D01*
X0282850Y0196009D02*
X0284251Y0194608D01*
X0286082Y0193850D01*
X0293264Y0193850D01*
X0295094Y0194608D01*
X0295736Y0195250D01*
X0296334Y0195250D01*
X0296273Y0195144D01*
X0296123Y0194584D01*
X0296123Y0191815D01*
X0301393Y0191815D01*
X0301393Y0191656D01*
X0301553Y0191656D01*
X0301553Y0191815D01*
X0306823Y0191815D01*
X0306823Y0194584D01*
X0306673Y0195144D01*
X0306482Y0195474D01*
X0308731Y0195474D01*
X0313659Y0190545D01*
X0314976Y0190000D01*
X0317334Y0190000D01*
X0317975Y0189359D01*
X0319806Y0188600D01*
X0321788Y0188600D01*
X0323619Y0189359D01*
X0325020Y0190760D01*
X0325778Y0192591D01*
X0325778Y0194572D01*
X0325020Y0196403D01*
X0323619Y0197804D01*
X0321788Y0198562D01*
X0319806Y0198562D01*
X0317975Y0197804D01*
X0317334Y0197162D01*
X0317171Y0197162D01*
X0313250Y0201084D01*
X0312242Y0202091D01*
X0310926Y0202636D01*
X0307004Y0202636D01*
X0307004Y0203155D01*
X0306247Y0203912D01*
X0306736Y0204402D01*
X0316911Y0204402D01*
X0318227Y0204947D01*
X0320880Y0207600D01*
X0321788Y0207600D01*
X0323619Y0208359D01*
X0325020Y0209760D01*
X0325778Y0211591D01*
X0325778Y0213572D01*
X0325020Y0215403D01*
X0323619Y0216804D01*
X0321788Y0217562D01*
X0319806Y0217562D01*
X0317975Y0216804D01*
X0316574Y0215403D01*
X0315816Y0213572D01*
X0315816Y0212665D01*
X0314715Y0211564D01*
X0306736Y0211564D01*
X0306225Y0212075D01*
X0306441Y0212449D01*
X0306591Y0213008D01*
X0306591Y0215777D01*
X0301321Y0215777D01*
X0301321Y0215936D01*
X0306591Y0215936D01*
X0306591Y0218706D01*
X0306441Y0219265D01*
X0306152Y0219767D01*
X0305742Y0220176D01*
X0305240Y0220466D01*
X0304681Y0220616D01*
X0301321Y0220616D01*
X0301321Y0215937D01*
X0301162Y0215937D01*
X0301162Y0220616D01*
X0297802Y0220616D01*
X0297243Y0220466D01*
X0297036Y0220347D01*
X0296496Y0221652D01*
X0295094Y0223053D01*
X0293264Y0223812D01*
X0286082Y0223812D01*
X0284251Y0223053D01*
X0282850Y0221652D01*
X0282092Y0219821D01*
X0282092Y0217840D01*
X0282850Y0216009D01*
X0284251Y0214608D01*
X0286082Y0213850D01*
X0293264Y0213850D01*
X0295094Y0214608D01*
X0295892Y0215405D01*
X0295892Y0213008D01*
X0296042Y0212449D01*
X0296258Y0212075D01*
X0296165Y0211983D01*
X0295094Y0213053D01*
X0293264Y0213812D01*
X0286082Y0213812D01*
X0284251Y0213053D01*
X0282850Y0211652D01*
X0282092Y0209821D01*
X0282092Y0207840D01*
X0282850Y0206009D01*
X0284251Y0204608D01*
X0286082Y0203850D01*
X0293264Y0203850D01*
X0295094Y0204608D01*
X0295148Y0204662D01*
X0295711Y0204637D01*
X0295711Y0204438D01*
X0296468Y0203680D01*
X0295942Y0203155D01*
X0295942Y0202412D01*
X0295736Y0202412D01*
X0295094Y0203053D01*
X0293264Y0203812D01*
X0286082Y0203812D01*
X0284251Y0203053D01*
X0282850Y0201652D01*
X0282092Y0199821D01*
X0282092Y0197840D01*
X0282850Y0196009D01*
X0282092Y0197987D02*
X0270668Y0197987D01*
X0268269Y0200385D02*
X0282325Y0200385D01*
X0283981Y0202784D02*
X0265364Y0202784D01*
X0265669Y0205182D02*
X0283677Y0205182D01*
X0282199Y0207581D02*
X0271835Y0207581D01*
X0274234Y0209979D02*
X0282157Y0209979D01*
X0283575Y0212378D02*
X0276632Y0212378D01*
X0277575Y0214776D02*
X0284083Y0214776D01*
X0282367Y0217175D02*
X0277575Y0217175D01*
X0277575Y0219573D02*
X0282092Y0219573D01*
X0283169Y0221972D02*
X0277575Y0221972D01*
X0277575Y0224370D02*
X0284825Y0224370D01*
X0284251Y0224608D02*
X0286082Y0223850D01*
X0293264Y0223850D01*
X0295094Y0224608D01*
X0296496Y0226009D01*
X0297254Y0227840D01*
X0297254Y0229821D01*
X0296496Y0231652D01*
X0295094Y0233053D01*
X0293264Y0233812D01*
X0286082Y0233812D01*
X0284251Y0233053D01*
X0282850Y0231652D01*
X0282092Y0229821D01*
X0282092Y0227840D01*
X0282850Y0226009D01*
X0284251Y0224608D01*
X0282535Y0226769D02*
X0277575Y0226769D01*
X0277575Y0229167D02*
X0282092Y0229167D01*
X0282814Y0231566D02*
X0277575Y0231566D01*
X0277575Y0233964D02*
X0285805Y0233964D01*
X0286082Y0233850D02*
X0284251Y0234608D01*
X0282850Y0236009D01*
X0282092Y0237840D01*
X0282092Y0239821D01*
X0282850Y0241652D01*
X0284251Y0243053D01*
X0286082Y0243812D01*
X0293264Y0243812D01*
X0295094Y0243053D01*
X0296496Y0241652D01*
X0297254Y0239821D01*
X0297254Y0237840D01*
X0296496Y0236009D01*
X0295094Y0234608D01*
X0293264Y0233850D01*
X0286082Y0233850D01*
X0282704Y0236363D02*
X0277575Y0236363D01*
X0277575Y0238761D02*
X0282092Y0238761D01*
X0282646Y0241160D02*
X0277575Y0241160D01*
X0277575Y0243558D02*
X0285470Y0243558D01*
X0286082Y0243850D02*
X0284251Y0244608D01*
X0282850Y0246009D01*
X0282092Y0247840D01*
X0282092Y0249821D01*
X0282850Y0251652D01*
X0284251Y0253053D01*
X0286082Y0253812D01*
X0293264Y0253812D01*
X0295094Y0253053D01*
X0296496Y0251652D01*
X0297254Y0249821D01*
X0297254Y0247840D01*
X0296496Y0246009D01*
X0295094Y0244608D01*
X0293264Y0243850D01*
X0286082Y0243850D01*
X0282902Y0245957D02*
X0277575Y0245957D01*
X0277575Y0248355D02*
X0282092Y0248355D01*
X0282478Y0250754D02*
X0277575Y0250754D01*
X0277575Y0253152D02*
X0284490Y0253152D01*
X0277575Y0255551D02*
X0302117Y0255551D01*
X0302265Y0255699D02*
X0301855Y0255289D01*
X0301566Y0254787D01*
X0301416Y0254228D01*
X0301416Y0251163D01*
X0306790Y0251163D01*
X0306790Y0250414D01*
X0301416Y0250414D01*
X0301416Y0247349D01*
X0301566Y0246790D01*
X0301855Y0246288D01*
X0302265Y0245879D01*
X0302767Y0245589D01*
X0303326Y0245439D01*
X0306790Y0245439D01*
X0306790Y0250414D01*
X0307540Y0250414D01*
X0307540Y0251163D01*
X0312914Y0251163D01*
X0312914Y0254228D01*
X0312764Y0254787D01*
X0312475Y0255289D01*
X0312065Y0255699D01*
X0311563Y0255988D01*
X0311004Y0256138D01*
X0307540Y0256138D01*
X0307540Y0251164D01*
X0306790Y0251164D01*
X0306790Y0256138D01*
X0303326Y0256138D01*
X0302767Y0255988D01*
X0302265Y0255699D01*
X0301235Y0257949D02*
X0278109Y0257949D01*
X0277143Y0262047D02*
X0294505Y0262047D01*
X0307165Y0261985D01*
X0320990Y0261985D01*
X0322835Y0259894D01*
X0317454Y0257949D02*
X0313095Y0257949D01*
X0312213Y0255551D02*
X0317567Y0255551D01*
X0318966Y0253152D02*
X0312914Y0253152D01*
X0312914Y0250414D02*
X0307540Y0250414D01*
X0307540Y0245439D01*
X0311004Y0245439D01*
X0311563Y0245589D01*
X0312065Y0245879D01*
X0312475Y0246288D01*
X0312764Y0246790D01*
X0312914Y0247349D01*
X0312914Y0250414D01*
X0312914Y0248355D02*
X0352577Y0248355D01*
X0352570Y0245957D02*
X0312143Y0245957D01*
X0307540Y0245957D02*
X0306790Y0245957D01*
X0306790Y0248355D02*
X0307540Y0248355D01*
X0307540Y0250754D02*
X0352584Y0250754D01*
X0352592Y0253152D02*
X0344503Y0253152D01*
X0345197Y0253846D02*
X0343683Y0252332D01*
X0341705Y0251513D01*
X0339565Y0251513D01*
X0337587Y0252332D01*
X0336073Y0253846D01*
X0335254Y0255824D01*
X0335254Y0263964D01*
X0336073Y0265942D01*
X0337587Y0267456D01*
X0339565Y0268275D01*
X0341705Y0268275D01*
X0343683Y0267456D01*
X0345197Y0265942D01*
X0346016Y0263964D01*
X0346016Y0255824D01*
X0345197Y0253846D01*
X0345903Y0255551D02*
X0352599Y0255551D01*
X0352606Y0257949D02*
X0346016Y0257949D01*
X0346016Y0260348D02*
X0352613Y0260348D01*
X0352620Y0262746D02*
X0346016Y0262746D01*
X0345527Y0265145D02*
X0352627Y0265145D01*
X0352635Y0267543D02*
X0343472Y0267543D01*
X0337798Y0267543D02*
X0325672Y0267543D01*
X0327727Y0265145D02*
X0335743Y0265145D01*
X0335254Y0262746D02*
X0328216Y0262746D01*
X0328216Y0260348D02*
X0335254Y0260348D01*
X0335254Y0257949D02*
X0328216Y0257949D01*
X0328103Y0255551D02*
X0335367Y0255551D01*
X0336766Y0253152D02*
X0326703Y0253152D01*
X0323905Y0242675D02*
X0321765Y0242675D01*
X0319787Y0241856D01*
X0318273Y0240342D01*
X0317454Y0238364D01*
X0317454Y0230224D01*
X0318273Y0228246D01*
X0319787Y0226732D01*
X0321765Y0225913D01*
X0323905Y0225913D01*
X0325883Y0226732D01*
X0327397Y0228246D01*
X0328216Y0230224D01*
X0328216Y0238364D01*
X0327397Y0240342D01*
X0325883Y0241856D01*
X0323905Y0242675D01*
X0326579Y0241160D02*
X0336891Y0241160D01*
X0337587Y0241856D02*
X0336073Y0240342D01*
X0335254Y0238364D01*
X0335254Y0230224D01*
X0336073Y0228246D01*
X0337587Y0226732D01*
X0339565Y0225913D01*
X0341705Y0225913D01*
X0343683Y0226732D01*
X0345197Y0228246D01*
X0346016Y0230224D01*
X0346016Y0238364D01*
X0345197Y0240342D01*
X0343683Y0241856D01*
X0341705Y0242675D01*
X0339565Y0242675D01*
X0337587Y0241856D01*
X0335418Y0238761D02*
X0328052Y0238761D01*
X0328216Y0236363D02*
X0335254Y0236363D01*
X0335254Y0233964D02*
X0328216Y0233964D01*
X0328216Y0231566D02*
X0335254Y0231566D01*
X0335691Y0229167D02*
X0327778Y0229167D01*
X0325920Y0226769D02*
X0337550Y0226769D01*
X0343720Y0226769D02*
X0352513Y0226769D01*
X0352520Y0229167D02*
X0345578Y0229167D01*
X0346016Y0231566D02*
X0352527Y0231566D01*
X0352534Y0233964D02*
X0346016Y0233964D01*
X0346016Y0236363D02*
X0352541Y0236363D01*
X0352549Y0238761D02*
X0345852Y0238761D01*
X0344379Y0241160D02*
X0352556Y0241160D01*
X0352563Y0243558D02*
X0293876Y0243558D01*
X0296443Y0245957D02*
X0302187Y0245957D01*
X0301416Y0248355D02*
X0297254Y0248355D01*
X0296868Y0250754D02*
X0306790Y0250754D01*
X0306790Y0253152D02*
X0307540Y0253152D01*
X0307540Y0255551D02*
X0306790Y0255551D01*
X0301416Y0253152D02*
X0294856Y0253152D01*
X0296700Y0241160D02*
X0319091Y0241160D01*
X0317618Y0238761D02*
X0297254Y0238761D01*
X0296642Y0236363D02*
X0317454Y0236363D01*
X0317454Y0233964D02*
X0293540Y0233964D01*
X0296531Y0231566D02*
X0317454Y0231566D01*
X0317891Y0229167D02*
X0297254Y0229167D01*
X0296810Y0226769D02*
X0319750Y0226769D01*
X0318870Y0217175D02*
X0306591Y0217175D01*
X0306591Y0214776D02*
X0316315Y0214776D01*
X0315529Y0212378D02*
X0306400Y0212378D01*
X0301321Y0217175D02*
X0301162Y0217175D01*
X0301162Y0219573D02*
X0301321Y0219573D01*
X0306263Y0219573D02*
X0352491Y0219573D01*
X0352484Y0217175D02*
X0322724Y0217175D01*
X0325279Y0214776D02*
X0352477Y0214776D01*
X0352470Y0212378D02*
X0325778Y0212378D01*
X0325111Y0209979D02*
X0352463Y0209979D01*
X0352456Y0207581D02*
X0320861Y0207581D01*
X0318462Y0205182D02*
X0352448Y0205182D01*
X0352441Y0202784D02*
X0307004Y0202784D01*
X0310214Y0199055D02*
X0302027Y0199055D01*
X0301473Y0199610D01*
X0300694Y0198831D01*
X0289673Y0198831D01*
X0289673Y0193190D02*
X0289673Y0193190D01*
X0289673Y0190791D02*
X0289673Y0190791D01*
X0289673Y0188393D02*
X0289673Y0188393D01*
X0289673Y0185994D02*
X0289673Y0185994D01*
X0285560Y0183595D02*
X0279115Y0183595D01*
X0271819Y0181197D02*
X0266454Y0181197D01*
X0266378Y0181346D02*
X0266721Y0180673D01*
X0266955Y0179955D01*
X0267073Y0179208D01*
X0267073Y0178831D01*
X0259673Y0178831D01*
X0259673Y0178831D01*
X0259673Y0183631D01*
X0262651Y0183631D01*
X0263397Y0183512D01*
X0264115Y0183279D01*
X0264789Y0182936D01*
X0265400Y0182492D01*
X0265934Y0181958D01*
X0266378Y0181346D01*
X0267073Y0178831D02*
X0259673Y0178831D01*
X0259673Y0178831D01*
X0259673Y0183631D01*
X0256695Y0183631D01*
X0255949Y0183512D01*
X0255230Y0183279D01*
X0254557Y0182936D01*
X0253946Y0182492D01*
X0253412Y0181958D01*
X0252967Y0181346D01*
X0252624Y0180673D01*
X0252391Y0179955D01*
X0252273Y0179208D01*
X0252273Y0178831D01*
X0259673Y0178831D01*
X0259673Y0178831D01*
X0259673Y0174031D01*
X0262651Y0174031D01*
X0263397Y0174149D01*
X0264115Y0174382D01*
X0264789Y0174725D01*
X0265400Y0175169D01*
X0265934Y0175704D01*
X0266378Y0176315D01*
X0266721Y0176988D01*
X0266955Y0177707D01*
X0267073Y0178453D01*
X0267073Y0178831D01*
X0267073Y0178798D02*
X0271970Y0178798D01*
X0271970Y0176400D02*
X0266421Y0176400D01*
X0259673Y0176400D02*
X0259673Y0176400D01*
X0259673Y0174031D02*
X0256695Y0174031D01*
X0255949Y0174149D01*
X0255230Y0174382D01*
X0254557Y0174725D01*
X0253946Y0175169D01*
X0253412Y0175704D01*
X0252967Y0176315D01*
X0252624Y0176988D01*
X0252391Y0177707D01*
X0252273Y0178453D01*
X0252273Y0178831D01*
X0259673Y0178831D01*
X0259673Y0178831D01*
X0259673Y0174031D01*
X0259673Y0178798D02*
X0259673Y0178798D01*
X0259673Y0181197D02*
X0259673Y0181197D01*
X0259673Y0183595D02*
X0259673Y0183595D01*
X0262872Y0183595D02*
X0271582Y0183595D01*
X0271547Y0185994D02*
X0266480Y0185994D01*
X0267254Y0188393D02*
X0270133Y0188393D01*
X0267735Y0190791D02*
X0266852Y0190791D01*
X0265336Y0193190D02*
X0264766Y0193190D01*
X0260355Y0198148D02*
X0259673Y0198831D01*
X0253981Y0202784D02*
X0248928Y0202784D01*
X0251326Y0205182D02*
X0253677Y0205182D01*
X0249911Y0208831D02*
X0246434Y0205355D01*
X0232781Y0205355D01*
X0232557Y0205130D01*
X0237912Y0209979D02*
X0245995Y0209979D01*
X0249116Y0212378D02*
X0242774Y0212378D01*
X0245172Y0214776D02*
X0254083Y0214776D01*
X0259583Y0218740D02*
X0259673Y0218831D01*
X0259583Y0218740D02*
X0244072Y0218740D01*
X0240462Y0215130D01*
X0232557Y0215130D01*
X0227202Y0209979D02*
X0224031Y0209979D01*
X0224031Y0207581D02*
X0224747Y0207581D01*
X0224176Y0205182D02*
X0224031Y0205182D01*
X0224149Y0202784D02*
X0224704Y0202784D01*
X0226547Y0200385D02*
X0226951Y0200385D01*
X0226738Y0195130D02*
X0220450Y0201418D01*
X0220450Y0226614D01*
X0218875Y0228189D01*
X0212590Y0228189D01*
X0212400Y0227999D01*
X0209488Y0231566D02*
X0196384Y0231566D01*
X0196384Y0229167D02*
X0207925Y0229167D01*
X0207951Y0226769D02*
X0196384Y0226769D01*
X0196384Y0224370D02*
X0209550Y0224370D01*
X0210021Y0221972D02*
X0196384Y0221972D01*
X0196384Y0219573D02*
X0208094Y0219573D01*
X0207819Y0217175D02*
X0196384Y0217175D01*
X0196384Y0214776D02*
X0209144Y0214776D01*
X0215656Y0214776D02*
X0216869Y0214776D01*
X0216869Y0212378D02*
X0196384Y0212378D01*
X0196384Y0209979D02*
X0216869Y0209979D01*
X0216869Y0207581D02*
X0196384Y0207581D01*
X0196384Y0205182D02*
X0216869Y0205182D01*
X0216869Y0202784D02*
X0196384Y0202784D01*
X0196384Y0200385D02*
X0217002Y0200385D01*
X0218422Y0198382D02*
X0218422Y0198382D01*
X0218817Y0197987D02*
X0196384Y0197987D01*
X0195824Y0195588D02*
X0221215Y0195588D01*
X0223614Y0193190D02*
X0194666Y0193190D01*
X0192836Y0190791D02*
X0226286Y0190791D01*
X0225209Y0188393D02*
X0186384Y0188393D01*
X0186384Y0190791D02*
X0186569Y0190791D01*
X0186384Y0185994D02*
X0224176Y0185994D01*
X0224368Y0183595D02*
X0186384Y0183595D01*
X0186384Y0181197D02*
X0225880Y0181197D01*
X0225871Y0178798D02*
X0214208Y0178798D01*
X0214169Y0178875D02*
X0213762Y0179435D01*
X0213272Y0179925D01*
X0212712Y0180332D01*
X0212095Y0180646D01*
X0211436Y0180860D01*
X0210752Y0180969D01*
X0210406Y0180969D01*
X0210406Y0176569D01*
X0214806Y0176569D01*
X0214806Y0176915D01*
X0214697Y0177599D01*
X0214483Y0178258D01*
X0214169Y0178875D01*
X0214806Y0176569D02*
X0210406Y0176569D01*
X0210406Y0176569D01*
X0210405Y0176569D01*
X0210405Y0176569D01*
X0206006Y0176569D01*
X0206006Y0176915D01*
X0206114Y0177599D01*
X0206328Y0178258D01*
X0206642Y0178875D01*
X0207049Y0179435D01*
X0207539Y0179925D01*
X0208099Y0180332D01*
X0208717Y0180646D01*
X0209375Y0180860D01*
X0210059Y0180969D01*
X0210405Y0180969D01*
X0210405Y0176569D01*
X0206006Y0176569D01*
X0206006Y0176222D01*
X0206114Y0175538D01*
X0206328Y0174880D01*
X0206642Y0174263D01*
X0207049Y0173702D01*
X0207539Y0173213D01*
X0208099Y0172805D01*
X0208717Y0172491D01*
X0209375Y0172277D01*
X0210059Y0172169D01*
X0210405Y0172169D01*
X0210405Y0176569D01*
X0210406Y0176569D01*
X0210406Y0172169D01*
X0210752Y0172169D01*
X0211436Y0172277D01*
X0212095Y0172491D01*
X0212712Y0172805D01*
X0213272Y0173213D01*
X0213762Y0173702D01*
X0214169Y0174263D01*
X0214483Y0174880D01*
X0214697Y0175538D01*
X0214806Y0176222D01*
X0214806Y0176569D01*
X0214806Y0176400D02*
X0224502Y0176400D01*
X0224357Y0175130D02*
X0232557Y0175130D01*
X0232557Y0169930D01*
X0232557Y0175130D01*
X0232557Y0175130D01*
X0224357Y0175130D01*
X0224471Y0174001D02*
X0213979Y0174001D01*
X0210406Y0174001D02*
X0210405Y0174001D01*
X0210405Y0176400D02*
X0210406Y0176400D01*
X0210405Y0178798D02*
X0210406Y0178798D01*
X0206603Y0178798D02*
X0186384Y0178798D01*
X0186384Y0176400D02*
X0206006Y0176400D01*
X0206832Y0174001D02*
X0186384Y0174001D01*
X0186384Y0171603D02*
X0225730Y0171603D01*
X0232557Y0171603D02*
X0232557Y0171603D01*
X0232557Y0174001D02*
X0232557Y0174001D01*
X0232557Y0175130D02*
X0232557Y0175130D01*
X0239383Y0171603D02*
X0241279Y0171603D01*
X0241279Y0169204D02*
X0214248Y0169204D01*
X0214987Y0166806D02*
X0241279Y0166806D01*
X0241279Y0164407D02*
X0214469Y0164407D01*
X0214414Y0162009D02*
X0241279Y0162009D01*
X0241279Y0159610D02*
X0216377Y0159610D01*
X0217087Y0157212D02*
X0239684Y0157212D01*
X0237286Y0154813D02*
X0216910Y0154813D01*
X0215700Y0152415D02*
X0221501Y0152415D01*
X0219103Y0150016D02*
X0213302Y0150016D01*
X0210903Y0147618D02*
X0216704Y0147618D01*
X0214306Y0145219D02*
X0161653Y0145219D01*
X0159255Y0142821D02*
X0211907Y0142821D01*
X0209509Y0140422D02*
X0198454Y0140422D01*
X0192161Y0130828D02*
X0214865Y0130828D01*
X0214865Y0133227D02*
X0212442Y0133227D01*
X0214840Y0135625D02*
X0214865Y0135625D01*
X0221183Y0134574D02*
X0221413Y0134410D01*
X0231457Y0134410D01*
X0237221Y0140175D01*
X0241514Y0140175D01*
X0245445Y0140175D01*
X0248839Y0136780D01*
X0252420Y0135625D02*
X0253234Y0135625D01*
X0252420Y0133227D02*
X0254670Y0133227D01*
X0245258Y0133227D02*
X0244033Y0133227D01*
X0245258Y0130828D02*
X0227501Y0130828D01*
X0227501Y0138024D02*
X0230006Y0138024D01*
X0232404Y0140422D02*
X0219637Y0140422D01*
X0222036Y0142821D02*
X0234803Y0142821D01*
X0237135Y0145219D02*
X0224434Y0145219D01*
X0239695Y0147618D02*
X0240190Y0147618D01*
X0238995Y0133227D02*
X0235338Y0133227D01*
X0203999Y0159610D02*
X0186186Y0159610D01*
X0186248Y0162009D02*
X0206397Y0162009D01*
X0206342Y0164407D02*
X0186362Y0164407D01*
X0186426Y0166806D02*
X0205824Y0166806D01*
X0206563Y0169204D02*
X0186384Y0169204D01*
X0179472Y0152632D02*
X0179505Y0152599D01*
X0179472Y0152632D02*
X0176449Y0152632D01*
X0171449Y0152632D02*
X0168449Y0152632D01*
X0154749Y0157212D02*
X0099239Y0157212D01*
X0099239Y0159610D02*
X0154186Y0159610D01*
X0153066Y0162009D02*
X0100726Y0162009D01*
X0103125Y0164407D02*
X0152954Y0164407D01*
X0153728Y0166806D02*
X0105523Y0166806D01*
X0107922Y0169204D02*
X0155782Y0169204D01*
X0158180Y0171603D02*
X0110320Y0171603D01*
X0099239Y0154813D02*
X0152350Y0154813D01*
X0149952Y0152415D02*
X0099239Y0152415D01*
X0099239Y0150016D02*
X0147553Y0150016D01*
X0145155Y0147618D02*
X0099239Y0147618D01*
X0099239Y0145219D02*
X0142756Y0145219D01*
X0144382Y0146845D02*
X0144382Y0146845D01*
X0141614Y0142821D02*
X0099239Y0142821D01*
X0099239Y0140422D02*
X0141486Y0140422D01*
X0141486Y0138024D02*
X0099239Y0138024D01*
X0099239Y0135625D02*
X0141486Y0135625D01*
X0141486Y0133227D02*
X0132750Y0133227D01*
X0132519Y0133458D02*
X0130303Y0133458D01*
X0128087Y0133458D01*
X0124953Y0130324D01*
X0124953Y0128108D01*
X0130303Y0128108D01*
X0130303Y0133458D01*
X0130303Y0128108D01*
X0130303Y0128108D01*
X0130303Y0128108D01*
X0124953Y0128108D01*
X0124953Y0125892D01*
X0128087Y0122758D01*
X0130303Y0122758D01*
X0130303Y0128108D01*
X0135653Y0128108D01*
X0135653Y0130324D01*
X0132519Y0133458D01*
X0130303Y0133227D02*
X0130303Y0133227D01*
X0130303Y0130828D02*
X0130303Y0130828D01*
X0130303Y0128430D02*
X0130303Y0128430D01*
X0130303Y0128108D02*
X0130303Y0128108D01*
X0130303Y0128108D01*
X0130303Y0122758D01*
X0132519Y0122758D01*
X0135653Y0125892D01*
X0135653Y0128108D01*
X0130303Y0128108D01*
X0130303Y0126031D02*
X0130303Y0126031D01*
X0130303Y0123633D02*
X0130303Y0123633D01*
X0127212Y0123633D02*
X0095737Y0123633D01*
X0098333Y0126031D02*
X0124953Y0126031D01*
X0124953Y0128430D02*
X0099239Y0128430D01*
X0099239Y0130828D02*
X0125458Y0130828D01*
X0127856Y0133227D02*
X0099239Y0133227D01*
X0089379Y0123633D02*
X0085737Y0123633D01*
X0079379Y0123633D02*
X0014460Y0123633D01*
X0014457Y0126031D02*
X0069912Y0126031D01*
X0072558Y0126031D02*
X0072558Y0126031D01*
X0072558Y0125148D02*
X0072558Y0129548D01*
X0072558Y0129548D01*
X0072558Y0125148D01*
X0075204Y0126031D02*
X0076626Y0126031D01*
X0072558Y0128430D02*
X0072558Y0128430D01*
X0072558Y0130828D02*
X0072558Y0130828D01*
X0072558Y0133227D02*
X0072558Y0133227D01*
X0070136Y0133227D02*
X0027001Y0133227D01*
X0026626Y0133105D02*
X0027404Y0133358D01*
X0028133Y0133729D01*
X0028796Y0134211D01*
X0029374Y0134789D01*
X0029856Y0135451D01*
X0030227Y0136181D01*
X0030480Y0136959D01*
X0030608Y0137768D01*
X0030608Y0138177D01*
X0030608Y0138586D01*
X0030480Y0139395D01*
X0030227Y0140173D01*
X0029856Y0140902D01*
X0029374Y0141564D01*
X0028796Y0142143D01*
X0028133Y0142624D01*
X0027404Y0142996D01*
X0026847Y0143177D01*
X0027404Y0143358D01*
X0028133Y0143729D01*
X0028796Y0144211D01*
X0029374Y0144789D01*
X0029856Y0145451D01*
X0030227Y0146181D01*
X0030480Y0146959D01*
X0030608Y0147768D01*
X0030608Y0148177D01*
X0030608Y0148586D01*
X0030480Y0149395D01*
X0030227Y0150173D01*
X0029856Y0150902D01*
X0029374Y0151564D01*
X0028796Y0152143D01*
X0028133Y0152624D01*
X0027404Y0152996D01*
X0026626Y0153249D01*
X0025817Y0153377D01*
X0022408Y0153377D01*
X0022408Y0148177D01*
X0022408Y0148177D01*
X0030608Y0148177D01*
X0022408Y0148177D01*
X0022408Y0148177D01*
X0022408Y0148177D01*
X0022408Y0142977D01*
X0022408Y0138177D01*
X0022408Y0138177D01*
X0030608Y0138177D01*
X0022408Y0138177D01*
X0022408Y0138177D01*
X0022408Y0138177D01*
X0022408Y0132977D01*
X0025817Y0132977D01*
X0026626Y0133105D01*
X0029944Y0135625D02*
X0075186Y0135625D01*
X0075186Y0133227D02*
X0074980Y0133227D01*
X0075186Y0138024D02*
X0030608Y0138024D01*
X0030100Y0140422D02*
X0075186Y0140422D01*
X0075186Y0142821D02*
X0027748Y0142821D01*
X0029687Y0145219D02*
X0075186Y0145219D01*
X0075186Y0147618D02*
X0030584Y0147618D01*
X0030278Y0150016D02*
X0075186Y0150016D01*
X0075186Y0152415D02*
X0028422Y0152415D01*
X0022408Y0152415D02*
X0022408Y0152415D01*
X0022408Y0150016D02*
X0022408Y0150016D01*
X0022408Y0147618D02*
X0022408Y0147618D01*
X0022408Y0145219D02*
X0022408Y0145219D01*
X0022408Y0142821D02*
X0022408Y0142821D01*
X0022408Y0140422D02*
X0022408Y0140422D01*
X0022408Y0138024D02*
X0022408Y0138024D01*
X0022408Y0135625D02*
X0022408Y0135625D01*
X0022408Y0133227D02*
X0022408Y0133227D01*
X0017815Y0133227D02*
X0014445Y0133227D01*
X0014442Y0135625D02*
X0014872Y0135625D01*
X0014449Y0130828D02*
X0068348Y0130828D01*
X0068295Y0128430D02*
X0014453Y0128430D01*
X0014464Y0121234D02*
X0016616Y0121234D01*
X0027625Y0121234D02*
X0137236Y0121234D01*
X0139634Y0123633D02*
X0133394Y0123633D01*
X0135653Y0126031D02*
X0141486Y0126031D01*
X0141486Y0128430D02*
X0135653Y0128430D01*
X0135149Y0130828D02*
X0141486Y0130828D01*
X0154848Y0130828D02*
X0163068Y0130828D01*
X0163068Y0132159D02*
X0163068Y0127539D01*
X0163218Y0126979D01*
X0163507Y0126478D01*
X0163917Y0126068D01*
X0164419Y0125778D01*
X0164978Y0125629D01*
X0166449Y0125629D01*
X0166449Y0132159D01*
X0166449Y0132159D01*
X0163068Y0132159D01*
X0166449Y0132159D01*
X0166449Y0132159D01*
X0166449Y0132159D01*
X0166449Y0138690D01*
X0164978Y0138690D01*
X0164419Y0138540D01*
X0163917Y0138250D01*
X0163507Y0137841D01*
X0163218Y0137339D01*
X0163068Y0136780D01*
X0163068Y0132159D01*
X0163068Y0133227D02*
X0154848Y0133227D01*
X0154848Y0135625D02*
X0163068Y0135625D01*
X0163690Y0138024D02*
X0154848Y0138024D01*
X0156856Y0140422D02*
X0186147Y0140422D01*
X0185982Y0138024D02*
X0184463Y0138024D01*
X0171449Y0132159D02*
X0171449Y0120072D01*
X0169424Y0116348D01*
X0163106Y0116437D02*
X0151336Y0116437D01*
X0153734Y0118836D02*
X0163106Y0118836D01*
X0164053Y0121234D02*
X0154784Y0121234D01*
X0154848Y0123633D02*
X0167868Y0123633D01*
X0166449Y0126031D02*
X0166449Y0126031D01*
X0166449Y0128430D02*
X0166449Y0128430D01*
X0166449Y0130828D02*
X0166449Y0130828D01*
X0166449Y0133227D02*
X0166449Y0133227D01*
X0166449Y0135625D02*
X0166449Y0135625D01*
X0166449Y0138024D02*
X0166449Y0138024D01*
X0163068Y0128430D02*
X0154848Y0128430D01*
X0154848Y0126031D02*
X0163981Y0126031D01*
X0163106Y0114039D02*
X0148937Y0114039D01*
X0146539Y0111640D02*
X0163875Y0111640D01*
X0164127Y0109242D02*
X0144140Y0109242D01*
X0132487Y0106843D02*
X0163287Y0106843D01*
X0163287Y0104261D02*
X0163287Y0101295D01*
X0163437Y0100735D01*
X0163727Y0100234D01*
X0164136Y0099824D01*
X0164638Y0099534D01*
X0165197Y0099384D01*
X0169148Y0099384D01*
X0169148Y0104261D01*
X0163287Y0104261D01*
X0163287Y0102046D02*
X0028329Y0102046D01*
X0015911Y0102046D02*
X0014494Y0102046D01*
X0014498Y0099648D02*
X0164442Y0099648D01*
X0169148Y0099648D02*
X0169700Y0099648D01*
X0169700Y0102046D02*
X0169148Y0102046D01*
X0169148Y0104445D02*
X0130089Y0104445D01*
X0125583Y0118836D02*
X0029955Y0118836D01*
X0014502Y0097249D02*
X0236714Y0097249D01*
X0237560Y0094851D02*
X0014506Y0094851D01*
X0014509Y0092452D02*
X0298918Y0092452D01*
X0301317Y0090054D02*
X0014513Y0090054D01*
X0014524Y0082858D02*
X0024681Y0082858D01*
X0023565Y0080459D02*
X0014528Y0080459D01*
X0014532Y0078061D02*
X0023456Y0078061D01*
X0023456Y0075662D02*
X0014536Y0075662D01*
X0014539Y0073264D02*
X0023456Y0073264D01*
X0023456Y0070865D02*
X0014543Y0070865D01*
X0014547Y0068467D02*
X0023456Y0068467D01*
X0023456Y0066068D02*
X0014551Y0066068D01*
X0014554Y0063670D02*
X0023456Y0063670D01*
X0023456Y0061271D02*
X0014558Y0061271D01*
X0014562Y0058873D02*
X0023456Y0058873D01*
X0023456Y0056474D02*
X0014566Y0056474D01*
X0014569Y0054076D02*
X0023456Y0054076D01*
X0023456Y0051677D02*
X0014573Y0051677D01*
X0014577Y0049279D02*
X0023456Y0049279D01*
X0023456Y0046880D02*
X0014581Y0046880D01*
X0014584Y0044482D02*
X0023456Y0044482D01*
X0023456Y0042083D02*
X0014588Y0042083D01*
X0014592Y0039685D02*
X0023358Y0039685D01*
X0024022Y0037286D02*
X0014596Y0037286D01*
X0014599Y0034888D02*
X0016811Y0034888D01*
X0028968Y0033537D02*
X0203769Y0033537D01*
X0206224Y0034554D01*
X0223139Y0051469D01*
X0299691Y0051469D01*
X0306289Y0044871D01*
X0306289Y0029061D01*
X0306112Y0029237D01*
X0304135Y0030056D01*
X0301994Y0030056D01*
X0300016Y0029237D01*
X0298502Y0027723D01*
X0297683Y0025746D01*
X0297683Y0017605D01*
X0298308Y0016097D01*
X0256014Y0016092D01*
X0257351Y0017429D01*
X0258865Y0020051D01*
X0259648Y0022975D01*
X0259648Y0026003D01*
X0258865Y0028928D01*
X0257351Y0031550D01*
X0255210Y0033691D01*
X0252587Y0035205D01*
X0249663Y0035988D01*
X0246635Y0035988D01*
X0243710Y0035205D01*
X0241088Y0033691D01*
X0238947Y0031550D01*
X0237433Y0028928D01*
X0236650Y0026003D01*
X0236650Y0022975D01*
X0237433Y0020051D01*
X0238947Y0017429D01*
X0240286Y0016090D01*
X0029626Y0016067D01*
X0030972Y0017412D01*
X0032486Y0020034D01*
X0033269Y0022959D01*
X0033269Y0025987D01*
X0032486Y0028911D01*
X0030972Y0031533D01*
X0028968Y0033537D01*
X0030016Y0032489D02*
X0239887Y0032489D01*
X0238105Y0030091D02*
X0031805Y0030091D01*
X0032812Y0027692D02*
X0237102Y0027692D01*
X0236650Y0025294D02*
X0033269Y0025294D01*
X0033252Y0022895D02*
X0236671Y0022895D01*
X0237314Y0020497D02*
X0032609Y0020497D01*
X0031368Y0018098D02*
X0238561Y0018098D01*
X0233973Y0033900D02*
X0236295Y0034862D01*
X0238073Y0036639D01*
X0239035Y0038961D01*
X0239035Y0041475D01*
X0238073Y0043797D01*
X0236295Y0045574D01*
X0233973Y0046536D01*
X0231460Y0046536D01*
X0229138Y0045574D01*
X0227360Y0043797D01*
X0226398Y0041475D01*
X0226398Y0038961D01*
X0227360Y0036639D01*
X0229138Y0034862D01*
X0231460Y0033900D01*
X0233973Y0033900D01*
X0236321Y0034888D02*
X0243161Y0034888D01*
X0238341Y0037286D02*
X0306289Y0037286D01*
X0306289Y0034888D02*
X0253137Y0034888D01*
X0256411Y0032489D02*
X0306289Y0032489D01*
X0306289Y0030091D02*
X0258193Y0030091D01*
X0259196Y0027692D02*
X0298489Y0027692D01*
X0297683Y0025294D02*
X0259648Y0025294D01*
X0259627Y0022895D02*
X0297683Y0022895D01*
X0297683Y0020497D02*
X0258984Y0020497D01*
X0257737Y0018098D02*
X0297683Y0018098D01*
X0319651Y0030091D02*
X0326132Y0030091D01*
X0328454Y0032489D02*
X0319651Y0032489D01*
X0319651Y0034888D02*
X0328454Y0034888D01*
X0328454Y0037286D02*
X0319651Y0037286D01*
X0319651Y0039685D02*
X0328454Y0039685D01*
X0328454Y0042083D02*
X0319651Y0042083D01*
X0319651Y0044482D02*
X0328454Y0044482D01*
X0328454Y0046880D02*
X0319651Y0046880D01*
X0319522Y0049279D02*
X0328454Y0049279D01*
X0328454Y0051677D02*
X0318379Y0051677D01*
X0315981Y0054076D02*
X0328454Y0054076D01*
X0328141Y0056474D02*
X0313582Y0056474D01*
X0311183Y0058873D02*
X0327350Y0058873D01*
X0327659Y0061271D02*
X0308785Y0061271D01*
X0306386Y0063670D02*
X0329336Y0063670D01*
X0328764Y0066068D02*
X0296173Y0066068D01*
X0296693Y0068467D02*
X0327623Y0068467D01*
X0327531Y0069455D02*
X0335731Y0069455D01*
X0335731Y0069455D01*
X0343931Y0069455D01*
X0343931Y0069864D01*
X0343803Y0070673D01*
X0343550Y0071451D01*
X0343178Y0072181D01*
X0342697Y0072843D01*
X0342119Y0073422D01*
X0341456Y0073903D01*
X0340727Y0074274D01*
X0339949Y0074527D01*
X0339140Y0074655D01*
X0335731Y0074655D01*
X0335731Y0069455D01*
X0335731Y0069455D01*
X0335731Y0074655D01*
X0332322Y0074655D01*
X0331513Y0074527D01*
X0330735Y0074274D01*
X0330006Y0073903D01*
X0329343Y0073422D01*
X0328765Y0072843D01*
X0328284Y0072181D01*
X0327912Y0071451D01*
X0327659Y0070673D01*
X0327531Y0069864D01*
X0327531Y0069455D01*
X0327722Y0070865D02*
X0296693Y0070865D01*
X0296693Y0073264D02*
X0329186Y0073264D01*
X0335731Y0073264D02*
X0335731Y0073264D01*
X0335731Y0070865D02*
X0335731Y0070865D01*
X0342276Y0073264D02*
X0352055Y0073264D01*
X0352062Y0075662D02*
X0296611Y0075662D01*
X0291607Y0094851D02*
X0245468Y0094851D01*
X0246314Y0097249D02*
X0276940Y0097249D01*
X0274541Y0099648D02*
X0246314Y0099648D01*
X0241514Y0099648D02*
X0241514Y0099648D01*
X0241514Y0100175D02*
X0241514Y0092775D01*
X0241514Y0100175D01*
X0241514Y0100175D01*
X0241514Y0102046D02*
X0241514Y0102046D01*
X0241514Y0104445D02*
X0241514Y0104445D01*
X0241514Y0106843D02*
X0241514Y0106843D01*
X0241514Y0097249D02*
X0241514Y0097249D01*
X0241514Y0094851D02*
X0241514Y0094851D01*
X0227358Y0082858D02*
X0035593Y0082858D01*
X0036818Y0063670D02*
X0216443Y0063670D01*
X0214045Y0061271D02*
X0036818Y0061271D01*
X0036818Y0058873D02*
X0211646Y0058873D01*
X0209248Y0056474D02*
X0036818Y0056474D01*
X0036818Y0054076D02*
X0206849Y0054076D01*
X0204450Y0051677D02*
X0036818Y0051677D01*
X0036818Y0049279D02*
X0202052Y0049279D01*
X0211355Y0039685D02*
X0226398Y0039685D01*
X0226650Y0042083D02*
X0213753Y0042083D01*
X0216152Y0044482D02*
X0228045Y0044482D01*
X0227092Y0037286D02*
X0208956Y0037286D01*
X0206558Y0034888D02*
X0229112Y0034888D01*
X0239035Y0039685D02*
X0306289Y0039685D01*
X0306289Y0042083D02*
X0238783Y0042083D01*
X0237388Y0044482D02*
X0306289Y0044482D01*
X0304279Y0046880D02*
X0218550Y0046880D01*
X0220949Y0049279D02*
X0301881Y0049279D01*
X0337833Y0022895D02*
X0351905Y0022895D01*
X0351897Y0020497D02*
X0335435Y0020497D01*
X0333036Y0018098D02*
X0351890Y0018098D01*
X0351912Y0025294D02*
X0340232Y0025294D01*
X0341558Y0027692D02*
X0351919Y0027692D01*
X0351926Y0030091D02*
X0341816Y0030091D01*
X0341816Y0032489D02*
X0351933Y0032489D01*
X0351940Y0034888D02*
X0341816Y0034888D01*
X0341816Y0037286D02*
X0351948Y0037286D01*
X0351955Y0039685D02*
X0341816Y0039685D01*
X0341816Y0042083D02*
X0351962Y0042083D01*
X0351969Y0044482D02*
X0341816Y0044482D01*
X0341816Y0046880D02*
X0351976Y0046880D01*
X0351983Y0049279D02*
X0341816Y0049279D01*
X0341816Y0051677D02*
X0351990Y0051677D01*
X0351998Y0054076D02*
X0341816Y0054076D01*
X0343321Y0056474D02*
X0352005Y0056474D01*
X0352012Y0058873D02*
X0344112Y0058873D01*
X0343803Y0061271D02*
X0352019Y0061271D01*
X0352026Y0063670D02*
X0342126Y0063670D01*
X0342698Y0066068D02*
X0352033Y0066068D01*
X0352041Y0068467D02*
X0343839Y0068467D01*
X0343740Y0070865D02*
X0352048Y0070865D01*
X0338580Y0097249D02*
X0314698Y0097249D01*
X0309213Y0101418D02*
X0308911Y0101720D01*
X0309213Y0101418D02*
X0329112Y0101418D01*
X0333049Y0105355D01*
X0333049Y0155748D01*
X0329392Y0159405D01*
X0322492Y0159405D01*
X0327476Y0164407D02*
X0352327Y0164407D01*
X0352320Y0162009D02*
X0331852Y0162009D01*
X0334251Y0159610D02*
X0352313Y0159610D01*
X0352305Y0157212D02*
X0336319Y0157212D01*
X0335077Y0158784D02*
X0335077Y0158784D01*
X0336630Y0154813D02*
X0352298Y0154813D01*
X0352291Y0152415D02*
X0336630Y0152415D01*
X0336630Y0150016D02*
X0352284Y0150016D01*
X0352277Y0147618D02*
X0336630Y0147618D01*
X0336630Y0145219D02*
X0352270Y0145219D01*
X0352262Y0142821D02*
X0336630Y0142821D01*
X0336630Y0140422D02*
X0352255Y0140422D01*
X0352248Y0138024D02*
X0336630Y0138024D01*
X0336630Y0135625D02*
X0352241Y0135625D01*
X0345258Y0135059D02*
X0345258Y0129859D01*
X0337058Y0129859D01*
X0345258Y0129859D01*
X0345258Y0129859D01*
X0345258Y0135059D01*
X0345258Y0133227D02*
X0345258Y0133227D01*
X0345258Y0130828D02*
X0345258Y0130828D01*
X0345258Y0129859D02*
X0345258Y0129859D01*
X0338732Y0126031D02*
X0336630Y0126031D01*
X0336630Y0123633D02*
X0338421Y0123633D01*
X0337003Y0121234D02*
X0336630Y0121234D01*
X0336630Y0118836D02*
X0336877Y0118836D01*
X0336630Y0116437D02*
X0338070Y0116437D01*
X0336630Y0114039D02*
X0341869Y0114039D01*
X0341869Y0111640D02*
X0336630Y0111640D01*
X0336630Y0109242D02*
X0341869Y0109242D01*
X0341869Y0106843D02*
X0336630Y0106843D01*
X0336548Y0104445D02*
X0341869Y0104445D01*
X0341869Y0102046D02*
X0334805Y0102046D01*
X0332406Y0099648D02*
X0340978Y0099648D01*
X0332148Y0099389D02*
X0332148Y0099389D01*
X0316110Y0123633D02*
X0293696Y0123633D01*
X0290608Y0127895D02*
X0289673Y0128831D01*
X0290608Y0127895D02*
X0301683Y0127895D01*
X0312708Y0138921D01*
X0322492Y0139405D01*
X0315298Y0142821D02*
X0307904Y0142821D01*
X0309146Y0140422D02*
X0305514Y0140422D01*
X0306747Y0138024D02*
X0303116Y0138024D01*
X0304349Y0135625D02*
X0296112Y0135625D01*
X0294676Y0133227D02*
X0301950Y0133227D01*
X0299315Y0139288D02*
X0290130Y0139288D01*
X0289673Y0138831D01*
X0295706Y0145219D02*
X0300174Y0145219D01*
X0302572Y0147618D02*
X0297162Y0147618D01*
X0297173Y0150016D02*
X0304971Y0150016D01*
X0307970Y0152415D02*
X0295733Y0152415D01*
X0295300Y0154813D02*
X0316515Y0154813D01*
X0314576Y0157212D02*
X0296994Y0157212D01*
X0297254Y0159610D02*
X0314111Y0159610D01*
X0314746Y0162009D02*
X0310955Y0162009D01*
X0311069Y0162206D02*
X0311219Y0162766D01*
X0311219Y0165732D01*
X0305358Y0165732D01*
X0305358Y0160855D01*
X0309309Y0160855D01*
X0309868Y0161005D01*
X0310370Y0161295D01*
X0310779Y0161704D01*
X0311069Y0162206D01*
X0311219Y0164407D02*
X0317508Y0164407D01*
X0311219Y0166284D02*
X0311219Y0169250D01*
X0311069Y0169810D01*
X0310779Y0170312D01*
X0310370Y0170721D01*
X0309868Y0171011D01*
X0309309Y0171161D01*
X0305358Y0171161D01*
X0305358Y0166285D01*
X0304806Y0166285D01*
X0304806Y0171161D01*
X0300855Y0171161D01*
X0300296Y0171011D01*
X0299794Y0170721D01*
X0299385Y0170312D01*
X0299095Y0169810D01*
X0298945Y0169250D01*
X0298945Y0166284D01*
X0304806Y0166284D01*
X0304806Y0165732D01*
X0305358Y0165732D01*
X0305358Y0166284D01*
X0311219Y0166284D01*
X0311219Y0166806D02*
X0352334Y0166806D01*
X0352341Y0169204D02*
X0311219Y0169204D01*
X0305358Y0169204D02*
X0304806Y0169204D01*
X0304806Y0166806D02*
X0305358Y0166806D01*
X0304806Y0165732D02*
X0298945Y0165732D01*
X0298945Y0162766D01*
X0299095Y0162206D01*
X0299385Y0161704D01*
X0299794Y0161295D01*
X0300296Y0161005D01*
X0300855Y0160855D01*
X0304806Y0160855D01*
X0304806Y0165732D01*
X0304806Y0164407D02*
X0305358Y0164407D01*
X0305358Y0162009D02*
X0304806Y0162009D01*
X0299209Y0162009D02*
X0296139Y0162009D01*
X0294610Y0164407D02*
X0298945Y0164407D01*
X0298945Y0166806D02*
X0296826Y0166806D01*
X0297254Y0169204D02*
X0298945Y0169204D01*
X0296516Y0171603D02*
X0352348Y0171603D01*
X0352355Y0174001D02*
X0311400Y0174001D01*
X0311400Y0176400D02*
X0352363Y0176400D01*
X0352370Y0178798D02*
X0311400Y0178798D01*
X0311400Y0181197D02*
X0352377Y0181197D01*
X0352384Y0183595D02*
X0293786Y0183595D01*
X0296145Y0185994D02*
X0352391Y0185994D01*
X0352398Y0188393D02*
X0306690Y0188393D01*
X0306673Y0188327D02*
X0306823Y0188887D01*
X0306823Y0191656D01*
X0301553Y0191656D01*
X0301553Y0186977D01*
X0304912Y0186977D01*
X0305472Y0187126D01*
X0305973Y0187416D01*
X0306383Y0187826D01*
X0306673Y0188327D01*
X0306823Y0190791D02*
X0313414Y0190791D01*
X0311015Y0193190D02*
X0306823Y0193190D01*
X0301553Y0190791D02*
X0301393Y0190791D01*
X0301393Y0188393D02*
X0301553Y0188393D01*
X0296123Y0193190D02*
X0294291Y0193190D01*
X0295364Y0202784D02*
X0295942Y0202784D01*
X0301242Y0207983D02*
X0290036Y0208467D01*
X0289673Y0208831D01*
X0295770Y0212378D02*
X0296083Y0212378D01*
X0295892Y0214776D02*
X0295263Y0214776D01*
X0301242Y0207983D02*
X0316199Y0207983D01*
X0320797Y0212581D01*
X0313949Y0200385D02*
X0352434Y0200385D01*
X0352427Y0197987D02*
X0323178Y0197987D01*
X0325357Y0195588D02*
X0352420Y0195588D01*
X0352413Y0193190D02*
X0325778Y0193190D01*
X0325033Y0190791D02*
X0352406Y0190791D01*
X0320797Y0193581D02*
X0315688Y0193581D01*
X0310214Y0199055D01*
X0316347Y0197987D02*
X0318416Y0197987D01*
X0305082Y0177819D02*
X0303507Y0178831D01*
X0289673Y0178831D01*
X0293630Y0174001D02*
X0298764Y0174001D01*
X0308939Y0148921D02*
X0303104Y0143085D01*
X0303104Y0143076D01*
X0299315Y0139288D01*
X0310302Y0145219D02*
X0316067Y0145219D01*
X0322492Y0149405D02*
X0308939Y0148921D01*
X0312079Y0133227D02*
X0315704Y0133227D01*
X0314257Y0130828D02*
X0309680Y0130828D01*
X0307282Y0128430D02*
X0314111Y0128430D01*
X0315255Y0126031D02*
X0304883Y0126031D01*
X0302593Y0104445D02*
X0302145Y0104445D01*
X0292521Y0104445D02*
X0279873Y0104445D01*
X0336630Y0128430D02*
X0337255Y0128430D01*
X0337147Y0130828D02*
X0336630Y0130828D01*
X0336630Y0133227D02*
X0338277Y0133227D01*
X0256473Y0183595D02*
X0240745Y0183595D01*
X0242586Y0181197D02*
X0252891Y0181197D01*
X0252273Y0178798D02*
X0244984Y0178798D01*
X0247383Y0176400D02*
X0252924Y0176400D01*
X0254580Y0193190D02*
X0240577Y0193190D01*
X0240938Y0195588D02*
X0253271Y0195588D01*
X0252092Y0197987D02*
X0240198Y0197987D01*
X0238163Y0200385D02*
X0252325Y0200385D01*
X0249911Y0208831D02*
X0259673Y0208831D01*
X0268021Y0208831D01*
X0273994Y0214803D01*
X0273994Y0258898D01*
X0277143Y0262047D01*
X0275263Y0265145D02*
X0259663Y0265145D01*
X0259556Y0262746D02*
X0272778Y0262746D01*
X0270718Y0260348D02*
X0258913Y0260348D01*
X0257568Y0257949D02*
X0270412Y0257949D01*
X0270412Y0255551D02*
X0255318Y0255551D01*
X0254490Y0253152D02*
X0117040Y0253152D01*
X0117405Y0252787D02*
X0115429Y0254763D01*
X0112974Y0255780D01*
X0090764Y0255780D01*
X0090064Y0256480D01*
X0083950Y0256480D01*
X0079626Y0252156D01*
X0079626Y0246041D01*
X0083950Y0241718D01*
X0090064Y0241718D01*
X0090764Y0242418D01*
X0107957Y0242418D01*
X0107957Y0240419D01*
X0109351Y0239025D01*
X0120324Y0239025D01*
X0121719Y0240419D01*
X0121719Y0251392D01*
X0120324Y0252787D01*
X0117405Y0252787D01*
X0113526Y0255551D02*
X0241008Y0255551D01*
X0238759Y0257949D02*
X0031182Y0257949D01*
X0032523Y0260348D02*
X0237413Y0260348D01*
X0236771Y0262746D02*
X0033166Y0262746D01*
X0033269Y0265145D02*
X0236664Y0265145D01*
X0237032Y0267543D02*
X0032897Y0267543D01*
X0031989Y0269942D02*
X0237936Y0269942D01*
X0239583Y0272340D02*
X0030336Y0272340D01*
X0047993Y0255551D02*
X0083021Y0255551D01*
X0080622Y0253152D02*
X0050392Y0253152D01*
X0051388Y0250754D02*
X0079626Y0250754D01*
X0079626Y0248355D02*
X0051388Y0248355D01*
X0051304Y0245957D02*
X0079710Y0245957D01*
X0082109Y0243558D02*
X0048905Y0243558D01*
X0030853Y0241160D02*
X0107957Y0241160D01*
X0121719Y0241160D02*
X0167957Y0241160D01*
X0167957Y0243558D02*
X0121719Y0243558D01*
X0121719Y0245957D02*
X0167957Y0245957D01*
X0167957Y0248355D02*
X0121719Y0248355D01*
X0121719Y0250754D02*
X0167957Y0250754D01*
X0172534Y0238761D02*
X0028635Y0238761D01*
X0027316Y0236363D02*
X0174932Y0236363D01*
X0177331Y0233964D02*
X0068590Y0233964D01*
X0070988Y0231566D02*
X0179729Y0231566D01*
X0182128Y0229167D02*
X0073387Y0229167D01*
X0075785Y0226769D02*
X0183021Y0226769D01*
X0183021Y0224370D02*
X0078184Y0224370D01*
X0080582Y0221972D02*
X0150690Y0221972D01*
X0148291Y0219573D02*
X0082981Y0219573D01*
X0085379Y0217175D02*
X0145893Y0217175D01*
X0143494Y0214776D02*
X0087778Y0214776D01*
X0091166Y0212378D02*
X0141096Y0212378D01*
X0138697Y0209979D02*
X0093565Y0209979D01*
X0094388Y0207581D02*
X0136299Y0207581D01*
X0132739Y0205182D02*
X0130131Y0205182D01*
X0122739Y0205182D02*
X0120131Y0205182D01*
X0112739Y0205182D02*
X0094388Y0205182D01*
X0094130Y0202784D02*
X0100557Y0202784D01*
X0098158Y0200385D02*
X0091732Y0200385D01*
X0093361Y0195588D02*
X0014348Y0195588D01*
X0014352Y0193190D02*
X0090963Y0193190D01*
X0088564Y0190791D02*
X0014355Y0190791D01*
X0014359Y0188393D02*
X0086166Y0188393D01*
X0083767Y0185994D02*
X0014363Y0185994D01*
X0014367Y0183595D02*
X0081369Y0183595D01*
X0078970Y0181197D02*
X0014370Y0181197D01*
X0014374Y0178798D02*
X0076572Y0178798D01*
X0075363Y0176400D02*
X0014378Y0176400D01*
X0014382Y0174001D02*
X0075186Y0174001D01*
X0075186Y0171603D02*
X0014385Y0171603D01*
X0014389Y0169204D02*
X0075186Y0169204D01*
X0075186Y0166806D02*
X0044143Y0166806D01*
X0045083Y0165866D02*
X0041892Y0169057D01*
X0039635Y0169057D01*
X0037378Y0169057D01*
X0034187Y0165866D01*
X0034187Y0163609D01*
X0034187Y0161353D01*
X0037378Y0158161D01*
X0039635Y0158161D01*
X0039635Y0163609D01*
X0039635Y0163609D01*
X0039635Y0158161D01*
X0041892Y0158161D01*
X0045083Y0161353D01*
X0045083Y0163609D01*
X0039635Y0163609D01*
X0034187Y0163609D01*
X0039635Y0163609D01*
X0039635Y0163609D01*
X0039635Y0163609D01*
X0045083Y0163609D01*
X0045083Y0165866D01*
X0045083Y0164407D02*
X0075186Y0164407D01*
X0075186Y0162009D02*
X0045083Y0162009D01*
X0043341Y0159610D02*
X0075186Y0159610D01*
X0075186Y0157212D02*
X0014408Y0157212D01*
X0014404Y0159610D02*
X0035929Y0159610D01*
X0034187Y0162009D02*
X0014400Y0162009D01*
X0014397Y0164407D02*
X0034187Y0164407D01*
X0035127Y0166806D02*
X0014393Y0166806D01*
X0014412Y0154813D02*
X0075186Y0154813D01*
X0039635Y0159610D02*
X0039635Y0159610D01*
X0039635Y0162009D02*
X0039635Y0162009D01*
X0039635Y0163610D02*
X0039635Y0169057D01*
X0039635Y0163610D01*
X0039635Y0163610D01*
X0039635Y0164407D02*
X0039635Y0164407D01*
X0039635Y0166806D02*
X0039635Y0166806D01*
X0016394Y0152415D02*
X0014415Y0152415D01*
X0014419Y0150016D02*
X0014538Y0150016D01*
X0014344Y0197987D02*
X0095760Y0197987D01*
X0082282Y0200385D02*
X0048476Y0200385D01*
X0046989Y0198899D02*
X0051207Y0203116D01*
X0051207Y0205999D01*
X0044107Y0205999D01*
X0044107Y0206199D01*
X0043907Y0206199D01*
X0043907Y0213299D01*
X0041025Y0213299D01*
X0036807Y0209081D01*
X0036807Y0206199D01*
X0043907Y0206199D01*
X0043907Y0205999D01*
X0036807Y0205999D01*
X0036807Y0203116D01*
X0041025Y0198899D01*
X0043907Y0198899D01*
X0043907Y0205999D01*
X0044107Y0205999D01*
X0044107Y0198899D01*
X0046989Y0198899D01*
X0044107Y0200385D02*
X0043907Y0200385D01*
X0043907Y0202784D02*
X0044107Y0202784D01*
X0044107Y0205182D02*
X0043907Y0205182D01*
X0044107Y0206199D02*
X0051207Y0206199D01*
X0051207Y0209081D01*
X0046989Y0213299D01*
X0044107Y0213299D01*
X0044107Y0206199D01*
X0044107Y0207581D02*
X0043907Y0207581D01*
X0043907Y0209979D02*
X0044107Y0209979D01*
X0044107Y0212378D02*
X0043907Y0212378D01*
X0040104Y0212378D02*
X0014321Y0212378D01*
X0014318Y0214776D02*
X0068881Y0214776D01*
X0071279Y0212378D02*
X0047910Y0212378D01*
X0050309Y0209979D02*
X0073678Y0209979D01*
X0076076Y0207581D02*
X0051207Y0207581D01*
X0051207Y0205182D02*
X0078475Y0205182D01*
X0079884Y0202784D02*
X0050874Y0202784D01*
X0039538Y0200385D02*
X0014340Y0200385D01*
X0014336Y0202784D02*
X0037140Y0202784D01*
X0036807Y0205182D02*
X0014333Y0205182D01*
X0014329Y0207581D02*
X0036807Y0207581D01*
X0037705Y0209979D02*
X0014325Y0209979D01*
X0014314Y0217175D02*
X0066482Y0217175D01*
X0064084Y0219573D02*
X0014310Y0219573D01*
X0014306Y0221972D02*
X0061685Y0221972D01*
X0134857Y0174001D02*
X0160579Y0174001D01*
X0162977Y0176400D02*
X0137952Y0176400D01*
X0140350Y0178798D02*
X0163021Y0178798D01*
X0163021Y0181197D02*
X0142230Y0181197D01*
X0142879Y0183595D02*
X0163021Y0183595D01*
X0163021Y0185994D02*
X0142879Y0185994D01*
X0142879Y0188393D02*
X0163021Y0188393D01*
X0163021Y0190791D02*
X0142879Y0190791D01*
X0142879Y0193190D02*
X0163021Y0193190D01*
X0163021Y0195588D02*
X0143203Y0195588D01*
X0145602Y0197987D02*
X0163021Y0197987D01*
X0163348Y0200385D02*
X0148000Y0200385D01*
X0150399Y0202784D02*
X0164506Y0202784D01*
X0166007Y0205182D02*
X0152797Y0205182D01*
X0155196Y0207581D02*
X0179642Y0207581D01*
X0176007Y0205182D02*
X0173398Y0205182D01*
X0195723Y0233964D02*
X0210626Y0233964D01*
X0210711Y0233921D02*
X0211369Y0233707D01*
X0212054Y0233599D01*
X0212400Y0233599D01*
X0212746Y0233599D01*
X0213430Y0233707D01*
X0214089Y0233921D01*
X0214706Y0234235D01*
X0215266Y0234642D01*
X0215756Y0235132D01*
X0216163Y0235692D01*
X0216477Y0236310D01*
X0216691Y0236968D01*
X0216800Y0237652D01*
X0216800Y0237998D01*
X0212400Y0237998D01*
X0212400Y0233599D01*
X0212400Y0237998D01*
X0212400Y0237998D01*
X0212400Y0237999D01*
X0212400Y0237999D01*
X0212400Y0242399D01*
X0212746Y0242399D01*
X0213430Y0242290D01*
X0214089Y0242076D01*
X0214706Y0241762D01*
X0215266Y0241355D01*
X0215756Y0240865D01*
X0216163Y0240305D01*
X0216477Y0239688D01*
X0216691Y0239029D01*
X0216800Y0238345D01*
X0216800Y0237999D01*
X0212400Y0237999D01*
X0212400Y0242399D01*
X0212054Y0242399D01*
X0211369Y0242290D01*
X0210711Y0242076D01*
X0210094Y0241762D01*
X0209533Y0241355D01*
X0209044Y0240865D01*
X0208637Y0240305D01*
X0208322Y0239688D01*
X0208108Y0239029D01*
X0208000Y0238345D01*
X0208000Y0237999D01*
X0212400Y0237999D01*
X0212400Y0237998D01*
X0208000Y0237998D01*
X0208000Y0237652D01*
X0208108Y0236968D01*
X0208322Y0236310D01*
X0208637Y0235692D01*
X0209044Y0235132D01*
X0209533Y0234642D01*
X0210094Y0234235D01*
X0210711Y0233921D01*
X0212400Y0233964D02*
X0212400Y0233964D01*
X0214174Y0233964D02*
X0224215Y0233964D01*
X0224243Y0236363D02*
X0216495Y0236363D01*
X0216734Y0238761D02*
X0225578Y0238761D01*
X0225917Y0241160D02*
X0215461Y0241160D01*
X0212400Y0241160D02*
X0212400Y0241160D01*
X0212400Y0238761D02*
X0212400Y0238761D01*
X0212400Y0236363D02*
X0212400Y0236363D01*
X0208305Y0236363D02*
X0193829Y0236363D01*
X0191431Y0238761D02*
X0208066Y0238761D01*
X0209338Y0241160D02*
X0189032Y0241160D01*
X0186634Y0243558D02*
X0224383Y0243558D01*
X0224176Y0245957D02*
X0184235Y0245957D01*
X0181837Y0248355D02*
X0225172Y0248355D01*
X0232557Y0245130D02*
X0236257Y0248831D01*
X0259673Y0248831D01*
X0263876Y0243558D02*
X0270412Y0243558D01*
X0270412Y0241160D02*
X0266700Y0241160D01*
X0267254Y0238761D02*
X0270412Y0238761D01*
X0270412Y0236363D02*
X0266642Y0236363D01*
X0263540Y0233964D02*
X0270412Y0233964D01*
X0270412Y0231566D02*
X0266531Y0231566D01*
X0267254Y0229167D02*
X0270412Y0229167D01*
X0270412Y0226769D02*
X0266810Y0226769D01*
X0264520Y0224370D02*
X0270412Y0224370D01*
X0270412Y0221972D02*
X0266176Y0221972D01*
X0267254Y0219573D02*
X0270412Y0219573D01*
X0270412Y0217175D02*
X0266978Y0217175D01*
X0265263Y0214776D02*
X0268902Y0214776D01*
X0254825Y0224370D02*
X0248467Y0224370D01*
X0244072Y0225040D02*
X0247863Y0228831D01*
X0259673Y0228831D01*
X0255805Y0233964D02*
X0247825Y0233964D01*
X0245534Y0231566D02*
X0239602Y0231566D01*
X0239130Y0229167D02*
X0243135Y0229167D01*
X0244072Y0225040D02*
X0232647Y0225040D01*
X0232557Y0225130D01*
X0225984Y0229167D02*
X0222962Y0229167D01*
X0221911Y0230218D02*
X0221911Y0230218D01*
X0220082Y0231566D02*
X0225511Y0231566D01*
X0224411Y0226769D02*
X0224031Y0226769D01*
X0224031Y0224370D02*
X0224176Y0224370D01*
X0224031Y0221972D02*
X0225105Y0221972D01*
X0224031Y0219573D02*
X0226390Y0219573D01*
X0224579Y0217175D02*
X0224031Y0217175D01*
X0224031Y0214776D02*
X0224176Y0214776D01*
X0224031Y0212378D02*
X0224872Y0212378D01*
X0216869Y0219573D02*
X0216706Y0219573D01*
X0216869Y0221972D02*
X0214779Y0221972D01*
X0215250Y0224370D02*
X0216869Y0224370D01*
X0232557Y0235130D02*
X0232702Y0235276D01*
X0244072Y0235276D01*
X0247627Y0238831D01*
X0259673Y0238831D01*
X0255470Y0243558D02*
X0240730Y0243558D01*
X0239196Y0241160D02*
X0244892Y0241160D01*
X0233116Y0250754D02*
X0181719Y0250754D01*
X0223702Y0193102D02*
X0223702Y0193102D01*
X0226738Y0195130D02*
X0232557Y0195130D01*
X0294520Y0224370D02*
X0352506Y0224370D01*
X0352499Y0221972D02*
X0296176Y0221972D01*
X0270412Y0245957D02*
X0266443Y0245957D01*
X0267254Y0248355D02*
X0270412Y0248355D01*
X0270412Y0250754D02*
X0266868Y0250754D01*
X0264856Y0253152D02*
X0270412Y0253152D01*
X0259295Y0267543D02*
X0319998Y0267543D01*
X0352642Y0269942D02*
X0258391Y0269942D01*
X0256744Y0272340D02*
X0352649Y0272340D01*
X0176254Y0109242D02*
X0174721Y0109242D01*
X0175561Y0106843D02*
X0176252Y0106843D01*
X0176787Y0104445D02*
X0169701Y0104445D01*
X0169700Y0106843D02*
X0169148Y0106843D01*
X0169148Y0109242D02*
X0169700Y0109242D01*
D26*
X0155906Y0106694D03*
X0155866Y0121025D03*
X0138543Y0139135D03*
X0140118Y0158820D03*
X0193662Y0175355D03*
X0211772Y0198190D03*
X0247992Y0180867D03*
X0225945Y0165907D03*
X0235394Y0161182D03*
X0232992Y0122599D03*
X0210984Y0119450D03*
X0184213Y0117875D03*
X0205473Y0093466D03*
X0228307Y0091103D03*
X0255079Y0099765D03*
X0287362Y0093466D03*
X0297599Y0088741D03*
X0316496Y0086379D03*
X0331142Y0083151D03*
X0321631Y0061660D03*
X0302323Y0039135D03*
X0277992Y0040434D03*
X0248425Y0046497D03*
X0175118Y0053820D03*
X0092087Y0071418D03*
X0077284Y0051458D03*
X0045630Y0095040D03*
X0051969Y0128111D03*
X0209410Y0250946D03*
X0260591Y0261970D03*
X0301536Y0226536D03*
X0309410Y0224962D03*
X0328307Y0226536D03*
X0335035Y0220244D03*
X0335394Y0205277D03*
X0309410Y0186379D03*
X0316496Y0178505D03*
X0329416Y0173387D03*
X0332888Y0183326D03*
X0315709Y0167481D03*
X0309410Y0158820D03*
X0301536Y0158820D03*
X0342248Y0151430D03*
X0310197Y0125749D03*
D27*
X0257537Y0078032D02*
X0233648Y0078032D01*
X0232814Y0078865D01*
X0220371Y0058150D02*
X0302458Y0058150D01*
X0312970Y0047638D01*
X0312970Y0021770D01*
X0313064Y0021675D01*
X0327165Y0021675D01*
X0335135Y0029646D01*
X0335135Y0058859D01*
X0335731Y0059455D01*
X0271312Y0071394D02*
X0264175Y0071394D01*
X0257537Y0078032D01*
X0220371Y0058150D02*
X0202440Y0040218D01*
X0030039Y0040218D01*
X0030137Y0040316D01*
X0030137Y0078865D01*
X0022120Y0106447D02*
X0022120Y0110102D01*
X0031238Y0110040D01*
X0126235Y0110040D01*
X0130303Y0114108D01*
X0130356Y0114055D01*
X0139112Y0114055D01*
X0139899Y0114843D01*
X0140293Y0114843D01*
X0148167Y0122717D01*
X0148167Y0141181D01*
X0159617Y0152632D01*
X0166449Y0152632D01*
X0168449Y0152632D01*
X0168482Y0152599D01*
X0179505Y0152599D02*
X0179505Y0153000D01*
X0181449Y0152632D01*
X0206469Y0152632D01*
X0210406Y0156569D01*
X0179505Y0153000D02*
X0179505Y0160473D01*
X0179702Y0165787D01*
X0179702Y0198268D01*
X0169702Y0198268D02*
X0169702Y0173677D01*
X0159635Y0163609D01*
X0136198Y0184095D02*
X0132261Y0180158D01*
X0109427Y0180158D01*
X0092558Y0163289D01*
X0092558Y0129548D01*
X0082558Y0129548D02*
X0081868Y0130238D01*
X0081868Y0174646D01*
X0105490Y0198268D01*
X0116435Y0198268D01*
X0136198Y0198031D02*
X0136198Y0184095D01*
X0136198Y0198031D02*
X0136435Y0198268D01*
X0154545Y0216378D01*
X0180293Y0216378D01*
X0189702Y0206968D01*
X0189702Y0198268D01*
X0189702Y0231041D01*
X0174838Y0245906D01*
X0114838Y0245906D02*
X0111645Y0249099D01*
X0087007Y0249099D01*
X0064444Y0228662D02*
X0087007Y0206099D01*
X0064444Y0228662D02*
X0019444Y0228662D01*
X0019444Y0238662D02*
X0029094Y0249099D01*
X0044007Y0249099D01*
X0022120Y0116447D02*
X0022120Y0110102D01*
M02*
