G75*
%MOIN*%
%OFA0B0*%
%FSLAX25Y25*%
%IPPOS*%
%LPD*%
%AMOC8*
5,1,8,0,0,1.08239X$1,22.5*
%
%ADD10C,0.00300*%
%ADD11C,0.00600*%
%ADD12C,0.00700*%
%ADD13C,0.00400*%
%ADD14R,0.02000X0.08000*%
%ADD15R,0.07500X0.02000*%
%ADD16C,0.00500*%
%ADD17C,0.01000*%
%ADD18R,0.05522X0.02400*%
%ADD19C,0.00200*%
%ADD20R,0.02500X0.04500*%
%ADD21R,0.02500X0.16000*%
%ADD22R,0.40000X0.02000*%
%ADD23R,0.15500X0.00500*%
%ADD24R,0.19000X0.02000*%
%ADD25C,0.01600*%
D10*
X0195555Y0121232D02*
X0196172Y0120614D01*
X0197406Y0120614D01*
X0198023Y0121232D01*
X0199238Y0122466D02*
X0201089Y0124318D01*
X0201089Y0120614D01*
X0201707Y0122466D02*
X0199238Y0122466D01*
X0198023Y0123700D02*
X0197406Y0124318D01*
X0196172Y0124318D01*
X0195555Y0123700D01*
X0195555Y0121232D01*
X0251424Y0156898D02*
X0252041Y0156281D01*
X0254510Y0156281D01*
X0255127Y0156898D01*
X0255127Y0158133D01*
X0254510Y0158750D01*
X0254510Y0159964D02*
X0255127Y0160582D01*
X0255127Y0161816D01*
X0254510Y0162433D01*
X0253276Y0162433D01*
X0252658Y0161816D01*
X0252658Y0161199D01*
X0253276Y0159964D01*
X0251424Y0159964D01*
X0251424Y0162433D01*
X0252041Y0158750D02*
X0251424Y0158133D01*
X0251424Y0156898D01*
X0266553Y0189624D02*
X0269022Y0189624D01*
X0269639Y0190241D01*
X0269639Y0191475D01*
X0269022Y0192092D01*
X0269022Y0193307D02*
X0269639Y0193924D01*
X0269639Y0195158D01*
X0269022Y0195776D01*
X0268405Y0195776D01*
X0267787Y0195158D01*
X0267787Y0193307D01*
X0269022Y0193307D01*
X0267787Y0193307D02*
X0266553Y0194541D01*
X0265936Y0195776D01*
X0266553Y0192092D02*
X0265936Y0191475D01*
X0265936Y0190241D01*
X0266553Y0189624D01*
X0320500Y0191698D02*
X0321117Y0191081D01*
X0323586Y0191081D01*
X0324203Y0191698D01*
X0324203Y0192933D01*
X0323586Y0193550D01*
X0323586Y0194764D02*
X0322968Y0194764D01*
X0322351Y0195382D01*
X0322351Y0196616D01*
X0322968Y0197233D01*
X0323586Y0197233D01*
X0324203Y0196616D01*
X0324203Y0195382D01*
X0323586Y0194764D01*
X0322351Y0195382D02*
X0321734Y0194764D01*
X0321117Y0194764D01*
X0320500Y0195382D01*
X0320500Y0196616D01*
X0321117Y0197233D01*
X0321734Y0197233D01*
X0322351Y0196616D01*
X0321117Y0193550D02*
X0320500Y0192933D01*
X0320500Y0191698D01*
X0321411Y0206090D02*
X0323880Y0206090D01*
X0324497Y0206707D01*
X0324497Y0207941D01*
X0323880Y0208559D01*
X0323880Y0209773D02*
X0324497Y0210390D01*
X0324497Y0211624D01*
X0323880Y0212242D01*
X0321411Y0212242D01*
X0320794Y0211624D01*
X0320794Y0210390D01*
X0321411Y0209773D01*
X0322028Y0209773D01*
X0322646Y0210390D01*
X0322646Y0212242D01*
X0321411Y0208559D02*
X0320794Y0207941D01*
X0320794Y0206707D01*
X0321411Y0206090D01*
X0321356Y0175894D02*
X0323825Y0173425D01*
X0324442Y0174042D01*
X0324442Y0175276D01*
X0323825Y0175894D01*
X0321356Y0175894D01*
X0320739Y0175276D01*
X0320739Y0174042D01*
X0321356Y0173425D01*
X0323825Y0173425D01*
X0324442Y0172210D02*
X0324442Y0169742D01*
X0324442Y0170976D02*
X0320739Y0170976D01*
X0321973Y0169742D01*
X0321356Y0168527D02*
X0320739Y0167910D01*
X0320739Y0166676D01*
X0321356Y0166059D01*
X0323825Y0166059D01*
X0324442Y0166676D01*
X0324442Y0167910D01*
X0323825Y0168527D01*
X0333525Y0109354D02*
X0332907Y0108737D01*
X0332907Y0106268D01*
X0333525Y0105651D01*
X0334759Y0105651D01*
X0335376Y0106268D01*
X0335376Y0107503D01*
X0334142Y0107503D01*
X0335376Y0108737D02*
X0334759Y0109354D01*
X0333525Y0109354D01*
X0336591Y0109354D02*
X0339059Y0105651D01*
X0339059Y0109354D01*
X0340274Y0109354D02*
X0342125Y0109354D01*
X0342743Y0108737D01*
X0342743Y0106268D01*
X0342125Y0105651D01*
X0340274Y0105651D01*
X0340274Y0109354D01*
X0336591Y0109354D02*
X0336591Y0105651D01*
X0336946Y0102264D02*
X0334477Y0102264D01*
X0333263Y0101647D02*
X0332646Y0102264D01*
X0331412Y0102264D01*
X0330794Y0101647D01*
X0330794Y0099178D01*
X0331412Y0098561D01*
X0332646Y0098561D01*
X0333263Y0099178D01*
X0334477Y0099178D02*
X0334477Y0098561D01*
X0334477Y0099178D02*
X0336946Y0101647D01*
X0336946Y0102264D01*
D11*
X0334858Y0110890D02*
X0332358Y0113390D01*
X0332358Y0118390D01*
X0334858Y0120890D01*
X0332358Y0123390D01*
X0332358Y0128390D01*
X0334858Y0130890D01*
X0332358Y0133390D01*
X0332358Y0138390D01*
X0334858Y0140890D01*
X0332358Y0143390D01*
X0332358Y0148390D01*
X0334858Y0150890D01*
X0332358Y0153390D01*
X0332358Y0158390D01*
X0334858Y0160890D01*
X0332358Y0163390D01*
X0332358Y0168390D01*
X0334858Y0170890D01*
X0339858Y0170890D01*
X0342358Y0168390D01*
X0342358Y0163390D01*
X0339858Y0160890D01*
X0342358Y0158390D01*
X0342358Y0153390D01*
X0339858Y0150890D01*
X0334858Y0150890D01*
X0339858Y0150890D02*
X0342358Y0148390D01*
X0342358Y0143390D01*
X0339858Y0140890D01*
X0342358Y0138390D01*
X0342358Y0133390D01*
X0339858Y0130890D01*
X0342358Y0128390D01*
X0342358Y0123390D01*
X0339858Y0120890D01*
X0342358Y0118390D01*
X0342358Y0113390D01*
X0339858Y0110890D01*
X0334858Y0110890D01*
X0334858Y0120890D02*
X0339858Y0120890D01*
X0339858Y0130890D02*
X0334858Y0130890D01*
X0334858Y0140890D02*
X0339858Y0140890D01*
X0339858Y0160890D02*
X0334858Y0160890D01*
X0371616Y0156741D02*
X0371616Y0151741D01*
X0374116Y0149241D01*
X0379116Y0149241D01*
X0381616Y0151741D01*
X0381616Y0156741D01*
X0379116Y0159241D01*
X0374116Y0159241D01*
X0371616Y0156741D01*
X0374116Y0149241D02*
X0371616Y0146741D01*
X0371616Y0141741D01*
X0374116Y0139241D01*
X0379116Y0139241D01*
X0381616Y0141741D01*
X0381616Y0146741D01*
X0379116Y0149241D01*
X0388053Y0152337D02*
X0388053Y0156607D01*
X0379116Y0139241D02*
X0381616Y0136741D01*
X0381616Y0131741D01*
X0379116Y0129241D01*
X0374116Y0129241D01*
X0371616Y0131741D01*
X0371616Y0136741D01*
X0374116Y0139241D01*
X0385656Y0134791D02*
X0389926Y0134791D01*
X0387791Y0132656D02*
X0387791Y0136927D01*
X0341888Y0188945D02*
X0341888Y0212945D01*
X0341886Y0213105D01*
X0341880Y0213264D01*
X0341870Y0213423D01*
X0341857Y0213582D01*
X0341839Y0213741D01*
X0341818Y0213899D01*
X0341792Y0214056D01*
X0341763Y0214213D01*
X0341730Y0214369D01*
X0341693Y0214524D01*
X0341653Y0214679D01*
X0341608Y0214832D01*
X0341560Y0214984D01*
X0341508Y0215135D01*
X0341452Y0215284D01*
X0341393Y0215432D01*
X0341330Y0215579D01*
X0341264Y0215724D01*
X0341194Y0215867D01*
X0341120Y0216009D01*
X0341044Y0216149D01*
X0340963Y0216287D01*
X0340880Y0216422D01*
X0340793Y0216556D01*
X0340702Y0216688D01*
X0340609Y0216817D01*
X0340512Y0216944D01*
X0340413Y0217069D01*
X0340310Y0217191D01*
X0340204Y0217310D01*
X0340096Y0217427D01*
X0339984Y0217541D01*
X0339870Y0217653D01*
X0339753Y0217761D01*
X0339634Y0217867D01*
X0339512Y0217970D01*
X0339387Y0218069D01*
X0339260Y0218166D01*
X0339131Y0218259D01*
X0338999Y0218350D01*
X0338865Y0218437D01*
X0338730Y0218520D01*
X0338592Y0218601D01*
X0338452Y0218677D01*
X0338310Y0218751D01*
X0338167Y0218821D01*
X0338022Y0218887D01*
X0337875Y0218950D01*
X0337727Y0219009D01*
X0337578Y0219065D01*
X0337427Y0219117D01*
X0337275Y0219165D01*
X0337122Y0219210D01*
X0336967Y0219250D01*
X0336812Y0219287D01*
X0336656Y0219320D01*
X0336499Y0219349D01*
X0336342Y0219375D01*
X0336184Y0219396D01*
X0336025Y0219414D01*
X0335866Y0219427D01*
X0335707Y0219437D01*
X0335548Y0219443D01*
X0335388Y0219445D01*
X0335228Y0219443D01*
X0335069Y0219437D01*
X0334910Y0219427D01*
X0334751Y0219414D01*
X0334592Y0219396D01*
X0334434Y0219375D01*
X0334277Y0219349D01*
X0334120Y0219320D01*
X0333964Y0219287D01*
X0333809Y0219250D01*
X0333654Y0219210D01*
X0333501Y0219165D01*
X0333349Y0219117D01*
X0333198Y0219065D01*
X0333049Y0219009D01*
X0332901Y0218950D01*
X0332754Y0218887D01*
X0332609Y0218821D01*
X0332466Y0218751D01*
X0332324Y0218677D01*
X0332184Y0218601D01*
X0332046Y0218520D01*
X0331911Y0218437D01*
X0331777Y0218350D01*
X0331645Y0218259D01*
X0331516Y0218166D01*
X0331389Y0218069D01*
X0331264Y0217970D01*
X0331142Y0217867D01*
X0331023Y0217761D01*
X0330906Y0217653D01*
X0330792Y0217541D01*
X0330680Y0217427D01*
X0330572Y0217310D01*
X0330466Y0217191D01*
X0330363Y0217069D01*
X0330264Y0216944D01*
X0330167Y0216817D01*
X0330074Y0216688D01*
X0329983Y0216556D01*
X0329896Y0216422D01*
X0329813Y0216287D01*
X0329732Y0216149D01*
X0329656Y0216009D01*
X0329582Y0215867D01*
X0329512Y0215724D01*
X0329446Y0215579D01*
X0329383Y0215432D01*
X0329324Y0215284D01*
X0329268Y0215135D01*
X0329216Y0214984D01*
X0329168Y0214832D01*
X0329123Y0214679D01*
X0329083Y0214524D01*
X0329046Y0214369D01*
X0329013Y0214213D01*
X0328984Y0214056D01*
X0328958Y0213899D01*
X0328937Y0213741D01*
X0328919Y0213582D01*
X0328906Y0213423D01*
X0328896Y0213264D01*
X0328890Y0213105D01*
X0328888Y0212945D01*
X0328888Y0188945D01*
X0328890Y0188785D01*
X0328896Y0188626D01*
X0328906Y0188467D01*
X0328919Y0188308D01*
X0328937Y0188149D01*
X0328958Y0187991D01*
X0328984Y0187834D01*
X0329013Y0187677D01*
X0329046Y0187521D01*
X0329083Y0187366D01*
X0329123Y0187211D01*
X0329168Y0187058D01*
X0329216Y0186906D01*
X0329268Y0186755D01*
X0329324Y0186606D01*
X0329383Y0186458D01*
X0329446Y0186311D01*
X0329512Y0186166D01*
X0329582Y0186023D01*
X0329656Y0185881D01*
X0329732Y0185741D01*
X0329813Y0185603D01*
X0329896Y0185468D01*
X0329983Y0185334D01*
X0330074Y0185202D01*
X0330167Y0185073D01*
X0330264Y0184946D01*
X0330363Y0184821D01*
X0330466Y0184699D01*
X0330572Y0184580D01*
X0330680Y0184463D01*
X0330792Y0184349D01*
X0330906Y0184237D01*
X0331023Y0184129D01*
X0331142Y0184023D01*
X0331264Y0183920D01*
X0331389Y0183821D01*
X0331516Y0183724D01*
X0331645Y0183631D01*
X0331777Y0183540D01*
X0331911Y0183453D01*
X0332046Y0183370D01*
X0332184Y0183289D01*
X0332324Y0183213D01*
X0332466Y0183139D01*
X0332609Y0183069D01*
X0332754Y0183003D01*
X0332901Y0182940D01*
X0333049Y0182881D01*
X0333198Y0182825D01*
X0333349Y0182773D01*
X0333501Y0182725D01*
X0333654Y0182680D01*
X0333809Y0182640D01*
X0333964Y0182603D01*
X0334120Y0182570D01*
X0334277Y0182541D01*
X0334434Y0182515D01*
X0334592Y0182494D01*
X0334751Y0182476D01*
X0334910Y0182463D01*
X0335069Y0182453D01*
X0335228Y0182447D01*
X0335388Y0182445D01*
X0335548Y0182447D01*
X0335707Y0182453D01*
X0335866Y0182463D01*
X0336025Y0182476D01*
X0336184Y0182494D01*
X0336342Y0182515D01*
X0336499Y0182541D01*
X0336656Y0182570D01*
X0336812Y0182603D01*
X0336967Y0182640D01*
X0337122Y0182680D01*
X0337275Y0182725D01*
X0337427Y0182773D01*
X0337578Y0182825D01*
X0337727Y0182881D01*
X0337875Y0182940D01*
X0338022Y0183003D01*
X0338167Y0183069D01*
X0338310Y0183139D01*
X0338452Y0183213D01*
X0338592Y0183289D01*
X0338730Y0183370D01*
X0338865Y0183453D01*
X0338999Y0183540D01*
X0339131Y0183631D01*
X0339260Y0183724D01*
X0339387Y0183821D01*
X0339512Y0183920D01*
X0339634Y0184023D01*
X0339753Y0184129D01*
X0339870Y0184237D01*
X0339984Y0184349D01*
X0340096Y0184463D01*
X0340204Y0184580D01*
X0340310Y0184699D01*
X0340413Y0184821D01*
X0340512Y0184946D01*
X0340609Y0185073D01*
X0340702Y0185202D01*
X0340793Y0185334D01*
X0340880Y0185468D01*
X0340963Y0185603D01*
X0341044Y0185741D01*
X0341120Y0185881D01*
X0341194Y0186023D01*
X0341264Y0186166D01*
X0341330Y0186311D01*
X0341393Y0186458D01*
X0341452Y0186606D01*
X0341508Y0186755D01*
X0341560Y0186906D01*
X0341608Y0187058D01*
X0341653Y0187211D01*
X0341693Y0187366D01*
X0341730Y0187521D01*
X0341763Y0187677D01*
X0341792Y0187834D01*
X0341818Y0187991D01*
X0341839Y0188149D01*
X0341857Y0188308D01*
X0341870Y0188467D01*
X0341880Y0188626D01*
X0341886Y0188785D01*
X0341888Y0188945D01*
X0335388Y0195945D02*
X0335388Y0198445D01*
X0332388Y0198445D01*
X0332388Y0199945D02*
X0332388Y0201945D01*
X0338388Y0201945D01*
X0338388Y0199945D01*
X0332388Y0199945D01*
X0335388Y0198445D02*
X0338388Y0198445D01*
X0338388Y0203445D02*
X0335388Y0203445D01*
X0335388Y0205945D01*
X0335388Y0203445D02*
X0332388Y0203445D01*
X0355356Y0203789D02*
X0355356Y0198789D01*
X0357856Y0196289D01*
X0362856Y0196289D01*
X0365356Y0198789D01*
X0365356Y0203789D01*
X0362856Y0206289D01*
X0365356Y0208789D01*
X0365356Y0213789D01*
X0362856Y0216289D01*
X0357856Y0216289D01*
X0355356Y0213789D01*
X0355356Y0208789D01*
X0357856Y0206289D01*
X0362856Y0206289D01*
X0357856Y0206289D02*
X0355356Y0203789D01*
X0357856Y0216289D02*
X0355356Y0218789D01*
X0355356Y0223789D01*
X0357856Y0226289D01*
X0355356Y0228789D01*
X0355356Y0233789D01*
X0357856Y0236289D01*
X0355356Y0238789D01*
X0355356Y0243789D01*
X0357856Y0246289D01*
X0362856Y0246289D01*
X0365356Y0243789D01*
X0365356Y0238789D01*
X0362856Y0236289D01*
X0365356Y0233789D01*
X0365356Y0228789D01*
X0362856Y0226289D01*
X0365356Y0223789D01*
X0365356Y0218789D01*
X0362856Y0216289D01*
X0362856Y0226289D02*
X0357856Y0226289D01*
X0357856Y0236289D02*
X0362856Y0236289D01*
X0341225Y0248988D02*
X0337725Y0248988D01*
X0327725Y0248988D01*
X0324225Y0248988D01*
X0320725Y0256988D02*
X0320725Y0257988D01*
X0319725Y0257988D01*
X0319725Y0263988D01*
X0320725Y0263988D01*
X0320725Y0264988D01*
X0324225Y0272988D02*
X0328225Y0272988D01*
X0337725Y0272988D01*
X0341225Y0272988D01*
X0344725Y0264988D02*
X0344725Y0263988D01*
X0345725Y0263988D01*
X0345725Y0257988D01*
X0344725Y0257988D01*
X0344725Y0256988D01*
X0331725Y0260988D02*
X0331727Y0261051D01*
X0331733Y0261113D01*
X0331743Y0261175D01*
X0331756Y0261237D01*
X0331774Y0261297D01*
X0331795Y0261356D01*
X0331820Y0261414D01*
X0331849Y0261470D01*
X0331881Y0261524D01*
X0331916Y0261576D01*
X0331954Y0261625D01*
X0331996Y0261673D01*
X0332040Y0261717D01*
X0332088Y0261759D01*
X0332137Y0261797D01*
X0332189Y0261832D01*
X0332243Y0261864D01*
X0332299Y0261893D01*
X0332357Y0261918D01*
X0332416Y0261939D01*
X0332476Y0261957D01*
X0332538Y0261970D01*
X0332600Y0261980D01*
X0332662Y0261986D01*
X0332725Y0261988D01*
X0332788Y0261986D01*
X0332850Y0261980D01*
X0332912Y0261970D01*
X0332974Y0261957D01*
X0333034Y0261939D01*
X0333093Y0261918D01*
X0333151Y0261893D01*
X0333207Y0261864D01*
X0333261Y0261832D01*
X0333313Y0261797D01*
X0333362Y0261759D01*
X0333410Y0261717D01*
X0333454Y0261673D01*
X0333496Y0261625D01*
X0333534Y0261576D01*
X0333569Y0261524D01*
X0333601Y0261470D01*
X0333630Y0261414D01*
X0333655Y0261356D01*
X0333676Y0261297D01*
X0333694Y0261237D01*
X0333707Y0261175D01*
X0333717Y0261113D01*
X0333723Y0261051D01*
X0333725Y0260988D01*
X0333723Y0260925D01*
X0333717Y0260863D01*
X0333707Y0260801D01*
X0333694Y0260739D01*
X0333676Y0260679D01*
X0333655Y0260620D01*
X0333630Y0260562D01*
X0333601Y0260506D01*
X0333569Y0260452D01*
X0333534Y0260400D01*
X0333496Y0260351D01*
X0333454Y0260303D01*
X0333410Y0260259D01*
X0333362Y0260217D01*
X0333313Y0260179D01*
X0333261Y0260144D01*
X0333207Y0260112D01*
X0333151Y0260083D01*
X0333093Y0260058D01*
X0333034Y0260037D01*
X0332974Y0260019D01*
X0332912Y0260006D01*
X0332850Y0259996D01*
X0332788Y0259990D01*
X0332725Y0259988D01*
X0332662Y0259990D01*
X0332600Y0259996D01*
X0332538Y0260006D01*
X0332476Y0260019D01*
X0332416Y0260037D01*
X0332357Y0260058D01*
X0332299Y0260083D01*
X0332243Y0260112D01*
X0332189Y0260144D01*
X0332137Y0260179D01*
X0332088Y0260217D01*
X0332040Y0260259D01*
X0331996Y0260303D01*
X0331954Y0260351D01*
X0331916Y0260400D01*
X0331881Y0260452D01*
X0331849Y0260506D01*
X0331820Y0260562D01*
X0331795Y0260620D01*
X0331774Y0260679D01*
X0331756Y0260739D01*
X0331743Y0260801D01*
X0331733Y0260863D01*
X0331727Y0260925D01*
X0331725Y0260988D01*
X0325725Y0260988D02*
X0325727Y0261160D01*
X0325733Y0261331D01*
X0325744Y0261503D01*
X0325759Y0261674D01*
X0325778Y0261845D01*
X0325801Y0262015D01*
X0325828Y0262185D01*
X0325860Y0262354D01*
X0325895Y0262522D01*
X0325935Y0262689D01*
X0325979Y0262855D01*
X0326026Y0263020D01*
X0326078Y0263184D01*
X0326134Y0263346D01*
X0326194Y0263507D01*
X0326258Y0263667D01*
X0326326Y0263825D01*
X0326397Y0263981D01*
X0326472Y0264135D01*
X0326552Y0264288D01*
X0326634Y0264438D01*
X0326721Y0264587D01*
X0326811Y0264733D01*
X0326905Y0264877D01*
X0327002Y0265019D01*
X0327103Y0265158D01*
X0327207Y0265295D01*
X0327314Y0265429D01*
X0327425Y0265560D01*
X0327538Y0265689D01*
X0327655Y0265815D01*
X0327775Y0265938D01*
X0327898Y0266058D01*
X0328024Y0266175D01*
X0328153Y0266288D01*
X0328284Y0266399D01*
X0328418Y0266506D01*
X0328555Y0266610D01*
X0328694Y0266711D01*
X0328836Y0266808D01*
X0328980Y0266902D01*
X0329126Y0266992D01*
X0329275Y0267079D01*
X0329425Y0267161D01*
X0329578Y0267241D01*
X0329732Y0267316D01*
X0329888Y0267387D01*
X0330046Y0267455D01*
X0330206Y0267519D01*
X0330367Y0267579D01*
X0330529Y0267635D01*
X0330693Y0267687D01*
X0330858Y0267734D01*
X0331024Y0267778D01*
X0331191Y0267818D01*
X0331359Y0267853D01*
X0331528Y0267885D01*
X0331698Y0267912D01*
X0331868Y0267935D01*
X0332039Y0267954D01*
X0332210Y0267969D01*
X0332382Y0267980D01*
X0332553Y0267986D01*
X0332725Y0267988D01*
X0332897Y0267986D01*
X0333068Y0267980D01*
X0333240Y0267969D01*
X0333411Y0267954D01*
X0333582Y0267935D01*
X0333752Y0267912D01*
X0333922Y0267885D01*
X0334091Y0267853D01*
X0334259Y0267818D01*
X0334426Y0267778D01*
X0334592Y0267734D01*
X0334757Y0267687D01*
X0334921Y0267635D01*
X0335083Y0267579D01*
X0335244Y0267519D01*
X0335404Y0267455D01*
X0335562Y0267387D01*
X0335718Y0267316D01*
X0335872Y0267241D01*
X0336025Y0267161D01*
X0336175Y0267079D01*
X0336324Y0266992D01*
X0336470Y0266902D01*
X0336614Y0266808D01*
X0336756Y0266711D01*
X0336895Y0266610D01*
X0337032Y0266506D01*
X0337166Y0266399D01*
X0337297Y0266288D01*
X0337426Y0266175D01*
X0337552Y0266058D01*
X0337675Y0265938D01*
X0337795Y0265815D01*
X0337912Y0265689D01*
X0338025Y0265560D01*
X0338136Y0265429D01*
X0338243Y0265295D01*
X0338347Y0265158D01*
X0338448Y0265019D01*
X0338545Y0264877D01*
X0338639Y0264733D01*
X0338729Y0264587D01*
X0338816Y0264438D01*
X0338898Y0264288D01*
X0338978Y0264135D01*
X0339053Y0263981D01*
X0339124Y0263825D01*
X0339192Y0263667D01*
X0339256Y0263507D01*
X0339316Y0263346D01*
X0339372Y0263184D01*
X0339424Y0263020D01*
X0339471Y0262855D01*
X0339515Y0262689D01*
X0339555Y0262522D01*
X0339590Y0262354D01*
X0339622Y0262185D01*
X0339649Y0262015D01*
X0339672Y0261845D01*
X0339691Y0261674D01*
X0339706Y0261503D01*
X0339717Y0261331D01*
X0339723Y0261160D01*
X0339725Y0260988D01*
X0339723Y0260816D01*
X0339717Y0260645D01*
X0339706Y0260473D01*
X0339691Y0260302D01*
X0339672Y0260131D01*
X0339649Y0259961D01*
X0339622Y0259791D01*
X0339590Y0259622D01*
X0339555Y0259454D01*
X0339515Y0259287D01*
X0339471Y0259121D01*
X0339424Y0258956D01*
X0339372Y0258792D01*
X0339316Y0258630D01*
X0339256Y0258469D01*
X0339192Y0258309D01*
X0339124Y0258151D01*
X0339053Y0257995D01*
X0338978Y0257841D01*
X0338898Y0257688D01*
X0338816Y0257538D01*
X0338729Y0257389D01*
X0338639Y0257243D01*
X0338545Y0257099D01*
X0338448Y0256957D01*
X0338347Y0256818D01*
X0338243Y0256681D01*
X0338136Y0256547D01*
X0338025Y0256416D01*
X0337912Y0256287D01*
X0337795Y0256161D01*
X0337675Y0256038D01*
X0337552Y0255918D01*
X0337426Y0255801D01*
X0337297Y0255688D01*
X0337166Y0255577D01*
X0337032Y0255470D01*
X0336895Y0255366D01*
X0336756Y0255265D01*
X0336614Y0255168D01*
X0336470Y0255074D01*
X0336324Y0254984D01*
X0336175Y0254897D01*
X0336025Y0254815D01*
X0335872Y0254735D01*
X0335718Y0254660D01*
X0335562Y0254589D01*
X0335404Y0254521D01*
X0335244Y0254457D01*
X0335083Y0254397D01*
X0334921Y0254341D01*
X0334757Y0254289D01*
X0334592Y0254242D01*
X0334426Y0254198D01*
X0334259Y0254158D01*
X0334091Y0254123D01*
X0333922Y0254091D01*
X0333752Y0254064D01*
X0333582Y0254041D01*
X0333411Y0254022D01*
X0333240Y0254007D01*
X0333068Y0253996D01*
X0332897Y0253990D01*
X0332725Y0253988D01*
X0332553Y0253990D01*
X0332382Y0253996D01*
X0332210Y0254007D01*
X0332039Y0254022D01*
X0331868Y0254041D01*
X0331698Y0254064D01*
X0331528Y0254091D01*
X0331359Y0254123D01*
X0331191Y0254158D01*
X0331024Y0254198D01*
X0330858Y0254242D01*
X0330693Y0254289D01*
X0330529Y0254341D01*
X0330367Y0254397D01*
X0330206Y0254457D01*
X0330046Y0254521D01*
X0329888Y0254589D01*
X0329732Y0254660D01*
X0329578Y0254735D01*
X0329425Y0254815D01*
X0329275Y0254897D01*
X0329126Y0254984D01*
X0328980Y0255074D01*
X0328836Y0255168D01*
X0328694Y0255265D01*
X0328555Y0255366D01*
X0328418Y0255470D01*
X0328284Y0255577D01*
X0328153Y0255688D01*
X0328024Y0255801D01*
X0327898Y0255918D01*
X0327775Y0256038D01*
X0327655Y0256161D01*
X0327538Y0256287D01*
X0327425Y0256416D01*
X0327314Y0256547D01*
X0327207Y0256681D01*
X0327103Y0256818D01*
X0327002Y0256957D01*
X0326905Y0257099D01*
X0326811Y0257243D01*
X0326721Y0257389D01*
X0326634Y0257538D01*
X0326552Y0257688D01*
X0326472Y0257841D01*
X0326397Y0257995D01*
X0326326Y0258151D01*
X0326258Y0258309D01*
X0326194Y0258469D01*
X0326134Y0258630D01*
X0326078Y0258792D01*
X0326026Y0258956D01*
X0325979Y0259121D01*
X0325935Y0259287D01*
X0325895Y0259454D01*
X0325860Y0259622D01*
X0325828Y0259791D01*
X0325801Y0259961D01*
X0325778Y0260131D01*
X0325759Y0260302D01*
X0325744Y0260473D01*
X0325733Y0260645D01*
X0325727Y0260816D01*
X0325725Y0260988D01*
X0300264Y0254694D02*
X0278264Y0254694D01*
X0278264Y0108694D01*
X0286764Y0108694D01*
X0286766Y0108792D01*
X0286772Y0108890D01*
X0286781Y0108988D01*
X0286795Y0109085D01*
X0286812Y0109182D01*
X0286833Y0109278D01*
X0286858Y0109373D01*
X0286886Y0109467D01*
X0286919Y0109559D01*
X0286954Y0109651D01*
X0286994Y0109741D01*
X0287036Y0109829D01*
X0287083Y0109916D01*
X0287132Y0110000D01*
X0287185Y0110083D01*
X0287241Y0110163D01*
X0287301Y0110242D01*
X0287363Y0110318D01*
X0287428Y0110391D01*
X0287496Y0110462D01*
X0287567Y0110530D01*
X0287640Y0110595D01*
X0287716Y0110657D01*
X0287795Y0110717D01*
X0287875Y0110773D01*
X0287958Y0110826D01*
X0288042Y0110875D01*
X0288129Y0110922D01*
X0288217Y0110964D01*
X0288307Y0111004D01*
X0288399Y0111039D01*
X0288491Y0111072D01*
X0288585Y0111100D01*
X0288680Y0111125D01*
X0288776Y0111146D01*
X0288873Y0111163D01*
X0288970Y0111177D01*
X0289068Y0111186D01*
X0289166Y0111192D01*
X0289264Y0111194D01*
X0289362Y0111192D01*
X0289460Y0111186D01*
X0289558Y0111177D01*
X0289655Y0111163D01*
X0289752Y0111146D01*
X0289848Y0111125D01*
X0289943Y0111100D01*
X0290037Y0111072D01*
X0290129Y0111039D01*
X0290221Y0111004D01*
X0290311Y0110964D01*
X0290399Y0110922D01*
X0290486Y0110875D01*
X0290570Y0110826D01*
X0290653Y0110773D01*
X0290733Y0110717D01*
X0290812Y0110657D01*
X0290888Y0110595D01*
X0290961Y0110530D01*
X0291032Y0110462D01*
X0291100Y0110391D01*
X0291165Y0110318D01*
X0291227Y0110242D01*
X0291287Y0110163D01*
X0291343Y0110083D01*
X0291396Y0110000D01*
X0291445Y0109916D01*
X0291492Y0109829D01*
X0291534Y0109741D01*
X0291574Y0109651D01*
X0291609Y0109559D01*
X0291642Y0109467D01*
X0291670Y0109373D01*
X0291695Y0109278D01*
X0291716Y0109182D01*
X0291733Y0109085D01*
X0291747Y0108988D01*
X0291756Y0108890D01*
X0291762Y0108792D01*
X0291764Y0108694D01*
X0300264Y0108694D01*
X0300264Y0254694D01*
X0252699Y0249234D02*
X0252699Y0244234D01*
X0250199Y0241734D01*
X0252699Y0239234D01*
X0252699Y0234234D01*
X0250199Y0231734D01*
X0245199Y0231734D01*
X0242699Y0234234D01*
X0242699Y0239234D01*
X0245199Y0241734D01*
X0242699Y0244234D01*
X0242699Y0249234D01*
X0245199Y0251734D01*
X0250199Y0251734D01*
X0252699Y0249234D01*
X0250199Y0241734D02*
X0245199Y0241734D01*
X0245199Y0231734D02*
X0242699Y0229234D01*
X0242699Y0224234D01*
X0245199Y0221734D01*
X0242699Y0219234D01*
X0242699Y0214234D01*
X0245199Y0211734D01*
X0242699Y0209234D01*
X0242699Y0204234D01*
X0245199Y0201734D01*
X0250199Y0201734D01*
X0252699Y0204234D01*
X0252699Y0209234D01*
X0250199Y0211734D01*
X0245199Y0211734D01*
X0250199Y0211734D02*
X0252699Y0214234D01*
X0252699Y0219234D01*
X0250199Y0221734D01*
X0245199Y0221734D01*
X0250199Y0221734D02*
X0252699Y0224234D01*
X0252699Y0229234D01*
X0250199Y0231734D01*
X0211558Y0209178D02*
X0211558Y0259678D01*
X0201558Y0269678D01*
X0151058Y0269678D01*
X0150960Y0269676D01*
X0150862Y0269670D01*
X0150764Y0269661D01*
X0150667Y0269647D01*
X0150570Y0269630D01*
X0150474Y0269609D01*
X0150379Y0269584D01*
X0150285Y0269556D01*
X0150193Y0269523D01*
X0150101Y0269488D01*
X0150011Y0269448D01*
X0149923Y0269406D01*
X0149836Y0269359D01*
X0149752Y0269310D01*
X0149669Y0269257D01*
X0149589Y0269201D01*
X0149510Y0269141D01*
X0149434Y0269079D01*
X0149361Y0269014D01*
X0149290Y0268946D01*
X0149222Y0268875D01*
X0149157Y0268802D01*
X0149095Y0268726D01*
X0149035Y0268647D01*
X0148979Y0268567D01*
X0148926Y0268484D01*
X0148877Y0268400D01*
X0148830Y0268313D01*
X0148788Y0268225D01*
X0148748Y0268135D01*
X0148713Y0268043D01*
X0148680Y0267951D01*
X0148652Y0267857D01*
X0148627Y0267762D01*
X0148606Y0267666D01*
X0148589Y0267569D01*
X0148575Y0267472D01*
X0148566Y0267374D01*
X0148560Y0267276D01*
X0148558Y0267178D01*
X0148558Y0209178D01*
X0148560Y0209080D01*
X0148566Y0208982D01*
X0148575Y0208884D01*
X0148589Y0208787D01*
X0148606Y0208690D01*
X0148627Y0208594D01*
X0148652Y0208499D01*
X0148680Y0208405D01*
X0148713Y0208313D01*
X0148748Y0208221D01*
X0148788Y0208131D01*
X0148830Y0208043D01*
X0148877Y0207956D01*
X0148926Y0207872D01*
X0148979Y0207789D01*
X0149035Y0207709D01*
X0149095Y0207630D01*
X0149157Y0207554D01*
X0149222Y0207481D01*
X0149290Y0207410D01*
X0149361Y0207342D01*
X0149434Y0207277D01*
X0149510Y0207215D01*
X0149589Y0207155D01*
X0149669Y0207099D01*
X0149752Y0207046D01*
X0149836Y0206997D01*
X0149923Y0206950D01*
X0150011Y0206908D01*
X0150101Y0206868D01*
X0150193Y0206833D01*
X0150285Y0206800D01*
X0150379Y0206772D01*
X0150474Y0206747D01*
X0150570Y0206726D01*
X0150667Y0206709D01*
X0150764Y0206695D01*
X0150862Y0206686D01*
X0150960Y0206680D01*
X0151058Y0206678D01*
X0209058Y0206678D01*
X0209156Y0206680D01*
X0209254Y0206686D01*
X0209352Y0206695D01*
X0209449Y0206709D01*
X0209546Y0206726D01*
X0209642Y0206747D01*
X0209737Y0206772D01*
X0209831Y0206800D01*
X0209923Y0206833D01*
X0210015Y0206868D01*
X0210105Y0206908D01*
X0210193Y0206950D01*
X0210280Y0206997D01*
X0210364Y0207046D01*
X0210447Y0207099D01*
X0210527Y0207155D01*
X0210606Y0207215D01*
X0210682Y0207277D01*
X0210755Y0207342D01*
X0210826Y0207410D01*
X0210894Y0207481D01*
X0210959Y0207554D01*
X0211021Y0207630D01*
X0211081Y0207709D01*
X0211137Y0207789D01*
X0211190Y0207872D01*
X0211239Y0207956D01*
X0211286Y0208043D01*
X0211328Y0208131D01*
X0211368Y0208221D01*
X0211403Y0208313D01*
X0211436Y0208405D01*
X0211464Y0208499D01*
X0211489Y0208594D01*
X0211510Y0208690D01*
X0211527Y0208787D01*
X0211541Y0208884D01*
X0211550Y0208982D01*
X0211556Y0209080D01*
X0211558Y0209178D01*
X0195058Y0215678D02*
X0195056Y0215580D01*
X0195050Y0215482D01*
X0195041Y0215384D01*
X0195027Y0215287D01*
X0195010Y0215190D01*
X0194989Y0215094D01*
X0194964Y0214999D01*
X0194936Y0214905D01*
X0194903Y0214813D01*
X0194868Y0214721D01*
X0194828Y0214631D01*
X0194786Y0214543D01*
X0194739Y0214456D01*
X0194690Y0214372D01*
X0194637Y0214289D01*
X0194581Y0214209D01*
X0194521Y0214130D01*
X0194459Y0214054D01*
X0194394Y0213981D01*
X0194326Y0213910D01*
X0194255Y0213842D01*
X0194182Y0213777D01*
X0194106Y0213715D01*
X0194027Y0213655D01*
X0193947Y0213599D01*
X0193864Y0213546D01*
X0193780Y0213497D01*
X0193693Y0213450D01*
X0193605Y0213408D01*
X0193515Y0213368D01*
X0193423Y0213333D01*
X0193331Y0213300D01*
X0193237Y0213272D01*
X0193142Y0213247D01*
X0193046Y0213226D01*
X0192949Y0213209D01*
X0192852Y0213195D01*
X0192754Y0213186D01*
X0192656Y0213180D01*
X0192558Y0213178D01*
X0192460Y0213180D01*
X0192362Y0213186D01*
X0192264Y0213195D01*
X0192167Y0213209D01*
X0192070Y0213226D01*
X0191974Y0213247D01*
X0191879Y0213272D01*
X0191785Y0213300D01*
X0191693Y0213333D01*
X0191601Y0213368D01*
X0191511Y0213408D01*
X0191423Y0213450D01*
X0191336Y0213497D01*
X0191252Y0213546D01*
X0191169Y0213599D01*
X0191089Y0213655D01*
X0191010Y0213715D01*
X0190934Y0213777D01*
X0190861Y0213842D01*
X0190790Y0213910D01*
X0190722Y0213981D01*
X0190657Y0214054D01*
X0190595Y0214130D01*
X0190535Y0214209D01*
X0190479Y0214289D01*
X0190426Y0214372D01*
X0190377Y0214456D01*
X0190330Y0214543D01*
X0190288Y0214631D01*
X0190248Y0214721D01*
X0190213Y0214813D01*
X0190180Y0214905D01*
X0190152Y0214999D01*
X0190127Y0215094D01*
X0190106Y0215190D01*
X0190089Y0215287D01*
X0190075Y0215384D01*
X0190066Y0215482D01*
X0190060Y0215580D01*
X0190058Y0215678D01*
X0190056Y0215776D01*
X0190050Y0215874D01*
X0190041Y0215972D01*
X0190027Y0216069D01*
X0190010Y0216166D01*
X0189989Y0216262D01*
X0189964Y0216357D01*
X0189936Y0216451D01*
X0189903Y0216543D01*
X0189868Y0216635D01*
X0189828Y0216725D01*
X0189786Y0216813D01*
X0189739Y0216900D01*
X0189690Y0216984D01*
X0189637Y0217067D01*
X0189581Y0217147D01*
X0189521Y0217226D01*
X0189459Y0217302D01*
X0189394Y0217375D01*
X0189326Y0217446D01*
X0189255Y0217514D01*
X0189182Y0217579D01*
X0189106Y0217641D01*
X0189027Y0217701D01*
X0188947Y0217757D01*
X0188864Y0217810D01*
X0188780Y0217859D01*
X0188693Y0217906D01*
X0188605Y0217948D01*
X0188515Y0217988D01*
X0188423Y0218023D01*
X0188331Y0218056D01*
X0188237Y0218084D01*
X0188142Y0218109D01*
X0188046Y0218130D01*
X0187949Y0218147D01*
X0187852Y0218161D01*
X0187754Y0218170D01*
X0187656Y0218176D01*
X0187558Y0218178D01*
X0187460Y0218176D01*
X0187362Y0218170D01*
X0187264Y0218161D01*
X0187167Y0218147D01*
X0187070Y0218130D01*
X0186974Y0218109D01*
X0186879Y0218084D01*
X0186785Y0218056D01*
X0186693Y0218023D01*
X0186601Y0217988D01*
X0186511Y0217948D01*
X0186423Y0217906D01*
X0186336Y0217859D01*
X0186252Y0217810D01*
X0186169Y0217757D01*
X0186089Y0217701D01*
X0186010Y0217641D01*
X0185934Y0217579D01*
X0185861Y0217514D01*
X0185790Y0217446D01*
X0185722Y0217375D01*
X0185657Y0217302D01*
X0185595Y0217226D01*
X0185535Y0217147D01*
X0185479Y0217067D01*
X0185426Y0216984D01*
X0185377Y0216900D01*
X0185330Y0216813D01*
X0185288Y0216725D01*
X0185248Y0216635D01*
X0185213Y0216543D01*
X0185180Y0216451D01*
X0185152Y0216357D01*
X0185127Y0216262D01*
X0185106Y0216166D01*
X0185089Y0216069D01*
X0185075Y0215972D01*
X0185066Y0215874D01*
X0185060Y0215776D01*
X0185058Y0215678D01*
X0175058Y0215678D02*
X0165058Y0215678D01*
X0172558Y0238178D02*
X0172560Y0238362D01*
X0172567Y0238546D01*
X0172578Y0238730D01*
X0172594Y0238913D01*
X0172614Y0239096D01*
X0172639Y0239278D01*
X0172668Y0239460D01*
X0172702Y0239641D01*
X0172740Y0239821D01*
X0172783Y0240000D01*
X0172830Y0240178D01*
X0172881Y0240355D01*
X0172937Y0240531D01*
X0172996Y0240705D01*
X0173061Y0240877D01*
X0173129Y0241048D01*
X0173201Y0241217D01*
X0173278Y0241385D01*
X0173359Y0241550D01*
X0173444Y0241713D01*
X0173532Y0241875D01*
X0173625Y0242034D01*
X0173722Y0242190D01*
X0173822Y0242345D01*
X0173926Y0242497D01*
X0174034Y0242646D01*
X0174145Y0242792D01*
X0174260Y0242936D01*
X0174379Y0243077D01*
X0174501Y0243215D01*
X0174626Y0243350D01*
X0174755Y0243481D01*
X0174886Y0243610D01*
X0175021Y0243735D01*
X0175159Y0243857D01*
X0175300Y0243976D01*
X0175444Y0244091D01*
X0175590Y0244202D01*
X0175739Y0244310D01*
X0175891Y0244414D01*
X0176046Y0244514D01*
X0176202Y0244611D01*
X0176361Y0244704D01*
X0176523Y0244792D01*
X0176686Y0244877D01*
X0176851Y0244958D01*
X0177019Y0245035D01*
X0177188Y0245107D01*
X0177359Y0245175D01*
X0177531Y0245240D01*
X0177705Y0245299D01*
X0177881Y0245355D01*
X0178058Y0245406D01*
X0178236Y0245453D01*
X0178415Y0245496D01*
X0178595Y0245534D01*
X0178776Y0245568D01*
X0178958Y0245597D01*
X0179140Y0245622D01*
X0179323Y0245642D01*
X0179506Y0245658D01*
X0179690Y0245669D01*
X0179874Y0245676D01*
X0180058Y0245678D01*
X0180242Y0245676D01*
X0180426Y0245669D01*
X0180610Y0245658D01*
X0180793Y0245642D01*
X0180976Y0245622D01*
X0181158Y0245597D01*
X0181340Y0245568D01*
X0181521Y0245534D01*
X0181701Y0245496D01*
X0181880Y0245453D01*
X0182058Y0245406D01*
X0182235Y0245355D01*
X0182411Y0245299D01*
X0182585Y0245240D01*
X0182757Y0245175D01*
X0182928Y0245107D01*
X0183097Y0245035D01*
X0183265Y0244958D01*
X0183430Y0244877D01*
X0183593Y0244792D01*
X0183755Y0244704D01*
X0183914Y0244611D01*
X0184070Y0244514D01*
X0184225Y0244414D01*
X0184377Y0244310D01*
X0184526Y0244202D01*
X0184672Y0244091D01*
X0184816Y0243976D01*
X0184957Y0243857D01*
X0185095Y0243735D01*
X0185230Y0243610D01*
X0185361Y0243481D01*
X0185490Y0243350D01*
X0185615Y0243215D01*
X0185737Y0243077D01*
X0185856Y0242936D01*
X0185971Y0242792D01*
X0186082Y0242646D01*
X0186190Y0242497D01*
X0186294Y0242345D01*
X0186394Y0242190D01*
X0186491Y0242034D01*
X0186584Y0241875D01*
X0186672Y0241713D01*
X0186757Y0241550D01*
X0186838Y0241385D01*
X0186915Y0241217D01*
X0186987Y0241048D01*
X0187055Y0240877D01*
X0187120Y0240705D01*
X0187179Y0240531D01*
X0187235Y0240355D01*
X0187286Y0240178D01*
X0187333Y0240000D01*
X0187376Y0239821D01*
X0187414Y0239641D01*
X0187448Y0239460D01*
X0187477Y0239278D01*
X0187502Y0239096D01*
X0187522Y0238913D01*
X0187538Y0238730D01*
X0187549Y0238546D01*
X0187556Y0238362D01*
X0187558Y0238178D01*
X0187556Y0237994D01*
X0187549Y0237810D01*
X0187538Y0237626D01*
X0187522Y0237443D01*
X0187502Y0237260D01*
X0187477Y0237078D01*
X0187448Y0236896D01*
X0187414Y0236715D01*
X0187376Y0236535D01*
X0187333Y0236356D01*
X0187286Y0236178D01*
X0187235Y0236001D01*
X0187179Y0235825D01*
X0187120Y0235651D01*
X0187055Y0235479D01*
X0186987Y0235308D01*
X0186915Y0235139D01*
X0186838Y0234971D01*
X0186757Y0234806D01*
X0186672Y0234643D01*
X0186584Y0234481D01*
X0186491Y0234322D01*
X0186394Y0234166D01*
X0186294Y0234011D01*
X0186190Y0233859D01*
X0186082Y0233710D01*
X0185971Y0233564D01*
X0185856Y0233420D01*
X0185737Y0233279D01*
X0185615Y0233141D01*
X0185490Y0233006D01*
X0185361Y0232875D01*
X0185230Y0232746D01*
X0185095Y0232621D01*
X0184957Y0232499D01*
X0184816Y0232380D01*
X0184672Y0232265D01*
X0184526Y0232154D01*
X0184377Y0232046D01*
X0184225Y0231942D01*
X0184070Y0231842D01*
X0183914Y0231745D01*
X0183755Y0231652D01*
X0183593Y0231564D01*
X0183430Y0231479D01*
X0183265Y0231398D01*
X0183097Y0231321D01*
X0182928Y0231249D01*
X0182757Y0231181D01*
X0182585Y0231116D01*
X0182411Y0231057D01*
X0182235Y0231001D01*
X0182058Y0230950D01*
X0181880Y0230903D01*
X0181701Y0230860D01*
X0181521Y0230822D01*
X0181340Y0230788D01*
X0181158Y0230759D01*
X0180976Y0230734D01*
X0180793Y0230714D01*
X0180610Y0230698D01*
X0180426Y0230687D01*
X0180242Y0230680D01*
X0180058Y0230678D01*
X0179874Y0230680D01*
X0179690Y0230687D01*
X0179506Y0230698D01*
X0179323Y0230714D01*
X0179140Y0230734D01*
X0178958Y0230759D01*
X0178776Y0230788D01*
X0178595Y0230822D01*
X0178415Y0230860D01*
X0178236Y0230903D01*
X0178058Y0230950D01*
X0177881Y0231001D01*
X0177705Y0231057D01*
X0177531Y0231116D01*
X0177359Y0231181D01*
X0177188Y0231249D01*
X0177019Y0231321D01*
X0176851Y0231398D01*
X0176686Y0231479D01*
X0176523Y0231564D01*
X0176361Y0231652D01*
X0176202Y0231745D01*
X0176046Y0231842D01*
X0175891Y0231942D01*
X0175739Y0232046D01*
X0175590Y0232154D01*
X0175444Y0232265D01*
X0175300Y0232380D01*
X0175159Y0232499D01*
X0175021Y0232621D01*
X0174886Y0232746D01*
X0174755Y0232875D01*
X0174626Y0233006D01*
X0174501Y0233141D01*
X0174379Y0233279D01*
X0174260Y0233420D01*
X0174145Y0233564D01*
X0174034Y0233710D01*
X0173926Y0233859D01*
X0173822Y0234011D01*
X0173722Y0234166D01*
X0173625Y0234322D01*
X0173532Y0234481D01*
X0173444Y0234643D01*
X0173359Y0234806D01*
X0173278Y0234971D01*
X0173201Y0235139D01*
X0173129Y0235308D01*
X0173061Y0235479D01*
X0172996Y0235651D01*
X0172937Y0235825D01*
X0172881Y0236001D01*
X0172830Y0236178D01*
X0172783Y0236356D01*
X0172740Y0236535D01*
X0172702Y0236715D01*
X0172668Y0236896D01*
X0172639Y0237078D01*
X0172614Y0237260D01*
X0172594Y0237443D01*
X0172578Y0237626D01*
X0172567Y0237810D01*
X0172560Y0237994D01*
X0172558Y0238178D01*
X0190058Y0253178D02*
X0190058Y0263178D01*
X0185058Y0258178D02*
X0195058Y0258178D01*
X0175058Y0258178D02*
X0175056Y0258080D01*
X0175050Y0257982D01*
X0175041Y0257884D01*
X0175027Y0257787D01*
X0175010Y0257690D01*
X0174989Y0257594D01*
X0174964Y0257499D01*
X0174936Y0257405D01*
X0174903Y0257313D01*
X0174868Y0257221D01*
X0174828Y0257131D01*
X0174786Y0257043D01*
X0174739Y0256956D01*
X0174690Y0256872D01*
X0174637Y0256789D01*
X0174581Y0256709D01*
X0174521Y0256630D01*
X0174459Y0256554D01*
X0174394Y0256481D01*
X0174326Y0256410D01*
X0174255Y0256342D01*
X0174182Y0256277D01*
X0174106Y0256215D01*
X0174027Y0256155D01*
X0173947Y0256099D01*
X0173864Y0256046D01*
X0173780Y0255997D01*
X0173693Y0255950D01*
X0173605Y0255908D01*
X0173515Y0255868D01*
X0173423Y0255833D01*
X0173331Y0255800D01*
X0173237Y0255772D01*
X0173142Y0255747D01*
X0173046Y0255726D01*
X0172949Y0255709D01*
X0172852Y0255695D01*
X0172754Y0255686D01*
X0172656Y0255680D01*
X0172558Y0255678D01*
X0172460Y0255680D01*
X0172362Y0255686D01*
X0172264Y0255695D01*
X0172167Y0255709D01*
X0172070Y0255726D01*
X0171974Y0255747D01*
X0171879Y0255772D01*
X0171785Y0255800D01*
X0171693Y0255833D01*
X0171601Y0255868D01*
X0171511Y0255908D01*
X0171423Y0255950D01*
X0171336Y0255997D01*
X0171252Y0256046D01*
X0171169Y0256099D01*
X0171089Y0256155D01*
X0171010Y0256215D01*
X0170934Y0256277D01*
X0170861Y0256342D01*
X0170790Y0256410D01*
X0170722Y0256481D01*
X0170657Y0256554D01*
X0170595Y0256630D01*
X0170535Y0256709D01*
X0170479Y0256789D01*
X0170426Y0256872D01*
X0170377Y0256956D01*
X0170330Y0257043D01*
X0170288Y0257131D01*
X0170248Y0257221D01*
X0170213Y0257313D01*
X0170180Y0257405D01*
X0170152Y0257499D01*
X0170127Y0257594D01*
X0170106Y0257690D01*
X0170089Y0257787D01*
X0170075Y0257884D01*
X0170066Y0257982D01*
X0170060Y0258080D01*
X0170058Y0258178D01*
X0170056Y0258276D01*
X0170050Y0258374D01*
X0170041Y0258472D01*
X0170027Y0258569D01*
X0170010Y0258666D01*
X0169989Y0258762D01*
X0169964Y0258857D01*
X0169936Y0258951D01*
X0169903Y0259043D01*
X0169868Y0259135D01*
X0169828Y0259225D01*
X0169786Y0259313D01*
X0169739Y0259400D01*
X0169690Y0259484D01*
X0169637Y0259567D01*
X0169581Y0259647D01*
X0169521Y0259726D01*
X0169459Y0259802D01*
X0169394Y0259875D01*
X0169326Y0259946D01*
X0169255Y0260014D01*
X0169182Y0260079D01*
X0169106Y0260141D01*
X0169027Y0260201D01*
X0168947Y0260257D01*
X0168864Y0260310D01*
X0168780Y0260359D01*
X0168693Y0260406D01*
X0168605Y0260448D01*
X0168515Y0260488D01*
X0168423Y0260523D01*
X0168331Y0260556D01*
X0168237Y0260584D01*
X0168142Y0260609D01*
X0168046Y0260630D01*
X0167949Y0260647D01*
X0167852Y0260661D01*
X0167754Y0260670D01*
X0167656Y0260676D01*
X0167558Y0260678D01*
X0167460Y0260676D01*
X0167362Y0260670D01*
X0167264Y0260661D01*
X0167167Y0260647D01*
X0167070Y0260630D01*
X0166974Y0260609D01*
X0166879Y0260584D01*
X0166785Y0260556D01*
X0166693Y0260523D01*
X0166601Y0260488D01*
X0166511Y0260448D01*
X0166423Y0260406D01*
X0166336Y0260359D01*
X0166252Y0260310D01*
X0166169Y0260257D01*
X0166089Y0260201D01*
X0166010Y0260141D01*
X0165934Y0260079D01*
X0165861Y0260014D01*
X0165790Y0259946D01*
X0165722Y0259875D01*
X0165657Y0259802D01*
X0165595Y0259726D01*
X0165535Y0259647D01*
X0165479Y0259567D01*
X0165426Y0259484D01*
X0165377Y0259400D01*
X0165330Y0259313D01*
X0165288Y0259225D01*
X0165248Y0259135D01*
X0165213Y0259043D01*
X0165180Y0258951D01*
X0165152Y0258857D01*
X0165127Y0258762D01*
X0165106Y0258666D01*
X0165089Y0258569D01*
X0165075Y0258472D01*
X0165066Y0258374D01*
X0165060Y0258276D01*
X0165058Y0258178D01*
X0128850Y0257513D02*
X0128850Y0272513D01*
X0029850Y0272513D01*
X0029850Y0257513D01*
X0036850Y0261013D02*
X0056850Y0261013D01*
X0056850Y0265513D01*
X0036850Y0265513D01*
X0036850Y0261013D01*
X0029850Y0244513D02*
X0029850Y0229513D01*
X0128850Y0229513D01*
X0128850Y0244513D01*
X0121850Y0241013D02*
X0101850Y0241013D01*
X0101850Y0236513D01*
X0121850Y0236513D01*
X0121850Y0241013D01*
X0123350Y0259013D02*
X0123350Y0263513D01*
X0121850Y0263513D01*
X0121850Y0261013D01*
X0101850Y0261013D01*
X0101850Y0265513D01*
X0121850Y0265513D01*
X0124350Y0265513D01*
X0124350Y0259013D01*
X0121850Y0263513D02*
X0121850Y0265513D01*
X0075100Y0220761D02*
X0053100Y0220761D01*
X0057100Y0218261D02*
X0097600Y0218261D01*
X0097698Y0218259D01*
X0097796Y0218253D01*
X0097894Y0218244D01*
X0097991Y0218230D01*
X0098088Y0218213D01*
X0098184Y0218192D01*
X0098279Y0218167D01*
X0098373Y0218139D01*
X0098465Y0218106D01*
X0098557Y0218071D01*
X0098647Y0218031D01*
X0098735Y0217989D01*
X0098822Y0217942D01*
X0098906Y0217893D01*
X0098989Y0217840D01*
X0099069Y0217784D01*
X0099148Y0217724D01*
X0099224Y0217662D01*
X0099297Y0217597D01*
X0099368Y0217529D01*
X0099436Y0217458D01*
X0099501Y0217385D01*
X0099563Y0217309D01*
X0099623Y0217230D01*
X0099679Y0217150D01*
X0099732Y0217067D01*
X0099781Y0216983D01*
X0099828Y0216896D01*
X0099870Y0216808D01*
X0099910Y0216718D01*
X0099945Y0216626D01*
X0099978Y0216534D01*
X0100006Y0216440D01*
X0100031Y0216345D01*
X0100052Y0216249D01*
X0100069Y0216152D01*
X0100083Y0216055D01*
X0100092Y0215957D01*
X0100098Y0215859D01*
X0100100Y0215761D01*
X0100100Y0207761D01*
X0100098Y0207663D01*
X0100092Y0207565D01*
X0100083Y0207467D01*
X0100069Y0207370D01*
X0100052Y0207273D01*
X0100031Y0207177D01*
X0100006Y0207082D01*
X0099978Y0206988D01*
X0099945Y0206896D01*
X0099910Y0206804D01*
X0099870Y0206714D01*
X0099828Y0206626D01*
X0099781Y0206539D01*
X0099732Y0206455D01*
X0099679Y0206372D01*
X0099623Y0206292D01*
X0099563Y0206213D01*
X0099501Y0206137D01*
X0099436Y0206064D01*
X0099368Y0205993D01*
X0099297Y0205925D01*
X0099224Y0205860D01*
X0099148Y0205798D01*
X0099069Y0205738D01*
X0098989Y0205682D01*
X0098906Y0205629D01*
X0098822Y0205580D01*
X0098735Y0205533D01*
X0098647Y0205491D01*
X0098557Y0205451D01*
X0098465Y0205416D01*
X0098373Y0205383D01*
X0098279Y0205355D01*
X0098184Y0205330D01*
X0098088Y0205309D01*
X0097991Y0205292D01*
X0097894Y0205278D01*
X0097796Y0205269D01*
X0097698Y0205263D01*
X0097600Y0205261D01*
X0087100Y0205261D01*
X0082100Y0202761D02*
X0060100Y0202761D01*
X0060002Y0202763D01*
X0059904Y0202769D01*
X0059806Y0202778D01*
X0059709Y0202792D01*
X0059612Y0202809D01*
X0059516Y0202830D01*
X0059421Y0202855D01*
X0059327Y0202883D01*
X0059235Y0202916D01*
X0059143Y0202951D01*
X0059053Y0202991D01*
X0058965Y0203033D01*
X0058878Y0203080D01*
X0058794Y0203129D01*
X0058711Y0203182D01*
X0058631Y0203238D01*
X0058552Y0203298D01*
X0058476Y0203360D01*
X0058403Y0203425D01*
X0058332Y0203493D01*
X0058264Y0203564D01*
X0058199Y0203637D01*
X0058137Y0203713D01*
X0058077Y0203792D01*
X0058021Y0203872D01*
X0057968Y0203955D01*
X0057919Y0204039D01*
X0057872Y0204126D01*
X0057830Y0204214D01*
X0057790Y0204304D01*
X0057755Y0204396D01*
X0057722Y0204488D01*
X0057694Y0204582D01*
X0057669Y0204677D01*
X0057648Y0204773D01*
X0057631Y0204870D01*
X0057617Y0204967D01*
X0057608Y0205065D01*
X0057602Y0205163D01*
X0057600Y0205261D01*
X0048100Y0218261D02*
X0037600Y0218261D01*
X0037502Y0218259D01*
X0037404Y0218253D01*
X0037306Y0218244D01*
X0037209Y0218230D01*
X0037112Y0218213D01*
X0037016Y0218192D01*
X0036921Y0218167D01*
X0036827Y0218139D01*
X0036735Y0218106D01*
X0036643Y0218071D01*
X0036553Y0218031D01*
X0036465Y0217989D01*
X0036378Y0217942D01*
X0036294Y0217893D01*
X0036211Y0217840D01*
X0036131Y0217784D01*
X0036052Y0217724D01*
X0035976Y0217662D01*
X0035903Y0217597D01*
X0035832Y0217529D01*
X0035764Y0217458D01*
X0035699Y0217385D01*
X0035637Y0217309D01*
X0035577Y0217230D01*
X0035521Y0217150D01*
X0035468Y0217067D01*
X0035419Y0216983D01*
X0035372Y0216896D01*
X0035330Y0216808D01*
X0035290Y0216718D01*
X0035255Y0216626D01*
X0035222Y0216534D01*
X0035194Y0216440D01*
X0035169Y0216345D01*
X0035148Y0216249D01*
X0035131Y0216152D01*
X0035117Y0216055D01*
X0035108Y0215957D01*
X0035102Y0215859D01*
X0035100Y0215761D01*
X0035100Y0207761D01*
X0035102Y0207663D01*
X0035108Y0207565D01*
X0035117Y0207467D01*
X0035131Y0207370D01*
X0035148Y0207273D01*
X0035169Y0207177D01*
X0035194Y0207082D01*
X0035222Y0206988D01*
X0035255Y0206896D01*
X0035290Y0206804D01*
X0035330Y0206714D01*
X0035372Y0206626D01*
X0035419Y0206539D01*
X0035468Y0206455D01*
X0035521Y0206372D01*
X0035577Y0206292D01*
X0035637Y0206213D01*
X0035699Y0206137D01*
X0035764Y0206064D01*
X0035832Y0205993D01*
X0035903Y0205925D01*
X0035976Y0205860D01*
X0036052Y0205798D01*
X0036131Y0205738D01*
X0036211Y0205682D01*
X0036294Y0205629D01*
X0036378Y0205580D01*
X0036465Y0205533D01*
X0036553Y0205491D01*
X0036643Y0205451D01*
X0036735Y0205416D01*
X0036827Y0205383D01*
X0036921Y0205355D01*
X0037016Y0205330D01*
X0037112Y0205309D01*
X0037209Y0205292D01*
X0037306Y0205278D01*
X0037404Y0205269D01*
X0037502Y0205263D01*
X0037600Y0205261D01*
X0078100Y0205261D01*
X0077600Y0218261D02*
X0077598Y0218359D01*
X0077592Y0218457D01*
X0077583Y0218555D01*
X0077569Y0218652D01*
X0077552Y0218749D01*
X0077531Y0218845D01*
X0077506Y0218940D01*
X0077478Y0219034D01*
X0077445Y0219126D01*
X0077410Y0219218D01*
X0077370Y0219308D01*
X0077328Y0219396D01*
X0077281Y0219483D01*
X0077232Y0219567D01*
X0077179Y0219650D01*
X0077123Y0219730D01*
X0077063Y0219809D01*
X0077001Y0219885D01*
X0076936Y0219958D01*
X0076868Y0220029D01*
X0076797Y0220097D01*
X0076724Y0220162D01*
X0076648Y0220224D01*
X0076569Y0220284D01*
X0076489Y0220340D01*
X0076406Y0220393D01*
X0076322Y0220442D01*
X0076235Y0220489D01*
X0076147Y0220531D01*
X0076057Y0220571D01*
X0075965Y0220606D01*
X0075873Y0220639D01*
X0075779Y0220667D01*
X0075684Y0220692D01*
X0075588Y0220713D01*
X0075491Y0220730D01*
X0075394Y0220744D01*
X0075296Y0220753D01*
X0075198Y0220759D01*
X0075100Y0220761D01*
X0056850Y0236513D02*
X0056850Y0241013D01*
X0036850Y0241013D01*
X0036850Y0238513D01*
X0035350Y0238513D01*
X0035350Y0243013D01*
X0034350Y0243013D02*
X0034350Y0236513D01*
X0036850Y0236513D01*
X0056850Y0236513D01*
X0036850Y0236513D02*
X0036850Y0238513D01*
X0020218Y0202234D02*
X0015218Y0202234D01*
X0012718Y0199734D01*
X0012718Y0194734D01*
X0015218Y0192234D01*
X0020218Y0192234D01*
X0022718Y0194734D01*
X0022718Y0199734D01*
X0020218Y0202234D01*
X0020218Y0192234D02*
X0022718Y0189734D01*
X0022718Y0184734D01*
X0020218Y0182234D01*
X0022718Y0179734D01*
X0022718Y0174734D01*
X0020218Y0172234D01*
X0015218Y0172234D01*
X0012718Y0174734D01*
X0012718Y0179734D01*
X0015218Y0182234D01*
X0012718Y0184734D01*
X0012718Y0189734D01*
X0015218Y0192234D01*
X0015218Y0182234D02*
X0020218Y0182234D01*
X0037484Y0179012D02*
X0037484Y0160508D01*
X0037484Y0142103D01*
X0136873Y0142103D01*
X0136873Y0160508D01*
X0136873Y0179012D01*
X0037484Y0179012D01*
X0061003Y0190403D02*
X0061005Y0190535D01*
X0061011Y0190666D01*
X0061021Y0190797D01*
X0061035Y0190928D01*
X0061053Y0191058D01*
X0061075Y0191188D01*
X0061100Y0191317D01*
X0061130Y0191445D01*
X0061164Y0191573D01*
X0061201Y0191699D01*
X0061242Y0191824D01*
X0061287Y0191947D01*
X0061336Y0192070D01*
X0061389Y0192190D01*
X0061445Y0192309D01*
X0061504Y0192427D01*
X0061567Y0192542D01*
X0061634Y0192655D01*
X0061704Y0192767D01*
X0061778Y0192876D01*
X0061854Y0192983D01*
X0061934Y0193087D01*
X0062017Y0193189D01*
X0062103Y0193289D01*
X0062192Y0193386D01*
X0062284Y0193480D01*
X0062379Y0193571D01*
X0062477Y0193660D01*
X0062577Y0193745D01*
X0062679Y0193827D01*
X0062785Y0193906D01*
X0062892Y0193982D01*
X0063002Y0194055D01*
X0063114Y0194124D01*
X0063228Y0194190D01*
X0063344Y0194252D01*
X0063461Y0194311D01*
X0063581Y0194366D01*
X0063702Y0194417D01*
X0063824Y0194465D01*
X0063948Y0194509D01*
X0064074Y0194550D01*
X0064200Y0194586D01*
X0064328Y0194619D01*
X0064456Y0194647D01*
X0064585Y0194672D01*
X0064715Y0194693D01*
X0064846Y0194710D01*
X0064977Y0194723D01*
X0065108Y0194732D01*
X0065239Y0194737D01*
X0065371Y0194738D01*
X0065502Y0194735D01*
X0065634Y0194728D01*
X0065765Y0194717D01*
X0065896Y0194702D01*
X0066026Y0194683D01*
X0066155Y0194660D01*
X0066284Y0194633D01*
X0066412Y0194603D01*
X0066539Y0194568D01*
X0066665Y0194530D01*
X0066790Y0194488D01*
X0066913Y0194442D01*
X0067035Y0194392D01*
X0067155Y0194339D01*
X0067274Y0194282D01*
X0067391Y0194221D01*
X0067505Y0194157D01*
X0067618Y0194090D01*
X0067729Y0194019D01*
X0067838Y0193945D01*
X0067944Y0193867D01*
X0068048Y0193786D01*
X0068150Y0193703D01*
X0068248Y0193616D01*
X0068345Y0193526D01*
X0068438Y0193433D01*
X0068529Y0193338D01*
X0068616Y0193240D01*
X0068701Y0193139D01*
X0068782Y0193035D01*
X0068860Y0192930D01*
X0068936Y0192822D01*
X0069007Y0192711D01*
X0069076Y0192599D01*
X0069141Y0192484D01*
X0069202Y0192368D01*
X0069260Y0192250D01*
X0069314Y0192130D01*
X0069365Y0192009D01*
X0069412Y0191886D01*
X0069455Y0191761D01*
X0069494Y0191636D01*
X0069530Y0191509D01*
X0069561Y0191381D01*
X0069589Y0191253D01*
X0069613Y0191123D01*
X0069633Y0190993D01*
X0069649Y0190863D01*
X0069661Y0190732D01*
X0069669Y0190600D01*
X0069673Y0190469D01*
X0069673Y0190337D01*
X0069669Y0190206D01*
X0069661Y0190074D01*
X0069649Y0189943D01*
X0069633Y0189813D01*
X0069613Y0189683D01*
X0069589Y0189553D01*
X0069561Y0189425D01*
X0069530Y0189297D01*
X0069494Y0189170D01*
X0069455Y0189045D01*
X0069412Y0188920D01*
X0069365Y0188797D01*
X0069314Y0188676D01*
X0069260Y0188556D01*
X0069202Y0188438D01*
X0069141Y0188322D01*
X0069076Y0188207D01*
X0069007Y0188095D01*
X0068936Y0187984D01*
X0068860Y0187876D01*
X0068782Y0187771D01*
X0068701Y0187667D01*
X0068616Y0187566D01*
X0068529Y0187468D01*
X0068438Y0187373D01*
X0068345Y0187280D01*
X0068248Y0187190D01*
X0068150Y0187103D01*
X0068048Y0187020D01*
X0067944Y0186939D01*
X0067838Y0186861D01*
X0067729Y0186787D01*
X0067618Y0186716D01*
X0067506Y0186649D01*
X0067391Y0186585D01*
X0067274Y0186524D01*
X0067155Y0186467D01*
X0067035Y0186414D01*
X0066913Y0186364D01*
X0066790Y0186318D01*
X0066665Y0186276D01*
X0066539Y0186238D01*
X0066412Y0186203D01*
X0066284Y0186173D01*
X0066155Y0186146D01*
X0066026Y0186123D01*
X0065896Y0186104D01*
X0065765Y0186089D01*
X0065634Y0186078D01*
X0065502Y0186071D01*
X0065371Y0186068D01*
X0065239Y0186069D01*
X0065108Y0186074D01*
X0064977Y0186083D01*
X0064846Y0186096D01*
X0064715Y0186113D01*
X0064585Y0186134D01*
X0064456Y0186159D01*
X0064328Y0186187D01*
X0064200Y0186220D01*
X0064074Y0186256D01*
X0063948Y0186297D01*
X0063824Y0186341D01*
X0063702Y0186389D01*
X0063581Y0186440D01*
X0063461Y0186495D01*
X0063344Y0186554D01*
X0063228Y0186616D01*
X0063114Y0186682D01*
X0063002Y0186751D01*
X0062892Y0186824D01*
X0062785Y0186900D01*
X0062679Y0186979D01*
X0062577Y0187061D01*
X0062477Y0187146D01*
X0062379Y0187235D01*
X0062284Y0187326D01*
X0062192Y0187420D01*
X0062103Y0187517D01*
X0062017Y0187617D01*
X0061934Y0187719D01*
X0061854Y0187823D01*
X0061778Y0187930D01*
X0061704Y0188039D01*
X0061634Y0188151D01*
X0061567Y0188264D01*
X0061504Y0188379D01*
X0061445Y0188497D01*
X0061389Y0188616D01*
X0061336Y0188736D01*
X0061287Y0188859D01*
X0061242Y0188982D01*
X0061201Y0189107D01*
X0061164Y0189233D01*
X0061130Y0189361D01*
X0061100Y0189489D01*
X0061075Y0189618D01*
X0061053Y0189748D01*
X0061035Y0189878D01*
X0061021Y0190009D01*
X0061011Y0190140D01*
X0061005Y0190271D01*
X0061003Y0190403D01*
X0056432Y0124050D02*
X0056432Y0121050D01*
X0054932Y0122550D02*
X0057932Y0122550D01*
X0048432Y0118050D02*
X0048438Y0118541D01*
X0048456Y0119031D01*
X0048486Y0119521D01*
X0048528Y0120010D01*
X0048582Y0120498D01*
X0048648Y0120985D01*
X0048726Y0121469D01*
X0048816Y0121952D01*
X0048918Y0122432D01*
X0049031Y0122910D01*
X0049156Y0123384D01*
X0049293Y0123856D01*
X0049441Y0124324D01*
X0049601Y0124788D01*
X0049772Y0125248D01*
X0049954Y0125704D01*
X0050148Y0126155D01*
X0050352Y0126601D01*
X0050568Y0127042D01*
X0050794Y0127478D01*
X0051030Y0127908D01*
X0051277Y0128332D01*
X0051535Y0128750D01*
X0051803Y0129161D01*
X0052080Y0129566D01*
X0052368Y0129964D01*
X0052665Y0130355D01*
X0052972Y0130738D01*
X0053288Y0131113D01*
X0053613Y0131481D01*
X0053947Y0131841D01*
X0054290Y0132192D01*
X0054641Y0132535D01*
X0055001Y0132869D01*
X0055369Y0133194D01*
X0055744Y0133510D01*
X0056127Y0133817D01*
X0056518Y0134114D01*
X0056916Y0134402D01*
X0057321Y0134679D01*
X0057732Y0134947D01*
X0058150Y0135205D01*
X0058574Y0135452D01*
X0059004Y0135688D01*
X0059440Y0135914D01*
X0059881Y0136130D01*
X0060327Y0136334D01*
X0060778Y0136528D01*
X0061234Y0136710D01*
X0061694Y0136881D01*
X0062158Y0137041D01*
X0062626Y0137189D01*
X0063098Y0137326D01*
X0063572Y0137451D01*
X0064050Y0137564D01*
X0064530Y0137666D01*
X0065013Y0137756D01*
X0065497Y0137834D01*
X0065984Y0137900D01*
X0066472Y0137954D01*
X0066961Y0137996D01*
X0067451Y0138026D01*
X0067941Y0138044D01*
X0068432Y0138050D01*
X0068923Y0138044D01*
X0069413Y0138026D01*
X0069903Y0137996D01*
X0070392Y0137954D01*
X0070880Y0137900D01*
X0071367Y0137834D01*
X0071851Y0137756D01*
X0072334Y0137666D01*
X0072814Y0137564D01*
X0073292Y0137451D01*
X0073766Y0137326D01*
X0074238Y0137189D01*
X0074706Y0137041D01*
X0075170Y0136881D01*
X0075630Y0136710D01*
X0076086Y0136528D01*
X0076537Y0136334D01*
X0076983Y0136130D01*
X0077424Y0135914D01*
X0077860Y0135688D01*
X0078290Y0135452D01*
X0078714Y0135205D01*
X0079132Y0134947D01*
X0079543Y0134679D01*
X0079948Y0134402D01*
X0080346Y0134114D01*
X0080737Y0133817D01*
X0081120Y0133510D01*
X0081495Y0133194D01*
X0081863Y0132869D01*
X0082223Y0132535D01*
X0082574Y0132192D01*
X0082917Y0131841D01*
X0083251Y0131481D01*
X0083576Y0131113D01*
X0083892Y0130738D01*
X0084199Y0130355D01*
X0084496Y0129964D01*
X0084784Y0129566D01*
X0085061Y0129161D01*
X0085329Y0128750D01*
X0085587Y0128332D01*
X0085834Y0127908D01*
X0086070Y0127478D01*
X0086296Y0127042D01*
X0086512Y0126601D01*
X0086716Y0126155D01*
X0086910Y0125704D01*
X0087092Y0125248D01*
X0087263Y0124788D01*
X0087423Y0124324D01*
X0087571Y0123856D01*
X0087708Y0123384D01*
X0087833Y0122910D01*
X0087946Y0122432D01*
X0088048Y0121952D01*
X0088138Y0121469D01*
X0088216Y0120985D01*
X0088282Y0120498D01*
X0088336Y0120010D01*
X0088378Y0119521D01*
X0088408Y0119031D01*
X0088426Y0118541D01*
X0088432Y0118050D01*
X0088426Y0117559D01*
X0088408Y0117069D01*
X0088378Y0116579D01*
X0088336Y0116090D01*
X0088282Y0115602D01*
X0088216Y0115115D01*
X0088138Y0114631D01*
X0088048Y0114148D01*
X0087946Y0113668D01*
X0087833Y0113190D01*
X0087708Y0112716D01*
X0087571Y0112244D01*
X0087423Y0111776D01*
X0087263Y0111312D01*
X0087092Y0110852D01*
X0086910Y0110396D01*
X0086716Y0109945D01*
X0086512Y0109499D01*
X0086296Y0109058D01*
X0086070Y0108622D01*
X0085834Y0108192D01*
X0085587Y0107768D01*
X0085329Y0107350D01*
X0085061Y0106939D01*
X0084784Y0106534D01*
X0084496Y0106136D01*
X0084199Y0105745D01*
X0083892Y0105362D01*
X0083576Y0104987D01*
X0083251Y0104619D01*
X0082917Y0104259D01*
X0082574Y0103908D01*
X0082223Y0103565D01*
X0081863Y0103231D01*
X0081495Y0102906D01*
X0081120Y0102590D01*
X0080737Y0102283D01*
X0080346Y0101986D01*
X0079948Y0101698D01*
X0079543Y0101421D01*
X0079132Y0101153D01*
X0078714Y0100895D01*
X0078290Y0100648D01*
X0077860Y0100412D01*
X0077424Y0100186D01*
X0076983Y0099970D01*
X0076537Y0099766D01*
X0076086Y0099572D01*
X0075630Y0099390D01*
X0075170Y0099219D01*
X0074706Y0099059D01*
X0074238Y0098911D01*
X0073766Y0098774D01*
X0073292Y0098649D01*
X0072814Y0098536D01*
X0072334Y0098434D01*
X0071851Y0098344D01*
X0071367Y0098266D01*
X0070880Y0098200D01*
X0070392Y0098146D01*
X0069903Y0098104D01*
X0069413Y0098074D01*
X0068923Y0098056D01*
X0068432Y0098050D01*
X0067941Y0098056D01*
X0067451Y0098074D01*
X0066961Y0098104D01*
X0066472Y0098146D01*
X0065984Y0098200D01*
X0065497Y0098266D01*
X0065013Y0098344D01*
X0064530Y0098434D01*
X0064050Y0098536D01*
X0063572Y0098649D01*
X0063098Y0098774D01*
X0062626Y0098911D01*
X0062158Y0099059D01*
X0061694Y0099219D01*
X0061234Y0099390D01*
X0060778Y0099572D01*
X0060327Y0099766D01*
X0059881Y0099970D01*
X0059440Y0100186D01*
X0059004Y0100412D01*
X0058574Y0100648D01*
X0058150Y0100895D01*
X0057732Y0101153D01*
X0057321Y0101421D01*
X0056916Y0101698D01*
X0056518Y0101986D01*
X0056127Y0102283D01*
X0055744Y0102590D01*
X0055369Y0102906D01*
X0055001Y0103231D01*
X0054641Y0103565D01*
X0054290Y0103908D01*
X0053947Y0104259D01*
X0053613Y0104619D01*
X0053288Y0104987D01*
X0052972Y0105362D01*
X0052665Y0105745D01*
X0052368Y0106136D01*
X0052080Y0106534D01*
X0051803Y0106939D01*
X0051535Y0107350D01*
X0051277Y0107768D01*
X0051030Y0108192D01*
X0050794Y0108622D01*
X0050568Y0109058D01*
X0050352Y0109499D01*
X0050148Y0109945D01*
X0049954Y0110396D01*
X0049772Y0110852D01*
X0049601Y0111312D01*
X0049441Y0111776D01*
X0049293Y0112244D01*
X0049156Y0112716D01*
X0049031Y0113190D01*
X0048918Y0113668D01*
X0048816Y0114148D01*
X0048726Y0114631D01*
X0048648Y0115115D01*
X0048582Y0115602D01*
X0048528Y0116090D01*
X0048486Y0116579D01*
X0048456Y0117069D01*
X0048438Y0117559D01*
X0048432Y0118050D01*
X0039402Y0056163D02*
X0032997Y0056163D01*
X0032997Y0051892D02*
X0039402Y0056163D01*
X0039402Y0051892D02*
X0032997Y0051892D01*
X0032997Y0049731D02*
X0032997Y0047595D01*
X0032997Y0048663D02*
X0039402Y0048663D01*
X0039402Y0047595D02*
X0039402Y0049731D01*
X0167501Y0099554D02*
X0167501Y0105554D01*
X0167503Y0105614D01*
X0167508Y0105675D01*
X0167517Y0105734D01*
X0167530Y0105793D01*
X0167546Y0105852D01*
X0167566Y0105909D01*
X0167589Y0105964D01*
X0167616Y0106019D01*
X0167645Y0106071D01*
X0167678Y0106122D01*
X0167714Y0106171D01*
X0167752Y0106217D01*
X0167794Y0106261D01*
X0167838Y0106303D01*
X0167884Y0106341D01*
X0167933Y0106377D01*
X0167984Y0106410D01*
X0168036Y0106439D01*
X0168091Y0106466D01*
X0168146Y0106489D01*
X0168203Y0106509D01*
X0168262Y0106525D01*
X0168321Y0106538D01*
X0168380Y0106547D01*
X0168441Y0106552D01*
X0168501Y0106554D01*
X0184501Y0106554D01*
X0184561Y0106552D01*
X0184622Y0106547D01*
X0184681Y0106538D01*
X0184740Y0106525D01*
X0184799Y0106509D01*
X0184856Y0106489D01*
X0184911Y0106466D01*
X0184966Y0106439D01*
X0185018Y0106410D01*
X0185069Y0106377D01*
X0185118Y0106341D01*
X0185164Y0106303D01*
X0185208Y0106261D01*
X0185250Y0106217D01*
X0185288Y0106171D01*
X0185324Y0106122D01*
X0185357Y0106071D01*
X0185386Y0106019D01*
X0185413Y0105964D01*
X0185436Y0105909D01*
X0185456Y0105852D01*
X0185472Y0105793D01*
X0185485Y0105734D01*
X0185494Y0105675D01*
X0185499Y0105614D01*
X0185501Y0105554D01*
X0185501Y0099554D01*
X0185499Y0099494D01*
X0185494Y0099433D01*
X0185485Y0099374D01*
X0185472Y0099315D01*
X0185456Y0099256D01*
X0185436Y0099199D01*
X0185413Y0099144D01*
X0185386Y0099089D01*
X0185357Y0099037D01*
X0185324Y0098986D01*
X0185288Y0098937D01*
X0185250Y0098891D01*
X0185208Y0098847D01*
X0185164Y0098805D01*
X0185118Y0098767D01*
X0185069Y0098731D01*
X0185018Y0098698D01*
X0184966Y0098669D01*
X0184911Y0098642D01*
X0184856Y0098619D01*
X0184799Y0098599D01*
X0184740Y0098583D01*
X0184681Y0098570D01*
X0184622Y0098561D01*
X0184561Y0098556D01*
X0184501Y0098554D01*
X0168501Y0098554D01*
X0168441Y0098556D01*
X0168380Y0098561D01*
X0168321Y0098570D01*
X0168262Y0098583D01*
X0168203Y0098599D01*
X0168146Y0098619D01*
X0168091Y0098642D01*
X0168036Y0098669D01*
X0167984Y0098698D01*
X0167933Y0098731D01*
X0167884Y0098767D01*
X0167838Y0098805D01*
X0167794Y0098847D01*
X0167752Y0098891D01*
X0167714Y0098937D01*
X0167678Y0098986D01*
X0167645Y0099037D01*
X0167616Y0099089D01*
X0167589Y0099144D01*
X0167566Y0099199D01*
X0167546Y0099256D01*
X0167530Y0099315D01*
X0167517Y0099374D01*
X0167508Y0099433D01*
X0167503Y0099494D01*
X0167501Y0099554D01*
X0170501Y0102554D02*
X0176501Y0102554D01*
X0176501Y0100054D01*
X0175501Y0100054D01*
X0176501Y0102554D02*
X0176501Y0105054D01*
X0176501Y0102554D02*
X0172501Y0100054D01*
X0172501Y0105054D01*
X0176501Y0102554D01*
X0179001Y0102554D01*
X0187997Y0060460D02*
X0187997Y0056189D01*
X0187997Y0058325D02*
X0194402Y0058325D01*
X0193335Y0054014D02*
X0187997Y0054014D01*
X0187997Y0049744D02*
X0193335Y0049744D01*
X0194402Y0050811D01*
X0194402Y0052947D01*
X0193335Y0054014D01*
X0193335Y0047569D02*
X0189064Y0047569D01*
X0187997Y0046501D01*
X0187997Y0044366D01*
X0189064Y0043298D01*
X0193335Y0043298D01*
X0194402Y0044366D01*
X0194402Y0046501D01*
X0193335Y0047569D01*
X0210162Y0047753D02*
X0210162Y0049888D01*
X0210162Y0048820D02*
X0216568Y0048820D01*
X0216568Y0047753D02*
X0216568Y0049888D01*
X0216568Y0052050D02*
X0210162Y0052050D01*
X0216568Y0056320D01*
X0210162Y0056320D01*
X0246399Y0102037D02*
X0243899Y0104537D01*
X0243899Y0109537D01*
X0246399Y0112037D01*
X0243899Y0114537D01*
X0243899Y0119537D01*
X0246399Y0122037D01*
X0243899Y0124537D01*
X0243899Y0129537D01*
X0246399Y0132037D01*
X0243899Y0134537D01*
X0243899Y0139537D01*
X0246399Y0142037D01*
X0243899Y0144537D01*
X0243899Y0149537D01*
X0246399Y0152037D01*
X0251399Y0152037D01*
X0253899Y0149537D01*
X0253899Y0144537D01*
X0251399Y0142037D01*
X0253899Y0139537D01*
X0253899Y0134537D01*
X0251399Y0132037D01*
X0246399Y0132037D01*
X0251399Y0132037D02*
X0253899Y0129537D01*
X0253899Y0124537D01*
X0251399Y0122037D01*
X0253899Y0119537D01*
X0253899Y0114537D01*
X0251399Y0112037D01*
X0253899Y0109537D01*
X0253899Y0104537D01*
X0251399Y0102037D01*
X0246399Y0102037D01*
X0246399Y0112037D02*
X0251399Y0112037D01*
X0251399Y0122037D02*
X0246399Y0122037D01*
X0246399Y0142037D02*
X0251399Y0142037D01*
X0250199Y0181734D02*
X0245199Y0181734D01*
X0242699Y0184234D01*
X0242699Y0189234D01*
X0245199Y0191734D01*
X0242699Y0194234D01*
X0242699Y0199234D01*
X0245199Y0201734D01*
X0250199Y0201734D02*
X0252699Y0199234D01*
X0252699Y0194234D01*
X0250199Y0191734D01*
X0252699Y0189234D01*
X0252699Y0184234D01*
X0250199Y0181734D01*
X0250199Y0191734D02*
X0245199Y0191734D01*
X0203389Y0181402D02*
X0203391Y0181534D01*
X0203397Y0181665D01*
X0203407Y0181796D01*
X0203421Y0181927D01*
X0203439Y0182057D01*
X0203461Y0182187D01*
X0203486Y0182316D01*
X0203516Y0182444D01*
X0203550Y0182572D01*
X0203587Y0182698D01*
X0203628Y0182823D01*
X0203673Y0182946D01*
X0203722Y0183069D01*
X0203775Y0183189D01*
X0203831Y0183308D01*
X0203890Y0183426D01*
X0203953Y0183541D01*
X0204020Y0183654D01*
X0204090Y0183766D01*
X0204164Y0183875D01*
X0204240Y0183982D01*
X0204320Y0184086D01*
X0204403Y0184188D01*
X0204489Y0184288D01*
X0204578Y0184385D01*
X0204670Y0184479D01*
X0204765Y0184570D01*
X0204863Y0184659D01*
X0204963Y0184744D01*
X0205065Y0184826D01*
X0205171Y0184905D01*
X0205278Y0184981D01*
X0205388Y0185054D01*
X0205500Y0185123D01*
X0205614Y0185189D01*
X0205730Y0185251D01*
X0205847Y0185310D01*
X0205967Y0185365D01*
X0206088Y0185416D01*
X0206210Y0185464D01*
X0206334Y0185508D01*
X0206460Y0185549D01*
X0206586Y0185585D01*
X0206714Y0185618D01*
X0206842Y0185646D01*
X0206971Y0185671D01*
X0207101Y0185692D01*
X0207232Y0185709D01*
X0207363Y0185722D01*
X0207494Y0185731D01*
X0207625Y0185736D01*
X0207757Y0185737D01*
X0207888Y0185734D01*
X0208020Y0185727D01*
X0208151Y0185716D01*
X0208282Y0185701D01*
X0208412Y0185682D01*
X0208541Y0185659D01*
X0208670Y0185632D01*
X0208798Y0185602D01*
X0208925Y0185567D01*
X0209051Y0185529D01*
X0209176Y0185487D01*
X0209299Y0185441D01*
X0209421Y0185391D01*
X0209541Y0185338D01*
X0209660Y0185281D01*
X0209777Y0185220D01*
X0209891Y0185156D01*
X0210004Y0185089D01*
X0210115Y0185018D01*
X0210224Y0184944D01*
X0210330Y0184866D01*
X0210434Y0184785D01*
X0210536Y0184702D01*
X0210634Y0184615D01*
X0210731Y0184525D01*
X0210824Y0184432D01*
X0210915Y0184337D01*
X0211002Y0184239D01*
X0211087Y0184138D01*
X0211168Y0184034D01*
X0211246Y0183929D01*
X0211322Y0183821D01*
X0211393Y0183710D01*
X0211462Y0183598D01*
X0211527Y0183483D01*
X0211588Y0183367D01*
X0211646Y0183249D01*
X0211700Y0183129D01*
X0211751Y0183008D01*
X0211798Y0182885D01*
X0211841Y0182760D01*
X0211880Y0182635D01*
X0211916Y0182508D01*
X0211947Y0182380D01*
X0211975Y0182252D01*
X0211999Y0182122D01*
X0212019Y0181992D01*
X0212035Y0181862D01*
X0212047Y0181731D01*
X0212055Y0181599D01*
X0212059Y0181468D01*
X0212059Y0181336D01*
X0212055Y0181205D01*
X0212047Y0181073D01*
X0212035Y0180942D01*
X0212019Y0180812D01*
X0211999Y0180682D01*
X0211975Y0180552D01*
X0211947Y0180424D01*
X0211916Y0180296D01*
X0211880Y0180169D01*
X0211841Y0180044D01*
X0211798Y0179919D01*
X0211751Y0179796D01*
X0211700Y0179675D01*
X0211646Y0179555D01*
X0211588Y0179437D01*
X0211527Y0179321D01*
X0211462Y0179206D01*
X0211393Y0179094D01*
X0211322Y0178983D01*
X0211246Y0178875D01*
X0211168Y0178770D01*
X0211087Y0178666D01*
X0211002Y0178565D01*
X0210915Y0178467D01*
X0210824Y0178372D01*
X0210731Y0178279D01*
X0210634Y0178189D01*
X0210536Y0178102D01*
X0210434Y0178019D01*
X0210330Y0177938D01*
X0210224Y0177860D01*
X0210115Y0177786D01*
X0210004Y0177715D01*
X0209892Y0177648D01*
X0209777Y0177584D01*
X0209660Y0177523D01*
X0209541Y0177466D01*
X0209421Y0177413D01*
X0209299Y0177363D01*
X0209176Y0177317D01*
X0209051Y0177275D01*
X0208925Y0177237D01*
X0208798Y0177202D01*
X0208670Y0177172D01*
X0208541Y0177145D01*
X0208412Y0177122D01*
X0208282Y0177103D01*
X0208151Y0177088D01*
X0208020Y0177077D01*
X0207888Y0177070D01*
X0207757Y0177067D01*
X0207625Y0177068D01*
X0207494Y0177073D01*
X0207363Y0177082D01*
X0207232Y0177095D01*
X0207101Y0177112D01*
X0206971Y0177133D01*
X0206842Y0177158D01*
X0206714Y0177186D01*
X0206586Y0177219D01*
X0206460Y0177255D01*
X0206334Y0177296D01*
X0206210Y0177340D01*
X0206088Y0177388D01*
X0205967Y0177439D01*
X0205847Y0177494D01*
X0205730Y0177553D01*
X0205614Y0177615D01*
X0205500Y0177681D01*
X0205388Y0177750D01*
X0205278Y0177823D01*
X0205171Y0177899D01*
X0205065Y0177978D01*
X0204963Y0178060D01*
X0204863Y0178145D01*
X0204765Y0178234D01*
X0204670Y0178325D01*
X0204578Y0178419D01*
X0204489Y0178516D01*
X0204403Y0178616D01*
X0204320Y0178718D01*
X0204240Y0178822D01*
X0204164Y0178929D01*
X0204090Y0179038D01*
X0204020Y0179150D01*
X0203953Y0179263D01*
X0203890Y0179378D01*
X0203831Y0179496D01*
X0203775Y0179615D01*
X0203722Y0179735D01*
X0203673Y0179858D01*
X0203628Y0179981D01*
X0203587Y0180106D01*
X0203550Y0180232D01*
X0203516Y0180360D01*
X0203486Y0180488D01*
X0203461Y0180617D01*
X0203439Y0180747D01*
X0203421Y0180877D01*
X0203407Y0181008D01*
X0203397Y0181139D01*
X0203391Y0181270D01*
X0203389Y0181402D01*
X0365162Y0060617D02*
X0365162Y0056347D01*
X0365162Y0058482D02*
X0371568Y0058482D01*
X0370500Y0054172D02*
X0365162Y0054172D01*
X0365162Y0049901D02*
X0370500Y0049901D01*
X0371568Y0050969D01*
X0371568Y0053104D01*
X0370500Y0054172D01*
X0370500Y0047726D02*
X0366230Y0047726D01*
X0365162Y0046659D01*
X0365162Y0044523D01*
X0366230Y0043456D01*
X0370500Y0043456D01*
X0371568Y0044523D01*
X0371568Y0046659D01*
X0370500Y0047726D01*
D12*
X0295114Y0215091D02*
X0295114Y0217192D01*
X0295114Y0216141D02*
X0288809Y0216141D01*
X0288809Y0215091D02*
X0288809Y0217192D01*
X0289860Y0219388D02*
X0294063Y0219388D01*
X0295114Y0220438D01*
X0295114Y0222540D01*
X0294063Y0223591D01*
X0295114Y0225833D02*
X0290910Y0230037D01*
X0289860Y0230037D01*
X0288809Y0228986D01*
X0288809Y0226884D01*
X0289860Y0225833D01*
X0289860Y0223591D02*
X0288809Y0222540D01*
X0288809Y0220438D01*
X0289860Y0219388D01*
X0295114Y0225833D02*
X0295114Y0230037D01*
X0143903Y0262456D02*
X0139700Y0262456D01*
X0141801Y0262456D02*
X0141801Y0268761D01*
X0139700Y0266659D01*
X0137458Y0266659D02*
X0136407Y0265608D01*
X0133254Y0265608D01*
X0133254Y0262456D02*
X0136407Y0262456D01*
X0137458Y0263507D01*
X0137458Y0264558D01*
X0136407Y0265608D01*
X0137458Y0266659D02*
X0137458Y0267710D01*
X0136407Y0268761D01*
X0133254Y0268761D01*
X0133254Y0262456D01*
X0038247Y0227668D02*
X0038247Y0221363D01*
X0036145Y0221363D02*
X0040349Y0221363D01*
X0036145Y0225567D02*
X0038247Y0227668D01*
X0033903Y0227668D02*
X0029700Y0227668D01*
X0029700Y0221363D01*
X0029700Y0224516D02*
X0031801Y0224516D01*
X0093851Y0128423D02*
X0092800Y0127372D01*
X0092800Y0125270D01*
X0093851Y0124219D01*
X0093851Y0121977D02*
X0092800Y0120926D01*
X0092800Y0118825D01*
X0093851Y0117774D01*
X0098055Y0117774D01*
X0099105Y0118825D01*
X0099105Y0120926D01*
X0098055Y0121977D01*
X0099105Y0124219D02*
X0094902Y0128423D01*
X0093851Y0128423D01*
X0099105Y0128423D02*
X0099105Y0124219D01*
D13*
X0099323Y0102471D02*
X0099323Y0097867D01*
X0096254Y0097867D02*
X0096254Y0100936D01*
X0094719Y0102471D01*
X0093185Y0100936D01*
X0093185Y0097867D01*
X0093185Y0100169D02*
X0096254Y0100169D01*
X0097789Y0102471D02*
X0100858Y0102471D01*
X0102393Y0102471D02*
X0102393Y0097867D01*
X0105462Y0097867D02*
X0105462Y0102471D01*
X0103927Y0100936D01*
X0102393Y0102471D01*
X0106996Y0102471D02*
X0106996Y0097867D01*
X0110066Y0097867D01*
X0111600Y0098634D02*
X0112368Y0097867D01*
X0113902Y0097867D01*
X0114670Y0098634D01*
X0114670Y0100169D01*
X0113135Y0100169D01*
X0114670Y0101703D02*
X0113902Y0102471D01*
X0112368Y0102471D01*
X0111600Y0101703D01*
X0111600Y0098634D01*
X0108531Y0100169D02*
X0106996Y0100169D01*
X0106996Y0102471D02*
X0110066Y0102471D01*
X0116204Y0100936D02*
X0116204Y0097867D01*
X0116204Y0100169D02*
X0119274Y0100169D01*
X0119274Y0100936D02*
X0119274Y0097867D01*
X0120808Y0097099D02*
X0123877Y0097099D01*
X0125412Y0097867D02*
X0125412Y0102471D01*
X0127714Y0102471D01*
X0128481Y0101703D01*
X0128481Y0100169D01*
X0127714Y0099401D01*
X0125412Y0099401D01*
X0130016Y0098634D02*
X0130783Y0097867D01*
X0132318Y0097867D01*
X0133085Y0098634D01*
X0133085Y0099401D01*
X0132318Y0100169D01*
X0130783Y0100169D01*
X0130016Y0100936D01*
X0130016Y0101703D01*
X0130783Y0102471D01*
X0132318Y0102471D01*
X0133085Y0101703D01*
X0119274Y0100936D02*
X0117739Y0102471D01*
X0116204Y0100936D01*
X0198803Y0129894D02*
X0198803Y0131429D01*
X0198803Y0130661D02*
X0203407Y0130661D01*
X0203407Y0129894D02*
X0203407Y0131429D01*
X0202639Y0132963D02*
X0199570Y0132963D01*
X0198803Y0133731D01*
X0198803Y0135265D01*
X0199570Y0136033D01*
X0200337Y0137567D02*
X0198803Y0139102D01*
X0203407Y0139102D01*
X0203407Y0137567D02*
X0203407Y0140637D01*
X0202639Y0136033D02*
X0203407Y0135265D01*
X0203407Y0133731D01*
X0202639Y0132963D01*
X0220953Y0120818D02*
X0220953Y0117748D01*
X0221721Y0116981D01*
X0223255Y0116981D01*
X0224023Y0117748D01*
X0225557Y0117748D02*
X0226325Y0116981D01*
X0227859Y0116981D01*
X0228627Y0117748D01*
X0228627Y0118516D01*
X0227859Y0119283D01*
X0227092Y0119283D01*
X0227859Y0119283D02*
X0228627Y0120050D01*
X0228627Y0120818D01*
X0227859Y0121585D01*
X0226325Y0121585D01*
X0225557Y0120818D01*
X0224023Y0120818D02*
X0223255Y0121585D01*
X0221721Y0121585D01*
X0220953Y0120818D01*
X0274203Y0103226D02*
X0274203Y0098622D01*
X0274203Y0100156D02*
X0276505Y0100156D01*
X0277272Y0100924D01*
X0277272Y0102458D01*
X0276505Y0103226D01*
X0274203Y0103226D01*
X0275738Y0100156D02*
X0277272Y0098622D01*
X0278807Y0100924D02*
X0281876Y0100924D01*
X0281109Y0103226D02*
X0278807Y0100924D01*
X0281109Y0098622D02*
X0281109Y0103226D01*
X0381812Y0066778D02*
X0381812Y0065243D01*
X0382579Y0064476D01*
X0383346Y0064476D01*
X0384114Y0065243D01*
X0384114Y0066778D01*
X0384881Y0067545D01*
X0385648Y0067545D01*
X0386416Y0066778D01*
X0386416Y0065243D01*
X0385648Y0064476D01*
X0384114Y0062941D02*
X0382579Y0062941D01*
X0381812Y0062174D01*
X0381812Y0059872D01*
X0386416Y0059872D01*
X0384881Y0059872D02*
X0384881Y0062174D01*
X0384114Y0062941D01*
X0387183Y0058337D02*
X0387183Y0055268D01*
X0385648Y0053734D02*
X0386416Y0052966D01*
X0386416Y0050664D01*
X0381812Y0050664D01*
X0381812Y0052966D01*
X0382579Y0053734D01*
X0383346Y0053734D01*
X0384114Y0052966D01*
X0384114Y0050664D01*
X0384881Y0049130D02*
X0385648Y0049130D01*
X0386416Y0048362D01*
X0386416Y0046828D01*
X0385648Y0046060D01*
X0385648Y0044526D02*
X0381812Y0044526D01*
X0382579Y0046060D02*
X0383346Y0046060D01*
X0384114Y0046828D01*
X0384114Y0048362D01*
X0384881Y0049130D01*
X0382579Y0049130D02*
X0381812Y0048362D01*
X0381812Y0046828D01*
X0382579Y0046060D01*
X0385648Y0044526D02*
X0386416Y0043758D01*
X0386416Y0042224D01*
X0385648Y0041456D01*
X0381812Y0041456D01*
X0384114Y0052966D02*
X0384881Y0053734D01*
X0385648Y0053734D01*
X0381812Y0066778D02*
X0382579Y0067545D01*
X0197099Y0173939D02*
X0192495Y0173939D01*
X0192495Y0176240D01*
X0193263Y0177008D01*
X0194797Y0177008D01*
X0195565Y0176240D01*
X0195565Y0173939D01*
X0196332Y0178542D02*
X0193263Y0178542D01*
X0192495Y0179310D01*
X0192495Y0180844D01*
X0193263Y0181612D01*
X0196332Y0181612D01*
X0197099Y0180844D01*
X0197099Y0179310D01*
X0196332Y0178542D01*
X0192495Y0183146D02*
X0192495Y0186216D01*
X0192495Y0184681D02*
X0197099Y0184681D01*
X0197099Y0187750D02*
X0194030Y0190820D01*
X0193263Y0190820D01*
X0192495Y0190052D01*
X0192495Y0188518D01*
X0193263Y0187750D01*
X0197099Y0187750D02*
X0197099Y0190820D01*
X0285591Y0254227D02*
X0285591Y0258831D01*
X0287893Y0258831D01*
X0288660Y0258064D01*
X0288660Y0256529D01*
X0287893Y0255762D01*
X0285591Y0255762D01*
X0287126Y0255762D02*
X0288660Y0254227D01*
X0290195Y0254994D02*
X0290962Y0254227D01*
X0292497Y0254227D01*
X0293264Y0254994D01*
X0293264Y0256529D01*
X0292497Y0257296D01*
X0291730Y0257296D01*
X0290195Y0256529D01*
X0290195Y0258831D01*
X0293264Y0258831D01*
X0055017Y0192097D02*
X0055017Y0191330D01*
X0054250Y0190563D01*
X0055017Y0189795D01*
X0055017Y0189028D01*
X0054250Y0188261D01*
X0052715Y0188261D01*
X0051948Y0189028D01*
X0053483Y0190563D02*
X0054250Y0190563D01*
X0055017Y0192097D02*
X0054250Y0192864D01*
X0052715Y0192864D01*
X0051948Y0192097D01*
X0050413Y0192864D02*
X0047344Y0192864D01*
X0048879Y0192864D02*
X0048879Y0188261D01*
X0045809Y0189028D02*
X0045809Y0192097D01*
X0045042Y0192864D01*
X0043507Y0192864D01*
X0042740Y0192097D01*
X0042740Y0189028D01*
X0043507Y0188261D01*
X0045042Y0188261D01*
X0045809Y0189028D01*
X0041205Y0190563D02*
X0040438Y0189795D01*
X0038136Y0189795D01*
X0038136Y0188261D02*
X0038136Y0192864D01*
X0040438Y0192864D01*
X0041205Y0192097D01*
X0041205Y0190563D01*
D14*
X0183001Y0102554D03*
D15*
X0189251Y0102554D03*
X0163751Y0102554D03*
D16*
X0028702Y0093667D02*
X0028702Y0011667D01*
X0198702Y0011667D01*
X0198702Y0093667D01*
X0028702Y0093667D01*
X0027822Y0170896D02*
X0027822Y0175400D01*
X0030074Y0175400D01*
X0030825Y0174649D01*
X0030825Y0173148D01*
X0030074Y0172397D01*
X0027822Y0172397D01*
X0029324Y0172397D02*
X0030825Y0170896D01*
X0032426Y0170896D02*
X0035429Y0170896D01*
X0033928Y0170896D02*
X0033928Y0175400D01*
X0032426Y0173898D01*
X0016641Y0206711D02*
X0013638Y0206711D01*
X0013638Y0209714D02*
X0016641Y0209714D01*
X0018142Y0208212D01*
X0016641Y0206711D01*
X0018142Y0211315D02*
X0018142Y0212816D01*
X0018142Y0212066D02*
X0013638Y0212066D01*
X0013638Y0212816D02*
X0013638Y0211315D01*
X0013638Y0214384D02*
X0018142Y0217387D01*
X0013638Y0217387D01*
X0013638Y0214384D02*
X0018142Y0214384D01*
X0105606Y0213737D02*
X0107858Y0213737D01*
X0108608Y0214487D01*
X0108608Y0215989D01*
X0107858Y0216739D01*
X0105606Y0216739D01*
X0105606Y0212236D01*
X0107107Y0213737D02*
X0108608Y0212236D01*
X0110210Y0212986D02*
X0110960Y0212236D01*
X0112462Y0212236D01*
X0113212Y0212986D01*
X0113212Y0213737D01*
X0112462Y0214487D01*
X0110210Y0214487D01*
X0110210Y0212986D01*
X0110210Y0214487D02*
X0111711Y0215989D01*
X0113212Y0216739D01*
X0234082Y0241642D02*
X0235583Y0243144D01*
X0238586Y0243144D01*
X0236334Y0243144D02*
X0236334Y0240141D01*
X0235583Y0240141D02*
X0234082Y0241642D01*
X0235583Y0240141D02*
X0238586Y0240141D01*
X0238586Y0246246D02*
X0234082Y0246246D01*
X0234082Y0244745D02*
X0234082Y0247748D01*
X0234082Y0249349D02*
X0235583Y0250850D01*
X0234082Y0252351D01*
X0238586Y0252351D01*
X0238586Y0253953D02*
X0238586Y0256955D01*
X0237835Y0258557D02*
X0238586Y0259307D01*
X0238586Y0260809D01*
X0237835Y0261559D01*
X0236334Y0261559D01*
X0236334Y0260058D01*
X0237835Y0258557D02*
X0234832Y0258557D01*
X0234082Y0259307D01*
X0234082Y0260809D01*
X0234832Y0261559D01*
X0235583Y0263161D02*
X0234082Y0264662D01*
X0235583Y0266163D01*
X0238586Y0266163D01*
X0239336Y0267765D02*
X0239336Y0270767D01*
X0238586Y0272368D02*
X0238586Y0274620D01*
X0237835Y0275371D01*
X0234832Y0275371D01*
X0234082Y0274620D01*
X0234082Y0272368D01*
X0238586Y0272368D01*
X0238586Y0276972D02*
X0238586Y0278474D01*
X0238586Y0277723D02*
X0234082Y0277723D01*
X0234082Y0276972D02*
X0234082Y0278474D01*
X0234832Y0280042D02*
X0234082Y0280792D01*
X0234082Y0282294D01*
X0234832Y0283044D01*
X0237835Y0283044D01*
X0238586Y0282294D01*
X0238586Y0280792D01*
X0237835Y0280042D01*
X0234832Y0280042D01*
X0236334Y0266163D02*
X0236334Y0263161D01*
X0235583Y0263161D02*
X0238586Y0263161D01*
X0234082Y0256955D02*
X0234082Y0253953D01*
X0238586Y0253953D01*
X0236334Y0253953D02*
X0236334Y0255454D01*
X0238586Y0249349D02*
X0234082Y0249349D01*
X0335767Y0245491D02*
X0335767Y0244741D01*
X0336518Y0243990D01*
X0338019Y0243990D01*
X0338770Y0243240D01*
X0338770Y0242489D01*
X0338019Y0241738D01*
X0336518Y0241738D01*
X0335767Y0242489D01*
X0335767Y0245491D02*
X0336518Y0246242D01*
X0338019Y0246242D01*
X0338770Y0245491D01*
X0340371Y0245491D02*
X0341122Y0246242D01*
X0342623Y0246242D01*
X0343374Y0245491D01*
X0343374Y0244741D01*
X0340371Y0241738D01*
X0343374Y0241738D01*
X0370882Y0240439D02*
X0375386Y0243441D01*
X0370882Y0243441D01*
X0371633Y0245043D02*
X0372384Y0245043D01*
X0373134Y0245793D01*
X0373134Y0247294D01*
X0373885Y0248045D01*
X0374636Y0248045D01*
X0375386Y0247294D01*
X0375386Y0245793D01*
X0374636Y0245043D01*
X0371633Y0245043D02*
X0370882Y0245793D01*
X0370882Y0247294D01*
X0371633Y0248045D01*
X0370882Y0240439D02*
X0375386Y0240439D01*
X0375386Y0238871D02*
X0375386Y0237369D01*
X0375386Y0238120D02*
X0370882Y0238120D01*
X0370882Y0237369D02*
X0370882Y0238871D01*
X0371633Y0235768D02*
X0373134Y0235768D01*
X0373885Y0235017D01*
X0373885Y0232765D01*
X0375386Y0232765D02*
X0370882Y0232765D01*
X0370882Y0235017D01*
X0371633Y0235768D01*
X0376137Y0231164D02*
X0376137Y0228162D01*
X0374636Y0226560D02*
X0371633Y0226560D01*
X0370882Y0225809D01*
X0370882Y0224308D01*
X0371633Y0223558D01*
X0374636Y0223558D01*
X0375386Y0224308D01*
X0375386Y0225809D01*
X0374636Y0226560D01*
X0375386Y0221990D02*
X0375386Y0220488D01*
X0375386Y0221239D02*
X0370882Y0221239D01*
X0370882Y0220488D02*
X0370882Y0221990D01*
X0371633Y0218887D02*
X0370882Y0218136D01*
X0370882Y0215884D01*
X0375386Y0215884D01*
X0375386Y0218136D01*
X0374636Y0218887D01*
X0371633Y0218887D01*
X0350638Y0219593D02*
X0350638Y0216591D01*
X0350638Y0218092D02*
X0346134Y0218092D01*
X0347635Y0216591D01*
X0346134Y0214989D02*
X0350638Y0211987D01*
X0350638Y0214989D02*
X0346134Y0211987D01*
X0345555Y0169838D02*
X0347056Y0169838D01*
X0347807Y0169088D01*
X0347807Y0166836D01*
X0347807Y0168337D02*
X0349308Y0169838D01*
X0349308Y0166836D02*
X0344804Y0166836D01*
X0344804Y0169088D01*
X0345555Y0169838D01*
X0344804Y0165235D02*
X0344804Y0162232D01*
X0349308Y0162232D01*
X0349308Y0165235D01*
X0347056Y0163733D02*
X0347056Y0162232D01*
X0345555Y0160631D02*
X0344804Y0159880D01*
X0344804Y0157628D01*
X0349308Y0157628D01*
X0349308Y0159880D01*
X0348558Y0160631D01*
X0345555Y0160631D01*
X0346306Y0156027D02*
X0349308Y0156027D01*
X0347056Y0156027D02*
X0347056Y0153024D01*
X0346306Y0153024D02*
X0344804Y0154525D01*
X0346306Y0156027D01*
X0346306Y0153024D02*
X0349308Y0153024D01*
X0349308Y0151423D02*
X0349308Y0148420D01*
X0344804Y0148420D01*
X0344804Y0151423D01*
X0347056Y0149921D02*
X0347056Y0148420D01*
X0347056Y0146819D02*
X0347056Y0143816D01*
X0349308Y0143816D02*
X0344804Y0143816D01*
X0344804Y0146819D02*
X0349308Y0146819D01*
X0350059Y0142215D02*
X0350059Y0139212D01*
X0348558Y0137611D02*
X0347056Y0137611D01*
X0347056Y0136110D01*
X0345555Y0137611D02*
X0344804Y0136860D01*
X0344804Y0135359D01*
X0345555Y0134608D01*
X0348558Y0134608D01*
X0349308Y0135359D01*
X0349308Y0136860D01*
X0348558Y0137611D01*
X0349308Y0133007D02*
X0344804Y0133007D01*
X0344804Y0130004D02*
X0349308Y0133007D01*
X0349308Y0130004D02*
X0344804Y0130004D01*
X0344804Y0128436D02*
X0344804Y0126935D01*
X0344804Y0127686D02*
X0349308Y0127686D01*
X0349308Y0128436D02*
X0349308Y0126935D01*
X0349308Y0125334D02*
X0344804Y0125334D01*
X0346306Y0123833D01*
X0344804Y0122331D01*
X0349308Y0122331D01*
X0349308Y0120730D02*
X0344804Y0120730D01*
X0346306Y0119229D01*
X0344804Y0117727D01*
X0349308Y0117727D01*
X0349308Y0116126D02*
X0346306Y0116126D01*
X0344804Y0114625D01*
X0346306Y0113123D01*
X0349308Y0113123D01*
X0348558Y0111522D02*
X0347056Y0111522D01*
X0347056Y0110021D01*
X0345555Y0111522D02*
X0344804Y0110771D01*
X0344804Y0109270D01*
X0345555Y0108520D01*
X0348558Y0108520D01*
X0349308Y0109270D01*
X0349308Y0110771D01*
X0348558Y0111522D01*
X0347056Y0113123D02*
X0347056Y0116126D01*
X0345555Y0106918D02*
X0344804Y0106167D01*
X0344804Y0104666D01*
X0345555Y0103916D01*
X0348558Y0103916D01*
X0349308Y0104666D01*
X0349308Y0106167D01*
X0348558Y0106918D01*
X0345555Y0106918D01*
X0345555Y0102314D02*
X0347056Y0102314D01*
X0347807Y0101564D01*
X0347807Y0099312D01*
X0347807Y0100813D02*
X0349308Y0102314D01*
X0349308Y0099312D02*
X0344804Y0099312D01*
X0344804Y0101564D01*
X0345555Y0102314D01*
X0345555Y0097710D02*
X0347056Y0097710D01*
X0347807Y0096960D01*
X0347807Y0094708D01*
X0349308Y0094708D02*
X0344804Y0094708D01*
X0344804Y0096960D01*
X0345555Y0097710D01*
X0375868Y0093824D02*
X0375868Y0011824D01*
X0205868Y0011824D01*
X0205868Y0093824D01*
X0375868Y0093824D01*
X0367664Y0129191D02*
X0369166Y0130693D01*
X0367664Y0132194D01*
X0364662Y0132194D01*
X0365413Y0133795D02*
X0368415Y0133795D01*
X0369166Y0134546D01*
X0369166Y0136047D01*
X0368415Y0136798D01*
X0365413Y0136798D01*
X0364662Y0136047D01*
X0364662Y0134546D01*
X0365413Y0133795D01*
X0364662Y0129191D02*
X0367664Y0129191D01*
X0368415Y0138399D02*
X0364662Y0138399D01*
X0364662Y0141402D02*
X0368415Y0141402D01*
X0369166Y0140651D01*
X0369166Y0139150D01*
X0368415Y0138399D01*
X0364662Y0143003D02*
X0364662Y0146006D01*
X0364662Y0144505D02*
X0369166Y0144505D01*
X0260849Y0144914D02*
X0260849Y0146415D01*
X0260849Y0145664D02*
X0256345Y0145664D01*
X0256345Y0144914D02*
X0256345Y0146415D01*
X0257096Y0147983D02*
X0260099Y0147983D01*
X0260849Y0148733D01*
X0260849Y0150235D01*
X0260099Y0150985D01*
X0257096Y0150985D01*
X0256345Y0150235D01*
X0256345Y0148733D01*
X0257096Y0147983D01*
X0257847Y0143312D02*
X0260849Y0143312D01*
X0258597Y0143312D02*
X0258597Y0140310D01*
X0257847Y0140310D02*
X0256345Y0141811D01*
X0257847Y0143312D01*
X0257847Y0140310D02*
X0260849Y0140310D01*
X0177496Y0094825D02*
X0176745Y0095575D01*
X0175244Y0095575D01*
X0174493Y0094825D01*
X0172892Y0094825D02*
X0172892Y0091822D01*
X0172141Y0091072D01*
X0169889Y0091072D01*
X0169889Y0095575D01*
X0172141Y0095575D01*
X0172892Y0094825D01*
X0174493Y0091072D02*
X0177496Y0094074D01*
X0177496Y0094825D01*
X0177496Y0091072D02*
X0174493Y0091072D01*
D17*
X0188702Y0077667D02*
X0193702Y0077667D01*
X0191202Y0080167D02*
X0191202Y0075167D01*
X0210868Y0077824D02*
X0215868Y0077824D01*
X0213368Y0080324D02*
X0213368Y0075324D01*
X0213368Y0030324D02*
X0213368Y0025324D01*
X0191202Y0025167D02*
X0191202Y0030167D01*
X0038702Y0077667D02*
X0033702Y0077667D01*
X0036202Y0080167D02*
X0036202Y0075167D01*
X0036202Y0030167D02*
X0036202Y0025167D01*
X0199457Y0172543D02*
X0199457Y0190260D01*
X0236071Y0190260D01*
X0236071Y0172543D01*
X0199457Y0172543D01*
X0093684Y0181545D02*
X0057070Y0181545D01*
X0057070Y0199261D01*
X0093684Y0199261D01*
X0093684Y0181545D01*
X0365868Y0077824D02*
X0370868Y0077824D01*
X0368368Y0080324D02*
X0368368Y0075324D01*
X0368368Y0030324D02*
X0368368Y0025324D01*
D18*
X0139418Y0160410D03*
X0034939Y0160410D03*
D19*
X0040100Y0207261D02*
X0067600Y0207261D01*
X0067600Y0208761D02*
X0057600Y0208761D01*
X0067600Y0214761D02*
X0077600Y0214761D01*
X0067600Y0216261D02*
X0095100Y0216261D01*
X0099350Y0239513D02*
X0059350Y0239513D01*
X0058850Y0251013D02*
X0099850Y0251013D01*
X0099350Y0262513D02*
X0059350Y0262513D01*
X0327725Y0249988D02*
X0327725Y0248988D01*
X0327725Y0249988D02*
X0337725Y0249988D01*
X0337725Y0248988D01*
X0337725Y0271988D02*
X0328225Y0271988D01*
X0328225Y0272988D01*
X0337725Y0272988D02*
X0337725Y0271988D01*
D20*
X0100600Y0261263D03*
X0100600Y0240763D03*
X0058100Y0240763D03*
X0058100Y0261263D03*
D21*
X0058100Y0251013D03*
X0100600Y0251013D03*
D22*
X0079350Y0241513D03*
X0079350Y0260513D03*
D23*
X0049100Y0258763D03*
X0049100Y0243263D03*
X0109600Y0243263D03*
X0109600Y0258763D03*
D24*
X0111350Y0260013D03*
X0111350Y0242013D03*
X0047350Y0242013D03*
X0047350Y0260013D03*
D25*
X0326888Y0212945D02*
X0326888Y0188945D01*
X0326891Y0188738D01*
X0326898Y0188531D01*
X0326911Y0188325D01*
X0326928Y0188118D01*
X0326951Y0187913D01*
X0326979Y0187707D01*
X0327011Y0187503D01*
X0327049Y0187299D01*
X0327091Y0187097D01*
X0327139Y0186895D01*
X0327191Y0186695D01*
X0327248Y0186496D01*
X0327310Y0186299D01*
X0327377Y0186103D01*
X0327449Y0185909D01*
X0327525Y0185716D01*
X0327606Y0185526D01*
X0327692Y0185337D01*
X0327782Y0185151D01*
X0327876Y0184967D01*
X0327976Y0184785D01*
X0328079Y0184606D01*
X0328187Y0184429D01*
X0328299Y0184255D01*
X0328415Y0184084D01*
X0328536Y0183915D01*
X0328660Y0183750D01*
X0328789Y0183588D01*
X0328921Y0183429D01*
X0329057Y0183273D01*
X0329197Y0183120D01*
X0329341Y0182971D01*
X0329488Y0182826D01*
X0329639Y0182684D01*
X0329793Y0182546D01*
X0329951Y0182411D01*
X0330111Y0182281D01*
X0330275Y0182155D01*
X0330442Y0182032D01*
X0330612Y0181914D01*
X0330785Y0181799D01*
X0330960Y0181689D01*
X0331138Y0181584D01*
X0331319Y0181482D01*
X0331501Y0181386D01*
X0331687Y0181293D01*
X0331874Y0181205D01*
X0332064Y0181122D01*
X0332255Y0181043D01*
X0332448Y0180969D01*
X0332644Y0180900D01*
X0332840Y0180836D01*
X0333038Y0180776D01*
X0333238Y0180721D01*
X0333439Y0180671D01*
X0333641Y0180626D01*
X0333844Y0180586D01*
X0334048Y0180551D01*
X0334253Y0180521D01*
X0334458Y0180496D01*
X0334664Y0180476D01*
X0334871Y0180461D01*
X0335078Y0180451D01*
X0335285Y0180446D01*
X0335491Y0180446D01*
X0335698Y0180451D01*
X0335905Y0180461D01*
X0336112Y0180476D01*
X0336318Y0180496D01*
X0336523Y0180521D01*
X0336728Y0180551D01*
X0336932Y0180586D01*
X0337135Y0180626D01*
X0337337Y0180671D01*
X0337538Y0180721D01*
X0337738Y0180776D01*
X0337936Y0180836D01*
X0338132Y0180900D01*
X0338328Y0180969D01*
X0338521Y0181043D01*
X0338712Y0181122D01*
X0338902Y0181205D01*
X0339089Y0181293D01*
X0339275Y0181386D01*
X0339457Y0181482D01*
X0339638Y0181584D01*
X0339816Y0181689D01*
X0339991Y0181799D01*
X0340164Y0181914D01*
X0340334Y0182032D01*
X0340501Y0182155D01*
X0340665Y0182281D01*
X0340825Y0182411D01*
X0340983Y0182546D01*
X0341137Y0182684D01*
X0341288Y0182826D01*
X0341435Y0182971D01*
X0341579Y0183120D01*
X0341719Y0183273D01*
X0341855Y0183429D01*
X0341987Y0183588D01*
X0342116Y0183750D01*
X0342240Y0183915D01*
X0342361Y0184084D01*
X0342477Y0184255D01*
X0342589Y0184429D01*
X0342697Y0184606D01*
X0342800Y0184785D01*
X0342900Y0184967D01*
X0342994Y0185151D01*
X0343084Y0185337D01*
X0343170Y0185526D01*
X0343251Y0185716D01*
X0343327Y0185909D01*
X0343399Y0186103D01*
X0343466Y0186299D01*
X0343528Y0186496D01*
X0343585Y0186695D01*
X0343637Y0186895D01*
X0343685Y0187097D01*
X0343727Y0187299D01*
X0343765Y0187503D01*
X0343797Y0187707D01*
X0343825Y0187913D01*
X0343848Y0188118D01*
X0343865Y0188325D01*
X0343878Y0188531D01*
X0343885Y0188738D01*
X0343888Y0188945D01*
X0343888Y0212945D01*
X0343885Y0213152D01*
X0343878Y0213359D01*
X0343865Y0213565D01*
X0343848Y0213772D01*
X0343825Y0213977D01*
X0343797Y0214183D01*
X0343765Y0214387D01*
X0343727Y0214591D01*
X0343685Y0214793D01*
X0343637Y0214995D01*
X0343585Y0215195D01*
X0343528Y0215394D01*
X0343466Y0215591D01*
X0343399Y0215787D01*
X0343327Y0215981D01*
X0343251Y0216174D01*
X0343170Y0216364D01*
X0343084Y0216553D01*
X0342994Y0216739D01*
X0342900Y0216923D01*
X0342800Y0217105D01*
X0342697Y0217284D01*
X0342589Y0217461D01*
X0342477Y0217635D01*
X0342361Y0217806D01*
X0342240Y0217975D01*
X0342116Y0218140D01*
X0341987Y0218302D01*
X0341855Y0218461D01*
X0341719Y0218617D01*
X0341579Y0218770D01*
X0341435Y0218919D01*
X0341288Y0219064D01*
X0341137Y0219206D01*
X0340983Y0219344D01*
X0340825Y0219479D01*
X0340665Y0219609D01*
X0340501Y0219735D01*
X0340334Y0219858D01*
X0340164Y0219976D01*
X0339991Y0220091D01*
X0339816Y0220201D01*
X0339638Y0220306D01*
X0339457Y0220408D01*
X0339275Y0220504D01*
X0339089Y0220597D01*
X0338902Y0220685D01*
X0338712Y0220768D01*
X0338521Y0220847D01*
X0338328Y0220921D01*
X0338132Y0220990D01*
X0337936Y0221054D01*
X0337738Y0221114D01*
X0337538Y0221169D01*
X0337337Y0221219D01*
X0337135Y0221264D01*
X0336932Y0221304D01*
X0336728Y0221339D01*
X0336523Y0221369D01*
X0336318Y0221394D01*
X0336112Y0221414D01*
X0335905Y0221429D01*
X0335698Y0221439D01*
X0335491Y0221444D01*
X0335285Y0221444D01*
X0335078Y0221439D01*
X0334871Y0221429D01*
X0334664Y0221414D01*
X0334458Y0221394D01*
X0334253Y0221369D01*
X0334048Y0221339D01*
X0333844Y0221304D01*
X0333641Y0221264D01*
X0333439Y0221219D01*
X0333238Y0221169D01*
X0333038Y0221114D01*
X0332840Y0221054D01*
X0332644Y0220990D01*
X0332448Y0220921D01*
X0332255Y0220847D01*
X0332064Y0220768D01*
X0331874Y0220685D01*
X0331687Y0220597D01*
X0331501Y0220504D01*
X0331319Y0220408D01*
X0331138Y0220306D01*
X0330960Y0220201D01*
X0330785Y0220091D01*
X0330612Y0219976D01*
X0330442Y0219858D01*
X0330275Y0219735D01*
X0330111Y0219609D01*
X0329951Y0219479D01*
X0329793Y0219344D01*
X0329639Y0219206D01*
X0329488Y0219064D01*
X0329341Y0218919D01*
X0329197Y0218770D01*
X0329057Y0218617D01*
X0328921Y0218461D01*
X0328789Y0218302D01*
X0328660Y0218140D01*
X0328536Y0217975D01*
X0328415Y0217806D01*
X0328299Y0217635D01*
X0328187Y0217461D01*
X0328079Y0217284D01*
X0327976Y0217105D01*
X0327876Y0216923D01*
X0327782Y0216739D01*
X0327692Y0216553D01*
X0327606Y0216364D01*
X0327525Y0216174D01*
X0327449Y0215981D01*
X0327377Y0215787D01*
X0327310Y0215591D01*
X0327248Y0215394D01*
X0327191Y0215195D01*
X0327139Y0214995D01*
X0327091Y0214793D01*
X0327049Y0214591D01*
X0327011Y0214387D01*
X0326979Y0214183D01*
X0326951Y0213977D01*
X0326928Y0213772D01*
X0326911Y0213565D01*
X0326898Y0213359D01*
X0326891Y0213152D01*
X0326888Y0212945D01*
M02*
