G75*
%MOIN*%
%OFA0B0*%
%FSLAX25Y25*%
%IPPOS*%
%LPD*%
%AMOC8*
5,1,8,0,0,1.08239X$1,22.5*
%
%ADD10C,0.05740*%
%ADD11C,0.06000*%
%ADD12C,0.10000*%
D10*
X0059098Y0051276D02*
X0064839Y0051276D01*
X0064839Y0061118D02*
X0059098Y0061118D01*
X0059098Y0068992D02*
X0064839Y0068992D01*
X0064839Y0078835D02*
X0059098Y0078835D01*
X0059098Y0130016D02*
X0064839Y0130016D01*
X0064839Y0139858D02*
X0059098Y0139858D01*
X0059098Y0147732D02*
X0064839Y0147732D01*
X0064839Y0157575D02*
X0059098Y0157575D01*
D11*
X0031559Y0114425D02*
X0025559Y0114425D01*
X0025559Y0104425D02*
X0031559Y0104425D01*
X0031559Y0094425D02*
X0025559Y0094425D01*
D12*
X0015000Y0032897D02*
X0015000Y0175954D01*
X0015797Y0175740D01*
X0019825Y0175740D01*
X0023716Y0176783D01*
X0027205Y0178797D01*
X0030053Y0181645D01*
X0032068Y0185134D01*
X0033110Y0189025D01*
X0033110Y0193054D01*
X0032897Y0193850D01*
X0086190Y0193850D01*
X0085976Y0193054D01*
X0085976Y0189025D01*
X0087019Y0185134D01*
X0089033Y0181645D01*
X0091882Y0178797D01*
X0095370Y0176783D01*
X0099261Y0175740D01*
X0103290Y0175740D01*
X0104087Y0175954D01*
X0104087Y0032897D01*
X0103290Y0033110D01*
X0099261Y0033110D01*
X0095370Y0032068D01*
X0091882Y0030053D01*
X0089033Y0027205D01*
X0087019Y0023716D01*
X0085976Y0019825D01*
X0085976Y0015797D01*
X0086190Y0015000D01*
X0032897Y0015000D01*
X0033110Y0015797D01*
X0033110Y0019825D01*
X0032068Y0023716D01*
X0030053Y0027205D01*
X0027205Y0030053D01*
X0023716Y0032068D01*
X0019825Y0033110D01*
X0015797Y0033110D01*
X0015000Y0032897D01*
X0015000Y0035996D02*
X0059489Y0035996D01*
X0059110Y0037408D02*
X0060032Y0033968D01*
X0061813Y0030883D01*
X0064332Y0028364D01*
X0067416Y0026583D01*
X0070857Y0025661D01*
X0074419Y0025661D01*
X0077859Y0026583D01*
X0080944Y0028364D01*
X0083463Y0030883D01*
X0085243Y0033968D01*
X0086165Y0037408D01*
X0086165Y0040970D01*
X0085243Y0044410D01*
X0083463Y0047495D01*
X0080944Y0050014D01*
X0077859Y0051795D01*
X0074419Y0052717D01*
X0073509Y0052717D01*
X0073509Y0053000D01*
X0072189Y0056187D01*
X0072179Y0056197D01*
X0072189Y0056207D01*
X0073509Y0059394D01*
X0073509Y0062843D01*
X0072592Y0065055D01*
X0073509Y0067268D01*
X0073509Y0070717D01*
X0072205Y0073864D01*
X0072230Y0073896D01*
X0072811Y0074903D01*
X0073256Y0075977D01*
X0073557Y0077100D01*
X0073595Y0077394D01*
X0074419Y0077394D01*
X0077859Y0078316D01*
X0080944Y0080097D01*
X0083463Y0082615D01*
X0085243Y0085700D01*
X0086165Y0089140D01*
X0086165Y0092702D01*
X0085243Y0096143D01*
X0083463Y0099227D01*
X0080944Y0101746D01*
X0077859Y0103527D01*
X0074507Y0104425D01*
X0077859Y0105323D01*
X0080944Y0107104D01*
X0083463Y0109623D01*
X0085243Y0112708D01*
X0086165Y0116148D01*
X0086165Y0119710D01*
X0085243Y0123151D01*
X0083463Y0126235D01*
X0080944Y0128754D01*
X0077859Y0130535D01*
X0074419Y0131457D01*
X0073509Y0131457D01*
X0073509Y0131740D01*
X0072189Y0134927D01*
X0072179Y0134937D01*
X0072189Y0134947D01*
X0073509Y0138134D01*
X0073509Y0141583D01*
X0072592Y0143795D01*
X0073509Y0146008D01*
X0073509Y0149457D01*
X0072205Y0152604D01*
X0072230Y0152636D01*
X0072811Y0153643D01*
X0073256Y0154717D01*
X0073557Y0155841D01*
X0073595Y0156134D01*
X0074419Y0156134D01*
X0077859Y0157056D01*
X0080944Y0158837D01*
X0083463Y0161355D01*
X0085243Y0164440D01*
X0086165Y0167880D01*
X0086165Y0171442D01*
X0085243Y0174883D01*
X0083463Y0177968D01*
X0080944Y0180486D01*
X0077859Y0182267D01*
X0074419Y0183189D01*
X0070857Y0183189D01*
X0067416Y0182267D01*
X0064332Y0180486D01*
X0061813Y0177968D01*
X0060032Y0174883D01*
X0059110Y0171442D01*
X0059110Y0167880D01*
X0059495Y0166445D01*
X0058517Y0166445D01*
X0057364Y0166293D01*
X0056241Y0165992D01*
X0055167Y0165547D01*
X0054160Y0164966D01*
X0053237Y0164258D01*
X0052415Y0163436D01*
X0051707Y0162513D01*
X0051126Y0161506D01*
X0050681Y0160432D01*
X0050380Y0159309D01*
X0050228Y0158156D01*
X0050228Y0157575D01*
X0061968Y0157575D01*
X0061968Y0157575D01*
X0050228Y0157575D01*
X0050228Y0156993D01*
X0050380Y0155841D01*
X0050681Y0154717D01*
X0051126Y0153643D01*
X0051707Y0152636D01*
X0051732Y0152604D01*
X0050428Y0149457D01*
X0050428Y0146008D01*
X0051345Y0143795D01*
X0050428Y0141583D01*
X0050428Y0138134D01*
X0051748Y0134947D01*
X0051758Y0134937D01*
X0051748Y0134927D01*
X0050428Y0131740D01*
X0050428Y0128291D01*
X0051748Y0125105D01*
X0054187Y0122666D01*
X0057374Y0121346D01*
X0059548Y0121346D01*
X0059110Y0119710D01*
X0059110Y0116148D01*
X0060032Y0112708D01*
X0061813Y0109623D01*
X0064332Y0107104D01*
X0067416Y0105323D01*
X0070769Y0104425D01*
X0067416Y0103527D01*
X0064332Y0101746D01*
X0061813Y0099227D01*
X0060032Y0096143D01*
X0059110Y0092702D01*
X0059110Y0089140D01*
X0059495Y0087705D01*
X0058517Y0087705D01*
X0057364Y0087553D01*
X0056241Y0087252D01*
X0055167Y0086807D01*
X0054160Y0086226D01*
X0053237Y0085518D01*
X0052415Y0084696D01*
X0051707Y0083773D01*
X0051126Y0082766D01*
X0050681Y0081692D01*
X0050380Y0080569D01*
X0050228Y0079416D01*
X0050228Y0078835D01*
X0061968Y0078835D01*
X0061968Y0078835D01*
X0050228Y0078835D01*
X0050228Y0078253D01*
X0050380Y0077100D01*
X0050681Y0075977D01*
X0051126Y0074903D01*
X0051707Y0073896D01*
X0051732Y0073864D01*
X0050428Y0070717D01*
X0050428Y0067268D01*
X0051345Y0065055D01*
X0050428Y0062843D01*
X0050428Y0059394D01*
X0051748Y0056207D01*
X0051758Y0056197D01*
X0051748Y0056187D01*
X0050428Y0053000D01*
X0050428Y0049551D01*
X0051748Y0046364D01*
X0054187Y0043925D01*
X0057374Y0042606D01*
X0059548Y0042606D01*
X0059110Y0040970D01*
X0059110Y0037408D01*
X0052119Y0045994D02*
X0015000Y0045994D01*
X0015000Y0055993D02*
X0051668Y0055993D01*
X0050957Y0065991D02*
X0015000Y0065991D01*
X0015000Y0075990D02*
X0050678Y0075990D01*
X0053850Y0085988D02*
X0034186Y0085988D01*
X0033309Y0085625D02*
X0036544Y0086965D01*
X0039019Y0089440D01*
X0040359Y0092675D01*
X0040359Y0096176D01*
X0039019Y0099410D01*
X0039004Y0099425D01*
X0039019Y0099440D01*
X0040359Y0102675D01*
X0040359Y0106176D01*
X0039032Y0109380D01*
X0039058Y0109414D01*
X0039648Y0110436D01*
X0040100Y0111526D01*
X0040405Y0112666D01*
X0040559Y0113835D01*
X0040559Y0114425D01*
X0028559Y0114425D01*
X0016559Y0114425D01*
X0016559Y0113835D01*
X0016713Y0112666D01*
X0017018Y0111526D01*
X0017470Y0110436D01*
X0018060Y0109414D01*
X0018086Y0109380D01*
X0016759Y0106176D01*
X0016759Y0102675D01*
X0018099Y0099440D01*
X0018114Y0099425D01*
X0018099Y0099410D01*
X0016759Y0096176D01*
X0016759Y0092675D01*
X0018099Y0089440D01*
X0020574Y0086965D01*
X0023809Y0085625D01*
X0033309Y0085625D01*
X0040359Y0095987D02*
X0059990Y0095987D01*
X0066270Y0105985D02*
X0040359Y0105985D01*
X0040559Y0114425D02*
X0040559Y0115015D01*
X0040405Y0116185D01*
X0040100Y0117324D01*
X0039648Y0118414D01*
X0039058Y0119436D01*
X0038340Y0120372D01*
X0037506Y0121206D01*
X0036570Y0121924D01*
X0035548Y0122514D01*
X0034458Y0122966D01*
X0033319Y0123271D01*
X0032149Y0123425D01*
X0028559Y0123425D01*
X0024969Y0123425D01*
X0023799Y0123271D01*
X0022660Y0122966D01*
X0021570Y0122514D01*
X0020548Y0121924D01*
X0019612Y0121206D01*
X0018778Y0120372D01*
X0018060Y0119436D01*
X0017470Y0118414D01*
X0017018Y0117324D01*
X0016713Y0116185D01*
X0016559Y0115015D01*
X0016559Y0114425D01*
X0028559Y0114425D01*
X0028559Y0114425D01*
X0028559Y0114425D01*
X0040559Y0114425D01*
X0040432Y0115984D02*
X0059154Y0115984D01*
X0051385Y0125982D02*
X0015000Y0125982D01*
X0015000Y0115984D02*
X0016687Y0115984D01*
X0016759Y0105985D02*
X0015000Y0105985D01*
X0015000Y0095987D02*
X0016759Y0095987D01*
X0015000Y0085988D02*
X0022933Y0085988D01*
X0028559Y0114425D02*
X0028559Y0123425D01*
X0028559Y0114425D01*
X0028559Y0114425D01*
X0028559Y0115984D02*
X0028559Y0115984D01*
X0015000Y0135981D02*
X0051320Y0135981D01*
X0050440Y0145979D02*
X0015000Y0145979D01*
X0015000Y0155978D02*
X0050362Y0155978D01*
X0056203Y0165976D02*
X0015000Y0165976D01*
X0020700Y0175975D02*
X0060662Y0175975D01*
X0073575Y0155978D02*
X0104087Y0155978D01*
X0104087Y0165976D02*
X0085655Y0165976D01*
X0084613Y0175975D02*
X0098386Y0175975D01*
X0086794Y0185973D02*
X0032292Y0185973D01*
X0073497Y0145979D02*
X0104087Y0145979D01*
X0104087Y0135981D02*
X0072617Y0135981D01*
X0083609Y0125982D02*
X0104087Y0125982D01*
X0104087Y0115984D02*
X0086121Y0115984D01*
X0079005Y0105985D02*
X0104087Y0105985D01*
X0104087Y0095987D02*
X0085285Y0095987D01*
X0085321Y0085988D02*
X0104087Y0085988D01*
X0104087Y0075990D02*
X0073259Y0075990D01*
X0072980Y0065991D02*
X0104087Y0065991D01*
X0104087Y0055993D02*
X0072269Y0055993D01*
X0084329Y0045994D02*
X0104087Y0045994D01*
X0104087Y0035996D02*
X0085787Y0035996D01*
X0088336Y0025997D02*
X0075671Y0025997D01*
X0069604Y0025997D02*
X0030751Y0025997D01*
X0033110Y0015999D02*
X0085976Y0015999D01*
M02*
