G75*
%MOIN*%
%OFA0B0*%
%FSLAX25Y25*%
%IPPOS*%
%LPD*%
%AMOC8*
5,1,8,0,0,1.08239X$1,22.5*
%
%ADD10OC8,0.10000*%
%ADD11OC8,0.06300*%
%ADD12C,0.06300*%
%ADD13R,0.07874X0.05906*%
%ADD14C,0.05200*%
%ADD15C,0.04400*%
%ADD16C,0.06600*%
%ADD17OC8,0.06496*%
%ADD18C,0.06000*%
%ADD19C,0.10000*%
%ADD20C,0.05200*%
%ADD21R,0.09843X0.09843*%
%ADD22C,0.02400*%
%ADD23R,0.03962X0.03962*%
%ADD24C,0.03200*%
%ADD25C,0.08600*%
D10*
X0158558Y0216678D03*
X0201558Y0216678D03*
X0201558Y0259678D03*
X0158558Y0259678D03*
D11*
X0075432Y0118050D03*
D12*
X0061432Y0118050D03*
D13*
X0260292Y0167344D03*
X0260292Y0179155D03*
D14*
X0271664Y0176694D02*
X0276864Y0176694D01*
X0276864Y0186694D02*
X0271664Y0186694D01*
X0271664Y0196694D02*
X0276864Y0196694D01*
X0276864Y0206694D02*
X0271664Y0206694D01*
X0271664Y0216694D02*
X0276864Y0216694D01*
X0276864Y0226694D02*
X0271664Y0226694D01*
X0271664Y0236694D02*
X0276864Y0236694D01*
X0276864Y0246694D02*
X0271664Y0246694D01*
X0301664Y0246694D02*
X0306864Y0246694D01*
X0306864Y0236694D02*
X0301664Y0236694D01*
X0301664Y0226694D02*
X0306864Y0226694D01*
X0306864Y0216694D02*
X0301664Y0216694D01*
X0301664Y0206694D02*
X0306864Y0206694D01*
X0306864Y0196694D02*
X0301664Y0196694D01*
X0301664Y0186694D02*
X0306864Y0186694D01*
X0306864Y0176694D02*
X0301664Y0176694D01*
X0301664Y0166694D02*
X0306864Y0166694D01*
X0306864Y0156694D02*
X0301664Y0156694D01*
X0301664Y0146694D02*
X0306864Y0146694D01*
X0306864Y0136694D02*
X0301664Y0136694D01*
X0301664Y0126694D02*
X0306864Y0126694D01*
X0306864Y0116694D02*
X0301664Y0116694D01*
X0276864Y0116694D02*
X0271664Y0116694D01*
X0271664Y0126694D02*
X0276864Y0126694D01*
X0276864Y0136694D02*
X0271664Y0136694D01*
X0271664Y0146694D02*
X0276864Y0146694D01*
X0276864Y0156694D02*
X0271664Y0156694D01*
X0271664Y0166694D02*
X0276864Y0166694D01*
X0235396Y0166898D02*
X0235396Y0161698D01*
X0235396Y0126898D02*
X0235396Y0121698D01*
X0199101Y0102554D02*
X0193901Y0102554D01*
X0159101Y0102554D02*
X0153901Y0102554D01*
D15*
X0207764Y0181402D03*
X0217764Y0181402D03*
X0227764Y0181402D03*
X0085377Y0190403D03*
X0075377Y0190403D03*
X0065377Y0190403D03*
D16*
X0109766Y0189288D02*
X0109766Y0195888D01*
X0119766Y0195888D02*
X0119766Y0189288D01*
X0129766Y0189288D02*
X0129766Y0195888D01*
X0165435Y0196321D02*
X0165435Y0189721D01*
X0175435Y0189721D02*
X0175435Y0196321D01*
X0185435Y0196321D02*
X0185435Y0189721D01*
D17*
X0147179Y0160410D03*
X0027179Y0160410D03*
D18*
X0020718Y0177234D02*
X0014718Y0177234D01*
X0014718Y0187234D02*
X0020718Y0187234D01*
X0020718Y0197234D02*
X0014718Y0197234D01*
X0052600Y0212261D02*
X0052600Y0218261D01*
X0082600Y0211261D02*
X0082600Y0205261D01*
X0244699Y0206734D02*
X0250699Y0206734D01*
X0250699Y0196734D02*
X0244699Y0196734D01*
X0244699Y0186734D02*
X0250699Y0186734D01*
X0250699Y0216734D02*
X0244699Y0216734D01*
X0244699Y0226734D02*
X0250699Y0226734D01*
X0250699Y0236734D02*
X0244699Y0236734D01*
X0244699Y0246734D02*
X0250699Y0246734D01*
X0316925Y0252088D02*
X0322925Y0252088D01*
X0342525Y0252088D02*
X0348525Y0252088D01*
X0357356Y0241289D02*
X0363356Y0241289D01*
X0363356Y0231289D02*
X0357356Y0231289D01*
X0357356Y0221289D02*
X0363356Y0221289D01*
X0363356Y0211289D02*
X0357356Y0211289D01*
X0357356Y0201289D02*
X0363356Y0201289D01*
X0340358Y0165890D02*
X0334358Y0165890D01*
X0334358Y0155890D02*
X0340358Y0155890D01*
X0340358Y0145890D02*
X0334358Y0145890D01*
X0334358Y0135890D02*
X0340358Y0135890D01*
X0340358Y0125890D02*
X0334358Y0125890D01*
X0334358Y0115890D02*
X0340358Y0115890D01*
X0373616Y0134241D02*
X0379616Y0134241D01*
X0379616Y0144241D02*
X0373616Y0144241D01*
X0373616Y0154241D02*
X0379616Y0154241D01*
X0251899Y0147037D02*
X0245899Y0147037D01*
X0245899Y0137037D02*
X0251899Y0137037D01*
X0251899Y0127037D02*
X0245899Y0127037D01*
X0245899Y0117037D02*
X0251899Y0117037D01*
X0251899Y0107037D02*
X0245899Y0107037D01*
X0316925Y0269888D02*
X0322925Y0269888D01*
X0342525Y0269888D02*
X0348525Y0269888D01*
D19*
X0123650Y0256013D02*
X0123650Y0246013D01*
X0035050Y0246013D02*
X0035050Y0256013D01*
D20*
X0335388Y0210445D03*
X0335388Y0191445D03*
D21*
X0368868Y0086824D03*
X0368868Y0018824D03*
X0212868Y0018824D03*
X0191702Y0018667D03*
X0191702Y0086667D03*
X0212868Y0086824D03*
X0035702Y0086667D03*
X0035702Y0018667D03*
D22*
X0218292Y0181402D02*
X0235396Y0164298D01*
X0257246Y0164298D01*
X0260292Y0167344D01*
X0273613Y0167344D01*
X0274264Y0166694D01*
X0274264Y0196694D02*
X0274685Y0197115D01*
X0282521Y0197115D01*
X0287757Y0202352D01*
X0287757Y0248415D01*
X0291431Y0252088D01*
X0319925Y0252088D01*
X0304264Y0216694D02*
X0346683Y0216694D01*
X0352206Y0211171D01*
X0360238Y0211171D01*
X0360356Y0211289D01*
X0337358Y0155890D02*
X0332713Y0155890D01*
X0314175Y0137352D01*
X0304921Y0137352D01*
X0304264Y0136694D01*
X0304264Y0126694D02*
X0311588Y0126694D01*
X0331143Y0146249D01*
X0336999Y0146249D01*
X0337358Y0145890D01*
X0218292Y0181402D02*
X0217764Y0181402D01*
D23*
X0244433Y0174990D03*
X0200575Y0127471D03*
X0219118Y0098337D03*
X0240890Y0099045D03*
X0176914Y0075778D03*
X0155693Y0090108D03*
X0144473Y0101093D03*
X0148331Y0110856D03*
X0085418Y0118415D03*
X0076559Y0129045D03*
X0076796Y0106959D03*
X0038370Y0104872D03*
X0019040Y0088849D03*
X0034040Y0062746D03*
X0036678Y0036801D03*
X0049827Y0027667D03*
X0047189Y0017589D03*
X0186559Y0029872D03*
X0191559Y0036683D03*
X0201992Y0030896D03*
X0201796Y0021723D03*
X0221599Y0029754D03*
X0213922Y0040108D03*
X0227701Y0017352D03*
X0311441Y0073770D03*
X0368922Y0035581D03*
X0375654Y0031919D03*
X0362347Y0030935D03*
X0381599Y0086211D03*
X0356205Y0115620D03*
X0363961Y0156289D03*
X0367465Y0167038D03*
X0376012Y0167128D03*
X0354197Y0175187D03*
X0347479Y0181189D03*
X0341999Y0175621D03*
X0331087Y0176368D03*
X0324000Y0184242D03*
X0348252Y0194793D03*
X0349626Y0204564D03*
X0316441Y0156329D03*
X0200811Y0244557D03*
X0141559Y0216683D03*
X0035103Y0133101D03*
X0275181Y0259833D03*
D24*
X0027649Y0016376D02*
X0026932Y0013700D01*
X0028181Y0013700D01*
X0028181Y0018667D01*
X0035702Y0018667D01*
X0035702Y0026188D01*
X0030525Y0026188D01*
X0030023Y0026088D01*
X0029550Y0025892D01*
X0029124Y0025607D01*
X0028762Y0025245D01*
X0028477Y0024819D01*
X0028281Y0024346D01*
X0028181Y0023844D01*
X0028181Y0018667D01*
X0035702Y0018667D01*
X0035702Y0018667D01*
X0035702Y0018667D01*
X0035702Y0026188D01*
X0040880Y0026188D01*
X0041382Y0026088D01*
X0041855Y0025892D01*
X0042281Y0025607D01*
X0042643Y0025245D01*
X0042928Y0024819D01*
X0043124Y0024346D01*
X0043224Y0023844D01*
X0043224Y0018667D01*
X0035702Y0018667D01*
X0035702Y0018667D01*
X0043224Y0018667D01*
X0043224Y0013700D01*
X0166398Y0013700D01*
X0164496Y0015602D01*
X0162981Y0018226D01*
X0162197Y0021152D01*
X0162197Y0024181D01*
X0162981Y0027108D01*
X0164496Y0029731D01*
X0166638Y0031873D01*
X0169261Y0033388D01*
X0172188Y0034172D01*
X0175217Y0034172D01*
X0178143Y0033388D01*
X0180767Y0031873D01*
X0182909Y0029731D01*
X0184424Y0027108D01*
X0184889Y0025372D01*
X0185124Y0025607D01*
X0185550Y0025892D01*
X0186023Y0026088D01*
X0186525Y0026188D01*
X0191702Y0026188D01*
X0191702Y0018667D01*
X0191702Y0018667D01*
X0191702Y0026188D01*
X0196880Y0026188D01*
X0197382Y0026088D01*
X0197855Y0025892D01*
X0198281Y0025607D01*
X0198643Y0025245D01*
X0198928Y0024819D01*
X0199124Y0024346D01*
X0199224Y0023844D01*
X0199224Y0018667D01*
X0191702Y0018667D01*
X0191702Y0018667D01*
X0199224Y0018667D01*
X0199224Y0013700D01*
X0205346Y0013700D01*
X0205346Y0018824D01*
X0212868Y0018824D01*
X0212868Y0018824D01*
X0220389Y0018824D01*
X0220389Y0013700D01*
X0343721Y0013700D01*
X0341661Y0015760D01*
X0340146Y0018383D01*
X0339362Y0021309D01*
X0339362Y0024339D01*
X0340146Y0027265D01*
X0341661Y0029889D01*
X0343803Y0032031D01*
X0346427Y0033546D01*
X0349353Y0034330D01*
X0352382Y0034330D01*
X0355309Y0033546D01*
X0357932Y0032031D01*
X0360074Y0029889D01*
X0361589Y0027265D01*
X0362054Y0025530D01*
X0362289Y0025765D01*
X0362715Y0026049D01*
X0363188Y0026245D01*
X0363690Y0026345D01*
X0368868Y0026345D01*
X0368868Y0018824D01*
X0368868Y0018824D01*
X0376389Y0018824D01*
X0376389Y0013700D01*
X0378583Y0013700D01*
X0377866Y0016376D01*
X0377866Y0019509D01*
X0378677Y0022535D01*
X0380244Y0025249D01*
X0382459Y0027464D01*
X0385172Y0029031D01*
X0388199Y0029841D01*
X0391332Y0029841D01*
X0393614Y0029230D01*
X0393614Y0258623D01*
X0391332Y0258012D01*
X0388199Y0258012D01*
X0385172Y0258822D01*
X0382459Y0260389D01*
X0380244Y0262604D01*
X0378677Y0265318D01*
X0377866Y0268344D01*
X0377866Y0271477D01*
X0378583Y0274153D01*
X0351897Y0274153D01*
X0353103Y0272947D01*
X0353925Y0270962D01*
X0353925Y0268814D01*
X0353103Y0266829D01*
X0351584Y0265310D01*
X0349599Y0264488D01*
X0341451Y0264488D01*
X0339466Y0265310D01*
X0337947Y0266829D01*
X0337125Y0268814D01*
X0337125Y0270962D01*
X0337947Y0272947D01*
X0339153Y0274153D01*
X0326297Y0274153D01*
X0327503Y0272947D01*
X0328325Y0270962D01*
X0328325Y0268814D01*
X0327503Y0266829D01*
X0325984Y0265310D01*
X0323999Y0264488D01*
X0315851Y0264488D01*
X0313866Y0265310D01*
X0312347Y0266829D01*
X0311525Y0268814D01*
X0311525Y0270962D01*
X0312347Y0272947D01*
X0313553Y0274153D01*
X0026932Y0274153D01*
X0027649Y0271477D01*
X0027649Y0268344D01*
X0026838Y0265318D01*
X0025271Y0262604D01*
X0023056Y0260389D01*
X0020343Y0258822D01*
X0017316Y0258012D01*
X0014183Y0258012D01*
X0011507Y0258729D01*
X0011507Y0201659D01*
X0011659Y0201811D01*
X0013644Y0202634D01*
X0021792Y0202634D01*
X0023777Y0201811D01*
X0025296Y0200292D01*
X0026118Y0198308D01*
X0026118Y0196159D01*
X0025296Y0194175D01*
X0023777Y0192656D01*
X0022758Y0192234D01*
X0023777Y0191811D01*
X0025296Y0190292D01*
X0026118Y0188308D01*
X0026118Y0186159D01*
X0025296Y0184175D01*
X0023777Y0182656D01*
X0022758Y0182234D01*
X0023777Y0181811D01*
X0025296Y0180292D01*
X0026118Y0178308D01*
X0026118Y0176159D01*
X0025296Y0174175D01*
X0023777Y0172656D01*
X0021792Y0171834D01*
X0013644Y0171834D01*
X0011659Y0172656D01*
X0011507Y0172808D01*
X0011507Y0029124D01*
X0014183Y0029841D01*
X0017316Y0029841D01*
X0020343Y0029031D01*
X0023056Y0027464D01*
X0025271Y0025249D01*
X0026838Y0022535D01*
X0027649Y0019509D01*
X0027649Y0016376D01*
X0027649Y0017695D02*
X0028181Y0017695D01*
X0028181Y0014497D02*
X0027145Y0014497D01*
X0027278Y0020894D02*
X0028181Y0020894D01*
X0028230Y0024092D02*
X0025939Y0024092D01*
X0023229Y0027291D02*
X0163087Y0027291D01*
X0162197Y0024092D02*
X0043174Y0024092D01*
X0043224Y0020894D02*
X0162266Y0020894D01*
X0163287Y0017695D02*
X0043224Y0017695D01*
X0043224Y0014497D02*
X0165601Y0014497D01*
X0165254Y0030489D02*
X0011507Y0030489D01*
X0011507Y0033688D02*
X0170380Y0033688D01*
X0177025Y0033688D02*
X0346958Y0033688D01*
X0342262Y0030489D02*
X0182151Y0030489D01*
X0184318Y0027291D02*
X0340161Y0027291D01*
X0339362Y0024092D02*
X0220371Y0024092D01*
X0220389Y0024001D02*
X0220289Y0024504D01*
X0220093Y0024977D01*
X0219809Y0025403D01*
X0219446Y0025765D01*
X0219021Y0026049D01*
X0218547Y0026245D01*
X0218045Y0026345D01*
X0212868Y0026345D01*
X0212868Y0018824D01*
X0220389Y0018824D01*
X0220389Y0024001D01*
X0220389Y0020894D02*
X0339474Y0020894D01*
X0340543Y0017695D02*
X0220389Y0017695D01*
X0220389Y0014497D02*
X0342924Y0014497D01*
X0361574Y0027291D02*
X0382286Y0027291D01*
X0379576Y0024092D02*
X0376371Y0024092D01*
X0376389Y0024001D02*
X0376289Y0024504D01*
X0376093Y0024977D01*
X0375809Y0025403D01*
X0375446Y0025765D01*
X0375021Y0026049D01*
X0374547Y0026245D01*
X0374045Y0026345D01*
X0368868Y0026345D01*
X0368868Y0018824D01*
X0376389Y0018824D01*
X0376389Y0024001D01*
X0376389Y0020894D02*
X0378237Y0020894D01*
X0377866Y0017695D02*
X0376389Y0017695D01*
X0376389Y0014497D02*
X0378370Y0014497D01*
X0368868Y0018824D02*
X0368868Y0018824D01*
X0368868Y0020894D02*
X0368868Y0020894D01*
X0368868Y0024092D02*
X0368868Y0024092D01*
X0359474Y0030489D02*
X0393614Y0030489D01*
X0393614Y0033688D02*
X0354778Y0033688D01*
X0393614Y0036886D02*
X0011507Y0036886D01*
X0011507Y0040085D02*
X0393614Y0040085D01*
X0393614Y0043283D02*
X0011507Y0043283D01*
X0011507Y0046482D02*
X0393614Y0046482D01*
X0393614Y0049680D02*
X0011507Y0049680D01*
X0011507Y0052879D02*
X0393614Y0052879D01*
X0393614Y0056077D02*
X0210012Y0056077D01*
X0210687Y0056357D02*
X0208224Y0055337D01*
X0050441Y0055337D01*
X0047978Y0056357D01*
X0046093Y0058241D01*
X0030022Y0074312D01*
X0029002Y0076775D01*
X0029002Y0080130D01*
X0028746Y0080386D01*
X0028381Y0081268D01*
X0028381Y0092065D01*
X0028746Y0092947D01*
X0029422Y0093623D01*
X0030304Y0093988D01*
X0041101Y0093988D01*
X0041983Y0093623D01*
X0042658Y0092947D01*
X0043024Y0092065D01*
X0043024Y0081268D01*
X0042729Y0080556D01*
X0047240Y0076045D01*
X0045981Y0078226D01*
X0045197Y0081152D01*
X0045197Y0084181D01*
X0045981Y0087108D01*
X0047496Y0089731D01*
X0049638Y0091873D01*
X0052261Y0093388D01*
X0055188Y0094172D01*
X0058217Y0094172D01*
X0061143Y0093388D01*
X0063767Y0091873D01*
X0065909Y0089731D01*
X0067424Y0087108D01*
X0068208Y0084181D01*
X0068208Y0081152D01*
X0067424Y0078226D01*
X0065909Y0075602D01*
X0063767Y0073460D01*
X0061143Y0071945D01*
X0058217Y0071161D01*
X0055188Y0071161D01*
X0052261Y0071945D01*
X0050081Y0073204D01*
X0054548Y0068737D01*
X0204116Y0068737D01*
X0205191Y0069812D01*
X0205191Y0089236D01*
X0205546Y0090093D01*
X0205546Y0092223D01*
X0205912Y0093105D01*
X0206587Y0093780D01*
X0207469Y0094145D01*
X0208659Y0094145D01*
X0209198Y0094685D01*
X0211661Y0095705D01*
X0214326Y0095705D01*
X0216789Y0094685D01*
X0217329Y0094145D01*
X0218266Y0094145D01*
X0219148Y0093780D01*
X0219824Y0093105D01*
X0220189Y0092223D01*
X0220189Y0081425D01*
X0219824Y0080543D01*
X0219148Y0079868D01*
X0218591Y0079637D01*
X0218591Y0065704D01*
X0217571Y0063241D01*
X0215687Y0061357D01*
X0210687Y0056357D01*
X0213606Y0059276D02*
X0393614Y0059276D01*
X0393614Y0062474D02*
X0216804Y0062474D01*
X0218578Y0065673D02*
X0393614Y0065673D01*
X0393614Y0068871D02*
X0218591Y0068871D01*
X0218591Y0072070D02*
X0229549Y0072070D01*
X0229427Y0072103D02*
X0232353Y0071319D01*
X0235382Y0071319D01*
X0238309Y0072103D01*
X0240932Y0073617D01*
X0243074Y0075760D01*
X0244589Y0078383D01*
X0245373Y0081309D01*
X0245373Y0084339D01*
X0244589Y0087265D01*
X0243074Y0089889D01*
X0240932Y0092031D01*
X0238309Y0093546D01*
X0235382Y0094330D01*
X0232353Y0094330D01*
X0229427Y0093546D01*
X0226803Y0092031D01*
X0224661Y0089889D01*
X0223146Y0087265D01*
X0222362Y0084339D01*
X0222362Y0081309D01*
X0223146Y0078383D01*
X0224661Y0075760D01*
X0226803Y0073617D01*
X0229427Y0072103D01*
X0225152Y0075268D02*
X0218591Y0075268D01*
X0218591Y0078467D02*
X0223124Y0078467D01*
X0222362Y0081665D02*
X0220189Y0081665D01*
X0220189Y0084864D02*
X0222503Y0084864D01*
X0223607Y0088063D02*
X0220189Y0088063D01*
X0220189Y0091261D02*
X0226033Y0091261D01*
X0217015Y0094460D02*
X0393614Y0094460D01*
X0393614Y0097658D02*
X0200347Y0097658D01*
X0200095Y0097554D02*
X0201933Y0098315D01*
X0203340Y0099722D01*
X0204101Y0101559D01*
X0204101Y0103548D01*
X0203340Y0105386D01*
X0201933Y0106793D01*
X0200095Y0107554D01*
X0192906Y0107554D01*
X0191068Y0106793D01*
X0189662Y0105386D01*
X0188901Y0103548D01*
X0188901Y0101559D01*
X0189662Y0099722D01*
X0191068Y0098315D01*
X0192906Y0097554D01*
X0200095Y0097554D01*
X0197983Y0093623D02*
X0197101Y0093988D01*
X0186304Y0093988D01*
X0185422Y0093623D01*
X0184746Y0092947D01*
X0184381Y0092065D01*
X0184381Y0081268D01*
X0184746Y0080386D01*
X0185422Y0079711D01*
X0186304Y0079345D01*
X0197101Y0079345D01*
X0197983Y0079711D01*
X0198658Y0080386D01*
X0199024Y0081268D01*
X0199024Y0092065D01*
X0198658Y0092947D01*
X0197983Y0093623D01*
X0199024Y0091261D02*
X0205546Y0091261D01*
X0205191Y0088063D02*
X0199024Y0088063D01*
X0199024Y0084864D02*
X0205191Y0084864D01*
X0205191Y0081665D02*
X0199024Y0081665D01*
X0205191Y0078467D02*
X0067488Y0078467D01*
X0068208Y0081665D02*
X0184381Y0081665D01*
X0184381Y0084864D02*
X0068025Y0084864D01*
X0066872Y0088063D02*
X0184381Y0088063D01*
X0184381Y0091261D02*
X0064379Y0091261D01*
X0049025Y0091261D02*
X0043024Y0091261D01*
X0043024Y0088063D02*
X0046532Y0088063D01*
X0045380Y0084864D02*
X0043024Y0084864D01*
X0043024Y0081665D02*
X0045197Y0081665D01*
X0044818Y0078467D02*
X0045916Y0078467D01*
X0051215Y0072070D02*
X0052045Y0072070D01*
X0054414Y0068871D02*
X0204251Y0068871D01*
X0205191Y0072070D02*
X0061359Y0072070D01*
X0065575Y0075268D02*
X0205191Y0075268D01*
X0208973Y0094460D02*
X0011507Y0094460D01*
X0011507Y0097658D02*
X0152141Y0097658D01*
X0151905Y0097735D02*
X0152683Y0097482D01*
X0153491Y0097354D01*
X0156501Y0097354D01*
X0159510Y0097354D01*
X0160318Y0097482D01*
X0161097Y0097735D01*
X0161826Y0098106D01*
X0162488Y0098588D01*
X0163067Y0099166D01*
X0163548Y0099828D01*
X0163920Y0100558D01*
X0164173Y0101336D01*
X0164301Y0102145D01*
X0164301Y0102554D01*
X0164301Y0102963D01*
X0164173Y0103772D01*
X0163920Y0104550D01*
X0163548Y0105279D01*
X0163067Y0105941D01*
X0162488Y0106520D01*
X0161826Y0107001D01*
X0161097Y0107373D01*
X0160318Y0107626D01*
X0159510Y0107754D01*
X0156501Y0107754D01*
X0156501Y0102554D01*
X0164301Y0102554D01*
X0156501Y0102554D01*
X0156501Y0102554D01*
X0156501Y0102554D01*
X0156501Y0107754D01*
X0153491Y0107754D01*
X0152683Y0107626D01*
X0151905Y0107373D01*
X0151175Y0107001D01*
X0150513Y0106520D01*
X0149934Y0105941D01*
X0149453Y0105279D01*
X0149082Y0104550D01*
X0148829Y0103772D01*
X0148701Y0102963D01*
X0148701Y0102554D01*
X0156501Y0102554D01*
X0156501Y0097354D01*
X0156501Y0102554D01*
X0156501Y0102554D01*
X0156501Y0102554D01*
X0148701Y0102554D01*
X0148701Y0102145D01*
X0148829Y0101336D01*
X0149082Y0100558D01*
X0149453Y0099828D01*
X0149934Y0099166D01*
X0150513Y0098588D01*
X0151175Y0098106D01*
X0151905Y0097735D01*
X0148985Y0100857D02*
X0011507Y0100857D01*
X0011507Y0104055D02*
X0148921Y0104055D01*
X0151670Y0107254D02*
X0011507Y0107254D01*
X0011507Y0110452D02*
X0241678Y0110452D01*
X0241321Y0110096D02*
X0240499Y0108111D01*
X0240499Y0105963D01*
X0241321Y0103978D01*
X0242840Y0102459D01*
X0244825Y0101637D01*
X0252973Y0101637D01*
X0254958Y0102459D01*
X0256477Y0103978D01*
X0257299Y0105963D01*
X0257299Y0108111D01*
X0256477Y0110096D01*
X0254958Y0111615D01*
X0253939Y0112037D01*
X0254958Y0112459D01*
X0256477Y0113978D01*
X0257299Y0115963D01*
X0257299Y0118111D01*
X0256477Y0120096D01*
X0254958Y0121615D01*
X0253939Y0122037D01*
X0254958Y0122459D01*
X0256477Y0123978D01*
X0257299Y0125963D01*
X0257299Y0128111D01*
X0256477Y0130096D01*
X0254958Y0131615D01*
X0253939Y0132037D01*
X0254958Y0132459D01*
X0256477Y0133978D01*
X0257299Y0135963D01*
X0257299Y0138111D01*
X0256477Y0140096D01*
X0254958Y0141615D01*
X0253939Y0142037D01*
X0254958Y0142459D01*
X0256477Y0143978D01*
X0257299Y0145963D01*
X0257299Y0148111D01*
X0256477Y0150096D01*
X0254958Y0151615D01*
X0252973Y0152437D01*
X0244825Y0152437D01*
X0242840Y0151615D01*
X0241321Y0150096D01*
X0240499Y0148111D01*
X0240499Y0145963D01*
X0241321Y0143978D01*
X0242840Y0142459D01*
X0243859Y0142037D01*
X0242840Y0141615D01*
X0241321Y0140096D01*
X0240499Y0138111D01*
X0240499Y0135963D01*
X0241321Y0133978D01*
X0242840Y0132459D01*
X0243859Y0132037D01*
X0242840Y0131615D01*
X0241321Y0130096D01*
X0240499Y0128111D01*
X0240499Y0127918D01*
X0240468Y0128115D01*
X0240215Y0128894D01*
X0239843Y0129623D01*
X0239362Y0130285D01*
X0238784Y0130864D01*
X0238121Y0131345D01*
X0237392Y0131717D01*
X0236614Y0131970D01*
X0235805Y0132098D01*
X0235396Y0132098D01*
X0234987Y0132098D01*
X0234178Y0131970D01*
X0233400Y0131717D01*
X0232671Y0131345D01*
X0232008Y0130864D01*
X0231430Y0130285D01*
X0230949Y0129623D01*
X0230577Y0128894D01*
X0230324Y0128115D01*
X0230196Y0127307D01*
X0230196Y0124298D01*
X0235396Y0124298D01*
X0235396Y0132098D01*
X0235396Y0124298D01*
X0235396Y0124298D01*
X0235396Y0124298D01*
X0240596Y0124298D01*
X0240596Y0125729D01*
X0241321Y0123978D01*
X0242840Y0122459D01*
X0243859Y0122037D01*
X0242840Y0121615D01*
X0241321Y0120096D01*
X0240499Y0118111D01*
X0240499Y0115963D01*
X0241321Y0113978D01*
X0242840Y0112459D01*
X0243859Y0112037D01*
X0242840Y0111615D01*
X0241321Y0110096D01*
X0240499Y0107254D02*
X0200820Y0107254D01*
X0203891Y0104055D02*
X0241289Y0104055D01*
X0241649Y0113651D02*
X0181673Y0113651D01*
X0182865Y0114339D02*
X0180105Y0112746D01*
X0177028Y0111921D01*
X0173842Y0111921D01*
X0170765Y0112746D01*
X0168005Y0114339D01*
X0165753Y0116591D01*
X0164160Y0119351D01*
X0163335Y0122428D01*
X0163335Y0125614D01*
X0164160Y0128691D01*
X0165753Y0131451D01*
X0168005Y0133703D01*
X0170765Y0135296D01*
X0173842Y0136121D01*
X0177028Y0136121D01*
X0180105Y0135296D01*
X0182865Y0133703D01*
X0185117Y0131451D01*
X0186710Y0128691D01*
X0187535Y0125614D01*
X0187535Y0122428D01*
X0186710Y0119351D01*
X0185117Y0116591D01*
X0182865Y0114339D01*
X0185266Y0116849D02*
X0233491Y0116849D01*
X0233400Y0116879D02*
X0234178Y0116626D01*
X0234987Y0116498D01*
X0235396Y0116498D01*
X0235396Y0124298D01*
X0235396Y0124298D01*
X0230196Y0124298D01*
X0230196Y0121289D01*
X0230324Y0120480D01*
X0230577Y0119702D01*
X0230949Y0118972D01*
X0231430Y0118310D01*
X0232008Y0117731D01*
X0232671Y0117250D01*
X0233400Y0116879D01*
X0235396Y0116849D02*
X0235396Y0116849D01*
X0235396Y0116498D02*
X0235805Y0116498D01*
X0236614Y0116626D01*
X0237392Y0116879D01*
X0238121Y0117250D01*
X0238784Y0117731D01*
X0239362Y0118310D01*
X0239843Y0118972D01*
X0240215Y0119702D01*
X0240468Y0120480D01*
X0240596Y0121289D01*
X0240596Y0124298D01*
X0235396Y0124298D01*
X0235396Y0124298D01*
X0235396Y0116498D01*
X0237301Y0116849D02*
X0240499Y0116849D01*
X0240327Y0120048D02*
X0241301Y0120048D01*
X0240596Y0123246D02*
X0242053Y0123246D01*
X0235396Y0123246D02*
X0235396Y0123246D01*
X0235396Y0120048D02*
X0235396Y0120048D01*
X0230465Y0120048D02*
X0186897Y0120048D01*
X0187535Y0123246D02*
X0230196Y0123246D01*
X0230196Y0126445D02*
X0187312Y0126445D01*
X0186161Y0129643D02*
X0230963Y0129643D01*
X0235396Y0129643D02*
X0235396Y0129643D01*
X0239829Y0129643D02*
X0241134Y0129643D01*
X0242458Y0132842D02*
X0183726Y0132842D01*
X0177330Y0136040D02*
X0240499Y0136040D01*
X0240966Y0139239D02*
X0011507Y0139239D01*
X0011507Y0142437D02*
X0242893Y0142437D01*
X0240635Y0145636D02*
X0011507Y0145636D01*
X0011507Y0148834D02*
X0240799Y0148834D01*
X0243850Y0152033D02*
X0011507Y0152033D01*
X0011507Y0155231D02*
X0024087Y0155231D01*
X0024756Y0154562D02*
X0021331Y0157987D01*
X0021331Y0160410D01*
X0027178Y0160410D01*
X0027178Y0160410D01*
X0027179Y0160410D02*
X0027179Y0166258D01*
X0029601Y0166258D01*
X0033027Y0162832D01*
X0033027Y0160410D01*
X0027179Y0160410D01*
X0027179Y0160410D01*
X0027179Y0160410D01*
X0027179Y0166258D01*
X0024756Y0166258D01*
X0021331Y0162832D01*
X0021331Y0160410D01*
X0027178Y0160410D01*
X0027179Y0160410D02*
X0027179Y0160410D01*
X0033027Y0160410D01*
X0033027Y0157987D01*
X0029601Y0154562D01*
X0027179Y0154562D01*
X0027179Y0160410D01*
X0027179Y0154562D01*
X0024756Y0154562D01*
X0027179Y0155231D02*
X0027179Y0155231D01*
X0030271Y0155231D02*
X0144370Y0155231D01*
X0144839Y0154762D02*
X0149518Y0154762D01*
X0152827Y0158070D01*
X0152827Y0162749D01*
X0149518Y0166058D01*
X0144839Y0166058D01*
X0141531Y0162749D01*
X0141531Y0158070D01*
X0144839Y0154762D01*
X0141531Y0158430D02*
X0033027Y0158430D01*
X0033027Y0161628D02*
X0141531Y0161628D01*
X0143608Y0164827D02*
X0031032Y0164827D01*
X0027179Y0164827D02*
X0027179Y0164827D01*
X0027179Y0161628D02*
X0027179Y0161628D01*
X0027179Y0158430D02*
X0027179Y0158430D01*
X0021331Y0158430D02*
X0011507Y0158430D01*
X0011507Y0161628D02*
X0021331Y0161628D01*
X0023325Y0164827D02*
X0011507Y0164827D01*
X0011507Y0168025D02*
X0226577Y0168025D01*
X0223379Y0171224D02*
X0011507Y0171224D01*
X0025399Y0174422D02*
X0220180Y0174422D01*
X0217801Y0176802D02*
X0230396Y0164207D01*
X0230396Y0160703D01*
X0231157Y0158866D01*
X0232564Y0157459D01*
X0234401Y0156698D01*
X0236391Y0156698D01*
X0238228Y0157459D01*
X0239635Y0158866D01*
X0240394Y0160698D01*
X0257962Y0160698D01*
X0259285Y0161246D01*
X0260031Y0161992D01*
X0264707Y0161992D01*
X0265589Y0162357D01*
X0266264Y0163032D01*
X0266559Y0163744D01*
X0267542Y0163744D01*
X0268831Y0162455D01*
X0270669Y0161694D01*
X0277858Y0161694D01*
X0279696Y0162455D01*
X0281102Y0163862D01*
X0281864Y0165699D01*
X0281864Y0167688D01*
X0281102Y0169526D01*
X0279696Y0170933D01*
X0278045Y0171616D01*
X0278081Y0171622D01*
X0278860Y0171875D01*
X0279589Y0172246D01*
X0280251Y0172728D01*
X0280830Y0173306D01*
X0281311Y0173969D01*
X0281683Y0174698D01*
X0281935Y0175476D01*
X0282064Y0176285D01*
X0282064Y0176694D01*
X0282064Y0177103D01*
X0281935Y0177912D01*
X0281683Y0178690D01*
X0281311Y0179419D01*
X0280830Y0180081D01*
X0280251Y0180660D01*
X0279589Y0181141D01*
X0278860Y0181513D01*
X0278081Y0181766D01*
X0278045Y0181772D01*
X0279696Y0182455D01*
X0281102Y0183862D01*
X0281864Y0185699D01*
X0281864Y0187688D01*
X0281102Y0189526D01*
X0279696Y0190933D01*
X0277858Y0191694D01*
X0279696Y0192455D01*
X0280756Y0193515D01*
X0283237Y0193515D01*
X0284560Y0194064D01*
X0285573Y0195076D01*
X0290809Y0200312D01*
X0291357Y0201636D01*
X0291357Y0246924D01*
X0292922Y0248488D01*
X0296995Y0248488D01*
X0296664Y0247688D01*
X0296664Y0245699D01*
X0297425Y0243862D01*
X0298831Y0242455D01*
X0300669Y0241694D01*
X0307858Y0241694D01*
X0309696Y0242455D01*
X0311102Y0243862D01*
X0311864Y0245699D01*
X0311864Y0247688D01*
X0311532Y0248488D01*
X0312888Y0248488D01*
X0313866Y0247510D01*
X0315851Y0246688D01*
X0323999Y0246688D01*
X0325984Y0247510D01*
X0327503Y0249029D01*
X0328325Y0251014D01*
X0328325Y0253162D01*
X0327503Y0255147D01*
X0325984Y0256666D01*
X0323999Y0257488D01*
X0315851Y0257488D01*
X0313866Y0256666D01*
X0312888Y0255688D01*
X0290715Y0255688D01*
X0289392Y0255140D01*
X0285718Y0251467D01*
X0284706Y0250454D01*
X0284157Y0249131D01*
X0284157Y0203843D01*
X0281030Y0200715D01*
X0279913Y0200715D01*
X0279696Y0200933D01*
X0277858Y0201694D01*
X0279696Y0202455D01*
X0281102Y0203862D01*
X0281864Y0205699D01*
X0281864Y0207688D01*
X0281102Y0209526D01*
X0279696Y0210933D01*
X0277858Y0211694D01*
X0279696Y0212455D01*
X0281102Y0213862D01*
X0281864Y0215699D01*
X0281864Y0217688D01*
X0281102Y0219526D01*
X0279696Y0220933D01*
X0277858Y0221694D01*
X0279696Y0222455D01*
X0281102Y0223862D01*
X0281864Y0225699D01*
X0281864Y0227688D01*
X0281102Y0229526D01*
X0279696Y0230933D01*
X0277858Y0231694D01*
X0279696Y0232455D01*
X0281102Y0233862D01*
X0281864Y0235699D01*
X0281864Y0237688D01*
X0281102Y0239526D01*
X0279696Y0240933D01*
X0277858Y0241694D01*
X0279696Y0242455D01*
X0281102Y0243862D01*
X0281864Y0245699D01*
X0281864Y0247688D01*
X0281102Y0249526D01*
X0279696Y0250933D01*
X0277858Y0251694D01*
X0270669Y0251694D01*
X0268831Y0250933D01*
X0267425Y0249526D01*
X0266664Y0247688D01*
X0266664Y0245699D01*
X0267425Y0243862D01*
X0268831Y0242455D01*
X0270669Y0241694D01*
X0277858Y0241694D01*
X0270669Y0241694D01*
X0268831Y0240933D01*
X0267425Y0239526D01*
X0266664Y0237688D01*
X0266664Y0235699D01*
X0267425Y0233862D01*
X0268831Y0232455D01*
X0270669Y0231694D01*
X0277858Y0231694D01*
X0270669Y0231694D01*
X0268831Y0230933D01*
X0267425Y0229526D01*
X0266664Y0227688D01*
X0266664Y0225699D01*
X0267425Y0223862D01*
X0268831Y0222455D01*
X0270669Y0221694D01*
X0277858Y0221694D01*
X0270669Y0221694D01*
X0268831Y0220933D01*
X0267425Y0219526D01*
X0266664Y0217688D01*
X0266664Y0215699D01*
X0267425Y0213862D01*
X0268831Y0212455D01*
X0270669Y0211694D01*
X0277858Y0211694D01*
X0270669Y0211694D01*
X0268831Y0210933D01*
X0267425Y0209526D01*
X0266664Y0207688D01*
X0266664Y0205699D01*
X0267425Y0203862D01*
X0268831Y0202455D01*
X0270669Y0201694D01*
X0277858Y0201694D01*
X0270669Y0201694D01*
X0268831Y0200933D01*
X0267425Y0199526D01*
X0266664Y0197688D01*
X0266664Y0195699D01*
X0267425Y0193862D01*
X0268831Y0192455D01*
X0270669Y0191694D01*
X0277858Y0191694D01*
X0270669Y0191694D01*
X0268831Y0190933D01*
X0267425Y0189526D01*
X0266664Y0187688D01*
X0266664Y0185699D01*
X0267425Y0183862D01*
X0268831Y0182455D01*
X0270482Y0181772D01*
X0270446Y0181766D01*
X0269667Y0181513D01*
X0268938Y0181141D01*
X0268276Y0180660D01*
X0267697Y0180081D01*
X0267216Y0179419D01*
X0266845Y0178690D01*
X0266829Y0178643D01*
X0266829Y0179155D01*
X0260292Y0179155D01*
X0260292Y0179155D01*
X0260292Y0173603D01*
X0256099Y0173603D01*
X0255597Y0173703D01*
X0255124Y0173899D01*
X0254698Y0174183D01*
X0254336Y0174545D01*
X0254051Y0174971D01*
X0253855Y0175444D01*
X0253755Y0175947D01*
X0253755Y0179155D01*
X0260292Y0179155D01*
X0260292Y0179155D01*
X0260292Y0173603D01*
X0264485Y0173603D01*
X0264988Y0173703D01*
X0265461Y0173899D01*
X0265887Y0174183D01*
X0266249Y0174545D01*
X0266533Y0174971D01*
X0266658Y0175272D01*
X0266845Y0174698D01*
X0267216Y0173969D01*
X0267697Y0173306D01*
X0268276Y0172728D01*
X0268938Y0172246D01*
X0269667Y0171875D01*
X0270446Y0171622D01*
X0270482Y0171616D01*
X0268859Y0170944D01*
X0266559Y0170944D01*
X0266264Y0171657D01*
X0265589Y0172332D01*
X0264707Y0172697D01*
X0255878Y0172697D01*
X0254996Y0172332D01*
X0254321Y0171657D01*
X0253955Y0170775D01*
X0253955Y0167898D01*
X0240394Y0167898D01*
X0239635Y0169730D01*
X0238228Y0171137D01*
X0236391Y0171898D01*
X0234401Y0171898D01*
X0233331Y0171454D01*
X0227983Y0176802D01*
X0228679Y0176802D01*
X0230370Y0177502D01*
X0231664Y0178796D01*
X0232364Y0180487D01*
X0232364Y0182317D01*
X0231664Y0184007D01*
X0230370Y0185301D01*
X0228679Y0186002D01*
X0226849Y0186002D01*
X0225158Y0185301D01*
X0223864Y0184007D01*
X0223164Y0182317D01*
X0223164Y0181621D01*
X0222290Y0182495D01*
X0221664Y0184007D01*
X0220370Y0185301D01*
X0218679Y0186002D01*
X0216849Y0186002D01*
X0215158Y0185301D01*
X0213864Y0184007D01*
X0213164Y0182317D01*
X0213164Y0180487D01*
X0213864Y0178796D01*
X0215158Y0177502D01*
X0216849Y0176802D01*
X0217801Y0176802D01*
X0215039Y0177621D02*
X0210726Y0177621D01*
X0210891Y0177740D02*
X0211425Y0178275D01*
X0211869Y0178886D01*
X0212212Y0179559D01*
X0212446Y0180278D01*
X0212564Y0181024D01*
X0212564Y0181401D01*
X0207764Y0181401D01*
X0207764Y0176602D01*
X0208142Y0176602D01*
X0208888Y0176720D01*
X0209606Y0176953D01*
X0210280Y0177296D01*
X0210891Y0177740D01*
X0207764Y0177621D02*
X0207764Y0177621D01*
X0207764Y0176602D02*
X0207764Y0181401D01*
X0207764Y0181401D01*
X0207764Y0181402D01*
X0207764Y0181402D01*
X0207764Y0186202D01*
X0208142Y0186202D01*
X0208888Y0186083D01*
X0209606Y0185850D01*
X0210280Y0185507D01*
X0210891Y0185063D01*
X0211425Y0184529D01*
X0211869Y0183917D01*
X0212212Y0183244D01*
X0212446Y0182526D01*
X0212564Y0181779D01*
X0212564Y0181402D01*
X0207764Y0181402D01*
X0207764Y0186202D01*
X0207386Y0186202D01*
X0206640Y0186083D01*
X0205921Y0185850D01*
X0205248Y0185507D01*
X0204637Y0185063D01*
X0204103Y0184529D01*
X0203659Y0183917D01*
X0203315Y0183244D01*
X0203082Y0182526D01*
X0202964Y0181779D01*
X0202964Y0181402D01*
X0207764Y0181402D01*
X0207764Y0181401D01*
X0202964Y0181401D01*
X0202964Y0181024D01*
X0203082Y0180278D01*
X0203315Y0179559D01*
X0203659Y0178886D01*
X0204103Y0178275D01*
X0204637Y0177740D01*
X0205248Y0177296D01*
X0205921Y0176953D01*
X0206640Y0176720D01*
X0207386Y0176602D01*
X0207764Y0176602D01*
X0204801Y0177621D02*
X0026118Y0177621D01*
X0024769Y0180819D02*
X0202996Y0180819D01*
X0207764Y0180819D02*
X0207764Y0180819D01*
X0212531Y0180819D02*
X0213164Y0180819D01*
X0213875Y0184018D02*
X0211796Y0184018D01*
X0207764Y0184018D02*
X0207764Y0184018D01*
X0203732Y0184018D02*
X0131937Y0184018D01*
X0130899Y0183588D02*
X0132994Y0184456D01*
X0134598Y0186059D01*
X0135466Y0188154D01*
X0135466Y0197022D01*
X0134598Y0199117D01*
X0132994Y0200720D01*
X0130899Y0201588D01*
X0128632Y0201588D01*
X0126537Y0200720D01*
X0124933Y0199117D01*
X0124766Y0198712D01*
X0124598Y0199117D01*
X0122994Y0200720D01*
X0120899Y0201588D01*
X0118632Y0201588D01*
X0116537Y0200720D01*
X0114933Y0199117D01*
X0114766Y0198712D01*
X0114598Y0199117D01*
X0112994Y0200720D01*
X0110899Y0201588D01*
X0108632Y0201588D01*
X0106537Y0200720D01*
X0104933Y0199117D01*
X0104066Y0197022D01*
X0104066Y0188154D01*
X0104933Y0186059D01*
X0106537Y0184456D01*
X0108632Y0183588D01*
X0110899Y0183588D01*
X0112994Y0184456D01*
X0114598Y0186059D01*
X0114766Y0186464D01*
X0114933Y0186059D01*
X0116537Y0184456D01*
X0118632Y0183588D01*
X0120899Y0183588D01*
X0122994Y0184456D01*
X0124598Y0186059D01*
X0124766Y0186464D01*
X0124933Y0186059D01*
X0126537Y0184456D01*
X0128632Y0183588D01*
X0130899Y0183588D01*
X0127594Y0184018D02*
X0121937Y0184018D01*
X0117594Y0184018D02*
X0111937Y0184018D01*
X0107594Y0184018D02*
X0025139Y0184018D01*
X0026118Y0187216D02*
X0061776Y0187216D01*
X0061716Y0187276D02*
X0062250Y0186742D01*
X0062861Y0186298D01*
X0063535Y0185955D01*
X0064253Y0185721D01*
X0064999Y0185603D01*
X0065377Y0185603D01*
X0065377Y0190403D01*
X0060577Y0190403D01*
X0060577Y0190025D01*
X0060695Y0189279D01*
X0060929Y0188561D01*
X0061272Y0187887D01*
X0061716Y0187276D01*
X0060577Y0190403D02*
X0065377Y0190403D01*
X0065377Y0190403D01*
X0065377Y0190403D01*
X0065377Y0185603D01*
X0065755Y0185603D01*
X0066501Y0185721D01*
X0067220Y0185955D01*
X0067893Y0186298D01*
X0068504Y0186742D01*
X0069038Y0187276D01*
X0069482Y0187887D01*
X0069825Y0188561D01*
X0070059Y0189279D01*
X0070177Y0190025D01*
X0070177Y0190403D01*
X0065377Y0190403D01*
X0065377Y0195203D01*
X0064999Y0195203D01*
X0064253Y0195085D01*
X0063535Y0194851D01*
X0062861Y0194508D01*
X0062250Y0194064D01*
X0061716Y0193530D01*
X0061272Y0192919D01*
X0060929Y0192246D01*
X0060695Y0191527D01*
X0060577Y0190781D01*
X0060577Y0190403D01*
X0060577Y0190415D02*
X0025174Y0190415D01*
X0024735Y0193613D02*
X0061799Y0193613D01*
X0065377Y0193613D02*
X0065377Y0193613D01*
X0065377Y0195203D02*
X0065377Y0190403D01*
X0065377Y0190403D01*
X0065377Y0190403D01*
X0070177Y0190403D01*
X0070177Y0190781D01*
X0070059Y0191527D01*
X0069825Y0192246D01*
X0069482Y0192919D01*
X0069038Y0193530D01*
X0068504Y0194064D01*
X0067893Y0194508D01*
X0067220Y0194851D01*
X0066501Y0195085D01*
X0065755Y0195203D01*
X0065377Y0195203D01*
X0068955Y0193613D02*
X0072082Y0193613D01*
X0071477Y0193009D02*
X0070777Y0191318D01*
X0070777Y0189488D01*
X0071477Y0187797D01*
X0072771Y0186503D01*
X0074462Y0185803D01*
X0076292Y0185803D01*
X0077983Y0186503D01*
X0079277Y0187797D01*
X0079977Y0189488D01*
X0079977Y0191318D01*
X0079277Y0193009D01*
X0077983Y0194303D01*
X0076292Y0195003D01*
X0074462Y0195003D01*
X0072771Y0194303D01*
X0071477Y0193009D01*
X0070777Y0190415D02*
X0070177Y0190415D01*
X0068979Y0187216D02*
X0072058Y0187216D01*
X0065377Y0187216D02*
X0065377Y0187216D01*
X0065377Y0190415D02*
X0065377Y0190415D01*
X0078672Y0193613D02*
X0082082Y0193613D01*
X0081477Y0193009D02*
X0080777Y0191318D01*
X0080777Y0189488D01*
X0081477Y0187797D01*
X0082771Y0186503D01*
X0084462Y0185803D01*
X0086292Y0185803D01*
X0087983Y0186503D01*
X0089277Y0187797D01*
X0089977Y0189488D01*
X0089977Y0191318D01*
X0089277Y0193009D01*
X0087983Y0194303D01*
X0086292Y0195003D01*
X0084462Y0195003D01*
X0082771Y0194303D01*
X0081477Y0193009D01*
X0080777Y0190415D02*
X0079977Y0190415D01*
X0078696Y0187216D02*
X0082058Y0187216D01*
X0088696Y0187216D02*
X0104454Y0187216D01*
X0104066Y0190415D02*
X0089977Y0190415D01*
X0088672Y0193613D02*
X0104066Y0193613D01*
X0104066Y0196812D02*
X0026118Y0196812D01*
X0025413Y0200010D02*
X0081166Y0200010D01*
X0081526Y0199861D02*
X0083674Y0199861D01*
X0085659Y0200683D01*
X0087178Y0202202D01*
X0088000Y0204187D01*
X0088000Y0212335D01*
X0087178Y0214320D01*
X0085659Y0215839D01*
X0083674Y0216661D01*
X0081526Y0216661D01*
X0079541Y0215839D01*
X0078022Y0214320D01*
X0077200Y0212335D01*
X0077200Y0204187D01*
X0078022Y0202202D01*
X0079541Y0200683D01*
X0081526Y0199861D01*
X0084034Y0200010D02*
X0105827Y0200010D01*
X0113704Y0200010D02*
X0115827Y0200010D01*
X0123704Y0200010D02*
X0125827Y0200010D01*
X0133704Y0200010D02*
X0161063Y0200010D01*
X0160603Y0199550D02*
X0159735Y0197455D01*
X0159735Y0188587D01*
X0160603Y0186492D01*
X0162206Y0184889D01*
X0164301Y0184021D01*
X0166569Y0184021D01*
X0168664Y0184889D01*
X0170267Y0186492D01*
X0170435Y0186897D01*
X0170603Y0186492D01*
X0172206Y0184889D01*
X0174301Y0184021D01*
X0176569Y0184021D01*
X0178664Y0184889D01*
X0180267Y0186492D01*
X0180435Y0186897D01*
X0180603Y0186492D01*
X0182206Y0184889D01*
X0184301Y0184021D01*
X0186569Y0184021D01*
X0188664Y0184889D01*
X0190267Y0186492D01*
X0191135Y0188587D01*
X0191135Y0197455D01*
X0190267Y0199550D01*
X0188664Y0201153D01*
X0186569Y0202021D01*
X0184301Y0202021D01*
X0182206Y0201153D01*
X0180603Y0199550D01*
X0180435Y0199145D01*
X0180267Y0199550D01*
X0178664Y0201153D01*
X0176569Y0202021D01*
X0174301Y0202021D01*
X0172206Y0201153D01*
X0170603Y0199550D01*
X0170435Y0199145D01*
X0170267Y0199550D01*
X0168664Y0201153D01*
X0166569Y0202021D01*
X0164301Y0202021D01*
X0162206Y0201153D01*
X0160603Y0199550D01*
X0159735Y0196812D02*
X0135466Y0196812D01*
X0135466Y0193613D02*
X0159735Y0193613D01*
X0159735Y0190415D02*
X0135466Y0190415D01*
X0135077Y0187216D02*
X0160303Y0187216D01*
X0169807Y0200010D02*
X0171063Y0200010D01*
X0179807Y0200010D02*
X0181063Y0200010D01*
X0189807Y0200010D02*
X0240339Y0200010D01*
X0240121Y0199792D02*
X0239299Y0197808D01*
X0239299Y0195659D01*
X0240121Y0193675D01*
X0241640Y0192156D01*
X0242393Y0191844D01*
X0241764Y0191523D01*
X0241050Y0191005D01*
X0240427Y0190382D01*
X0239909Y0189669D01*
X0239509Y0188883D01*
X0239236Y0188045D01*
X0239099Y0187174D01*
X0239099Y0186734D01*
X0247698Y0186734D01*
X0247698Y0186733D01*
X0239099Y0186733D01*
X0239099Y0186293D01*
X0239236Y0185422D01*
X0239509Y0184584D01*
X0239909Y0183798D01*
X0240427Y0183085D01*
X0241050Y0182462D01*
X0241764Y0181944D01*
X0242549Y0181544D01*
X0243387Y0181271D01*
X0244258Y0181134D01*
X0247698Y0181134D01*
X0247698Y0186733D01*
X0247699Y0186733D01*
X0247699Y0181134D01*
X0251139Y0181134D01*
X0252010Y0181271D01*
X0252848Y0181544D01*
X0253634Y0181944D01*
X0253755Y0182032D01*
X0253755Y0179155D01*
X0260292Y0179155D01*
X0260292Y0179155D01*
X0260292Y0179156D02*
X0260292Y0184708D01*
X0256099Y0184708D01*
X0255917Y0184672D01*
X0256161Y0185422D01*
X0256299Y0186293D01*
X0256299Y0186733D01*
X0247699Y0186733D01*
X0247699Y0186734D01*
X0256299Y0186734D01*
X0256299Y0187174D01*
X0256161Y0188045D01*
X0255888Y0188883D01*
X0255488Y0189669D01*
X0254970Y0190382D01*
X0254347Y0191005D01*
X0253634Y0191523D01*
X0253004Y0191844D01*
X0253757Y0192156D01*
X0255276Y0193675D01*
X0256099Y0195659D01*
X0256099Y0197808D01*
X0255276Y0199792D01*
X0253757Y0201311D01*
X0252738Y0201734D01*
X0253757Y0202156D01*
X0255276Y0203675D01*
X0256099Y0205659D01*
X0256099Y0207808D01*
X0255276Y0209792D01*
X0253757Y0211311D01*
X0252738Y0211734D01*
X0253757Y0212156D01*
X0255276Y0213675D01*
X0256099Y0215659D01*
X0256099Y0217808D01*
X0255276Y0219792D01*
X0253757Y0221311D01*
X0252738Y0221734D01*
X0253757Y0222156D01*
X0255276Y0223675D01*
X0256099Y0225659D01*
X0256099Y0227808D01*
X0255276Y0229792D01*
X0253757Y0231311D01*
X0252738Y0231734D01*
X0253757Y0232156D01*
X0255276Y0233675D01*
X0256099Y0235659D01*
X0256099Y0237808D01*
X0255276Y0239792D01*
X0253757Y0241311D01*
X0252738Y0241734D01*
X0253757Y0242156D01*
X0255276Y0243675D01*
X0256099Y0245659D01*
X0256099Y0247808D01*
X0255276Y0249792D01*
X0253757Y0251311D01*
X0251773Y0252134D01*
X0243624Y0252134D01*
X0241640Y0251311D01*
X0240121Y0249792D01*
X0239299Y0247808D01*
X0239299Y0245659D01*
X0240121Y0243675D01*
X0241640Y0242156D01*
X0242659Y0241734D01*
X0241640Y0241311D01*
X0240121Y0239792D01*
X0239299Y0237808D01*
X0239299Y0235659D01*
X0240121Y0233675D01*
X0241640Y0232156D01*
X0242659Y0231734D01*
X0241640Y0231311D01*
X0240121Y0229792D01*
X0239299Y0227808D01*
X0239299Y0225659D01*
X0240121Y0223675D01*
X0241640Y0222156D01*
X0242659Y0221734D01*
X0241640Y0221311D01*
X0240121Y0219792D01*
X0239299Y0217808D01*
X0239299Y0215659D01*
X0240121Y0213675D01*
X0241640Y0212156D01*
X0242659Y0211734D01*
X0241640Y0211311D01*
X0240121Y0209792D01*
X0239299Y0207808D01*
X0239299Y0205659D01*
X0240121Y0203675D01*
X0241640Y0202156D01*
X0242659Y0201734D01*
X0241640Y0201311D01*
X0240121Y0199792D01*
X0239299Y0196812D02*
X0191135Y0196812D01*
X0191135Y0193613D02*
X0240182Y0193613D01*
X0240460Y0190415D02*
X0191135Y0190415D01*
X0190567Y0187216D02*
X0239105Y0187216D01*
X0239797Y0184018D02*
X0231653Y0184018D01*
X0232364Y0180819D02*
X0253755Y0180819D01*
X0253755Y0177621D02*
X0230489Y0177621D01*
X0230363Y0174422D02*
X0254459Y0174422D01*
X0254141Y0171224D02*
X0238018Y0171224D01*
X0240341Y0168025D02*
X0253955Y0168025D01*
X0259667Y0161628D02*
X0270510Y0161628D01*
X0270669Y0161694D02*
X0268831Y0160933D01*
X0267425Y0159526D01*
X0266664Y0157688D01*
X0266664Y0155699D01*
X0267425Y0153862D01*
X0268831Y0152455D01*
X0270669Y0151694D01*
X0277858Y0151694D01*
X0279696Y0152455D01*
X0281102Y0153862D01*
X0281864Y0155699D01*
X0281864Y0157688D01*
X0281102Y0159526D01*
X0279696Y0160933D01*
X0277858Y0161694D01*
X0270669Y0161694D01*
X0266971Y0158430D02*
X0239199Y0158430D01*
X0231593Y0158430D02*
X0152827Y0158430D01*
X0152827Y0161628D02*
X0230396Y0161628D01*
X0229776Y0164827D02*
X0150749Y0164827D01*
X0149988Y0155231D02*
X0266857Y0155231D01*
X0269851Y0152033D02*
X0253949Y0152033D01*
X0257000Y0148834D02*
X0267138Y0148834D01*
X0267425Y0149526D02*
X0266664Y0147688D01*
X0266664Y0145699D01*
X0267425Y0143862D01*
X0268831Y0142455D01*
X0270669Y0141694D01*
X0277858Y0141694D01*
X0279696Y0142455D01*
X0281102Y0143862D01*
X0281864Y0145699D01*
X0281864Y0147688D01*
X0281102Y0149526D01*
X0279696Y0150933D01*
X0277858Y0151694D01*
X0270669Y0151694D01*
X0268831Y0150933D01*
X0267425Y0149526D01*
X0266690Y0145636D02*
X0257164Y0145636D01*
X0254906Y0142437D02*
X0268875Y0142437D01*
X0268831Y0140933D02*
X0267425Y0139526D01*
X0266664Y0137688D01*
X0266664Y0135699D01*
X0267425Y0133862D01*
X0268831Y0132455D01*
X0270669Y0131694D01*
X0277858Y0131694D01*
X0279696Y0132455D01*
X0281102Y0133862D01*
X0281864Y0135699D01*
X0281864Y0137688D01*
X0281102Y0139526D01*
X0279696Y0140933D01*
X0277858Y0141694D01*
X0270669Y0141694D01*
X0268831Y0140933D01*
X0267306Y0139239D02*
X0256832Y0139239D01*
X0257299Y0136040D02*
X0266664Y0136040D01*
X0268445Y0132842D02*
X0255341Y0132842D01*
X0256665Y0129643D02*
X0267542Y0129643D01*
X0267425Y0129526D02*
X0266664Y0127688D01*
X0266664Y0125699D01*
X0267425Y0123862D01*
X0268831Y0122455D01*
X0270669Y0121694D01*
X0277858Y0121694D01*
X0279696Y0122455D01*
X0281102Y0123862D01*
X0281864Y0125699D01*
X0281864Y0127688D01*
X0281102Y0129526D01*
X0279696Y0130933D01*
X0277858Y0131694D01*
X0270669Y0131694D01*
X0268831Y0130933D01*
X0267425Y0129526D01*
X0266664Y0126445D02*
X0257299Y0126445D01*
X0255745Y0123246D02*
X0268040Y0123246D01*
X0268831Y0120933D02*
X0267425Y0119526D01*
X0266664Y0117688D01*
X0266664Y0115699D01*
X0267425Y0113862D01*
X0268831Y0112455D01*
X0270669Y0111694D01*
X0277858Y0111694D01*
X0279696Y0112455D01*
X0281102Y0113862D01*
X0281864Y0115699D01*
X0281864Y0117688D01*
X0281102Y0119526D01*
X0279696Y0120933D01*
X0277858Y0121694D01*
X0270669Y0121694D01*
X0268831Y0120933D01*
X0267946Y0120048D02*
X0256497Y0120048D01*
X0257299Y0116849D02*
X0266664Y0116849D01*
X0267636Y0113651D02*
X0256150Y0113651D01*
X0256121Y0110452D02*
X0332972Y0110452D01*
X0333047Y0110428D02*
X0333917Y0110290D01*
X0337358Y0110290D01*
X0337358Y0115890D01*
X0337358Y0115890D01*
X0328758Y0115890D01*
X0328758Y0116331D01*
X0328896Y0117201D01*
X0329169Y0118040D01*
X0329569Y0118825D01*
X0330087Y0119538D01*
X0330710Y0120161D01*
X0331423Y0120680D01*
X0332052Y0121000D01*
X0331299Y0121312D01*
X0329780Y0122831D01*
X0328958Y0124816D01*
X0328958Y0126964D01*
X0329780Y0128949D01*
X0331299Y0130468D01*
X0332318Y0130890D01*
X0331299Y0131312D01*
X0329780Y0132831D01*
X0328958Y0134816D01*
X0328958Y0136964D01*
X0329780Y0138949D01*
X0331299Y0140468D01*
X0332318Y0140890D01*
X0331299Y0141312D01*
X0331298Y0141313D01*
X0313627Y0123642D01*
X0312304Y0123094D01*
X0310335Y0123094D01*
X0309696Y0122455D01*
X0307858Y0121694D01*
X0300669Y0121694D01*
X0298831Y0122455D01*
X0297425Y0123862D01*
X0296664Y0125699D01*
X0296664Y0127688D01*
X0297425Y0129526D01*
X0298831Y0130933D01*
X0300669Y0131694D01*
X0307858Y0131694D01*
X0309696Y0132455D01*
X0310992Y0133752D01*
X0313555Y0133752D01*
X0310216Y0130413D01*
X0309696Y0130933D01*
X0307858Y0131694D01*
X0300669Y0131694D01*
X0298831Y0132455D01*
X0297425Y0133862D01*
X0296664Y0135699D01*
X0296664Y0137688D01*
X0297425Y0139526D01*
X0298831Y0140933D01*
X0300669Y0141694D01*
X0298831Y0142455D01*
X0297425Y0143862D01*
X0296664Y0145699D01*
X0296664Y0147688D01*
X0297425Y0149526D01*
X0298831Y0150933D01*
X0300669Y0151694D01*
X0298831Y0152455D01*
X0297425Y0153862D01*
X0296664Y0155699D01*
X0296664Y0157688D01*
X0297425Y0159526D01*
X0298831Y0160933D01*
X0300669Y0161694D01*
X0298831Y0162455D01*
X0297425Y0163862D01*
X0296664Y0165699D01*
X0296664Y0167688D01*
X0297425Y0169526D01*
X0298831Y0170933D01*
X0300669Y0171694D01*
X0307858Y0171694D01*
X0309696Y0172455D01*
X0311102Y0173862D01*
X0311864Y0175699D01*
X0311864Y0177688D01*
X0311102Y0179526D01*
X0309696Y0180933D01*
X0308045Y0181616D01*
X0308081Y0181622D01*
X0308860Y0181875D01*
X0309589Y0182246D01*
X0310251Y0182728D01*
X0310830Y0183306D01*
X0311311Y0183969D01*
X0311683Y0184698D01*
X0311935Y0185476D01*
X0312064Y0186285D01*
X0312064Y0186694D01*
X0312064Y0187103D01*
X0311935Y0187912D01*
X0311683Y0188690D01*
X0311311Y0189419D01*
X0310830Y0190081D01*
X0310251Y0190660D01*
X0309589Y0191141D01*
X0308860Y0191513D01*
X0308081Y0191766D01*
X0308045Y0191772D01*
X0309696Y0192455D01*
X0311102Y0193862D01*
X0311864Y0195699D01*
X0311864Y0197688D01*
X0311102Y0199526D01*
X0309696Y0200933D01*
X0307858Y0201694D01*
X0309696Y0202455D01*
X0311102Y0203862D01*
X0311864Y0205699D01*
X0311864Y0207688D01*
X0311102Y0209526D01*
X0309696Y0210933D01*
X0307858Y0211694D01*
X0309696Y0212455D01*
X0310335Y0213094D01*
X0331073Y0213094D01*
X0330388Y0211439D01*
X0330388Y0209450D01*
X0331149Y0207612D01*
X0332555Y0206206D01*
X0334393Y0205445D01*
X0336382Y0205445D01*
X0338220Y0206206D01*
X0339627Y0207612D01*
X0340388Y0209450D01*
X0340388Y0211439D01*
X0339702Y0213094D01*
X0345192Y0213094D01*
X0350167Y0208119D01*
X0351490Y0207571D01*
X0353437Y0207571D01*
X0354297Y0206711D01*
X0355050Y0206399D01*
X0354421Y0206078D01*
X0353708Y0205560D01*
X0353084Y0204937D01*
X0352566Y0204224D01*
X0352166Y0203438D01*
X0351894Y0202600D01*
X0351756Y0201729D01*
X0351756Y0201289D01*
X0360356Y0201289D01*
X0368956Y0201289D01*
X0368956Y0201729D01*
X0368818Y0202600D01*
X0368546Y0203438D01*
X0368145Y0204224D01*
X0367627Y0204937D01*
X0367004Y0205560D01*
X0366291Y0206078D01*
X0365662Y0206399D01*
X0366415Y0206711D01*
X0367934Y0208230D01*
X0368756Y0210215D01*
X0368756Y0212363D01*
X0367934Y0214348D01*
X0366415Y0215867D01*
X0365396Y0216289D01*
X0366415Y0216711D01*
X0367934Y0218230D01*
X0368756Y0220215D01*
X0368756Y0222363D01*
X0367934Y0224348D01*
X0366415Y0225867D01*
X0365396Y0226289D01*
X0366415Y0226711D01*
X0367934Y0228230D01*
X0368756Y0230215D01*
X0368756Y0232363D01*
X0367934Y0234348D01*
X0366415Y0235867D01*
X0365396Y0236289D01*
X0366415Y0236711D01*
X0367934Y0238230D01*
X0368756Y0240215D01*
X0368756Y0242363D01*
X0367934Y0244348D01*
X0366415Y0245867D01*
X0364430Y0246689D01*
X0356282Y0246689D01*
X0354297Y0245867D01*
X0352778Y0244348D01*
X0351956Y0242363D01*
X0351956Y0240215D01*
X0352778Y0238230D01*
X0354297Y0236711D01*
X0355316Y0236289D01*
X0354297Y0235867D01*
X0352778Y0234348D01*
X0351956Y0232363D01*
X0351956Y0230215D01*
X0352778Y0228230D01*
X0354297Y0226711D01*
X0355316Y0226289D01*
X0354297Y0225867D01*
X0352778Y0224348D01*
X0351956Y0222363D01*
X0351956Y0220215D01*
X0352778Y0218230D01*
X0354297Y0216711D01*
X0355316Y0216289D01*
X0354297Y0215867D01*
X0353449Y0215019D01*
X0348722Y0219746D01*
X0347399Y0220294D01*
X0310335Y0220294D01*
X0309696Y0220933D01*
X0307858Y0221694D01*
X0309696Y0222455D01*
X0311102Y0223862D01*
X0311864Y0225699D01*
X0311864Y0227688D01*
X0311102Y0229526D01*
X0309696Y0230933D01*
X0307858Y0231694D01*
X0309696Y0232455D01*
X0311102Y0233862D01*
X0311864Y0235699D01*
X0311864Y0237688D01*
X0311102Y0239526D01*
X0309696Y0240933D01*
X0307858Y0241694D01*
X0300669Y0241694D01*
X0298831Y0240933D01*
X0297425Y0239526D01*
X0296664Y0237688D01*
X0296664Y0235699D01*
X0297425Y0233862D01*
X0298831Y0232455D01*
X0300669Y0231694D01*
X0307858Y0231694D01*
X0300669Y0231694D01*
X0298831Y0230933D01*
X0297425Y0229526D01*
X0296664Y0227688D01*
X0296664Y0225699D01*
X0297425Y0223862D01*
X0298831Y0222455D01*
X0300669Y0221694D01*
X0307858Y0221694D01*
X0300669Y0221694D01*
X0298831Y0220933D01*
X0297425Y0219526D01*
X0296664Y0217688D01*
X0296664Y0215699D01*
X0297425Y0213862D01*
X0298831Y0212455D01*
X0300669Y0211694D01*
X0307858Y0211694D01*
X0300669Y0211694D01*
X0298831Y0210933D01*
X0297425Y0209526D01*
X0296664Y0207688D01*
X0296664Y0205699D01*
X0297425Y0203862D01*
X0298831Y0202455D01*
X0300669Y0201694D01*
X0307858Y0201694D01*
X0300669Y0201694D01*
X0298831Y0200933D01*
X0297425Y0199526D01*
X0296664Y0197688D01*
X0296664Y0195699D01*
X0297425Y0193862D01*
X0298831Y0192455D01*
X0300482Y0191772D01*
X0300446Y0191766D01*
X0299667Y0191513D01*
X0298938Y0191141D01*
X0298276Y0190660D01*
X0297697Y0190081D01*
X0297216Y0189419D01*
X0296845Y0188690D01*
X0296592Y0187912D01*
X0296464Y0187103D01*
X0296464Y0186694D01*
X0296464Y0186285D01*
X0296592Y0185476D01*
X0296845Y0184698D01*
X0297216Y0183969D01*
X0297697Y0183306D01*
X0298276Y0182728D01*
X0298938Y0182246D01*
X0299667Y0181875D01*
X0300446Y0181622D01*
X0300482Y0181616D01*
X0298831Y0180933D01*
X0297425Y0179526D01*
X0296664Y0177688D01*
X0296664Y0175699D01*
X0297425Y0173862D01*
X0298831Y0172455D01*
X0300669Y0171694D01*
X0307858Y0171694D01*
X0309696Y0170933D01*
X0311102Y0169526D01*
X0311864Y0167688D01*
X0311864Y0165699D01*
X0311102Y0163862D01*
X0309696Y0162455D01*
X0307858Y0161694D01*
X0300669Y0161694D01*
X0307858Y0161694D01*
X0309696Y0160933D01*
X0311102Y0159526D01*
X0311864Y0157688D01*
X0311864Y0155699D01*
X0311102Y0153862D01*
X0309696Y0152455D01*
X0307858Y0151694D01*
X0300669Y0151694D01*
X0307858Y0151694D01*
X0309696Y0150933D01*
X0311102Y0149526D01*
X0311864Y0147688D01*
X0311864Y0145699D01*
X0311102Y0143862D01*
X0309696Y0142455D01*
X0307858Y0141694D01*
X0300669Y0141694D01*
X0307858Y0141694D01*
X0309650Y0140952D01*
X0312684Y0140952D01*
X0329144Y0157412D01*
X0329780Y0158949D01*
X0331299Y0160468D01*
X0332318Y0160890D01*
X0331299Y0161312D01*
X0329780Y0162831D01*
X0328958Y0164816D01*
X0328958Y0166964D01*
X0329780Y0168949D01*
X0331299Y0170468D01*
X0333284Y0171290D01*
X0341432Y0171290D01*
X0343417Y0170468D01*
X0344936Y0168949D01*
X0345758Y0166964D01*
X0345758Y0164816D01*
X0344936Y0162831D01*
X0343417Y0161312D01*
X0342398Y0160890D01*
X0343417Y0160468D01*
X0344936Y0158949D01*
X0345758Y0156964D01*
X0345758Y0154816D01*
X0344936Y0152831D01*
X0343417Y0151312D01*
X0342398Y0150890D01*
X0343417Y0150468D01*
X0344936Y0148949D01*
X0345758Y0146964D01*
X0345758Y0144816D01*
X0344936Y0142831D01*
X0343417Y0141312D01*
X0342398Y0140890D01*
X0343417Y0140468D01*
X0344936Y0138949D01*
X0345758Y0136964D01*
X0345758Y0134816D01*
X0344936Y0132831D01*
X0343417Y0131312D01*
X0342398Y0130890D01*
X0343417Y0130468D01*
X0344936Y0128949D01*
X0345758Y0126964D01*
X0345758Y0124816D01*
X0344936Y0122831D01*
X0343417Y0121312D01*
X0342664Y0121000D01*
X0343293Y0120680D01*
X0344006Y0120161D01*
X0344630Y0119538D01*
X0345148Y0118825D01*
X0345548Y0118040D01*
X0345820Y0117201D01*
X0345958Y0116331D01*
X0345958Y0115890D01*
X0337358Y0115890D01*
X0328758Y0115890D01*
X0328758Y0115449D01*
X0328896Y0114579D01*
X0329169Y0113740D01*
X0329569Y0112955D01*
X0330087Y0112242D01*
X0330710Y0111619D01*
X0331423Y0111100D01*
X0332209Y0110700D01*
X0333047Y0110428D01*
X0337358Y0110452D02*
X0337358Y0110452D01*
X0337358Y0110290D02*
X0340799Y0110290D01*
X0341670Y0110428D01*
X0342508Y0110700D01*
X0343293Y0111100D01*
X0344006Y0111619D01*
X0344630Y0112242D01*
X0345148Y0112955D01*
X0345548Y0113740D01*
X0345820Y0114579D01*
X0345958Y0115449D01*
X0345958Y0115890D01*
X0337358Y0115890D01*
X0337358Y0115890D01*
X0337358Y0110290D01*
X0337358Y0113651D02*
X0337358Y0113651D01*
X0337358Y0115890D02*
X0337358Y0115890D01*
X0341744Y0110452D02*
X0393614Y0110452D01*
X0393614Y0107254D02*
X0257299Y0107254D01*
X0256509Y0104055D02*
X0393614Y0104055D01*
X0393614Y0100857D02*
X0203810Y0100857D01*
X0192655Y0097658D02*
X0160861Y0097658D01*
X0156501Y0097658D02*
X0156501Y0097658D01*
X0156501Y0100857D02*
X0156501Y0100857D01*
X0156501Y0104055D02*
X0156501Y0104055D01*
X0156501Y0107254D02*
X0156501Y0107254D01*
X0161331Y0107254D02*
X0192181Y0107254D01*
X0189111Y0104055D02*
X0164081Y0104055D01*
X0164017Y0100857D02*
X0189192Y0100857D01*
X0169197Y0113651D02*
X0126754Y0113651D01*
X0127195Y0113906D02*
X0129448Y0116158D01*
X0131041Y0118918D01*
X0131866Y0121995D01*
X0131866Y0125181D01*
X0131041Y0128258D01*
X0129448Y0131018D01*
X0127195Y0133270D01*
X0124436Y0134863D01*
X0121359Y0135688D01*
X0118173Y0135688D01*
X0115095Y0134863D01*
X0112336Y0133270D01*
X0110083Y0131018D01*
X0108490Y0128258D01*
X0107666Y0125181D01*
X0107666Y0121995D01*
X0108490Y0118918D01*
X0110083Y0116158D01*
X0112336Y0113906D01*
X0115095Y0112313D01*
X0118173Y0111488D01*
X0121359Y0111488D01*
X0124436Y0112313D01*
X0127195Y0113906D01*
X0129847Y0116849D02*
X0165604Y0116849D01*
X0163973Y0120048D02*
X0131344Y0120048D01*
X0131866Y0123246D02*
X0163335Y0123246D01*
X0163558Y0126445D02*
X0131527Y0126445D01*
X0130242Y0129643D02*
X0164709Y0129643D01*
X0167144Y0132842D02*
X0127624Y0132842D01*
X0111907Y0132842D02*
X0011507Y0132842D01*
X0011507Y0136040D02*
X0173540Y0136040D01*
X0109290Y0129643D02*
X0011507Y0129643D01*
X0011507Y0126445D02*
X0108004Y0126445D01*
X0107666Y0123246D02*
X0078367Y0123246D01*
X0077814Y0123800D02*
X0075432Y0123800D01*
X0075432Y0118050D01*
X0075432Y0118050D01*
X0081182Y0118050D01*
X0081182Y0120431D01*
X0077814Y0123800D01*
X0075432Y0123800D02*
X0073050Y0123800D01*
X0069682Y0120431D01*
X0069682Y0118050D01*
X0075432Y0118050D01*
X0075432Y0118050D01*
X0075432Y0123800D01*
X0075432Y0123246D02*
X0075432Y0123246D01*
X0072497Y0123246D02*
X0063389Y0123246D01*
X0062536Y0123600D02*
X0064576Y0122755D01*
X0066137Y0121194D01*
X0066982Y0119154D01*
X0066982Y0116946D01*
X0066137Y0114906D01*
X0064576Y0113345D01*
X0062536Y0112500D01*
X0060328Y0112500D01*
X0058288Y0113345D01*
X0056727Y0114906D01*
X0055882Y0116946D01*
X0055882Y0119154D01*
X0056727Y0121194D01*
X0058288Y0122755D01*
X0060328Y0123600D01*
X0062536Y0123600D01*
X0059474Y0123246D02*
X0011507Y0123246D01*
X0011507Y0120048D02*
X0056252Y0120048D01*
X0055922Y0116849D02*
X0011507Y0116849D01*
X0011507Y0113651D02*
X0057982Y0113651D01*
X0064882Y0113651D02*
X0071699Y0113651D01*
X0073050Y0112300D02*
X0069682Y0115668D01*
X0069682Y0118050D01*
X0075432Y0118050D01*
X0081182Y0118050D01*
X0081182Y0115668D01*
X0077814Y0112300D01*
X0075432Y0112300D01*
X0075432Y0118050D01*
X0075432Y0118050D01*
X0075432Y0118050D01*
X0075432Y0112300D01*
X0073050Y0112300D01*
X0075432Y0113651D02*
X0075432Y0113651D01*
X0075432Y0116849D02*
X0075432Y0116849D01*
X0075432Y0120048D02*
X0075432Y0120048D01*
X0069682Y0120048D02*
X0066612Y0120048D01*
X0066942Y0116849D02*
X0069682Y0116849D01*
X0079164Y0113651D02*
X0112778Y0113651D01*
X0109684Y0116849D02*
X0081182Y0116849D01*
X0081182Y0120048D02*
X0108187Y0120048D01*
X0035463Y0068871D02*
X0011507Y0068871D01*
X0011507Y0065673D02*
X0038662Y0065673D01*
X0041860Y0062474D02*
X0011507Y0062474D01*
X0011507Y0059276D02*
X0045059Y0059276D01*
X0048652Y0056077D02*
X0011507Y0056077D01*
X0011507Y0072070D02*
X0032265Y0072070D01*
X0029626Y0075268D02*
X0011507Y0075268D01*
X0011507Y0078467D02*
X0029002Y0078467D01*
X0028381Y0081665D02*
X0011507Y0081665D01*
X0011507Y0084864D02*
X0028381Y0084864D01*
X0028381Y0088063D02*
X0011507Y0088063D01*
X0011507Y0091261D02*
X0028381Y0091261D01*
X0035702Y0024092D02*
X0035702Y0024092D01*
X0035702Y0020894D02*
X0035702Y0020894D01*
X0191702Y0020894D02*
X0191702Y0020894D01*
X0191702Y0024092D02*
X0191702Y0024092D01*
X0199174Y0024092D02*
X0205365Y0024092D01*
X0205346Y0024001D02*
X0205346Y0018824D01*
X0212868Y0018824D01*
X0212868Y0018824D01*
X0212868Y0018824D01*
X0212868Y0026345D01*
X0207690Y0026345D01*
X0207188Y0026245D01*
X0206715Y0026049D01*
X0206289Y0025765D01*
X0205927Y0025403D01*
X0205642Y0024977D01*
X0205446Y0024504D01*
X0205346Y0024001D01*
X0205346Y0020894D02*
X0199224Y0020894D01*
X0199224Y0017695D02*
X0205346Y0017695D01*
X0205346Y0014497D02*
X0199224Y0014497D01*
X0212868Y0020894D02*
X0212868Y0020894D01*
X0212868Y0024092D02*
X0212868Y0024092D01*
X0238186Y0072070D02*
X0393614Y0072070D01*
X0393614Y0075268D02*
X0242583Y0075268D01*
X0244612Y0078467D02*
X0393614Y0078467D01*
X0393614Y0081665D02*
X0376189Y0081665D01*
X0376189Y0081425D02*
X0375824Y0080543D01*
X0375148Y0079868D01*
X0374266Y0079503D01*
X0363469Y0079503D01*
X0362587Y0079868D01*
X0361912Y0080543D01*
X0361546Y0081425D01*
X0361546Y0092223D01*
X0361912Y0093105D01*
X0362587Y0093780D01*
X0363469Y0094145D01*
X0374266Y0094145D01*
X0375148Y0093780D01*
X0375824Y0093105D01*
X0376189Y0092223D01*
X0376189Y0081425D01*
X0376189Y0084864D02*
X0393614Y0084864D01*
X0393614Y0088063D02*
X0376189Y0088063D01*
X0376189Y0091261D02*
X0393614Y0091261D01*
X0393614Y0113651D02*
X0345502Y0113651D01*
X0345876Y0116849D02*
X0393614Y0116849D01*
X0393614Y0120048D02*
X0344120Y0120048D01*
X0345108Y0123246D02*
X0393614Y0123246D01*
X0393614Y0126445D02*
X0345758Y0126445D01*
X0344242Y0129643D02*
X0370606Y0129643D01*
X0370557Y0129664D02*
X0372542Y0128841D01*
X0380690Y0128841D01*
X0382675Y0129664D01*
X0384194Y0131183D01*
X0385016Y0133167D01*
X0385016Y0135316D01*
X0384194Y0137300D01*
X0382675Y0138819D01*
X0381656Y0139241D01*
X0382675Y0139664D01*
X0384194Y0141183D01*
X0385016Y0143167D01*
X0385016Y0145316D01*
X0384194Y0147300D01*
X0382675Y0148819D01*
X0381922Y0149131D01*
X0382551Y0149452D01*
X0383264Y0149970D01*
X0383887Y0150593D01*
X0384405Y0151306D01*
X0384805Y0152092D01*
X0385078Y0152930D01*
X0385216Y0153801D01*
X0385216Y0154241D01*
X0376616Y0154241D01*
X0376616Y0154242D01*
X0376616Y0154242D01*
X0376616Y0159841D01*
X0380056Y0159841D01*
X0380927Y0159704D01*
X0381765Y0159431D01*
X0382551Y0159031D01*
X0383264Y0158513D01*
X0383887Y0157890D01*
X0384405Y0157177D01*
X0384805Y0156391D01*
X0385078Y0155553D01*
X0385216Y0154682D01*
X0385216Y0154242D01*
X0376616Y0154242D01*
X0376616Y0159841D01*
X0373175Y0159841D01*
X0372304Y0159704D01*
X0371466Y0159431D01*
X0370681Y0159031D01*
X0369968Y0158513D01*
X0369344Y0157890D01*
X0368826Y0157177D01*
X0368426Y0156391D01*
X0368154Y0155553D01*
X0368016Y0154682D01*
X0368016Y0154242D01*
X0376616Y0154242D01*
X0376616Y0154241D01*
X0368016Y0154241D01*
X0368016Y0153801D01*
X0368154Y0152930D01*
X0368426Y0152092D01*
X0368826Y0151306D01*
X0369344Y0150593D01*
X0369968Y0149970D01*
X0370681Y0149452D01*
X0371310Y0149131D01*
X0370557Y0148819D01*
X0369038Y0147300D01*
X0368216Y0145316D01*
X0368216Y0143167D01*
X0369038Y0141183D01*
X0370557Y0139664D01*
X0371576Y0139241D01*
X0370557Y0138819D01*
X0369038Y0137300D01*
X0368216Y0135316D01*
X0368216Y0133167D01*
X0369038Y0131183D01*
X0370557Y0129664D01*
X0368351Y0132842D02*
X0344940Y0132842D01*
X0345758Y0136040D02*
X0368516Y0136040D01*
X0371569Y0139239D02*
X0344646Y0139239D01*
X0344542Y0142437D02*
X0368518Y0142437D01*
X0368348Y0145636D02*
X0345758Y0145636D01*
X0344984Y0148834D02*
X0370593Y0148834D01*
X0368456Y0152033D02*
X0344138Y0152033D01*
X0345758Y0155231D02*
X0368103Y0155231D01*
X0369884Y0158430D02*
X0345151Y0158430D01*
X0343733Y0161628D02*
X0393614Y0161628D01*
X0393614Y0158430D02*
X0383347Y0158430D01*
X0385129Y0155231D02*
X0393614Y0155231D01*
X0393614Y0152033D02*
X0384775Y0152033D01*
X0382639Y0148834D02*
X0393614Y0148834D01*
X0393614Y0145636D02*
X0384883Y0145636D01*
X0384713Y0142437D02*
X0393614Y0142437D01*
X0393614Y0139239D02*
X0381662Y0139239D01*
X0384716Y0136040D02*
X0393614Y0136040D01*
X0393614Y0132842D02*
X0384881Y0132842D01*
X0382625Y0129643D02*
X0393614Y0129643D01*
X0376616Y0155231D02*
X0376616Y0155231D01*
X0376616Y0158430D02*
X0376616Y0158430D01*
X0393614Y0164827D02*
X0345758Y0164827D01*
X0345319Y0168025D02*
X0393614Y0168025D01*
X0393614Y0171224D02*
X0341592Y0171224D01*
X0333124Y0171224D02*
X0308993Y0171224D01*
X0311335Y0174422D02*
X0393614Y0174422D01*
X0393614Y0177621D02*
X0311864Y0177621D01*
X0309809Y0180819D02*
X0393614Y0180819D01*
X0393614Y0184018D02*
X0311336Y0184018D01*
X0312064Y0186694D02*
X0304264Y0186694D01*
X0312064Y0186694D01*
X0312046Y0187216D02*
X0332545Y0187216D01*
X0332555Y0187206D02*
X0334393Y0186445D01*
X0336382Y0186445D01*
X0338220Y0187206D01*
X0339627Y0188612D01*
X0340388Y0190450D01*
X0340388Y0192439D01*
X0339627Y0194277D01*
X0338220Y0195683D01*
X0336382Y0196445D01*
X0334393Y0196445D01*
X0332555Y0195683D01*
X0331149Y0194277D01*
X0330388Y0192439D01*
X0330388Y0190450D01*
X0331149Y0188612D01*
X0332555Y0187206D01*
X0330402Y0190415D02*
X0310496Y0190415D01*
X0310854Y0193613D02*
X0330874Y0193613D01*
X0338231Y0187216D02*
X0393614Y0187216D01*
X0393614Y0190415D02*
X0340373Y0190415D01*
X0339901Y0193613D02*
X0393614Y0193613D01*
X0393614Y0196812D02*
X0366721Y0196812D01*
X0367004Y0197017D02*
X0367627Y0197641D01*
X0368145Y0198354D01*
X0368546Y0199139D01*
X0368818Y0199977D01*
X0368956Y0200848D01*
X0368956Y0201289D01*
X0360356Y0201289D01*
X0360356Y0201289D01*
X0360356Y0201289D01*
X0360356Y0195689D01*
X0363797Y0195689D01*
X0364667Y0195827D01*
X0365506Y0196099D01*
X0366291Y0196499D01*
X0367004Y0197017D01*
X0368823Y0200010D02*
X0393614Y0200010D01*
X0393614Y0203209D02*
X0368620Y0203209D01*
X0365682Y0206407D02*
X0393614Y0206407D01*
X0393614Y0209606D02*
X0368504Y0209606D01*
X0368573Y0212804D02*
X0393614Y0212804D01*
X0393614Y0216003D02*
X0366086Y0216003D01*
X0368336Y0219201D02*
X0393614Y0219201D01*
X0393614Y0222400D02*
X0368741Y0222400D01*
X0366683Y0225598D02*
X0393614Y0225598D01*
X0393614Y0228797D02*
X0368169Y0228797D01*
X0368756Y0231996D02*
X0393614Y0231996D01*
X0393614Y0235194D02*
X0367087Y0235194D01*
X0368001Y0238393D02*
X0393614Y0238393D01*
X0393614Y0241591D02*
X0368756Y0241591D01*
X0367492Y0244790D02*
X0393614Y0244790D01*
X0393614Y0247988D02*
X0352062Y0247988D01*
X0351584Y0247510D02*
X0353103Y0249029D01*
X0353925Y0251014D01*
X0353925Y0253162D01*
X0353103Y0255147D01*
X0351584Y0256666D01*
X0349599Y0257488D01*
X0341451Y0257488D01*
X0339466Y0256666D01*
X0337947Y0255147D01*
X0337125Y0253162D01*
X0337125Y0251014D01*
X0337947Y0249029D01*
X0339466Y0247510D01*
X0341451Y0246688D01*
X0349599Y0246688D01*
X0351584Y0247510D01*
X0353220Y0244790D02*
X0311487Y0244790D01*
X0311739Y0247988D02*
X0313389Y0247988D01*
X0308106Y0241591D02*
X0351956Y0241591D01*
X0352711Y0238393D02*
X0311572Y0238393D01*
X0311654Y0235194D02*
X0353624Y0235194D01*
X0351956Y0231996D02*
X0308586Y0231996D01*
X0311404Y0228797D02*
X0352543Y0228797D01*
X0354029Y0225598D02*
X0311822Y0225598D01*
X0309563Y0222400D02*
X0351971Y0222400D01*
X0352376Y0219201D02*
X0349267Y0219201D01*
X0352465Y0216003D02*
X0354626Y0216003D01*
X0345481Y0212804D02*
X0339822Y0212804D01*
X0340388Y0209606D02*
X0348680Y0209606D01*
X0355029Y0206407D02*
X0338422Y0206407D01*
X0332354Y0206407D02*
X0311864Y0206407D01*
X0311023Y0209606D02*
X0330388Y0209606D01*
X0330953Y0212804D02*
X0310045Y0212804D01*
X0298482Y0212804D02*
X0291357Y0212804D01*
X0291357Y0216003D02*
X0296664Y0216003D01*
X0297290Y0219201D02*
X0291357Y0219201D01*
X0291357Y0222400D02*
X0298964Y0222400D01*
X0296705Y0225598D02*
X0291357Y0225598D01*
X0291357Y0228797D02*
X0297123Y0228797D01*
X0299941Y0231996D02*
X0291357Y0231996D01*
X0291357Y0235194D02*
X0296873Y0235194D01*
X0296955Y0238393D02*
X0291357Y0238393D01*
X0291357Y0241591D02*
X0300421Y0241591D01*
X0297040Y0244790D02*
X0291357Y0244790D01*
X0292422Y0247988D02*
X0296788Y0247988D01*
X0288637Y0254385D02*
X0206730Y0254385D01*
X0204623Y0252278D02*
X0208958Y0256613D01*
X0208958Y0262744D01*
X0204623Y0267078D01*
X0198493Y0267078D01*
X0194158Y0262744D01*
X0194158Y0256613D01*
X0198493Y0252278D01*
X0204623Y0252278D01*
X0208958Y0257584D02*
X0393614Y0257584D01*
X0393614Y0254385D02*
X0353419Y0254385D01*
X0353925Y0251187D02*
X0393614Y0251187D01*
X0382066Y0260782D02*
X0208958Y0260782D01*
X0207721Y0263981D02*
X0379449Y0263981D01*
X0378178Y0267179D02*
X0353248Y0267179D01*
X0353925Y0270378D02*
X0377866Y0270378D01*
X0378429Y0273576D02*
X0352474Y0273576D01*
X0338576Y0273576D02*
X0326874Y0273576D01*
X0328325Y0270378D02*
X0337125Y0270378D01*
X0337802Y0267179D02*
X0327648Y0267179D01*
X0327819Y0254385D02*
X0337632Y0254385D01*
X0337125Y0251187D02*
X0328325Y0251187D01*
X0326462Y0247988D02*
X0338989Y0247988D01*
X0312202Y0267179D02*
X0027337Y0267179D01*
X0026066Y0263981D02*
X0152395Y0263981D01*
X0151158Y0262744D02*
X0151158Y0256613D01*
X0155493Y0252278D01*
X0161623Y0252278D01*
X0165958Y0256613D01*
X0165958Y0262744D01*
X0161623Y0267078D01*
X0155493Y0267078D01*
X0151158Y0262744D01*
X0151158Y0260782D02*
X0129346Y0260782D01*
X0129923Y0260205D02*
X0127841Y0262287D01*
X0125122Y0263413D01*
X0122178Y0263413D01*
X0119458Y0262287D01*
X0117376Y0260205D01*
X0116250Y0257485D01*
X0116250Y0244541D01*
X0117376Y0241821D01*
X0119458Y0239740D01*
X0122178Y0238613D01*
X0125122Y0238613D01*
X0127841Y0239740D01*
X0129923Y0241821D01*
X0131050Y0244541D01*
X0131050Y0257485D01*
X0129923Y0260205D01*
X0131009Y0257584D02*
X0151158Y0257584D01*
X0153387Y0254385D02*
X0131050Y0254385D01*
X0131050Y0251187D02*
X0241515Y0251187D01*
X0239373Y0247988D02*
X0131050Y0247988D01*
X0131050Y0244790D02*
X0239659Y0244790D01*
X0242315Y0241591D02*
X0129693Y0241591D01*
X0117607Y0241591D02*
X0041093Y0241591D01*
X0041323Y0241821D02*
X0042450Y0244541D01*
X0042450Y0257485D01*
X0041323Y0260205D01*
X0039241Y0262287D01*
X0036522Y0263413D01*
X0033578Y0263413D01*
X0030858Y0262287D01*
X0028776Y0260205D01*
X0027650Y0257485D01*
X0027650Y0244541D01*
X0028776Y0241821D01*
X0030858Y0239740D01*
X0033578Y0238613D01*
X0036522Y0238613D01*
X0039241Y0239740D01*
X0041323Y0241821D01*
X0042450Y0244790D02*
X0116250Y0244790D01*
X0116250Y0247988D02*
X0042450Y0247988D01*
X0042450Y0251187D02*
X0116250Y0251187D01*
X0116250Y0254385D02*
X0042450Y0254385D01*
X0042409Y0257584D02*
X0116291Y0257584D01*
X0117954Y0260782D02*
X0040746Y0260782D01*
X0029354Y0260782D02*
X0023449Y0260782D01*
X0027691Y0257584D02*
X0011507Y0257584D01*
X0011507Y0254385D02*
X0027650Y0254385D01*
X0027650Y0251187D02*
X0011507Y0251187D01*
X0011507Y0247988D02*
X0027650Y0247988D01*
X0027650Y0244790D02*
X0011507Y0244790D01*
X0011507Y0241591D02*
X0029007Y0241591D01*
X0011507Y0238393D02*
X0239541Y0238393D01*
X0239491Y0235194D02*
X0011507Y0235194D01*
X0011507Y0231996D02*
X0242026Y0231996D01*
X0239708Y0228797D02*
X0011507Y0228797D01*
X0011507Y0225598D02*
X0239324Y0225598D01*
X0241395Y0222400D02*
X0206302Y0222400D01*
X0204623Y0224078D02*
X0208958Y0219744D01*
X0208958Y0213613D01*
X0204623Y0209278D01*
X0198493Y0209278D01*
X0194158Y0213613D01*
X0194158Y0219744D01*
X0198493Y0224078D01*
X0204623Y0224078D01*
X0208958Y0219201D02*
X0239876Y0219201D01*
X0239299Y0216003D02*
X0208958Y0216003D01*
X0208149Y0212804D02*
X0240991Y0212804D01*
X0240043Y0209606D02*
X0204951Y0209606D01*
X0198166Y0209606D02*
X0162234Y0209606D01*
X0161706Y0209078D02*
X0166158Y0213530D01*
X0166158Y0216678D01*
X0158558Y0216678D01*
X0158558Y0216678D01*
X0158558Y0209078D01*
X0155410Y0209078D01*
X0150958Y0213530D01*
X0150958Y0216678D01*
X0158558Y0216678D01*
X0158558Y0216679D01*
X0158558Y0224278D01*
X0155410Y0224278D01*
X0150958Y0219826D01*
X0150958Y0216679D01*
X0158558Y0216679D01*
X0158558Y0216679D01*
X0158558Y0224278D01*
X0161706Y0224278D01*
X0166158Y0219826D01*
X0166158Y0216679D01*
X0158558Y0216679D01*
X0158558Y0216678D01*
X0158558Y0209078D01*
X0161706Y0209078D01*
X0158558Y0209606D02*
X0158558Y0209606D01*
X0154883Y0209606D02*
X0088000Y0209606D01*
X0088000Y0206407D02*
X0239299Y0206407D01*
X0240586Y0203209D02*
X0087595Y0203209D01*
X0077605Y0203209D02*
X0011507Y0203209D01*
X0011507Y0206407D02*
X0077200Y0206407D01*
X0077200Y0209606D02*
X0057345Y0209606D01*
X0057178Y0209202D02*
X0058000Y0211187D01*
X0058000Y0219335D01*
X0057178Y0221320D01*
X0055659Y0222839D01*
X0053674Y0223661D01*
X0051526Y0223661D01*
X0049541Y0222839D01*
X0048022Y0221320D01*
X0047200Y0219335D01*
X0047200Y0211187D01*
X0048022Y0209202D01*
X0049541Y0207683D01*
X0051526Y0206861D01*
X0053674Y0206861D01*
X0055659Y0207683D01*
X0057178Y0209202D01*
X0058000Y0212804D02*
X0077394Y0212804D01*
X0079937Y0216003D02*
X0058000Y0216003D01*
X0058000Y0219201D02*
X0150958Y0219201D01*
X0150958Y0216003D02*
X0085263Y0216003D01*
X0087806Y0212804D02*
X0151684Y0212804D01*
X0158558Y0212804D02*
X0158558Y0212804D01*
X0158558Y0216003D02*
X0158558Y0216003D01*
X0158558Y0219201D02*
X0158558Y0219201D01*
X0158558Y0222400D02*
X0158558Y0222400D01*
X0163585Y0222400D02*
X0196815Y0222400D01*
X0194158Y0219201D02*
X0166158Y0219201D01*
X0166158Y0216003D02*
X0194158Y0216003D01*
X0194967Y0212804D02*
X0165432Y0212804D01*
X0153532Y0222400D02*
X0056098Y0222400D01*
X0049102Y0222400D02*
X0011507Y0222400D01*
X0011507Y0219201D02*
X0047200Y0219201D01*
X0047200Y0216003D02*
X0011507Y0216003D01*
X0011507Y0212804D02*
X0047200Y0212804D01*
X0047855Y0209606D02*
X0011507Y0209606D01*
X0027649Y0270378D02*
X0311525Y0270378D01*
X0312976Y0273576D02*
X0027086Y0273576D01*
X0164721Y0263981D02*
X0195395Y0263981D01*
X0194158Y0260782D02*
X0165958Y0260782D01*
X0165958Y0257584D02*
X0194158Y0257584D01*
X0196387Y0254385D02*
X0163730Y0254385D01*
X0253882Y0251187D02*
X0269444Y0251187D01*
X0266788Y0247988D02*
X0256024Y0247988D01*
X0255738Y0244790D02*
X0267040Y0244790D01*
X0270421Y0241591D02*
X0253082Y0241591D01*
X0255856Y0238393D02*
X0266955Y0238393D01*
X0266873Y0235194D02*
X0255906Y0235194D01*
X0253371Y0231996D02*
X0269941Y0231996D01*
X0267123Y0228797D02*
X0255689Y0228797D01*
X0256073Y0225598D02*
X0266705Y0225598D01*
X0268964Y0222400D02*
X0254002Y0222400D01*
X0255521Y0219201D02*
X0267290Y0219201D01*
X0266664Y0216003D02*
X0256099Y0216003D01*
X0254406Y0212804D02*
X0268482Y0212804D01*
X0267504Y0209606D02*
X0255354Y0209606D01*
X0256099Y0206407D02*
X0266664Y0206407D01*
X0268077Y0203209D02*
X0254811Y0203209D01*
X0255058Y0200010D02*
X0267909Y0200010D01*
X0266664Y0196812D02*
X0256099Y0196812D01*
X0255215Y0193613D02*
X0267673Y0193613D01*
X0268313Y0190415D02*
X0254937Y0190415D01*
X0256292Y0187216D02*
X0266664Y0187216D01*
X0265461Y0184412D02*
X0264988Y0184608D01*
X0264485Y0184708D01*
X0260292Y0184708D01*
X0260292Y0179156D01*
X0260292Y0179156D01*
X0260292Y0179155D02*
X0266829Y0179155D01*
X0266829Y0182364D01*
X0266729Y0182867D01*
X0266533Y0183340D01*
X0266249Y0183766D01*
X0265887Y0184128D01*
X0265461Y0184412D01*
X0265997Y0184018D02*
X0267360Y0184018D01*
X0266829Y0180819D02*
X0268495Y0180819D01*
X0274264Y0176694D02*
X0282064Y0176694D01*
X0274264Y0176694D01*
X0274264Y0176694D01*
X0266985Y0174422D02*
X0266126Y0174422D01*
X0266443Y0171224D02*
X0269534Y0171224D01*
X0260292Y0174422D02*
X0260292Y0174422D01*
X0260292Y0177621D02*
X0260292Y0177621D01*
X0260292Y0180819D02*
X0260292Y0180819D01*
X0260292Y0184018D02*
X0260292Y0184018D01*
X0247699Y0184018D02*
X0247698Y0184018D01*
X0223875Y0184018D02*
X0221653Y0184018D01*
X0278017Y0161628D02*
X0300510Y0161628D01*
X0297025Y0164827D02*
X0281502Y0164827D01*
X0281724Y0168025D02*
X0296803Y0168025D01*
X0299534Y0171224D02*
X0278993Y0171224D01*
X0281542Y0174422D02*
X0297192Y0174422D01*
X0296664Y0177621D02*
X0281982Y0177621D01*
X0280032Y0180819D02*
X0298718Y0180819D01*
X0297191Y0184018D02*
X0281167Y0184018D01*
X0281864Y0187216D02*
X0296481Y0187216D01*
X0296464Y0186694D02*
X0304263Y0186694D01*
X0304263Y0186694D01*
X0296464Y0186694D01*
X0298031Y0190415D02*
X0280214Y0190415D01*
X0283474Y0193613D02*
X0297673Y0193613D01*
X0296664Y0196812D02*
X0287309Y0196812D01*
X0290507Y0200010D02*
X0297909Y0200010D01*
X0298077Y0203209D02*
X0291357Y0203209D01*
X0291357Y0206407D02*
X0296664Y0206407D01*
X0297504Y0209606D02*
X0291357Y0209606D01*
X0284157Y0209606D02*
X0281023Y0209606D01*
X0281864Y0206407D02*
X0284157Y0206407D01*
X0283524Y0203209D02*
X0280450Y0203209D01*
X0280045Y0212804D02*
X0284157Y0212804D01*
X0284157Y0216003D02*
X0281864Y0216003D01*
X0281237Y0219201D02*
X0284157Y0219201D01*
X0284157Y0222400D02*
X0279563Y0222400D01*
X0281822Y0225598D02*
X0284157Y0225598D01*
X0284157Y0228797D02*
X0281404Y0228797D01*
X0284157Y0231996D02*
X0278586Y0231996D01*
X0281654Y0235194D02*
X0284157Y0235194D01*
X0284157Y0238393D02*
X0281572Y0238393D01*
X0284157Y0241591D02*
X0278106Y0241591D01*
X0281487Y0244790D02*
X0284157Y0244790D01*
X0284157Y0247988D02*
X0281739Y0247988D01*
X0279083Y0251187D02*
X0285438Y0251187D01*
X0310450Y0203209D02*
X0352092Y0203209D01*
X0351756Y0201289D02*
X0351756Y0200848D01*
X0351894Y0199977D01*
X0352166Y0199139D01*
X0352566Y0198354D01*
X0353084Y0197641D01*
X0353708Y0197017D01*
X0354421Y0196499D01*
X0355206Y0196099D01*
X0356045Y0195827D01*
X0356915Y0195689D01*
X0360356Y0195689D01*
X0360356Y0201289D01*
X0360356Y0201289D01*
X0351756Y0201289D01*
X0351889Y0200010D02*
X0310618Y0200010D01*
X0311864Y0196812D02*
X0353990Y0196812D01*
X0360356Y0196812D02*
X0360356Y0196812D01*
X0360356Y0200010D02*
X0360356Y0200010D01*
X0329398Y0168025D02*
X0311724Y0168025D01*
X0311502Y0164827D02*
X0328958Y0164827D01*
X0330983Y0161628D02*
X0308017Y0161628D01*
X0311556Y0158430D02*
X0329565Y0158430D01*
X0326963Y0155231D02*
X0311670Y0155231D01*
X0308676Y0152033D02*
X0323765Y0152033D01*
X0320566Y0148834D02*
X0311389Y0148834D01*
X0311837Y0145636D02*
X0317368Y0145636D01*
X0314169Y0142437D02*
X0309652Y0142437D01*
X0310082Y0132842D02*
X0312644Y0132842D01*
X0319628Y0129643D02*
X0330475Y0129643D01*
X0329776Y0132842D02*
X0322827Y0132842D01*
X0326025Y0136040D02*
X0328958Y0136040D01*
X0329224Y0139239D02*
X0330070Y0139239D01*
X0328958Y0126445D02*
X0316430Y0126445D01*
X0312671Y0123246D02*
X0329608Y0123246D01*
X0330596Y0120048D02*
X0310581Y0120048D01*
X0311102Y0119526D02*
X0309696Y0120933D01*
X0307858Y0121694D01*
X0300669Y0121694D01*
X0298831Y0120933D01*
X0297425Y0119526D01*
X0296664Y0117688D01*
X0296664Y0115699D01*
X0297425Y0113862D01*
X0298831Y0112455D01*
X0300669Y0111694D01*
X0307858Y0111694D01*
X0309696Y0112455D01*
X0311102Y0113862D01*
X0311864Y0115699D01*
X0311864Y0117688D01*
X0311102Y0119526D01*
X0311864Y0116849D02*
X0328840Y0116849D01*
X0329214Y0113651D02*
X0310891Y0113651D01*
X0297636Y0113651D02*
X0280891Y0113651D01*
X0281864Y0116849D02*
X0296664Y0116849D01*
X0297946Y0120048D02*
X0280581Y0120048D01*
X0280487Y0123246D02*
X0298040Y0123246D01*
X0296664Y0126445D02*
X0281864Y0126445D01*
X0280985Y0129643D02*
X0297542Y0129643D01*
X0298445Y0132842D02*
X0280082Y0132842D01*
X0281864Y0136040D02*
X0296664Y0136040D01*
X0297306Y0139239D02*
X0281221Y0139239D01*
X0279652Y0142437D02*
X0298875Y0142437D01*
X0296690Y0145636D02*
X0281837Y0145636D01*
X0281389Y0148834D02*
X0297138Y0148834D01*
X0299851Y0152033D02*
X0278676Y0152033D01*
X0281670Y0155231D02*
X0296857Y0155231D01*
X0296971Y0158430D02*
X0281556Y0158430D01*
X0304264Y0186694D02*
X0304264Y0186694D01*
X0235396Y0126445D02*
X0235396Y0126445D01*
X0241702Y0091261D02*
X0361546Y0091261D01*
X0361546Y0088063D02*
X0244129Y0088063D01*
X0245233Y0084864D02*
X0361546Y0084864D01*
X0361546Y0081665D02*
X0245373Y0081665D01*
D25*
X0212994Y0086950D02*
X0212868Y0086824D01*
X0212994Y0086950D02*
X0212994Y0089005D01*
X0211891Y0087903D01*
X0211891Y0067037D01*
X0206891Y0062037D01*
X0051773Y0062037D01*
X0035702Y0078108D01*
X0035702Y0086667D01*
M02*
