G75*
%MOIN*%
%OFA0B0*%
%FSLAX25Y25*%
%IPPOS*%
%LPD*%
%AMOC8*
5,1,8,0,0,1.08239X$1,22.5*
%
%ADD10C,0.00000*%
%ADD11OC8,0.10000*%
%ADD12OC8,0.06300*%
%ADD13C,0.06300*%
%ADD14R,0.07874X0.05906*%
%ADD15C,0.05200*%
%ADD16R,0.02362X0.08661*%
%ADD17C,0.04400*%
%ADD18C,0.06600*%
%ADD19OC8,0.06496*%
%ADD20C,0.06000*%
%ADD21C,0.10000*%
%ADD22C,0.05200*%
%ADD23R,0.06299X0.07098*%
%ADD24R,0.05906X0.07874*%
%ADD25R,0.06299X0.05118*%
%ADD26R,0.09843X0.09843*%
%ADD27C,0.02400*%
%ADD28R,0.03962X0.03962*%
%ADD29C,0.03200*%
%ADD30C,0.08600*%
D10*
X0005907Y0008100D02*
X0005907Y0279753D01*
X0399214Y0279753D01*
X0399214Y0008100D01*
X0005907Y0008100D01*
X0009451Y0017942D02*
X0009453Y0018100D01*
X0009459Y0018258D01*
X0009469Y0018416D01*
X0009483Y0018574D01*
X0009501Y0018731D01*
X0009522Y0018888D01*
X0009548Y0019044D01*
X0009578Y0019200D01*
X0009611Y0019355D01*
X0009649Y0019508D01*
X0009690Y0019661D01*
X0009735Y0019813D01*
X0009784Y0019964D01*
X0009837Y0020113D01*
X0009893Y0020261D01*
X0009953Y0020407D01*
X0010017Y0020552D01*
X0010085Y0020695D01*
X0010156Y0020837D01*
X0010230Y0020977D01*
X0010308Y0021114D01*
X0010390Y0021250D01*
X0010474Y0021384D01*
X0010563Y0021515D01*
X0010654Y0021644D01*
X0010749Y0021771D01*
X0010846Y0021896D01*
X0010947Y0022018D01*
X0011051Y0022137D01*
X0011158Y0022254D01*
X0011268Y0022368D01*
X0011381Y0022479D01*
X0011496Y0022588D01*
X0011614Y0022693D01*
X0011735Y0022795D01*
X0011858Y0022895D01*
X0011984Y0022991D01*
X0012112Y0023084D01*
X0012242Y0023174D01*
X0012375Y0023260D01*
X0012510Y0023344D01*
X0012646Y0023423D01*
X0012785Y0023500D01*
X0012926Y0023572D01*
X0013068Y0023642D01*
X0013212Y0023707D01*
X0013358Y0023769D01*
X0013505Y0023827D01*
X0013654Y0023882D01*
X0013804Y0023933D01*
X0013955Y0023980D01*
X0014107Y0024023D01*
X0014260Y0024062D01*
X0014415Y0024098D01*
X0014570Y0024129D01*
X0014726Y0024157D01*
X0014882Y0024181D01*
X0015039Y0024201D01*
X0015197Y0024217D01*
X0015354Y0024229D01*
X0015513Y0024237D01*
X0015671Y0024241D01*
X0015829Y0024241D01*
X0015987Y0024237D01*
X0016146Y0024229D01*
X0016303Y0024217D01*
X0016461Y0024201D01*
X0016618Y0024181D01*
X0016774Y0024157D01*
X0016930Y0024129D01*
X0017085Y0024098D01*
X0017240Y0024062D01*
X0017393Y0024023D01*
X0017545Y0023980D01*
X0017696Y0023933D01*
X0017846Y0023882D01*
X0017995Y0023827D01*
X0018142Y0023769D01*
X0018288Y0023707D01*
X0018432Y0023642D01*
X0018574Y0023572D01*
X0018715Y0023500D01*
X0018854Y0023423D01*
X0018990Y0023344D01*
X0019125Y0023260D01*
X0019258Y0023174D01*
X0019388Y0023084D01*
X0019516Y0022991D01*
X0019642Y0022895D01*
X0019765Y0022795D01*
X0019886Y0022693D01*
X0020004Y0022588D01*
X0020119Y0022479D01*
X0020232Y0022368D01*
X0020342Y0022254D01*
X0020449Y0022137D01*
X0020553Y0022018D01*
X0020654Y0021896D01*
X0020751Y0021771D01*
X0020846Y0021644D01*
X0020937Y0021515D01*
X0021026Y0021384D01*
X0021110Y0021250D01*
X0021192Y0021114D01*
X0021270Y0020977D01*
X0021344Y0020837D01*
X0021415Y0020695D01*
X0021483Y0020552D01*
X0021547Y0020407D01*
X0021607Y0020261D01*
X0021663Y0020113D01*
X0021716Y0019964D01*
X0021765Y0019813D01*
X0021810Y0019661D01*
X0021851Y0019508D01*
X0021889Y0019355D01*
X0021922Y0019200D01*
X0021952Y0019044D01*
X0021978Y0018888D01*
X0021999Y0018731D01*
X0022017Y0018574D01*
X0022031Y0018416D01*
X0022041Y0018258D01*
X0022047Y0018100D01*
X0022049Y0017942D01*
X0022047Y0017784D01*
X0022041Y0017626D01*
X0022031Y0017468D01*
X0022017Y0017310D01*
X0021999Y0017153D01*
X0021978Y0016996D01*
X0021952Y0016840D01*
X0021922Y0016684D01*
X0021889Y0016529D01*
X0021851Y0016376D01*
X0021810Y0016223D01*
X0021765Y0016071D01*
X0021716Y0015920D01*
X0021663Y0015771D01*
X0021607Y0015623D01*
X0021547Y0015477D01*
X0021483Y0015332D01*
X0021415Y0015189D01*
X0021344Y0015047D01*
X0021270Y0014907D01*
X0021192Y0014770D01*
X0021110Y0014634D01*
X0021026Y0014500D01*
X0020937Y0014369D01*
X0020846Y0014240D01*
X0020751Y0014113D01*
X0020654Y0013988D01*
X0020553Y0013866D01*
X0020449Y0013747D01*
X0020342Y0013630D01*
X0020232Y0013516D01*
X0020119Y0013405D01*
X0020004Y0013296D01*
X0019886Y0013191D01*
X0019765Y0013089D01*
X0019642Y0012989D01*
X0019516Y0012893D01*
X0019388Y0012800D01*
X0019258Y0012710D01*
X0019125Y0012624D01*
X0018990Y0012540D01*
X0018854Y0012461D01*
X0018715Y0012384D01*
X0018574Y0012312D01*
X0018432Y0012242D01*
X0018288Y0012177D01*
X0018142Y0012115D01*
X0017995Y0012057D01*
X0017846Y0012002D01*
X0017696Y0011951D01*
X0017545Y0011904D01*
X0017393Y0011861D01*
X0017240Y0011822D01*
X0017085Y0011786D01*
X0016930Y0011755D01*
X0016774Y0011727D01*
X0016618Y0011703D01*
X0016461Y0011683D01*
X0016303Y0011667D01*
X0016146Y0011655D01*
X0015987Y0011647D01*
X0015829Y0011643D01*
X0015671Y0011643D01*
X0015513Y0011647D01*
X0015354Y0011655D01*
X0015197Y0011667D01*
X0015039Y0011683D01*
X0014882Y0011703D01*
X0014726Y0011727D01*
X0014570Y0011755D01*
X0014415Y0011786D01*
X0014260Y0011822D01*
X0014107Y0011861D01*
X0013955Y0011904D01*
X0013804Y0011951D01*
X0013654Y0012002D01*
X0013505Y0012057D01*
X0013358Y0012115D01*
X0013212Y0012177D01*
X0013068Y0012242D01*
X0012926Y0012312D01*
X0012785Y0012384D01*
X0012646Y0012461D01*
X0012510Y0012540D01*
X0012375Y0012624D01*
X0012242Y0012710D01*
X0012112Y0012800D01*
X0011984Y0012893D01*
X0011858Y0012989D01*
X0011735Y0013089D01*
X0011614Y0013191D01*
X0011496Y0013296D01*
X0011381Y0013405D01*
X0011268Y0013516D01*
X0011158Y0013630D01*
X0011051Y0013747D01*
X0010947Y0013866D01*
X0010846Y0013988D01*
X0010749Y0014113D01*
X0010654Y0014240D01*
X0010563Y0014369D01*
X0010474Y0014500D01*
X0010390Y0014634D01*
X0010308Y0014770D01*
X0010230Y0014907D01*
X0010156Y0015047D01*
X0010085Y0015189D01*
X0010017Y0015332D01*
X0009953Y0015477D01*
X0009893Y0015623D01*
X0009837Y0015771D01*
X0009784Y0015920D01*
X0009735Y0016071D01*
X0009690Y0016223D01*
X0009649Y0016376D01*
X0009611Y0016529D01*
X0009578Y0016684D01*
X0009548Y0016840D01*
X0009522Y0016996D01*
X0009501Y0017153D01*
X0009483Y0017310D01*
X0009469Y0017468D01*
X0009459Y0017626D01*
X0009453Y0017784D01*
X0009451Y0017942D01*
X0050796Y0082667D02*
X0050798Y0082820D01*
X0050804Y0082974D01*
X0050814Y0083127D01*
X0050828Y0083279D01*
X0050846Y0083432D01*
X0050868Y0083583D01*
X0050893Y0083734D01*
X0050923Y0083885D01*
X0050957Y0084035D01*
X0050994Y0084183D01*
X0051035Y0084331D01*
X0051080Y0084477D01*
X0051129Y0084623D01*
X0051182Y0084767D01*
X0051238Y0084909D01*
X0051298Y0085050D01*
X0051362Y0085190D01*
X0051429Y0085328D01*
X0051500Y0085464D01*
X0051575Y0085598D01*
X0051652Y0085730D01*
X0051734Y0085860D01*
X0051818Y0085988D01*
X0051906Y0086114D01*
X0051997Y0086237D01*
X0052091Y0086358D01*
X0052189Y0086476D01*
X0052289Y0086592D01*
X0052393Y0086705D01*
X0052499Y0086816D01*
X0052608Y0086924D01*
X0052720Y0087029D01*
X0052834Y0087130D01*
X0052952Y0087229D01*
X0053071Y0087325D01*
X0053193Y0087418D01*
X0053318Y0087507D01*
X0053445Y0087594D01*
X0053574Y0087676D01*
X0053705Y0087756D01*
X0053838Y0087832D01*
X0053973Y0087905D01*
X0054110Y0087974D01*
X0054249Y0088039D01*
X0054389Y0088101D01*
X0054531Y0088159D01*
X0054674Y0088214D01*
X0054819Y0088265D01*
X0054965Y0088312D01*
X0055112Y0088355D01*
X0055260Y0088394D01*
X0055409Y0088430D01*
X0055559Y0088461D01*
X0055710Y0088489D01*
X0055861Y0088513D01*
X0056014Y0088533D01*
X0056166Y0088549D01*
X0056319Y0088561D01*
X0056472Y0088569D01*
X0056625Y0088573D01*
X0056779Y0088573D01*
X0056932Y0088569D01*
X0057085Y0088561D01*
X0057238Y0088549D01*
X0057390Y0088533D01*
X0057543Y0088513D01*
X0057694Y0088489D01*
X0057845Y0088461D01*
X0057995Y0088430D01*
X0058144Y0088394D01*
X0058292Y0088355D01*
X0058439Y0088312D01*
X0058585Y0088265D01*
X0058730Y0088214D01*
X0058873Y0088159D01*
X0059015Y0088101D01*
X0059155Y0088039D01*
X0059294Y0087974D01*
X0059431Y0087905D01*
X0059566Y0087832D01*
X0059699Y0087756D01*
X0059830Y0087676D01*
X0059959Y0087594D01*
X0060086Y0087507D01*
X0060211Y0087418D01*
X0060333Y0087325D01*
X0060452Y0087229D01*
X0060570Y0087130D01*
X0060684Y0087029D01*
X0060796Y0086924D01*
X0060905Y0086816D01*
X0061011Y0086705D01*
X0061115Y0086592D01*
X0061215Y0086476D01*
X0061313Y0086358D01*
X0061407Y0086237D01*
X0061498Y0086114D01*
X0061586Y0085988D01*
X0061670Y0085860D01*
X0061752Y0085730D01*
X0061829Y0085598D01*
X0061904Y0085464D01*
X0061975Y0085328D01*
X0062042Y0085190D01*
X0062106Y0085050D01*
X0062166Y0084909D01*
X0062222Y0084767D01*
X0062275Y0084623D01*
X0062324Y0084477D01*
X0062369Y0084331D01*
X0062410Y0084183D01*
X0062447Y0084035D01*
X0062481Y0083885D01*
X0062511Y0083734D01*
X0062536Y0083583D01*
X0062558Y0083432D01*
X0062576Y0083279D01*
X0062590Y0083127D01*
X0062600Y0082974D01*
X0062606Y0082820D01*
X0062608Y0082667D01*
X0062606Y0082514D01*
X0062600Y0082360D01*
X0062590Y0082207D01*
X0062576Y0082055D01*
X0062558Y0081902D01*
X0062536Y0081751D01*
X0062511Y0081600D01*
X0062481Y0081449D01*
X0062447Y0081299D01*
X0062410Y0081151D01*
X0062369Y0081003D01*
X0062324Y0080857D01*
X0062275Y0080711D01*
X0062222Y0080567D01*
X0062166Y0080425D01*
X0062106Y0080284D01*
X0062042Y0080144D01*
X0061975Y0080006D01*
X0061904Y0079870D01*
X0061829Y0079736D01*
X0061752Y0079604D01*
X0061670Y0079474D01*
X0061586Y0079346D01*
X0061498Y0079220D01*
X0061407Y0079097D01*
X0061313Y0078976D01*
X0061215Y0078858D01*
X0061115Y0078742D01*
X0061011Y0078629D01*
X0060905Y0078518D01*
X0060796Y0078410D01*
X0060684Y0078305D01*
X0060570Y0078204D01*
X0060452Y0078105D01*
X0060333Y0078009D01*
X0060211Y0077916D01*
X0060086Y0077827D01*
X0059959Y0077740D01*
X0059830Y0077658D01*
X0059699Y0077578D01*
X0059566Y0077502D01*
X0059431Y0077429D01*
X0059294Y0077360D01*
X0059155Y0077295D01*
X0059015Y0077233D01*
X0058873Y0077175D01*
X0058730Y0077120D01*
X0058585Y0077069D01*
X0058439Y0077022D01*
X0058292Y0076979D01*
X0058144Y0076940D01*
X0057995Y0076904D01*
X0057845Y0076873D01*
X0057694Y0076845D01*
X0057543Y0076821D01*
X0057390Y0076801D01*
X0057238Y0076785D01*
X0057085Y0076773D01*
X0056932Y0076765D01*
X0056779Y0076761D01*
X0056625Y0076761D01*
X0056472Y0076765D01*
X0056319Y0076773D01*
X0056166Y0076785D01*
X0056014Y0076801D01*
X0055861Y0076821D01*
X0055710Y0076845D01*
X0055559Y0076873D01*
X0055409Y0076904D01*
X0055260Y0076940D01*
X0055112Y0076979D01*
X0054965Y0077022D01*
X0054819Y0077069D01*
X0054674Y0077120D01*
X0054531Y0077175D01*
X0054389Y0077233D01*
X0054249Y0077295D01*
X0054110Y0077360D01*
X0053973Y0077429D01*
X0053838Y0077502D01*
X0053705Y0077578D01*
X0053574Y0077658D01*
X0053445Y0077740D01*
X0053318Y0077827D01*
X0053193Y0077916D01*
X0053071Y0078009D01*
X0052952Y0078105D01*
X0052834Y0078204D01*
X0052720Y0078305D01*
X0052608Y0078410D01*
X0052499Y0078518D01*
X0052393Y0078629D01*
X0052289Y0078742D01*
X0052189Y0078858D01*
X0052091Y0078976D01*
X0051997Y0079097D01*
X0051906Y0079220D01*
X0051818Y0079346D01*
X0051734Y0079474D01*
X0051652Y0079604D01*
X0051575Y0079736D01*
X0051500Y0079870D01*
X0051429Y0080006D01*
X0051362Y0080144D01*
X0051298Y0080284D01*
X0051238Y0080425D01*
X0051182Y0080567D01*
X0051129Y0080711D01*
X0051080Y0080857D01*
X0051035Y0081003D01*
X0050994Y0081151D01*
X0050957Y0081299D01*
X0050923Y0081449D01*
X0050893Y0081600D01*
X0050868Y0081751D01*
X0050846Y0081902D01*
X0050828Y0082055D01*
X0050814Y0082207D01*
X0050804Y0082360D01*
X0050798Y0082514D01*
X0050796Y0082667D01*
X0113266Y0123588D02*
X0113268Y0123749D01*
X0113274Y0123909D01*
X0113284Y0124070D01*
X0113298Y0124230D01*
X0113316Y0124390D01*
X0113337Y0124549D01*
X0113363Y0124708D01*
X0113393Y0124866D01*
X0113426Y0125023D01*
X0113464Y0125180D01*
X0113505Y0125335D01*
X0113550Y0125489D01*
X0113599Y0125642D01*
X0113652Y0125794D01*
X0113708Y0125945D01*
X0113769Y0126094D01*
X0113832Y0126242D01*
X0113900Y0126388D01*
X0113971Y0126532D01*
X0114045Y0126674D01*
X0114123Y0126815D01*
X0114205Y0126953D01*
X0114290Y0127090D01*
X0114378Y0127224D01*
X0114470Y0127356D01*
X0114565Y0127486D01*
X0114663Y0127614D01*
X0114764Y0127739D01*
X0114868Y0127861D01*
X0114975Y0127981D01*
X0115085Y0128098D01*
X0115198Y0128213D01*
X0115314Y0128324D01*
X0115433Y0128433D01*
X0115554Y0128538D01*
X0115678Y0128641D01*
X0115804Y0128741D01*
X0115932Y0128837D01*
X0116063Y0128930D01*
X0116197Y0129020D01*
X0116332Y0129107D01*
X0116470Y0129190D01*
X0116609Y0129270D01*
X0116751Y0129346D01*
X0116894Y0129419D01*
X0117039Y0129488D01*
X0117186Y0129554D01*
X0117334Y0129616D01*
X0117484Y0129674D01*
X0117635Y0129729D01*
X0117788Y0129780D01*
X0117942Y0129827D01*
X0118097Y0129870D01*
X0118253Y0129909D01*
X0118409Y0129945D01*
X0118567Y0129976D01*
X0118725Y0130004D01*
X0118884Y0130028D01*
X0119044Y0130048D01*
X0119204Y0130064D01*
X0119364Y0130076D01*
X0119525Y0130084D01*
X0119686Y0130088D01*
X0119846Y0130088D01*
X0120007Y0130084D01*
X0120168Y0130076D01*
X0120328Y0130064D01*
X0120488Y0130048D01*
X0120648Y0130028D01*
X0120807Y0130004D01*
X0120965Y0129976D01*
X0121123Y0129945D01*
X0121279Y0129909D01*
X0121435Y0129870D01*
X0121590Y0129827D01*
X0121744Y0129780D01*
X0121897Y0129729D01*
X0122048Y0129674D01*
X0122198Y0129616D01*
X0122346Y0129554D01*
X0122493Y0129488D01*
X0122638Y0129419D01*
X0122781Y0129346D01*
X0122923Y0129270D01*
X0123062Y0129190D01*
X0123200Y0129107D01*
X0123335Y0129020D01*
X0123469Y0128930D01*
X0123600Y0128837D01*
X0123728Y0128741D01*
X0123854Y0128641D01*
X0123978Y0128538D01*
X0124099Y0128433D01*
X0124218Y0128324D01*
X0124334Y0128213D01*
X0124447Y0128098D01*
X0124557Y0127981D01*
X0124664Y0127861D01*
X0124768Y0127739D01*
X0124869Y0127614D01*
X0124967Y0127486D01*
X0125062Y0127356D01*
X0125154Y0127224D01*
X0125242Y0127090D01*
X0125327Y0126953D01*
X0125409Y0126815D01*
X0125487Y0126674D01*
X0125561Y0126532D01*
X0125632Y0126388D01*
X0125700Y0126242D01*
X0125763Y0126094D01*
X0125824Y0125945D01*
X0125880Y0125794D01*
X0125933Y0125642D01*
X0125982Y0125489D01*
X0126027Y0125335D01*
X0126068Y0125180D01*
X0126106Y0125023D01*
X0126139Y0124866D01*
X0126169Y0124708D01*
X0126195Y0124549D01*
X0126216Y0124390D01*
X0126234Y0124230D01*
X0126248Y0124070D01*
X0126258Y0123909D01*
X0126264Y0123749D01*
X0126266Y0123588D01*
X0126264Y0123427D01*
X0126258Y0123267D01*
X0126248Y0123106D01*
X0126234Y0122946D01*
X0126216Y0122786D01*
X0126195Y0122627D01*
X0126169Y0122468D01*
X0126139Y0122310D01*
X0126106Y0122153D01*
X0126068Y0121996D01*
X0126027Y0121841D01*
X0125982Y0121687D01*
X0125933Y0121534D01*
X0125880Y0121382D01*
X0125824Y0121231D01*
X0125763Y0121082D01*
X0125700Y0120934D01*
X0125632Y0120788D01*
X0125561Y0120644D01*
X0125487Y0120502D01*
X0125409Y0120361D01*
X0125327Y0120223D01*
X0125242Y0120086D01*
X0125154Y0119952D01*
X0125062Y0119820D01*
X0124967Y0119690D01*
X0124869Y0119562D01*
X0124768Y0119437D01*
X0124664Y0119315D01*
X0124557Y0119195D01*
X0124447Y0119078D01*
X0124334Y0118963D01*
X0124218Y0118852D01*
X0124099Y0118743D01*
X0123978Y0118638D01*
X0123854Y0118535D01*
X0123728Y0118435D01*
X0123600Y0118339D01*
X0123469Y0118246D01*
X0123335Y0118156D01*
X0123200Y0118069D01*
X0123062Y0117986D01*
X0122923Y0117906D01*
X0122781Y0117830D01*
X0122638Y0117757D01*
X0122493Y0117688D01*
X0122346Y0117622D01*
X0122198Y0117560D01*
X0122048Y0117502D01*
X0121897Y0117447D01*
X0121744Y0117396D01*
X0121590Y0117349D01*
X0121435Y0117306D01*
X0121279Y0117267D01*
X0121123Y0117231D01*
X0120965Y0117200D01*
X0120807Y0117172D01*
X0120648Y0117148D01*
X0120488Y0117128D01*
X0120328Y0117112D01*
X0120168Y0117100D01*
X0120007Y0117092D01*
X0119846Y0117088D01*
X0119686Y0117088D01*
X0119525Y0117092D01*
X0119364Y0117100D01*
X0119204Y0117112D01*
X0119044Y0117128D01*
X0118884Y0117148D01*
X0118725Y0117172D01*
X0118567Y0117200D01*
X0118409Y0117231D01*
X0118253Y0117267D01*
X0118097Y0117306D01*
X0117942Y0117349D01*
X0117788Y0117396D01*
X0117635Y0117447D01*
X0117484Y0117502D01*
X0117334Y0117560D01*
X0117186Y0117622D01*
X0117039Y0117688D01*
X0116894Y0117757D01*
X0116751Y0117830D01*
X0116609Y0117906D01*
X0116470Y0117986D01*
X0116332Y0118069D01*
X0116197Y0118156D01*
X0116063Y0118246D01*
X0115932Y0118339D01*
X0115804Y0118435D01*
X0115678Y0118535D01*
X0115554Y0118638D01*
X0115433Y0118743D01*
X0115314Y0118852D01*
X0115198Y0118963D01*
X0115085Y0119078D01*
X0114975Y0119195D01*
X0114868Y0119315D01*
X0114764Y0119437D01*
X0114663Y0119562D01*
X0114565Y0119690D01*
X0114470Y0119820D01*
X0114378Y0119952D01*
X0114290Y0120086D01*
X0114205Y0120223D01*
X0114123Y0120361D01*
X0114045Y0120502D01*
X0113971Y0120644D01*
X0113900Y0120788D01*
X0113832Y0120934D01*
X0113769Y0121082D01*
X0113708Y0121231D01*
X0113652Y0121382D01*
X0113599Y0121534D01*
X0113550Y0121687D01*
X0113505Y0121841D01*
X0113464Y0121996D01*
X0113426Y0122153D01*
X0113393Y0122310D01*
X0113363Y0122468D01*
X0113337Y0122627D01*
X0113316Y0122786D01*
X0113298Y0122946D01*
X0113284Y0123106D01*
X0113274Y0123267D01*
X0113268Y0123427D01*
X0113266Y0123588D01*
X0168935Y0124021D02*
X0168937Y0124182D01*
X0168943Y0124342D01*
X0168953Y0124503D01*
X0168967Y0124663D01*
X0168985Y0124823D01*
X0169006Y0124982D01*
X0169032Y0125141D01*
X0169062Y0125299D01*
X0169095Y0125456D01*
X0169133Y0125613D01*
X0169174Y0125768D01*
X0169219Y0125922D01*
X0169268Y0126075D01*
X0169321Y0126227D01*
X0169377Y0126378D01*
X0169438Y0126527D01*
X0169501Y0126675D01*
X0169569Y0126821D01*
X0169640Y0126965D01*
X0169714Y0127107D01*
X0169792Y0127248D01*
X0169874Y0127386D01*
X0169959Y0127523D01*
X0170047Y0127657D01*
X0170139Y0127789D01*
X0170234Y0127919D01*
X0170332Y0128047D01*
X0170433Y0128172D01*
X0170537Y0128294D01*
X0170644Y0128414D01*
X0170754Y0128531D01*
X0170867Y0128646D01*
X0170983Y0128757D01*
X0171102Y0128866D01*
X0171223Y0128971D01*
X0171347Y0129074D01*
X0171473Y0129174D01*
X0171601Y0129270D01*
X0171732Y0129363D01*
X0171866Y0129453D01*
X0172001Y0129540D01*
X0172139Y0129623D01*
X0172278Y0129703D01*
X0172420Y0129779D01*
X0172563Y0129852D01*
X0172708Y0129921D01*
X0172855Y0129987D01*
X0173003Y0130049D01*
X0173153Y0130107D01*
X0173304Y0130162D01*
X0173457Y0130213D01*
X0173611Y0130260D01*
X0173766Y0130303D01*
X0173922Y0130342D01*
X0174078Y0130378D01*
X0174236Y0130409D01*
X0174394Y0130437D01*
X0174553Y0130461D01*
X0174713Y0130481D01*
X0174873Y0130497D01*
X0175033Y0130509D01*
X0175194Y0130517D01*
X0175355Y0130521D01*
X0175515Y0130521D01*
X0175676Y0130517D01*
X0175837Y0130509D01*
X0175997Y0130497D01*
X0176157Y0130481D01*
X0176317Y0130461D01*
X0176476Y0130437D01*
X0176634Y0130409D01*
X0176792Y0130378D01*
X0176948Y0130342D01*
X0177104Y0130303D01*
X0177259Y0130260D01*
X0177413Y0130213D01*
X0177566Y0130162D01*
X0177717Y0130107D01*
X0177867Y0130049D01*
X0178015Y0129987D01*
X0178162Y0129921D01*
X0178307Y0129852D01*
X0178450Y0129779D01*
X0178592Y0129703D01*
X0178731Y0129623D01*
X0178869Y0129540D01*
X0179004Y0129453D01*
X0179138Y0129363D01*
X0179269Y0129270D01*
X0179397Y0129174D01*
X0179523Y0129074D01*
X0179647Y0128971D01*
X0179768Y0128866D01*
X0179887Y0128757D01*
X0180003Y0128646D01*
X0180116Y0128531D01*
X0180226Y0128414D01*
X0180333Y0128294D01*
X0180437Y0128172D01*
X0180538Y0128047D01*
X0180636Y0127919D01*
X0180731Y0127789D01*
X0180823Y0127657D01*
X0180911Y0127523D01*
X0180996Y0127386D01*
X0181078Y0127248D01*
X0181156Y0127107D01*
X0181230Y0126965D01*
X0181301Y0126821D01*
X0181369Y0126675D01*
X0181432Y0126527D01*
X0181493Y0126378D01*
X0181549Y0126227D01*
X0181602Y0126075D01*
X0181651Y0125922D01*
X0181696Y0125768D01*
X0181737Y0125613D01*
X0181775Y0125456D01*
X0181808Y0125299D01*
X0181838Y0125141D01*
X0181864Y0124982D01*
X0181885Y0124823D01*
X0181903Y0124663D01*
X0181917Y0124503D01*
X0181927Y0124342D01*
X0181933Y0124182D01*
X0181935Y0124021D01*
X0181933Y0123860D01*
X0181927Y0123700D01*
X0181917Y0123539D01*
X0181903Y0123379D01*
X0181885Y0123219D01*
X0181864Y0123060D01*
X0181838Y0122901D01*
X0181808Y0122743D01*
X0181775Y0122586D01*
X0181737Y0122429D01*
X0181696Y0122274D01*
X0181651Y0122120D01*
X0181602Y0121967D01*
X0181549Y0121815D01*
X0181493Y0121664D01*
X0181432Y0121515D01*
X0181369Y0121367D01*
X0181301Y0121221D01*
X0181230Y0121077D01*
X0181156Y0120935D01*
X0181078Y0120794D01*
X0180996Y0120656D01*
X0180911Y0120519D01*
X0180823Y0120385D01*
X0180731Y0120253D01*
X0180636Y0120123D01*
X0180538Y0119995D01*
X0180437Y0119870D01*
X0180333Y0119748D01*
X0180226Y0119628D01*
X0180116Y0119511D01*
X0180003Y0119396D01*
X0179887Y0119285D01*
X0179768Y0119176D01*
X0179647Y0119071D01*
X0179523Y0118968D01*
X0179397Y0118868D01*
X0179269Y0118772D01*
X0179138Y0118679D01*
X0179004Y0118589D01*
X0178869Y0118502D01*
X0178731Y0118419D01*
X0178592Y0118339D01*
X0178450Y0118263D01*
X0178307Y0118190D01*
X0178162Y0118121D01*
X0178015Y0118055D01*
X0177867Y0117993D01*
X0177717Y0117935D01*
X0177566Y0117880D01*
X0177413Y0117829D01*
X0177259Y0117782D01*
X0177104Y0117739D01*
X0176948Y0117700D01*
X0176792Y0117664D01*
X0176634Y0117633D01*
X0176476Y0117605D01*
X0176317Y0117581D01*
X0176157Y0117561D01*
X0175997Y0117545D01*
X0175837Y0117533D01*
X0175676Y0117525D01*
X0175515Y0117521D01*
X0175355Y0117521D01*
X0175194Y0117525D01*
X0175033Y0117533D01*
X0174873Y0117545D01*
X0174713Y0117561D01*
X0174553Y0117581D01*
X0174394Y0117605D01*
X0174236Y0117633D01*
X0174078Y0117664D01*
X0173922Y0117700D01*
X0173766Y0117739D01*
X0173611Y0117782D01*
X0173457Y0117829D01*
X0173304Y0117880D01*
X0173153Y0117935D01*
X0173003Y0117993D01*
X0172855Y0118055D01*
X0172708Y0118121D01*
X0172563Y0118190D01*
X0172420Y0118263D01*
X0172278Y0118339D01*
X0172139Y0118419D01*
X0172001Y0118502D01*
X0171866Y0118589D01*
X0171732Y0118679D01*
X0171601Y0118772D01*
X0171473Y0118868D01*
X0171347Y0118968D01*
X0171223Y0119071D01*
X0171102Y0119176D01*
X0170983Y0119285D01*
X0170867Y0119396D01*
X0170754Y0119511D01*
X0170644Y0119628D01*
X0170537Y0119748D01*
X0170433Y0119870D01*
X0170332Y0119995D01*
X0170234Y0120123D01*
X0170139Y0120253D01*
X0170047Y0120385D01*
X0169959Y0120519D01*
X0169874Y0120656D01*
X0169792Y0120794D01*
X0169714Y0120935D01*
X0169640Y0121077D01*
X0169569Y0121221D01*
X0169501Y0121367D01*
X0169438Y0121515D01*
X0169377Y0121664D01*
X0169321Y0121815D01*
X0169268Y0121967D01*
X0169219Y0122120D01*
X0169174Y0122274D01*
X0169133Y0122429D01*
X0169095Y0122586D01*
X0169062Y0122743D01*
X0169032Y0122901D01*
X0169006Y0123060D01*
X0168985Y0123219D01*
X0168967Y0123379D01*
X0168953Y0123539D01*
X0168943Y0123700D01*
X0168937Y0123860D01*
X0168935Y0124021D01*
X0227962Y0082824D02*
X0227964Y0082977D01*
X0227970Y0083131D01*
X0227980Y0083284D01*
X0227994Y0083436D01*
X0228012Y0083589D01*
X0228034Y0083740D01*
X0228059Y0083891D01*
X0228089Y0084042D01*
X0228123Y0084192D01*
X0228160Y0084340D01*
X0228201Y0084488D01*
X0228246Y0084634D01*
X0228295Y0084780D01*
X0228348Y0084924D01*
X0228404Y0085066D01*
X0228464Y0085207D01*
X0228528Y0085347D01*
X0228595Y0085485D01*
X0228666Y0085621D01*
X0228741Y0085755D01*
X0228818Y0085887D01*
X0228900Y0086017D01*
X0228984Y0086145D01*
X0229072Y0086271D01*
X0229163Y0086394D01*
X0229257Y0086515D01*
X0229355Y0086633D01*
X0229455Y0086749D01*
X0229559Y0086862D01*
X0229665Y0086973D01*
X0229774Y0087081D01*
X0229886Y0087186D01*
X0230000Y0087287D01*
X0230118Y0087386D01*
X0230237Y0087482D01*
X0230359Y0087575D01*
X0230484Y0087664D01*
X0230611Y0087751D01*
X0230740Y0087833D01*
X0230871Y0087913D01*
X0231004Y0087989D01*
X0231139Y0088062D01*
X0231276Y0088131D01*
X0231415Y0088196D01*
X0231555Y0088258D01*
X0231697Y0088316D01*
X0231840Y0088371D01*
X0231985Y0088422D01*
X0232131Y0088469D01*
X0232278Y0088512D01*
X0232426Y0088551D01*
X0232575Y0088587D01*
X0232725Y0088618D01*
X0232876Y0088646D01*
X0233027Y0088670D01*
X0233180Y0088690D01*
X0233332Y0088706D01*
X0233485Y0088718D01*
X0233638Y0088726D01*
X0233791Y0088730D01*
X0233945Y0088730D01*
X0234098Y0088726D01*
X0234251Y0088718D01*
X0234404Y0088706D01*
X0234556Y0088690D01*
X0234709Y0088670D01*
X0234860Y0088646D01*
X0235011Y0088618D01*
X0235161Y0088587D01*
X0235310Y0088551D01*
X0235458Y0088512D01*
X0235605Y0088469D01*
X0235751Y0088422D01*
X0235896Y0088371D01*
X0236039Y0088316D01*
X0236181Y0088258D01*
X0236321Y0088196D01*
X0236460Y0088131D01*
X0236597Y0088062D01*
X0236732Y0087989D01*
X0236865Y0087913D01*
X0236996Y0087833D01*
X0237125Y0087751D01*
X0237252Y0087664D01*
X0237377Y0087575D01*
X0237499Y0087482D01*
X0237618Y0087386D01*
X0237736Y0087287D01*
X0237850Y0087186D01*
X0237962Y0087081D01*
X0238071Y0086973D01*
X0238177Y0086862D01*
X0238281Y0086749D01*
X0238381Y0086633D01*
X0238479Y0086515D01*
X0238573Y0086394D01*
X0238664Y0086271D01*
X0238752Y0086145D01*
X0238836Y0086017D01*
X0238918Y0085887D01*
X0238995Y0085755D01*
X0239070Y0085621D01*
X0239141Y0085485D01*
X0239208Y0085347D01*
X0239272Y0085207D01*
X0239332Y0085066D01*
X0239388Y0084924D01*
X0239441Y0084780D01*
X0239490Y0084634D01*
X0239535Y0084488D01*
X0239576Y0084340D01*
X0239613Y0084192D01*
X0239647Y0084042D01*
X0239677Y0083891D01*
X0239702Y0083740D01*
X0239724Y0083589D01*
X0239742Y0083436D01*
X0239756Y0083284D01*
X0239766Y0083131D01*
X0239772Y0082977D01*
X0239774Y0082824D01*
X0239772Y0082671D01*
X0239766Y0082517D01*
X0239756Y0082364D01*
X0239742Y0082212D01*
X0239724Y0082059D01*
X0239702Y0081908D01*
X0239677Y0081757D01*
X0239647Y0081606D01*
X0239613Y0081456D01*
X0239576Y0081308D01*
X0239535Y0081160D01*
X0239490Y0081014D01*
X0239441Y0080868D01*
X0239388Y0080724D01*
X0239332Y0080582D01*
X0239272Y0080441D01*
X0239208Y0080301D01*
X0239141Y0080163D01*
X0239070Y0080027D01*
X0238995Y0079893D01*
X0238918Y0079761D01*
X0238836Y0079631D01*
X0238752Y0079503D01*
X0238664Y0079377D01*
X0238573Y0079254D01*
X0238479Y0079133D01*
X0238381Y0079015D01*
X0238281Y0078899D01*
X0238177Y0078786D01*
X0238071Y0078675D01*
X0237962Y0078567D01*
X0237850Y0078462D01*
X0237736Y0078361D01*
X0237618Y0078262D01*
X0237499Y0078166D01*
X0237377Y0078073D01*
X0237252Y0077984D01*
X0237125Y0077897D01*
X0236996Y0077815D01*
X0236865Y0077735D01*
X0236732Y0077659D01*
X0236597Y0077586D01*
X0236460Y0077517D01*
X0236321Y0077452D01*
X0236181Y0077390D01*
X0236039Y0077332D01*
X0235896Y0077277D01*
X0235751Y0077226D01*
X0235605Y0077179D01*
X0235458Y0077136D01*
X0235310Y0077097D01*
X0235161Y0077061D01*
X0235011Y0077030D01*
X0234860Y0077002D01*
X0234709Y0076978D01*
X0234556Y0076958D01*
X0234404Y0076942D01*
X0234251Y0076930D01*
X0234098Y0076922D01*
X0233945Y0076918D01*
X0233791Y0076918D01*
X0233638Y0076922D01*
X0233485Y0076930D01*
X0233332Y0076942D01*
X0233180Y0076958D01*
X0233027Y0076978D01*
X0232876Y0077002D01*
X0232725Y0077030D01*
X0232575Y0077061D01*
X0232426Y0077097D01*
X0232278Y0077136D01*
X0232131Y0077179D01*
X0231985Y0077226D01*
X0231840Y0077277D01*
X0231697Y0077332D01*
X0231555Y0077390D01*
X0231415Y0077452D01*
X0231276Y0077517D01*
X0231139Y0077586D01*
X0231004Y0077659D01*
X0230871Y0077735D01*
X0230740Y0077815D01*
X0230611Y0077897D01*
X0230484Y0077984D01*
X0230359Y0078073D01*
X0230237Y0078166D01*
X0230118Y0078262D01*
X0230000Y0078361D01*
X0229886Y0078462D01*
X0229774Y0078567D01*
X0229665Y0078675D01*
X0229559Y0078786D01*
X0229455Y0078899D01*
X0229355Y0079015D01*
X0229257Y0079133D01*
X0229163Y0079254D01*
X0229072Y0079377D01*
X0228984Y0079503D01*
X0228900Y0079631D01*
X0228818Y0079761D01*
X0228741Y0079893D01*
X0228666Y0080027D01*
X0228595Y0080163D01*
X0228528Y0080301D01*
X0228464Y0080441D01*
X0228404Y0080582D01*
X0228348Y0080724D01*
X0228295Y0080868D01*
X0228246Y0081014D01*
X0228201Y0081160D01*
X0228160Y0081308D01*
X0228123Y0081456D01*
X0228089Y0081606D01*
X0228059Y0081757D01*
X0228034Y0081908D01*
X0228012Y0082059D01*
X0227994Y0082212D01*
X0227980Y0082364D01*
X0227970Y0082517D01*
X0227964Y0082671D01*
X0227962Y0082824D01*
X0167796Y0022667D02*
X0167798Y0022820D01*
X0167804Y0022974D01*
X0167814Y0023127D01*
X0167828Y0023279D01*
X0167846Y0023432D01*
X0167868Y0023583D01*
X0167893Y0023734D01*
X0167923Y0023885D01*
X0167957Y0024035D01*
X0167994Y0024183D01*
X0168035Y0024331D01*
X0168080Y0024477D01*
X0168129Y0024623D01*
X0168182Y0024767D01*
X0168238Y0024909D01*
X0168298Y0025050D01*
X0168362Y0025190D01*
X0168429Y0025328D01*
X0168500Y0025464D01*
X0168575Y0025598D01*
X0168652Y0025730D01*
X0168734Y0025860D01*
X0168818Y0025988D01*
X0168906Y0026114D01*
X0168997Y0026237D01*
X0169091Y0026358D01*
X0169189Y0026476D01*
X0169289Y0026592D01*
X0169393Y0026705D01*
X0169499Y0026816D01*
X0169608Y0026924D01*
X0169720Y0027029D01*
X0169834Y0027130D01*
X0169952Y0027229D01*
X0170071Y0027325D01*
X0170193Y0027418D01*
X0170318Y0027507D01*
X0170445Y0027594D01*
X0170574Y0027676D01*
X0170705Y0027756D01*
X0170838Y0027832D01*
X0170973Y0027905D01*
X0171110Y0027974D01*
X0171249Y0028039D01*
X0171389Y0028101D01*
X0171531Y0028159D01*
X0171674Y0028214D01*
X0171819Y0028265D01*
X0171965Y0028312D01*
X0172112Y0028355D01*
X0172260Y0028394D01*
X0172409Y0028430D01*
X0172559Y0028461D01*
X0172710Y0028489D01*
X0172861Y0028513D01*
X0173014Y0028533D01*
X0173166Y0028549D01*
X0173319Y0028561D01*
X0173472Y0028569D01*
X0173625Y0028573D01*
X0173779Y0028573D01*
X0173932Y0028569D01*
X0174085Y0028561D01*
X0174238Y0028549D01*
X0174390Y0028533D01*
X0174543Y0028513D01*
X0174694Y0028489D01*
X0174845Y0028461D01*
X0174995Y0028430D01*
X0175144Y0028394D01*
X0175292Y0028355D01*
X0175439Y0028312D01*
X0175585Y0028265D01*
X0175730Y0028214D01*
X0175873Y0028159D01*
X0176015Y0028101D01*
X0176155Y0028039D01*
X0176294Y0027974D01*
X0176431Y0027905D01*
X0176566Y0027832D01*
X0176699Y0027756D01*
X0176830Y0027676D01*
X0176959Y0027594D01*
X0177086Y0027507D01*
X0177211Y0027418D01*
X0177333Y0027325D01*
X0177452Y0027229D01*
X0177570Y0027130D01*
X0177684Y0027029D01*
X0177796Y0026924D01*
X0177905Y0026816D01*
X0178011Y0026705D01*
X0178115Y0026592D01*
X0178215Y0026476D01*
X0178313Y0026358D01*
X0178407Y0026237D01*
X0178498Y0026114D01*
X0178586Y0025988D01*
X0178670Y0025860D01*
X0178752Y0025730D01*
X0178829Y0025598D01*
X0178904Y0025464D01*
X0178975Y0025328D01*
X0179042Y0025190D01*
X0179106Y0025050D01*
X0179166Y0024909D01*
X0179222Y0024767D01*
X0179275Y0024623D01*
X0179324Y0024477D01*
X0179369Y0024331D01*
X0179410Y0024183D01*
X0179447Y0024035D01*
X0179481Y0023885D01*
X0179511Y0023734D01*
X0179536Y0023583D01*
X0179558Y0023432D01*
X0179576Y0023279D01*
X0179590Y0023127D01*
X0179600Y0022974D01*
X0179606Y0022820D01*
X0179608Y0022667D01*
X0179606Y0022514D01*
X0179600Y0022360D01*
X0179590Y0022207D01*
X0179576Y0022055D01*
X0179558Y0021902D01*
X0179536Y0021751D01*
X0179511Y0021600D01*
X0179481Y0021449D01*
X0179447Y0021299D01*
X0179410Y0021151D01*
X0179369Y0021003D01*
X0179324Y0020857D01*
X0179275Y0020711D01*
X0179222Y0020567D01*
X0179166Y0020425D01*
X0179106Y0020284D01*
X0179042Y0020144D01*
X0178975Y0020006D01*
X0178904Y0019870D01*
X0178829Y0019736D01*
X0178752Y0019604D01*
X0178670Y0019474D01*
X0178586Y0019346D01*
X0178498Y0019220D01*
X0178407Y0019097D01*
X0178313Y0018976D01*
X0178215Y0018858D01*
X0178115Y0018742D01*
X0178011Y0018629D01*
X0177905Y0018518D01*
X0177796Y0018410D01*
X0177684Y0018305D01*
X0177570Y0018204D01*
X0177452Y0018105D01*
X0177333Y0018009D01*
X0177211Y0017916D01*
X0177086Y0017827D01*
X0176959Y0017740D01*
X0176830Y0017658D01*
X0176699Y0017578D01*
X0176566Y0017502D01*
X0176431Y0017429D01*
X0176294Y0017360D01*
X0176155Y0017295D01*
X0176015Y0017233D01*
X0175873Y0017175D01*
X0175730Y0017120D01*
X0175585Y0017069D01*
X0175439Y0017022D01*
X0175292Y0016979D01*
X0175144Y0016940D01*
X0174995Y0016904D01*
X0174845Y0016873D01*
X0174694Y0016845D01*
X0174543Y0016821D01*
X0174390Y0016801D01*
X0174238Y0016785D01*
X0174085Y0016773D01*
X0173932Y0016765D01*
X0173779Y0016761D01*
X0173625Y0016761D01*
X0173472Y0016765D01*
X0173319Y0016773D01*
X0173166Y0016785D01*
X0173014Y0016801D01*
X0172861Y0016821D01*
X0172710Y0016845D01*
X0172559Y0016873D01*
X0172409Y0016904D01*
X0172260Y0016940D01*
X0172112Y0016979D01*
X0171965Y0017022D01*
X0171819Y0017069D01*
X0171674Y0017120D01*
X0171531Y0017175D01*
X0171389Y0017233D01*
X0171249Y0017295D01*
X0171110Y0017360D01*
X0170973Y0017429D01*
X0170838Y0017502D01*
X0170705Y0017578D01*
X0170574Y0017658D01*
X0170445Y0017740D01*
X0170318Y0017827D01*
X0170193Y0017916D01*
X0170071Y0018009D01*
X0169952Y0018105D01*
X0169834Y0018204D01*
X0169720Y0018305D01*
X0169608Y0018410D01*
X0169499Y0018518D01*
X0169393Y0018629D01*
X0169289Y0018742D01*
X0169189Y0018858D01*
X0169091Y0018976D01*
X0168997Y0019097D01*
X0168906Y0019220D01*
X0168818Y0019346D01*
X0168734Y0019474D01*
X0168652Y0019604D01*
X0168575Y0019736D01*
X0168500Y0019870D01*
X0168429Y0020006D01*
X0168362Y0020144D01*
X0168298Y0020284D01*
X0168238Y0020425D01*
X0168182Y0020567D01*
X0168129Y0020711D01*
X0168080Y0020857D01*
X0168035Y0021003D01*
X0167994Y0021151D01*
X0167957Y0021299D01*
X0167923Y0021449D01*
X0167893Y0021600D01*
X0167868Y0021751D01*
X0167846Y0021902D01*
X0167828Y0022055D01*
X0167814Y0022207D01*
X0167804Y0022360D01*
X0167798Y0022514D01*
X0167796Y0022667D01*
X0344962Y0022824D02*
X0344964Y0022977D01*
X0344970Y0023131D01*
X0344980Y0023284D01*
X0344994Y0023436D01*
X0345012Y0023589D01*
X0345034Y0023740D01*
X0345059Y0023891D01*
X0345089Y0024042D01*
X0345123Y0024192D01*
X0345160Y0024340D01*
X0345201Y0024488D01*
X0345246Y0024634D01*
X0345295Y0024780D01*
X0345348Y0024924D01*
X0345404Y0025066D01*
X0345464Y0025207D01*
X0345528Y0025347D01*
X0345595Y0025485D01*
X0345666Y0025621D01*
X0345741Y0025755D01*
X0345818Y0025887D01*
X0345900Y0026017D01*
X0345984Y0026145D01*
X0346072Y0026271D01*
X0346163Y0026394D01*
X0346257Y0026515D01*
X0346355Y0026633D01*
X0346455Y0026749D01*
X0346559Y0026862D01*
X0346665Y0026973D01*
X0346774Y0027081D01*
X0346886Y0027186D01*
X0347000Y0027287D01*
X0347118Y0027386D01*
X0347237Y0027482D01*
X0347359Y0027575D01*
X0347484Y0027664D01*
X0347611Y0027751D01*
X0347740Y0027833D01*
X0347871Y0027913D01*
X0348004Y0027989D01*
X0348139Y0028062D01*
X0348276Y0028131D01*
X0348415Y0028196D01*
X0348555Y0028258D01*
X0348697Y0028316D01*
X0348840Y0028371D01*
X0348985Y0028422D01*
X0349131Y0028469D01*
X0349278Y0028512D01*
X0349426Y0028551D01*
X0349575Y0028587D01*
X0349725Y0028618D01*
X0349876Y0028646D01*
X0350027Y0028670D01*
X0350180Y0028690D01*
X0350332Y0028706D01*
X0350485Y0028718D01*
X0350638Y0028726D01*
X0350791Y0028730D01*
X0350945Y0028730D01*
X0351098Y0028726D01*
X0351251Y0028718D01*
X0351404Y0028706D01*
X0351556Y0028690D01*
X0351709Y0028670D01*
X0351860Y0028646D01*
X0352011Y0028618D01*
X0352161Y0028587D01*
X0352310Y0028551D01*
X0352458Y0028512D01*
X0352605Y0028469D01*
X0352751Y0028422D01*
X0352896Y0028371D01*
X0353039Y0028316D01*
X0353181Y0028258D01*
X0353321Y0028196D01*
X0353460Y0028131D01*
X0353597Y0028062D01*
X0353732Y0027989D01*
X0353865Y0027913D01*
X0353996Y0027833D01*
X0354125Y0027751D01*
X0354252Y0027664D01*
X0354377Y0027575D01*
X0354499Y0027482D01*
X0354618Y0027386D01*
X0354736Y0027287D01*
X0354850Y0027186D01*
X0354962Y0027081D01*
X0355071Y0026973D01*
X0355177Y0026862D01*
X0355281Y0026749D01*
X0355381Y0026633D01*
X0355479Y0026515D01*
X0355573Y0026394D01*
X0355664Y0026271D01*
X0355752Y0026145D01*
X0355836Y0026017D01*
X0355918Y0025887D01*
X0355995Y0025755D01*
X0356070Y0025621D01*
X0356141Y0025485D01*
X0356208Y0025347D01*
X0356272Y0025207D01*
X0356332Y0025066D01*
X0356388Y0024924D01*
X0356441Y0024780D01*
X0356490Y0024634D01*
X0356535Y0024488D01*
X0356576Y0024340D01*
X0356613Y0024192D01*
X0356647Y0024042D01*
X0356677Y0023891D01*
X0356702Y0023740D01*
X0356724Y0023589D01*
X0356742Y0023436D01*
X0356756Y0023284D01*
X0356766Y0023131D01*
X0356772Y0022977D01*
X0356774Y0022824D01*
X0356772Y0022671D01*
X0356766Y0022517D01*
X0356756Y0022364D01*
X0356742Y0022212D01*
X0356724Y0022059D01*
X0356702Y0021908D01*
X0356677Y0021757D01*
X0356647Y0021606D01*
X0356613Y0021456D01*
X0356576Y0021308D01*
X0356535Y0021160D01*
X0356490Y0021014D01*
X0356441Y0020868D01*
X0356388Y0020724D01*
X0356332Y0020582D01*
X0356272Y0020441D01*
X0356208Y0020301D01*
X0356141Y0020163D01*
X0356070Y0020027D01*
X0355995Y0019893D01*
X0355918Y0019761D01*
X0355836Y0019631D01*
X0355752Y0019503D01*
X0355664Y0019377D01*
X0355573Y0019254D01*
X0355479Y0019133D01*
X0355381Y0019015D01*
X0355281Y0018899D01*
X0355177Y0018786D01*
X0355071Y0018675D01*
X0354962Y0018567D01*
X0354850Y0018462D01*
X0354736Y0018361D01*
X0354618Y0018262D01*
X0354499Y0018166D01*
X0354377Y0018073D01*
X0354252Y0017984D01*
X0354125Y0017897D01*
X0353996Y0017815D01*
X0353865Y0017735D01*
X0353732Y0017659D01*
X0353597Y0017586D01*
X0353460Y0017517D01*
X0353321Y0017452D01*
X0353181Y0017390D01*
X0353039Y0017332D01*
X0352896Y0017277D01*
X0352751Y0017226D01*
X0352605Y0017179D01*
X0352458Y0017136D01*
X0352310Y0017097D01*
X0352161Y0017061D01*
X0352011Y0017030D01*
X0351860Y0017002D01*
X0351709Y0016978D01*
X0351556Y0016958D01*
X0351404Y0016942D01*
X0351251Y0016930D01*
X0351098Y0016922D01*
X0350945Y0016918D01*
X0350791Y0016918D01*
X0350638Y0016922D01*
X0350485Y0016930D01*
X0350332Y0016942D01*
X0350180Y0016958D01*
X0350027Y0016978D01*
X0349876Y0017002D01*
X0349725Y0017030D01*
X0349575Y0017061D01*
X0349426Y0017097D01*
X0349278Y0017136D01*
X0349131Y0017179D01*
X0348985Y0017226D01*
X0348840Y0017277D01*
X0348697Y0017332D01*
X0348555Y0017390D01*
X0348415Y0017452D01*
X0348276Y0017517D01*
X0348139Y0017586D01*
X0348004Y0017659D01*
X0347871Y0017735D01*
X0347740Y0017815D01*
X0347611Y0017897D01*
X0347484Y0017984D01*
X0347359Y0018073D01*
X0347237Y0018166D01*
X0347118Y0018262D01*
X0347000Y0018361D01*
X0346886Y0018462D01*
X0346774Y0018567D01*
X0346665Y0018675D01*
X0346559Y0018786D01*
X0346455Y0018899D01*
X0346355Y0019015D01*
X0346257Y0019133D01*
X0346163Y0019254D01*
X0346072Y0019377D01*
X0345984Y0019503D01*
X0345900Y0019631D01*
X0345818Y0019761D01*
X0345741Y0019893D01*
X0345666Y0020027D01*
X0345595Y0020163D01*
X0345528Y0020301D01*
X0345464Y0020441D01*
X0345404Y0020582D01*
X0345348Y0020724D01*
X0345295Y0020868D01*
X0345246Y0021014D01*
X0345201Y0021160D01*
X0345160Y0021308D01*
X0345123Y0021456D01*
X0345089Y0021606D01*
X0345059Y0021757D01*
X0345034Y0021908D01*
X0345012Y0022059D01*
X0344994Y0022212D01*
X0344980Y0022364D01*
X0344970Y0022517D01*
X0344964Y0022671D01*
X0344962Y0022824D01*
X0383466Y0017942D02*
X0383468Y0018100D01*
X0383474Y0018258D01*
X0383484Y0018416D01*
X0383498Y0018574D01*
X0383516Y0018731D01*
X0383537Y0018888D01*
X0383563Y0019044D01*
X0383593Y0019200D01*
X0383626Y0019355D01*
X0383664Y0019508D01*
X0383705Y0019661D01*
X0383750Y0019813D01*
X0383799Y0019964D01*
X0383852Y0020113D01*
X0383908Y0020261D01*
X0383968Y0020407D01*
X0384032Y0020552D01*
X0384100Y0020695D01*
X0384171Y0020837D01*
X0384245Y0020977D01*
X0384323Y0021114D01*
X0384405Y0021250D01*
X0384489Y0021384D01*
X0384578Y0021515D01*
X0384669Y0021644D01*
X0384764Y0021771D01*
X0384861Y0021896D01*
X0384962Y0022018D01*
X0385066Y0022137D01*
X0385173Y0022254D01*
X0385283Y0022368D01*
X0385396Y0022479D01*
X0385511Y0022588D01*
X0385629Y0022693D01*
X0385750Y0022795D01*
X0385873Y0022895D01*
X0385999Y0022991D01*
X0386127Y0023084D01*
X0386257Y0023174D01*
X0386390Y0023260D01*
X0386525Y0023344D01*
X0386661Y0023423D01*
X0386800Y0023500D01*
X0386941Y0023572D01*
X0387083Y0023642D01*
X0387227Y0023707D01*
X0387373Y0023769D01*
X0387520Y0023827D01*
X0387669Y0023882D01*
X0387819Y0023933D01*
X0387970Y0023980D01*
X0388122Y0024023D01*
X0388275Y0024062D01*
X0388430Y0024098D01*
X0388585Y0024129D01*
X0388741Y0024157D01*
X0388897Y0024181D01*
X0389054Y0024201D01*
X0389212Y0024217D01*
X0389369Y0024229D01*
X0389528Y0024237D01*
X0389686Y0024241D01*
X0389844Y0024241D01*
X0390002Y0024237D01*
X0390161Y0024229D01*
X0390318Y0024217D01*
X0390476Y0024201D01*
X0390633Y0024181D01*
X0390789Y0024157D01*
X0390945Y0024129D01*
X0391100Y0024098D01*
X0391255Y0024062D01*
X0391408Y0024023D01*
X0391560Y0023980D01*
X0391711Y0023933D01*
X0391861Y0023882D01*
X0392010Y0023827D01*
X0392157Y0023769D01*
X0392303Y0023707D01*
X0392447Y0023642D01*
X0392589Y0023572D01*
X0392730Y0023500D01*
X0392869Y0023423D01*
X0393005Y0023344D01*
X0393140Y0023260D01*
X0393273Y0023174D01*
X0393403Y0023084D01*
X0393531Y0022991D01*
X0393657Y0022895D01*
X0393780Y0022795D01*
X0393901Y0022693D01*
X0394019Y0022588D01*
X0394134Y0022479D01*
X0394247Y0022368D01*
X0394357Y0022254D01*
X0394464Y0022137D01*
X0394568Y0022018D01*
X0394669Y0021896D01*
X0394766Y0021771D01*
X0394861Y0021644D01*
X0394952Y0021515D01*
X0395041Y0021384D01*
X0395125Y0021250D01*
X0395207Y0021114D01*
X0395285Y0020977D01*
X0395359Y0020837D01*
X0395430Y0020695D01*
X0395498Y0020552D01*
X0395562Y0020407D01*
X0395622Y0020261D01*
X0395678Y0020113D01*
X0395731Y0019964D01*
X0395780Y0019813D01*
X0395825Y0019661D01*
X0395866Y0019508D01*
X0395904Y0019355D01*
X0395937Y0019200D01*
X0395967Y0019044D01*
X0395993Y0018888D01*
X0396014Y0018731D01*
X0396032Y0018574D01*
X0396046Y0018416D01*
X0396056Y0018258D01*
X0396062Y0018100D01*
X0396064Y0017942D01*
X0396062Y0017784D01*
X0396056Y0017626D01*
X0396046Y0017468D01*
X0396032Y0017310D01*
X0396014Y0017153D01*
X0395993Y0016996D01*
X0395967Y0016840D01*
X0395937Y0016684D01*
X0395904Y0016529D01*
X0395866Y0016376D01*
X0395825Y0016223D01*
X0395780Y0016071D01*
X0395731Y0015920D01*
X0395678Y0015771D01*
X0395622Y0015623D01*
X0395562Y0015477D01*
X0395498Y0015332D01*
X0395430Y0015189D01*
X0395359Y0015047D01*
X0395285Y0014907D01*
X0395207Y0014770D01*
X0395125Y0014634D01*
X0395041Y0014500D01*
X0394952Y0014369D01*
X0394861Y0014240D01*
X0394766Y0014113D01*
X0394669Y0013988D01*
X0394568Y0013866D01*
X0394464Y0013747D01*
X0394357Y0013630D01*
X0394247Y0013516D01*
X0394134Y0013405D01*
X0394019Y0013296D01*
X0393901Y0013191D01*
X0393780Y0013089D01*
X0393657Y0012989D01*
X0393531Y0012893D01*
X0393403Y0012800D01*
X0393273Y0012710D01*
X0393140Y0012624D01*
X0393005Y0012540D01*
X0392869Y0012461D01*
X0392730Y0012384D01*
X0392589Y0012312D01*
X0392447Y0012242D01*
X0392303Y0012177D01*
X0392157Y0012115D01*
X0392010Y0012057D01*
X0391861Y0012002D01*
X0391711Y0011951D01*
X0391560Y0011904D01*
X0391408Y0011861D01*
X0391255Y0011822D01*
X0391100Y0011786D01*
X0390945Y0011755D01*
X0390789Y0011727D01*
X0390633Y0011703D01*
X0390476Y0011683D01*
X0390318Y0011667D01*
X0390161Y0011655D01*
X0390002Y0011647D01*
X0389844Y0011643D01*
X0389686Y0011643D01*
X0389528Y0011647D01*
X0389369Y0011655D01*
X0389212Y0011667D01*
X0389054Y0011683D01*
X0388897Y0011703D01*
X0388741Y0011727D01*
X0388585Y0011755D01*
X0388430Y0011786D01*
X0388275Y0011822D01*
X0388122Y0011861D01*
X0387970Y0011904D01*
X0387819Y0011951D01*
X0387669Y0012002D01*
X0387520Y0012057D01*
X0387373Y0012115D01*
X0387227Y0012177D01*
X0387083Y0012242D01*
X0386941Y0012312D01*
X0386800Y0012384D01*
X0386661Y0012461D01*
X0386525Y0012540D01*
X0386390Y0012624D01*
X0386257Y0012710D01*
X0386127Y0012800D01*
X0385999Y0012893D01*
X0385873Y0012989D01*
X0385750Y0013089D01*
X0385629Y0013191D01*
X0385511Y0013296D01*
X0385396Y0013405D01*
X0385283Y0013516D01*
X0385173Y0013630D01*
X0385066Y0013747D01*
X0384962Y0013866D01*
X0384861Y0013988D01*
X0384764Y0014113D01*
X0384669Y0014240D01*
X0384578Y0014369D01*
X0384489Y0014500D01*
X0384405Y0014634D01*
X0384323Y0014770D01*
X0384245Y0014907D01*
X0384171Y0015047D01*
X0384100Y0015189D01*
X0384032Y0015332D01*
X0383968Y0015477D01*
X0383908Y0015623D01*
X0383852Y0015771D01*
X0383799Y0015920D01*
X0383750Y0016071D01*
X0383705Y0016223D01*
X0383664Y0016376D01*
X0383626Y0016529D01*
X0383593Y0016684D01*
X0383563Y0016840D01*
X0383537Y0016996D01*
X0383516Y0017153D01*
X0383498Y0017310D01*
X0383484Y0017468D01*
X0383474Y0017626D01*
X0383468Y0017784D01*
X0383466Y0017942D01*
X0383466Y0269911D02*
X0383468Y0270069D01*
X0383474Y0270227D01*
X0383484Y0270385D01*
X0383498Y0270543D01*
X0383516Y0270700D01*
X0383537Y0270857D01*
X0383563Y0271013D01*
X0383593Y0271169D01*
X0383626Y0271324D01*
X0383664Y0271477D01*
X0383705Y0271630D01*
X0383750Y0271782D01*
X0383799Y0271933D01*
X0383852Y0272082D01*
X0383908Y0272230D01*
X0383968Y0272376D01*
X0384032Y0272521D01*
X0384100Y0272664D01*
X0384171Y0272806D01*
X0384245Y0272946D01*
X0384323Y0273083D01*
X0384405Y0273219D01*
X0384489Y0273353D01*
X0384578Y0273484D01*
X0384669Y0273613D01*
X0384764Y0273740D01*
X0384861Y0273865D01*
X0384962Y0273987D01*
X0385066Y0274106D01*
X0385173Y0274223D01*
X0385283Y0274337D01*
X0385396Y0274448D01*
X0385511Y0274557D01*
X0385629Y0274662D01*
X0385750Y0274764D01*
X0385873Y0274864D01*
X0385999Y0274960D01*
X0386127Y0275053D01*
X0386257Y0275143D01*
X0386390Y0275229D01*
X0386525Y0275313D01*
X0386661Y0275392D01*
X0386800Y0275469D01*
X0386941Y0275541D01*
X0387083Y0275611D01*
X0387227Y0275676D01*
X0387373Y0275738D01*
X0387520Y0275796D01*
X0387669Y0275851D01*
X0387819Y0275902D01*
X0387970Y0275949D01*
X0388122Y0275992D01*
X0388275Y0276031D01*
X0388430Y0276067D01*
X0388585Y0276098D01*
X0388741Y0276126D01*
X0388897Y0276150D01*
X0389054Y0276170D01*
X0389212Y0276186D01*
X0389369Y0276198D01*
X0389528Y0276206D01*
X0389686Y0276210D01*
X0389844Y0276210D01*
X0390002Y0276206D01*
X0390161Y0276198D01*
X0390318Y0276186D01*
X0390476Y0276170D01*
X0390633Y0276150D01*
X0390789Y0276126D01*
X0390945Y0276098D01*
X0391100Y0276067D01*
X0391255Y0276031D01*
X0391408Y0275992D01*
X0391560Y0275949D01*
X0391711Y0275902D01*
X0391861Y0275851D01*
X0392010Y0275796D01*
X0392157Y0275738D01*
X0392303Y0275676D01*
X0392447Y0275611D01*
X0392589Y0275541D01*
X0392730Y0275469D01*
X0392869Y0275392D01*
X0393005Y0275313D01*
X0393140Y0275229D01*
X0393273Y0275143D01*
X0393403Y0275053D01*
X0393531Y0274960D01*
X0393657Y0274864D01*
X0393780Y0274764D01*
X0393901Y0274662D01*
X0394019Y0274557D01*
X0394134Y0274448D01*
X0394247Y0274337D01*
X0394357Y0274223D01*
X0394464Y0274106D01*
X0394568Y0273987D01*
X0394669Y0273865D01*
X0394766Y0273740D01*
X0394861Y0273613D01*
X0394952Y0273484D01*
X0395041Y0273353D01*
X0395125Y0273219D01*
X0395207Y0273083D01*
X0395285Y0272946D01*
X0395359Y0272806D01*
X0395430Y0272664D01*
X0395498Y0272521D01*
X0395562Y0272376D01*
X0395622Y0272230D01*
X0395678Y0272082D01*
X0395731Y0271933D01*
X0395780Y0271782D01*
X0395825Y0271630D01*
X0395866Y0271477D01*
X0395904Y0271324D01*
X0395937Y0271169D01*
X0395967Y0271013D01*
X0395993Y0270857D01*
X0396014Y0270700D01*
X0396032Y0270543D01*
X0396046Y0270385D01*
X0396056Y0270227D01*
X0396062Y0270069D01*
X0396064Y0269911D01*
X0396062Y0269753D01*
X0396056Y0269595D01*
X0396046Y0269437D01*
X0396032Y0269279D01*
X0396014Y0269122D01*
X0395993Y0268965D01*
X0395967Y0268809D01*
X0395937Y0268653D01*
X0395904Y0268498D01*
X0395866Y0268345D01*
X0395825Y0268192D01*
X0395780Y0268040D01*
X0395731Y0267889D01*
X0395678Y0267740D01*
X0395622Y0267592D01*
X0395562Y0267446D01*
X0395498Y0267301D01*
X0395430Y0267158D01*
X0395359Y0267016D01*
X0395285Y0266876D01*
X0395207Y0266739D01*
X0395125Y0266603D01*
X0395041Y0266469D01*
X0394952Y0266338D01*
X0394861Y0266209D01*
X0394766Y0266082D01*
X0394669Y0265957D01*
X0394568Y0265835D01*
X0394464Y0265716D01*
X0394357Y0265599D01*
X0394247Y0265485D01*
X0394134Y0265374D01*
X0394019Y0265265D01*
X0393901Y0265160D01*
X0393780Y0265058D01*
X0393657Y0264958D01*
X0393531Y0264862D01*
X0393403Y0264769D01*
X0393273Y0264679D01*
X0393140Y0264593D01*
X0393005Y0264509D01*
X0392869Y0264430D01*
X0392730Y0264353D01*
X0392589Y0264281D01*
X0392447Y0264211D01*
X0392303Y0264146D01*
X0392157Y0264084D01*
X0392010Y0264026D01*
X0391861Y0263971D01*
X0391711Y0263920D01*
X0391560Y0263873D01*
X0391408Y0263830D01*
X0391255Y0263791D01*
X0391100Y0263755D01*
X0390945Y0263724D01*
X0390789Y0263696D01*
X0390633Y0263672D01*
X0390476Y0263652D01*
X0390318Y0263636D01*
X0390161Y0263624D01*
X0390002Y0263616D01*
X0389844Y0263612D01*
X0389686Y0263612D01*
X0389528Y0263616D01*
X0389369Y0263624D01*
X0389212Y0263636D01*
X0389054Y0263652D01*
X0388897Y0263672D01*
X0388741Y0263696D01*
X0388585Y0263724D01*
X0388430Y0263755D01*
X0388275Y0263791D01*
X0388122Y0263830D01*
X0387970Y0263873D01*
X0387819Y0263920D01*
X0387669Y0263971D01*
X0387520Y0264026D01*
X0387373Y0264084D01*
X0387227Y0264146D01*
X0387083Y0264211D01*
X0386941Y0264281D01*
X0386800Y0264353D01*
X0386661Y0264430D01*
X0386525Y0264509D01*
X0386390Y0264593D01*
X0386257Y0264679D01*
X0386127Y0264769D01*
X0385999Y0264862D01*
X0385873Y0264958D01*
X0385750Y0265058D01*
X0385629Y0265160D01*
X0385511Y0265265D01*
X0385396Y0265374D01*
X0385283Y0265485D01*
X0385173Y0265599D01*
X0385066Y0265716D01*
X0384962Y0265835D01*
X0384861Y0265957D01*
X0384764Y0266082D01*
X0384669Y0266209D01*
X0384578Y0266338D01*
X0384489Y0266469D01*
X0384405Y0266603D01*
X0384323Y0266739D01*
X0384245Y0266876D01*
X0384171Y0267016D01*
X0384100Y0267158D01*
X0384032Y0267301D01*
X0383968Y0267446D01*
X0383908Y0267592D01*
X0383852Y0267740D01*
X0383799Y0267889D01*
X0383750Y0268040D01*
X0383705Y0268192D01*
X0383664Y0268345D01*
X0383626Y0268498D01*
X0383593Y0268653D01*
X0383563Y0268809D01*
X0383537Y0268965D01*
X0383516Y0269122D01*
X0383498Y0269279D01*
X0383484Y0269437D01*
X0383474Y0269595D01*
X0383468Y0269753D01*
X0383466Y0269911D01*
X0009451Y0269911D02*
X0009453Y0270069D01*
X0009459Y0270227D01*
X0009469Y0270385D01*
X0009483Y0270543D01*
X0009501Y0270700D01*
X0009522Y0270857D01*
X0009548Y0271013D01*
X0009578Y0271169D01*
X0009611Y0271324D01*
X0009649Y0271477D01*
X0009690Y0271630D01*
X0009735Y0271782D01*
X0009784Y0271933D01*
X0009837Y0272082D01*
X0009893Y0272230D01*
X0009953Y0272376D01*
X0010017Y0272521D01*
X0010085Y0272664D01*
X0010156Y0272806D01*
X0010230Y0272946D01*
X0010308Y0273083D01*
X0010390Y0273219D01*
X0010474Y0273353D01*
X0010563Y0273484D01*
X0010654Y0273613D01*
X0010749Y0273740D01*
X0010846Y0273865D01*
X0010947Y0273987D01*
X0011051Y0274106D01*
X0011158Y0274223D01*
X0011268Y0274337D01*
X0011381Y0274448D01*
X0011496Y0274557D01*
X0011614Y0274662D01*
X0011735Y0274764D01*
X0011858Y0274864D01*
X0011984Y0274960D01*
X0012112Y0275053D01*
X0012242Y0275143D01*
X0012375Y0275229D01*
X0012510Y0275313D01*
X0012646Y0275392D01*
X0012785Y0275469D01*
X0012926Y0275541D01*
X0013068Y0275611D01*
X0013212Y0275676D01*
X0013358Y0275738D01*
X0013505Y0275796D01*
X0013654Y0275851D01*
X0013804Y0275902D01*
X0013955Y0275949D01*
X0014107Y0275992D01*
X0014260Y0276031D01*
X0014415Y0276067D01*
X0014570Y0276098D01*
X0014726Y0276126D01*
X0014882Y0276150D01*
X0015039Y0276170D01*
X0015197Y0276186D01*
X0015354Y0276198D01*
X0015513Y0276206D01*
X0015671Y0276210D01*
X0015829Y0276210D01*
X0015987Y0276206D01*
X0016146Y0276198D01*
X0016303Y0276186D01*
X0016461Y0276170D01*
X0016618Y0276150D01*
X0016774Y0276126D01*
X0016930Y0276098D01*
X0017085Y0276067D01*
X0017240Y0276031D01*
X0017393Y0275992D01*
X0017545Y0275949D01*
X0017696Y0275902D01*
X0017846Y0275851D01*
X0017995Y0275796D01*
X0018142Y0275738D01*
X0018288Y0275676D01*
X0018432Y0275611D01*
X0018574Y0275541D01*
X0018715Y0275469D01*
X0018854Y0275392D01*
X0018990Y0275313D01*
X0019125Y0275229D01*
X0019258Y0275143D01*
X0019388Y0275053D01*
X0019516Y0274960D01*
X0019642Y0274864D01*
X0019765Y0274764D01*
X0019886Y0274662D01*
X0020004Y0274557D01*
X0020119Y0274448D01*
X0020232Y0274337D01*
X0020342Y0274223D01*
X0020449Y0274106D01*
X0020553Y0273987D01*
X0020654Y0273865D01*
X0020751Y0273740D01*
X0020846Y0273613D01*
X0020937Y0273484D01*
X0021026Y0273353D01*
X0021110Y0273219D01*
X0021192Y0273083D01*
X0021270Y0272946D01*
X0021344Y0272806D01*
X0021415Y0272664D01*
X0021483Y0272521D01*
X0021547Y0272376D01*
X0021607Y0272230D01*
X0021663Y0272082D01*
X0021716Y0271933D01*
X0021765Y0271782D01*
X0021810Y0271630D01*
X0021851Y0271477D01*
X0021889Y0271324D01*
X0021922Y0271169D01*
X0021952Y0271013D01*
X0021978Y0270857D01*
X0021999Y0270700D01*
X0022017Y0270543D01*
X0022031Y0270385D01*
X0022041Y0270227D01*
X0022047Y0270069D01*
X0022049Y0269911D01*
X0022047Y0269753D01*
X0022041Y0269595D01*
X0022031Y0269437D01*
X0022017Y0269279D01*
X0021999Y0269122D01*
X0021978Y0268965D01*
X0021952Y0268809D01*
X0021922Y0268653D01*
X0021889Y0268498D01*
X0021851Y0268345D01*
X0021810Y0268192D01*
X0021765Y0268040D01*
X0021716Y0267889D01*
X0021663Y0267740D01*
X0021607Y0267592D01*
X0021547Y0267446D01*
X0021483Y0267301D01*
X0021415Y0267158D01*
X0021344Y0267016D01*
X0021270Y0266876D01*
X0021192Y0266739D01*
X0021110Y0266603D01*
X0021026Y0266469D01*
X0020937Y0266338D01*
X0020846Y0266209D01*
X0020751Y0266082D01*
X0020654Y0265957D01*
X0020553Y0265835D01*
X0020449Y0265716D01*
X0020342Y0265599D01*
X0020232Y0265485D01*
X0020119Y0265374D01*
X0020004Y0265265D01*
X0019886Y0265160D01*
X0019765Y0265058D01*
X0019642Y0264958D01*
X0019516Y0264862D01*
X0019388Y0264769D01*
X0019258Y0264679D01*
X0019125Y0264593D01*
X0018990Y0264509D01*
X0018854Y0264430D01*
X0018715Y0264353D01*
X0018574Y0264281D01*
X0018432Y0264211D01*
X0018288Y0264146D01*
X0018142Y0264084D01*
X0017995Y0264026D01*
X0017846Y0263971D01*
X0017696Y0263920D01*
X0017545Y0263873D01*
X0017393Y0263830D01*
X0017240Y0263791D01*
X0017085Y0263755D01*
X0016930Y0263724D01*
X0016774Y0263696D01*
X0016618Y0263672D01*
X0016461Y0263652D01*
X0016303Y0263636D01*
X0016146Y0263624D01*
X0015987Y0263616D01*
X0015829Y0263612D01*
X0015671Y0263612D01*
X0015513Y0263616D01*
X0015354Y0263624D01*
X0015197Y0263636D01*
X0015039Y0263652D01*
X0014882Y0263672D01*
X0014726Y0263696D01*
X0014570Y0263724D01*
X0014415Y0263755D01*
X0014260Y0263791D01*
X0014107Y0263830D01*
X0013955Y0263873D01*
X0013804Y0263920D01*
X0013654Y0263971D01*
X0013505Y0264026D01*
X0013358Y0264084D01*
X0013212Y0264146D01*
X0013068Y0264211D01*
X0012926Y0264281D01*
X0012785Y0264353D01*
X0012646Y0264430D01*
X0012510Y0264509D01*
X0012375Y0264593D01*
X0012242Y0264679D01*
X0012112Y0264769D01*
X0011984Y0264862D01*
X0011858Y0264958D01*
X0011735Y0265058D01*
X0011614Y0265160D01*
X0011496Y0265265D01*
X0011381Y0265374D01*
X0011268Y0265485D01*
X0011158Y0265599D01*
X0011051Y0265716D01*
X0010947Y0265835D01*
X0010846Y0265957D01*
X0010749Y0266082D01*
X0010654Y0266209D01*
X0010563Y0266338D01*
X0010474Y0266469D01*
X0010390Y0266603D01*
X0010308Y0266739D01*
X0010230Y0266876D01*
X0010156Y0267016D01*
X0010085Y0267158D01*
X0010017Y0267301D01*
X0009953Y0267446D01*
X0009893Y0267592D01*
X0009837Y0267740D01*
X0009784Y0267889D01*
X0009735Y0268040D01*
X0009690Y0268192D01*
X0009649Y0268345D01*
X0009611Y0268498D01*
X0009578Y0268653D01*
X0009548Y0268809D01*
X0009522Y0268965D01*
X0009501Y0269122D01*
X0009483Y0269279D01*
X0009469Y0269437D01*
X0009459Y0269595D01*
X0009453Y0269753D01*
X0009451Y0269911D01*
D11*
X0158558Y0259678D03*
X0201558Y0259678D03*
X0201558Y0216678D03*
X0158558Y0216678D03*
D12*
X0075432Y0118050D03*
D13*
X0061432Y0118050D03*
D14*
X0228978Y0110756D03*
X0228978Y0098945D03*
X0259608Y0156525D03*
X0259608Y0168336D03*
X0261458Y0184635D03*
X0261458Y0196446D03*
X0316261Y0176564D03*
X0316261Y0164753D03*
D15*
X0306864Y0166694D02*
X0301664Y0166694D01*
X0301664Y0176694D02*
X0306864Y0176694D01*
X0306864Y0186694D02*
X0301664Y0186694D01*
X0301664Y0196694D02*
X0306864Y0196694D01*
X0306864Y0206694D02*
X0301664Y0206694D01*
X0301664Y0216694D02*
X0306864Y0216694D01*
X0306864Y0226694D02*
X0301664Y0226694D01*
X0301664Y0236694D02*
X0306864Y0236694D01*
X0306864Y0246694D02*
X0301664Y0246694D01*
X0276864Y0246694D02*
X0271664Y0246694D01*
X0271664Y0236694D02*
X0276864Y0236694D01*
X0276864Y0226694D02*
X0271664Y0226694D01*
X0271664Y0216694D02*
X0276864Y0216694D01*
X0276864Y0206694D02*
X0271664Y0206694D01*
X0271664Y0196694D02*
X0276864Y0196694D01*
X0276864Y0186694D02*
X0271664Y0186694D01*
X0271664Y0176694D02*
X0276864Y0176694D01*
X0276864Y0166694D02*
X0271664Y0166694D01*
X0271664Y0156694D02*
X0276864Y0156694D01*
X0276864Y0146694D02*
X0271664Y0146694D01*
X0271664Y0136694D02*
X0276864Y0136694D01*
X0276864Y0126694D02*
X0271664Y0126694D01*
X0271664Y0116694D02*
X0276864Y0116694D01*
X0301664Y0116694D02*
X0306864Y0116694D01*
X0306864Y0126694D02*
X0301664Y0126694D01*
X0301664Y0136694D02*
X0306864Y0136694D01*
X0306864Y0146694D02*
X0301664Y0146694D01*
X0301664Y0156694D02*
X0306864Y0156694D01*
X0235396Y0161698D02*
X0235396Y0166898D01*
X0235396Y0126898D02*
X0235396Y0121698D01*
X0199101Y0102554D02*
X0193901Y0102554D01*
X0159101Y0102554D02*
X0153901Y0102554D01*
D16*
X0208677Y0128448D03*
X0213677Y0128448D03*
X0218677Y0128448D03*
X0223677Y0128448D03*
X0223677Y0148920D03*
X0218677Y0148920D03*
X0213677Y0148920D03*
X0208677Y0148920D03*
D17*
X0207764Y0181402D03*
X0217764Y0181402D03*
X0227764Y0181402D03*
X0085377Y0190403D03*
X0075377Y0190403D03*
X0065377Y0190403D03*
D18*
X0109766Y0189288D02*
X0109766Y0195888D01*
X0119766Y0195888D02*
X0119766Y0189288D01*
X0129766Y0189288D02*
X0129766Y0195888D01*
X0165435Y0196321D02*
X0165435Y0189721D01*
X0175435Y0189721D02*
X0175435Y0196321D01*
X0185435Y0196321D02*
X0185435Y0189721D01*
D19*
X0147179Y0160410D03*
X0027179Y0160410D03*
D20*
X0020718Y0177234D02*
X0014718Y0177234D01*
X0014718Y0187234D02*
X0020718Y0187234D01*
X0020718Y0197234D02*
X0014718Y0197234D01*
X0052600Y0212261D02*
X0052600Y0218261D01*
X0082600Y0211261D02*
X0082600Y0205261D01*
X0244699Y0206734D02*
X0250699Y0206734D01*
X0250699Y0196734D02*
X0244699Y0196734D01*
X0244699Y0186734D02*
X0250699Y0186734D01*
X0250699Y0216734D02*
X0244699Y0216734D01*
X0244699Y0226734D02*
X0250699Y0226734D01*
X0250699Y0236734D02*
X0244699Y0236734D01*
X0244699Y0246734D02*
X0250699Y0246734D01*
X0316925Y0252088D02*
X0322925Y0252088D01*
X0342525Y0252088D02*
X0348525Y0252088D01*
X0357356Y0241289D02*
X0363356Y0241289D01*
X0363356Y0231289D02*
X0357356Y0231289D01*
X0357356Y0221289D02*
X0363356Y0221289D01*
X0363356Y0211289D02*
X0357356Y0211289D01*
X0357356Y0201289D02*
X0363356Y0201289D01*
X0340358Y0165890D02*
X0334358Y0165890D01*
X0334358Y0155890D02*
X0340358Y0155890D01*
X0340358Y0145890D02*
X0334358Y0145890D01*
X0334358Y0135890D02*
X0340358Y0135890D01*
X0340358Y0125890D02*
X0334358Y0125890D01*
X0334358Y0115890D02*
X0340358Y0115890D01*
X0373616Y0134241D02*
X0379616Y0134241D01*
X0379616Y0144241D02*
X0373616Y0144241D01*
X0373616Y0154241D02*
X0379616Y0154241D01*
X0251899Y0147037D02*
X0245899Y0147037D01*
X0245899Y0137037D02*
X0251899Y0137037D01*
X0251899Y0127037D02*
X0245899Y0127037D01*
X0245899Y0117037D02*
X0251899Y0117037D01*
X0251899Y0107037D02*
X0245899Y0107037D01*
X0316925Y0269888D02*
X0322925Y0269888D01*
X0342525Y0269888D02*
X0348525Y0269888D01*
D21*
X0123650Y0256013D02*
X0123650Y0246013D01*
X0035050Y0246013D02*
X0035050Y0256013D01*
D22*
X0335388Y0210445D03*
X0335388Y0191445D03*
D23*
X0295197Y0264027D03*
X0284001Y0264027D03*
X0287972Y0100626D03*
X0299168Y0100626D03*
D24*
X0311432Y0100340D03*
X0323243Y0100340D03*
X0207609Y0116134D03*
X0195798Y0116134D03*
D25*
X0316064Y0189599D03*
X0316064Y0197473D03*
X0315832Y0205846D03*
X0315832Y0213720D03*
D26*
X0368868Y0086824D03*
X0368868Y0018824D03*
X0212868Y0018824D03*
X0191702Y0018667D03*
X0191702Y0086667D03*
X0212868Y0086824D03*
X0035702Y0086667D03*
X0035702Y0018667D03*
D27*
X0191702Y0070021D02*
X0199057Y0062667D01*
X0275828Y0062667D01*
X0287994Y0074832D01*
X0287994Y0100604D01*
X0287972Y0100626D01*
X0287925Y0100580D01*
X0276065Y0100580D01*
X0269608Y0107037D01*
X0248899Y0107037D01*
X0248663Y0106801D01*
X0240553Y0106801D01*
X0236597Y0110756D01*
X0228978Y0110756D01*
X0223677Y0116057D01*
X0223677Y0128448D01*
X0218677Y0128448D02*
X0218677Y0135634D01*
X0221222Y0138178D01*
X0236065Y0138178D01*
X0238584Y0140698D01*
X0238584Y0150108D01*
X0245198Y0156722D01*
X0259411Y0156722D01*
X0259608Y0156525D01*
X0274095Y0156525D01*
X0274264Y0156694D01*
X0274264Y0146694D02*
X0249265Y0146694D01*
X0248899Y0147037D01*
X0248899Y0137037D02*
X0249265Y0136694D01*
X0274264Y0136694D01*
X0274264Y0126694D02*
X0249265Y0126694D01*
X0248899Y0127037D01*
X0248899Y0117037D02*
X0249265Y0116694D01*
X0274264Y0116694D01*
X0287972Y0100626D02*
X0287972Y0193240D01*
X0285198Y0196013D01*
X0274944Y0196013D01*
X0274264Y0196694D01*
X0261458Y0196694D01*
X0261458Y0196446D01*
X0261458Y0196655D01*
X0247699Y0196734D01*
X0247974Y0206694D02*
X0247699Y0206734D01*
X0248486Y0206694D01*
X0247974Y0206694D02*
X0274264Y0206694D01*
X0274551Y0206407D01*
X0281104Y0206407D01*
X0284001Y0209303D01*
X0284001Y0264027D01*
X0289862Y0269888D01*
X0319925Y0269888D01*
X0312510Y0246694D02*
X0304264Y0246694D01*
X0312510Y0246694D02*
X0318230Y0240974D01*
X0360041Y0240974D01*
X0360356Y0241289D01*
X0360356Y0231289D02*
X0360120Y0231052D01*
X0350789Y0231052D01*
X0345148Y0236694D01*
X0304264Y0236694D01*
X0304264Y0226694D02*
X0346959Y0226694D01*
X0352718Y0220934D01*
X0360002Y0220934D01*
X0360356Y0221289D01*
X0335388Y0210445D02*
X0330789Y0205846D01*
X0315832Y0205846D01*
X0304627Y0206330D01*
X0304264Y0206694D01*
X0304264Y0196694D02*
X0315285Y0196694D01*
X0316064Y0197473D01*
X0316618Y0196919D01*
X0324805Y0196919D01*
X0330279Y0191445D01*
X0335388Y0191445D01*
X0316261Y0176564D02*
X0316132Y0176694D01*
X0304264Y0176694D01*
X0304264Y0176948D01*
X0287972Y0193240D01*
X0274264Y0196694D02*
X0274264Y0186694D01*
X0274264Y0216694D02*
X0247974Y0216694D01*
X0247699Y0216734D01*
X0248486Y0216694D01*
X0248486Y0226694D02*
X0247699Y0226734D01*
X0274264Y0226655D01*
X0274264Y0226694D01*
X0274264Y0236694D02*
X0247974Y0236694D01*
X0247699Y0236734D01*
X0248486Y0236694D01*
X0247974Y0246694D02*
X0247699Y0246734D01*
X0247974Y0246694D02*
X0274264Y0246694D01*
X0326143Y0165698D02*
X0337166Y0165698D01*
X0337358Y0165890D01*
X0326143Y0165698D02*
X0323243Y0162798D01*
X0323243Y0100340D01*
X0311616Y0100524D02*
X0311432Y0100340D01*
X0311616Y0100524D02*
X0311616Y0110108D01*
X0305029Y0116694D01*
X0304264Y0116694D01*
X0299168Y0111599D01*
X0299168Y0100626D01*
X0218677Y0107878D02*
X0213466Y0102667D01*
X0196614Y0102667D01*
X0196501Y0102554D01*
X0191702Y0086667D02*
X0191702Y0070021D01*
X0218677Y0107878D02*
X0218677Y0128448D01*
X0213677Y0128448D02*
X0213677Y0122202D01*
X0207609Y0116134D01*
X0210677Y0148920D02*
X0213677Y0148920D01*
D28*
X0200575Y0127471D03*
X0219118Y0098337D03*
X0240890Y0099045D03*
X0176914Y0075778D03*
X0155693Y0090108D03*
X0144473Y0101093D03*
X0148331Y0110856D03*
X0085418Y0118415D03*
X0076559Y0129045D03*
X0076796Y0106959D03*
X0038370Y0104872D03*
X0019040Y0088849D03*
X0034040Y0062746D03*
X0036678Y0036801D03*
X0049827Y0027667D03*
X0047189Y0017589D03*
X0186559Y0029872D03*
X0191559Y0036683D03*
X0201992Y0030896D03*
X0201796Y0021723D03*
X0221599Y0029754D03*
X0213922Y0040108D03*
X0227701Y0017352D03*
X0311441Y0073770D03*
X0368922Y0035581D03*
X0375654Y0031919D03*
X0362347Y0030935D03*
X0381599Y0086211D03*
X0356205Y0115620D03*
X0363961Y0156289D03*
X0367465Y0167038D03*
X0376012Y0167128D03*
X0354197Y0175187D03*
X0347479Y0181189D03*
X0341999Y0175621D03*
X0331087Y0176368D03*
X0324000Y0184242D03*
X0348252Y0194793D03*
X0349626Y0204564D03*
X0316441Y0156329D03*
X0244433Y0174990D03*
X0200811Y0244557D03*
X0141559Y0216683D03*
X0035103Y0133101D03*
X0275181Y0259833D03*
D29*
X0278451Y0260000D02*
X0278816Y0259118D01*
X0279491Y0258443D01*
X0280374Y0258078D01*
X0280401Y0258078D01*
X0280401Y0250228D01*
X0279696Y0250933D01*
X0277858Y0251694D01*
X0270669Y0251694D01*
X0268831Y0250933D01*
X0268192Y0250294D01*
X0254775Y0250294D01*
X0253757Y0251311D01*
X0251773Y0252134D01*
X0243624Y0252134D01*
X0241640Y0251311D01*
X0240121Y0249792D01*
X0239299Y0247808D01*
X0239299Y0245659D01*
X0240121Y0243675D01*
X0241640Y0242156D01*
X0242659Y0241734D01*
X0241640Y0241311D01*
X0240121Y0239792D01*
X0239299Y0237808D01*
X0239299Y0235659D01*
X0240121Y0233675D01*
X0241640Y0232156D01*
X0242659Y0231734D01*
X0241640Y0231311D01*
X0240121Y0229792D01*
X0239299Y0227808D01*
X0239299Y0225659D01*
X0240121Y0223675D01*
X0241640Y0222156D01*
X0242659Y0221734D01*
X0241640Y0221311D01*
X0240121Y0219792D01*
X0239299Y0217808D01*
X0239299Y0215659D01*
X0240121Y0213675D01*
X0241640Y0212156D01*
X0242659Y0211734D01*
X0241640Y0211311D01*
X0240121Y0209792D01*
X0239299Y0207808D01*
X0239299Y0205659D01*
X0240121Y0203675D01*
X0241640Y0202156D01*
X0242659Y0201734D01*
X0241640Y0201311D01*
X0240121Y0199792D01*
X0239299Y0197808D01*
X0239299Y0195659D01*
X0240121Y0193675D01*
X0241640Y0192156D01*
X0242393Y0191844D01*
X0241764Y0191523D01*
X0241050Y0191005D01*
X0240427Y0190382D01*
X0239909Y0189669D01*
X0239509Y0188883D01*
X0239236Y0188045D01*
X0239099Y0187174D01*
X0239099Y0186734D01*
X0247698Y0186734D01*
X0247698Y0186733D01*
X0239099Y0186733D01*
X0239099Y0186293D01*
X0239236Y0185422D01*
X0239509Y0184584D01*
X0239909Y0183798D01*
X0240427Y0183085D01*
X0241050Y0182462D01*
X0241764Y0181944D01*
X0242549Y0181544D01*
X0243387Y0181271D01*
X0244258Y0181134D01*
X0247698Y0181134D01*
X0247698Y0186733D01*
X0247699Y0186733D01*
X0247699Y0181134D01*
X0251139Y0181134D01*
X0252010Y0181271D01*
X0252848Y0181544D01*
X0253634Y0181944D01*
X0254347Y0182462D01*
X0254921Y0183037D01*
X0254921Y0181426D01*
X0255021Y0180924D01*
X0255217Y0180451D01*
X0255502Y0180025D01*
X0255864Y0179663D01*
X0256290Y0179378D01*
X0256763Y0179182D01*
X0257265Y0179082D01*
X0261458Y0179082D01*
X0261458Y0184635D01*
X0261458Y0184635D01*
X0261458Y0179082D01*
X0265651Y0179082D01*
X0266154Y0179182D01*
X0266627Y0179378D01*
X0267053Y0179663D01*
X0267415Y0180025D01*
X0267699Y0180451D01*
X0267895Y0180924D01*
X0267995Y0181426D01*
X0267995Y0183291D01*
X0268831Y0182455D01*
X0270482Y0181772D01*
X0270446Y0181766D01*
X0269667Y0181513D01*
X0268938Y0181141D01*
X0268276Y0180660D01*
X0267697Y0180081D01*
X0267216Y0179419D01*
X0266845Y0178690D01*
X0266592Y0177912D01*
X0266464Y0177103D01*
X0266464Y0176694D01*
X0266464Y0176285D01*
X0266592Y0175476D01*
X0266845Y0174698D01*
X0267216Y0173969D01*
X0267697Y0173306D01*
X0268276Y0172728D01*
X0268938Y0172246D01*
X0269667Y0171875D01*
X0270446Y0171622D01*
X0270482Y0171616D01*
X0268831Y0170933D01*
X0267425Y0169526D01*
X0266664Y0167688D01*
X0266664Y0165699D01*
X0267425Y0163862D01*
X0268831Y0162455D01*
X0270669Y0161694D01*
X0277858Y0161694D01*
X0279696Y0162455D01*
X0281102Y0163862D01*
X0281864Y0165699D01*
X0281864Y0167688D01*
X0281102Y0169526D01*
X0279696Y0170933D01*
X0278045Y0171616D01*
X0278081Y0171622D01*
X0278860Y0171875D01*
X0279589Y0172246D01*
X0280251Y0172728D01*
X0280830Y0173306D01*
X0281311Y0173969D01*
X0281683Y0174698D01*
X0281935Y0175476D01*
X0282064Y0176285D01*
X0282064Y0176694D01*
X0282064Y0177103D01*
X0281935Y0177912D01*
X0281683Y0178690D01*
X0281311Y0179419D01*
X0280830Y0180081D01*
X0280251Y0180660D01*
X0279589Y0181141D01*
X0278860Y0181513D01*
X0278081Y0181766D01*
X0278045Y0181772D01*
X0279696Y0182455D01*
X0281102Y0183862D01*
X0281864Y0185699D01*
X0281864Y0187688D01*
X0281102Y0189526D01*
X0279696Y0190933D01*
X0277864Y0191692D01*
X0277864Y0191696D01*
X0279594Y0192413D01*
X0283707Y0192413D01*
X0284372Y0191749D01*
X0284372Y0106576D01*
X0284345Y0106576D01*
X0283462Y0106210D01*
X0282787Y0105535D01*
X0282422Y0104653D01*
X0282422Y0104180D01*
X0277556Y0104180D01*
X0271647Y0110089D01*
X0270324Y0110637D01*
X0255936Y0110637D01*
X0254958Y0111615D01*
X0253939Y0112037D01*
X0254958Y0112459D01*
X0255593Y0113094D01*
X0268192Y0113094D01*
X0268831Y0112455D01*
X0270669Y0111694D01*
X0277858Y0111694D01*
X0279696Y0112455D01*
X0281102Y0113862D01*
X0281864Y0115699D01*
X0281864Y0117688D01*
X0281102Y0119526D01*
X0279696Y0120933D01*
X0277858Y0121694D01*
X0279696Y0122455D01*
X0281102Y0123862D01*
X0281864Y0125699D01*
X0281864Y0127688D01*
X0281102Y0129526D01*
X0279696Y0130933D01*
X0277858Y0131694D01*
X0279696Y0132455D01*
X0281102Y0133862D01*
X0281864Y0135699D01*
X0281864Y0137688D01*
X0281102Y0139526D01*
X0279696Y0140933D01*
X0277858Y0141694D01*
X0279696Y0142455D01*
X0281102Y0143862D01*
X0281864Y0145699D01*
X0281864Y0147688D01*
X0281102Y0149526D01*
X0279696Y0150933D01*
X0277858Y0151694D01*
X0279696Y0152455D01*
X0281102Y0153862D01*
X0281864Y0155699D01*
X0281864Y0157688D01*
X0281102Y0159526D01*
X0279696Y0160933D01*
X0277858Y0161694D01*
X0270669Y0161694D01*
X0268831Y0160933D01*
X0268023Y0160125D01*
X0265875Y0160125D01*
X0265579Y0160837D01*
X0264904Y0161512D01*
X0264022Y0161878D01*
X0255193Y0161878D01*
X0254311Y0161512D01*
X0253636Y0160837D01*
X0253423Y0160322D01*
X0244482Y0160322D01*
X0243159Y0159774D01*
X0242146Y0158761D01*
X0235532Y0152147D01*
X0234984Y0150824D01*
X0234984Y0142189D01*
X0234573Y0141778D01*
X0220506Y0141778D01*
X0219183Y0141230D01*
X0218170Y0140218D01*
X0218170Y0140218D01*
X0215625Y0137673D01*
X0215077Y0136350D01*
X0215077Y0135178D01*
X0212019Y0135178D01*
X0211357Y0134904D01*
X0211090Y0135083D01*
X0210617Y0135278D01*
X0210115Y0135378D01*
X0208677Y0135378D01*
X0207240Y0135378D01*
X0206738Y0135278D01*
X0206265Y0135083D01*
X0205839Y0134798D01*
X0205477Y0134436D01*
X0205192Y0134010D01*
X0204996Y0133537D01*
X0204896Y0133034D01*
X0204896Y0128448D01*
X0208677Y0128448D01*
X0208677Y0128448D01*
X0208677Y0135378D01*
X0208677Y0128448D01*
X0208677Y0128448D01*
X0204896Y0128448D01*
X0204896Y0123861D01*
X0204996Y0123359D01*
X0205192Y0122885D01*
X0205469Y0122471D01*
X0204179Y0122471D01*
X0203297Y0122105D01*
X0202622Y0121430D01*
X0202257Y0120548D01*
X0202257Y0111719D01*
X0202622Y0110837D01*
X0203297Y0110162D01*
X0204179Y0109797D01*
X0211040Y0109797D01*
X0211922Y0110162D01*
X0212597Y0110837D01*
X0212962Y0111719D01*
X0212962Y0116395D01*
X0215077Y0118511D01*
X0215077Y0109369D01*
X0211975Y0106267D01*
X0202459Y0106267D01*
X0201933Y0106793D01*
X0200095Y0107554D01*
X0192906Y0107554D01*
X0191068Y0106793D01*
X0189662Y0105386D01*
X0188901Y0103548D01*
X0188901Y0101559D01*
X0189662Y0099722D01*
X0191068Y0098315D01*
X0192906Y0097554D01*
X0200095Y0097554D01*
X0201933Y0098315D01*
X0202685Y0099067D01*
X0214182Y0099067D01*
X0215505Y0099615D01*
X0216518Y0100627D01*
X0221729Y0105839D01*
X0222277Y0107162D01*
X0222277Y0112366D01*
X0222641Y0112002D01*
X0222641Y0107326D01*
X0223006Y0106444D01*
X0223681Y0105769D01*
X0224563Y0105403D01*
X0233392Y0105403D01*
X0234274Y0105769D01*
X0234949Y0106444D01*
X0235204Y0107058D01*
X0237501Y0104761D01*
X0238514Y0103749D01*
X0239837Y0103201D01*
X0242099Y0103201D01*
X0242840Y0102459D01*
X0244825Y0101637D01*
X0252973Y0101637D01*
X0254958Y0102459D01*
X0255936Y0103437D01*
X0268117Y0103437D01*
X0273013Y0098541D01*
X0274025Y0097528D01*
X0275348Y0096980D01*
X0282422Y0096980D01*
X0282422Y0096600D01*
X0282787Y0095718D01*
X0283462Y0095043D01*
X0284345Y0094677D01*
X0284394Y0094677D01*
X0284394Y0076323D01*
X0274337Y0066267D01*
X0200548Y0066267D01*
X0195302Y0071512D01*
X0195302Y0079345D01*
X0197101Y0079345D01*
X0197983Y0079711D01*
X0198658Y0080386D01*
X0199024Y0081268D01*
X0199024Y0092065D01*
X0198658Y0092947D01*
X0197983Y0093623D01*
X0197101Y0093988D01*
X0186304Y0093988D01*
X0185422Y0093623D01*
X0184746Y0092947D01*
X0184381Y0092065D01*
X0184381Y0081268D01*
X0184746Y0080386D01*
X0185422Y0079711D01*
X0186304Y0079345D01*
X0188102Y0079345D01*
X0188102Y0069305D01*
X0188650Y0067982D01*
X0196005Y0060627D01*
X0197017Y0059615D01*
X0198341Y0059067D01*
X0276544Y0059067D01*
X0277868Y0059615D01*
X0290033Y0071780D01*
X0291046Y0072793D01*
X0291594Y0074116D01*
X0291594Y0094677D01*
X0291599Y0094677D01*
X0292481Y0095043D01*
X0293156Y0095718D01*
X0293521Y0096600D01*
X0293521Y0104653D01*
X0293156Y0105535D01*
X0292481Y0106210D01*
X0291599Y0106576D01*
X0291572Y0106576D01*
X0291572Y0184549D01*
X0297181Y0178939D01*
X0296664Y0177688D01*
X0296664Y0175699D01*
X0297425Y0173862D01*
X0298831Y0172455D01*
X0300669Y0171694D01*
X0307858Y0171694D01*
X0309696Y0172455D01*
X0310056Y0172816D01*
X0310290Y0172252D01*
X0310965Y0171577D01*
X0311847Y0171212D01*
X0320676Y0171212D01*
X0321558Y0171577D01*
X0322233Y0172252D01*
X0322598Y0173134D01*
X0322598Y0179994D01*
X0322233Y0180877D01*
X0321558Y0181552D01*
X0320676Y0181917D01*
X0311847Y0181917D01*
X0310965Y0181552D01*
X0310290Y0180877D01*
X0310132Y0180496D01*
X0309696Y0180933D01*
X0308045Y0181616D01*
X0308081Y0181622D01*
X0308860Y0181875D01*
X0309589Y0182246D01*
X0310251Y0182728D01*
X0310830Y0183306D01*
X0311311Y0183969D01*
X0311683Y0184698D01*
X0311693Y0184731D01*
X0312156Y0184540D01*
X0312658Y0184440D01*
X0316064Y0184440D01*
X0319469Y0184440D01*
X0319972Y0184540D01*
X0320445Y0184736D01*
X0320871Y0185020D01*
X0321233Y0185382D01*
X0321517Y0185808D01*
X0321713Y0186281D01*
X0321813Y0186784D01*
X0321813Y0189599D01*
X0321813Y0192414D01*
X0321713Y0192916D01*
X0321547Y0193319D01*
X0323314Y0193319D01*
X0328239Y0188393D01*
X0329563Y0187845D01*
X0331917Y0187845D01*
X0332555Y0187206D01*
X0334393Y0186445D01*
X0336382Y0186445D01*
X0338220Y0187206D01*
X0339627Y0188612D01*
X0340388Y0190450D01*
X0340388Y0192439D01*
X0339627Y0194277D01*
X0338220Y0195683D01*
X0336382Y0196445D01*
X0334393Y0196445D01*
X0332555Y0195683D01*
X0331917Y0195045D01*
X0331770Y0195045D01*
X0327857Y0198958D01*
X0326844Y0199971D01*
X0325521Y0200519D01*
X0321610Y0200519D01*
X0321248Y0201391D01*
X0320864Y0201775D01*
X0321016Y0201928D01*
X0321148Y0202246D01*
X0331505Y0202246D01*
X0332829Y0202794D01*
X0335479Y0205445D01*
X0336382Y0205445D01*
X0338220Y0206206D01*
X0339627Y0207612D01*
X0340388Y0209450D01*
X0340388Y0211439D01*
X0339627Y0213277D01*
X0338220Y0214683D01*
X0336382Y0215445D01*
X0334393Y0215445D01*
X0332555Y0214683D01*
X0331149Y0213277D01*
X0330388Y0211439D01*
X0330388Y0210536D01*
X0329298Y0209446D01*
X0321148Y0209446D01*
X0321077Y0209618D01*
X0321286Y0209930D01*
X0321482Y0210403D01*
X0321582Y0210905D01*
X0321582Y0213720D01*
X0315832Y0213720D01*
X0315832Y0218879D01*
X0312427Y0218879D01*
X0311924Y0218779D01*
X0311487Y0218598D01*
X0311102Y0219526D01*
X0309696Y0220933D01*
X0307858Y0221694D01*
X0309696Y0222455D01*
X0310335Y0223094D01*
X0345467Y0223094D01*
X0349666Y0218895D01*
X0350679Y0217882D01*
X0352002Y0217334D01*
X0353673Y0217334D01*
X0354297Y0216711D01*
X0355316Y0216289D01*
X0354297Y0215867D01*
X0352778Y0214348D01*
X0351956Y0212363D01*
X0351956Y0210215D01*
X0352778Y0208230D01*
X0354297Y0206711D01*
X0355050Y0206399D01*
X0354421Y0206078D01*
X0353708Y0205560D01*
X0353084Y0204937D01*
X0352566Y0204224D01*
X0352166Y0203438D01*
X0351894Y0202600D01*
X0351756Y0201729D01*
X0351756Y0201289D01*
X0360356Y0201289D01*
X0368956Y0201289D01*
X0368956Y0201729D01*
X0368818Y0202600D01*
X0368546Y0203438D01*
X0368145Y0204224D01*
X0367627Y0204937D01*
X0367004Y0205560D01*
X0366291Y0206078D01*
X0365662Y0206399D01*
X0366415Y0206711D01*
X0367934Y0208230D01*
X0368756Y0210215D01*
X0368756Y0212363D01*
X0367934Y0214348D01*
X0366415Y0215867D01*
X0365396Y0216289D01*
X0366415Y0216711D01*
X0367934Y0218230D01*
X0368756Y0220215D01*
X0368756Y0222363D01*
X0367934Y0224348D01*
X0366415Y0225867D01*
X0365396Y0226289D01*
X0366415Y0226711D01*
X0367934Y0228230D01*
X0368756Y0230215D01*
X0368756Y0232363D01*
X0367934Y0234348D01*
X0366415Y0235867D01*
X0365396Y0236289D01*
X0366415Y0236711D01*
X0367934Y0238230D01*
X0368756Y0240215D01*
X0368756Y0242363D01*
X0367934Y0244348D01*
X0366415Y0245867D01*
X0364430Y0246689D01*
X0356282Y0246689D01*
X0354297Y0245867D01*
X0353004Y0244574D01*
X0319721Y0244574D01*
X0317607Y0246688D01*
X0323999Y0246688D01*
X0325984Y0247510D01*
X0327503Y0249029D01*
X0328325Y0251014D01*
X0328325Y0253162D01*
X0327503Y0255147D01*
X0325984Y0256666D01*
X0323999Y0257488D01*
X0315851Y0257488D01*
X0313866Y0256666D01*
X0312347Y0255147D01*
X0311525Y0253162D01*
X0311525Y0251014D01*
X0311823Y0250294D01*
X0310335Y0250294D01*
X0309696Y0250933D01*
X0307858Y0251694D01*
X0300669Y0251694D01*
X0298831Y0250933D01*
X0297425Y0249526D01*
X0296664Y0247688D01*
X0296664Y0245699D01*
X0297425Y0243862D01*
X0298831Y0242455D01*
X0300669Y0241694D01*
X0307858Y0241694D01*
X0309696Y0242455D01*
X0310335Y0243094D01*
X0311019Y0243094D01*
X0313819Y0240294D01*
X0310335Y0240294D01*
X0309696Y0240933D01*
X0307858Y0241694D01*
X0300669Y0241694D01*
X0298831Y0240933D01*
X0297425Y0239526D01*
X0296664Y0237688D01*
X0296664Y0235699D01*
X0297425Y0233862D01*
X0298831Y0232455D01*
X0300669Y0231694D01*
X0307858Y0231694D01*
X0309696Y0232455D01*
X0310335Y0233094D01*
X0343656Y0233094D01*
X0346456Y0230294D01*
X0310335Y0230294D01*
X0309696Y0230933D01*
X0307858Y0231694D01*
X0300669Y0231694D01*
X0298831Y0230933D01*
X0297425Y0229526D01*
X0296664Y0227688D01*
X0296664Y0225699D01*
X0297425Y0223862D01*
X0298831Y0222455D01*
X0300669Y0221694D01*
X0307858Y0221694D01*
X0300669Y0221694D01*
X0298831Y0220933D01*
X0297425Y0219526D01*
X0296664Y0217688D01*
X0296664Y0215699D01*
X0297425Y0213862D01*
X0298831Y0212455D01*
X0300669Y0211694D01*
X0307858Y0211694D01*
X0309696Y0212455D01*
X0310083Y0212842D01*
X0310083Y0210905D01*
X0310172Y0210457D01*
X0309696Y0210933D01*
X0307858Y0211694D01*
X0300669Y0211694D01*
X0298831Y0210933D01*
X0297425Y0209526D01*
X0296664Y0207688D01*
X0296664Y0205699D01*
X0297425Y0203862D01*
X0298831Y0202455D01*
X0300669Y0201694D01*
X0307858Y0201694D01*
X0309696Y0202455D01*
X0309746Y0202506D01*
X0310421Y0202477D01*
X0310648Y0201928D01*
X0311032Y0201544D01*
X0310880Y0201391D01*
X0310514Y0200509D01*
X0310514Y0200294D01*
X0310335Y0200294D01*
X0309696Y0200933D01*
X0307858Y0201694D01*
X0300669Y0201694D01*
X0298831Y0200933D01*
X0297425Y0199526D01*
X0296664Y0197688D01*
X0296664Y0195699D01*
X0297425Y0193862D01*
X0298831Y0192455D01*
X0300482Y0191772D01*
X0300446Y0191766D01*
X0299667Y0191513D01*
X0298938Y0191141D01*
X0298276Y0190660D01*
X0297697Y0190081D01*
X0297216Y0189419D01*
X0297104Y0189199D01*
X0291023Y0195279D01*
X0287238Y0199065D01*
X0285915Y0199613D01*
X0281015Y0199613D01*
X0279696Y0200933D01*
X0277858Y0201694D01*
X0279696Y0202455D01*
X0280047Y0202807D01*
X0281820Y0202807D01*
X0283143Y0203355D01*
X0284156Y0204368D01*
X0287052Y0207264D01*
X0287601Y0208587D01*
X0287601Y0258078D01*
X0287628Y0258078D01*
X0288510Y0258443D01*
X0289185Y0259118D01*
X0289511Y0259905D01*
X0289548Y0259719D01*
X0289744Y0259246D01*
X0290028Y0258820D01*
X0290390Y0258458D01*
X0290816Y0258174D01*
X0291289Y0257978D01*
X0291792Y0257878D01*
X0295197Y0257878D01*
X0295197Y0264027D01*
X0295197Y0264027D01*
X0295197Y0257878D01*
X0298603Y0257878D01*
X0299105Y0257978D01*
X0299579Y0258174D01*
X0300004Y0258458D01*
X0300367Y0258820D01*
X0300651Y0259246D01*
X0300847Y0259719D01*
X0300947Y0260222D01*
X0300947Y0264027D01*
X0295198Y0264027D01*
X0300947Y0264027D01*
X0300947Y0266288D01*
X0312888Y0266288D01*
X0313866Y0265310D01*
X0315851Y0264488D01*
X0323999Y0264488D01*
X0325984Y0265310D01*
X0327503Y0266829D01*
X0328325Y0268814D01*
X0328325Y0270962D01*
X0327503Y0272947D01*
X0326297Y0274153D01*
X0339153Y0274153D01*
X0337947Y0272947D01*
X0337125Y0270962D01*
X0337125Y0268814D01*
X0337947Y0266829D01*
X0339466Y0265310D01*
X0341451Y0264488D01*
X0349599Y0264488D01*
X0351584Y0265310D01*
X0353103Y0266829D01*
X0353925Y0268814D01*
X0353925Y0270962D01*
X0353103Y0272947D01*
X0351897Y0274153D01*
X0378583Y0274153D01*
X0377866Y0271477D01*
X0377866Y0268344D01*
X0378677Y0265318D01*
X0380244Y0262604D01*
X0382459Y0260389D01*
X0385172Y0258822D01*
X0388199Y0258012D01*
X0391332Y0258012D01*
X0393614Y0258623D01*
X0393614Y0029230D01*
X0391332Y0029841D01*
X0388199Y0029841D01*
X0385172Y0029031D01*
X0382459Y0027464D01*
X0380244Y0025249D01*
X0378677Y0022535D01*
X0377866Y0019509D01*
X0377866Y0016376D01*
X0378583Y0013700D01*
X0376389Y0013700D01*
X0376389Y0018824D01*
X0368868Y0018824D01*
X0368868Y0018824D01*
X0376389Y0018824D01*
X0376389Y0024001D01*
X0376289Y0024504D01*
X0376093Y0024977D01*
X0375809Y0025403D01*
X0375446Y0025765D01*
X0375021Y0026049D01*
X0374547Y0026245D01*
X0374045Y0026345D01*
X0368868Y0026345D01*
X0368868Y0018824D01*
X0368868Y0018824D01*
X0368868Y0026345D01*
X0363690Y0026345D01*
X0363188Y0026245D01*
X0362715Y0026049D01*
X0362289Y0025765D01*
X0362054Y0025530D01*
X0361589Y0027265D01*
X0360074Y0029889D01*
X0357932Y0032031D01*
X0355309Y0033546D01*
X0352382Y0034330D01*
X0349353Y0034330D01*
X0346427Y0033546D01*
X0343803Y0032031D01*
X0341661Y0029889D01*
X0340146Y0027265D01*
X0339362Y0024339D01*
X0339362Y0021309D01*
X0340146Y0018383D01*
X0341661Y0015760D01*
X0343721Y0013700D01*
X0220389Y0013700D01*
X0220389Y0018824D01*
X0212868Y0018824D01*
X0212868Y0018824D01*
X0220389Y0018824D01*
X0220389Y0024001D01*
X0220289Y0024504D01*
X0220093Y0024977D01*
X0219809Y0025403D01*
X0219446Y0025765D01*
X0219021Y0026049D01*
X0218547Y0026245D01*
X0218045Y0026345D01*
X0212868Y0026345D01*
X0212868Y0018824D01*
X0212868Y0018824D01*
X0205346Y0018824D01*
X0205346Y0013700D01*
X0199224Y0013700D01*
X0199224Y0018667D01*
X0199224Y0023844D01*
X0199124Y0024346D01*
X0198928Y0024819D01*
X0198643Y0025245D01*
X0198281Y0025607D01*
X0197855Y0025892D01*
X0197382Y0026088D01*
X0196880Y0026188D01*
X0191702Y0026188D01*
X0186525Y0026188D01*
X0186023Y0026088D01*
X0185550Y0025892D01*
X0185124Y0025607D01*
X0184889Y0025372D01*
X0184424Y0027108D01*
X0182909Y0029731D01*
X0180767Y0031873D01*
X0178143Y0033388D01*
X0175217Y0034172D01*
X0172188Y0034172D01*
X0169261Y0033388D01*
X0166638Y0031873D01*
X0164496Y0029731D01*
X0162981Y0027108D01*
X0162197Y0024181D01*
X0162197Y0021152D01*
X0162981Y0018226D01*
X0164496Y0015602D01*
X0166398Y0013700D01*
X0043224Y0013700D01*
X0043224Y0018667D01*
X0043224Y0023844D01*
X0043124Y0024346D01*
X0042928Y0024819D01*
X0042643Y0025245D01*
X0042281Y0025607D01*
X0041855Y0025892D01*
X0041382Y0026088D01*
X0040880Y0026188D01*
X0035702Y0026188D01*
X0030525Y0026188D01*
X0030023Y0026088D01*
X0029550Y0025892D01*
X0029124Y0025607D01*
X0028762Y0025245D01*
X0028477Y0024819D01*
X0028281Y0024346D01*
X0028181Y0023844D01*
X0028181Y0018667D01*
X0035702Y0018667D01*
X0035702Y0026188D01*
X0035702Y0018667D01*
X0035702Y0018667D01*
X0035702Y0018667D01*
X0028181Y0018667D01*
X0028181Y0013700D01*
X0026932Y0013700D01*
X0027649Y0016376D01*
X0027649Y0019509D01*
X0026838Y0022535D01*
X0025271Y0025249D01*
X0023056Y0027464D01*
X0020343Y0029031D01*
X0017316Y0029841D01*
X0014183Y0029841D01*
X0011507Y0029124D01*
X0011507Y0172808D01*
X0011659Y0172656D01*
X0013642Y0171834D01*
X0013923Y0171554D01*
X0016385Y0170534D01*
X0027791Y0170534D01*
X0030254Y0171554D01*
X0050621Y0191921D01*
X0051159Y0192144D01*
X0052895Y0193880D01*
X0062066Y0193880D01*
X0061716Y0193530D01*
X0061272Y0192919D01*
X0060929Y0192246D01*
X0060695Y0191527D01*
X0060577Y0190781D01*
X0060577Y0190403D01*
X0060577Y0190025D01*
X0060695Y0189279D01*
X0060929Y0188561D01*
X0061272Y0187887D01*
X0061716Y0187276D01*
X0062250Y0186742D01*
X0062861Y0186298D01*
X0063535Y0185955D01*
X0064253Y0185721D01*
X0064999Y0185603D01*
X0065377Y0185603D01*
X0065377Y0190403D01*
X0060577Y0190403D01*
X0065377Y0190403D01*
X0065377Y0190403D01*
X0065377Y0190403D01*
X0065377Y0185603D01*
X0065755Y0185603D01*
X0066501Y0185721D01*
X0067220Y0185955D01*
X0067893Y0186298D01*
X0068504Y0186742D01*
X0068774Y0187012D01*
X0068774Y0181058D01*
X0069794Y0178596D01*
X0071679Y0176711D01*
X0077742Y0170648D01*
X0080204Y0169628D01*
X0103382Y0169628D01*
X0105844Y0170648D01*
X0107729Y0172533D01*
X0113498Y0178302D01*
X0113498Y0167594D01*
X0114518Y0165131D01*
X0116403Y0163247D01*
X0124030Y0155620D01*
X0073663Y0155620D01*
X0071200Y0154600D01*
X0058254Y0141654D01*
X0056369Y0139769D01*
X0056118Y0139164D01*
X0055700Y0138745D01*
X0054680Y0136283D01*
X0054680Y0125147D01*
X0054668Y0125118D01*
X0054680Y0123816D01*
X0054680Y0122513D01*
X0054692Y0122484D01*
X0054732Y0118020D01*
X0054732Y0115171D01*
X0033548Y0093988D01*
X0030304Y0093988D01*
X0029422Y0093623D01*
X0028746Y0092947D01*
X0028381Y0092065D01*
X0028381Y0081268D01*
X0028746Y0080386D01*
X0029422Y0079711D01*
X0030304Y0079345D01*
X0041101Y0079345D01*
X0041983Y0079711D01*
X0042658Y0080386D01*
X0043024Y0081268D01*
X0043024Y0084513D01*
X0046476Y0087965D01*
X0045981Y0087108D01*
X0045197Y0084181D01*
X0045197Y0081152D01*
X0045981Y0078226D01*
X0047496Y0075602D01*
X0049638Y0073460D01*
X0052261Y0071945D01*
X0055188Y0071161D01*
X0058217Y0071161D01*
X0061143Y0071945D01*
X0063767Y0073460D01*
X0065909Y0075602D01*
X0067424Y0078226D01*
X0068208Y0081152D01*
X0068208Y0084181D01*
X0067424Y0087108D01*
X0065909Y0089731D01*
X0063767Y0091873D01*
X0061143Y0093388D01*
X0058217Y0094172D01*
X0055188Y0094172D01*
X0052261Y0093388D01*
X0051404Y0092893D01*
X0067112Y0108601D01*
X0068132Y0111063D01*
X0068132Y0116748D01*
X0068144Y0116778D01*
X0068132Y0118080D01*
X0068132Y0119382D01*
X0068120Y0119411D01*
X0068080Y0123875D01*
X0068080Y0132529D01*
X0077770Y0142220D01*
X0206945Y0142220D01*
X0207019Y0142189D01*
X0209372Y0142189D01*
X0209378Y0142187D01*
X0212043Y0142187D01*
X0212049Y0142189D01*
X0215336Y0142189D01*
X0216177Y0142538D01*
X0217019Y0142189D01*
X0220336Y0142189D01*
X0220410Y0142220D01*
X0221945Y0142220D01*
X0222019Y0142189D01*
X0225336Y0142189D01*
X0226218Y0142555D01*
X0226501Y0142838D01*
X0227473Y0143240D01*
X0229357Y0145125D01*
X0230377Y0147587D01*
X0230377Y0150253D01*
X0229357Y0152715D01*
X0227765Y0154308D01*
X0227765Y0161834D01*
X0226745Y0164297D01*
X0225500Y0165541D01*
X0233444Y0173484D01*
X0234464Y0175947D01*
X0234464Y0182734D01*
X0233444Y0185197D01*
X0231559Y0187081D01*
X0229097Y0188102D01*
X0226431Y0188102D01*
X0223969Y0187081D01*
X0222084Y0185197D01*
X0221612Y0184058D01*
X0220370Y0185301D01*
X0218679Y0186002D01*
X0216849Y0186002D01*
X0215158Y0185301D01*
X0213864Y0184007D01*
X0213164Y0182317D01*
X0213164Y0180487D01*
X0213864Y0178796D01*
X0215158Y0177502D01*
X0216849Y0176802D01*
X0217811Y0176802D01*
X0213250Y0172241D01*
X0188525Y0172241D01*
X0182135Y0178631D01*
X0182135Y0184960D01*
X0182206Y0184889D01*
X0184301Y0184021D01*
X0186569Y0184021D01*
X0188664Y0184889D01*
X0190214Y0186439D01*
X0218027Y0186439D01*
X0220490Y0187459D01*
X0222374Y0189344D01*
X0232453Y0199423D01*
X0233473Y0201885D01*
X0233473Y0249984D01*
X0232453Y0252446D01*
X0230568Y0254331D01*
X0219541Y0265358D01*
X0217078Y0266378D01*
X0205323Y0266378D01*
X0204623Y0267078D01*
X0198493Y0267078D01*
X0194158Y0262744D01*
X0194158Y0256613D01*
X0198493Y0252278D01*
X0204623Y0252278D01*
X0205323Y0252978D01*
X0212970Y0252978D01*
X0220073Y0245876D01*
X0220073Y0205993D01*
X0213919Y0199839D01*
X0192135Y0199839D01*
X0192135Y0200220D01*
X0191115Y0202682D01*
X0184697Y0209100D01*
X0182813Y0210984D01*
X0180350Y0212004D01*
X0164632Y0212004D01*
X0166158Y0213530D01*
X0166158Y0216678D01*
X0158558Y0216678D01*
X0150958Y0216678D01*
X0150958Y0213530D01*
X0152484Y0212004D01*
X0132015Y0212004D01*
X0129553Y0210984D01*
X0128919Y0210351D01*
X0128009Y0211260D01*
X0125547Y0212280D01*
X0099221Y0212280D01*
X0096759Y0211260D01*
X0080377Y0194878D01*
X0079535Y0195721D01*
X0083676Y0199862D01*
X0085659Y0200683D01*
X0087178Y0202202D01*
X0087999Y0204185D01*
X0088280Y0204466D01*
X0102537Y0218723D01*
X0132634Y0218723D01*
X0135096Y0219743D01*
X0136981Y0221627D01*
X0139824Y0224471D01*
X0181636Y0224471D01*
X0195108Y0210998D01*
X0197570Y0209978D01*
X0197793Y0209978D01*
X0198493Y0209278D01*
X0204623Y0209278D01*
X0208958Y0213613D01*
X0208958Y0219744D01*
X0204623Y0224078D01*
X0200978Y0224078D01*
X0190091Y0234966D01*
X0188206Y0236851D01*
X0185744Y0237871D01*
X0135716Y0237871D01*
X0133254Y0236851D01*
X0128526Y0232123D01*
X0098429Y0232123D01*
X0095966Y0231103D01*
X0081524Y0216660D01*
X0079541Y0215839D01*
X0078022Y0214320D01*
X0077201Y0212337D01*
X0072144Y0207280D01*
X0054685Y0207280D01*
X0055659Y0207683D01*
X0057178Y0209202D01*
X0057999Y0211185D01*
X0058319Y0211505D01*
X0059339Y0213968D01*
X0059339Y0226939D01*
X0076714Y0244313D01*
X0116344Y0244313D01*
X0117376Y0241821D01*
X0119458Y0239740D01*
X0122178Y0238613D01*
X0125122Y0238613D01*
X0127841Y0239740D01*
X0129923Y0241821D01*
X0130955Y0244313D01*
X0151226Y0244313D01*
X0153688Y0245333D01*
X0160634Y0252278D01*
X0161623Y0252278D01*
X0165958Y0256613D01*
X0165958Y0262744D01*
X0161623Y0267078D01*
X0155493Y0267078D01*
X0151158Y0262744D01*
X0151158Y0261754D01*
X0147118Y0257713D01*
X0130955Y0257713D01*
X0129923Y0260205D01*
X0127841Y0262287D01*
X0125122Y0263413D01*
X0122178Y0263413D01*
X0119458Y0262287D01*
X0117376Y0260205D01*
X0116344Y0257713D01*
X0072606Y0257713D01*
X0070143Y0256693D01*
X0048844Y0235394D01*
X0046959Y0233509D01*
X0045939Y0231047D01*
X0045939Y0216689D01*
X0045900Y0216594D01*
X0045900Y0213928D01*
X0046920Y0211466D01*
X0047201Y0211185D01*
X0048022Y0209202D01*
X0049541Y0207683D01*
X0050515Y0207280D01*
X0048787Y0207280D01*
X0046324Y0206260D01*
X0044440Y0204375D01*
X0043791Y0203727D01*
X0043254Y0203504D01*
X0041369Y0201619D01*
X0026118Y0186369D01*
X0026118Y0188308D01*
X0025296Y0190292D01*
X0023777Y0191811D01*
X0022758Y0192234D01*
X0023777Y0192656D01*
X0025296Y0194175D01*
X0026118Y0196159D01*
X0026118Y0198308D01*
X0025296Y0200292D01*
X0024182Y0201407D01*
X0024182Y0240797D01*
X0027698Y0244313D01*
X0027744Y0244313D01*
X0028776Y0241821D01*
X0030858Y0239740D01*
X0033578Y0238613D01*
X0036522Y0238613D01*
X0039241Y0239740D01*
X0041323Y0241821D01*
X0042450Y0244541D01*
X0042450Y0257485D01*
X0041323Y0260205D01*
X0039241Y0262287D01*
X0036522Y0263413D01*
X0033578Y0263413D01*
X0030858Y0262287D01*
X0028776Y0260205D01*
X0027744Y0257713D01*
X0023590Y0257713D01*
X0021128Y0256693D01*
X0013687Y0249252D01*
X0011802Y0247367D01*
X0011507Y0246656D01*
X0011507Y0258729D01*
X0014183Y0258012D01*
X0017316Y0258012D01*
X0020343Y0258822D01*
X0023056Y0260389D01*
X0025271Y0262604D01*
X0026838Y0265318D01*
X0027649Y0268344D01*
X0027649Y0271477D01*
X0026932Y0274153D01*
X0313553Y0274153D01*
X0312888Y0273488D01*
X0289146Y0273488D01*
X0287823Y0272940D01*
X0284859Y0269976D01*
X0280374Y0269976D01*
X0279491Y0269611D01*
X0278816Y0268936D01*
X0278451Y0268054D01*
X0278451Y0260000D01*
X0278451Y0260782D02*
X0224117Y0260782D01*
X0220919Y0263981D02*
X0278451Y0263981D01*
X0278451Y0267179D02*
X0027337Y0267179D01*
X0026066Y0263981D02*
X0152395Y0263981D01*
X0150187Y0260782D02*
X0129346Y0260782D01*
X0117954Y0260782D02*
X0040746Y0260782D01*
X0042409Y0257584D02*
X0072293Y0257584D01*
X0067835Y0254385D02*
X0042450Y0254385D01*
X0042450Y0251187D02*
X0064637Y0251187D01*
X0061438Y0247988D02*
X0042450Y0247988D01*
X0042450Y0244790D02*
X0058240Y0244790D01*
X0055041Y0241591D02*
X0041093Y0241591D01*
X0051843Y0238393D02*
X0024182Y0238393D01*
X0024182Y0235194D02*
X0048644Y0235194D01*
X0046332Y0231996D02*
X0024182Y0231996D01*
X0024182Y0228797D02*
X0045939Y0228797D01*
X0045939Y0225598D02*
X0024182Y0225598D01*
X0024182Y0222400D02*
X0045939Y0222400D01*
X0045939Y0219201D02*
X0024182Y0219201D01*
X0024182Y0216003D02*
X0045900Y0216003D01*
X0046366Y0212804D02*
X0024182Y0212804D01*
X0024182Y0209606D02*
X0047855Y0209606D01*
X0046680Y0206407D02*
X0024182Y0206407D01*
X0024182Y0203209D02*
X0042958Y0203209D01*
X0039760Y0200010D02*
X0025413Y0200010D01*
X0026118Y0196812D02*
X0036561Y0196812D01*
X0033363Y0193613D02*
X0024735Y0193613D01*
X0025174Y0190415D02*
X0030164Y0190415D01*
X0026966Y0187216D02*
X0026118Y0187216D01*
X0039519Y0180819D02*
X0068873Y0180819D01*
X0070769Y0177621D02*
X0036321Y0177621D01*
X0033122Y0174422D02*
X0073968Y0174422D01*
X0077166Y0171224D02*
X0029457Y0171224D01*
X0029601Y0166258D02*
X0027179Y0166258D01*
X0027179Y0160410D01*
X0033027Y0160410D01*
X0033027Y0162832D01*
X0029601Y0166258D01*
X0031032Y0164827D02*
X0114823Y0164827D01*
X0113498Y0168025D02*
X0011507Y0168025D01*
X0011507Y0164827D02*
X0023325Y0164827D01*
X0024756Y0166258D02*
X0021331Y0162832D01*
X0021331Y0160410D01*
X0027178Y0160410D01*
X0027178Y0160410D01*
X0027179Y0160410D02*
X0027179Y0166258D01*
X0024756Y0166258D01*
X0027179Y0164827D02*
X0027179Y0164827D01*
X0027179Y0161628D02*
X0027179Y0161628D01*
X0027179Y0160410D02*
X0027179Y0160410D01*
X0027179Y0160410D01*
X0033027Y0160410D01*
X0033027Y0157987D01*
X0029601Y0154562D01*
X0027179Y0154562D01*
X0027179Y0160410D01*
X0027179Y0160410D01*
X0027179Y0154562D01*
X0024756Y0154562D01*
X0021331Y0157987D01*
X0021331Y0160410D01*
X0027178Y0160410D01*
X0027179Y0158430D02*
X0027179Y0158430D01*
X0027179Y0155231D02*
X0027179Y0155231D01*
X0030271Y0155231D02*
X0072724Y0155231D01*
X0068633Y0152033D02*
X0011507Y0152033D01*
X0011507Y0148834D02*
X0065434Y0148834D01*
X0062236Y0145636D02*
X0011507Y0145636D01*
X0011507Y0142437D02*
X0059037Y0142437D01*
X0056149Y0139239D02*
X0011507Y0139239D01*
X0011507Y0136040D02*
X0054680Y0136040D01*
X0054680Y0132842D02*
X0011507Y0132842D01*
X0011507Y0129643D02*
X0054680Y0129643D01*
X0054680Y0126445D02*
X0011507Y0126445D01*
X0011507Y0123246D02*
X0054680Y0123246D01*
X0054714Y0120048D02*
X0011507Y0120048D01*
X0011507Y0116849D02*
X0054732Y0116849D01*
X0053211Y0113651D02*
X0011507Y0113651D01*
X0011507Y0110452D02*
X0050013Y0110452D01*
X0046814Y0107254D02*
X0011507Y0107254D01*
X0011507Y0104055D02*
X0043616Y0104055D01*
X0040417Y0100857D02*
X0011507Y0100857D01*
X0011507Y0097658D02*
X0037219Y0097658D01*
X0034020Y0094460D02*
X0011507Y0094460D01*
X0011507Y0091261D02*
X0028381Y0091261D01*
X0028381Y0088063D02*
X0011507Y0088063D01*
X0011507Y0084864D02*
X0028381Y0084864D01*
X0028381Y0081665D02*
X0011507Y0081665D01*
X0011507Y0078467D02*
X0045916Y0078467D01*
X0045197Y0081665D02*
X0043024Y0081665D01*
X0043375Y0084864D02*
X0045380Y0084864D01*
X0047829Y0075268D02*
X0011507Y0075268D01*
X0011507Y0072070D02*
X0052045Y0072070D01*
X0061359Y0072070D02*
X0188102Y0072070D01*
X0188102Y0075268D02*
X0065575Y0075268D01*
X0067488Y0078467D02*
X0188102Y0078467D01*
X0184381Y0081665D02*
X0068208Y0081665D01*
X0068025Y0084864D02*
X0184381Y0084864D01*
X0184381Y0088063D02*
X0066872Y0088063D01*
X0064379Y0091261D02*
X0184381Y0091261D01*
X0192655Y0097658D02*
X0160861Y0097658D01*
X0161097Y0097735D02*
X0160318Y0097482D01*
X0159510Y0097354D01*
X0156501Y0097354D01*
X0156501Y0102554D01*
X0164301Y0102554D01*
X0164301Y0102963D01*
X0164173Y0103772D01*
X0163920Y0104550D01*
X0163548Y0105279D01*
X0163067Y0105941D01*
X0162488Y0106520D01*
X0161826Y0107001D01*
X0161097Y0107373D01*
X0160318Y0107626D01*
X0159510Y0107754D01*
X0156501Y0107754D01*
X0156501Y0102554D01*
X0156501Y0102554D01*
X0156501Y0102554D01*
X0164301Y0102554D01*
X0164301Y0102145D01*
X0164173Y0101336D01*
X0163920Y0100558D01*
X0163548Y0099828D01*
X0163067Y0099166D01*
X0162488Y0098588D01*
X0161826Y0098106D01*
X0161097Y0097735D01*
X0164017Y0100857D02*
X0189192Y0100857D01*
X0189111Y0104055D02*
X0164081Y0104055D01*
X0161331Y0107254D02*
X0168277Y0107254D01*
X0168449Y0107155D02*
X0173052Y0105921D01*
X0177818Y0105921D01*
X0182421Y0107155D01*
X0186549Y0109537D01*
X0189919Y0112907D01*
X0190246Y0113474D01*
X0190246Y0111941D01*
X0190346Y0111438D01*
X0190542Y0110965D01*
X0190826Y0110539D01*
X0191188Y0110177D01*
X0191614Y0109893D01*
X0192087Y0109697D01*
X0192590Y0109597D01*
X0195798Y0109597D01*
X0195798Y0116134D01*
X0195798Y0122671D01*
X0193535Y0122671D01*
X0193535Y0126404D01*
X0192301Y0131007D01*
X0189919Y0135135D01*
X0186549Y0138505D01*
X0182421Y0140888D01*
X0177818Y0142121D01*
X0173052Y0142121D01*
X0168449Y0140888D01*
X0164321Y0138505D01*
X0160951Y0135135D01*
X0158568Y0131007D01*
X0157335Y0126404D01*
X0157335Y0121638D01*
X0158568Y0117035D01*
X0160951Y0112907D01*
X0164321Y0109537D01*
X0168449Y0107155D01*
X0163407Y0110452D02*
X0132227Y0110452D01*
X0130879Y0109104D02*
X0126752Y0106721D01*
X0122149Y0105488D01*
X0117383Y0105488D01*
X0112779Y0106721D01*
X0108652Y0109104D01*
X0105282Y0112474D01*
X0102899Y0116602D01*
X0101666Y0121205D01*
X0101666Y0125971D01*
X0102899Y0130574D01*
X0105282Y0134702D01*
X0108652Y0138072D01*
X0112779Y0140454D01*
X0117383Y0141688D01*
X0122149Y0141688D01*
X0126752Y0140454D01*
X0130879Y0138072D01*
X0134249Y0134702D01*
X0136632Y0130574D01*
X0137866Y0125971D01*
X0137866Y0121205D01*
X0136632Y0116602D01*
X0134249Y0112474D01*
X0130879Y0109104D01*
X0127674Y0107254D02*
X0151670Y0107254D01*
X0151905Y0107373D02*
X0151175Y0107001D01*
X0150513Y0106520D01*
X0149934Y0105941D01*
X0149453Y0105279D01*
X0149082Y0104550D01*
X0148829Y0103772D01*
X0148701Y0102963D01*
X0148701Y0102554D01*
X0156501Y0102554D01*
X0156501Y0107754D01*
X0153491Y0107754D01*
X0152683Y0107626D01*
X0151905Y0107373D01*
X0148921Y0104055D02*
X0062566Y0104055D01*
X0059367Y0100857D02*
X0148985Y0100857D01*
X0149082Y0100558D02*
X0148829Y0101336D01*
X0148701Y0102145D01*
X0148701Y0102554D01*
X0156501Y0102554D01*
X0156501Y0102554D01*
X0156501Y0102554D01*
X0156501Y0097354D01*
X0153491Y0097354D01*
X0152683Y0097482D01*
X0151905Y0097735D01*
X0151175Y0098106D01*
X0150513Y0098588D01*
X0149934Y0099166D01*
X0149453Y0099828D01*
X0149082Y0100558D01*
X0152141Y0097658D02*
X0056169Y0097658D01*
X0052970Y0094460D02*
X0222938Y0094460D01*
X0223021Y0094335D02*
X0223383Y0093973D01*
X0223809Y0093688D01*
X0224282Y0093492D01*
X0224785Y0093392D01*
X0228978Y0093392D01*
X0229162Y0093392D01*
X0226803Y0092031D01*
X0224661Y0089889D01*
X0223146Y0087265D01*
X0222362Y0084339D01*
X0222362Y0081309D01*
X0223146Y0078383D01*
X0224661Y0075760D01*
X0226803Y0073617D01*
X0229427Y0072103D01*
X0232353Y0071319D01*
X0235382Y0071319D01*
X0238309Y0072103D01*
X0240932Y0073617D01*
X0243074Y0075760D01*
X0244589Y0078383D01*
X0245373Y0081309D01*
X0245373Y0084339D01*
X0244589Y0087265D01*
X0243074Y0089889D01*
X0240932Y0092031D01*
X0238309Y0093546D01*
X0235382Y0094330D01*
X0234929Y0094330D01*
X0234934Y0094335D01*
X0235219Y0094761D01*
X0235415Y0095234D01*
X0235515Y0095736D01*
X0235515Y0098945D01*
X0228978Y0098945D01*
X0228978Y0093392D01*
X0228978Y0098945D01*
X0228978Y0098945D01*
X0228978Y0098945D01*
X0235515Y0098945D01*
X0235515Y0102154D01*
X0235415Y0102656D01*
X0235219Y0103130D01*
X0234934Y0103555D01*
X0234572Y0103918D01*
X0234146Y0104202D01*
X0233673Y0104398D01*
X0233171Y0104498D01*
X0228978Y0104498D01*
X0228978Y0098945D01*
X0222441Y0098945D01*
X0222441Y0095736D01*
X0222541Y0095234D01*
X0222737Y0094761D01*
X0223021Y0094335D01*
X0222441Y0097658D02*
X0200347Y0097658D01*
X0205912Y0093105D02*
X0205546Y0092223D01*
X0205546Y0081425D01*
X0205912Y0080543D01*
X0206587Y0079868D01*
X0207469Y0079503D01*
X0218266Y0079503D01*
X0219148Y0079868D01*
X0219824Y0080543D01*
X0220189Y0081425D01*
X0220189Y0092223D01*
X0219824Y0093105D01*
X0219148Y0093780D01*
X0218266Y0094145D01*
X0207469Y0094145D01*
X0206587Y0093780D01*
X0205912Y0093105D01*
X0205546Y0091261D02*
X0199024Y0091261D01*
X0199024Y0088063D02*
X0205546Y0088063D01*
X0205546Y0084864D02*
X0199024Y0084864D01*
X0199024Y0081665D02*
X0205546Y0081665D01*
X0195302Y0078467D02*
X0223124Y0078467D01*
X0222362Y0081665D02*
X0220189Y0081665D01*
X0220189Y0084864D02*
X0222503Y0084864D01*
X0223607Y0088063D02*
X0220189Y0088063D01*
X0220189Y0091261D02*
X0226033Y0091261D01*
X0228978Y0094460D02*
X0228978Y0094460D01*
X0228978Y0097658D02*
X0228978Y0097658D01*
X0228978Y0098945D02*
X0228978Y0098945D01*
X0228978Y0098945D01*
X0222441Y0098945D01*
X0222441Y0102154D01*
X0222541Y0102656D01*
X0222737Y0103130D01*
X0223021Y0103555D01*
X0223383Y0103918D01*
X0223809Y0104202D01*
X0224282Y0104398D01*
X0224785Y0104498D01*
X0228978Y0104498D01*
X0228978Y0098945D01*
X0228978Y0100857D02*
X0228978Y0100857D01*
X0228978Y0104055D02*
X0228978Y0104055D01*
X0234366Y0104055D02*
X0238207Y0104055D01*
X0237501Y0104761D02*
X0237501Y0104761D01*
X0235515Y0100857D02*
X0270697Y0100857D01*
X0273895Y0097658D02*
X0235515Y0097658D01*
X0235018Y0094460D02*
X0284394Y0094460D01*
X0284394Y0091261D02*
X0241702Y0091261D01*
X0244129Y0088063D02*
X0284394Y0088063D01*
X0284394Y0084864D02*
X0245233Y0084864D01*
X0245373Y0081665D02*
X0284394Y0081665D01*
X0284394Y0078467D02*
X0244612Y0078467D01*
X0242583Y0075268D02*
X0283339Y0075268D01*
X0280140Y0072070D02*
X0238186Y0072070D01*
X0229549Y0072070D02*
X0195302Y0072070D01*
X0195302Y0075268D02*
X0225152Y0075268D01*
X0197943Y0068871D02*
X0276942Y0068871D01*
X0280727Y0062474D02*
X0393614Y0062474D01*
X0393614Y0059276D02*
X0277050Y0059276D01*
X0283926Y0065673D02*
X0393614Y0065673D01*
X0393614Y0068871D02*
X0287124Y0068871D01*
X0290323Y0072070D02*
X0393614Y0072070D01*
X0393614Y0075268D02*
X0291594Y0075268D01*
X0291594Y0078467D02*
X0393614Y0078467D01*
X0393614Y0081665D02*
X0376189Y0081665D01*
X0376189Y0081425D02*
X0375824Y0080543D01*
X0375148Y0079868D01*
X0374266Y0079503D01*
X0363469Y0079503D01*
X0362587Y0079868D01*
X0361912Y0080543D01*
X0361546Y0081425D01*
X0361546Y0092223D01*
X0361912Y0093105D01*
X0362168Y0093361D01*
X0362168Y0107314D01*
X0363188Y0109777D01*
X0369404Y0115993D01*
X0369404Y0130817D01*
X0369038Y0131183D01*
X0368216Y0133167D01*
X0368216Y0135316D01*
X0369038Y0137300D01*
X0370557Y0138819D01*
X0371576Y0139241D01*
X0370557Y0139664D01*
X0369038Y0141183D01*
X0368216Y0143167D01*
X0368216Y0145316D01*
X0369038Y0147300D01*
X0370557Y0148819D01*
X0371310Y0149131D01*
X0370681Y0149452D01*
X0369968Y0149970D01*
X0369344Y0150593D01*
X0368826Y0151306D01*
X0368426Y0152092D01*
X0368154Y0152930D01*
X0368016Y0153801D01*
X0368016Y0154241D01*
X0376616Y0154241D01*
X0376616Y0154242D01*
X0376616Y0154242D01*
X0376616Y0159841D01*
X0380056Y0159841D01*
X0380927Y0159704D01*
X0381765Y0159431D01*
X0382551Y0159031D01*
X0383264Y0158513D01*
X0383887Y0157890D01*
X0384405Y0157177D01*
X0384805Y0156391D01*
X0385078Y0155553D01*
X0385216Y0154682D01*
X0385216Y0154242D01*
X0376616Y0154242D01*
X0376616Y0159841D01*
X0373175Y0159841D01*
X0372304Y0159704D01*
X0371466Y0159431D01*
X0370681Y0159031D01*
X0369968Y0158513D01*
X0369344Y0157890D01*
X0368826Y0157177D01*
X0368426Y0156391D01*
X0368154Y0155553D01*
X0368016Y0154682D01*
X0368016Y0154242D01*
X0376616Y0154242D01*
X0376616Y0154241D01*
X0385216Y0154241D01*
X0385216Y0153801D01*
X0385078Y0152930D01*
X0384805Y0152092D01*
X0384405Y0151306D01*
X0383887Y0150593D01*
X0383264Y0149970D01*
X0382551Y0149452D01*
X0381922Y0149131D01*
X0382675Y0148819D01*
X0384194Y0147300D01*
X0385016Y0145316D01*
X0385016Y0143167D01*
X0384194Y0141183D01*
X0382675Y0139664D01*
X0381656Y0139241D01*
X0382675Y0138819D01*
X0384194Y0137300D01*
X0385016Y0135316D01*
X0385016Y0133167D01*
X0384194Y0131183D01*
X0382804Y0129793D01*
X0382804Y0111885D01*
X0381784Y0109423D01*
X0379899Y0107538D01*
X0375568Y0103206D01*
X0375568Y0093361D01*
X0375824Y0093105D01*
X0376189Y0092223D01*
X0376189Y0081425D01*
X0376189Y0084864D02*
X0393614Y0084864D01*
X0393614Y0088063D02*
X0376189Y0088063D01*
X0376189Y0091261D02*
X0393614Y0091261D01*
X0393614Y0094460D02*
X0375568Y0094460D01*
X0375568Y0097658D02*
X0393614Y0097658D01*
X0393614Y0100857D02*
X0375568Y0100857D01*
X0376416Y0104055D02*
X0393614Y0104055D01*
X0393614Y0107254D02*
X0379615Y0107254D01*
X0382210Y0110452D02*
X0393614Y0110452D01*
X0393614Y0113651D02*
X0382804Y0113651D01*
X0382804Y0116849D02*
X0393614Y0116849D01*
X0393614Y0120048D02*
X0382804Y0120048D01*
X0382804Y0123246D02*
X0393614Y0123246D01*
X0393614Y0126445D02*
X0382804Y0126445D01*
X0382804Y0129643D02*
X0393614Y0129643D01*
X0393614Y0132842D02*
X0384881Y0132842D01*
X0384716Y0136040D02*
X0393614Y0136040D01*
X0393614Y0139239D02*
X0381662Y0139239D01*
X0384713Y0142437D02*
X0393614Y0142437D01*
X0393614Y0145636D02*
X0384883Y0145636D01*
X0382639Y0148834D02*
X0393614Y0148834D01*
X0393614Y0152033D02*
X0384775Y0152033D01*
X0385129Y0155231D02*
X0393614Y0155231D01*
X0393614Y0158430D02*
X0383347Y0158430D01*
X0376616Y0158430D02*
X0376616Y0158430D01*
X0376616Y0155231D02*
X0376616Y0155231D01*
X0369884Y0158430D02*
X0345151Y0158430D01*
X0344936Y0158949D02*
X0343417Y0160468D01*
X0342398Y0160890D01*
X0343417Y0161312D01*
X0344936Y0162831D01*
X0345758Y0164816D01*
X0345758Y0166964D01*
X0344936Y0168949D01*
X0343417Y0170468D01*
X0341432Y0171290D01*
X0333284Y0171290D01*
X0331299Y0170468D01*
X0330130Y0169298D01*
X0325427Y0169298D01*
X0324104Y0168750D01*
X0322798Y0167444D01*
X0322798Y0167962D01*
X0322698Y0168464D01*
X0322503Y0168938D01*
X0322218Y0169363D01*
X0321856Y0169726D01*
X0321430Y0170010D01*
X0320957Y0170206D01*
X0320455Y0170306D01*
X0316261Y0170306D01*
X0312068Y0170306D01*
X0311566Y0170206D01*
X0311093Y0170010D01*
X0310808Y0169820D01*
X0309696Y0170933D01*
X0307858Y0171694D01*
X0300669Y0171694D01*
X0298831Y0170933D01*
X0297425Y0169526D01*
X0296664Y0167688D01*
X0296664Y0165699D01*
X0297425Y0163862D01*
X0298831Y0162455D01*
X0300669Y0161694D01*
X0307858Y0161694D01*
X0309696Y0162455D01*
X0309724Y0162484D01*
X0309724Y0161544D01*
X0309824Y0161042D01*
X0309993Y0160636D01*
X0309696Y0160933D01*
X0307858Y0161694D01*
X0300669Y0161694D01*
X0298831Y0160933D01*
X0297425Y0159526D01*
X0296664Y0157688D01*
X0296664Y0155699D01*
X0297425Y0153862D01*
X0298831Y0152455D01*
X0300669Y0151694D01*
X0307858Y0151694D01*
X0309696Y0152455D01*
X0311102Y0153862D01*
X0311864Y0155699D01*
X0311864Y0157688D01*
X0311119Y0159486D01*
X0311566Y0159300D01*
X0312068Y0159201D01*
X0316261Y0159201D01*
X0316261Y0164753D01*
X0316261Y0164753D01*
X0316261Y0159201D01*
X0319643Y0159201D01*
X0319643Y0106607D01*
X0318931Y0106312D01*
X0318255Y0105637D01*
X0317890Y0104755D01*
X0317890Y0095926D01*
X0318255Y0095044D01*
X0318931Y0094369D01*
X0319813Y0094003D01*
X0326673Y0094003D01*
X0327555Y0094369D01*
X0328230Y0095044D01*
X0328596Y0095926D01*
X0328596Y0104755D01*
X0328230Y0105637D01*
X0327555Y0106312D01*
X0326843Y0106607D01*
X0326843Y0161306D01*
X0327634Y0162098D01*
X0330513Y0162098D01*
X0331299Y0161312D01*
X0332318Y0160890D01*
X0331299Y0160468D01*
X0329780Y0158949D01*
X0328958Y0156964D01*
X0328958Y0154816D01*
X0329780Y0152831D01*
X0331299Y0151312D01*
X0332318Y0150890D01*
X0331299Y0150468D01*
X0329780Y0148949D01*
X0328958Y0146964D01*
X0328958Y0144816D01*
X0329780Y0142831D01*
X0331299Y0141312D01*
X0332318Y0140890D01*
X0331299Y0140468D01*
X0329780Y0138949D01*
X0328958Y0136964D01*
X0328958Y0134816D01*
X0329780Y0132831D01*
X0331299Y0131312D01*
X0332318Y0130890D01*
X0331299Y0130468D01*
X0329780Y0128949D01*
X0328958Y0126964D01*
X0328958Y0124816D01*
X0329780Y0122831D01*
X0331299Y0121312D01*
X0332052Y0121000D01*
X0331423Y0120680D01*
X0330710Y0120161D01*
X0330087Y0119538D01*
X0329569Y0118825D01*
X0329169Y0118040D01*
X0328896Y0117201D01*
X0328758Y0116331D01*
X0328758Y0115890D01*
X0337358Y0115890D01*
X0337358Y0115890D01*
X0328758Y0115890D01*
X0328758Y0115449D01*
X0328896Y0114579D01*
X0329169Y0113740D01*
X0329569Y0112955D01*
X0330087Y0112242D01*
X0330710Y0111619D01*
X0331423Y0111100D01*
X0332209Y0110700D01*
X0333047Y0110428D01*
X0333917Y0110290D01*
X0337358Y0110290D01*
X0337358Y0115890D01*
X0337358Y0115890D01*
X0337358Y0110290D01*
X0340799Y0110290D01*
X0341670Y0110428D01*
X0342508Y0110700D01*
X0343293Y0111100D01*
X0344006Y0111619D01*
X0344630Y0112242D01*
X0345148Y0112955D01*
X0345548Y0113740D01*
X0345820Y0114579D01*
X0345958Y0115449D01*
X0345958Y0115890D01*
X0345958Y0116331D01*
X0345820Y0117201D01*
X0345548Y0118040D01*
X0345148Y0118825D01*
X0344630Y0119538D01*
X0344006Y0120161D01*
X0343293Y0120680D01*
X0342664Y0121000D01*
X0343417Y0121312D01*
X0344936Y0122831D01*
X0345758Y0124816D01*
X0345758Y0126964D01*
X0344936Y0128949D01*
X0343417Y0130468D01*
X0342398Y0130890D01*
X0343417Y0131312D01*
X0344936Y0132831D01*
X0345758Y0134816D01*
X0345758Y0136964D01*
X0344936Y0138949D01*
X0343417Y0140468D01*
X0342398Y0140890D01*
X0343417Y0141312D01*
X0344936Y0142831D01*
X0345758Y0144816D01*
X0345758Y0146964D01*
X0344936Y0148949D01*
X0343417Y0150468D01*
X0342398Y0150890D01*
X0343417Y0151312D01*
X0344936Y0152831D01*
X0345758Y0154816D01*
X0345758Y0156964D01*
X0344936Y0158949D01*
X0343733Y0161628D02*
X0393614Y0161628D01*
X0393614Y0164827D02*
X0345758Y0164827D01*
X0345319Y0168025D02*
X0393614Y0168025D01*
X0393614Y0171224D02*
X0341592Y0171224D01*
X0333124Y0171224D02*
X0320705Y0171224D01*
X0322598Y0174422D02*
X0393614Y0174422D01*
X0393614Y0177621D02*
X0322598Y0177621D01*
X0322257Y0180819D02*
X0393614Y0180819D01*
X0393614Y0184018D02*
X0311336Y0184018D01*
X0316064Y0184440D02*
X0316064Y0189599D01*
X0321813Y0189599D01*
X0316064Y0189599D01*
X0316064Y0189599D01*
X0316064Y0184440D01*
X0316064Y0187216D02*
X0316064Y0187216D01*
X0316064Y0189599D02*
X0316064Y0189599D01*
X0321813Y0190415D02*
X0326217Y0190415D01*
X0321813Y0187216D02*
X0332545Y0187216D01*
X0338231Y0187216D02*
X0393614Y0187216D01*
X0393614Y0190415D02*
X0340373Y0190415D01*
X0339901Y0193613D02*
X0393614Y0193613D01*
X0393614Y0196812D02*
X0366721Y0196812D01*
X0367004Y0197017D02*
X0367627Y0197641D01*
X0368145Y0198354D01*
X0368546Y0199139D01*
X0368818Y0199977D01*
X0368956Y0200848D01*
X0368956Y0201289D01*
X0360356Y0201289D01*
X0360356Y0201289D01*
X0360356Y0201289D01*
X0360356Y0195689D01*
X0363797Y0195689D01*
X0364667Y0195827D01*
X0365506Y0196099D01*
X0366291Y0196499D01*
X0367004Y0197017D01*
X0368823Y0200010D02*
X0393614Y0200010D01*
X0393614Y0203209D02*
X0368620Y0203209D01*
X0365682Y0206407D02*
X0393614Y0206407D01*
X0393614Y0209606D02*
X0368504Y0209606D01*
X0368573Y0212804D02*
X0393614Y0212804D01*
X0393614Y0216003D02*
X0366086Y0216003D01*
X0368336Y0219201D02*
X0393614Y0219201D01*
X0393614Y0222400D02*
X0368741Y0222400D01*
X0366683Y0225598D02*
X0393614Y0225598D01*
X0393614Y0228797D02*
X0368169Y0228797D01*
X0368756Y0231996D02*
X0393614Y0231996D01*
X0393614Y0235194D02*
X0367087Y0235194D01*
X0368001Y0238393D02*
X0393614Y0238393D01*
X0393614Y0241591D02*
X0368756Y0241591D01*
X0367492Y0244790D02*
X0393614Y0244790D01*
X0393614Y0247988D02*
X0352062Y0247988D01*
X0351584Y0247510D02*
X0353103Y0249029D01*
X0353925Y0251014D01*
X0353925Y0253162D01*
X0353103Y0255147D01*
X0351584Y0256666D01*
X0349599Y0257488D01*
X0341451Y0257488D01*
X0339466Y0256666D01*
X0337947Y0255147D01*
X0337125Y0253162D01*
X0337125Y0251014D01*
X0337947Y0249029D01*
X0339466Y0247510D01*
X0341451Y0246688D01*
X0349599Y0246688D01*
X0351584Y0247510D01*
X0353220Y0244790D02*
X0319505Y0244790D01*
X0326462Y0247988D02*
X0338989Y0247988D01*
X0337125Y0251187D02*
X0328325Y0251187D01*
X0327819Y0254385D02*
X0337632Y0254385D01*
X0337802Y0267179D02*
X0327648Y0267179D01*
X0328325Y0270378D02*
X0337125Y0270378D01*
X0338576Y0273576D02*
X0326874Y0273576D01*
X0312976Y0273576D02*
X0027086Y0273576D01*
X0027649Y0270378D02*
X0285260Y0270378D01*
X0295198Y0264027D02*
X0295198Y0264027D01*
X0295197Y0263981D02*
X0295197Y0263981D01*
X0295197Y0260782D02*
X0295197Y0260782D01*
X0300947Y0260782D02*
X0382066Y0260782D01*
X0379449Y0263981D02*
X0300947Y0263981D01*
X0312032Y0254385D02*
X0287601Y0254385D01*
X0287601Y0251187D02*
X0299444Y0251187D01*
X0296788Y0247988D02*
X0287601Y0247988D01*
X0287601Y0244790D02*
X0297040Y0244790D01*
X0300421Y0241591D02*
X0287601Y0241591D01*
X0287601Y0238393D02*
X0296955Y0238393D01*
X0296873Y0235194D02*
X0287601Y0235194D01*
X0287601Y0231996D02*
X0299941Y0231996D01*
X0297123Y0228797D02*
X0287601Y0228797D01*
X0287601Y0225598D02*
X0296705Y0225598D01*
X0298964Y0222400D02*
X0287601Y0222400D01*
X0287601Y0219201D02*
X0297290Y0219201D01*
X0296664Y0216003D02*
X0287601Y0216003D01*
X0287601Y0212804D02*
X0298482Y0212804D01*
X0297504Y0209606D02*
X0287601Y0209606D01*
X0286196Y0206407D02*
X0296664Y0206407D01*
X0298077Y0203209D02*
X0282791Y0203209D01*
X0280618Y0200010D02*
X0297909Y0200010D01*
X0296664Y0196812D02*
X0289491Y0196812D01*
X0292689Y0193613D02*
X0297673Y0193613D01*
X0298031Y0190415D02*
X0295888Y0190415D01*
X0292103Y0184018D02*
X0291572Y0184018D01*
X0291572Y0180819D02*
X0295301Y0180819D01*
X0296664Y0177621D02*
X0291572Y0177621D01*
X0291572Y0174422D02*
X0297192Y0174422D01*
X0299534Y0171224D02*
X0291572Y0171224D01*
X0291572Y0168025D02*
X0296803Y0168025D01*
X0297025Y0164827D02*
X0291572Y0164827D01*
X0291572Y0161628D02*
X0300510Y0161628D01*
X0296971Y0158430D02*
X0291572Y0158430D01*
X0291572Y0155231D02*
X0296857Y0155231D01*
X0299851Y0152033D02*
X0291572Y0152033D01*
X0291572Y0148834D02*
X0297138Y0148834D01*
X0297425Y0149526D02*
X0296664Y0147688D01*
X0296664Y0145699D01*
X0297425Y0143862D01*
X0298831Y0142455D01*
X0300669Y0141694D01*
X0307858Y0141694D01*
X0309696Y0142455D01*
X0311102Y0143862D01*
X0311864Y0145699D01*
X0311864Y0147688D01*
X0311102Y0149526D01*
X0309696Y0150933D01*
X0307858Y0151694D01*
X0300669Y0151694D01*
X0298831Y0150933D01*
X0297425Y0149526D01*
X0296690Y0145636D02*
X0291572Y0145636D01*
X0291572Y0142437D02*
X0298875Y0142437D01*
X0298831Y0140933D02*
X0297425Y0139526D01*
X0296664Y0137688D01*
X0296664Y0135699D01*
X0297425Y0133862D01*
X0298831Y0132455D01*
X0300669Y0131694D01*
X0307858Y0131694D01*
X0309696Y0132455D01*
X0311102Y0133862D01*
X0311864Y0135699D01*
X0311864Y0137688D01*
X0311102Y0139526D01*
X0309696Y0140933D01*
X0307858Y0141694D01*
X0300669Y0141694D01*
X0298831Y0140933D01*
X0297306Y0139239D02*
X0291572Y0139239D01*
X0291572Y0136040D02*
X0296664Y0136040D01*
X0298445Y0132842D02*
X0291572Y0132842D01*
X0291572Y0129643D02*
X0297542Y0129643D01*
X0297425Y0129526D02*
X0296664Y0127688D01*
X0296664Y0125699D01*
X0297425Y0123862D01*
X0298831Y0122455D01*
X0300669Y0121694D01*
X0307858Y0121694D01*
X0309696Y0122455D01*
X0311102Y0123862D01*
X0311864Y0125699D01*
X0311864Y0127688D01*
X0311102Y0129526D01*
X0309696Y0130933D01*
X0307858Y0131694D01*
X0300669Y0131694D01*
X0298831Y0130933D01*
X0297425Y0129526D01*
X0296664Y0126445D02*
X0291572Y0126445D01*
X0291572Y0123246D02*
X0298040Y0123246D01*
X0298831Y0120933D02*
X0297425Y0119526D01*
X0296664Y0117688D01*
X0296664Y0115699D01*
X0297107Y0114629D01*
X0296116Y0113638D01*
X0295568Y0112315D01*
X0295568Y0106576D01*
X0295541Y0106576D01*
X0294659Y0106210D01*
X0293984Y0105535D01*
X0293619Y0104653D01*
X0293619Y0096600D01*
X0293984Y0095718D01*
X0294659Y0095043D01*
X0295541Y0094677D01*
X0302795Y0094677D01*
X0303677Y0095043D01*
X0304353Y0095718D01*
X0304718Y0096600D01*
X0304718Y0104653D01*
X0304353Y0105535D01*
X0303677Y0106210D01*
X0302795Y0106576D01*
X0302768Y0106576D01*
X0302768Y0110108D01*
X0304355Y0111694D01*
X0304938Y0111694D01*
X0308016Y0108616D01*
X0308016Y0106677D01*
X0308002Y0106677D01*
X0307119Y0106312D01*
X0306444Y0105637D01*
X0306079Y0104755D01*
X0306079Y0095926D01*
X0306444Y0095044D01*
X0307119Y0094369D01*
X0308002Y0094003D01*
X0314862Y0094003D01*
X0315744Y0094369D01*
X0316419Y0095044D01*
X0316784Y0095926D01*
X0316784Y0104755D01*
X0316419Y0105637D01*
X0315744Y0106312D01*
X0315216Y0106531D01*
X0315216Y0110824D01*
X0314668Y0112147D01*
X0313655Y0113160D01*
X0311644Y0115170D01*
X0311864Y0115699D01*
X0311864Y0117688D01*
X0311102Y0119526D01*
X0309696Y0120933D01*
X0307858Y0121694D01*
X0300669Y0121694D01*
X0298831Y0120933D01*
X0297946Y0120048D02*
X0291572Y0120048D01*
X0291572Y0116849D02*
X0296664Y0116849D01*
X0296129Y0113651D02*
X0291572Y0113651D01*
X0291572Y0110452D02*
X0295568Y0110452D01*
X0295568Y0107254D02*
X0291572Y0107254D01*
X0293521Y0104055D02*
X0293619Y0104055D01*
X0293619Y0100857D02*
X0293521Y0100857D01*
X0293521Y0097658D02*
X0293619Y0097658D01*
X0291594Y0094460D02*
X0307028Y0094460D01*
X0306079Y0097658D02*
X0304718Y0097658D01*
X0304718Y0100857D02*
X0306079Y0100857D01*
X0306079Y0104055D02*
X0304718Y0104055D01*
X0302768Y0107254D02*
X0308016Y0107254D01*
X0306180Y0110452D02*
X0303113Y0110452D01*
X0313164Y0113651D02*
X0319643Y0113651D01*
X0319643Y0116849D02*
X0311864Y0116849D01*
X0310581Y0120048D02*
X0319643Y0120048D01*
X0319643Y0123246D02*
X0310487Y0123246D01*
X0311864Y0126445D02*
X0319643Y0126445D01*
X0326843Y0126445D02*
X0328958Y0126445D01*
X0329608Y0123246D02*
X0326843Y0123246D01*
X0326843Y0120048D02*
X0330596Y0120048D01*
X0328840Y0116849D02*
X0326843Y0116849D01*
X0326843Y0113651D02*
X0329214Y0113651D01*
X0326843Y0110452D02*
X0332972Y0110452D01*
X0337358Y0110452D02*
X0337358Y0110452D01*
X0337358Y0113651D02*
X0337358Y0113651D01*
X0337358Y0115890D02*
X0337358Y0115890D01*
X0345958Y0115890D01*
X0337358Y0115890D01*
X0341744Y0110452D02*
X0363863Y0110452D01*
X0362168Y0107254D02*
X0326843Y0107254D01*
X0328596Y0104055D02*
X0362168Y0104055D01*
X0362168Y0100857D02*
X0328596Y0100857D01*
X0328596Y0097658D02*
X0362168Y0097658D01*
X0362168Y0094460D02*
X0327646Y0094460D01*
X0318840Y0094460D02*
X0315835Y0094460D01*
X0316784Y0097658D02*
X0317890Y0097658D01*
X0317890Y0100857D02*
X0316784Y0100857D01*
X0316784Y0104055D02*
X0317890Y0104055D01*
X0319643Y0107254D02*
X0315216Y0107254D01*
X0315216Y0110452D02*
X0319643Y0110452D01*
X0345502Y0113651D02*
X0367061Y0113651D01*
X0369404Y0116849D02*
X0345876Y0116849D01*
X0344120Y0120048D02*
X0369404Y0120048D01*
X0369404Y0123246D02*
X0345108Y0123246D01*
X0345758Y0126445D02*
X0369404Y0126445D01*
X0369404Y0129643D02*
X0344242Y0129643D01*
X0344940Y0132842D02*
X0368351Y0132842D01*
X0368516Y0136040D02*
X0345758Y0136040D01*
X0344646Y0139239D02*
X0371569Y0139239D01*
X0368518Y0142437D02*
X0344542Y0142437D01*
X0345758Y0145636D02*
X0368348Y0145636D01*
X0370593Y0148834D02*
X0344984Y0148834D01*
X0344138Y0152033D02*
X0368456Y0152033D01*
X0368103Y0155231D02*
X0345758Y0155231D01*
X0330579Y0152033D02*
X0326843Y0152033D01*
X0326843Y0148834D02*
X0329733Y0148834D01*
X0328958Y0145636D02*
X0326843Y0145636D01*
X0326843Y0142437D02*
X0330174Y0142437D01*
X0330070Y0139239D02*
X0326843Y0139239D01*
X0326843Y0136040D02*
X0328958Y0136040D01*
X0329776Y0132842D02*
X0326843Y0132842D01*
X0326843Y0129643D02*
X0330475Y0129643D01*
X0319643Y0129643D02*
X0310985Y0129643D01*
X0310082Y0132842D02*
X0319643Y0132842D01*
X0319643Y0136040D02*
X0311864Y0136040D01*
X0311221Y0139239D02*
X0319643Y0139239D01*
X0319643Y0142437D02*
X0309652Y0142437D01*
X0311837Y0145636D02*
X0319643Y0145636D01*
X0319643Y0148834D02*
X0311389Y0148834D01*
X0308676Y0152033D02*
X0319643Y0152033D01*
X0319643Y0155231D02*
X0311670Y0155231D01*
X0311556Y0158430D02*
X0319643Y0158430D01*
X0316261Y0161628D02*
X0316261Y0161628D01*
X0316261Y0164753D02*
X0316261Y0170306D01*
X0316261Y0164753D01*
X0316261Y0164753D01*
X0316261Y0164827D02*
X0316261Y0164827D01*
X0316261Y0168025D02*
X0316261Y0168025D01*
X0311817Y0171224D02*
X0308993Y0171224D01*
X0309724Y0161628D02*
X0308017Y0161628D01*
X0322786Y0168025D02*
X0323379Y0168025D01*
X0327165Y0161628D02*
X0330983Y0161628D01*
X0329565Y0158430D02*
X0326843Y0158430D01*
X0326843Y0155231D02*
X0328958Y0155231D01*
X0310266Y0180819D02*
X0309809Y0180819D01*
X0284372Y0180819D02*
X0280032Y0180819D01*
X0281982Y0177621D02*
X0284372Y0177621D01*
X0282064Y0176694D02*
X0274264Y0176694D01*
X0274264Y0176694D01*
X0282064Y0176694D01*
X0281542Y0174422D02*
X0284372Y0174422D01*
X0284372Y0171224D02*
X0278993Y0171224D01*
X0281724Y0168025D02*
X0284372Y0168025D01*
X0284372Y0164827D02*
X0281502Y0164827D01*
X0284372Y0161628D02*
X0278017Y0161628D01*
X0281556Y0158430D02*
X0284372Y0158430D01*
X0284372Y0155231D02*
X0281670Y0155231D01*
X0284372Y0152033D02*
X0278676Y0152033D01*
X0277858Y0151694D02*
X0270669Y0151694D01*
X0268831Y0152455D01*
X0268361Y0152925D01*
X0265875Y0152925D01*
X0265579Y0152213D01*
X0264904Y0151538D01*
X0264022Y0151172D01*
X0255401Y0151172D01*
X0256279Y0150294D01*
X0268192Y0150294D01*
X0268831Y0150933D01*
X0270669Y0151694D01*
X0277858Y0151694D01*
X0281389Y0148834D02*
X0284372Y0148834D01*
X0284372Y0145636D02*
X0281837Y0145636D01*
X0279652Y0142437D02*
X0284372Y0142437D01*
X0284372Y0139239D02*
X0281221Y0139239D01*
X0281864Y0136040D02*
X0284372Y0136040D01*
X0284372Y0132842D02*
X0280082Y0132842D01*
X0277858Y0131694D02*
X0270669Y0131694D01*
X0268831Y0132455D01*
X0268192Y0133094D01*
X0255593Y0133094D01*
X0254958Y0132459D01*
X0253939Y0132037D01*
X0254958Y0131615D01*
X0256279Y0130294D01*
X0268192Y0130294D01*
X0268831Y0130933D01*
X0270669Y0131694D01*
X0277858Y0131694D01*
X0280985Y0129643D02*
X0284372Y0129643D01*
X0284372Y0126445D02*
X0281864Y0126445D01*
X0280487Y0123246D02*
X0284372Y0123246D01*
X0284372Y0120048D02*
X0280581Y0120048D01*
X0277858Y0121694D02*
X0270669Y0121694D01*
X0268831Y0122455D01*
X0268192Y0123094D01*
X0255593Y0123094D01*
X0254958Y0122459D01*
X0253939Y0122037D01*
X0254958Y0121615D01*
X0256279Y0120294D01*
X0268192Y0120294D01*
X0268831Y0120933D01*
X0270669Y0121694D01*
X0277858Y0121694D01*
X0281864Y0116849D02*
X0284372Y0116849D01*
X0284372Y0113651D02*
X0280891Y0113651D01*
X0284372Y0110452D02*
X0270770Y0110452D01*
X0274482Y0107254D02*
X0284372Y0107254D01*
X0291594Y0091261D02*
X0361546Y0091261D01*
X0361546Y0088063D02*
X0291594Y0088063D01*
X0291594Y0084864D02*
X0361546Y0084864D01*
X0361546Y0081665D02*
X0291594Y0081665D01*
X0243859Y0112037D02*
X0242840Y0111615D01*
X0241835Y0110609D01*
X0238636Y0113808D01*
X0237313Y0114356D01*
X0235245Y0114356D01*
X0234949Y0115068D01*
X0234274Y0115744D01*
X0233392Y0116109D01*
X0228716Y0116109D01*
X0227277Y0117548D01*
X0227277Y0129164D01*
X0227258Y0129209D01*
X0227258Y0133256D01*
X0226893Y0134138D01*
X0226453Y0134578D01*
X0236781Y0134578D01*
X0238104Y0135127D01*
X0240499Y0137522D01*
X0240499Y0135963D01*
X0241321Y0133978D01*
X0242840Y0132459D01*
X0243859Y0132037D01*
X0242840Y0131615D01*
X0241321Y0130096D01*
X0240499Y0128111D01*
X0240499Y0127918D01*
X0240468Y0128115D01*
X0240215Y0128894D01*
X0239843Y0129623D01*
X0239362Y0130285D01*
X0238784Y0130864D01*
X0238121Y0131345D01*
X0237392Y0131717D01*
X0236614Y0131970D01*
X0235805Y0132098D01*
X0235396Y0132098D01*
X0234987Y0132098D01*
X0234178Y0131970D01*
X0233400Y0131717D01*
X0232671Y0131345D01*
X0232008Y0130864D01*
X0231430Y0130285D01*
X0230949Y0129623D01*
X0230577Y0128894D01*
X0230324Y0128115D01*
X0230196Y0127307D01*
X0230196Y0124298D01*
X0235396Y0124298D01*
X0235396Y0132098D01*
X0235396Y0124298D01*
X0235396Y0124298D01*
X0235396Y0124298D01*
X0240596Y0124298D01*
X0240596Y0125729D01*
X0241321Y0123978D01*
X0242840Y0122459D01*
X0243859Y0122037D01*
X0242840Y0121615D01*
X0241321Y0120096D01*
X0240499Y0118111D01*
X0240499Y0115963D01*
X0241321Y0113978D01*
X0242840Y0112459D01*
X0243859Y0112037D01*
X0241649Y0113651D02*
X0238794Y0113651D01*
X0237392Y0116879D02*
X0238121Y0117250D01*
X0238784Y0117731D01*
X0239362Y0118310D01*
X0239843Y0118972D01*
X0240215Y0119702D01*
X0240468Y0120480D01*
X0240596Y0121289D01*
X0240596Y0124298D01*
X0235396Y0124298D01*
X0235396Y0124298D01*
X0230196Y0124298D01*
X0230196Y0121289D01*
X0230324Y0120480D01*
X0230577Y0119702D01*
X0230949Y0118972D01*
X0231430Y0118310D01*
X0232008Y0117731D01*
X0232671Y0117250D01*
X0233400Y0116879D01*
X0234178Y0116626D01*
X0234987Y0116498D01*
X0235396Y0116498D01*
X0235396Y0124298D01*
X0235396Y0124298D01*
X0235396Y0116498D01*
X0235805Y0116498D01*
X0236614Y0116626D01*
X0237392Y0116879D01*
X0237301Y0116849D02*
X0240499Y0116849D01*
X0240327Y0120048D02*
X0241301Y0120048D01*
X0240596Y0123246D02*
X0242053Y0123246D01*
X0235396Y0123246D02*
X0235396Y0123246D01*
X0235396Y0120048D02*
X0235396Y0120048D01*
X0235396Y0116849D02*
X0235396Y0116849D01*
X0233491Y0116849D02*
X0227976Y0116849D01*
X0227277Y0120048D02*
X0230465Y0120048D01*
X0230196Y0123246D02*
X0227277Y0123246D01*
X0227277Y0126445D02*
X0230196Y0126445D01*
X0230963Y0129643D02*
X0227258Y0129643D01*
X0227258Y0132842D02*
X0242458Y0132842D01*
X0241134Y0129643D02*
X0239829Y0129643D01*
X0235396Y0129643D02*
X0235396Y0129643D01*
X0235396Y0126445D02*
X0235396Y0126445D01*
X0239017Y0136040D02*
X0240499Y0136040D01*
X0234984Y0142437D02*
X0225934Y0142437D01*
X0229569Y0145636D02*
X0234984Y0145636D01*
X0234984Y0148834D02*
X0230377Y0148834D01*
X0229640Y0152033D02*
X0235485Y0152033D01*
X0238617Y0155231D02*
X0227765Y0155231D01*
X0227765Y0158430D02*
X0231593Y0158430D01*
X0231157Y0158866D02*
X0232564Y0157459D01*
X0234401Y0156698D01*
X0236391Y0156698D01*
X0238228Y0157459D01*
X0239635Y0158866D01*
X0240396Y0160703D01*
X0240396Y0167892D01*
X0239635Y0169730D01*
X0238228Y0171137D01*
X0236391Y0171898D01*
X0234401Y0171898D01*
X0232564Y0171137D01*
X0231157Y0169730D01*
X0230396Y0167892D01*
X0230396Y0160703D01*
X0231157Y0158866D01*
X0230396Y0161628D02*
X0227765Y0161628D01*
X0226214Y0164827D02*
X0230396Y0164827D01*
X0230451Y0168025D02*
X0227985Y0168025D01*
X0231184Y0171224D02*
X0232774Y0171224D01*
X0233832Y0174422D02*
X0266985Y0174422D01*
X0265564Y0172946D02*
X0265202Y0173308D01*
X0264776Y0173593D01*
X0264303Y0173789D01*
X0263801Y0173889D01*
X0259608Y0173889D01*
X0259608Y0168336D01*
X0266145Y0168336D01*
X0266145Y0171545D01*
X0266045Y0172047D01*
X0265849Y0172520D01*
X0265564Y0172946D01*
X0266145Y0171224D02*
X0269534Y0171224D01*
X0266803Y0168025D02*
X0266145Y0168025D01*
X0266145Y0168336D02*
X0259608Y0168336D01*
X0259608Y0168336D01*
X0259608Y0168336D01*
X0259608Y0162783D01*
X0263801Y0162783D01*
X0264303Y0162883D01*
X0264776Y0163079D01*
X0265202Y0163364D01*
X0265564Y0163726D01*
X0265849Y0164152D01*
X0266045Y0164625D01*
X0266145Y0165127D01*
X0266145Y0168336D01*
X0266085Y0164827D02*
X0267025Y0164827D01*
X0264624Y0161628D02*
X0270510Y0161628D01*
X0259608Y0162783D02*
X0259608Y0168336D01*
X0259608Y0168336D01*
X0259608Y0173889D01*
X0255415Y0173889D01*
X0254912Y0173789D01*
X0254439Y0173593D01*
X0254013Y0173308D01*
X0253651Y0172946D01*
X0253367Y0172520D01*
X0253171Y0172047D01*
X0253071Y0171545D01*
X0253071Y0168336D01*
X0259608Y0168336D01*
X0259608Y0168336D01*
X0253071Y0168336D01*
X0253071Y0165127D01*
X0253171Y0164625D01*
X0253367Y0164152D01*
X0253651Y0163726D01*
X0254013Y0163364D01*
X0254439Y0163079D01*
X0254912Y0162883D01*
X0255415Y0162783D01*
X0259608Y0162783D01*
X0259608Y0164827D02*
X0259608Y0164827D01*
X0259608Y0168025D02*
X0259608Y0168025D01*
X0259608Y0171224D02*
X0259608Y0171224D01*
X0253071Y0171224D02*
X0238018Y0171224D01*
X0240341Y0168025D02*
X0253071Y0168025D01*
X0253131Y0164827D02*
X0240396Y0164827D01*
X0240396Y0161628D02*
X0254591Y0161628D01*
X0241815Y0158430D02*
X0239199Y0158430D01*
X0223677Y0148920D02*
X0218677Y0148920D01*
X0216421Y0142437D02*
X0215934Y0142437D01*
X0217191Y0139239D02*
X0185277Y0139239D01*
X0189013Y0136040D02*
X0215077Y0136040D01*
X0208677Y0132842D02*
X0208677Y0132842D01*
X0208677Y0129643D02*
X0208677Y0129643D01*
X0204896Y0129643D02*
X0192667Y0129643D01*
X0191242Y0132842D02*
X0204896Y0132842D01*
X0204896Y0126445D02*
X0193524Y0126445D01*
X0193535Y0123246D02*
X0205043Y0123246D01*
X0202257Y0120048D02*
X0201351Y0120048D01*
X0201351Y0120327D02*
X0201251Y0120829D01*
X0201055Y0121302D01*
X0200771Y0121728D01*
X0200409Y0122090D01*
X0199983Y0122375D01*
X0199510Y0122571D01*
X0199007Y0122671D01*
X0195798Y0122671D01*
X0195798Y0116134D01*
X0195798Y0116134D01*
X0195798Y0116134D01*
X0201351Y0116134D01*
X0201351Y0120327D01*
X0201351Y0116849D02*
X0202257Y0116849D01*
X0201351Y0116134D02*
X0195798Y0116134D01*
X0195798Y0116134D01*
X0195798Y0109597D01*
X0199007Y0109597D01*
X0199510Y0109697D01*
X0199983Y0109893D01*
X0200409Y0110177D01*
X0200771Y0110539D01*
X0201055Y0110965D01*
X0201251Y0111438D01*
X0201351Y0111941D01*
X0201351Y0116134D01*
X0201351Y0113651D02*
X0202257Y0113651D01*
X0203007Y0110452D02*
X0200683Y0110452D01*
X0200820Y0107254D02*
X0212962Y0107254D01*
X0212212Y0110452D02*
X0215077Y0110452D01*
X0215077Y0113651D02*
X0212962Y0113651D01*
X0213416Y0116849D02*
X0215077Y0116849D01*
X0222277Y0110452D02*
X0222641Y0110452D01*
X0222671Y0107254D02*
X0222277Y0107254D01*
X0223589Y0104055D02*
X0219946Y0104055D01*
X0222441Y0100857D02*
X0216747Y0100857D01*
X0195798Y0110452D02*
X0195798Y0110452D01*
X0195798Y0113651D02*
X0195798Y0113651D01*
X0195798Y0116849D02*
X0195798Y0116849D01*
X0195798Y0120048D02*
X0195798Y0120048D01*
X0190913Y0110452D02*
X0187463Y0110452D01*
X0192181Y0107254D02*
X0182593Y0107254D01*
X0160522Y0113651D02*
X0134928Y0113651D01*
X0136698Y0116849D02*
X0158676Y0116849D01*
X0157761Y0120048D02*
X0137556Y0120048D01*
X0137866Y0123246D02*
X0157335Y0123246D01*
X0157346Y0126445D02*
X0137739Y0126445D01*
X0136882Y0129643D02*
X0158203Y0129643D01*
X0159627Y0132842D02*
X0135323Y0132842D01*
X0132911Y0136040D02*
X0161857Y0136040D01*
X0165593Y0139239D02*
X0128858Y0139239D01*
X0110674Y0139239D02*
X0074789Y0139239D01*
X0071590Y0136040D02*
X0106621Y0136040D01*
X0104208Y0132842D02*
X0068392Y0132842D01*
X0068080Y0129643D02*
X0102650Y0129643D01*
X0101793Y0126445D02*
X0068080Y0126445D01*
X0068085Y0123246D02*
X0072497Y0123246D01*
X0073050Y0123800D02*
X0069682Y0120431D01*
X0069682Y0118050D01*
X0075432Y0118050D01*
X0075432Y0118050D01*
X0075432Y0123800D01*
X0077814Y0123800D01*
X0081182Y0120431D01*
X0081182Y0118050D01*
X0075432Y0118050D01*
X0075432Y0118050D01*
X0075432Y0123800D01*
X0073050Y0123800D01*
X0075432Y0123246D02*
X0075432Y0123246D01*
X0078367Y0123246D02*
X0101666Y0123246D01*
X0101976Y0120048D02*
X0081182Y0120048D01*
X0081182Y0118050D02*
X0075432Y0118050D01*
X0075432Y0118050D01*
X0075432Y0112300D01*
X0077814Y0112300D01*
X0081182Y0115668D01*
X0081182Y0118050D01*
X0081182Y0116849D02*
X0102833Y0116849D01*
X0104603Y0113651D02*
X0079164Y0113651D01*
X0075432Y0113651D02*
X0075432Y0113651D01*
X0075432Y0112300D02*
X0075432Y0118050D01*
X0075432Y0118050D01*
X0069682Y0118050D01*
X0069682Y0115668D01*
X0073050Y0112300D01*
X0075432Y0112300D01*
X0071699Y0113651D02*
X0068132Y0113651D01*
X0068143Y0116849D02*
X0069682Y0116849D01*
X0069682Y0120048D02*
X0068114Y0120048D01*
X0075432Y0120048D02*
X0075432Y0120048D01*
X0075432Y0116849D02*
X0075432Y0116849D01*
X0067879Y0110452D02*
X0107304Y0110452D01*
X0111858Y0107254D02*
X0065764Y0107254D01*
X0011507Y0068871D02*
X0188282Y0068871D01*
X0190959Y0065673D02*
X0011507Y0065673D01*
X0011507Y0062474D02*
X0194158Y0062474D01*
X0197835Y0059276D02*
X0011507Y0059276D01*
X0011507Y0056077D02*
X0393614Y0056077D01*
X0393614Y0052879D02*
X0011507Y0052879D01*
X0011507Y0049680D02*
X0393614Y0049680D01*
X0393614Y0046482D02*
X0011507Y0046482D01*
X0011507Y0043283D02*
X0393614Y0043283D01*
X0393614Y0040085D02*
X0011507Y0040085D01*
X0011507Y0036886D02*
X0393614Y0036886D01*
X0393614Y0033688D02*
X0354778Y0033688D01*
X0359474Y0030489D02*
X0393614Y0030489D01*
X0382286Y0027291D02*
X0361574Y0027291D01*
X0368868Y0024092D02*
X0368868Y0024092D01*
X0368868Y0020894D02*
X0368868Y0020894D01*
X0376389Y0020894D02*
X0378237Y0020894D01*
X0377866Y0017695D02*
X0376389Y0017695D01*
X0376389Y0014497D02*
X0378370Y0014497D01*
X0379576Y0024092D02*
X0376371Y0024092D01*
X0346958Y0033688D02*
X0177025Y0033688D01*
X0170380Y0033688D02*
X0011507Y0033688D01*
X0011507Y0030489D02*
X0165254Y0030489D01*
X0163087Y0027291D02*
X0023229Y0027291D01*
X0025939Y0024092D02*
X0028230Y0024092D01*
X0028181Y0020894D02*
X0027278Y0020894D01*
X0027649Y0017695D02*
X0028181Y0017695D01*
X0028181Y0014497D02*
X0027145Y0014497D01*
X0035702Y0018667D02*
X0035702Y0018667D01*
X0043224Y0018667D01*
X0035702Y0018667D01*
X0035702Y0020894D02*
X0035702Y0020894D01*
X0035702Y0024092D02*
X0035702Y0024092D01*
X0043174Y0024092D02*
X0162197Y0024092D01*
X0162266Y0020894D02*
X0043224Y0020894D01*
X0043224Y0017695D02*
X0163287Y0017695D01*
X0165601Y0014497D02*
X0043224Y0014497D01*
X0156501Y0097658D02*
X0156501Y0097658D01*
X0156501Y0100857D02*
X0156501Y0100857D01*
X0156501Y0104055D02*
X0156501Y0104055D01*
X0156501Y0107254D02*
X0156501Y0107254D01*
X0121220Y0158430D02*
X0033027Y0158430D01*
X0033027Y0161628D02*
X0118021Y0161628D01*
X0113498Y0171224D02*
X0106420Y0171224D01*
X0109618Y0174422D02*
X0113498Y0174422D01*
X0113498Y0177621D02*
X0112817Y0177621D01*
X0082311Y0196812D02*
X0080626Y0196812D01*
X0084034Y0200010D02*
X0085509Y0200010D01*
X0087595Y0203209D02*
X0088708Y0203209D01*
X0090222Y0206407D02*
X0091906Y0206407D01*
X0093420Y0209606D02*
X0095105Y0209606D01*
X0096619Y0212804D02*
X0151684Y0212804D01*
X0150958Y0216003D02*
X0099817Y0216003D01*
X0090462Y0225598D02*
X0059339Y0225598D01*
X0059339Y0222400D02*
X0087264Y0222400D01*
X0084065Y0219201D02*
X0059339Y0219201D01*
X0059339Y0216003D02*
X0079937Y0216003D01*
X0077394Y0212804D02*
X0058857Y0212804D01*
X0057345Y0209606D02*
X0074470Y0209606D01*
X0061799Y0193613D02*
X0052628Y0193613D01*
X0049115Y0190415D02*
X0060577Y0190415D01*
X0061776Y0187216D02*
X0045916Y0187216D01*
X0042718Y0184018D02*
X0068774Y0184018D01*
X0065377Y0187216D02*
X0065377Y0187216D01*
X0021331Y0161628D02*
X0011507Y0161628D01*
X0011507Y0158430D02*
X0021331Y0158430D01*
X0024087Y0155231D02*
X0011507Y0155231D01*
X0011507Y0171224D02*
X0014719Y0171224D01*
X0061198Y0228797D02*
X0093661Y0228797D01*
X0098122Y0231996D02*
X0064396Y0231996D01*
X0067595Y0235194D02*
X0131597Y0235194D01*
X0129693Y0241591D02*
X0220073Y0241591D01*
X0220073Y0244790D02*
X0152376Y0244790D01*
X0156343Y0247988D02*
X0217961Y0247988D01*
X0214762Y0251187D02*
X0159542Y0251187D01*
X0163730Y0254385D02*
X0196387Y0254385D01*
X0194158Y0257584D02*
X0165958Y0257584D01*
X0165958Y0260782D02*
X0194158Y0260782D01*
X0195395Y0263981D02*
X0164721Y0263981D01*
X0189863Y0235194D02*
X0220073Y0235194D01*
X0220073Y0231996D02*
X0193061Y0231996D01*
X0196260Y0228797D02*
X0220073Y0228797D01*
X0220073Y0225598D02*
X0199458Y0225598D01*
X0206302Y0222400D02*
X0220073Y0222400D01*
X0220073Y0219201D02*
X0208958Y0219201D01*
X0208958Y0216003D02*
X0220073Y0216003D01*
X0220073Y0212804D02*
X0208149Y0212804D01*
X0204951Y0209606D02*
X0220073Y0209606D01*
X0220073Y0206407D02*
X0187390Y0206407D01*
X0184697Y0209100D02*
X0184697Y0209100D01*
X0184191Y0209606D02*
X0198166Y0209606D01*
X0193302Y0212804D02*
X0165432Y0212804D01*
X0166158Y0216003D02*
X0190103Y0216003D01*
X0186905Y0219201D02*
X0166158Y0219201D01*
X0166158Y0219826D02*
X0161706Y0224278D01*
X0158558Y0224278D01*
X0155410Y0224278D01*
X0150958Y0219826D01*
X0150958Y0216679D01*
X0158558Y0216679D01*
X0158558Y0224278D01*
X0158558Y0216679D01*
X0158558Y0216679D01*
X0158558Y0216678D01*
X0158558Y0216679D01*
X0166158Y0216679D01*
X0166158Y0219826D01*
X0163585Y0222400D02*
X0183706Y0222400D01*
X0158558Y0222400D02*
X0158558Y0222400D01*
X0158558Y0219201D02*
X0158558Y0219201D01*
X0153532Y0222400D02*
X0137753Y0222400D01*
X0133790Y0219201D02*
X0150958Y0219201D01*
X0117607Y0241591D02*
X0073992Y0241591D01*
X0070793Y0238393D02*
X0220073Y0238393D01*
X0233473Y0238393D02*
X0239541Y0238393D01*
X0239491Y0235194D02*
X0233473Y0235194D01*
X0233473Y0231996D02*
X0242026Y0231996D01*
X0239708Y0228797D02*
X0233473Y0228797D01*
X0233473Y0225598D02*
X0239324Y0225598D01*
X0241395Y0222400D02*
X0233473Y0222400D01*
X0233473Y0219201D02*
X0239876Y0219201D01*
X0239299Y0216003D02*
X0233473Y0216003D01*
X0233473Y0212804D02*
X0240991Y0212804D01*
X0240043Y0209606D02*
X0233473Y0209606D01*
X0233473Y0206407D02*
X0239299Y0206407D01*
X0240586Y0203209D02*
X0233473Y0203209D01*
X0232697Y0200010D02*
X0240339Y0200010D01*
X0239299Y0196812D02*
X0229843Y0196812D01*
X0226644Y0193613D02*
X0240182Y0193613D01*
X0240460Y0190415D02*
X0223445Y0190415D01*
X0224294Y0187216D02*
X0219904Y0187216D01*
X0213875Y0184018D02*
X0211796Y0184018D01*
X0211869Y0183917D02*
X0211425Y0184529D01*
X0210891Y0185063D01*
X0210280Y0185507D01*
X0209606Y0185850D01*
X0208888Y0186083D01*
X0208142Y0186202D01*
X0207764Y0186202D01*
X0207764Y0181402D01*
X0207764Y0181402D01*
X0207764Y0186202D01*
X0207386Y0186202D01*
X0206640Y0186083D01*
X0205921Y0185850D01*
X0205248Y0185507D01*
X0204637Y0185063D01*
X0204103Y0184529D01*
X0203659Y0183917D01*
X0203315Y0183244D01*
X0203082Y0182526D01*
X0202964Y0181779D01*
X0202964Y0181402D01*
X0207764Y0181402D01*
X0212564Y0181402D01*
X0212564Y0181779D01*
X0212446Y0182526D01*
X0212212Y0183244D01*
X0211869Y0183917D01*
X0212564Y0181401D02*
X0207764Y0181401D01*
X0207764Y0176602D01*
X0208142Y0176602D01*
X0208888Y0176720D01*
X0209606Y0176953D01*
X0210280Y0177296D01*
X0210891Y0177740D01*
X0211425Y0178275D01*
X0211869Y0178886D01*
X0212212Y0179559D01*
X0212446Y0180278D01*
X0212564Y0181024D01*
X0212564Y0181401D01*
X0212531Y0180819D02*
X0213164Y0180819D01*
X0215039Y0177621D02*
X0210726Y0177621D01*
X0207764Y0177621D02*
X0207764Y0177621D01*
X0207764Y0176602D02*
X0207764Y0181401D01*
X0207764Y0181401D01*
X0207764Y0181402D01*
X0207764Y0181401D01*
X0202964Y0181401D01*
X0202964Y0181024D01*
X0203082Y0180278D01*
X0203315Y0179559D01*
X0203659Y0178886D01*
X0204103Y0178275D01*
X0204637Y0177740D01*
X0205248Y0177296D01*
X0205921Y0176953D01*
X0206640Y0176720D01*
X0207386Y0176602D01*
X0207764Y0176602D01*
X0204801Y0177621D02*
X0183145Y0177621D01*
X0182135Y0180819D02*
X0202996Y0180819D01*
X0207764Y0180819D02*
X0207764Y0180819D01*
X0207764Y0184018D02*
X0207764Y0184018D01*
X0203732Y0184018D02*
X0182135Y0184018D01*
X0186343Y0174422D02*
X0215432Y0174422D01*
X0234464Y0177621D02*
X0266546Y0177621D01*
X0266464Y0176694D02*
X0274263Y0176694D01*
X0274263Y0176694D01*
X0266464Y0176694D01*
X0267852Y0180819D02*
X0268495Y0180819D01*
X0261458Y0180819D02*
X0261458Y0180819D01*
X0255065Y0180819D02*
X0234464Y0180819D01*
X0233932Y0184018D02*
X0239797Y0184018D01*
X0239105Y0187216D02*
X0231233Y0187216D01*
X0247698Y0184018D02*
X0247699Y0184018D01*
X0253004Y0191844D02*
X0253757Y0192156D01*
X0254695Y0193093D01*
X0255121Y0193091D01*
X0255121Y0193016D01*
X0255487Y0192134D01*
X0256162Y0191459D01*
X0257044Y0191093D01*
X0265873Y0191093D01*
X0266755Y0191459D01*
X0267430Y0192134D01*
X0267795Y0193016D01*
X0267795Y0193094D01*
X0268192Y0193094D01*
X0268831Y0192455D01*
X0270664Y0191696D01*
X0270664Y0191692D01*
X0268831Y0190933D01*
X0267425Y0189526D01*
X0267340Y0189321D01*
X0267053Y0189607D01*
X0266627Y0189892D01*
X0266154Y0190088D01*
X0265651Y0190188D01*
X0261458Y0190188D01*
X0257265Y0190188D01*
X0256763Y0190088D01*
X0256290Y0189892D01*
X0255864Y0189607D01*
X0255636Y0189379D01*
X0255488Y0189669D01*
X0254970Y0190382D01*
X0254347Y0191005D01*
X0253634Y0191523D01*
X0253004Y0191844D01*
X0254937Y0190415D02*
X0268313Y0190415D01*
X0261458Y0190188D02*
X0261458Y0184635D01*
X0261458Y0190188D01*
X0261458Y0187216D02*
X0261458Y0187216D01*
X0261458Y0184635D02*
X0261458Y0184635D01*
X0261458Y0184018D02*
X0261458Y0184018D01*
X0255293Y0200290D02*
X0254776Y0200293D01*
X0253757Y0201311D01*
X0252738Y0201734D01*
X0253757Y0202156D01*
X0254696Y0203094D01*
X0268192Y0203094D01*
X0268831Y0202455D01*
X0270669Y0201694D01*
X0277858Y0201694D01*
X0270669Y0201694D01*
X0268831Y0200933D01*
X0268192Y0200294D01*
X0267622Y0200294D01*
X0267430Y0200758D01*
X0266755Y0201434D01*
X0265873Y0201799D01*
X0257044Y0201799D01*
X0256162Y0201434D01*
X0255487Y0200758D01*
X0255293Y0200290D01*
X0280214Y0190415D02*
X0284372Y0190415D01*
X0284372Y0187216D02*
X0281864Y0187216D01*
X0281167Y0184018D02*
X0284372Y0184018D01*
X0321082Y0209606D02*
X0329458Y0209606D01*
X0330953Y0212804D02*
X0321582Y0212804D01*
X0321582Y0213720D02*
X0321582Y0216535D01*
X0321482Y0217038D01*
X0321286Y0217511D01*
X0321001Y0217937D01*
X0320639Y0218299D01*
X0320213Y0218583D01*
X0319740Y0218779D01*
X0319238Y0218879D01*
X0315832Y0218879D01*
X0315832Y0213720D01*
X0315832Y0213720D01*
X0315832Y0213720D01*
X0321582Y0213720D01*
X0321582Y0216003D02*
X0354626Y0216003D01*
X0352139Y0212804D02*
X0339822Y0212804D01*
X0340388Y0209606D02*
X0352208Y0209606D01*
X0355029Y0206407D02*
X0338422Y0206407D01*
X0333243Y0203209D02*
X0352092Y0203209D01*
X0351756Y0201289D02*
X0351756Y0200848D01*
X0351894Y0199977D01*
X0352166Y0199139D01*
X0352566Y0198354D01*
X0353084Y0197641D01*
X0353708Y0197017D01*
X0354421Y0196499D01*
X0355206Y0196099D01*
X0356045Y0195827D01*
X0356915Y0195689D01*
X0360356Y0195689D01*
X0360356Y0201289D01*
X0360356Y0201289D01*
X0351756Y0201289D01*
X0351889Y0200010D02*
X0326748Y0200010D01*
X0330003Y0196812D02*
X0353990Y0196812D01*
X0360356Y0196812D02*
X0360356Y0196812D01*
X0360356Y0200010D02*
X0360356Y0200010D01*
X0349360Y0219201D02*
X0311237Y0219201D01*
X0309563Y0222400D02*
X0346161Y0222400D01*
X0344755Y0231996D02*
X0308586Y0231996D01*
X0308106Y0241591D02*
X0312521Y0241591D01*
X0311525Y0251187D02*
X0309083Y0251187D01*
X0287601Y0257584D02*
X0393614Y0257584D01*
X0393614Y0254385D02*
X0353419Y0254385D01*
X0353925Y0251187D02*
X0393614Y0251187D01*
X0378178Y0267179D02*
X0353248Y0267179D01*
X0353925Y0270378D02*
X0377866Y0270378D01*
X0378429Y0273576D02*
X0352474Y0273576D01*
X0280401Y0257584D02*
X0227316Y0257584D01*
X0230514Y0254385D02*
X0280401Y0254385D01*
X0280401Y0251187D02*
X0279083Y0251187D01*
X0269444Y0251187D02*
X0253882Y0251187D01*
X0241515Y0251187D02*
X0232975Y0251187D01*
X0233473Y0247988D02*
X0239373Y0247988D01*
X0239659Y0244790D02*
X0233473Y0244790D01*
X0233473Y0241591D02*
X0242315Y0241591D01*
X0217289Y0203209D02*
X0190588Y0203209D01*
X0192135Y0200010D02*
X0214091Y0200010D01*
X0265400Y0152033D02*
X0269851Y0152033D01*
X0268192Y0143094D02*
X0255593Y0143094D01*
X0254958Y0142459D01*
X0253939Y0142037D01*
X0254958Y0141615D01*
X0256279Y0140294D01*
X0268192Y0140294D01*
X0268831Y0140933D01*
X0270669Y0141694D01*
X0277858Y0141694D01*
X0270669Y0141694D01*
X0268831Y0142455D01*
X0268192Y0143094D01*
X0268875Y0142437D02*
X0254906Y0142437D01*
X0255341Y0132842D02*
X0268445Y0132842D01*
X0310045Y0212804D02*
X0310083Y0212804D01*
X0315832Y0216003D02*
X0315832Y0216003D01*
X0342262Y0030489D02*
X0182151Y0030489D01*
X0184318Y0027291D02*
X0340161Y0027291D01*
X0339362Y0024092D02*
X0220371Y0024092D01*
X0220389Y0020894D02*
X0339474Y0020894D01*
X0340543Y0017695D02*
X0220389Y0017695D01*
X0220389Y0014497D02*
X0342924Y0014497D01*
X0212868Y0018824D02*
X0212868Y0026345D01*
X0207690Y0026345D01*
X0207188Y0026245D01*
X0206715Y0026049D01*
X0206289Y0025765D01*
X0205927Y0025403D01*
X0205642Y0024977D01*
X0205446Y0024504D01*
X0205346Y0024001D01*
X0205346Y0018824D01*
X0212868Y0018824D01*
X0212868Y0018824D01*
X0212868Y0020894D02*
X0212868Y0020894D01*
X0212868Y0024092D02*
X0212868Y0024092D01*
X0205365Y0024092D02*
X0199174Y0024092D01*
X0199224Y0020894D02*
X0205346Y0020894D01*
X0205346Y0017695D02*
X0199224Y0017695D01*
X0199224Y0018667D02*
X0191702Y0018667D01*
X0191702Y0026188D01*
X0191702Y0018667D01*
X0191702Y0018667D01*
X0199224Y0018667D01*
X0199224Y0014497D02*
X0205346Y0014497D01*
X0191702Y0018667D02*
X0191702Y0018667D01*
X0191702Y0020894D02*
X0191702Y0020894D01*
X0191702Y0024092D02*
X0191702Y0024092D01*
X0029007Y0241591D02*
X0024976Y0241591D01*
X0015621Y0251187D02*
X0011507Y0251187D01*
X0011507Y0254385D02*
X0018820Y0254385D01*
X0023278Y0257584D02*
X0011507Y0257584D01*
X0011507Y0247988D02*
X0012423Y0247988D01*
X0023449Y0260782D02*
X0029354Y0260782D01*
D30*
X0024923Y0251013D02*
X0017482Y0243572D01*
X0017482Y0197470D01*
X0017718Y0197234D01*
X0017718Y0177234D02*
X0026458Y0177234D01*
X0047049Y0197824D01*
X0047364Y0197824D01*
X0050120Y0200580D01*
X0074919Y0200580D01*
X0082600Y0208261D01*
X0099761Y0225423D01*
X0131301Y0225423D01*
X0137049Y0231171D01*
X0184411Y0231171D01*
X0198903Y0216678D01*
X0201558Y0216678D01*
X0185435Y0198887D02*
X0179017Y0205304D01*
X0133348Y0205304D01*
X0129962Y0201919D01*
X0129962Y0192785D01*
X0129766Y0192588D01*
X0129766Y0200029D01*
X0124214Y0205580D01*
X0100554Y0205580D01*
X0085377Y0190403D01*
X0075474Y0190306D02*
X0075474Y0182391D01*
X0081537Y0176328D01*
X0102049Y0176328D01*
X0109766Y0184045D01*
X0109766Y0192588D01*
X0119766Y0192588D02*
X0120198Y0192155D01*
X0120198Y0168927D01*
X0128715Y0160410D01*
X0147179Y0160410D01*
X0165435Y0178666D01*
X0165435Y0193021D01*
X0175435Y0193021D02*
X0175435Y0175855D01*
X0185750Y0165541D01*
X0216025Y0165541D01*
X0227764Y0177279D01*
X0227764Y0181402D01*
X0216694Y0193139D02*
X0185553Y0193139D01*
X0185435Y0193021D01*
X0185435Y0198887D01*
X0216694Y0193139D02*
X0226773Y0203218D01*
X0226773Y0248651D01*
X0215746Y0259678D01*
X0201558Y0259678D01*
X0158558Y0259678D02*
X0149893Y0251013D01*
X0123650Y0251013D01*
X0073939Y0251013D01*
X0052639Y0229714D01*
X0052639Y0215301D01*
X0052600Y0215261D01*
X0075377Y0190403D02*
X0075474Y0190306D01*
X0074995Y0148920D02*
X0062049Y0135974D01*
X0062049Y0135619D01*
X0061380Y0134950D01*
X0061380Y0123845D01*
X0061432Y0118050D01*
X0061432Y0112396D01*
X0035702Y0086667D01*
X0074995Y0148920D02*
X0208677Y0148920D01*
X0210677Y0148920D01*
X0210710Y0148887D01*
X0221065Y0148920D02*
X0221065Y0151533D01*
X0223677Y0148920D01*
X0221065Y0148920D01*
X0221065Y0151533D02*
X0221065Y0160501D01*
X0216025Y0165541D01*
X0368868Y0105982D02*
X0368868Y0086824D01*
X0368868Y0105982D02*
X0376104Y0113218D01*
X0376104Y0133730D01*
X0376616Y0134241D01*
X0035050Y0251013D02*
X0024923Y0251013D01*
M02*
