%
M48
M72
T01C0.02362
T02C0.02400
T03C0.03200
T04C0.04000
T05C0.04331
T06C0.04400
T07C0.05200
T08C0.05906
T09C0.11811
T10C0.12598
T11C0.13000
%
T01
X47189Y17589
X49827Y27667
X36678Y36801
X34040Y62746
X19040Y88849
X38370Y104872
X76796Y106959
X85418Y118415
X76559Y129045
X35103Y133101
X144473Y101093
X148331Y110856
X155693Y90108
X176914Y75778
X219118Y98337
X240890Y99045
X200575Y127471
X244433Y174990
X316441Y156329
X331087Y176368
X324000Y184242
X341999Y175621
X347479Y181189
X354197Y175187
X367465Y167038
X376012Y167128
X363961Y156289
X348252Y194793
X349626Y204564
X275181Y259833
X200811Y244557
X141559Y216683
X311441Y73770
X368922Y35581
X375654Y31919
X362347Y30935
X381599Y86211
X356205Y115620
X221599Y29754
X213922Y40108
X201992Y30896
X191559Y36683
X186559Y29872
X201796Y21723
X227701Y17352
T02
X227764Y181402
X217764Y181402
X207764Y181402
X85377Y190403
X75377Y190403
X65377Y190403
T03
X61432Y118050
X75432Y118050
X156501Y102554
X196501Y102554
X235396Y124298
X274264Y126694
X274264Y136694
X274264Y146694
X274264Y156694
X274264Y166694
X274264Y176694
X274264Y186694
X274264Y196694
X274264Y206694
X274264Y216694
X274264Y226694
X274264Y236694
X274264Y246694
X304264Y246694
X304264Y236694
X304264Y226694
X304264Y216694
X304264Y206694
X304264Y196694
X304264Y186694
X304264Y176694
X304264Y166694
X304264Y156694
X304264Y146694
X304264Y136694
X304264Y126694
X304264Y116694
X274264Y116694
X235396Y164298
X335388Y191445
X335388Y210445
T04
X360356Y211289
X360356Y221289
X360356Y231289
X360356Y241289
X345525Y252088
X345525Y269888
X319925Y269888
X319925Y252088
X360356Y201289
X337358Y165890
X337358Y155890
X337358Y145890
X337358Y135890
X337358Y125890
X337358Y115890
X376616Y134241
X376616Y144241
X376616Y154241
X248899Y147037
X248899Y137037
X248899Y127037
X248899Y117037
X248899Y107037
X247699Y186734
X247699Y196734
X247699Y206734
X247699Y216734
X247699Y226734
X247699Y236734
X247699Y246734
X82600Y208261
X52600Y215261
X17718Y197234
X17718Y187234
X17718Y177234
T05
X27179Y160410
X147179Y160410
T06
X129766Y192588
X119766Y192588
X109766Y192588
X165435Y193021
X175435Y193021
X185435Y193021
T07
X201558Y216678
X158558Y216678
X123650Y251013
X158558Y259678
X201558Y259678
X35050Y251013
T08
X35702Y86667
X35702Y18667
X191702Y18667
X212868Y18824
X212868Y86824
X191702Y86667
X368868Y86824
X368868Y18824
T09
X350868Y22824
X233868Y82824
X173702Y22667
X56702Y82667
T10
X15750Y17942
X15750Y269911
X389765Y269911
X389765Y17942
T11
X175435Y124021
X119766Y123588
M30
