M48
;GenerationSoftware,Autodesk,EAGLE,9.4.0*%
;CreationDate,2019-07-26T14:45:34Z*%
FMAT,2
ICI,OFF
METRIC,TZ,000.000
T14C0.600
T13C0.813
T12C0.914
T11C0.950
T10C1.000
T9C1.016
T8C1.321
T7C1.499
T6C1.500
T5C1.600
T4C1.651
T3C2.300
T2C3.000
T1C3.200
%
G90
M71
T1
X95000Y144000
X3000Y144000
X3000Y3000
X95000Y3000
T2
X73480Y64760
X88720Y94478
T3
X68070Y10400
X54930Y10400
X43070Y10400
X29930Y10400
T4
X9280Y11340
X9280Y51980
X24520Y11340
X24520Y51980
T5
X56620Y78500
X41380Y78500
T6
X72464Y60188
X89736Y99812
X72464Y99812
X89736Y60188
T7
X41380Y132000
X51540Y132000
X46460Y132000
X56620Y132000
T8
X6075Y78310
X34500Y78500
X81100Y48252
X61000Y78500
X58000Y89500
X58000Y101000
X14050Y113748
X14050Y136252
X58000Y95250
X6075Y88310
X6075Y73310
X6075Y83310
X81100Y25748
X61000Y51500
X34500Y51500
T9
X23661Y121190
X25439Y128810
X16735Y91380
X19275Y91380
X21815Y91380
X89380Y124530
X86840Y124530
X84300Y124530
X77380Y124530
X74840Y124530
X72300Y124530
X49000Y3000
X51540Y3000
X52810Y40720
X50270Y40720
X47730Y40720
X46460Y3000
X45190Y40720
X46460Y144000
X49000Y144000
X51540Y144000
T10
X9280Y46900
X9280Y49440
X9280Y44360
X24520Y44360
X24520Y24040
X24520Y31660
X24520Y36740
X24520Y21500
X9280Y24040
X9280Y26580
X9280Y29120
X9280Y31660
X9280Y16420
X9280Y13880
X24520Y18960
X24520Y41820
X24520Y39280
X9280Y34200
X9280Y21500
X24520Y16420
X24520Y13880
X24520Y29120
X24520Y46900
X9280Y18960
X9280Y39280
X9280Y41820
X24520Y34200
X24520Y26580
X24520Y49440
X9280Y36740
T11
X40000Y13110
X60500Y13110
X58000Y13110
X65000Y13110
X62500Y13110
X35500Y13110
X37500Y13110
X33000Y13110
T12
X57379Y55245
X43920Y95224
X43920Y92684
X89687Y48184
X89687Y45644
X24370Y80359
X24370Y77819
X54839Y55245
T13
X33040Y41000
X27960Y41000
X81100Y114722
X81100Y118278
X50270Y59030
X24355Y71690
X52810Y66650
X60010Y61570
X50270Y66650
X50270Y73000
X60430Y73000
X47730Y73000
X43920Y98460
X54080Y98460
X54080Y101000
X43920Y101000
X14195Y83310
X24355Y83310
X24355Y85850
X52810Y59030
X47730Y66650
X45190Y66650
X47730Y59030
X45190Y59030
X50270Y70460
X40110Y57760
X40110Y67920
X37570Y67920
X37570Y57760
X47730Y70460
X37570Y70460
X60010Y64110
X18005Y98320
X20545Y98320
X43920Y51500
X54080Y51500
X31516Y36740
X29484Y36740
X72300Y136610
X82460Y136610
X82460Y134070
X72300Y134070
X14195Y71690
X12875Y64480
X12875Y67020
X54080Y89500
X60430Y70460
X86430Y21300
X14195Y74230
X24355Y74230
X4039Y34759
X4039Y37299
X3988Y29122
X76270Y21300
X14195Y85850
X20545Y65750
X18005Y65750
X37570Y73000
X43920Y89500
X74850Y131070
X85010Y131070
X3988Y18962
T14
X28190Y131352
X63265Y118176
X28508Y127137
X42638Y57732
X12932Y62351
X63895Y64318
X64162Y78492
X14613Y98456
X78221Y118800
X59819Y67240
X63591Y66071
X15991Y62328
X14545Y100393
X95091Y13681
X6102Y62449
X6128Y69484
X6026Y97729
X30448Y141493
X62706Y138725
X33776Y139106
X60784Y75977
X71876Y106416
X17062Y22596
X35173Y116881
X62632Y132390
X62224Y129987
X36722Y94808
X27375Y49520
X12821Y39030
X62224Y88915
X94507Y67732
X94659Y80483
X88625Y134402
X88678Y131175
X36226Y39270
X5353Y40198
X64383Y40478
X95142Y9312
X90291Y32070
X64075Y51509
X57624Y51382
X33451Y43711
X62365Y134388
X85346Y134448
X94507Y94656
X42790Y67815
X36266Y36710
X42496Y40800
X19395Y68474
X84520Y114456
X78144Y117047
X13024Y42357
M30