G75*
%MOIN*%
%OFA0B0*%
%FSLAX25Y25*%
%IPPOS*%
%LPD*%
%AMOC8*
5,1,8,0,0,1.08239X$1,22.5*
%
%ADD10C,0.00600*%
%ADD11C,0.00800*%
%ADD12C,0.01000*%
D10*
X0037600Y0015100D02*
X0037600Y0020100D01*
X0040100Y0022600D01*
X0045100Y0022600D01*
X0047600Y0020100D01*
X0050100Y0022600D01*
X0055100Y0022600D01*
X0057600Y0020100D01*
X0060100Y0022600D01*
X0065100Y0022600D01*
X0067600Y0020100D01*
X0070100Y0022600D01*
X0075100Y0022600D01*
X0077600Y0020100D01*
X0080100Y0022600D01*
X0085100Y0022600D01*
X0087600Y0020100D01*
X0090100Y0022600D01*
X0095100Y0022600D01*
X0097600Y0020100D01*
X0100100Y0022600D01*
X0105100Y0022600D01*
X0107600Y0020100D01*
X0110100Y0022600D01*
X0115100Y0022600D01*
X0117600Y0020100D01*
X0117600Y0015100D01*
X0115100Y0012600D01*
X0110100Y0012600D01*
X0107600Y0015100D01*
X0105100Y0012600D01*
X0100100Y0012600D01*
X0097600Y0015100D01*
X0097600Y0020100D01*
X0097600Y0015100D02*
X0095100Y0012600D01*
X0090100Y0012600D01*
X0087600Y0015100D01*
X0085100Y0012600D01*
X0080100Y0012600D01*
X0077600Y0015100D01*
X0075100Y0012600D01*
X0070100Y0012600D01*
X0067600Y0015100D01*
X0067600Y0020100D01*
X0067600Y0015100D02*
X0065100Y0012600D01*
X0060100Y0012600D01*
X0057600Y0015100D01*
X0055100Y0012600D01*
X0050100Y0012600D01*
X0047600Y0015100D01*
X0045100Y0012600D01*
X0040100Y0012600D01*
X0037600Y0015100D01*
X0047600Y0015100D02*
X0047600Y0020100D01*
X0057600Y0020100D02*
X0057600Y0015100D01*
X0077600Y0015100D02*
X0077600Y0020100D01*
X0087600Y0020100D02*
X0087600Y0015100D01*
X0107600Y0015100D02*
X0107600Y0020100D01*
X0157600Y0032600D02*
X0157603Y0032845D01*
X0157612Y0033091D01*
X0157627Y0033336D01*
X0157648Y0033580D01*
X0157675Y0033824D01*
X0157708Y0034067D01*
X0157747Y0034310D01*
X0157792Y0034551D01*
X0157843Y0034791D01*
X0157900Y0035030D01*
X0157962Y0035267D01*
X0158031Y0035503D01*
X0158105Y0035737D01*
X0158185Y0035969D01*
X0158270Y0036199D01*
X0158361Y0036427D01*
X0158458Y0036652D01*
X0158560Y0036876D01*
X0158668Y0037096D01*
X0158781Y0037314D01*
X0158899Y0037529D01*
X0159023Y0037741D01*
X0159151Y0037950D01*
X0159285Y0038156D01*
X0159424Y0038358D01*
X0159568Y0038557D01*
X0159717Y0038752D01*
X0159870Y0038944D01*
X0160028Y0039132D01*
X0160190Y0039316D01*
X0160358Y0039495D01*
X0160529Y0039671D01*
X0160705Y0039842D01*
X0160884Y0040010D01*
X0161068Y0040172D01*
X0161256Y0040330D01*
X0161448Y0040483D01*
X0161643Y0040632D01*
X0161842Y0040776D01*
X0162044Y0040915D01*
X0162250Y0041049D01*
X0162459Y0041177D01*
X0162671Y0041301D01*
X0162886Y0041419D01*
X0163104Y0041532D01*
X0163324Y0041640D01*
X0163548Y0041742D01*
X0163773Y0041839D01*
X0164001Y0041930D01*
X0164231Y0042015D01*
X0164463Y0042095D01*
X0164697Y0042169D01*
X0164933Y0042238D01*
X0165170Y0042300D01*
X0165409Y0042357D01*
X0165649Y0042408D01*
X0165890Y0042453D01*
X0166133Y0042492D01*
X0166376Y0042525D01*
X0166620Y0042552D01*
X0166864Y0042573D01*
X0167109Y0042588D01*
X0167355Y0042597D01*
X0167600Y0042600D01*
X0167845Y0042597D01*
X0168091Y0042588D01*
X0168336Y0042573D01*
X0168580Y0042552D01*
X0168824Y0042525D01*
X0169067Y0042492D01*
X0169310Y0042453D01*
X0169551Y0042408D01*
X0169791Y0042357D01*
X0170030Y0042300D01*
X0170267Y0042238D01*
X0170503Y0042169D01*
X0170737Y0042095D01*
X0170969Y0042015D01*
X0171199Y0041930D01*
X0171427Y0041839D01*
X0171652Y0041742D01*
X0171876Y0041640D01*
X0172096Y0041532D01*
X0172314Y0041419D01*
X0172529Y0041301D01*
X0172741Y0041177D01*
X0172950Y0041049D01*
X0173156Y0040915D01*
X0173358Y0040776D01*
X0173557Y0040632D01*
X0173752Y0040483D01*
X0173944Y0040330D01*
X0174132Y0040172D01*
X0174316Y0040010D01*
X0174495Y0039842D01*
X0174671Y0039671D01*
X0174842Y0039495D01*
X0175010Y0039316D01*
X0175172Y0039132D01*
X0175330Y0038944D01*
X0175483Y0038752D01*
X0175632Y0038557D01*
X0175776Y0038358D01*
X0175915Y0038156D01*
X0176049Y0037950D01*
X0176177Y0037741D01*
X0176301Y0037529D01*
X0176419Y0037314D01*
X0176532Y0037096D01*
X0176640Y0036876D01*
X0176742Y0036652D01*
X0176839Y0036427D01*
X0176930Y0036199D01*
X0177015Y0035969D01*
X0177095Y0035737D01*
X0177169Y0035503D01*
X0177238Y0035267D01*
X0177300Y0035030D01*
X0177357Y0034791D01*
X0177408Y0034551D01*
X0177453Y0034310D01*
X0177492Y0034067D01*
X0177525Y0033824D01*
X0177552Y0033580D01*
X0177573Y0033336D01*
X0177588Y0033091D01*
X0177597Y0032845D01*
X0177600Y0032600D01*
X0177597Y0032355D01*
X0177588Y0032109D01*
X0177573Y0031864D01*
X0177552Y0031620D01*
X0177525Y0031376D01*
X0177492Y0031133D01*
X0177453Y0030890D01*
X0177408Y0030649D01*
X0177357Y0030409D01*
X0177300Y0030170D01*
X0177238Y0029933D01*
X0177169Y0029697D01*
X0177095Y0029463D01*
X0177015Y0029231D01*
X0176930Y0029001D01*
X0176839Y0028773D01*
X0176742Y0028548D01*
X0176640Y0028324D01*
X0176532Y0028104D01*
X0176419Y0027886D01*
X0176301Y0027671D01*
X0176177Y0027459D01*
X0176049Y0027250D01*
X0175915Y0027044D01*
X0175776Y0026842D01*
X0175632Y0026643D01*
X0175483Y0026448D01*
X0175330Y0026256D01*
X0175172Y0026068D01*
X0175010Y0025884D01*
X0174842Y0025705D01*
X0174671Y0025529D01*
X0174495Y0025358D01*
X0174316Y0025190D01*
X0174132Y0025028D01*
X0173944Y0024870D01*
X0173752Y0024717D01*
X0173557Y0024568D01*
X0173358Y0024424D01*
X0173156Y0024285D01*
X0172950Y0024151D01*
X0172741Y0024023D01*
X0172529Y0023899D01*
X0172314Y0023781D01*
X0172096Y0023668D01*
X0171876Y0023560D01*
X0171652Y0023458D01*
X0171427Y0023361D01*
X0171199Y0023270D01*
X0170969Y0023185D01*
X0170737Y0023105D01*
X0170503Y0023031D01*
X0170267Y0022962D01*
X0170030Y0022900D01*
X0169791Y0022843D01*
X0169551Y0022792D01*
X0169310Y0022747D01*
X0169067Y0022708D01*
X0168824Y0022675D01*
X0168580Y0022648D01*
X0168336Y0022627D01*
X0168091Y0022612D01*
X0167845Y0022603D01*
X0167600Y0022600D01*
X0167355Y0022603D01*
X0167109Y0022612D01*
X0166864Y0022627D01*
X0166620Y0022648D01*
X0166376Y0022675D01*
X0166133Y0022708D01*
X0165890Y0022747D01*
X0165649Y0022792D01*
X0165409Y0022843D01*
X0165170Y0022900D01*
X0164933Y0022962D01*
X0164697Y0023031D01*
X0164463Y0023105D01*
X0164231Y0023185D01*
X0164001Y0023270D01*
X0163773Y0023361D01*
X0163548Y0023458D01*
X0163324Y0023560D01*
X0163104Y0023668D01*
X0162886Y0023781D01*
X0162671Y0023899D01*
X0162459Y0024023D01*
X0162250Y0024151D01*
X0162044Y0024285D01*
X0161842Y0024424D01*
X0161643Y0024568D01*
X0161448Y0024717D01*
X0161256Y0024870D01*
X0161068Y0025028D01*
X0160884Y0025190D01*
X0160705Y0025358D01*
X0160529Y0025529D01*
X0160358Y0025705D01*
X0160190Y0025884D01*
X0160028Y0026068D01*
X0159870Y0026256D01*
X0159717Y0026448D01*
X0159568Y0026643D01*
X0159424Y0026842D01*
X0159285Y0027044D01*
X0159151Y0027250D01*
X0159023Y0027459D01*
X0158899Y0027671D01*
X0158781Y0027886D01*
X0158668Y0028104D01*
X0158560Y0028324D01*
X0158458Y0028548D01*
X0158361Y0028773D01*
X0158270Y0029001D01*
X0158185Y0029231D01*
X0158105Y0029463D01*
X0158031Y0029697D01*
X0157962Y0029933D01*
X0157900Y0030170D01*
X0157843Y0030409D01*
X0157792Y0030649D01*
X0157747Y0030890D01*
X0157708Y0031133D01*
X0157675Y0031376D01*
X0157648Y0031620D01*
X0157627Y0031864D01*
X0157612Y0032109D01*
X0157603Y0032355D01*
X0157600Y0032600D01*
X0157600Y0062600D02*
X0157603Y0062845D01*
X0157612Y0063091D01*
X0157627Y0063336D01*
X0157648Y0063580D01*
X0157675Y0063824D01*
X0157708Y0064067D01*
X0157747Y0064310D01*
X0157792Y0064551D01*
X0157843Y0064791D01*
X0157900Y0065030D01*
X0157962Y0065267D01*
X0158031Y0065503D01*
X0158105Y0065737D01*
X0158185Y0065969D01*
X0158270Y0066199D01*
X0158361Y0066427D01*
X0158458Y0066652D01*
X0158560Y0066876D01*
X0158668Y0067096D01*
X0158781Y0067314D01*
X0158899Y0067529D01*
X0159023Y0067741D01*
X0159151Y0067950D01*
X0159285Y0068156D01*
X0159424Y0068358D01*
X0159568Y0068557D01*
X0159717Y0068752D01*
X0159870Y0068944D01*
X0160028Y0069132D01*
X0160190Y0069316D01*
X0160358Y0069495D01*
X0160529Y0069671D01*
X0160705Y0069842D01*
X0160884Y0070010D01*
X0161068Y0070172D01*
X0161256Y0070330D01*
X0161448Y0070483D01*
X0161643Y0070632D01*
X0161842Y0070776D01*
X0162044Y0070915D01*
X0162250Y0071049D01*
X0162459Y0071177D01*
X0162671Y0071301D01*
X0162886Y0071419D01*
X0163104Y0071532D01*
X0163324Y0071640D01*
X0163548Y0071742D01*
X0163773Y0071839D01*
X0164001Y0071930D01*
X0164231Y0072015D01*
X0164463Y0072095D01*
X0164697Y0072169D01*
X0164933Y0072238D01*
X0165170Y0072300D01*
X0165409Y0072357D01*
X0165649Y0072408D01*
X0165890Y0072453D01*
X0166133Y0072492D01*
X0166376Y0072525D01*
X0166620Y0072552D01*
X0166864Y0072573D01*
X0167109Y0072588D01*
X0167355Y0072597D01*
X0167600Y0072600D01*
X0167845Y0072597D01*
X0168091Y0072588D01*
X0168336Y0072573D01*
X0168580Y0072552D01*
X0168824Y0072525D01*
X0169067Y0072492D01*
X0169310Y0072453D01*
X0169551Y0072408D01*
X0169791Y0072357D01*
X0170030Y0072300D01*
X0170267Y0072238D01*
X0170503Y0072169D01*
X0170737Y0072095D01*
X0170969Y0072015D01*
X0171199Y0071930D01*
X0171427Y0071839D01*
X0171652Y0071742D01*
X0171876Y0071640D01*
X0172096Y0071532D01*
X0172314Y0071419D01*
X0172529Y0071301D01*
X0172741Y0071177D01*
X0172950Y0071049D01*
X0173156Y0070915D01*
X0173358Y0070776D01*
X0173557Y0070632D01*
X0173752Y0070483D01*
X0173944Y0070330D01*
X0174132Y0070172D01*
X0174316Y0070010D01*
X0174495Y0069842D01*
X0174671Y0069671D01*
X0174842Y0069495D01*
X0175010Y0069316D01*
X0175172Y0069132D01*
X0175330Y0068944D01*
X0175483Y0068752D01*
X0175632Y0068557D01*
X0175776Y0068358D01*
X0175915Y0068156D01*
X0176049Y0067950D01*
X0176177Y0067741D01*
X0176301Y0067529D01*
X0176419Y0067314D01*
X0176532Y0067096D01*
X0176640Y0066876D01*
X0176742Y0066652D01*
X0176839Y0066427D01*
X0176930Y0066199D01*
X0177015Y0065969D01*
X0177095Y0065737D01*
X0177169Y0065503D01*
X0177238Y0065267D01*
X0177300Y0065030D01*
X0177357Y0064791D01*
X0177408Y0064551D01*
X0177453Y0064310D01*
X0177492Y0064067D01*
X0177525Y0063824D01*
X0177552Y0063580D01*
X0177573Y0063336D01*
X0177588Y0063091D01*
X0177597Y0062845D01*
X0177600Y0062600D01*
X0177597Y0062355D01*
X0177588Y0062109D01*
X0177573Y0061864D01*
X0177552Y0061620D01*
X0177525Y0061376D01*
X0177492Y0061133D01*
X0177453Y0060890D01*
X0177408Y0060649D01*
X0177357Y0060409D01*
X0177300Y0060170D01*
X0177238Y0059933D01*
X0177169Y0059697D01*
X0177095Y0059463D01*
X0177015Y0059231D01*
X0176930Y0059001D01*
X0176839Y0058773D01*
X0176742Y0058548D01*
X0176640Y0058324D01*
X0176532Y0058104D01*
X0176419Y0057886D01*
X0176301Y0057671D01*
X0176177Y0057459D01*
X0176049Y0057250D01*
X0175915Y0057044D01*
X0175776Y0056842D01*
X0175632Y0056643D01*
X0175483Y0056448D01*
X0175330Y0056256D01*
X0175172Y0056068D01*
X0175010Y0055884D01*
X0174842Y0055705D01*
X0174671Y0055529D01*
X0174495Y0055358D01*
X0174316Y0055190D01*
X0174132Y0055028D01*
X0173944Y0054870D01*
X0173752Y0054717D01*
X0173557Y0054568D01*
X0173358Y0054424D01*
X0173156Y0054285D01*
X0172950Y0054151D01*
X0172741Y0054023D01*
X0172529Y0053899D01*
X0172314Y0053781D01*
X0172096Y0053668D01*
X0171876Y0053560D01*
X0171652Y0053458D01*
X0171427Y0053361D01*
X0171199Y0053270D01*
X0170969Y0053185D01*
X0170737Y0053105D01*
X0170503Y0053031D01*
X0170267Y0052962D01*
X0170030Y0052900D01*
X0169791Y0052843D01*
X0169551Y0052792D01*
X0169310Y0052747D01*
X0169067Y0052708D01*
X0168824Y0052675D01*
X0168580Y0052648D01*
X0168336Y0052627D01*
X0168091Y0052612D01*
X0167845Y0052603D01*
X0167600Y0052600D01*
X0167355Y0052603D01*
X0167109Y0052612D01*
X0166864Y0052627D01*
X0166620Y0052648D01*
X0166376Y0052675D01*
X0166133Y0052708D01*
X0165890Y0052747D01*
X0165649Y0052792D01*
X0165409Y0052843D01*
X0165170Y0052900D01*
X0164933Y0052962D01*
X0164697Y0053031D01*
X0164463Y0053105D01*
X0164231Y0053185D01*
X0164001Y0053270D01*
X0163773Y0053361D01*
X0163548Y0053458D01*
X0163324Y0053560D01*
X0163104Y0053668D01*
X0162886Y0053781D01*
X0162671Y0053899D01*
X0162459Y0054023D01*
X0162250Y0054151D01*
X0162044Y0054285D01*
X0161842Y0054424D01*
X0161643Y0054568D01*
X0161448Y0054717D01*
X0161256Y0054870D01*
X0161068Y0055028D01*
X0160884Y0055190D01*
X0160705Y0055358D01*
X0160529Y0055529D01*
X0160358Y0055705D01*
X0160190Y0055884D01*
X0160028Y0056068D01*
X0159870Y0056256D01*
X0159717Y0056448D01*
X0159568Y0056643D01*
X0159424Y0056842D01*
X0159285Y0057044D01*
X0159151Y0057250D01*
X0159023Y0057459D01*
X0158899Y0057671D01*
X0158781Y0057886D01*
X0158668Y0058104D01*
X0158560Y0058324D01*
X0158458Y0058548D01*
X0158361Y0058773D01*
X0158270Y0059001D01*
X0158185Y0059231D01*
X0158105Y0059463D01*
X0158031Y0059697D01*
X0157962Y0059933D01*
X0157900Y0060170D01*
X0157843Y0060409D01*
X0157792Y0060649D01*
X0157747Y0060890D01*
X0157708Y0061133D01*
X0157675Y0061376D01*
X0157648Y0061620D01*
X0157627Y0061864D01*
X0157612Y0062109D01*
X0157603Y0062355D01*
X0157600Y0062600D01*
X0157600Y0092600D02*
X0157603Y0092845D01*
X0157612Y0093091D01*
X0157627Y0093336D01*
X0157648Y0093580D01*
X0157675Y0093824D01*
X0157708Y0094067D01*
X0157747Y0094310D01*
X0157792Y0094551D01*
X0157843Y0094791D01*
X0157900Y0095030D01*
X0157962Y0095267D01*
X0158031Y0095503D01*
X0158105Y0095737D01*
X0158185Y0095969D01*
X0158270Y0096199D01*
X0158361Y0096427D01*
X0158458Y0096652D01*
X0158560Y0096876D01*
X0158668Y0097096D01*
X0158781Y0097314D01*
X0158899Y0097529D01*
X0159023Y0097741D01*
X0159151Y0097950D01*
X0159285Y0098156D01*
X0159424Y0098358D01*
X0159568Y0098557D01*
X0159717Y0098752D01*
X0159870Y0098944D01*
X0160028Y0099132D01*
X0160190Y0099316D01*
X0160358Y0099495D01*
X0160529Y0099671D01*
X0160705Y0099842D01*
X0160884Y0100010D01*
X0161068Y0100172D01*
X0161256Y0100330D01*
X0161448Y0100483D01*
X0161643Y0100632D01*
X0161842Y0100776D01*
X0162044Y0100915D01*
X0162250Y0101049D01*
X0162459Y0101177D01*
X0162671Y0101301D01*
X0162886Y0101419D01*
X0163104Y0101532D01*
X0163324Y0101640D01*
X0163548Y0101742D01*
X0163773Y0101839D01*
X0164001Y0101930D01*
X0164231Y0102015D01*
X0164463Y0102095D01*
X0164697Y0102169D01*
X0164933Y0102238D01*
X0165170Y0102300D01*
X0165409Y0102357D01*
X0165649Y0102408D01*
X0165890Y0102453D01*
X0166133Y0102492D01*
X0166376Y0102525D01*
X0166620Y0102552D01*
X0166864Y0102573D01*
X0167109Y0102588D01*
X0167355Y0102597D01*
X0167600Y0102600D01*
X0167845Y0102597D01*
X0168091Y0102588D01*
X0168336Y0102573D01*
X0168580Y0102552D01*
X0168824Y0102525D01*
X0169067Y0102492D01*
X0169310Y0102453D01*
X0169551Y0102408D01*
X0169791Y0102357D01*
X0170030Y0102300D01*
X0170267Y0102238D01*
X0170503Y0102169D01*
X0170737Y0102095D01*
X0170969Y0102015D01*
X0171199Y0101930D01*
X0171427Y0101839D01*
X0171652Y0101742D01*
X0171876Y0101640D01*
X0172096Y0101532D01*
X0172314Y0101419D01*
X0172529Y0101301D01*
X0172741Y0101177D01*
X0172950Y0101049D01*
X0173156Y0100915D01*
X0173358Y0100776D01*
X0173557Y0100632D01*
X0173752Y0100483D01*
X0173944Y0100330D01*
X0174132Y0100172D01*
X0174316Y0100010D01*
X0174495Y0099842D01*
X0174671Y0099671D01*
X0174842Y0099495D01*
X0175010Y0099316D01*
X0175172Y0099132D01*
X0175330Y0098944D01*
X0175483Y0098752D01*
X0175632Y0098557D01*
X0175776Y0098358D01*
X0175915Y0098156D01*
X0176049Y0097950D01*
X0176177Y0097741D01*
X0176301Y0097529D01*
X0176419Y0097314D01*
X0176532Y0097096D01*
X0176640Y0096876D01*
X0176742Y0096652D01*
X0176839Y0096427D01*
X0176930Y0096199D01*
X0177015Y0095969D01*
X0177095Y0095737D01*
X0177169Y0095503D01*
X0177238Y0095267D01*
X0177300Y0095030D01*
X0177357Y0094791D01*
X0177408Y0094551D01*
X0177453Y0094310D01*
X0177492Y0094067D01*
X0177525Y0093824D01*
X0177552Y0093580D01*
X0177573Y0093336D01*
X0177588Y0093091D01*
X0177597Y0092845D01*
X0177600Y0092600D01*
X0177597Y0092355D01*
X0177588Y0092109D01*
X0177573Y0091864D01*
X0177552Y0091620D01*
X0177525Y0091376D01*
X0177492Y0091133D01*
X0177453Y0090890D01*
X0177408Y0090649D01*
X0177357Y0090409D01*
X0177300Y0090170D01*
X0177238Y0089933D01*
X0177169Y0089697D01*
X0177095Y0089463D01*
X0177015Y0089231D01*
X0176930Y0089001D01*
X0176839Y0088773D01*
X0176742Y0088548D01*
X0176640Y0088324D01*
X0176532Y0088104D01*
X0176419Y0087886D01*
X0176301Y0087671D01*
X0176177Y0087459D01*
X0176049Y0087250D01*
X0175915Y0087044D01*
X0175776Y0086842D01*
X0175632Y0086643D01*
X0175483Y0086448D01*
X0175330Y0086256D01*
X0175172Y0086068D01*
X0175010Y0085884D01*
X0174842Y0085705D01*
X0174671Y0085529D01*
X0174495Y0085358D01*
X0174316Y0085190D01*
X0174132Y0085028D01*
X0173944Y0084870D01*
X0173752Y0084717D01*
X0173557Y0084568D01*
X0173358Y0084424D01*
X0173156Y0084285D01*
X0172950Y0084151D01*
X0172741Y0084023D01*
X0172529Y0083899D01*
X0172314Y0083781D01*
X0172096Y0083668D01*
X0171876Y0083560D01*
X0171652Y0083458D01*
X0171427Y0083361D01*
X0171199Y0083270D01*
X0170969Y0083185D01*
X0170737Y0083105D01*
X0170503Y0083031D01*
X0170267Y0082962D01*
X0170030Y0082900D01*
X0169791Y0082843D01*
X0169551Y0082792D01*
X0169310Y0082747D01*
X0169067Y0082708D01*
X0168824Y0082675D01*
X0168580Y0082648D01*
X0168336Y0082627D01*
X0168091Y0082612D01*
X0167845Y0082603D01*
X0167600Y0082600D01*
X0167355Y0082603D01*
X0167109Y0082612D01*
X0166864Y0082627D01*
X0166620Y0082648D01*
X0166376Y0082675D01*
X0166133Y0082708D01*
X0165890Y0082747D01*
X0165649Y0082792D01*
X0165409Y0082843D01*
X0165170Y0082900D01*
X0164933Y0082962D01*
X0164697Y0083031D01*
X0164463Y0083105D01*
X0164231Y0083185D01*
X0164001Y0083270D01*
X0163773Y0083361D01*
X0163548Y0083458D01*
X0163324Y0083560D01*
X0163104Y0083668D01*
X0162886Y0083781D01*
X0162671Y0083899D01*
X0162459Y0084023D01*
X0162250Y0084151D01*
X0162044Y0084285D01*
X0161842Y0084424D01*
X0161643Y0084568D01*
X0161448Y0084717D01*
X0161256Y0084870D01*
X0161068Y0085028D01*
X0160884Y0085190D01*
X0160705Y0085358D01*
X0160529Y0085529D01*
X0160358Y0085705D01*
X0160190Y0085884D01*
X0160028Y0086068D01*
X0159870Y0086256D01*
X0159717Y0086448D01*
X0159568Y0086643D01*
X0159424Y0086842D01*
X0159285Y0087044D01*
X0159151Y0087250D01*
X0159023Y0087459D01*
X0158899Y0087671D01*
X0158781Y0087886D01*
X0158668Y0088104D01*
X0158560Y0088324D01*
X0158458Y0088548D01*
X0158361Y0088773D01*
X0158270Y0089001D01*
X0158185Y0089231D01*
X0158105Y0089463D01*
X0158031Y0089697D01*
X0157962Y0089933D01*
X0157900Y0090170D01*
X0157843Y0090409D01*
X0157792Y0090649D01*
X0157747Y0090890D01*
X0157708Y0091133D01*
X0157675Y0091376D01*
X0157648Y0091620D01*
X0157627Y0091864D01*
X0157612Y0092109D01*
X0157603Y0092355D01*
X0157600Y0092600D01*
X0082600Y0092600D02*
X0082603Y0092845D01*
X0082612Y0093091D01*
X0082627Y0093336D01*
X0082648Y0093580D01*
X0082675Y0093824D01*
X0082708Y0094067D01*
X0082747Y0094310D01*
X0082792Y0094551D01*
X0082843Y0094791D01*
X0082900Y0095030D01*
X0082962Y0095267D01*
X0083031Y0095503D01*
X0083105Y0095737D01*
X0083185Y0095969D01*
X0083270Y0096199D01*
X0083361Y0096427D01*
X0083458Y0096652D01*
X0083560Y0096876D01*
X0083668Y0097096D01*
X0083781Y0097314D01*
X0083899Y0097529D01*
X0084023Y0097741D01*
X0084151Y0097950D01*
X0084285Y0098156D01*
X0084424Y0098358D01*
X0084568Y0098557D01*
X0084717Y0098752D01*
X0084870Y0098944D01*
X0085028Y0099132D01*
X0085190Y0099316D01*
X0085358Y0099495D01*
X0085529Y0099671D01*
X0085705Y0099842D01*
X0085884Y0100010D01*
X0086068Y0100172D01*
X0086256Y0100330D01*
X0086448Y0100483D01*
X0086643Y0100632D01*
X0086842Y0100776D01*
X0087044Y0100915D01*
X0087250Y0101049D01*
X0087459Y0101177D01*
X0087671Y0101301D01*
X0087886Y0101419D01*
X0088104Y0101532D01*
X0088324Y0101640D01*
X0088548Y0101742D01*
X0088773Y0101839D01*
X0089001Y0101930D01*
X0089231Y0102015D01*
X0089463Y0102095D01*
X0089697Y0102169D01*
X0089933Y0102238D01*
X0090170Y0102300D01*
X0090409Y0102357D01*
X0090649Y0102408D01*
X0090890Y0102453D01*
X0091133Y0102492D01*
X0091376Y0102525D01*
X0091620Y0102552D01*
X0091864Y0102573D01*
X0092109Y0102588D01*
X0092355Y0102597D01*
X0092600Y0102600D01*
X0092845Y0102597D01*
X0093091Y0102588D01*
X0093336Y0102573D01*
X0093580Y0102552D01*
X0093824Y0102525D01*
X0094067Y0102492D01*
X0094310Y0102453D01*
X0094551Y0102408D01*
X0094791Y0102357D01*
X0095030Y0102300D01*
X0095267Y0102238D01*
X0095503Y0102169D01*
X0095737Y0102095D01*
X0095969Y0102015D01*
X0096199Y0101930D01*
X0096427Y0101839D01*
X0096652Y0101742D01*
X0096876Y0101640D01*
X0097096Y0101532D01*
X0097314Y0101419D01*
X0097529Y0101301D01*
X0097741Y0101177D01*
X0097950Y0101049D01*
X0098156Y0100915D01*
X0098358Y0100776D01*
X0098557Y0100632D01*
X0098752Y0100483D01*
X0098944Y0100330D01*
X0099132Y0100172D01*
X0099316Y0100010D01*
X0099495Y0099842D01*
X0099671Y0099671D01*
X0099842Y0099495D01*
X0100010Y0099316D01*
X0100172Y0099132D01*
X0100330Y0098944D01*
X0100483Y0098752D01*
X0100632Y0098557D01*
X0100776Y0098358D01*
X0100915Y0098156D01*
X0101049Y0097950D01*
X0101177Y0097741D01*
X0101301Y0097529D01*
X0101419Y0097314D01*
X0101532Y0097096D01*
X0101640Y0096876D01*
X0101742Y0096652D01*
X0101839Y0096427D01*
X0101930Y0096199D01*
X0102015Y0095969D01*
X0102095Y0095737D01*
X0102169Y0095503D01*
X0102238Y0095267D01*
X0102300Y0095030D01*
X0102357Y0094791D01*
X0102408Y0094551D01*
X0102453Y0094310D01*
X0102492Y0094067D01*
X0102525Y0093824D01*
X0102552Y0093580D01*
X0102573Y0093336D01*
X0102588Y0093091D01*
X0102597Y0092845D01*
X0102600Y0092600D01*
X0102597Y0092355D01*
X0102588Y0092109D01*
X0102573Y0091864D01*
X0102552Y0091620D01*
X0102525Y0091376D01*
X0102492Y0091133D01*
X0102453Y0090890D01*
X0102408Y0090649D01*
X0102357Y0090409D01*
X0102300Y0090170D01*
X0102238Y0089933D01*
X0102169Y0089697D01*
X0102095Y0089463D01*
X0102015Y0089231D01*
X0101930Y0089001D01*
X0101839Y0088773D01*
X0101742Y0088548D01*
X0101640Y0088324D01*
X0101532Y0088104D01*
X0101419Y0087886D01*
X0101301Y0087671D01*
X0101177Y0087459D01*
X0101049Y0087250D01*
X0100915Y0087044D01*
X0100776Y0086842D01*
X0100632Y0086643D01*
X0100483Y0086448D01*
X0100330Y0086256D01*
X0100172Y0086068D01*
X0100010Y0085884D01*
X0099842Y0085705D01*
X0099671Y0085529D01*
X0099495Y0085358D01*
X0099316Y0085190D01*
X0099132Y0085028D01*
X0098944Y0084870D01*
X0098752Y0084717D01*
X0098557Y0084568D01*
X0098358Y0084424D01*
X0098156Y0084285D01*
X0097950Y0084151D01*
X0097741Y0084023D01*
X0097529Y0083899D01*
X0097314Y0083781D01*
X0097096Y0083668D01*
X0096876Y0083560D01*
X0096652Y0083458D01*
X0096427Y0083361D01*
X0096199Y0083270D01*
X0095969Y0083185D01*
X0095737Y0083105D01*
X0095503Y0083031D01*
X0095267Y0082962D01*
X0095030Y0082900D01*
X0094791Y0082843D01*
X0094551Y0082792D01*
X0094310Y0082747D01*
X0094067Y0082708D01*
X0093824Y0082675D01*
X0093580Y0082648D01*
X0093336Y0082627D01*
X0093091Y0082612D01*
X0092845Y0082603D01*
X0092600Y0082600D01*
X0092355Y0082603D01*
X0092109Y0082612D01*
X0091864Y0082627D01*
X0091620Y0082648D01*
X0091376Y0082675D01*
X0091133Y0082708D01*
X0090890Y0082747D01*
X0090649Y0082792D01*
X0090409Y0082843D01*
X0090170Y0082900D01*
X0089933Y0082962D01*
X0089697Y0083031D01*
X0089463Y0083105D01*
X0089231Y0083185D01*
X0089001Y0083270D01*
X0088773Y0083361D01*
X0088548Y0083458D01*
X0088324Y0083560D01*
X0088104Y0083668D01*
X0087886Y0083781D01*
X0087671Y0083899D01*
X0087459Y0084023D01*
X0087250Y0084151D01*
X0087044Y0084285D01*
X0086842Y0084424D01*
X0086643Y0084568D01*
X0086448Y0084717D01*
X0086256Y0084870D01*
X0086068Y0085028D01*
X0085884Y0085190D01*
X0085705Y0085358D01*
X0085529Y0085529D01*
X0085358Y0085705D01*
X0085190Y0085884D01*
X0085028Y0086068D01*
X0084870Y0086256D01*
X0084717Y0086448D01*
X0084568Y0086643D01*
X0084424Y0086842D01*
X0084285Y0087044D01*
X0084151Y0087250D01*
X0084023Y0087459D01*
X0083899Y0087671D01*
X0083781Y0087886D01*
X0083668Y0088104D01*
X0083560Y0088324D01*
X0083458Y0088548D01*
X0083361Y0088773D01*
X0083270Y0089001D01*
X0083185Y0089231D01*
X0083105Y0089463D01*
X0083031Y0089697D01*
X0082962Y0089933D01*
X0082900Y0090170D01*
X0082843Y0090409D01*
X0082792Y0090649D01*
X0082747Y0090890D01*
X0082708Y0091133D01*
X0082675Y0091376D01*
X0082648Y0091620D01*
X0082627Y0091864D01*
X0082612Y0092109D01*
X0082603Y0092355D01*
X0082600Y0092600D01*
X0052600Y0092600D02*
X0052603Y0092845D01*
X0052612Y0093091D01*
X0052627Y0093336D01*
X0052648Y0093580D01*
X0052675Y0093824D01*
X0052708Y0094067D01*
X0052747Y0094310D01*
X0052792Y0094551D01*
X0052843Y0094791D01*
X0052900Y0095030D01*
X0052962Y0095267D01*
X0053031Y0095503D01*
X0053105Y0095737D01*
X0053185Y0095969D01*
X0053270Y0096199D01*
X0053361Y0096427D01*
X0053458Y0096652D01*
X0053560Y0096876D01*
X0053668Y0097096D01*
X0053781Y0097314D01*
X0053899Y0097529D01*
X0054023Y0097741D01*
X0054151Y0097950D01*
X0054285Y0098156D01*
X0054424Y0098358D01*
X0054568Y0098557D01*
X0054717Y0098752D01*
X0054870Y0098944D01*
X0055028Y0099132D01*
X0055190Y0099316D01*
X0055358Y0099495D01*
X0055529Y0099671D01*
X0055705Y0099842D01*
X0055884Y0100010D01*
X0056068Y0100172D01*
X0056256Y0100330D01*
X0056448Y0100483D01*
X0056643Y0100632D01*
X0056842Y0100776D01*
X0057044Y0100915D01*
X0057250Y0101049D01*
X0057459Y0101177D01*
X0057671Y0101301D01*
X0057886Y0101419D01*
X0058104Y0101532D01*
X0058324Y0101640D01*
X0058548Y0101742D01*
X0058773Y0101839D01*
X0059001Y0101930D01*
X0059231Y0102015D01*
X0059463Y0102095D01*
X0059697Y0102169D01*
X0059933Y0102238D01*
X0060170Y0102300D01*
X0060409Y0102357D01*
X0060649Y0102408D01*
X0060890Y0102453D01*
X0061133Y0102492D01*
X0061376Y0102525D01*
X0061620Y0102552D01*
X0061864Y0102573D01*
X0062109Y0102588D01*
X0062355Y0102597D01*
X0062600Y0102600D01*
X0062845Y0102597D01*
X0063091Y0102588D01*
X0063336Y0102573D01*
X0063580Y0102552D01*
X0063824Y0102525D01*
X0064067Y0102492D01*
X0064310Y0102453D01*
X0064551Y0102408D01*
X0064791Y0102357D01*
X0065030Y0102300D01*
X0065267Y0102238D01*
X0065503Y0102169D01*
X0065737Y0102095D01*
X0065969Y0102015D01*
X0066199Y0101930D01*
X0066427Y0101839D01*
X0066652Y0101742D01*
X0066876Y0101640D01*
X0067096Y0101532D01*
X0067314Y0101419D01*
X0067529Y0101301D01*
X0067741Y0101177D01*
X0067950Y0101049D01*
X0068156Y0100915D01*
X0068358Y0100776D01*
X0068557Y0100632D01*
X0068752Y0100483D01*
X0068944Y0100330D01*
X0069132Y0100172D01*
X0069316Y0100010D01*
X0069495Y0099842D01*
X0069671Y0099671D01*
X0069842Y0099495D01*
X0070010Y0099316D01*
X0070172Y0099132D01*
X0070330Y0098944D01*
X0070483Y0098752D01*
X0070632Y0098557D01*
X0070776Y0098358D01*
X0070915Y0098156D01*
X0071049Y0097950D01*
X0071177Y0097741D01*
X0071301Y0097529D01*
X0071419Y0097314D01*
X0071532Y0097096D01*
X0071640Y0096876D01*
X0071742Y0096652D01*
X0071839Y0096427D01*
X0071930Y0096199D01*
X0072015Y0095969D01*
X0072095Y0095737D01*
X0072169Y0095503D01*
X0072238Y0095267D01*
X0072300Y0095030D01*
X0072357Y0094791D01*
X0072408Y0094551D01*
X0072453Y0094310D01*
X0072492Y0094067D01*
X0072525Y0093824D01*
X0072552Y0093580D01*
X0072573Y0093336D01*
X0072588Y0093091D01*
X0072597Y0092845D01*
X0072600Y0092600D01*
X0072597Y0092355D01*
X0072588Y0092109D01*
X0072573Y0091864D01*
X0072552Y0091620D01*
X0072525Y0091376D01*
X0072492Y0091133D01*
X0072453Y0090890D01*
X0072408Y0090649D01*
X0072357Y0090409D01*
X0072300Y0090170D01*
X0072238Y0089933D01*
X0072169Y0089697D01*
X0072095Y0089463D01*
X0072015Y0089231D01*
X0071930Y0089001D01*
X0071839Y0088773D01*
X0071742Y0088548D01*
X0071640Y0088324D01*
X0071532Y0088104D01*
X0071419Y0087886D01*
X0071301Y0087671D01*
X0071177Y0087459D01*
X0071049Y0087250D01*
X0070915Y0087044D01*
X0070776Y0086842D01*
X0070632Y0086643D01*
X0070483Y0086448D01*
X0070330Y0086256D01*
X0070172Y0086068D01*
X0070010Y0085884D01*
X0069842Y0085705D01*
X0069671Y0085529D01*
X0069495Y0085358D01*
X0069316Y0085190D01*
X0069132Y0085028D01*
X0068944Y0084870D01*
X0068752Y0084717D01*
X0068557Y0084568D01*
X0068358Y0084424D01*
X0068156Y0084285D01*
X0067950Y0084151D01*
X0067741Y0084023D01*
X0067529Y0083899D01*
X0067314Y0083781D01*
X0067096Y0083668D01*
X0066876Y0083560D01*
X0066652Y0083458D01*
X0066427Y0083361D01*
X0066199Y0083270D01*
X0065969Y0083185D01*
X0065737Y0083105D01*
X0065503Y0083031D01*
X0065267Y0082962D01*
X0065030Y0082900D01*
X0064791Y0082843D01*
X0064551Y0082792D01*
X0064310Y0082747D01*
X0064067Y0082708D01*
X0063824Y0082675D01*
X0063580Y0082648D01*
X0063336Y0082627D01*
X0063091Y0082612D01*
X0062845Y0082603D01*
X0062600Y0082600D01*
X0062355Y0082603D01*
X0062109Y0082612D01*
X0061864Y0082627D01*
X0061620Y0082648D01*
X0061376Y0082675D01*
X0061133Y0082708D01*
X0060890Y0082747D01*
X0060649Y0082792D01*
X0060409Y0082843D01*
X0060170Y0082900D01*
X0059933Y0082962D01*
X0059697Y0083031D01*
X0059463Y0083105D01*
X0059231Y0083185D01*
X0059001Y0083270D01*
X0058773Y0083361D01*
X0058548Y0083458D01*
X0058324Y0083560D01*
X0058104Y0083668D01*
X0057886Y0083781D01*
X0057671Y0083899D01*
X0057459Y0084023D01*
X0057250Y0084151D01*
X0057044Y0084285D01*
X0056842Y0084424D01*
X0056643Y0084568D01*
X0056448Y0084717D01*
X0056256Y0084870D01*
X0056068Y0085028D01*
X0055884Y0085190D01*
X0055705Y0085358D01*
X0055529Y0085529D01*
X0055358Y0085705D01*
X0055190Y0085884D01*
X0055028Y0086068D01*
X0054870Y0086256D01*
X0054717Y0086448D01*
X0054568Y0086643D01*
X0054424Y0086842D01*
X0054285Y0087044D01*
X0054151Y0087250D01*
X0054023Y0087459D01*
X0053899Y0087671D01*
X0053781Y0087886D01*
X0053668Y0088104D01*
X0053560Y0088324D01*
X0053458Y0088548D01*
X0053361Y0088773D01*
X0053270Y0089001D01*
X0053185Y0089231D01*
X0053105Y0089463D01*
X0053031Y0089697D01*
X0052962Y0089933D01*
X0052900Y0090170D01*
X0052843Y0090409D01*
X0052792Y0090649D01*
X0052747Y0090890D01*
X0052708Y0091133D01*
X0052675Y0091376D01*
X0052648Y0091620D01*
X0052627Y0091864D01*
X0052612Y0092109D01*
X0052603Y0092355D01*
X0052600Y0092600D01*
X0022600Y0092600D02*
X0022603Y0092845D01*
X0022612Y0093091D01*
X0022627Y0093336D01*
X0022648Y0093580D01*
X0022675Y0093824D01*
X0022708Y0094067D01*
X0022747Y0094310D01*
X0022792Y0094551D01*
X0022843Y0094791D01*
X0022900Y0095030D01*
X0022962Y0095267D01*
X0023031Y0095503D01*
X0023105Y0095737D01*
X0023185Y0095969D01*
X0023270Y0096199D01*
X0023361Y0096427D01*
X0023458Y0096652D01*
X0023560Y0096876D01*
X0023668Y0097096D01*
X0023781Y0097314D01*
X0023899Y0097529D01*
X0024023Y0097741D01*
X0024151Y0097950D01*
X0024285Y0098156D01*
X0024424Y0098358D01*
X0024568Y0098557D01*
X0024717Y0098752D01*
X0024870Y0098944D01*
X0025028Y0099132D01*
X0025190Y0099316D01*
X0025358Y0099495D01*
X0025529Y0099671D01*
X0025705Y0099842D01*
X0025884Y0100010D01*
X0026068Y0100172D01*
X0026256Y0100330D01*
X0026448Y0100483D01*
X0026643Y0100632D01*
X0026842Y0100776D01*
X0027044Y0100915D01*
X0027250Y0101049D01*
X0027459Y0101177D01*
X0027671Y0101301D01*
X0027886Y0101419D01*
X0028104Y0101532D01*
X0028324Y0101640D01*
X0028548Y0101742D01*
X0028773Y0101839D01*
X0029001Y0101930D01*
X0029231Y0102015D01*
X0029463Y0102095D01*
X0029697Y0102169D01*
X0029933Y0102238D01*
X0030170Y0102300D01*
X0030409Y0102357D01*
X0030649Y0102408D01*
X0030890Y0102453D01*
X0031133Y0102492D01*
X0031376Y0102525D01*
X0031620Y0102552D01*
X0031864Y0102573D01*
X0032109Y0102588D01*
X0032355Y0102597D01*
X0032600Y0102600D01*
X0032845Y0102597D01*
X0033091Y0102588D01*
X0033336Y0102573D01*
X0033580Y0102552D01*
X0033824Y0102525D01*
X0034067Y0102492D01*
X0034310Y0102453D01*
X0034551Y0102408D01*
X0034791Y0102357D01*
X0035030Y0102300D01*
X0035267Y0102238D01*
X0035503Y0102169D01*
X0035737Y0102095D01*
X0035969Y0102015D01*
X0036199Y0101930D01*
X0036427Y0101839D01*
X0036652Y0101742D01*
X0036876Y0101640D01*
X0037096Y0101532D01*
X0037314Y0101419D01*
X0037529Y0101301D01*
X0037741Y0101177D01*
X0037950Y0101049D01*
X0038156Y0100915D01*
X0038358Y0100776D01*
X0038557Y0100632D01*
X0038752Y0100483D01*
X0038944Y0100330D01*
X0039132Y0100172D01*
X0039316Y0100010D01*
X0039495Y0099842D01*
X0039671Y0099671D01*
X0039842Y0099495D01*
X0040010Y0099316D01*
X0040172Y0099132D01*
X0040330Y0098944D01*
X0040483Y0098752D01*
X0040632Y0098557D01*
X0040776Y0098358D01*
X0040915Y0098156D01*
X0041049Y0097950D01*
X0041177Y0097741D01*
X0041301Y0097529D01*
X0041419Y0097314D01*
X0041532Y0097096D01*
X0041640Y0096876D01*
X0041742Y0096652D01*
X0041839Y0096427D01*
X0041930Y0096199D01*
X0042015Y0095969D01*
X0042095Y0095737D01*
X0042169Y0095503D01*
X0042238Y0095267D01*
X0042300Y0095030D01*
X0042357Y0094791D01*
X0042408Y0094551D01*
X0042453Y0094310D01*
X0042492Y0094067D01*
X0042525Y0093824D01*
X0042552Y0093580D01*
X0042573Y0093336D01*
X0042588Y0093091D01*
X0042597Y0092845D01*
X0042600Y0092600D01*
X0042597Y0092355D01*
X0042588Y0092109D01*
X0042573Y0091864D01*
X0042552Y0091620D01*
X0042525Y0091376D01*
X0042492Y0091133D01*
X0042453Y0090890D01*
X0042408Y0090649D01*
X0042357Y0090409D01*
X0042300Y0090170D01*
X0042238Y0089933D01*
X0042169Y0089697D01*
X0042095Y0089463D01*
X0042015Y0089231D01*
X0041930Y0089001D01*
X0041839Y0088773D01*
X0041742Y0088548D01*
X0041640Y0088324D01*
X0041532Y0088104D01*
X0041419Y0087886D01*
X0041301Y0087671D01*
X0041177Y0087459D01*
X0041049Y0087250D01*
X0040915Y0087044D01*
X0040776Y0086842D01*
X0040632Y0086643D01*
X0040483Y0086448D01*
X0040330Y0086256D01*
X0040172Y0086068D01*
X0040010Y0085884D01*
X0039842Y0085705D01*
X0039671Y0085529D01*
X0039495Y0085358D01*
X0039316Y0085190D01*
X0039132Y0085028D01*
X0038944Y0084870D01*
X0038752Y0084717D01*
X0038557Y0084568D01*
X0038358Y0084424D01*
X0038156Y0084285D01*
X0037950Y0084151D01*
X0037741Y0084023D01*
X0037529Y0083899D01*
X0037314Y0083781D01*
X0037096Y0083668D01*
X0036876Y0083560D01*
X0036652Y0083458D01*
X0036427Y0083361D01*
X0036199Y0083270D01*
X0035969Y0083185D01*
X0035737Y0083105D01*
X0035503Y0083031D01*
X0035267Y0082962D01*
X0035030Y0082900D01*
X0034791Y0082843D01*
X0034551Y0082792D01*
X0034310Y0082747D01*
X0034067Y0082708D01*
X0033824Y0082675D01*
X0033580Y0082648D01*
X0033336Y0082627D01*
X0033091Y0082612D01*
X0032845Y0082603D01*
X0032600Y0082600D01*
X0032355Y0082603D01*
X0032109Y0082612D01*
X0031864Y0082627D01*
X0031620Y0082648D01*
X0031376Y0082675D01*
X0031133Y0082708D01*
X0030890Y0082747D01*
X0030649Y0082792D01*
X0030409Y0082843D01*
X0030170Y0082900D01*
X0029933Y0082962D01*
X0029697Y0083031D01*
X0029463Y0083105D01*
X0029231Y0083185D01*
X0029001Y0083270D01*
X0028773Y0083361D01*
X0028548Y0083458D01*
X0028324Y0083560D01*
X0028104Y0083668D01*
X0027886Y0083781D01*
X0027671Y0083899D01*
X0027459Y0084023D01*
X0027250Y0084151D01*
X0027044Y0084285D01*
X0026842Y0084424D01*
X0026643Y0084568D01*
X0026448Y0084717D01*
X0026256Y0084870D01*
X0026068Y0085028D01*
X0025884Y0085190D01*
X0025705Y0085358D01*
X0025529Y0085529D01*
X0025358Y0085705D01*
X0025190Y0085884D01*
X0025028Y0086068D01*
X0024870Y0086256D01*
X0024717Y0086448D01*
X0024568Y0086643D01*
X0024424Y0086842D01*
X0024285Y0087044D01*
X0024151Y0087250D01*
X0024023Y0087459D01*
X0023899Y0087671D01*
X0023781Y0087886D01*
X0023668Y0088104D01*
X0023560Y0088324D01*
X0023458Y0088548D01*
X0023361Y0088773D01*
X0023270Y0089001D01*
X0023185Y0089231D01*
X0023105Y0089463D01*
X0023031Y0089697D01*
X0022962Y0089933D01*
X0022900Y0090170D01*
X0022843Y0090409D01*
X0022792Y0090649D01*
X0022747Y0090890D01*
X0022708Y0091133D01*
X0022675Y0091376D01*
X0022648Y0091620D01*
X0022627Y0091864D01*
X0022612Y0092109D01*
X0022603Y0092355D01*
X0022600Y0092600D01*
D11*
X0025100Y0102600D02*
X0040100Y0102600D01*
X0055100Y0102600D02*
X0070100Y0102600D01*
X0085100Y0102600D02*
X0100100Y0102600D01*
X0177600Y0100100D02*
X0177600Y0085100D01*
X0177600Y0070100D02*
X0177600Y0055100D01*
X0177600Y0040100D02*
X0177600Y0025100D01*
D12*
X0177413Y0024857D01*
X0177221Y0024619D01*
X0177022Y0024386D01*
X0176818Y0024158D01*
X0176609Y0023935D01*
X0176394Y0023717D01*
X0176174Y0023504D01*
X0175949Y0023297D01*
X0175718Y0023095D01*
X0175483Y0022899D01*
X0175243Y0022709D01*
X0174999Y0022525D01*
X0174750Y0022347D01*
X0174496Y0022175D01*
X0174239Y0022009D01*
X0173978Y0021849D01*
X0173713Y0021696D01*
X0173444Y0021550D01*
X0173171Y0021410D01*
X0172896Y0021277D01*
X0172617Y0021151D01*
X0172335Y0021031D01*
X0172050Y0020919D01*
X0171763Y0020814D01*
X0171473Y0020715D01*
X0171181Y0020624D01*
X0170886Y0020540D01*
X0170590Y0020463D01*
X0170292Y0020393D01*
X0169992Y0020331D01*
X0169691Y0020276D01*
X0169389Y0020229D01*
X0169085Y0020189D01*
X0168781Y0020156D01*
X0168476Y0020131D01*
X0168170Y0020113D01*
X0167864Y0020103D01*
X0167558Y0020100D01*
X0167252Y0020105D01*
X0166946Y0020117D01*
X0166640Y0020137D01*
X0166336Y0020164D01*
X0166031Y0020199D01*
X0165728Y0020241D01*
X0165426Y0020290D01*
X0165125Y0020347D01*
X0164826Y0020412D01*
X0164528Y0020483D01*
X0164233Y0020562D01*
X0163939Y0020648D01*
X0163647Y0020741D01*
X0163358Y0020842D01*
X0163071Y0020949D01*
X0162787Y0021064D01*
X0162506Y0021185D01*
X0162228Y0021313D01*
X0161953Y0021448D01*
X0161682Y0021590D01*
X0161414Y0021738D01*
X0161150Y0021893D01*
X0160890Y0022054D01*
X0160634Y0022221D01*
X0160381Y0022395D01*
X0160134Y0022575D01*
X0159890Y0022761D01*
X0159652Y0022952D01*
X0159418Y0023150D01*
X0159189Y0023353D01*
X0158965Y0023562D01*
X0158746Y0023776D01*
X0158533Y0023996D01*
X0158325Y0024220D01*
X0158122Y0024450D01*
X0157926Y0024684D01*
X0157735Y0024924D01*
X0157550Y0025167D01*
X0157371Y0025416D01*
X0157198Y0025668D01*
X0157031Y0025925D01*
X0156871Y0026186D01*
X0156717Y0026451D01*
X0156570Y0026719D01*
X0156429Y0026991D01*
X0156295Y0027266D01*
X0156168Y0027545D01*
X0156047Y0027826D01*
X0155934Y0028111D01*
X0155828Y0028398D01*
X0155728Y0028687D01*
X0155636Y0028979D01*
X0155551Y0029273D01*
X0155473Y0029569D01*
X0155402Y0029867D01*
X0155339Y0030167D01*
X0155283Y0030468D01*
X0155235Y0030770D01*
X0155194Y0031073D01*
X0155160Y0031377D01*
X0155134Y0031682D01*
X0155115Y0031988D01*
X0155104Y0032294D01*
X0155100Y0032600D01*
X0155104Y0032906D01*
X0155115Y0033212D01*
X0155134Y0033518D01*
X0155160Y0033823D01*
X0155194Y0034127D01*
X0155235Y0034430D01*
X0155283Y0034732D01*
X0155339Y0035033D01*
X0155402Y0035333D01*
X0155473Y0035631D01*
X0155551Y0035927D01*
X0155636Y0036221D01*
X0155728Y0036513D01*
X0155828Y0036802D01*
X0155934Y0037089D01*
X0156047Y0037374D01*
X0156168Y0037655D01*
X0156295Y0037934D01*
X0156429Y0038209D01*
X0156570Y0038481D01*
X0156717Y0038749D01*
X0156871Y0039014D01*
X0157031Y0039275D01*
X0157198Y0039532D01*
X0157371Y0039784D01*
X0157550Y0040033D01*
X0157735Y0040276D01*
X0157926Y0040516D01*
X0158122Y0040750D01*
X0158325Y0040980D01*
X0158533Y0041204D01*
X0158746Y0041424D01*
X0158965Y0041638D01*
X0159189Y0041847D01*
X0159418Y0042050D01*
X0159652Y0042248D01*
X0159890Y0042439D01*
X0160134Y0042625D01*
X0160381Y0042805D01*
X0160634Y0042979D01*
X0160890Y0043146D01*
X0161150Y0043307D01*
X0161414Y0043462D01*
X0161682Y0043610D01*
X0161953Y0043752D01*
X0162228Y0043887D01*
X0162506Y0044015D01*
X0162787Y0044136D01*
X0163071Y0044251D01*
X0163358Y0044358D01*
X0163647Y0044459D01*
X0163939Y0044552D01*
X0164233Y0044638D01*
X0164528Y0044717D01*
X0164826Y0044788D01*
X0165125Y0044853D01*
X0165426Y0044910D01*
X0165728Y0044959D01*
X0166031Y0045001D01*
X0166336Y0045036D01*
X0166640Y0045063D01*
X0166946Y0045083D01*
X0167252Y0045095D01*
X0167558Y0045100D01*
X0167864Y0045097D01*
X0168170Y0045087D01*
X0168476Y0045069D01*
X0168781Y0045044D01*
X0169085Y0045011D01*
X0169389Y0044971D01*
X0169691Y0044924D01*
X0169992Y0044869D01*
X0170292Y0044807D01*
X0170590Y0044737D01*
X0170886Y0044660D01*
X0171181Y0044576D01*
X0171473Y0044485D01*
X0171763Y0044386D01*
X0172050Y0044281D01*
X0172335Y0044169D01*
X0172617Y0044049D01*
X0172896Y0043923D01*
X0173171Y0043790D01*
X0173444Y0043650D01*
X0173713Y0043504D01*
X0173978Y0043351D01*
X0174239Y0043191D01*
X0174496Y0043025D01*
X0174750Y0042853D01*
X0174999Y0042675D01*
X0175243Y0042491D01*
X0175483Y0042301D01*
X0175718Y0042105D01*
X0175949Y0041903D01*
X0176174Y0041696D01*
X0176394Y0041483D01*
X0176609Y0041265D01*
X0176818Y0041042D01*
X0177022Y0040814D01*
X0177221Y0040581D01*
X0177413Y0040343D01*
X0177600Y0040100D01*
X0177600Y0055100D02*
X0177413Y0054857D01*
X0177221Y0054619D01*
X0177022Y0054386D01*
X0176818Y0054158D01*
X0176609Y0053935D01*
X0176394Y0053717D01*
X0176174Y0053504D01*
X0175949Y0053297D01*
X0175718Y0053095D01*
X0175483Y0052899D01*
X0175243Y0052709D01*
X0174999Y0052525D01*
X0174750Y0052347D01*
X0174496Y0052175D01*
X0174239Y0052009D01*
X0173978Y0051849D01*
X0173713Y0051696D01*
X0173444Y0051550D01*
X0173171Y0051410D01*
X0172896Y0051277D01*
X0172617Y0051151D01*
X0172335Y0051031D01*
X0172050Y0050919D01*
X0171763Y0050814D01*
X0171473Y0050715D01*
X0171181Y0050624D01*
X0170886Y0050540D01*
X0170590Y0050463D01*
X0170292Y0050393D01*
X0169992Y0050331D01*
X0169691Y0050276D01*
X0169389Y0050229D01*
X0169085Y0050189D01*
X0168781Y0050156D01*
X0168476Y0050131D01*
X0168170Y0050113D01*
X0167864Y0050103D01*
X0167558Y0050100D01*
X0167252Y0050105D01*
X0166946Y0050117D01*
X0166640Y0050137D01*
X0166336Y0050164D01*
X0166031Y0050199D01*
X0165728Y0050241D01*
X0165426Y0050290D01*
X0165125Y0050347D01*
X0164826Y0050412D01*
X0164528Y0050483D01*
X0164233Y0050562D01*
X0163939Y0050648D01*
X0163647Y0050741D01*
X0163358Y0050842D01*
X0163071Y0050949D01*
X0162787Y0051064D01*
X0162506Y0051185D01*
X0162228Y0051313D01*
X0161953Y0051448D01*
X0161682Y0051590D01*
X0161414Y0051738D01*
X0161150Y0051893D01*
X0160890Y0052054D01*
X0160634Y0052221D01*
X0160381Y0052395D01*
X0160134Y0052575D01*
X0159890Y0052761D01*
X0159652Y0052952D01*
X0159418Y0053150D01*
X0159189Y0053353D01*
X0158965Y0053562D01*
X0158746Y0053776D01*
X0158533Y0053996D01*
X0158325Y0054220D01*
X0158122Y0054450D01*
X0157926Y0054684D01*
X0157735Y0054924D01*
X0157550Y0055167D01*
X0157371Y0055416D01*
X0157198Y0055668D01*
X0157031Y0055925D01*
X0156871Y0056186D01*
X0156717Y0056451D01*
X0156570Y0056719D01*
X0156429Y0056991D01*
X0156295Y0057266D01*
X0156168Y0057545D01*
X0156047Y0057826D01*
X0155934Y0058111D01*
X0155828Y0058398D01*
X0155728Y0058687D01*
X0155636Y0058979D01*
X0155551Y0059273D01*
X0155473Y0059569D01*
X0155402Y0059867D01*
X0155339Y0060167D01*
X0155283Y0060468D01*
X0155235Y0060770D01*
X0155194Y0061073D01*
X0155160Y0061377D01*
X0155134Y0061682D01*
X0155115Y0061988D01*
X0155104Y0062294D01*
X0155100Y0062600D01*
X0155104Y0062906D01*
X0155115Y0063212D01*
X0155134Y0063518D01*
X0155160Y0063823D01*
X0155194Y0064127D01*
X0155235Y0064430D01*
X0155283Y0064732D01*
X0155339Y0065033D01*
X0155402Y0065333D01*
X0155473Y0065631D01*
X0155551Y0065927D01*
X0155636Y0066221D01*
X0155728Y0066513D01*
X0155828Y0066802D01*
X0155934Y0067089D01*
X0156047Y0067374D01*
X0156168Y0067655D01*
X0156295Y0067934D01*
X0156429Y0068209D01*
X0156570Y0068481D01*
X0156717Y0068749D01*
X0156871Y0069014D01*
X0157031Y0069275D01*
X0157198Y0069532D01*
X0157371Y0069784D01*
X0157550Y0070033D01*
X0157735Y0070276D01*
X0157926Y0070516D01*
X0158122Y0070750D01*
X0158325Y0070980D01*
X0158533Y0071204D01*
X0158746Y0071424D01*
X0158965Y0071638D01*
X0159189Y0071847D01*
X0159418Y0072050D01*
X0159652Y0072248D01*
X0159890Y0072439D01*
X0160134Y0072625D01*
X0160381Y0072805D01*
X0160634Y0072979D01*
X0160890Y0073146D01*
X0161150Y0073307D01*
X0161414Y0073462D01*
X0161682Y0073610D01*
X0161953Y0073752D01*
X0162228Y0073887D01*
X0162506Y0074015D01*
X0162787Y0074136D01*
X0163071Y0074251D01*
X0163358Y0074358D01*
X0163647Y0074459D01*
X0163939Y0074552D01*
X0164233Y0074638D01*
X0164528Y0074717D01*
X0164826Y0074788D01*
X0165125Y0074853D01*
X0165426Y0074910D01*
X0165728Y0074959D01*
X0166031Y0075001D01*
X0166336Y0075036D01*
X0166640Y0075063D01*
X0166946Y0075083D01*
X0167252Y0075095D01*
X0167558Y0075100D01*
X0167864Y0075097D01*
X0168170Y0075087D01*
X0168476Y0075069D01*
X0168781Y0075044D01*
X0169085Y0075011D01*
X0169389Y0074971D01*
X0169691Y0074924D01*
X0169992Y0074869D01*
X0170292Y0074807D01*
X0170590Y0074737D01*
X0170886Y0074660D01*
X0171181Y0074576D01*
X0171473Y0074485D01*
X0171763Y0074386D01*
X0172050Y0074281D01*
X0172335Y0074169D01*
X0172617Y0074049D01*
X0172896Y0073923D01*
X0173171Y0073790D01*
X0173444Y0073650D01*
X0173713Y0073504D01*
X0173978Y0073351D01*
X0174239Y0073191D01*
X0174496Y0073025D01*
X0174750Y0072853D01*
X0174999Y0072675D01*
X0175243Y0072491D01*
X0175483Y0072301D01*
X0175718Y0072105D01*
X0175949Y0071903D01*
X0176174Y0071696D01*
X0176394Y0071483D01*
X0176609Y0071265D01*
X0176818Y0071042D01*
X0177022Y0070814D01*
X0177221Y0070581D01*
X0177413Y0070343D01*
X0177600Y0070100D01*
X0177600Y0085100D02*
X0177413Y0084857D01*
X0177221Y0084619D01*
X0177022Y0084386D01*
X0176818Y0084158D01*
X0176609Y0083935D01*
X0176394Y0083717D01*
X0176174Y0083504D01*
X0175949Y0083297D01*
X0175718Y0083095D01*
X0175483Y0082899D01*
X0175243Y0082709D01*
X0174999Y0082525D01*
X0174750Y0082347D01*
X0174496Y0082175D01*
X0174239Y0082009D01*
X0173978Y0081849D01*
X0173713Y0081696D01*
X0173444Y0081550D01*
X0173171Y0081410D01*
X0172896Y0081277D01*
X0172617Y0081151D01*
X0172335Y0081031D01*
X0172050Y0080919D01*
X0171763Y0080814D01*
X0171473Y0080715D01*
X0171181Y0080624D01*
X0170886Y0080540D01*
X0170590Y0080463D01*
X0170292Y0080393D01*
X0169992Y0080331D01*
X0169691Y0080276D01*
X0169389Y0080229D01*
X0169085Y0080189D01*
X0168781Y0080156D01*
X0168476Y0080131D01*
X0168170Y0080113D01*
X0167864Y0080103D01*
X0167558Y0080100D01*
X0167252Y0080105D01*
X0166946Y0080117D01*
X0166640Y0080137D01*
X0166336Y0080164D01*
X0166031Y0080199D01*
X0165728Y0080241D01*
X0165426Y0080290D01*
X0165125Y0080347D01*
X0164826Y0080412D01*
X0164528Y0080483D01*
X0164233Y0080562D01*
X0163939Y0080648D01*
X0163647Y0080741D01*
X0163358Y0080842D01*
X0163071Y0080949D01*
X0162787Y0081064D01*
X0162506Y0081185D01*
X0162228Y0081313D01*
X0161953Y0081448D01*
X0161682Y0081590D01*
X0161414Y0081738D01*
X0161150Y0081893D01*
X0160890Y0082054D01*
X0160634Y0082221D01*
X0160381Y0082395D01*
X0160134Y0082575D01*
X0159890Y0082761D01*
X0159652Y0082952D01*
X0159418Y0083150D01*
X0159189Y0083353D01*
X0158965Y0083562D01*
X0158746Y0083776D01*
X0158533Y0083996D01*
X0158325Y0084220D01*
X0158122Y0084450D01*
X0157926Y0084684D01*
X0157735Y0084924D01*
X0157550Y0085167D01*
X0157371Y0085416D01*
X0157198Y0085668D01*
X0157031Y0085925D01*
X0156871Y0086186D01*
X0156717Y0086451D01*
X0156570Y0086719D01*
X0156429Y0086991D01*
X0156295Y0087266D01*
X0156168Y0087545D01*
X0156047Y0087826D01*
X0155934Y0088111D01*
X0155828Y0088398D01*
X0155728Y0088687D01*
X0155636Y0088979D01*
X0155551Y0089273D01*
X0155473Y0089569D01*
X0155402Y0089867D01*
X0155339Y0090167D01*
X0155283Y0090468D01*
X0155235Y0090770D01*
X0155194Y0091073D01*
X0155160Y0091377D01*
X0155134Y0091682D01*
X0155115Y0091988D01*
X0155104Y0092294D01*
X0155100Y0092600D01*
X0155104Y0092906D01*
X0155115Y0093212D01*
X0155134Y0093518D01*
X0155160Y0093823D01*
X0155194Y0094127D01*
X0155235Y0094430D01*
X0155283Y0094732D01*
X0155339Y0095033D01*
X0155402Y0095333D01*
X0155473Y0095631D01*
X0155551Y0095927D01*
X0155636Y0096221D01*
X0155728Y0096513D01*
X0155828Y0096802D01*
X0155934Y0097089D01*
X0156047Y0097374D01*
X0156168Y0097655D01*
X0156295Y0097934D01*
X0156429Y0098209D01*
X0156570Y0098481D01*
X0156717Y0098749D01*
X0156871Y0099014D01*
X0157031Y0099275D01*
X0157198Y0099532D01*
X0157371Y0099784D01*
X0157550Y0100033D01*
X0157735Y0100276D01*
X0157926Y0100516D01*
X0158122Y0100750D01*
X0158325Y0100980D01*
X0158533Y0101204D01*
X0158746Y0101424D01*
X0158965Y0101638D01*
X0159189Y0101847D01*
X0159418Y0102050D01*
X0159652Y0102248D01*
X0159890Y0102439D01*
X0160134Y0102625D01*
X0160381Y0102805D01*
X0160634Y0102979D01*
X0160890Y0103146D01*
X0161150Y0103307D01*
X0161414Y0103462D01*
X0161682Y0103610D01*
X0161953Y0103752D01*
X0162228Y0103887D01*
X0162506Y0104015D01*
X0162787Y0104136D01*
X0163071Y0104251D01*
X0163358Y0104358D01*
X0163647Y0104459D01*
X0163939Y0104552D01*
X0164233Y0104638D01*
X0164528Y0104717D01*
X0164826Y0104788D01*
X0165125Y0104853D01*
X0165426Y0104910D01*
X0165728Y0104959D01*
X0166031Y0105001D01*
X0166336Y0105036D01*
X0166640Y0105063D01*
X0166946Y0105083D01*
X0167252Y0105095D01*
X0167558Y0105100D01*
X0167864Y0105097D01*
X0168170Y0105087D01*
X0168476Y0105069D01*
X0168781Y0105044D01*
X0169085Y0105011D01*
X0169389Y0104971D01*
X0169691Y0104924D01*
X0169992Y0104869D01*
X0170292Y0104807D01*
X0170590Y0104737D01*
X0170886Y0104660D01*
X0171181Y0104576D01*
X0171473Y0104485D01*
X0171763Y0104386D01*
X0172050Y0104281D01*
X0172335Y0104169D01*
X0172617Y0104049D01*
X0172896Y0103923D01*
X0173171Y0103790D01*
X0173444Y0103650D01*
X0173713Y0103504D01*
X0173978Y0103351D01*
X0174239Y0103191D01*
X0174496Y0103025D01*
X0174750Y0102853D01*
X0174999Y0102675D01*
X0175243Y0102491D01*
X0175483Y0102301D01*
X0175718Y0102105D01*
X0175949Y0101903D01*
X0176174Y0101696D01*
X0176394Y0101483D01*
X0176609Y0101265D01*
X0176818Y0101042D01*
X0177022Y0100814D01*
X0177221Y0100581D01*
X0177413Y0100343D01*
X0177600Y0100100D01*
X0100100Y0102600D02*
X0100343Y0102413D01*
X0100581Y0102221D01*
X0100814Y0102022D01*
X0101042Y0101818D01*
X0101265Y0101609D01*
X0101483Y0101394D01*
X0101696Y0101174D01*
X0101903Y0100949D01*
X0102105Y0100718D01*
X0102301Y0100483D01*
X0102491Y0100243D01*
X0102675Y0099999D01*
X0102853Y0099750D01*
X0103025Y0099496D01*
X0103191Y0099239D01*
X0103351Y0098978D01*
X0103504Y0098713D01*
X0103650Y0098444D01*
X0103790Y0098171D01*
X0103923Y0097896D01*
X0104049Y0097617D01*
X0104169Y0097335D01*
X0104281Y0097050D01*
X0104386Y0096763D01*
X0104485Y0096473D01*
X0104576Y0096181D01*
X0104660Y0095886D01*
X0104737Y0095590D01*
X0104807Y0095292D01*
X0104869Y0094992D01*
X0104924Y0094691D01*
X0104971Y0094389D01*
X0105011Y0094085D01*
X0105044Y0093781D01*
X0105069Y0093476D01*
X0105087Y0093170D01*
X0105097Y0092864D01*
X0105100Y0092558D01*
X0105095Y0092252D01*
X0105083Y0091946D01*
X0105063Y0091640D01*
X0105036Y0091336D01*
X0105001Y0091031D01*
X0104959Y0090728D01*
X0104910Y0090426D01*
X0104853Y0090125D01*
X0104788Y0089826D01*
X0104717Y0089528D01*
X0104638Y0089233D01*
X0104552Y0088939D01*
X0104459Y0088647D01*
X0104358Y0088358D01*
X0104251Y0088071D01*
X0104136Y0087787D01*
X0104015Y0087506D01*
X0103887Y0087228D01*
X0103752Y0086953D01*
X0103610Y0086682D01*
X0103462Y0086414D01*
X0103307Y0086150D01*
X0103146Y0085890D01*
X0102979Y0085634D01*
X0102805Y0085381D01*
X0102625Y0085134D01*
X0102439Y0084890D01*
X0102248Y0084652D01*
X0102050Y0084418D01*
X0101847Y0084189D01*
X0101638Y0083965D01*
X0101424Y0083746D01*
X0101204Y0083533D01*
X0100980Y0083325D01*
X0100750Y0083122D01*
X0100516Y0082926D01*
X0100276Y0082735D01*
X0100033Y0082550D01*
X0099784Y0082371D01*
X0099532Y0082198D01*
X0099275Y0082031D01*
X0099014Y0081871D01*
X0098749Y0081717D01*
X0098481Y0081570D01*
X0098209Y0081429D01*
X0097934Y0081295D01*
X0097655Y0081168D01*
X0097374Y0081047D01*
X0097089Y0080934D01*
X0096802Y0080828D01*
X0096513Y0080728D01*
X0096221Y0080636D01*
X0095927Y0080551D01*
X0095631Y0080473D01*
X0095333Y0080402D01*
X0095033Y0080339D01*
X0094732Y0080283D01*
X0094430Y0080235D01*
X0094127Y0080194D01*
X0093823Y0080160D01*
X0093518Y0080134D01*
X0093212Y0080115D01*
X0092906Y0080104D01*
X0092600Y0080100D01*
X0092294Y0080104D01*
X0091988Y0080115D01*
X0091682Y0080134D01*
X0091377Y0080160D01*
X0091073Y0080194D01*
X0090770Y0080235D01*
X0090468Y0080283D01*
X0090167Y0080339D01*
X0089867Y0080402D01*
X0089569Y0080473D01*
X0089273Y0080551D01*
X0088979Y0080636D01*
X0088687Y0080728D01*
X0088398Y0080828D01*
X0088111Y0080934D01*
X0087826Y0081047D01*
X0087545Y0081168D01*
X0087266Y0081295D01*
X0086991Y0081429D01*
X0086719Y0081570D01*
X0086451Y0081717D01*
X0086186Y0081871D01*
X0085925Y0082031D01*
X0085668Y0082198D01*
X0085416Y0082371D01*
X0085167Y0082550D01*
X0084924Y0082735D01*
X0084684Y0082926D01*
X0084450Y0083122D01*
X0084220Y0083325D01*
X0083996Y0083533D01*
X0083776Y0083746D01*
X0083562Y0083965D01*
X0083353Y0084189D01*
X0083150Y0084418D01*
X0082952Y0084652D01*
X0082761Y0084890D01*
X0082575Y0085134D01*
X0082395Y0085381D01*
X0082221Y0085634D01*
X0082054Y0085890D01*
X0081893Y0086150D01*
X0081738Y0086414D01*
X0081590Y0086682D01*
X0081448Y0086953D01*
X0081313Y0087228D01*
X0081185Y0087506D01*
X0081064Y0087787D01*
X0080949Y0088071D01*
X0080842Y0088358D01*
X0080741Y0088647D01*
X0080648Y0088939D01*
X0080562Y0089233D01*
X0080483Y0089528D01*
X0080412Y0089826D01*
X0080347Y0090125D01*
X0080290Y0090426D01*
X0080241Y0090728D01*
X0080199Y0091031D01*
X0080164Y0091336D01*
X0080137Y0091640D01*
X0080117Y0091946D01*
X0080105Y0092252D01*
X0080100Y0092558D01*
X0080103Y0092864D01*
X0080113Y0093170D01*
X0080131Y0093476D01*
X0080156Y0093781D01*
X0080189Y0094085D01*
X0080229Y0094389D01*
X0080276Y0094691D01*
X0080331Y0094992D01*
X0080393Y0095292D01*
X0080463Y0095590D01*
X0080540Y0095886D01*
X0080624Y0096181D01*
X0080715Y0096473D01*
X0080814Y0096763D01*
X0080919Y0097050D01*
X0081031Y0097335D01*
X0081151Y0097617D01*
X0081277Y0097896D01*
X0081410Y0098171D01*
X0081550Y0098444D01*
X0081696Y0098713D01*
X0081849Y0098978D01*
X0082009Y0099239D01*
X0082175Y0099496D01*
X0082347Y0099750D01*
X0082525Y0099999D01*
X0082709Y0100243D01*
X0082899Y0100483D01*
X0083095Y0100718D01*
X0083297Y0100949D01*
X0083504Y0101174D01*
X0083717Y0101394D01*
X0083935Y0101609D01*
X0084158Y0101818D01*
X0084386Y0102022D01*
X0084619Y0102221D01*
X0084857Y0102413D01*
X0085100Y0102600D01*
X0070100Y0102600D02*
X0070343Y0102413D01*
X0070581Y0102221D01*
X0070814Y0102022D01*
X0071042Y0101818D01*
X0071265Y0101609D01*
X0071483Y0101394D01*
X0071696Y0101174D01*
X0071903Y0100949D01*
X0072105Y0100718D01*
X0072301Y0100483D01*
X0072491Y0100243D01*
X0072675Y0099999D01*
X0072853Y0099750D01*
X0073025Y0099496D01*
X0073191Y0099239D01*
X0073351Y0098978D01*
X0073504Y0098713D01*
X0073650Y0098444D01*
X0073790Y0098171D01*
X0073923Y0097896D01*
X0074049Y0097617D01*
X0074169Y0097335D01*
X0074281Y0097050D01*
X0074386Y0096763D01*
X0074485Y0096473D01*
X0074576Y0096181D01*
X0074660Y0095886D01*
X0074737Y0095590D01*
X0074807Y0095292D01*
X0074869Y0094992D01*
X0074924Y0094691D01*
X0074971Y0094389D01*
X0075011Y0094085D01*
X0075044Y0093781D01*
X0075069Y0093476D01*
X0075087Y0093170D01*
X0075097Y0092864D01*
X0075100Y0092558D01*
X0075095Y0092252D01*
X0075083Y0091946D01*
X0075063Y0091640D01*
X0075036Y0091336D01*
X0075001Y0091031D01*
X0074959Y0090728D01*
X0074910Y0090426D01*
X0074853Y0090125D01*
X0074788Y0089826D01*
X0074717Y0089528D01*
X0074638Y0089233D01*
X0074552Y0088939D01*
X0074459Y0088647D01*
X0074358Y0088358D01*
X0074251Y0088071D01*
X0074136Y0087787D01*
X0074015Y0087506D01*
X0073887Y0087228D01*
X0073752Y0086953D01*
X0073610Y0086682D01*
X0073462Y0086414D01*
X0073307Y0086150D01*
X0073146Y0085890D01*
X0072979Y0085634D01*
X0072805Y0085381D01*
X0072625Y0085134D01*
X0072439Y0084890D01*
X0072248Y0084652D01*
X0072050Y0084418D01*
X0071847Y0084189D01*
X0071638Y0083965D01*
X0071424Y0083746D01*
X0071204Y0083533D01*
X0070980Y0083325D01*
X0070750Y0083122D01*
X0070516Y0082926D01*
X0070276Y0082735D01*
X0070033Y0082550D01*
X0069784Y0082371D01*
X0069532Y0082198D01*
X0069275Y0082031D01*
X0069014Y0081871D01*
X0068749Y0081717D01*
X0068481Y0081570D01*
X0068209Y0081429D01*
X0067934Y0081295D01*
X0067655Y0081168D01*
X0067374Y0081047D01*
X0067089Y0080934D01*
X0066802Y0080828D01*
X0066513Y0080728D01*
X0066221Y0080636D01*
X0065927Y0080551D01*
X0065631Y0080473D01*
X0065333Y0080402D01*
X0065033Y0080339D01*
X0064732Y0080283D01*
X0064430Y0080235D01*
X0064127Y0080194D01*
X0063823Y0080160D01*
X0063518Y0080134D01*
X0063212Y0080115D01*
X0062906Y0080104D01*
X0062600Y0080100D01*
X0062294Y0080104D01*
X0061988Y0080115D01*
X0061682Y0080134D01*
X0061377Y0080160D01*
X0061073Y0080194D01*
X0060770Y0080235D01*
X0060468Y0080283D01*
X0060167Y0080339D01*
X0059867Y0080402D01*
X0059569Y0080473D01*
X0059273Y0080551D01*
X0058979Y0080636D01*
X0058687Y0080728D01*
X0058398Y0080828D01*
X0058111Y0080934D01*
X0057826Y0081047D01*
X0057545Y0081168D01*
X0057266Y0081295D01*
X0056991Y0081429D01*
X0056719Y0081570D01*
X0056451Y0081717D01*
X0056186Y0081871D01*
X0055925Y0082031D01*
X0055668Y0082198D01*
X0055416Y0082371D01*
X0055167Y0082550D01*
X0054924Y0082735D01*
X0054684Y0082926D01*
X0054450Y0083122D01*
X0054220Y0083325D01*
X0053996Y0083533D01*
X0053776Y0083746D01*
X0053562Y0083965D01*
X0053353Y0084189D01*
X0053150Y0084418D01*
X0052952Y0084652D01*
X0052761Y0084890D01*
X0052575Y0085134D01*
X0052395Y0085381D01*
X0052221Y0085634D01*
X0052054Y0085890D01*
X0051893Y0086150D01*
X0051738Y0086414D01*
X0051590Y0086682D01*
X0051448Y0086953D01*
X0051313Y0087228D01*
X0051185Y0087506D01*
X0051064Y0087787D01*
X0050949Y0088071D01*
X0050842Y0088358D01*
X0050741Y0088647D01*
X0050648Y0088939D01*
X0050562Y0089233D01*
X0050483Y0089528D01*
X0050412Y0089826D01*
X0050347Y0090125D01*
X0050290Y0090426D01*
X0050241Y0090728D01*
X0050199Y0091031D01*
X0050164Y0091336D01*
X0050137Y0091640D01*
X0050117Y0091946D01*
X0050105Y0092252D01*
X0050100Y0092558D01*
X0050103Y0092864D01*
X0050113Y0093170D01*
X0050131Y0093476D01*
X0050156Y0093781D01*
X0050189Y0094085D01*
X0050229Y0094389D01*
X0050276Y0094691D01*
X0050331Y0094992D01*
X0050393Y0095292D01*
X0050463Y0095590D01*
X0050540Y0095886D01*
X0050624Y0096181D01*
X0050715Y0096473D01*
X0050814Y0096763D01*
X0050919Y0097050D01*
X0051031Y0097335D01*
X0051151Y0097617D01*
X0051277Y0097896D01*
X0051410Y0098171D01*
X0051550Y0098444D01*
X0051696Y0098713D01*
X0051849Y0098978D01*
X0052009Y0099239D01*
X0052175Y0099496D01*
X0052347Y0099750D01*
X0052525Y0099999D01*
X0052709Y0100243D01*
X0052899Y0100483D01*
X0053095Y0100718D01*
X0053297Y0100949D01*
X0053504Y0101174D01*
X0053717Y0101394D01*
X0053935Y0101609D01*
X0054158Y0101818D01*
X0054386Y0102022D01*
X0054619Y0102221D01*
X0054857Y0102413D01*
X0055100Y0102600D01*
X0040100Y0102600D02*
X0040343Y0102413D01*
X0040581Y0102221D01*
X0040814Y0102022D01*
X0041042Y0101818D01*
X0041265Y0101609D01*
X0041483Y0101394D01*
X0041696Y0101174D01*
X0041903Y0100949D01*
X0042105Y0100718D01*
X0042301Y0100483D01*
X0042491Y0100243D01*
X0042675Y0099999D01*
X0042853Y0099750D01*
X0043025Y0099496D01*
X0043191Y0099239D01*
X0043351Y0098978D01*
X0043504Y0098713D01*
X0043650Y0098444D01*
X0043790Y0098171D01*
X0043923Y0097896D01*
X0044049Y0097617D01*
X0044169Y0097335D01*
X0044281Y0097050D01*
X0044386Y0096763D01*
X0044485Y0096473D01*
X0044576Y0096181D01*
X0044660Y0095886D01*
X0044737Y0095590D01*
X0044807Y0095292D01*
X0044869Y0094992D01*
X0044924Y0094691D01*
X0044971Y0094389D01*
X0045011Y0094085D01*
X0045044Y0093781D01*
X0045069Y0093476D01*
X0045087Y0093170D01*
X0045097Y0092864D01*
X0045100Y0092558D01*
X0045095Y0092252D01*
X0045083Y0091946D01*
X0045063Y0091640D01*
X0045036Y0091336D01*
X0045001Y0091031D01*
X0044959Y0090728D01*
X0044910Y0090426D01*
X0044853Y0090125D01*
X0044788Y0089826D01*
X0044717Y0089528D01*
X0044638Y0089233D01*
X0044552Y0088939D01*
X0044459Y0088647D01*
X0044358Y0088358D01*
X0044251Y0088071D01*
X0044136Y0087787D01*
X0044015Y0087506D01*
X0043887Y0087228D01*
X0043752Y0086953D01*
X0043610Y0086682D01*
X0043462Y0086414D01*
X0043307Y0086150D01*
X0043146Y0085890D01*
X0042979Y0085634D01*
X0042805Y0085381D01*
X0042625Y0085134D01*
X0042439Y0084890D01*
X0042248Y0084652D01*
X0042050Y0084418D01*
X0041847Y0084189D01*
X0041638Y0083965D01*
X0041424Y0083746D01*
X0041204Y0083533D01*
X0040980Y0083325D01*
X0040750Y0083122D01*
X0040516Y0082926D01*
X0040276Y0082735D01*
X0040033Y0082550D01*
X0039784Y0082371D01*
X0039532Y0082198D01*
X0039275Y0082031D01*
X0039014Y0081871D01*
X0038749Y0081717D01*
X0038481Y0081570D01*
X0038209Y0081429D01*
X0037934Y0081295D01*
X0037655Y0081168D01*
X0037374Y0081047D01*
X0037089Y0080934D01*
X0036802Y0080828D01*
X0036513Y0080728D01*
X0036221Y0080636D01*
X0035927Y0080551D01*
X0035631Y0080473D01*
X0035333Y0080402D01*
X0035033Y0080339D01*
X0034732Y0080283D01*
X0034430Y0080235D01*
X0034127Y0080194D01*
X0033823Y0080160D01*
X0033518Y0080134D01*
X0033212Y0080115D01*
X0032906Y0080104D01*
X0032600Y0080100D01*
X0032294Y0080104D01*
X0031988Y0080115D01*
X0031682Y0080134D01*
X0031377Y0080160D01*
X0031073Y0080194D01*
X0030770Y0080235D01*
X0030468Y0080283D01*
X0030167Y0080339D01*
X0029867Y0080402D01*
X0029569Y0080473D01*
X0029273Y0080551D01*
X0028979Y0080636D01*
X0028687Y0080728D01*
X0028398Y0080828D01*
X0028111Y0080934D01*
X0027826Y0081047D01*
X0027545Y0081168D01*
X0027266Y0081295D01*
X0026991Y0081429D01*
X0026719Y0081570D01*
X0026451Y0081717D01*
X0026186Y0081871D01*
X0025925Y0082031D01*
X0025668Y0082198D01*
X0025416Y0082371D01*
X0025167Y0082550D01*
X0024924Y0082735D01*
X0024684Y0082926D01*
X0024450Y0083122D01*
X0024220Y0083325D01*
X0023996Y0083533D01*
X0023776Y0083746D01*
X0023562Y0083965D01*
X0023353Y0084189D01*
X0023150Y0084418D01*
X0022952Y0084652D01*
X0022761Y0084890D01*
X0022575Y0085134D01*
X0022395Y0085381D01*
X0022221Y0085634D01*
X0022054Y0085890D01*
X0021893Y0086150D01*
X0021738Y0086414D01*
X0021590Y0086682D01*
X0021448Y0086953D01*
X0021313Y0087228D01*
X0021185Y0087506D01*
X0021064Y0087787D01*
X0020949Y0088071D01*
X0020842Y0088358D01*
X0020741Y0088647D01*
X0020648Y0088939D01*
X0020562Y0089233D01*
X0020483Y0089528D01*
X0020412Y0089826D01*
X0020347Y0090125D01*
X0020290Y0090426D01*
X0020241Y0090728D01*
X0020199Y0091031D01*
X0020164Y0091336D01*
X0020137Y0091640D01*
X0020117Y0091946D01*
X0020105Y0092252D01*
X0020100Y0092558D01*
X0020103Y0092864D01*
X0020113Y0093170D01*
X0020131Y0093476D01*
X0020156Y0093781D01*
X0020189Y0094085D01*
X0020229Y0094389D01*
X0020276Y0094691D01*
X0020331Y0094992D01*
X0020393Y0095292D01*
X0020463Y0095590D01*
X0020540Y0095886D01*
X0020624Y0096181D01*
X0020715Y0096473D01*
X0020814Y0096763D01*
X0020919Y0097050D01*
X0021031Y0097335D01*
X0021151Y0097617D01*
X0021277Y0097896D01*
X0021410Y0098171D01*
X0021550Y0098444D01*
X0021696Y0098713D01*
X0021849Y0098978D01*
X0022009Y0099239D01*
X0022175Y0099496D01*
X0022347Y0099750D01*
X0022525Y0099999D01*
X0022709Y0100243D01*
X0022899Y0100483D01*
X0023095Y0100718D01*
X0023297Y0100949D01*
X0023504Y0101174D01*
X0023717Y0101394D01*
X0023935Y0101609D01*
X0024158Y0101818D01*
X0024386Y0102022D01*
X0024619Y0102221D01*
X0024857Y0102413D01*
X0025100Y0102600D01*
M02*
