G75*
%MOIN*%
%OFA0B0*%
%FSLAX25Y25*%
%IPPOS*%
%LPD*%
%AMOC8*
5,1,8,0,0,1.08239X$1,22.5*
%
%ADD10C,0.13398*%
%ADD11C,0.06800*%
%ADD12OC8,0.06000*%
%ADD13R,0.07099X0.07898*%
%ADD14R,0.07898X0.07099*%
D10*
X0012600Y0012600D03*
X0012600Y0107600D03*
X0187600Y0107600D03*
X0187600Y0012600D03*
D11*
X0112600Y0014600D02*
X0112600Y0020600D01*
X0102600Y0020600D02*
X0102600Y0014600D01*
X0092600Y0014600D02*
X0092600Y0020600D01*
X0082600Y0020600D02*
X0082600Y0014600D01*
X0072600Y0014600D02*
X0072600Y0020600D01*
X0062600Y0020600D02*
X0062600Y0014600D01*
X0052600Y0014600D02*
X0052600Y0020600D01*
X0042600Y0020600D02*
X0042600Y0014600D01*
D12*
X0032600Y0087600D03*
X0032600Y0097600D03*
X0062600Y0097600D03*
X0062600Y0087600D03*
X0092600Y0087600D03*
X0092600Y0097600D03*
X0162600Y0092600D03*
X0172600Y0092600D03*
X0172600Y0062600D03*
X0162600Y0062600D03*
X0162600Y0032600D03*
X0172600Y0032600D03*
D13*
X0143198Y0032600D03*
X0132002Y0032600D03*
X0132002Y0062600D03*
X0143198Y0062600D03*
X0143198Y0092600D03*
X0132002Y0092600D03*
D14*
X0082600Y0068198D03*
X0082600Y0057002D03*
X0062600Y0057002D03*
X0062600Y0068198D03*
M02*
