%
M48
M72
T01C0.03200
T02C0.04000
T03C0.12598
%
T01
X32600Y87600
X32600Y97600
X62600Y97600
X62600Y87600
X92600Y87600
X92600Y97600
X162600Y92600
X172600Y92600
X172600Y62600
X162600Y62600
X162600Y32600
X172600Y32600
T02
X112600Y17600
X102600Y17600
X92600Y17600
X82600Y17600
X72600Y17600
X62600Y17600
X52600Y17600
X42600Y17600
T03
X12600Y12600
X12600Y107600
X187600Y107600
X187600Y12600
M30
