G04 EAGLE Gerber RS-274X export*
G75*
%MOMM*%
%FSLAX34Y34*%
%LPD*%
%INSilkscreen Bottom*%
%IPPOS*%
%AMOC8*
5,1,8,0,0,1.08239X$1,22.5*%
G01*
%ADD10C,0.150000*%
%ADD11C,0.254000*%
%ADD12C,0.152400*%
%ADD13C,0.812800*%

G36*
X811079Y1038736D02*
X811079Y1038736D01*
X811098Y1038735D01*
X811235Y1038763D01*
X811373Y1038787D01*
X811391Y1038795D01*
X811410Y1038799D01*
X811535Y1038860D01*
X811663Y1038917D01*
X811678Y1038930D01*
X811696Y1038938D01*
X811802Y1039029D01*
X811911Y1039116D01*
X811929Y1039137D01*
X811938Y1039145D01*
X811949Y1039161D01*
X812015Y1039238D01*
X827015Y1059238D01*
X827040Y1059281D01*
X827071Y1059319D01*
X827118Y1059419D01*
X827173Y1059515D01*
X827186Y1059563D01*
X827207Y1059607D01*
X827228Y1059715D01*
X827257Y1059822D01*
X827257Y1059871D01*
X827267Y1059920D01*
X827260Y1060029D01*
X827262Y1060140D01*
X827250Y1060188D01*
X827247Y1060237D01*
X827213Y1060341D01*
X827187Y1060449D01*
X827164Y1060493D01*
X827149Y1060539D01*
X827090Y1060632D01*
X827038Y1060730D01*
X827005Y1060766D01*
X826979Y1060808D01*
X826898Y1060884D01*
X826824Y1060965D01*
X826783Y1060992D01*
X826747Y1061026D01*
X826651Y1061079D01*
X826559Y1061140D01*
X826512Y1061156D01*
X826469Y1061180D01*
X826362Y1061207D01*
X826258Y1061243D01*
X826209Y1061247D01*
X826161Y1061259D01*
X826000Y1061269D01*
X817269Y1061269D01*
X817269Y1090000D01*
X817254Y1090118D01*
X817247Y1090237D01*
X817234Y1090275D01*
X817229Y1090316D01*
X817186Y1090426D01*
X817149Y1090539D01*
X817127Y1090574D01*
X817112Y1090611D01*
X817043Y1090707D01*
X816979Y1090808D01*
X816949Y1090836D01*
X816926Y1090869D01*
X816834Y1090945D01*
X816747Y1091026D01*
X816712Y1091046D01*
X816681Y1091071D01*
X816573Y1091122D01*
X816469Y1091180D01*
X816429Y1091190D01*
X816393Y1091207D01*
X816276Y1091229D01*
X816161Y1091259D01*
X816101Y1091263D01*
X816081Y1091267D01*
X816060Y1091265D01*
X816000Y1091269D01*
X496269Y1091269D01*
X496269Y1138731D01*
X670000Y1138731D01*
X670118Y1138746D01*
X670237Y1138753D01*
X670275Y1138766D01*
X670316Y1138771D01*
X670426Y1138814D01*
X670539Y1138851D01*
X670574Y1138873D01*
X670611Y1138888D01*
X670707Y1138958D01*
X670808Y1139021D01*
X670836Y1139051D01*
X670869Y1139074D01*
X670945Y1139166D01*
X671026Y1139253D01*
X671046Y1139288D01*
X671071Y1139319D01*
X671122Y1139427D01*
X671180Y1139531D01*
X671190Y1139571D01*
X671207Y1139607D01*
X671229Y1139724D01*
X671259Y1139839D01*
X671263Y1139900D01*
X671267Y1139920D01*
X671265Y1139940D01*
X671269Y1140000D01*
X671269Y1150000D01*
X671254Y1150118D01*
X671247Y1150237D01*
X671234Y1150275D01*
X671229Y1150316D01*
X671186Y1150426D01*
X671149Y1150539D01*
X671127Y1150574D01*
X671112Y1150611D01*
X671043Y1150707D01*
X670979Y1150808D01*
X670949Y1150836D01*
X670926Y1150869D01*
X670834Y1150945D01*
X670747Y1151026D01*
X670712Y1151046D01*
X670681Y1151071D01*
X670573Y1151122D01*
X670469Y1151180D01*
X670429Y1151190D01*
X670393Y1151207D01*
X670276Y1151229D01*
X670161Y1151259D01*
X670101Y1151263D01*
X670081Y1151267D01*
X670060Y1151265D01*
X670000Y1151269D01*
X485000Y1151269D01*
X484882Y1151254D01*
X484763Y1151247D01*
X484725Y1151234D01*
X484684Y1151229D01*
X484574Y1151186D01*
X484461Y1151149D01*
X484426Y1151127D01*
X484389Y1151112D01*
X484293Y1151043D01*
X484192Y1150979D01*
X484164Y1150949D01*
X484131Y1150926D01*
X484056Y1150834D01*
X483974Y1150747D01*
X483954Y1150712D01*
X483929Y1150681D01*
X483878Y1150573D01*
X483820Y1150469D01*
X483810Y1150429D01*
X483793Y1150393D01*
X483771Y1150276D01*
X483741Y1150161D01*
X483737Y1150101D01*
X483733Y1150081D01*
X483735Y1150060D01*
X483731Y1150000D01*
X483731Y1091269D01*
X164000Y1091269D01*
X163882Y1091254D01*
X163763Y1091247D01*
X163725Y1091234D01*
X163684Y1091229D01*
X163574Y1091186D01*
X163461Y1091149D01*
X163426Y1091127D01*
X163389Y1091112D01*
X163293Y1091043D01*
X163192Y1090979D01*
X163164Y1090949D01*
X163131Y1090926D01*
X163056Y1090834D01*
X162974Y1090747D01*
X162954Y1090712D01*
X162929Y1090681D01*
X162878Y1090573D01*
X162820Y1090469D01*
X162810Y1090429D01*
X162793Y1090393D01*
X162771Y1090276D01*
X162741Y1090161D01*
X162737Y1090101D01*
X162733Y1090081D01*
X162735Y1090060D01*
X162731Y1090000D01*
X162731Y1061269D01*
X154000Y1061269D01*
X153951Y1061263D01*
X153902Y1061265D01*
X153794Y1061243D01*
X153684Y1061229D01*
X153639Y1061211D01*
X153590Y1061201D01*
X153491Y1061153D01*
X153389Y1061112D01*
X153349Y1061083D01*
X153304Y1061062D01*
X153221Y1060990D01*
X153131Y1060926D01*
X153100Y1060887D01*
X153062Y1060855D01*
X152999Y1060765D01*
X152929Y1060681D01*
X152908Y1060636D01*
X152879Y1060595D01*
X152840Y1060492D01*
X152793Y1060393D01*
X152784Y1060344D01*
X152766Y1060298D01*
X152754Y1060188D01*
X152733Y1060081D01*
X152736Y1060031D01*
X152731Y1059982D01*
X152746Y1059873D01*
X152753Y1059763D01*
X152768Y1059716D01*
X152775Y1059667D01*
X152817Y1059565D01*
X152851Y1059461D01*
X152878Y1059419D01*
X152896Y1059373D01*
X152985Y1059238D01*
X167985Y1039238D01*
X168082Y1039138D01*
X168176Y1039035D01*
X168192Y1039024D01*
X168206Y1039010D01*
X168325Y1038937D01*
X168441Y1038860D01*
X168460Y1038854D01*
X168477Y1038844D01*
X168610Y1038802D01*
X168742Y1038757D01*
X168762Y1038756D01*
X168781Y1038750D01*
X168920Y1038743D01*
X169059Y1038732D01*
X169079Y1038736D01*
X169098Y1038735D01*
X169235Y1038763D01*
X169373Y1038787D01*
X169391Y1038795D01*
X169410Y1038799D01*
X169535Y1038860D01*
X169663Y1038917D01*
X169678Y1038930D01*
X169696Y1038938D01*
X169802Y1039029D01*
X169911Y1039116D01*
X169929Y1039137D01*
X169938Y1039145D01*
X169949Y1039161D01*
X170015Y1039238D01*
X185015Y1059238D01*
X185040Y1059281D01*
X185071Y1059319D01*
X185118Y1059419D01*
X185173Y1059515D01*
X185186Y1059563D01*
X185207Y1059607D01*
X185228Y1059715D01*
X185257Y1059822D01*
X185257Y1059871D01*
X185267Y1059920D01*
X185260Y1060029D01*
X185262Y1060140D01*
X185250Y1060188D01*
X185247Y1060237D01*
X185213Y1060341D01*
X185187Y1060449D01*
X185164Y1060493D01*
X185149Y1060539D01*
X185090Y1060632D01*
X185038Y1060730D01*
X185005Y1060766D01*
X184979Y1060808D01*
X184898Y1060884D01*
X184824Y1060965D01*
X184783Y1060992D01*
X184747Y1061026D01*
X184651Y1061079D01*
X184559Y1061140D01*
X184512Y1061156D01*
X184469Y1061180D01*
X184362Y1061207D01*
X184258Y1061243D01*
X184209Y1061247D01*
X184161Y1061259D01*
X184000Y1061269D01*
X175269Y1061269D01*
X175269Y1078731D01*
X483731Y1078731D01*
X483731Y1061269D01*
X475000Y1061269D01*
X474951Y1061263D01*
X474902Y1061265D01*
X474794Y1061243D01*
X474684Y1061229D01*
X474639Y1061211D01*
X474590Y1061201D01*
X474491Y1061153D01*
X474389Y1061112D01*
X474349Y1061083D01*
X474304Y1061062D01*
X474221Y1060990D01*
X474131Y1060926D01*
X474100Y1060887D01*
X474062Y1060855D01*
X473999Y1060765D01*
X473929Y1060681D01*
X473908Y1060636D01*
X473879Y1060595D01*
X473840Y1060492D01*
X473793Y1060393D01*
X473784Y1060344D01*
X473766Y1060298D01*
X473754Y1060188D01*
X473733Y1060081D01*
X473736Y1060031D01*
X473731Y1059982D01*
X473746Y1059873D01*
X473753Y1059763D01*
X473768Y1059716D01*
X473775Y1059667D01*
X473817Y1059565D01*
X473851Y1059461D01*
X473878Y1059419D01*
X473896Y1059373D01*
X473985Y1059238D01*
X488985Y1039238D01*
X489082Y1039138D01*
X489176Y1039035D01*
X489192Y1039024D01*
X489206Y1039010D01*
X489325Y1038937D01*
X489441Y1038860D01*
X489460Y1038854D01*
X489477Y1038844D01*
X489610Y1038802D01*
X489742Y1038757D01*
X489762Y1038756D01*
X489781Y1038750D01*
X489920Y1038743D01*
X490059Y1038732D01*
X490079Y1038736D01*
X490098Y1038735D01*
X490235Y1038763D01*
X490373Y1038787D01*
X490391Y1038795D01*
X490410Y1038799D01*
X490535Y1038860D01*
X490663Y1038917D01*
X490678Y1038930D01*
X490696Y1038938D01*
X490802Y1039029D01*
X490911Y1039116D01*
X490929Y1039137D01*
X490938Y1039145D01*
X490949Y1039161D01*
X491015Y1039238D01*
X506015Y1059238D01*
X506040Y1059281D01*
X506071Y1059319D01*
X506118Y1059419D01*
X506173Y1059515D01*
X506186Y1059563D01*
X506207Y1059607D01*
X506228Y1059715D01*
X506257Y1059822D01*
X506257Y1059871D01*
X506267Y1059920D01*
X506260Y1060029D01*
X506262Y1060140D01*
X506250Y1060188D01*
X506247Y1060237D01*
X506213Y1060341D01*
X506187Y1060449D01*
X506164Y1060493D01*
X506149Y1060539D01*
X506090Y1060632D01*
X506038Y1060730D01*
X506005Y1060766D01*
X505979Y1060808D01*
X505898Y1060884D01*
X505824Y1060965D01*
X505783Y1060992D01*
X505747Y1061026D01*
X505651Y1061079D01*
X505559Y1061140D01*
X505512Y1061156D01*
X505469Y1061180D01*
X505362Y1061207D01*
X505258Y1061243D01*
X505209Y1061247D01*
X505161Y1061259D01*
X505000Y1061269D01*
X496269Y1061269D01*
X496269Y1078731D01*
X804731Y1078731D01*
X804731Y1061269D01*
X796000Y1061269D01*
X795951Y1061263D01*
X795902Y1061265D01*
X795794Y1061243D01*
X795684Y1061229D01*
X795639Y1061211D01*
X795590Y1061201D01*
X795491Y1061153D01*
X795389Y1061112D01*
X795349Y1061083D01*
X795304Y1061062D01*
X795221Y1060990D01*
X795131Y1060926D01*
X795100Y1060887D01*
X795062Y1060855D01*
X794999Y1060765D01*
X794929Y1060681D01*
X794908Y1060636D01*
X794879Y1060595D01*
X794840Y1060492D01*
X794793Y1060393D01*
X794784Y1060344D01*
X794766Y1060298D01*
X794754Y1060188D01*
X794733Y1060081D01*
X794736Y1060031D01*
X794731Y1059982D01*
X794746Y1059873D01*
X794753Y1059763D01*
X794768Y1059716D01*
X794775Y1059667D01*
X794817Y1059565D01*
X794851Y1059461D01*
X794878Y1059419D01*
X794896Y1059373D01*
X794985Y1059238D01*
X809985Y1039238D01*
X810082Y1039138D01*
X810176Y1039035D01*
X810192Y1039024D01*
X810206Y1039010D01*
X810325Y1038937D01*
X810441Y1038860D01*
X810460Y1038854D01*
X810477Y1038844D01*
X810610Y1038802D01*
X810742Y1038757D01*
X810762Y1038756D01*
X810781Y1038750D01*
X810920Y1038743D01*
X811059Y1038732D01*
X811079Y1038736D01*
G37*
G36*
X616079Y158736D02*
X616079Y158736D01*
X616098Y158735D01*
X616235Y158763D01*
X616373Y158787D01*
X616391Y158795D01*
X616410Y158799D01*
X616535Y158860D01*
X616663Y158917D01*
X616678Y158930D01*
X616696Y158938D01*
X616802Y159029D01*
X616911Y159116D01*
X616929Y159137D01*
X616938Y159145D01*
X616949Y159161D01*
X617015Y159238D01*
X632015Y179238D01*
X632040Y179281D01*
X632071Y179319D01*
X632118Y179419D01*
X632173Y179515D01*
X632186Y179563D01*
X632207Y179607D01*
X632228Y179715D01*
X632257Y179822D01*
X632257Y179871D01*
X632267Y179920D01*
X632260Y180029D01*
X632262Y180140D01*
X632250Y180188D01*
X632247Y180237D01*
X632213Y180341D01*
X632187Y180449D01*
X632164Y180493D01*
X632149Y180539D01*
X632090Y180632D01*
X632038Y180730D01*
X632005Y180766D01*
X631979Y180808D01*
X631898Y180884D01*
X631824Y180965D01*
X631783Y180992D01*
X631747Y181026D01*
X631651Y181079D01*
X631559Y181140D01*
X631512Y181156D01*
X631469Y181180D01*
X631362Y181207D01*
X631258Y181243D01*
X631209Y181247D01*
X631161Y181259D01*
X631000Y181269D01*
X622269Y181269D01*
X622269Y198731D01*
X675000Y198731D01*
X675118Y198746D01*
X675237Y198753D01*
X675275Y198766D01*
X675316Y198771D01*
X675426Y198814D01*
X675539Y198851D01*
X675574Y198873D01*
X675611Y198888D01*
X675707Y198958D01*
X675808Y199021D01*
X675836Y199051D01*
X675869Y199074D01*
X675945Y199166D01*
X676026Y199253D01*
X676046Y199288D01*
X676071Y199319D01*
X676122Y199427D01*
X676180Y199531D01*
X676190Y199571D01*
X676207Y199607D01*
X676229Y199724D01*
X676259Y199839D01*
X676263Y199900D01*
X676267Y199920D01*
X676265Y199940D01*
X676269Y200000D01*
X676269Y210000D01*
X676254Y210118D01*
X676247Y210237D01*
X676234Y210275D01*
X676229Y210316D01*
X676186Y210426D01*
X676149Y210539D01*
X676127Y210574D01*
X676112Y210611D01*
X676043Y210707D01*
X675979Y210808D01*
X675949Y210836D01*
X675926Y210869D01*
X675834Y210945D01*
X675747Y211026D01*
X675712Y211046D01*
X675681Y211071D01*
X675573Y211122D01*
X675469Y211180D01*
X675429Y211190D01*
X675393Y211207D01*
X675276Y211229D01*
X675161Y211259D01*
X675101Y211263D01*
X675081Y211267D01*
X675060Y211265D01*
X675000Y211269D01*
X361000Y211269D01*
X360882Y211254D01*
X360763Y211247D01*
X360725Y211234D01*
X360684Y211229D01*
X360574Y211186D01*
X360461Y211149D01*
X360426Y211127D01*
X360389Y211112D01*
X360293Y211043D01*
X360192Y210979D01*
X360164Y210949D01*
X360131Y210926D01*
X360056Y210834D01*
X359974Y210747D01*
X359954Y210712D01*
X359929Y210681D01*
X359878Y210573D01*
X359820Y210469D01*
X359810Y210429D01*
X359793Y210393D01*
X359771Y210276D01*
X359741Y210161D01*
X359737Y210101D01*
X359733Y210081D01*
X359735Y210060D01*
X359731Y210000D01*
X359731Y181269D01*
X351000Y181269D01*
X350951Y181263D01*
X350902Y181265D01*
X350794Y181243D01*
X350684Y181229D01*
X350639Y181211D01*
X350590Y181201D01*
X350491Y181153D01*
X350389Y181112D01*
X350349Y181083D01*
X350304Y181062D01*
X350221Y180990D01*
X350131Y180926D01*
X350100Y180887D01*
X350062Y180855D01*
X349999Y180765D01*
X349929Y180681D01*
X349908Y180636D01*
X349879Y180595D01*
X349840Y180492D01*
X349793Y180393D01*
X349784Y180344D01*
X349766Y180298D01*
X349754Y180188D01*
X349733Y180081D01*
X349736Y180031D01*
X349731Y179982D01*
X349746Y179873D01*
X349753Y179763D01*
X349768Y179716D01*
X349775Y179667D01*
X349817Y179565D01*
X349851Y179461D01*
X349878Y179419D01*
X349896Y179373D01*
X349985Y179238D01*
X364985Y159238D01*
X365082Y159138D01*
X365176Y159035D01*
X365192Y159024D01*
X365206Y159010D01*
X365325Y158937D01*
X365441Y158860D01*
X365460Y158854D01*
X365477Y158844D01*
X365610Y158802D01*
X365742Y158757D01*
X365762Y158756D01*
X365781Y158750D01*
X365920Y158743D01*
X366059Y158732D01*
X366079Y158736D01*
X366098Y158735D01*
X366235Y158763D01*
X366373Y158787D01*
X366391Y158795D01*
X366410Y158799D01*
X366535Y158860D01*
X366663Y158917D01*
X366678Y158930D01*
X366696Y158938D01*
X366802Y159029D01*
X366911Y159116D01*
X366929Y159137D01*
X366938Y159145D01*
X366949Y159161D01*
X367015Y159238D01*
X382015Y179238D01*
X382040Y179281D01*
X382071Y179319D01*
X382118Y179419D01*
X382173Y179515D01*
X382186Y179563D01*
X382207Y179607D01*
X382228Y179715D01*
X382257Y179822D01*
X382257Y179871D01*
X382267Y179920D01*
X382260Y180029D01*
X382262Y180140D01*
X382250Y180188D01*
X382247Y180237D01*
X382213Y180341D01*
X382187Y180449D01*
X382164Y180493D01*
X382149Y180539D01*
X382090Y180632D01*
X382038Y180730D01*
X382005Y180766D01*
X381979Y180808D01*
X381898Y180884D01*
X381824Y180965D01*
X381783Y180992D01*
X381747Y181026D01*
X381651Y181079D01*
X381559Y181140D01*
X381512Y181156D01*
X381469Y181180D01*
X381362Y181207D01*
X381258Y181243D01*
X381209Y181247D01*
X381161Y181259D01*
X381000Y181269D01*
X372269Y181269D01*
X372269Y198731D01*
X609731Y198731D01*
X609731Y181269D01*
X601000Y181269D01*
X600951Y181263D01*
X600902Y181265D01*
X600794Y181243D01*
X600684Y181229D01*
X600639Y181211D01*
X600590Y181201D01*
X600491Y181153D01*
X600389Y181112D01*
X600349Y181083D01*
X600304Y181062D01*
X600221Y180990D01*
X600131Y180926D01*
X600100Y180887D01*
X600062Y180855D01*
X599999Y180765D01*
X599929Y180681D01*
X599908Y180636D01*
X599879Y180595D01*
X599840Y180492D01*
X599793Y180393D01*
X599784Y180344D01*
X599766Y180298D01*
X599754Y180188D01*
X599733Y180081D01*
X599736Y180031D01*
X599731Y179982D01*
X599746Y179873D01*
X599753Y179763D01*
X599768Y179716D01*
X599775Y179667D01*
X599817Y179565D01*
X599851Y179461D01*
X599878Y179419D01*
X599896Y179373D01*
X599985Y179238D01*
X614985Y159238D01*
X615082Y159138D01*
X615176Y159035D01*
X615192Y159024D01*
X615206Y159010D01*
X615325Y158937D01*
X615441Y158860D01*
X615460Y158854D01*
X615477Y158844D01*
X615610Y158802D01*
X615742Y158757D01*
X615762Y158756D01*
X615781Y158750D01*
X615920Y158743D01*
X616059Y158732D01*
X616079Y158736D01*
G37*
G36*
X647769Y1212632D02*
X647769Y1212632D01*
X647879Y1212639D01*
X647926Y1212654D01*
X647975Y1212661D01*
X648077Y1212703D01*
X648181Y1212737D01*
X648223Y1212764D01*
X648269Y1212782D01*
X648404Y1212871D01*
X668404Y1227871D01*
X668504Y1227968D01*
X668607Y1228062D01*
X668618Y1228078D01*
X668632Y1228092D01*
X668705Y1228211D01*
X668782Y1228327D01*
X668788Y1228346D01*
X668798Y1228363D01*
X668840Y1228496D01*
X668885Y1228628D01*
X668886Y1228648D01*
X668892Y1228667D01*
X668899Y1228806D01*
X668910Y1228945D01*
X668907Y1228965D01*
X668907Y1228984D01*
X668879Y1229121D01*
X668855Y1229259D01*
X668847Y1229277D01*
X668843Y1229296D01*
X668782Y1229421D01*
X668725Y1229549D01*
X668712Y1229564D01*
X668704Y1229582D01*
X668613Y1229688D01*
X668526Y1229797D01*
X668505Y1229815D01*
X668497Y1229824D01*
X668481Y1229835D01*
X668404Y1229901D01*
X648404Y1244901D01*
X648361Y1244926D01*
X648323Y1244957D01*
X648223Y1245004D01*
X648127Y1245059D01*
X648079Y1245072D01*
X648035Y1245093D01*
X647927Y1245114D01*
X647820Y1245143D01*
X647771Y1245143D01*
X647723Y1245153D01*
X647613Y1245146D01*
X647502Y1245148D01*
X647454Y1245136D01*
X647405Y1245133D01*
X647301Y1245099D01*
X647193Y1245073D01*
X647149Y1245050D01*
X647103Y1245035D01*
X647010Y1244976D01*
X646912Y1244924D01*
X646876Y1244891D01*
X646834Y1244865D01*
X646758Y1244784D01*
X646677Y1244710D01*
X646650Y1244669D01*
X646616Y1244633D01*
X646563Y1244537D01*
X646502Y1244445D01*
X646486Y1244398D01*
X646462Y1244355D01*
X646435Y1244248D01*
X646399Y1244144D01*
X646395Y1244095D01*
X646383Y1244047D01*
X646373Y1243886D01*
X646373Y1235155D01*
X310602Y1235155D01*
X310484Y1235140D01*
X310365Y1235133D01*
X310327Y1235120D01*
X310286Y1235115D01*
X310176Y1235072D01*
X310063Y1235035D01*
X310028Y1235013D01*
X309991Y1234998D01*
X309895Y1234929D01*
X309794Y1234865D01*
X309766Y1234835D01*
X309733Y1234812D01*
X309658Y1234720D01*
X309576Y1234633D01*
X309556Y1234598D01*
X309531Y1234567D01*
X309480Y1234459D01*
X309422Y1234355D01*
X309412Y1234315D01*
X309395Y1234279D01*
X309373Y1234162D01*
X309343Y1234047D01*
X309339Y1233987D01*
X309335Y1233967D01*
X309337Y1233946D01*
X309333Y1233886D01*
X309333Y1223886D01*
X309348Y1223768D01*
X309355Y1223649D01*
X309368Y1223611D01*
X309373Y1223570D01*
X309416Y1223460D01*
X309453Y1223347D01*
X309475Y1223312D01*
X309490Y1223275D01*
X309560Y1223179D01*
X309623Y1223078D01*
X309653Y1223050D01*
X309676Y1223017D01*
X309768Y1222942D01*
X309855Y1222860D01*
X309890Y1222840D01*
X309921Y1222815D01*
X310029Y1222764D01*
X310133Y1222706D01*
X310173Y1222696D01*
X310209Y1222679D01*
X310326Y1222657D01*
X310441Y1222627D01*
X310502Y1222623D01*
X310522Y1222619D01*
X310542Y1222621D01*
X310602Y1222617D01*
X646373Y1222617D01*
X646373Y1213886D01*
X646379Y1213837D01*
X646377Y1213788D01*
X646399Y1213680D01*
X646413Y1213570D01*
X646431Y1213525D01*
X646441Y1213476D01*
X646489Y1213377D01*
X646530Y1213275D01*
X646559Y1213235D01*
X646580Y1213190D01*
X646652Y1213107D01*
X646716Y1213017D01*
X646755Y1212986D01*
X646787Y1212948D01*
X646877Y1212885D01*
X646961Y1212815D01*
X647006Y1212794D01*
X647047Y1212765D01*
X647150Y1212726D01*
X647249Y1212679D01*
X647298Y1212670D01*
X647344Y1212652D01*
X647454Y1212640D01*
X647562Y1212619D01*
X647611Y1212622D01*
X647660Y1212617D01*
X647769Y1212632D01*
G37*
G36*
X811079Y513736D02*
X811079Y513736D01*
X811098Y513735D01*
X811235Y513763D01*
X811373Y513787D01*
X811391Y513795D01*
X811410Y513799D01*
X811535Y513860D01*
X811663Y513917D01*
X811678Y513930D01*
X811696Y513938D01*
X811802Y514029D01*
X811911Y514116D01*
X811929Y514137D01*
X811938Y514145D01*
X811949Y514161D01*
X812015Y514238D01*
X827015Y534238D01*
X827040Y534281D01*
X827071Y534319D01*
X827118Y534419D01*
X827173Y534515D01*
X827186Y534563D01*
X827207Y534607D01*
X827228Y534715D01*
X827257Y534822D01*
X827257Y534871D01*
X827267Y534920D01*
X827260Y535029D01*
X827262Y535140D01*
X827250Y535188D01*
X827247Y535237D01*
X827213Y535341D01*
X827187Y535449D01*
X827164Y535493D01*
X827149Y535539D01*
X827090Y535632D01*
X827038Y535730D01*
X827005Y535766D01*
X826979Y535808D01*
X826898Y535884D01*
X826824Y535965D01*
X826783Y535992D01*
X826747Y536026D01*
X826651Y536079D01*
X826559Y536140D01*
X826512Y536156D01*
X826469Y536180D01*
X826362Y536207D01*
X826258Y536243D01*
X826209Y536247D01*
X826161Y536259D01*
X826000Y536269D01*
X817269Y536269D01*
X817269Y575000D01*
X817254Y575118D01*
X817247Y575237D01*
X817234Y575275D01*
X817229Y575316D01*
X817186Y575426D01*
X817149Y575539D01*
X817127Y575574D01*
X817112Y575611D01*
X817043Y575707D01*
X816979Y575808D01*
X816949Y575836D01*
X816926Y575869D01*
X816834Y575945D01*
X816747Y576026D01*
X816712Y576046D01*
X816681Y576071D01*
X816573Y576122D01*
X816469Y576180D01*
X816429Y576190D01*
X816393Y576207D01*
X816276Y576229D01*
X816161Y576259D01*
X816101Y576263D01*
X816081Y576267D01*
X816060Y576265D01*
X816000Y576269D01*
X806000Y576269D01*
X805882Y576254D01*
X805763Y576247D01*
X805725Y576234D01*
X805684Y576229D01*
X805574Y576186D01*
X805461Y576149D01*
X805426Y576127D01*
X805389Y576112D01*
X805293Y576043D01*
X805192Y575979D01*
X805164Y575949D01*
X805131Y575926D01*
X805056Y575834D01*
X804974Y575747D01*
X804954Y575712D01*
X804929Y575681D01*
X804878Y575573D01*
X804820Y575469D01*
X804810Y575429D01*
X804793Y575393D01*
X804771Y575276D01*
X804741Y575161D01*
X804737Y575101D01*
X804733Y575081D01*
X804735Y575060D01*
X804731Y575000D01*
X804731Y561269D01*
X681269Y561269D01*
X681269Y570000D01*
X681263Y570049D01*
X681265Y570098D01*
X681243Y570206D01*
X681229Y570316D01*
X681211Y570361D01*
X681201Y570410D01*
X681153Y570509D01*
X681112Y570611D01*
X681083Y570651D01*
X681062Y570696D01*
X680990Y570779D01*
X680926Y570869D01*
X680887Y570900D01*
X680855Y570938D01*
X680765Y571001D01*
X680681Y571071D01*
X680636Y571092D01*
X680595Y571121D01*
X680492Y571160D01*
X680393Y571207D01*
X680344Y571216D01*
X680298Y571234D01*
X680188Y571246D01*
X680081Y571267D01*
X680031Y571264D01*
X679982Y571269D01*
X679873Y571254D01*
X679763Y571247D01*
X679716Y571232D01*
X679667Y571225D01*
X679565Y571183D01*
X679461Y571149D01*
X679419Y571122D01*
X679373Y571104D01*
X679238Y571015D01*
X659238Y556015D01*
X659138Y555918D01*
X659035Y555824D01*
X659024Y555808D01*
X659010Y555794D01*
X658937Y555675D01*
X658860Y555559D01*
X658854Y555540D01*
X658844Y555523D01*
X658802Y555390D01*
X658757Y555258D01*
X658756Y555238D01*
X658750Y555219D01*
X658743Y555080D01*
X658732Y554941D01*
X658736Y554921D01*
X658735Y554902D01*
X658763Y554765D01*
X658787Y554627D01*
X658795Y554609D01*
X658799Y554590D01*
X658860Y554465D01*
X658917Y554338D01*
X658930Y554322D01*
X658938Y554304D01*
X659029Y554198D01*
X659116Y554089D01*
X659137Y554071D01*
X659145Y554062D01*
X659161Y554051D01*
X659238Y553985D01*
X679238Y538985D01*
X679281Y538960D01*
X679319Y538929D01*
X679419Y538882D01*
X679515Y538827D01*
X679563Y538814D01*
X679607Y538793D01*
X679715Y538772D01*
X679822Y538743D01*
X679871Y538743D01*
X679920Y538733D01*
X680029Y538740D01*
X680140Y538738D01*
X680188Y538750D01*
X680237Y538753D01*
X680341Y538787D01*
X680449Y538813D01*
X680493Y538836D01*
X680539Y538851D01*
X680632Y538910D01*
X680730Y538962D01*
X680766Y538995D01*
X680808Y539021D01*
X680884Y539102D01*
X680965Y539176D01*
X680992Y539217D01*
X681026Y539253D01*
X681079Y539349D01*
X681140Y539441D01*
X681156Y539488D01*
X681180Y539531D01*
X681207Y539638D01*
X681243Y539742D01*
X681247Y539791D01*
X681259Y539839D01*
X681269Y540000D01*
X681269Y548731D01*
X804731Y548731D01*
X804731Y536269D01*
X796000Y536269D01*
X795951Y536263D01*
X795902Y536265D01*
X795794Y536243D01*
X795684Y536229D01*
X795639Y536211D01*
X795590Y536201D01*
X795491Y536153D01*
X795389Y536112D01*
X795349Y536083D01*
X795304Y536062D01*
X795221Y535990D01*
X795131Y535926D01*
X795100Y535887D01*
X795062Y535855D01*
X794999Y535765D01*
X794929Y535681D01*
X794908Y535636D01*
X794879Y535595D01*
X794840Y535492D01*
X794793Y535393D01*
X794784Y535344D01*
X794766Y535298D01*
X794754Y535188D01*
X794733Y535081D01*
X794736Y535031D01*
X794731Y534982D01*
X794746Y534873D01*
X794753Y534763D01*
X794768Y534716D01*
X794775Y534667D01*
X794817Y534565D01*
X794851Y534461D01*
X794878Y534419D01*
X794896Y534373D01*
X794985Y534238D01*
X809985Y514238D01*
X810082Y514138D01*
X810176Y514035D01*
X810192Y514024D01*
X810206Y514010D01*
X810325Y513937D01*
X810441Y513860D01*
X810460Y513854D01*
X810477Y513844D01*
X810610Y513802D01*
X810742Y513757D01*
X810762Y513756D01*
X810781Y513750D01*
X810920Y513743D01*
X811059Y513732D01*
X811079Y513736D01*
G37*
G36*
X490079Y1368736D02*
X490079Y1368736D01*
X490098Y1368735D01*
X490235Y1368763D01*
X490373Y1368787D01*
X490391Y1368795D01*
X490410Y1368799D01*
X490535Y1368860D01*
X490663Y1368917D01*
X490678Y1368930D01*
X490696Y1368938D01*
X490802Y1369029D01*
X490911Y1369116D01*
X490929Y1369137D01*
X490938Y1369145D01*
X490949Y1369161D01*
X491015Y1369238D01*
X506015Y1389238D01*
X506040Y1389281D01*
X506071Y1389319D01*
X506118Y1389419D01*
X506173Y1389515D01*
X506186Y1389563D01*
X506207Y1389607D01*
X506228Y1389715D01*
X506257Y1389822D01*
X506257Y1389871D01*
X506267Y1389920D01*
X506260Y1390029D01*
X506262Y1390140D01*
X506250Y1390188D01*
X506247Y1390237D01*
X506213Y1390341D01*
X506187Y1390449D01*
X506164Y1390493D01*
X506149Y1390539D01*
X506090Y1390632D01*
X506038Y1390730D01*
X506005Y1390766D01*
X505979Y1390808D01*
X505898Y1390884D01*
X505824Y1390965D01*
X505783Y1390992D01*
X505747Y1391026D01*
X505651Y1391079D01*
X505559Y1391140D01*
X505512Y1391156D01*
X505469Y1391180D01*
X505362Y1391207D01*
X505258Y1391243D01*
X505209Y1391247D01*
X505161Y1391259D01*
X505000Y1391269D01*
X496269Y1391269D01*
X496269Y1410000D01*
X496254Y1410118D01*
X496247Y1410237D01*
X496234Y1410275D01*
X496229Y1410316D01*
X496186Y1410426D01*
X496149Y1410539D01*
X496127Y1410574D01*
X496112Y1410611D01*
X496043Y1410707D01*
X495979Y1410808D01*
X495949Y1410836D01*
X495926Y1410869D01*
X495834Y1410945D01*
X495747Y1411026D01*
X495712Y1411046D01*
X495681Y1411071D01*
X495573Y1411122D01*
X495469Y1411180D01*
X495429Y1411190D01*
X495393Y1411207D01*
X495276Y1411229D01*
X495161Y1411259D01*
X495101Y1411263D01*
X495081Y1411267D01*
X495060Y1411265D01*
X495000Y1411269D01*
X485000Y1411269D01*
X484882Y1411254D01*
X484763Y1411247D01*
X484725Y1411234D01*
X484684Y1411229D01*
X484574Y1411186D01*
X484461Y1411149D01*
X484426Y1411127D01*
X484389Y1411112D01*
X484293Y1411043D01*
X484192Y1410979D01*
X484164Y1410949D01*
X484131Y1410926D01*
X484056Y1410834D01*
X483974Y1410747D01*
X483954Y1410712D01*
X483929Y1410681D01*
X483878Y1410573D01*
X483820Y1410469D01*
X483810Y1410429D01*
X483793Y1410393D01*
X483771Y1410276D01*
X483741Y1410161D01*
X483737Y1410101D01*
X483733Y1410081D01*
X483735Y1410060D01*
X483731Y1410000D01*
X483731Y1391269D01*
X475000Y1391269D01*
X474951Y1391263D01*
X474902Y1391265D01*
X474794Y1391243D01*
X474684Y1391229D01*
X474639Y1391211D01*
X474590Y1391201D01*
X474491Y1391153D01*
X474389Y1391112D01*
X474349Y1391083D01*
X474304Y1391062D01*
X474221Y1390990D01*
X474131Y1390926D01*
X474100Y1390887D01*
X474062Y1390855D01*
X473999Y1390765D01*
X473929Y1390681D01*
X473908Y1390636D01*
X473879Y1390595D01*
X473840Y1390492D01*
X473793Y1390393D01*
X473784Y1390344D01*
X473766Y1390298D01*
X473754Y1390188D01*
X473733Y1390081D01*
X473736Y1390031D01*
X473731Y1389982D01*
X473746Y1389873D01*
X473753Y1389763D01*
X473768Y1389716D01*
X473775Y1389667D01*
X473817Y1389565D01*
X473851Y1389461D01*
X473878Y1389419D01*
X473896Y1389373D01*
X473985Y1389238D01*
X488985Y1369238D01*
X489082Y1369138D01*
X489176Y1369035D01*
X489192Y1369024D01*
X489206Y1369010D01*
X489325Y1368937D01*
X489441Y1368860D01*
X489460Y1368854D01*
X489477Y1368844D01*
X489610Y1368802D01*
X489742Y1368757D01*
X489762Y1368756D01*
X489781Y1368750D01*
X489920Y1368743D01*
X490059Y1368732D01*
X490079Y1368736D01*
G37*
G36*
X335029Y1303740D02*
X335029Y1303740D01*
X335140Y1303738D01*
X335188Y1303750D01*
X335237Y1303753D01*
X335341Y1303787D01*
X335449Y1303813D01*
X335493Y1303836D01*
X335539Y1303851D01*
X335632Y1303910D01*
X335730Y1303962D01*
X335766Y1303995D01*
X335808Y1304021D01*
X335884Y1304102D01*
X335965Y1304176D01*
X335992Y1304217D01*
X336026Y1304253D01*
X336079Y1304349D01*
X336140Y1304441D01*
X336156Y1304488D01*
X336180Y1304531D01*
X336207Y1304638D01*
X336243Y1304742D01*
X336247Y1304791D01*
X336259Y1304839D01*
X336269Y1305000D01*
X336269Y1313731D01*
X355000Y1313731D01*
X355118Y1313746D01*
X355237Y1313753D01*
X355275Y1313766D01*
X355316Y1313771D01*
X355426Y1313814D01*
X355539Y1313851D01*
X355574Y1313873D01*
X355611Y1313888D01*
X355707Y1313958D01*
X355808Y1314021D01*
X355836Y1314051D01*
X355869Y1314074D01*
X355945Y1314166D01*
X356026Y1314253D01*
X356046Y1314288D01*
X356071Y1314319D01*
X356122Y1314427D01*
X356180Y1314531D01*
X356190Y1314571D01*
X356207Y1314607D01*
X356229Y1314724D01*
X356259Y1314839D01*
X356263Y1314900D01*
X356267Y1314920D01*
X356265Y1314940D01*
X356269Y1315000D01*
X356269Y1325000D01*
X356254Y1325118D01*
X356247Y1325237D01*
X356234Y1325275D01*
X356229Y1325316D01*
X356186Y1325426D01*
X356149Y1325539D01*
X356127Y1325574D01*
X356112Y1325611D01*
X356043Y1325707D01*
X355979Y1325808D01*
X355949Y1325836D01*
X355926Y1325869D01*
X355834Y1325945D01*
X355747Y1326026D01*
X355712Y1326046D01*
X355681Y1326071D01*
X355573Y1326122D01*
X355469Y1326180D01*
X355429Y1326190D01*
X355393Y1326207D01*
X355276Y1326229D01*
X355161Y1326259D01*
X355101Y1326263D01*
X355081Y1326267D01*
X355060Y1326265D01*
X355000Y1326269D01*
X336269Y1326269D01*
X336269Y1335000D01*
X336263Y1335049D01*
X336265Y1335098D01*
X336243Y1335206D01*
X336229Y1335316D01*
X336211Y1335361D01*
X336201Y1335410D01*
X336153Y1335509D01*
X336112Y1335611D01*
X336083Y1335651D01*
X336062Y1335696D01*
X335990Y1335779D01*
X335926Y1335869D01*
X335887Y1335900D01*
X335855Y1335938D01*
X335765Y1336001D01*
X335681Y1336071D01*
X335636Y1336092D01*
X335595Y1336121D01*
X335492Y1336160D01*
X335393Y1336207D01*
X335344Y1336216D01*
X335298Y1336234D01*
X335188Y1336246D01*
X335081Y1336267D01*
X335031Y1336264D01*
X334982Y1336269D01*
X334873Y1336254D01*
X334763Y1336247D01*
X334716Y1336232D01*
X334667Y1336225D01*
X334565Y1336183D01*
X334461Y1336149D01*
X334419Y1336122D01*
X334373Y1336104D01*
X334238Y1336015D01*
X314238Y1321015D01*
X314138Y1320918D01*
X314035Y1320824D01*
X314024Y1320808D01*
X314010Y1320794D01*
X313937Y1320675D01*
X313860Y1320559D01*
X313854Y1320540D01*
X313844Y1320523D01*
X313802Y1320390D01*
X313757Y1320258D01*
X313756Y1320238D01*
X313750Y1320219D01*
X313743Y1320080D01*
X313732Y1319941D01*
X313736Y1319921D01*
X313735Y1319902D01*
X313763Y1319765D01*
X313787Y1319627D01*
X313795Y1319609D01*
X313799Y1319590D01*
X313860Y1319465D01*
X313917Y1319338D01*
X313930Y1319322D01*
X313938Y1319304D01*
X314029Y1319198D01*
X314116Y1319089D01*
X314137Y1319071D01*
X314145Y1319062D01*
X314161Y1319051D01*
X314238Y1318985D01*
X334238Y1303985D01*
X334281Y1303960D01*
X334319Y1303929D01*
X334419Y1303882D01*
X334515Y1303827D01*
X334563Y1303814D01*
X334607Y1303793D01*
X334715Y1303772D01*
X334822Y1303743D01*
X334871Y1303743D01*
X334920Y1303733D01*
X335029Y1303740D01*
G37*
G36*
X169079Y548736D02*
X169079Y548736D01*
X169098Y548735D01*
X169235Y548763D01*
X169373Y548787D01*
X169391Y548795D01*
X169410Y548799D01*
X169535Y548860D01*
X169663Y548917D01*
X169678Y548930D01*
X169696Y548938D01*
X169802Y549029D01*
X169911Y549116D01*
X169929Y549137D01*
X169938Y549145D01*
X169949Y549161D01*
X170015Y549238D01*
X185015Y569238D01*
X185040Y569281D01*
X185071Y569319D01*
X185118Y569419D01*
X185173Y569515D01*
X185186Y569563D01*
X185207Y569607D01*
X185228Y569715D01*
X185257Y569822D01*
X185257Y569871D01*
X185267Y569920D01*
X185260Y570029D01*
X185262Y570140D01*
X185250Y570188D01*
X185247Y570237D01*
X185213Y570341D01*
X185187Y570449D01*
X185164Y570493D01*
X185149Y570539D01*
X185090Y570632D01*
X185038Y570730D01*
X185005Y570766D01*
X184979Y570808D01*
X184898Y570884D01*
X184824Y570965D01*
X184783Y570992D01*
X184747Y571026D01*
X184651Y571079D01*
X184559Y571140D01*
X184512Y571156D01*
X184469Y571180D01*
X184362Y571207D01*
X184258Y571243D01*
X184209Y571247D01*
X184161Y571259D01*
X184000Y571269D01*
X175269Y571269D01*
X175269Y590000D01*
X175254Y590118D01*
X175247Y590237D01*
X175234Y590275D01*
X175229Y590316D01*
X175186Y590426D01*
X175149Y590539D01*
X175127Y590574D01*
X175112Y590611D01*
X175043Y590707D01*
X174979Y590808D01*
X174949Y590836D01*
X174926Y590869D01*
X174834Y590945D01*
X174747Y591026D01*
X174712Y591046D01*
X174681Y591071D01*
X174573Y591122D01*
X174469Y591180D01*
X174429Y591190D01*
X174393Y591207D01*
X174276Y591229D01*
X174161Y591259D01*
X174101Y591263D01*
X174081Y591267D01*
X174060Y591265D01*
X174000Y591269D01*
X164000Y591269D01*
X163882Y591254D01*
X163763Y591247D01*
X163725Y591234D01*
X163684Y591229D01*
X163574Y591186D01*
X163461Y591149D01*
X163426Y591127D01*
X163389Y591112D01*
X163293Y591043D01*
X163192Y590979D01*
X163164Y590949D01*
X163131Y590926D01*
X163056Y590834D01*
X162974Y590747D01*
X162954Y590712D01*
X162929Y590681D01*
X162878Y590573D01*
X162820Y590469D01*
X162810Y590429D01*
X162793Y590393D01*
X162771Y590276D01*
X162741Y590161D01*
X162737Y590101D01*
X162733Y590081D01*
X162735Y590060D01*
X162731Y590000D01*
X162731Y571269D01*
X154000Y571269D01*
X153951Y571263D01*
X153902Y571265D01*
X153794Y571243D01*
X153684Y571229D01*
X153639Y571211D01*
X153590Y571201D01*
X153491Y571153D01*
X153389Y571112D01*
X153349Y571083D01*
X153304Y571062D01*
X153221Y570990D01*
X153131Y570926D01*
X153100Y570887D01*
X153062Y570855D01*
X152999Y570765D01*
X152929Y570681D01*
X152908Y570636D01*
X152879Y570595D01*
X152840Y570492D01*
X152793Y570393D01*
X152784Y570344D01*
X152766Y570298D01*
X152754Y570188D01*
X152733Y570081D01*
X152736Y570031D01*
X152731Y569982D01*
X152746Y569873D01*
X152753Y569763D01*
X152768Y569716D01*
X152775Y569667D01*
X152817Y569565D01*
X152851Y569461D01*
X152878Y569419D01*
X152896Y569373D01*
X152985Y569238D01*
X167985Y549238D01*
X168082Y549138D01*
X168176Y549035D01*
X168192Y549024D01*
X168206Y549010D01*
X168325Y548937D01*
X168441Y548860D01*
X168460Y548854D01*
X168477Y548844D01*
X168610Y548802D01*
X168742Y548757D01*
X168762Y548756D01*
X168781Y548750D01*
X168920Y548743D01*
X169059Y548732D01*
X169079Y548736D01*
G37*
G36*
X864127Y83746D02*
X864127Y83746D01*
X864237Y83753D01*
X864284Y83768D01*
X864333Y83775D01*
X864435Y83817D01*
X864539Y83851D01*
X864581Y83878D01*
X864627Y83896D01*
X864762Y83985D01*
X884762Y98985D01*
X884862Y99082D01*
X884965Y99176D01*
X884976Y99192D01*
X884990Y99206D01*
X885063Y99325D01*
X885140Y99441D01*
X885146Y99460D01*
X885156Y99477D01*
X885198Y99610D01*
X885243Y99742D01*
X885244Y99762D01*
X885250Y99781D01*
X885257Y99920D01*
X885268Y100059D01*
X885265Y100079D01*
X885265Y100098D01*
X885237Y100235D01*
X885213Y100373D01*
X885205Y100391D01*
X885201Y100410D01*
X885140Y100535D01*
X885083Y100663D01*
X885070Y100678D01*
X885062Y100696D01*
X884971Y100802D01*
X884884Y100911D01*
X884863Y100929D01*
X884855Y100938D01*
X884839Y100949D01*
X884762Y101015D01*
X864762Y116015D01*
X864719Y116040D01*
X864681Y116071D01*
X864581Y116118D01*
X864485Y116173D01*
X864437Y116186D01*
X864393Y116207D01*
X864285Y116228D01*
X864178Y116257D01*
X864129Y116257D01*
X864081Y116267D01*
X863971Y116260D01*
X863860Y116262D01*
X863812Y116250D01*
X863763Y116247D01*
X863659Y116213D01*
X863551Y116187D01*
X863507Y116164D01*
X863461Y116149D01*
X863368Y116090D01*
X863270Y116038D01*
X863234Y116005D01*
X863192Y115979D01*
X863116Y115898D01*
X863035Y115824D01*
X863008Y115783D01*
X862974Y115747D01*
X862921Y115651D01*
X862860Y115559D01*
X862844Y115512D01*
X862820Y115469D01*
X862793Y115362D01*
X862757Y115258D01*
X862753Y115209D01*
X862741Y115161D01*
X862731Y115000D01*
X862731Y106269D01*
X844000Y106269D01*
X843882Y106254D01*
X843763Y106247D01*
X843725Y106234D01*
X843684Y106229D01*
X843574Y106186D01*
X843461Y106149D01*
X843426Y106127D01*
X843389Y106112D01*
X843293Y106043D01*
X843192Y105979D01*
X843164Y105949D01*
X843131Y105926D01*
X843056Y105834D01*
X842974Y105747D01*
X842954Y105712D01*
X842929Y105681D01*
X842878Y105573D01*
X842820Y105469D01*
X842810Y105429D01*
X842793Y105393D01*
X842771Y105276D01*
X842741Y105161D01*
X842737Y105101D01*
X842733Y105081D01*
X842735Y105060D01*
X842731Y105000D01*
X842731Y95000D01*
X842746Y94882D01*
X842753Y94763D01*
X842766Y94725D01*
X842771Y94684D01*
X842814Y94574D01*
X842851Y94461D01*
X842873Y94426D01*
X842888Y94389D01*
X842958Y94293D01*
X843021Y94192D01*
X843051Y94164D01*
X843074Y94131D01*
X843166Y94056D01*
X843253Y93974D01*
X843288Y93954D01*
X843319Y93929D01*
X843427Y93878D01*
X843531Y93820D01*
X843571Y93810D01*
X843607Y93793D01*
X843724Y93771D01*
X843839Y93741D01*
X843900Y93737D01*
X843920Y93733D01*
X843940Y93735D01*
X844000Y93731D01*
X862731Y93731D01*
X862731Y85000D01*
X862737Y84951D01*
X862735Y84902D01*
X862757Y84794D01*
X862771Y84684D01*
X862789Y84639D01*
X862799Y84590D01*
X862847Y84491D01*
X862888Y84389D01*
X862917Y84349D01*
X862938Y84304D01*
X863010Y84221D01*
X863074Y84131D01*
X863113Y84100D01*
X863145Y84062D01*
X863235Y83999D01*
X863319Y83929D01*
X863364Y83908D01*
X863405Y83879D01*
X863508Y83840D01*
X863607Y83793D01*
X863656Y83784D01*
X863702Y83766D01*
X863812Y83754D01*
X863920Y83733D01*
X863969Y83736D01*
X864018Y83731D01*
X864127Y83746D01*
G37*
D10*
X297500Y1391100D02*
X267167Y1391100D01*
X260342Y1391100D02*
X258992Y1391100D01*
X252167Y1391100D02*
X221833Y1391100D01*
X215008Y1391100D02*
X213658Y1391100D01*
X206833Y1391100D02*
X176500Y1391100D01*
X169675Y1391100D02*
X168325Y1391100D01*
X161500Y1391100D02*
X131167Y1391100D01*
X124342Y1391100D02*
X122992Y1391100D01*
X116167Y1391100D02*
X85833Y1391100D01*
X79008Y1391100D02*
X77658Y1391100D01*
X70833Y1391100D02*
X40500Y1391100D01*
X40500Y1363800D01*
X40500Y1356975D02*
X40500Y1355625D01*
X40500Y1348800D02*
X40500Y1321500D01*
X40500Y1314675D02*
X40500Y1313325D01*
X40500Y1306500D02*
X40500Y1279200D01*
X40500Y1272375D02*
X40500Y1271025D01*
X40500Y1264200D02*
X40500Y1236900D01*
X40500Y1230075D02*
X40500Y1228725D01*
X40500Y1221900D02*
X40500Y1194600D01*
X40500Y1187775D02*
X40500Y1186425D01*
X40500Y1179600D02*
X40500Y1152300D01*
X40500Y1145475D02*
X40500Y1144125D01*
X40500Y1137300D02*
X40500Y1110000D01*
X70833Y1110000D01*
X77658Y1110000D02*
X79008Y1110000D01*
X85833Y1110000D02*
X116167Y1110000D01*
X122992Y1110000D02*
X124342Y1110000D01*
X131167Y1110000D02*
X161500Y1110000D01*
X168325Y1110000D02*
X169675Y1110000D01*
X176500Y1110000D02*
X206833Y1110000D01*
X213658Y1110000D02*
X215008Y1110000D01*
X221833Y1110000D02*
X252167Y1110000D01*
X258992Y1110000D02*
X260342Y1110000D01*
X267167Y1110000D02*
X297500Y1110000D01*
X297500Y1137300D01*
X297500Y1144125D02*
X297500Y1145475D01*
X297500Y1152300D02*
X297500Y1179600D01*
X297500Y1186425D02*
X297500Y1187775D01*
X297500Y1194600D02*
X297500Y1221900D01*
X297500Y1228725D02*
X297500Y1230075D01*
X297500Y1236900D02*
X297500Y1264200D01*
X297500Y1271025D02*
X297500Y1272375D01*
X297500Y1279200D02*
X297500Y1306500D01*
X297500Y1313325D02*
X297500Y1314675D01*
X297500Y1321500D02*
X297500Y1348800D01*
X297500Y1355625D02*
X297500Y1356975D01*
X297500Y1363800D02*
X297500Y1391100D01*
X909167Y1391100D02*
X939500Y1391100D01*
X902342Y1391100D02*
X900992Y1391100D01*
X894167Y1391100D02*
X863833Y1391100D01*
X857008Y1391100D02*
X855658Y1391100D01*
X848833Y1391100D02*
X818500Y1391100D01*
X811675Y1391100D02*
X810325Y1391100D01*
X803500Y1391100D02*
X773167Y1391100D01*
X766342Y1391100D02*
X764992Y1391100D01*
X758167Y1391100D02*
X727833Y1391100D01*
X721008Y1391100D02*
X719658Y1391100D01*
X712833Y1391100D02*
X682500Y1391100D01*
X682500Y1363800D01*
X682500Y1356975D02*
X682500Y1355625D01*
X682500Y1348800D02*
X682500Y1321500D01*
X682500Y1314675D02*
X682500Y1313325D01*
X682500Y1306500D02*
X682500Y1279200D01*
X682500Y1272375D02*
X682500Y1271025D01*
X682500Y1264200D02*
X682500Y1236900D01*
X682500Y1230075D02*
X682500Y1228725D01*
X682500Y1221900D02*
X682500Y1194600D01*
X682500Y1187775D02*
X682500Y1186425D01*
X682500Y1179600D02*
X682500Y1152300D01*
X682500Y1145475D02*
X682500Y1144125D01*
X682500Y1137300D02*
X682500Y1110000D01*
X712833Y1110000D01*
X719658Y1110000D02*
X721008Y1110000D01*
X727833Y1110000D02*
X758167Y1110000D01*
X764992Y1110000D02*
X766342Y1110000D01*
X773167Y1110000D02*
X803500Y1110000D01*
X810325Y1110000D02*
X811675Y1110000D01*
X818500Y1110000D02*
X848833Y1110000D01*
X855658Y1110000D02*
X857008Y1110000D01*
X863833Y1110000D02*
X894167Y1110000D01*
X900992Y1110000D02*
X902342Y1110000D01*
X909167Y1110000D02*
X939500Y1110000D01*
X939500Y1137300D01*
X939500Y1144125D02*
X939500Y1145475D01*
X939500Y1152300D02*
X939500Y1179600D01*
X939500Y1186425D02*
X939500Y1187775D01*
X939500Y1194600D02*
X939500Y1221900D01*
X939500Y1228725D02*
X939500Y1230075D01*
X939500Y1236900D02*
X939500Y1264200D01*
X939500Y1271025D02*
X939500Y1272375D01*
X939500Y1279200D02*
X939500Y1306500D01*
X939500Y1313325D02*
X939500Y1314675D01*
X939500Y1321500D02*
X939500Y1348800D01*
X939500Y1355625D02*
X939500Y1356975D01*
X939500Y1363800D02*
X939500Y1391100D01*
D11*
X620900Y433400D02*
X350900Y433400D01*
X350900Y230000D01*
X620900Y230000D01*
X620900Y433400D01*
D10*
X645000Y465000D02*
X655000Y465000D01*
X635000Y465000D02*
X625000Y465000D01*
X615000Y465000D02*
X605000Y465000D01*
X595000Y465000D02*
X585000Y465000D01*
X575000Y465000D02*
X565000Y465000D01*
X555000Y465000D02*
X545000Y465000D01*
X535000Y465000D02*
X525000Y465000D01*
X515000Y465000D02*
X505000Y465000D01*
X495000Y465000D02*
X485000Y465000D01*
X475000Y465000D02*
X465000Y465000D01*
X455000Y465000D02*
X445000Y465000D01*
X435000Y465000D02*
X425000Y465000D01*
X415000Y465000D02*
X405000Y465000D01*
X395000Y465000D02*
X385000Y465000D01*
X375000Y465000D02*
X365000Y465000D01*
X355000Y465000D02*
X345000Y465000D01*
X335000Y465000D02*
X325000Y465000D01*
X325000Y475000D01*
X325000Y485000D02*
X325000Y495000D01*
X325000Y505000D02*
X325000Y515000D01*
X325000Y525000D02*
X325000Y535000D01*
X325000Y545000D02*
X325000Y555000D01*
X325000Y565000D02*
X325000Y575000D01*
X325000Y585000D02*
X325000Y595000D01*
X325000Y605000D02*
X325000Y615000D01*
X325000Y625000D02*
X325000Y635000D01*
X325000Y645000D02*
X325000Y655000D01*
X325000Y665000D02*
X325000Y675000D01*
X325000Y685000D02*
X325000Y695000D01*
X325000Y705000D02*
X325000Y715000D01*
X325000Y725000D02*
X325000Y735000D01*
X325000Y745000D02*
X325000Y755000D01*
X325000Y765000D02*
X325000Y775000D01*
X325000Y785000D02*
X325000Y795000D01*
X325000Y805000D02*
X325000Y815000D01*
X335000Y815000D01*
X345000Y815000D02*
X355000Y815000D01*
X365000Y815000D02*
X375000Y815000D01*
X385000Y815000D02*
X395000Y815000D01*
X405000Y815000D02*
X415000Y815000D01*
X425000Y815000D02*
X435000Y815000D01*
X445000Y815000D02*
X455000Y815000D01*
X465000Y815000D02*
X475000Y815000D01*
X485000Y815000D02*
X495000Y815000D01*
X505000Y815000D02*
X515000Y815000D01*
X525000Y815000D02*
X535000Y815000D01*
X545000Y815000D02*
X555000Y815000D01*
X565000Y815000D02*
X575000Y815000D01*
X585000Y815000D02*
X595000Y815000D01*
X605000Y815000D02*
X615000Y815000D01*
X625000Y815000D02*
X635000Y815000D01*
X645000Y815000D02*
X655000Y815000D01*
X655000Y805000D01*
X655000Y795000D02*
X655000Y785000D01*
X655000Y775000D02*
X655000Y765000D01*
X655000Y755000D02*
X655000Y745000D01*
X655000Y735000D02*
X655000Y725000D01*
X655000Y715000D02*
X655000Y705000D01*
X655000Y695000D02*
X655000Y685000D01*
X655000Y675000D02*
X655000Y665000D01*
X655000Y655000D02*
X655000Y645000D01*
X655000Y635000D02*
X655000Y625000D01*
X655000Y615000D02*
X655000Y605000D01*
X655000Y595000D02*
X655000Y585000D01*
X655000Y575000D02*
X655000Y565000D01*
X655000Y555000D02*
X655000Y545000D01*
X655000Y535000D02*
X655000Y525000D01*
X655000Y515000D02*
X655000Y505000D01*
X655000Y495000D02*
X655000Y485000D01*
X655000Y475000D02*
X655000Y465000D01*
X279954Y1017500D02*
X45000Y1017500D01*
X45000Y600000D01*
X279954Y600000D01*
X279954Y1017500D01*
X645000Y1025000D02*
X655000Y1025000D01*
X635000Y1025000D02*
X625000Y1025000D01*
X615000Y1025000D02*
X605000Y1025000D01*
X595000Y1025000D02*
X585000Y1025000D01*
X575000Y1025000D02*
X565000Y1025000D01*
X555000Y1025000D02*
X545000Y1025000D01*
X535000Y1025000D02*
X525000Y1025000D01*
X515000Y1025000D02*
X505000Y1025000D01*
X495000Y1025000D02*
X485000Y1025000D01*
X475000Y1025000D02*
X465000Y1025000D01*
X455000Y1025000D02*
X445000Y1025000D01*
X435000Y1025000D02*
X425000Y1025000D01*
X415000Y1025000D02*
X405000Y1025000D01*
X395000Y1025000D02*
X385000Y1025000D01*
X375000Y1025000D02*
X365000Y1025000D01*
X355000Y1025000D02*
X345000Y1025000D01*
X335000Y1025000D02*
X325000Y1025000D01*
X325000Y1013333D01*
X325000Y1003333D02*
X325000Y991667D01*
X325000Y981667D02*
X325000Y970000D01*
X325000Y960000D02*
X325000Y948333D01*
X325000Y938333D02*
X325000Y926667D01*
X325000Y916667D02*
X325000Y905000D01*
X325000Y895000D02*
X325000Y883333D01*
X325000Y873333D02*
X325000Y861667D01*
X325000Y851667D02*
X325000Y840000D01*
X335000Y840000D01*
X345000Y840000D02*
X355000Y840000D01*
X365000Y840000D02*
X375000Y840000D01*
X385000Y840000D02*
X395000Y840000D01*
X405000Y840000D02*
X415000Y840000D01*
X425000Y840000D02*
X435000Y840000D01*
X445000Y840000D02*
X455000Y840000D01*
X465000Y840000D02*
X475000Y840000D01*
X485000Y840000D02*
X495000Y840000D01*
X505000Y840000D02*
X515000Y840000D01*
X525000Y840000D02*
X535000Y840000D01*
X545000Y840000D02*
X555000Y840000D01*
X565000Y840000D02*
X575000Y840000D01*
X585000Y840000D02*
X595000Y840000D01*
X605000Y840000D02*
X615000Y840000D01*
X625000Y840000D02*
X635000Y840000D01*
X645000Y840000D02*
X655000Y840000D01*
X655000Y851667D01*
X655000Y861667D02*
X655000Y873333D01*
X655000Y883333D02*
X655000Y895000D01*
X655000Y905000D02*
X655000Y916667D01*
X655000Y926667D02*
X655000Y938333D01*
X655000Y948333D02*
X655000Y960000D01*
X655000Y970000D02*
X655000Y981667D01*
X655000Y991667D02*
X655000Y1003333D01*
X655000Y1013333D02*
X655000Y1025000D01*
X909167Y160000D02*
X939500Y160000D01*
X902342Y160000D02*
X900992Y160000D01*
X894167Y160000D02*
X863833Y160000D01*
X857008Y160000D02*
X855658Y160000D01*
X848833Y160000D02*
X818500Y160000D01*
X811675Y160000D02*
X810325Y160000D01*
X803500Y160000D02*
X773167Y160000D01*
X766342Y160000D02*
X764992Y160000D01*
X758167Y160000D02*
X727833Y160000D01*
X721008Y160000D02*
X719658Y160000D01*
X712833Y160000D02*
X682500Y160000D01*
X682500Y185556D01*
X682500Y192381D02*
X682500Y193731D01*
X682500Y200556D02*
X682500Y226111D01*
X682500Y232936D02*
X682500Y234286D01*
X682500Y241111D02*
X682500Y266667D01*
X682500Y273492D02*
X682500Y274842D01*
X682500Y281667D02*
X682500Y307222D01*
X682500Y314047D02*
X682500Y315397D01*
X682500Y322222D02*
X682500Y347778D01*
X682500Y354603D02*
X682500Y355953D01*
X682500Y362778D02*
X682500Y388333D01*
X682500Y395158D02*
X682500Y396508D01*
X682500Y403333D02*
X682500Y428889D01*
X682500Y435714D02*
X682500Y437064D01*
X682500Y443889D02*
X682500Y469444D01*
X682500Y476269D02*
X682500Y477619D01*
X682500Y484444D02*
X682500Y510000D01*
X712833Y510000D01*
X719658Y510000D02*
X721008Y510000D01*
X727833Y510000D02*
X758167Y510000D01*
X764992Y510000D02*
X766342Y510000D01*
X773167Y510000D02*
X803500Y510000D01*
X810325Y510000D02*
X811675Y510000D01*
X818500Y510000D02*
X848833Y510000D01*
X855658Y510000D02*
X857008Y510000D01*
X863833Y510000D02*
X894167Y510000D01*
X900992Y510000D02*
X902342Y510000D01*
X909167Y510000D02*
X939500Y510000D01*
X939500Y484444D01*
X939500Y477619D02*
X939500Y476269D01*
X939500Y469444D02*
X939500Y443889D01*
X939500Y437064D02*
X939500Y435714D01*
X939500Y428889D02*
X939500Y403333D01*
X939500Y396508D02*
X939500Y395158D01*
X939500Y388333D02*
X939500Y362778D01*
X939500Y355953D02*
X939500Y354603D01*
X939500Y347778D02*
X939500Y322222D01*
X939500Y315397D02*
X939500Y314047D01*
X939500Y307222D02*
X939500Y281667D01*
X939500Y274842D02*
X939500Y273492D01*
X939500Y266667D02*
X939500Y241111D01*
X939500Y234286D02*
X939500Y232936D01*
X939500Y226111D02*
X939500Y200556D01*
X939500Y193731D02*
X939500Y192381D01*
X939500Y185556D02*
X939500Y160000D01*
D11*
X257048Y99568D02*
X208120Y99568D01*
X193120Y99568D02*
X144192Y99568D01*
X129192Y99568D02*
X80264Y99568D01*
X80264Y129324D01*
X80264Y144324D02*
X80264Y174080D01*
X80264Y189080D02*
X80264Y218837D01*
X80264Y233837D02*
X80264Y263593D01*
X80264Y278593D02*
X80264Y308349D01*
X80264Y323349D02*
X80264Y353105D01*
X80264Y368105D02*
X80264Y397861D01*
X80264Y412861D02*
X80264Y442618D01*
X80264Y457618D02*
X80264Y487374D01*
X80264Y502374D02*
X80264Y532130D01*
X129192Y532130D01*
X144192Y532130D02*
X193120Y532130D01*
X208120Y532130D02*
X257048Y532130D01*
X257048Y502374D01*
X257048Y487374D02*
X257048Y457618D01*
X257048Y442618D02*
X257048Y412861D01*
X257048Y397861D02*
X257048Y368105D01*
X257048Y353105D02*
X257048Y323349D01*
X257048Y308349D02*
X257048Y278593D01*
X257048Y263593D02*
X257048Y233837D01*
X257048Y218837D02*
X257048Y189080D01*
X257048Y174080D02*
X257048Y144324D01*
X257048Y129324D02*
X257048Y99568D01*
X706628Y583946D02*
X914908Y583946D01*
X914908Y1015238D01*
X706628Y1015238D01*
X706628Y583946D01*
X610000Y1350000D02*
X370000Y1350000D01*
X610000Y1350000D02*
X610000Y1290000D01*
X370000Y1290000D01*
X370000Y1350000D01*
D12*
X866225Y1293142D02*
X866225Y1276872D01*
X874360Y1285007D02*
X866225Y1293142D01*
X863513Y1285007D02*
X874360Y1285007D01*
X857989Y1279584D02*
X857989Y1276872D01*
X857989Y1279584D02*
X855277Y1279584D01*
X855277Y1276872D01*
X857989Y1276872D01*
X833431Y1276872D02*
X833431Y1287719D01*
X828008Y1293142D01*
X822585Y1287719D01*
X822585Y1276872D01*
X822585Y1285007D02*
X833431Y1285007D01*
X814348Y1287719D02*
X806213Y1287719D01*
X814348Y1287719D02*
X817060Y1285007D01*
X817060Y1279584D01*
X814348Y1276872D01*
X806213Y1276872D01*
X797976Y1279584D02*
X797976Y1290430D01*
X797976Y1279584D02*
X795265Y1276872D01*
X795265Y1287719D02*
X800688Y1287719D01*
X789774Y1287719D02*
X787062Y1287719D01*
X787062Y1276872D01*
X789774Y1276872D02*
X784350Y1276872D01*
X787062Y1293142D02*
X787062Y1295854D01*
X778859Y1287719D02*
X773436Y1276872D01*
X768013Y1287719D01*
X759776Y1276872D02*
X754353Y1276872D01*
X759776Y1276872D02*
X762488Y1279584D01*
X762488Y1285007D01*
X759776Y1287719D01*
X754353Y1287719D01*
X751641Y1285007D01*
X751641Y1282295D01*
X762488Y1282295D01*
X216572Y1269969D02*
X213861Y1272681D01*
X208437Y1272681D01*
X205726Y1269969D01*
X205726Y1267258D01*
X208437Y1264546D01*
X211149Y1264546D01*
X208437Y1264546D02*
X205726Y1261834D01*
X205726Y1259123D01*
X208437Y1256411D01*
X213861Y1256411D01*
X216572Y1259123D01*
X200201Y1259123D02*
X200201Y1256411D01*
X200201Y1259123D02*
X197489Y1259123D01*
X197489Y1256411D01*
X200201Y1256411D01*
X175643Y1256411D02*
X175643Y1272681D01*
X167508Y1272681D01*
X164797Y1269969D01*
X164797Y1264546D01*
X167508Y1261834D01*
X175643Y1261834D01*
X156560Y1267258D02*
X151137Y1267258D01*
X148425Y1264546D01*
X148425Y1256411D01*
X156560Y1256411D01*
X159272Y1259123D01*
X156560Y1261834D01*
X148425Y1261834D01*
X142900Y1256411D02*
X134765Y1256411D01*
X132054Y1259123D01*
X134765Y1261834D01*
X140189Y1261834D01*
X142900Y1264546D01*
X140189Y1267258D01*
X132054Y1267258D01*
X126529Y1256411D02*
X118394Y1256411D01*
X115682Y1259123D01*
X118394Y1261834D01*
X123817Y1261834D01*
X126529Y1264546D01*
X123817Y1267258D01*
X115682Y1267258D01*
X110157Y1267258D02*
X107445Y1267258D01*
X107445Y1256411D01*
X104734Y1256411D02*
X110157Y1256411D01*
X107445Y1272681D02*
X107445Y1275393D01*
X99243Y1267258D02*
X93819Y1256411D01*
X88396Y1267258D01*
X80160Y1256411D02*
X74736Y1256411D01*
X80160Y1256411D02*
X82871Y1259123D01*
X82871Y1264546D01*
X80160Y1267258D01*
X74736Y1267258D01*
X72025Y1264546D01*
X72025Y1261834D01*
X82871Y1261834D01*
X205658Y1240588D02*
X205658Y1224318D01*
X205658Y1240588D02*
X197523Y1240588D01*
X194811Y1237876D01*
X194811Y1232453D01*
X197523Y1229741D01*
X205658Y1229741D01*
X189286Y1229741D02*
X189286Y1240588D01*
X183863Y1240588D02*
X189286Y1235164D01*
X183863Y1240588D02*
X181151Y1240588D01*
X172932Y1229741D02*
X167508Y1229741D01*
X164797Y1232453D01*
X164797Y1237876D01*
X167508Y1240588D01*
X172932Y1240588D01*
X175643Y1237876D01*
X175643Y1232453D01*
X172932Y1229741D01*
X156560Y1232453D02*
X156560Y1243299D01*
X156560Y1232453D02*
X153849Y1229741D01*
X153849Y1240588D02*
X159272Y1240588D01*
X145646Y1229741D02*
X140222Y1229741D01*
X145646Y1229741D02*
X148357Y1232453D01*
X148357Y1237876D01*
X145646Y1240588D01*
X140222Y1240588D01*
X137511Y1237876D01*
X137511Y1235164D01*
X148357Y1235164D01*
X129274Y1240588D02*
X121139Y1240588D01*
X129274Y1240588D02*
X131986Y1237876D01*
X131986Y1232453D01*
X129274Y1229741D01*
X121139Y1229741D01*
X112903Y1232453D02*
X112903Y1243299D01*
X112903Y1232453D02*
X110191Y1229741D01*
X110191Y1240588D02*
X115614Y1240588D01*
X104700Y1240588D02*
X101988Y1240588D01*
X101988Y1229741D01*
X99277Y1229741D02*
X104700Y1229741D01*
X101988Y1246011D02*
X101988Y1248723D01*
X91074Y1229741D02*
X85651Y1229741D01*
X82939Y1232453D01*
X82939Y1237876D01*
X85651Y1240588D01*
X91074Y1240588D01*
X93786Y1237876D01*
X93786Y1232453D01*
X91074Y1229741D01*
X77414Y1229741D02*
X77414Y1240588D01*
X69279Y1240588D01*
X66567Y1237876D01*
X66567Y1229741D01*
X610027Y1264158D02*
X620873Y1264158D01*
X610027Y1275005D01*
X610027Y1277716D01*
X612738Y1280428D01*
X618162Y1280428D01*
X620873Y1277716D01*
X604502Y1266870D02*
X604502Y1264158D01*
X604502Y1266870D02*
X601790Y1266870D01*
X601790Y1264158D01*
X604502Y1264158D01*
X579944Y1264158D02*
X579944Y1280428D01*
X571809Y1280428D01*
X569098Y1277716D01*
X569098Y1275005D01*
X571809Y1272293D01*
X569098Y1269581D01*
X569098Y1266870D01*
X571809Y1264158D01*
X579944Y1264158D01*
X579944Y1272293D02*
X571809Y1272293D01*
X563573Y1275005D02*
X563573Y1264158D01*
X563573Y1269581D02*
X558150Y1275005D01*
X555438Y1275005D01*
X549930Y1275005D02*
X547218Y1275005D01*
X547218Y1264158D01*
X544507Y1264158D02*
X549930Y1264158D01*
X547218Y1280428D02*
X547218Y1283140D01*
X528169Y1280428D02*
X528169Y1264158D01*
X536304Y1264158D01*
X539016Y1266870D01*
X539016Y1272293D01*
X536304Y1275005D01*
X528169Y1275005D01*
X517221Y1258735D02*
X514509Y1258735D01*
X511797Y1261446D01*
X511797Y1275005D01*
X519932Y1275005D01*
X522644Y1272293D01*
X522644Y1266870D01*
X519932Y1264158D01*
X511797Y1264158D01*
X503561Y1264158D02*
X498137Y1264158D01*
X503561Y1264158D02*
X506272Y1266870D01*
X506272Y1272293D01*
X503561Y1275005D01*
X498137Y1275005D01*
X495426Y1272293D01*
X495426Y1269581D01*
X506272Y1269581D01*
X473529Y1264158D02*
X473529Y1275005D01*
X468106Y1275005D02*
X473529Y1269581D01*
X468106Y1275005D02*
X465394Y1275005D01*
X457175Y1264158D02*
X451751Y1264158D01*
X457175Y1264158D02*
X459886Y1266870D01*
X459886Y1272293D01*
X457175Y1275005D01*
X451751Y1275005D01*
X449040Y1272293D01*
X449040Y1269581D01*
X459886Y1269581D01*
X440803Y1275005D02*
X432668Y1275005D01*
X440803Y1275005D02*
X443515Y1272293D01*
X443515Y1266870D01*
X440803Y1264158D01*
X432668Y1264158D01*
X424432Y1266870D02*
X424432Y1277716D01*
X424432Y1266870D02*
X421720Y1264158D01*
X421720Y1275005D02*
X427143Y1275005D01*
X416229Y1275005D02*
X413517Y1275005D01*
X413517Y1264158D01*
X410806Y1264158D02*
X416229Y1264158D01*
X413517Y1280428D02*
X413517Y1283140D01*
X402603Y1277716D02*
X402603Y1264158D01*
X402603Y1277716D02*
X399891Y1280428D01*
X399891Y1272293D02*
X405314Y1272293D01*
X394400Y1275005D02*
X391688Y1275005D01*
X391688Y1264158D01*
X388977Y1264158D02*
X394400Y1264158D01*
X391688Y1280428D02*
X391688Y1283140D01*
X380774Y1264158D02*
X375351Y1264158D01*
X380774Y1264158D02*
X383486Y1266870D01*
X383486Y1272293D01*
X380774Y1275005D01*
X375351Y1275005D01*
X372639Y1272293D01*
X372639Y1269581D01*
X383486Y1269581D01*
X367114Y1264158D02*
X367114Y1275005D01*
X361691Y1275005D02*
X367114Y1269581D01*
X361691Y1275005D02*
X358979Y1275005D01*
X802059Y1448142D02*
X807482Y1442719D01*
X802059Y1448142D02*
X802059Y1431872D01*
X807482Y1431872D02*
X796636Y1431872D01*
X791111Y1431872D02*
X791111Y1434584D01*
X788399Y1434584D01*
X788399Y1431872D01*
X791111Y1431872D01*
X766553Y1431872D02*
X766553Y1442719D01*
X761130Y1448142D01*
X755707Y1442719D01*
X755707Y1431872D01*
X755707Y1440007D02*
X766553Y1440007D01*
X742047Y1448142D02*
X739335Y1445430D01*
X742047Y1448142D02*
X747470Y1448142D01*
X750182Y1445430D01*
X750182Y1434584D01*
X747470Y1431872D01*
X742047Y1431872D01*
X739335Y1434584D01*
X714727Y1431872D02*
X709304Y1431872D01*
X706592Y1434584D01*
X706592Y1440007D01*
X709304Y1442719D01*
X714727Y1442719D01*
X717439Y1440007D01*
X717439Y1434584D01*
X714727Y1431872D01*
X701067Y1431872D02*
X701067Y1442719D01*
X695644Y1442719D02*
X701067Y1437295D01*
X695644Y1442719D02*
X692932Y1442719D01*
X671052Y1448142D02*
X671052Y1431872D01*
X662918Y1431872D01*
X660206Y1434584D01*
X660206Y1445430D01*
X662918Y1448142D01*
X671052Y1448142D01*
X646546Y1448142D02*
X643834Y1445430D01*
X646546Y1448142D02*
X651969Y1448142D01*
X654681Y1445430D01*
X654681Y1434584D01*
X651969Y1431872D01*
X646546Y1431872D01*
X643834Y1434584D01*
X621938Y1442719D02*
X619226Y1442719D01*
X619226Y1431872D01*
X621938Y1431872D02*
X616514Y1431872D01*
X619226Y1448142D02*
X619226Y1450854D01*
X611023Y1442719D02*
X611023Y1431872D01*
X611023Y1442719D02*
X602888Y1442719D01*
X600177Y1440007D01*
X600177Y1431872D01*
X594652Y1426449D02*
X594652Y1442719D01*
X586517Y1442719D01*
X583805Y1440007D01*
X583805Y1434584D01*
X586517Y1431872D01*
X594652Y1431872D01*
X578280Y1434584D02*
X578280Y1442719D01*
X578280Y1434584D02*
X575569Y1431872D01*
X567434Y1431872D01*
X567434Y1442719D01*
X559197Y1445430D02*
X559197Y1434584D01*
X556485Y1431872D01*
X556485Y1442719D02*
X561909Y1442719D01*
D11*
X265000Y505000D02*
X285000Y490000D01*
X285000Y500000D01*
X295000Y500000D01*
X295000Y510000D01*
X285000Y510000D01*
X285000Y520000D01*
X265000Y505000D01*
X277933Y495300D02*
X285000Y495300D01*
X295000Y508000D02*
X269000Y508000D01*
X266700Y506275D02*
X266700Y503725D01*
X279400Y494200D02*
X279400Y515800D01*
X292100Y510000D02*
X292100Y500000D01*
X265000Y445000D02*
X285000Y430000D01*
X285000Y440000D01*
X295000Y440000D01*
X295000Y450000D01*
X285000Y450000D01*
X285000Y460000D01*
X265000Y445000D01*
X282600Y431800D02*
X285000Y431800D01*
X295000Y444500D02*
X265667Y444500D01*
X281267Y457200D02*
X285000Y457200D01*
X266700Y446275D02*
X266700Y443725D01*
X279400Y434200D02*
X279400Y455800D01*
X292100Y450000D02*
X292100Y440000D01*
X295000Y940000D02*
X305000Y940000D01*
X295000Y940000D02*
X295000Y500000D01*
X305000Y500000D01*
X305000Y940000D01*
X305000Y508000D02*
X295000Y508000D01*
X295000Y520700D02*
X305000Y520700D01*
X305000Y533400D02*
X295000Y533400D01*
X295000Y546100D02*
X305000Y546100D01*
X305000Y558800D02*
X295000Y558800D01*
X295000Y571500D02*
X305000Y571500D01*
X305000Y584200D02*
X295000Y584200D01*
X295000Y596900D02*
X305000Y596900D01*
X305000Y609600D02*
X295000Y609600D01*
X295000Y622300D02*
X305000Y622300D01*
X305000Y635000D02*
X295000Y635000D01*
X295000Y647700D02*
X305000Y647700D01*
X305000Y660400D02*
X295000Y660400D01*
X295000Y673100D02*
X305000Y673100D01*
X305000Y685800D02*
X295000Y685800D01*
X295000Y698500D02*
X305000Y698500D01*
X305000Y711200D02*
X295000Y711200D01*
X295000Y723900D02*
X305000Y723900D01*
X305000Y736600D02*
X295000Y736600D01*
X295000Y749300D02*
X305000Y749300D01*
X305000Y762000D02*
X295000Y762000D01*
X295000Y774700D02*
X305000Y774700D01*
X305000Y787400D02*
X295000Y787400D01*
X295000Y800100D02*
X305000Y800100D01*
X305000Y812800D02*
X295000Y812800D01*
X295000Y825500D02*
X305000Y825500D01*
X305000Y838200D02*
X295000Y838200D01*
X295000Y850900D02*
X305000Y850900D01*
X305000Y863600D02*
X295000Y863600D01*
X295000Y876300D02*
X305000Y876300D01*
X305000Y889000D02*
X295000Y889000D01*
X295000Y901700D02*
X305000Y901700D01*
X305000Y914400D02*
X295000Y914400D01*
X295000Y927100D02*
X305000Y927100D01*
X305000Y939800D02*
X295000Y939800D01*
X304800Y940000D02*
X304800Y500000D01*
X295000Y950000D02*
X320000Y950000D01*
X320000Y940000D01*
X295000Y940000D01*
X295000Y950000D01*
X304800Y950000D02*
X304800Y940000D01*
X317500Y940000D02*
X317500Y950000D01*
X305000Y440000D02*
X295000Y440000D01*
X295000Y480000D01*
X320000Y480000D01*
X320000Y470000D01*
X305000Y470000D01*
X305000Y440000D01*
X305000Y444500D02*
X295000Y444500D01*
X295000Y457200D02*
X305000Y457200D01*
X305000Y469900D02*
X295000Y469900D01*
X304800Y480000D02*
X304800Y440000D01*
X317500Y470000D02*
X317500Y480000D01*
X320998Y316758D02*
X340998Y301758D01*
X320998Y306758D02*
X320998Y316758D01*
X320998Y306758D02*
X270000Y306758D01*
X270000Y296758D01*
X320998Y296758D01*
X320998Y286758D01*
X340998Y301758D01*
X328121Y292100D02*
X320998Y292100D01*
X336942Y304800D02*
X270000Y304800D01*
X279400Y306758D02*
X279400Y296758D01*
X292100Y296758D02*
X292100Y306758D01*
X304800Y306758D02*
X304800Y296758D01*
X317500Y296758D02*
X317500Y306758D01*
X330200Y309857D02*
X330200Y293660D01*
X292608Y145796D02*
X438658Y145796D01*
X438658Y2286D01*
X292608Y2286D01*
X292608Y146050D01*
X540766Y144780D02*
X689864Y144780D01*
X689864Y4826D01*
X540766Y4826D01*
X540766Y144780D01*
X864000Y60000D02*
X884000Y45000D01*
X864000Y50000D02*
X864000Y60000D01*
X864000Y50000D02*
X844000Y50000D01*
X844000Y40000D01*
X864000Y40000D01*
X864000Y30000D01*
X884000Y45000D01*
X874800Y38100D02*
X864000Y38100D01*
X864000Y50800D02*
X876267Y50800D01*
X850900Y50000D02*
X850900Y40000D01*
X863600Y40000D02*
X863600Y50000D01*
X876300Y50775D02*
X876300Y39225D01*
D12*
X823238Y36872D02*
X823238Y53142D01*
X823238Y36872D02*
X815103Y36872D01*
X812391Y39584D01*
X812391Y50430D01*
X815103Y53142D01*
X823238Y53142D01*
X806866Y47719D02*
X806866Y36872D01*
X806866Y47719D02*
X801443Y53142D01*
X796020Y47719D01*
X796020Y36872D01*
X796020Y45007D02*
X806866Y45007D01*
X785072Y36872D02*
X785072Y53142D01*
X790495Y53142D02*
X779648Y53142D01*
X774123Y47719D02*
X774123Y36872D01*
X774123Y47719D02*
X768700Y53142D01*
X763277Y47719D01*
X763277Y36872D01*
X763277Y45007D02*
X774123Y45007D01*
X823238Y91872D02*
X823238Y108142D01*
X815103Y108142D01*
X812391Y105430D01*
X812391Y100007D01*
X815103Y97295D01*
X823238Y97295D01*
X804155Y108142D02*
X798732Y108142D01*
X804155Y108142D02*
X806866Y105430D01*
X806866Y94584D01*
X804155Y91872D01*
X798732Y91872D01*
X796020Y94584D01*
X796020Y105430D01*
X798732Y108142D01*
X790495Y108142D02*
X790495Y91872D01*
X785072Y97295D01*
X779648Y91872D01*
X779648Y108142D01*
X774123Y108142D02*
X763277Y108142D01*
X774123Y108142D02*
X774123Y91872D01*
X763277Y91872D01*
X768700Y100007D02*
X774123Y100007D01*
X757752Y91872D02*
X757752Y108142D01*
X749617Y108142D01*
X746905Y105430D01*
X746905Y100007D01*
X749617Y97295D01*
X757752Y97295D01*
X752328Y97295D02*
X746905Y91872D01*
X878891Y803670D02*
X889738Y803670D01*
X889738Y795535D01*
X884314Y798247D01*
X881603Y798247D01*
X878891Y795535D01*
X878891Y790112D01*
X881603Y787400D01*
X887026Y787400D01*
X889738Y790112D01*
X873366Y790112D02*
X873366Y787400D01*
X873366Y790112D02*
X870654Y790112D01*
X870654Y787400D01*
X873366Y787400D01*
X848809Y792823D02*
X848809Y803670D01*
X848809Y792823D02*
X843385Y787400D01*
X837962Y792823D01*
X837962Y803670D01*
X829726Y787400D02*
X824302Y787400D01*
X821591Y790112D01*
X821591Y795535D01*
X824302Y798247D01*
X829726Y798247D01*
X832437Y795535D01*
X832437Y790112D01*
X829726Y787400D01*
X816066Y803670D02*
X813354Y803670D01*
X813354Y787400D01*
X816066Y787400D02*
X810642Y787400D01*
X802440Y790112D02*
X802440Y800958D01*
X802440Y790112D02*
X799728Y787400D01*
X799728Y798247D02*
X805151Y798247D01*
X791525Y798247D02*
X786102Y798247D01*
X783390Y795535D01*
X783390Y787400D01*
X791525Y787400D01*
X794237Y790112D01*
X791525Y792823D01*
X783390Y792823D01*
X772442Y781977D02*
X769730Y781977D01*
X767019Y784688D01*
X767019Y798247D01*
X775154Y798247D01*
X777865Y795535D01*
X777865Y790112D01*
X775154Y787400D01*
X767019Y787400D01*
X758782Y787400D02*
X753359Y787400D01*
X758782Y787400D02*
X761494Y790112D01*
X761494Y795535D01*
X758782Y798247D01*
X753359Y798247D01*
X750647Y795535D01*
X750647Y792823D01*
X761494Y792823D01*
X874730Y771577D02*
X874730Y760730D01*
X874730Y766153D02*
X869307Y771577D01*
X866595Y771577D01*
X858376Y760730D02*
X852952Y760730D01*
X858376Y760730D02*
X861087Y763442D01*
X861087Y768865D01*
X858376Y771577D01*
X852952Y771577D01*
X850241Y768865D01*
X850241Y766153D01*
X861087Y766153D01*
X839293Y755307D02*
X836581Y755307D01*
X833869Y758018D01*
X833869Y771577D01*
X842004Y771577D01*
X844716Y768865D01*
X844716Y763442D01*
X842004Y760730D01*
X833869Y760730D01*
X828344Y763442D02*
X828344Y771577D01*
X828344Y763442D02*
X825633Y760730D01*
X817498Y760730D01*
X817498Y771577D01*
X811973Y777000D02*
X809261Y777000D01*
X809261Y760730D01*
X811973Y760730D02*
X806549Y760730D01*
X798347Y771577D02*
X792923Y771577D01*
X790212Y768865D01*
X790212Y760730D01*
X798347Y760730D01*
X801058Y763442D01*
X798347Y766153D01*
X790212Y766153D01*
X781975Y763442D02*
X781975Y774288D01*
X781975Y763442D02*
X779264Y760730D01*
X779264Y771577D02*
X784687Y771577D01*
X771061Y760730D02*
X765637Y760730D01*
X762926Y763442D01*
X762926Y768865D01*
X765637Y771577D01*
X771061Y771577D01*
X773772Y768865D01*
X773772Y763442D01*
X771061Y760730D01*
X757401Y760730D02*
X757401Y771577D01*
X751978Y771577D02*
X757401Y766153D01*
X751978Y771577D02*
X749266Y771577D01*
X887026Y747618D02*
X887026Y734060D01*
X887026Y747618D02*
X884314Y750330D01*
X884314Y742195D02*
X889738Y742195D01*
X876112Y734060D02*
X870688Y734060D01*
X867977Y736772D01*
X867977Y742195D01*
X870688Y744907D01*
X876112Y744907D01*
X878823Y742195D01*
X878823Y736772D01*
X876112Y734060D01*
X862452Y734060D02*
X862452Y744907D01*
X862452Y739483D02*
X857028Y744907D01*
X854317Y744907D01*
X829726Y734060D02*
X824302Y734060D01*
X821591Y736772D01*
X821591Y742195D01*
X824302Y744907D01*
X829726Y744907D01*
X832437Y742195D01*
X832437Y736772D01*
X829726Y734060D01*
X816066Y736772D02*
X816066Y744907D01*
X816066Y736772D02*
X813354Y734060D01*
X805219Y734060D01*
X805219Y744907D01*
X796982Y747618D02*
X796982Y736772D01*
X794271Y734060D01*
X794271Y744907D02*
X799694Y744907D01*
X788780Y744907D02*
X788780Y728637D01*
X788780Y744907D02*
X780645Y744907D01*
X777933Y742195D01*
X777933Y736772D01*
X780645Y734060D01*
X788780Y734060D01*
X772408Y736772D02*
X772408Y744907D01*
X772408Y736772D02*
X769697Y734060D01*
X761562Y734060D01*
X761562Y744907D01*
X753325Y747618D02*
X753325Y736772D01*
X750613Y734060D01*
X750613Y744907D02*
X756037Y744907D01*
X745122Y734060D02*
X736987Y734060D01*
X734276Y736772D01*
X736987Y739483D01*
X742411Y739483D01*
X745122Y742195D01*
X742411Y744907D01*
X734276Y744907D01*
X626904Y867678D02*
X616057Y867678D01*
X616057Y864966D01*
X626904Y854120D01*
X626904Y851408D01*
X610532Y851408D02*
X610532Y854120D01*
X607821Y854120D01*
X607821Y851408D01*
X610532Y851408D01*
X585975Y856831D02*
X585975Y867678D01*
X585975Y856831D02*
X580552Y851408D01*
X575128Y856831D01*
X575128Y867678D01*
X566892Y851408D02*
X561469Y851408D01*
X558757Y854120D01*
X558757Y859543D01*
X561469Y862255D01*
X566892Y862255D01*
X569603Y859543D01*
X569603Y854120D01*
X566892Y851408D01*
X553232Y867678D02*
X550520Y867678D01*
X550520Y851408D01*
X547809Y851408D02*
X553232Y851408D01*
X539606Y854120D02*
X539606Y864966D01*
X539606Y854120D02*
X536894Y851408D01*
X536894Y862255D02*
X542318Y862255D01*
X528692Y862255D02*
X523268Y862255D01*
X520557Y859543D01*
X520557Y851408D01*
X528692Y851408D01*
X531403Y854120D01*
X528692Y856831D01*
X520557Y856831D01*
X509608Y845985D02*
X506897Y845985D01*
X504185Y848696D01*
X504185Y862255D01*
X512320Y862255D01*
X515032Y859543D01*
X515032Y854120D01*
X512320Y851408D01*
X504185Y851408D01*
X495948Y851408D02*
X490525Y851408D01*
X495948Y851408D02*
X498660Y854120D01*
X498660Y859543D01*
X495948Y862255D01*
X490525Y862255D01*
X487813Y859543D01*
X487813Y856831D01*
X498660Y856831D01*
X465917Y851408D02*
X465917Y862255D01*
X463205Y862255D01*
X460494Y859543D01*
X460494Y851408D01*
X460494Y859543D02*
X457782Y862255D01*
X455070Y859543D01*
X455070Y851408D01*
X446834Y851408D02*
X441410Y851408D01*
X446834Y851408D02*
X449545Y854120D01*
X449545Y859543D01*
X446834Y862255D01*
X441410Y862255D01*
X438699Y859543D01*
X438699Y856831D01*
X449545Y856831D01*
X430462Y862255D02*
X425039Y862255D01*
X422327Y859543D01*
X422327Y851408D01*
X430462Y851408D01*
X433174Y854120D01*
X430462Y856831D01*
X422327Y856831D01*
X416802Y851408D02*
X408667Y851408D01*
X405956Y854120D01*
X408667Y856831D01*
X414091Y856831D01*
X416802Y859543D01*
X414091Y862255D01*
X405956Y862255D01*
X400431Y862255D02*
X400431Y854120D01*
X397719Y851408D01*
X389584Y851408D01*
X389584Y862255D01*
X384059Y862255D02*
X384059Y851408D01*
X384059Y856831D02*
X378636Y862255D01*
X375924Y862255D01*
X367705Y851408D02*
X362281Y851408D01*
X367705Y851408D02*
X370416Y854120D01*
X370416Y859543D01*
X367705Y862255D01*
X362281Y862255D01*
X359570Y859543D01*
X359570Y856831D01*
X370416Y856831D01*
X620382Y492012D02*
X623094Y489300D01*
X620382Y492012D02*
X614959Y492012D01*
X612247Y489300D01*
X612247Y486589D01*
X614959Y483877D01*
X612247Y481165D01*
X612247Y478454D01*
X614959Y475742D01*
X620382Y475742D01*
X623094Y478454D01*
X623094Y481165D01*
X620382Y483877D01*
X623094Y486589D01*
X623094Y489300D01*
X620382Y483877D02*
X614959Y483877D01*
X606722Y478454D02*
X606722Y475742D01*
X606722Y478454D02*
X604011Y478454D01*
X604011Y475742D01*
X606722Y475742D01*
X574030Y492012D02*
X571318Y489300D01*
X574030Y492012D02*
X579453Y492012D01*
X582165Y489300D01*
X582165Y478454D01*
X579453Y475742D01*
X574030Y475742D01*
X571318Y478454D01*
X565793Y478454D02*
X565793Y486589D01*
X565793Y478454D02*
X563082Y475742D01*
X554947Y475742D01*
X554947Y486589D01*
X549422Y486589D02*
X549422Y475742D01*
X549422Y481165D02*
X543999Y486589D01*
X541287Y486589D01*
X535779Y486589D02*
X535779Y475742D01*
X535779Y481165D02*
X530356Y486589D01*
X527644Y486589D01*
X519424Y475742D02*
X514001Y475742D01*
X519424Y475742D02*
X522136Y478454D01*
X522136Y483877D01*
X519424Y486589D01*
X514001Y486589D01*
X511289Y483877D01*
X511289Y481165D01*
X522136Y481165D01*
X505764Y475742D02*
X505764Y486589D01*
X497629Y486589D01*
X494918Y483877D01*
X494918Y475742D01*
X486681Y478454D02*
X486681Y489300D01*
X486681Y478454D02*
X483970Y475742D01*
X483970Y486589D02*
X489393Y486589D01*
X462107Y486589D02*
X462107Y475742D01*
X462107Y486589D02*
X459395Y486589D01*
X456684Y483877D01*
X456684Y475742D01*
X456684Y483877D02*
X453972Y486589D01*
X451260Y483877D01*
X451260Y475742D01*
X443024Y475742D02*
X437600Y475742D01*
X443024Y475742D02*
X445735Y478454D01*
X445735Y483877D01*
X443024Y486589D01*
X437600Y486589D01*
X434889Y483877D01*
X434889Y481165D01*
X445735Y481165D01*
X426652Y486589D02*
X421229Y486589D01*
X418517Y483877D01*
X418517Y475742D01*
X426652Y475742D01*
X429364Y478454D01*
X426652Y481165D01*
X418517Y481165D01*
X412992Y475742D02*
X404857Y475742D01*
X402146Y478454D01*
X404857Y481165D01*
X410281Y481165D01*
X412992Y483877D01*
X410281Y486589D01*
X402146Y486589D01*
X396621Y486589D02*
X396621Y478454D01*
X393909Y475742D01*
X385774Y475742D01*
X385774Y486589D01*
X380249Y486589D02*
X380249Y475742D01*
X380249Y481165D02*
X374826Y486589D01*
X372114Y486589D01*
X363895Y475742D02*
X358471Y475742D01*
X363895Y475742D02*
X366606Y478454D01*
X366606Y483877D01*
X363895Y486589D01*
X358471Y486589D01*
X355760Y483877D01*
X355760Y481165D01*
X366606Y481165D01*
X235123Y958819D02*
X229699Y961531D01*
X235123Y958819D02*
X240546Y953396D01*
X240546Y947973D01*
X237834Y945261D01*
X232411Y945261D01*
X229699Y947973D01*
X229699Y950684D01*
X232411Y953396D01*
X240546Y953396D01*
X224174Y947973D02*
X224174Y945261D01*
X224174Y947973D02*
X221463Y947973D01*
X221463Y945261D01*
X224174Y945261D01*
X199617Y950684D02*
X199617Y961531D01*
X199617Y950684D02*
X194194Y945261D01*
X188770Y950684D01*
X188770Y961531D01*
X180534Y945261D02*
X175110Y945261D01*
X172399Y947973D01*
X172399Y953396D01*
X175110Y956108D01*
X180534Y956108D01*
X183245Y953396D01*
X183245Y947973D01*
X180534Y945261D01*
X166874Y961531D02*
X164162Y961531D01*
X164162Y945261D01*
X161451Y945261D02*
X166874Y945261D01*
X153248Y947973D02*
X153248Y958819D01*
X153248Y947973D02*
X150536Y945261D01*
X150536Y956108D02*
X155959Y956108D01*
X142333Y956108D02*
X136910Y956108D01*
X134198Y953396D01*
X134198Y945261D01*
X142333Y945261D01*
X145045Y947973D01*
X142333Y950684D01*
X134198Y950684D01*
X123250Y939838D02*
X120539Y939838D01*
X117827Y942549D01*
X117827Y956108D01*
X125962Y956108D01*
X128674Y953396D01*
X128674Y947973D01*
X125962Y945261D01*
X117827Y945261D01*
X109590Y945261D02*
X104167Y945261D01*
X109590Y945261D02*
X112302Y947973D01*
X112302Y953396D01*
X109590Y956108D01*
X104167Y956108D01*
X101455Y953396D01*
X101455Y950684D01*
X112302Y950684D01*
X194177Y813658D02*
X194177Y800100D01*
X194177Y813658D02*
X191465Y816370D01*
X191465Y808235D02*
X196888Y808235D01*
X183262Y800100D02*
X177839Y800100D01*
X175127Y802812D01*
X175127Y808235D01*
X177839Y810947D01*
X183262Y810947D01*
X185974Y808235D01*
X185974Y802812D01*
X183262Y800100D01*
X169602Y800100D02*
X169602Y810947D01*
X164179Y810947D02*
X169602Y805523D01*
X164179Y810947D02*
X161467Y810947D01*
X184610Y784277D02*
X184610Y776142D01*
X181898Y773430D01*
X173763Y773430D01*
X173763Y784277D01*
X160103Y789700D02*
X157391Y786988D01*
X160103Y789700D02*
X165526Y789700D01*
X168238Y786988D01*
X168238Y776142D01*
X165526Y773430D01*
X160103Y773430D01*
X157391Y776142D01*
X225539Y76254D02*
X222827Y73542D01*
X217404Y73542D01*
X214692Y76254D01*
X214692Y87100D01*
X217404Y89812D01*
X222827Y89812D01*
X225539Y87100D01*
X225539Y84389D01*
X222827Y81677D01*
X214692Y81677D01*
X209167Y76254D02*
X209167Y73542D01*
X209167Y76254D02*
X206455Y76254D01*
X206455Y73542D01*
X209167Y73542D01*
X184610Y73542D02*
X184610Y89812D01*
X179186Y84389D01*
X173763Y89812D01*
X173763Y73542D01*
X168238Y84389D02*
X165526Y84389D01*
X165526Y73542D01*
X162815Y73542D02*
X168238Y73542D01*
X165526Y89812D02*
X165526Y92524D01*
X154612Y84389D02*
X146477Y84389D01*
X154612Y84389D02*
X157324Y81677D01*
X157324Y76254D01*
X154612Y73542D01*
X146477Y73542D01*
X140952Y73542D02*
X140952Y84389D01*
X135529Y84389D02*
X140952Y78965D01*
X135529Y84389D02*
X132817Y84389D01*
X124598Y73542D02*
X119174Y73542D01*
X116463Y76254D01*
X116463Y81677D01*
X119174Y84389D01*
X124598Y84389D01*
X127309Y81677D01*
X127309Y76254D01*
X124598Y73542D01*
X228335Y57719D02*
X236470Y57719D01*
X239182Y55007D01*
X239182Y49584D01*
X236470Y46872D01*
X228335Y46872D01*
X220098Y46872D02*
X214675Y46872D01*
X211963Y49584D01*
X211963Y55007D01*
X214675Y57719D01*
X220098Y57719D01*
X222810Y55007D01*
X222810Y49584D01*
X220098Y46872D01*
X206438Y46872D02*
X206438Y57719D01*
X198304Y57719D01*
X195592Y55007D01*
X195592Y46872D01*
X187355Y49584D02*
X187355Y60430D01*
X187355Y49584D02*
X184644Y46872D01*
X184644Y57719D02*
X190067Y57719D01*
X179153Y57719D02*
X179153Y46872D01*
X179153Y52295D02*
X173729Y57719D01*
X171018Y57719D01*
X162798Y46872D02*
X157375Y46872D01*
X154663Y49584D01*
X154663Y55007D01*
X157375Y57719D01*
X162798Y57719D01*
X165510Y55007D01*
X165510Y49584D01*
X162798Y46872D01*
X149138Y63142D02*
X146426Y63142D01*
X146426Y46872D01*
X143715Y46872D02*
X149138Y46872D01*
X138224Y63142D02*
X135512Y63142D01*
X135512Y46872D01*
X138224Y46872D02*
X132800Y46872D01*
X124598Y46872D02*
X119174Y46872D01*
X124598Y46872D02*
X127309Y49584D01*
X127309Y55007D01*
X124598Y57719D01*
X119174Y57719D01*
X116463Y55007D01*
X116463Y52295D01*
X127309Y52295D01*
X110938Y46872D02*
X110938Y57719D01*
X110938Y52295D02*
X105514Y57719D01*
X102803Y57719D01*
X190101Y20202D02*
X195524Y25625D01*
X195524Y31049D01*
X190101Y36472D01*
X184610Y31049D02*
X184610Y22914D01*
X181898Y20202D01*
X173763Y20202D01*
X173763Y31049D01*
X160103Y36472D02*
X157391Y33760D01*
X160103Y36472D02*
X165526Y36472D01*
X168238Y33760D01*
X168238Y22914D01*
X165526Y20202D01*
X160103Y20202D01*
X157391Y22914D01*
X151867Y20202D02*
X146443Y25625D01*
X146443Y31049D01*
X151867Y36472D01*
X560943Y338342D02*
X566367Y332919D01*
X560943Y338342D02*
X560943Y322072D01*
X555520Y322072D02*
X566367Y322072D01*
X549995Y324784D02*
X549995Y335630D01*
X547284Y338342D01*
X541860Y338342D01*
X539149Y335630D01*
X539149Y324784D01*
X541860Y322072D01*
X547284Y322072D01*
X549995Y324784D01*
X539149Y335630D01*
X533624Y324784D02*
X533624Y322072D01*
X533624Y324784D02*
X530912Y324784D01*
X530912Y322072D01*
X533624Y322072D01*
X500931Y338342D02*
X498220Y335630D01*
X500931Y338342D02*
X506355Y338342D01*
X509066Y335630D01*
X509066Y332919D01*
X506355Y330207D01*
X500931Y330207D01*
X498220Y327495D01*
X498220Y324784D01*
X500931Y322072D01*
X506355Y322072D01*
X509066Y324784D01*
X489983Y332919D02*
X481848Y332919D01*
X489983Y332919D02*
X492695Y330207D01*
X492695Y324784D01*
X489983Y322072D01*
X481848Y322072D01*
X476323Y322072D02*
X476323Y332919D01*
X470900Y332919D02*
X476323Y327495D01*
X470900Y332919D02*
X468188Y332919D01*
X459969Y322072D02*
X454545Y322072D01*
X459969Y322072D02*
X462680Y324784D01*
X462680Y330207D01*
X459969Y332919D01*
X454545Y332919D01*
X451834Y330207D01*
X451834Y327495D01*
X462680Y327495D01*
X443597Y322072D02*
X438174Y322072D01*
X443597Y322072D02*
X446309Y324784D01*
X446309Y330207D01*
X443597Y332919D01*
X438174Y332919D01*
X435462Y330207D01*
X435462Y327495D01*
X446309Y327495D01*
X429937Y322072D02*
X429937Y332919D01*
X421802Y332919D01*
X419090Y330207D01*
X419090Y322072D01*
X420208Y76477D02*
X425631Y71054D01*
X420208Y76477D02*
X420208Y60207D01*
X425631Y60207D02*
X414785Y60207D01*
X409260Y60207D02*
X398413Y60207D01*
X409260Y60207D02*
X398413Y71054D01*
X398413Y73765D01*
X401125Y76477D01*
X406548Y76477D01*
X409260Y73765D01*
X392888Y62919D02*
X392888Y60207D01*
X392888Y62919D02*
X390177Y62919D01*
X390177Y60207D01*
X392888Y60207D01*
X384703Y71054D02*
X379279Y76477D01*
X379279Y60207D01*
X373856Y60207D02*
X384703Y60207D01*
X351959Y62919D02*
X351959Y76477D01*
X351959Y62919D02*
X349248Y60207D01*
X343825Y60207D01*
X341113Y62919D01*
X341113Y76477D01*
X327453Y76477D02*
X324741Y73765D01*
X327453Y76477D02*
X332876Y76477D01*
X335588Y73765D01*
X335588Y71054D01*
X332876Y68342D01*
X327453Y68342D01*
X324741Y65630D01*
X324741Y62919D01*
X327453Y60207D01*
X332876Y60207D01*
X335588Y62919D01*
X319216Y60207D02*
X319216Y76477D01*
X311081Y76477D01*
X308370Y73765D01*
X308370Y71054D01*
X311081Y68342D01*
X308370Y65630D01*
X308370Y62919D01*
X311081Y60207D01*
X319216Y60207D01*
X319216Y68342D02*
X311081Y68342D01*
X416132Y33537D02*
X421556Y33537D01*
X416132Y33537D02*
X413421Y36249D01*
X413421Y41672D01*
X416132Y44384D01*
X421556Y44384D01*
X424267Y41672D01*
X424267Y36249D01*
X421556Y33537D01*
X407896Y36249D02*
X407896Y44384D01*
X407896Y36249D02*
X405184Y33537D01*
X397049Y33537D01*
X397049Y44384D01*
X388812Y47095D02*
X388812Y36249D01*
X386101Y33537D01*
X386101Y44384D02*
X391524Y44384D01*
X380610Y44384D02*
X380610Y28114D01*
X380610Y44384D02*
X372475Y44384D01*
X369763Y41672D01*
X369763Y36249D01*
X372475Y33537D01*
X380610Y33537D01*
X364238Y36249D02*
X364238Y44384D01*
X364238Y36249D02*
X361527Y33537D01*
X353392Y33537D01*
X353392Y44384D01*
X345155Y47095D02*
X345155Y36249D01*
X342443Y33537D01*
X342443Y44384D02*
X347867Y44384D01*
X320581Y44384D02*
X315157Y49807D01*
X315157Y33537D01*
X309734Y33537D02*
X320581Y33537D01*
X670208Y76477D02*
X675631Y71054D01*
X670208Y76477D02*
X670208Y60207D01*
X675631Y60207D02*
X664785Y60207D01*
X659260Y60207D02*
X648413Y60207D01*
X659260Y60207D02*
X648413Y71054D01*
X648413Y73765D01*
X651125Y76477D01*
X656548Y76477D01*
X659260Y73765D01*
X642888Y62919D02*
X642888Y60207D01*
X642888Y62919D02*
X640177Y62919D01*
X640177Y60207D01*
X642888Y60207D01*
X634703Y60207D02*
X623856Y60207D01*
X634703Y60207D02*
X623856Y71054D01*
X623856Y73765D01*
X626568Y76477D01*
X631991Y76477D01*
X634703Y73765D01*
X601959Y76477D02*
X601959Y62919D01*
X599248Y60207D01*
X593825Y60207D01*
X591113Y62919D01*
X591113Y76477D01*
X577453Y76477D02*
X574741Y73765D01*
X577453Y76477D02*
X582876Y76477D01*
X585588Y73765D01*
X585588Y71054D01*
X582876Y68342D01*
X577453Y68342D01*
X574741Y65630D01*
X574741Y62919D01*
X577453Y60207D01*
X582876Y60207D01*
X585588Y62919D01*
X569216Y60207D02*
X569216Y76477D01*
X561081Y76477D01*
X558370Y73765D01*
X558370Y71054D01*
X561081Y68342D01*
X558370Y65630D01*
X558370Y62919D01*
X561081Y60207D01*
X569216Y60207D01*
X569216Y68342D02*
X561081Y68342D01*
X666132Y33537D02*
X671556Y33537D01*
X666132Y33537D02*
X663421Y36249D01*
X663421Y41672D01*
X666132Y44384D01*
X671556Y44384D01*
X674267Y41672D01*
X674267Y36249D01*
X671556Y33537D01*
X657896Y36249D02*
X657896Y44384D01*
X657896Y36249D02*
X655184Y33537D01*
X647049Y33537D01*
X647049Y44384D01*
X638812Y47095D02*
X638812Y36249D01*
X636101Y33537D01*
X636101Y44384D02*
X641524Y44384D01*
X630610Y44384D02*
X630610Y28114D01*
X630610Y44384D02*
X622475Y44384D01*
X619763Y41672D01*
X619763Y36249D01*
X622475Y33537D01*
X630610Y33537D01*
X614238Y36249D02*
X614238Y44384D01*
X614238Y36249D02*
X611527Y33537D01*
X603392Y33537D01*
X603392Y44384D01*
X595155Y47095D02*
X595155Y36249D01*
X592443Y33537D01*
X592443Y44384D02*
X597867Y44384D01*
X570581Y33537D02*
X559734Y33537D01*
X570581Y33537D02*
X559734Y44384D01*
X559734Y47095D01*
X562446Y49807D01*
X567869Y49807D01*
X570581Y47095D01*
X901646Y395911D02*
X896223Y401334D01*
X896223Y385064D01*
X901646Y385064D02*
X890799Y385064D01*
X885274Y395911D02*
X879851Y401334D01*
X879851Y385064D01*
X885274Y385064D02*
X874428Y385064D01*
X868903Y385064D02*
X868903Y387776D01*
X866191Y387776D01*
X866191Y385064D01*
X868903Y385064D01*
X844346Y385064D02*
X844346Y401334D01*
X836211Y401334D01*
X833499Y398622D01*
X833499Y393199D01*
X836211Y390487D01*
X844346Y390487D01*
X825262Y395911D02*
X819839Y395911D01*
X817127Y393199D01*
X817127Y385064D01*
X825262Y385064D01*
X827974Y387776D01*
X825262Y390487D01*
X817127Y390487D01*
X811602Y385064D02*
X803468Y385064D01*
X800756Y387776D01*
X803468Y390487D01*
X808891Y390487D01*
X811602Y393199D01*
X808891Y395911D01*
X800756Y395911D01*
X795231Y385064D02*
X787096Y385064D01*
X784384Y387776D01*
X787096Y390487D01*
X792519Y390487D01*
X795231Y393199D01*
X792519Y395911D01*
X784384Y395911D01*
X778859Y395911D02*
X776148Y395911D01*
X776148Y385064D01*
X778859Y385064D02*
X773436Y385064D01*
X776148Y401334D02*
X776148Y404046D01*
X767945Y395911D02*
X762522Y385064D01*
X757098Y395911D01*
X748862Y385064D02*
X743438Y385064D01*
X748862Y385064D02*
X751573Y387776D01*
X751573Y393199D01*
X748862Y395911D01*
X743438Y395911D01*
X740727Y393199D01*
X740727Y390487D01*
X751573Y390487D01*
X845761Y358394D02*
X851184Y358394D01*
X845761Y358394D02*
X843049Y361106D01*
X843049Y366529D01*
X845761Y369241D01*
X851184Y369241D01*
X853896Y366529D01*
X853896Y361106D01*
X851184Y358394D01*
X837524Y361106D02*
X837524Y369241D01*
X837524Y361106D02*
X834812Y358394D01*
X826677Y358394D01*
X826677Y369241D01*
X818441Y371952D02*
X818441Y361106D01*
X815729Y358394D01*
X815729Y369241D02*
X821152Y369241D01*
X810238Y369241D02*
X810238Y352971D01*
X810238Y369241D02*
X802103Y369241D01*
X799391Y366529D01*
X799391Y361106D01*
X802103Y358394D01*
X810238Y358394D01*
X793867Y361106D02*
X793867Y369241D01*
X793867Y361106D02*
X791155Y358394D01*
X783020Y358394D01*
X783020Y369241D01*
X774783Y371952D02*
X774783Y361106D01*
X772072Y358394D01*
X772072Y369241D02*
X777495Y369241D01*
X882546Y342571D02*
X882546Y326301D01*
X882546Y342571D02*
X874411Y342571D01*
X871699Y339859D01*
X871699Y334436D01*
X874411Y331724D01*
X882546Y331724D01*
X866174Y331724D02*
X866174Y342571D01*
X860751Y342571D02*
X866174Y337147D01*
X860751Y342571D02*
X858039Y342571D01*
X849820Y331724D02*
X844396Y331724D01*
X841685Y334436D01*
X841685Y339859D01*
X844396Y342571D01*
X849820Y342571D01*
X852531Y339859D01*
X852531Y334436D01*
X849820Y331724D01*
X833448Y334436D02*
X833448Y345282D01*
X833448Y334436D02*
X830736Y331724D01*
X830736Y342571D02*
X836160Y342571D01*
X822534Y331724D02*
X817110Y331724D01*
X822534Y331724D02*
X825245Y334436D01*
X825245Y339859D01*
X822534Y342571D01*
X817110Y342571D01*
X814399Y339859D01*
X814399Y337147D01*
X825245Y337147D01*
X806162Y342571D02*
X798027Y342571D01*
X806162Y342571D02*
X808874Y339859D01*
X808874Y334436D01*
X806162Y331724D01*
X798027Y331724D01*
X789791Y334436D02*
X789791Y345282D01*
X789791Y334436D02*
X787079Y331724D01*
X787079Y342571D02*
X792502Y342571D01*
X781588Y342571D02*
X778876Y342571D01*
X778876Y331724D01*
X776165Y331724D02*
X781588Y331724D01*
X778876Y347994D02*
X778876Y350706D01*
X767962Y331724D02*
X762539Y331724D01*
X759827Y334436D01*
X759827Y339859D01*
X762539Y342571D01*
X767962Y342571D01*
X770674Y339859D01*
X770674Y334436D01*
X767962Y331724D01*
X754302Y331724D02*
X754302Y342571D01*
X746167Y342571D01*
X743455Y339859D01*
X743455Y331724D01*
D13*
X714000Y130000D02*
X914000Y130000D01*
X914000Y15000D01*
X714000Y15000D01*
X714000Y130000D01*
D12*
X882546Y1201331D02*
X882546Y1217601D01*
X874411Y1217601D01*
X871699Y1214889D01*
X871699Y1209466D01*
X874411Y1206754D01*
X882546Y1206754D01*
X866174Y1206754D02*
X866174Y1217601D01*
X860751Y1217601D02*
X866174Y1212177D01*
X860751Y1217601D02*
X858039Y1217601D01*
X849820Y1206754D02*
X844396Y1206754D01*
X841685Y1209466D01*
X841685Y1214889D01*
X844396Y1217601D01*
X849820Y1217601D01*
X852531Y1214889D01*
X852531Y1209466D01*
X849820Y1206754D01*
X833448Y1209466D02*
X833448Y1220312D01*
X833448Y1209466D02*
X830736Y1206754D01*
X830736Y1217601D02*
X836160Y1217601D01*
X822534Y1206754D02*
X817110Y1206754D01*
X822534Y1206754D02*
X825245Y1209466D01*
X825245Y1214889D01*
X822534Y1217601D01*
X817110Y1217601D01*
X814399Y1214889D01*
X814399Y1212177D01*
X825245Y1212177D01*
X806162Y1217601D02*
X798027Y1217601D01*
X806162Y1217601D02*
X808874Y1214889D01*
X808874Y1209466D01*
X806162Y1206754D01*
X798027Y1206754D01*
X789791Y1209466D02*
X789791Y1220312D01*
X789791Y1209466D02*
X787079Y1206754D01*
X787079Y1217601D02*
X792502Y1217601D01*
X781588Y1217601D02*
X778876Y1217601D01*
X778876Y1206754D01*
X776165Y1206754D02*
X781588Y1206754D01*
X778876Y1223024D02*
X778876Y1225736D01*
X767962Y1206754D02*
X762539Y1206754D01*
X759827Y1209466D01*
X759827Y1214889D01*
X762539Y1217601D01*
X767962Y1217601D01*
X770674Y1214889D01*
X770674Y1209466D01*
X767962Y1206754D01*
X754302Y1206754D02*
X754302Y1217601D01*
X746167Y1217601D01*
X743455Y1214889D01*
X743455Y1206754D01*
X233724Y884719D02*
X233724Y873872D01*
X233724Y879295D02*
X228301Y884719D01*
X225589Y884719D01*
X217370Y873872D02*
X211946Y873872D01*
X217370Y873872D02*
X220081Y876584D01*
X220081Y882007D01*
X217370Y884719D01*
X211946Y884719D01*
X209235Y882007D01*
X209235Y879295D01*
X220081Y879295D01*
X198287Y868449D02*
X195575Y868449D01*
X192863Y871160D01*
X192863Y884719D01*
X200998Y884719D01*
X203710Y882007D01*
X203710Y876584D01*
X200998Y873872D01*
X192863Y873872D01*
X187338Y876584D02*
X187338Y884719D01*
X187338Y876584D02*
X184627Y873872D01*
X176492Y873872D01*
X176492Y884719D01*
X170967Y890142D02*
X168255Y890142D01*
X168255Y873872D01*
X170967Y873872D02*
X165543Y873872D01*
X157341Y884719D02*
X151917Y884719D01*
X149206Y882007D01*
X149206Y873872D01*
X157341Y873872D01*
X160052Y876584D01*
X157341Y879295D01*
X149206Y879295D01*
X140969Y876584D02*
X140969Y887430D01*
X140969Y876584D02*
X138257Y873872D01*
X138257Y884719D02*
X143681Y884719D01*
X130055Y873872D02*
X124631Y873872D01*
X121920Y876584D01*
X121920Y882007D01*
X124631Y884719D01*
X130055Y884719D01*
X132766Y882007D01*
X132766Y876584D01*
X130055Y873872D01*
X116395Y873872D02*
X116395Y884719D01*
X110972Y884719D02*
X116395Y879295D01*
X110972Y884719D02*
X108260Y884719D01*
M02*
