G75*
%MOIN*%
%OFA0B0*%
%FSLAX25Y25*%
%IPPOS*%
%LPD*%
%AMOC8*
5,1,8,0,0,1.08239X$1,22.5*
%
%ADD10C,0.00591*%
%ADD11C,0.01000*%
%ADD12C,0.00600*%
%ADD13C,0.03200*%
D10*
X0150277Y0241404D02*
X0150277Y0245341D01*
X0150277Y0249278D02*
X0150277Y0253215D01*
X0150277Y0257152D02*
X0150277Y0261089D01*
X0150277Y0265026D02*
X0150277Y0268963D01*
X0150277Y0272900D02*
X0150277Y0276837D01*
X0150277Y0280774D02*
X0150277Y0284711D01*
X0150277Y0288648D02*
X0150277Y0292585D01*
X0150277Y0296522D02*
X0150277Y0300459D01*
X0150277Y0304396D02*
X0150277Y0308333D01*
X0150277Y0312270D02*
X0150277Y0316207D01*
X0150277Y0320144D02*
X0150277Y0324081D01*
X0150277Y0328018D02*
X0150277Y0331955D01*
X0150277Y0335892D02*
X0150277Y0339829D01*
X0150277Y0343766D02*
X0150277Y0347703D01*
X0150277Y0351640D02*
X0150277Y0355577D01*
X0150277Y0359514D02*
X0150277Y0363451D01*
X0150277Y0367388D02*
X0150277Y0371325D01*
X0150277Y0375262D02*
X0150277Y0379199D01*
X0154214Y0379199D01*
X0158151Y0379199D02*
X0162088Y0379199D01*
X0166025Y0379199D02*
X0169962Y0379199D01*
X0173899Y0379199D02*
X0177836Y0379199D01*
X0181773Y0379199D02*
X0185710Y0379199D01*
X0189647Y0379199D02*
X0193584Y0379199D01*
X0197521Y0379199D02*
X0201458Y0379199D01*
X0205395Y0379199D02*
X0209332Y0379199D01*
X0213269Y0379199D02*
X0217206Y0379199D01*
X0221143Y0379199D02*
X0225080Y0379199D01*
X0229017Y0379199D02*
X0232954Y0379199D01*
X0236891Y0379199D02*
X0240828Y0379199D01*
X0244765Y0379199D02*
X0248702Y0379199D01*
X0252639Y0379199D02*
X0256576Y0379199D01*
X0260513Y0379199D02*
X0264450Y0379199D01*
X0268387Y0379199D02*
X0272324Y0379199D01*
X0276261Y0379199D02*
X0280198Y0379199D01*
X0280198Y0375262D01*
X0280198Y0371325D02*
X0280198Y0367388D01*
X0280198Y0363451D02*
X0280198Y0359514D01*
X0280198Y0355577D02*
X0280198Y0351640D01*
X0280198Y0347703D02*
X0280198Y0343766D01*
X0280198Y0339829D02*
X0280198Y0335892D01*
X0280198Y0331955D02*
X0280198Y0328018D01*
X0280198Y0324081D02*
X0280198Y0320144D01*
X0280198Y0316207D02*
X0280198Y0312270D01*
X0280198Y0308333D02*
X0280198Y0304396D01*
X0280198Y0300459D02*
X0280198Y0296522D01*
X0280198Y0292585D02*
X0280198Y0288648D01*
X0280198Y0284711D02*
X0280198Y0280774D01*
X0280198Y0276837D02*
X0280198Y0272900D01*
X0280198Y0268963D02*
X0280198Y0265026D01*
X0280198Y0261089D02*
X0280198Y0257152D01*
X0280198Y0253215D02*
X0280198Y0249278D01*
X0280198Y0245341D02*
X0280198Y0241404D01*
X0276261Y0241404D01*
X0272324Y0241404D02*
X0268387Y0241404D01*
X0264450Y0241404D02*
X0260513Y0241404D01*
X0256576Y0241404D02*
X0252639Y0241404D01*
X0248702Y0241404D02*
X0244765Y0241404D01*
X0240828Y0241404D02*
X0236891Y0241404D01*
X0232954Y0241404D02*
X0229017Y0241404D01*
X0225080Y0241404D02*
X0221143Y0241404D01*
X0217206Y0241404D02*
X0213269Y0241404D01*
X0209332Y0241404D02*
X0205395Y0241404D01*
X0201458Y0241404D02*
X0197521Y0241404D01*
X0193584Y0241404D02*
X0189647Y0241404D01*
X0185710Y0241404D02*
X0181773Y0241404D01*
X0177836Y0241404D02*
X0173899Y0241404D01*
X0169962Y0241404D02*
X0166025Y0241404D01*
X0162088Y0241404D02*
X0158151Y0241404D01*
X0154214Y0241404D02*
X0150277Y0241404D01*
X0132543Y0294554D02*
X0132543Y0458924D01*
X0040041Y0458924D01*
X0040041Y0294554D01*
X0132543Y0294554D01*
X0150277Y0389042D02*
X0154214Y0389042D01*
X0150277Y0389042D02*
X0150277Y0393635D01*
X0150277Y0397572D02*
X0150277Y0402165D01*
X0150277Y0406102D02*
X0150277Y0410695D01*
X0150277Y0414632D02*
X0150277Y0419225D01*
X0150277Y0423162D02*
X0150277Y0427756D01*
X0150277Y0431693D02*
X0150277Y0436286D01*
X0150277Y0440223D02*
X0150277Y0444816D01*
X0150277Y0448753D02*
X0150277Y0453346D01*
X0150277Y0457283D02*
X0150277Y0461876D01*
X0154214Y0461876D01*
X0158151Y0461876D02*
X0162088Y0461876D01*
X0166025Y0461876D02*
X0169962Y0461876D01*
X0173899Y0461876D02*
X0177836Y0461876D01*
X0181773Y0461876D02*
X0185710Y0461876D01*
X0189647Y0461876D02*
X0193584Y0461876D01*
X0197521Y0461876D02*
X0201458Y0461876D01*
X0205395Y0461876D02*
X0209332Y0461876D01*
X0213269Y0461876D02*
X0217206Y0461876D01*
X0221143Y0461876D02*
X0225080Y0461876D01*
X0229017Y0461876D02*
X0232954Y0461876D01*
X0236891Y0461876D02*
X0240828Y0461876D01*
X0244765Y0461876D02*
X0248702Y0461876D01*
X0252639Y0461876D02*
X0256576Y0461876D01*
X0260513Y0461876D02*
X0264450Y0461876D01*
X0268387Y0461876D02*
X0272324Y0461876D01*
X0276261Y0461876D02*
X0280198Y0461876D01*
X0280198Y0457283D01*
X0280198Y0453346D02*
X0280198Y0448753D01*
X0280198Y0444816D02*
X0280198Y0440223D01*
X0280198Y0436286D02*
X0280198Y0431693D01*
X0280198Y0427756D02*
X0280198Y0423162D01*
X0280198Y0419225D02*
X0280198Y0414632D01*
X0280198Y0410695D02*
X0280198Y0406102D01*
X0280198Y0402165D02*
X0280198Y0397572D01*
X0280198Y0393635D02*
X0280198Y0389042D01*
X0276261Y0389042D01*
X0272324Y0389042D02*
X0268387Y0389042D01*
X0264450Y0389042D02*
X0260513Y0389042D01*
X0256576Y0389042D02*
X0252639Y0389042D01*
X0248702Y0389042D02*
X0244765Y0389042D01*
X0240828Y0389042D02*
X0236891Y0389042D01*
X0232954Y0389042D02*
X0229017Y0389042D01*
X0225080Y0389042D02*
X0221143Y0389042D01*
X0217206Y0389042D02*
X0213269Y0389042D01*
X0209332Y0389042D02*
X0205395Y0389042D01*
X0201458Y0389042D02*
X0197521Y0389042D01*
X0193584Y0389042D02*
X0189647Y0389042D01*
X0185710Y0389042D02*
X0181773Y0389042D01*
X0177836Y0389042D02*
X0173899Y0389042D01*
X0169962Y0389042D02*
X0166025Y0389042D01*
X0162088Y0389042D02*
X0158151Y0389042D01*
X0139450Y0495341D02*
X0127508Y0495341D01*
X0124821Y0495341D02*
X0124290Y0495341D01*
X0121603Y0495341D02*
X0109660Y0495341D01*
X0106973Y0495341D02*
X0106442Y0495341D01*
X0103755Y0495341D02*
X0091813Y0495341D01*
X0089126Y0495341D02*
X0088594Y0495341D01*
X0085907Y0495341D02*
X0073965Y0495341D01*
X0071278Y0495341D02*
X0070746Y0495341D01*
X0068059Y0495341D02*
X0056117Y0495341D01*
X0053430Y0495341D02*
X0052899Y0495341D01*
X0050212Y0495341D02*
X0038269Y0495341D01*
X0038269Y0506089D01*
X0038269Y0508776D02*
X0038269Y0509307D01*
X0038269Y0511994D02*
X0038269Y0522743D01*
X0038269Y0525430D02*
X0038269Y0525961D01*
X0038269Y0528648D02*
X0038269Y0539396D01*
X0038269Y0542083D02*
X0038269Y0542615D01*
X0038269Y0545302D02*
X0038269Y0556050D01*
X0038269Y0558737D02*
X0038269Y0559268D01*
X0038269Y0561955D02*
X0038269Y0572703D01*
X0038269Y0575390D02*
X0038269Y0575922D01*
X0038269Y0578609D02*
X0038269Y0589357D01*
X0038269Y0592044D02*
X0038269Y0592575D01*
X0038269Y0595262D02*
X0038269Y0606010D01*
X0050212Y0606010D01*
X0052899Y0606010D02*
X0053430Y0606010D01*
X0056117Y0606010D02*
X0068059Y0606010D01*
X0070746Y0606010D02*
X0071278Y0606010D01*
X0073965Y0606010D02*
X0085907Y0606010D01*
X0088594Y0606010D02*
X0089126Y0606010D01*
X0091813Y0606010D02*
X0103755Y0606010D01*
X0106442Y0606010D02*
X0106973Y0606010D01*
X0109660Y0606010D02*
X0121603Y0606010D01*
X0124290Y0606010D02*
X0124821Y0606010D01*
X0127508Y0606010D02*
X0139450Y0606010D01*
X0139450Y0595262D01*
X0139450Y0592575D02*
X0139450Y0592044D01*
X0139450Y0589357D02*
X0139450Y0578609D01*
X0139450Y0575922D02*
X0139450Y0575390D01*
X0139450Y0572703D02*
X0139450Y0561955D01*
X0139450Y0559268D02*
X0139450Y0558737D01*
X0139450Y0556050D02*
X0139450Y0545302D01*
X0139450Y0542615D02*
X0139450Y0542083D01*
X0139450Y0539396D02*
X0139450Y0528648D01*
X0139450Y0525961D02*
X0139450Y0525430D01*
X0139450Y0522743D02*
X0139450Y0511994D01*
X0139450Y0509307D02*
X0139450Y0508776D01*
X0139450Y0506089D02*
X0139450Y0495341D01*
X0291025Y0495341D02*
X0302967Y0495341D01*
X0305654Y0495341D02*
X0306186Y0495341D01*
X0308873Y0495341D02*
X0320815Y0495341D01*
X0323502Y0495341D02*
X0324034Y0495341D01*
X0326721Y0495341D02*
X0338663Y0495341D01*
X0341350Y0495341D02*
X0341881Y0495341D01*
X0344569Y0495341D02*
X0356511Y0495341D01*
X0359198Y0495341D02*
X0359729Y0495341D01*
X0362416Y0495341D02*
X0374359Y0495341D01*
X0377046Y0495341D02*
X0377577Y0495341D01*
X0380264Y0495341D02*
X0392206Y0495341D01*
X0392206Y0506089D01*
X0392206Y0508776D02*
X0392206Y0509307D01*
X0392206Y0511994D02*
X0392206Y0522743D01*
X0392206Y0525430D02*
X0392206Y0525961D01*
X0392206Y0528648D02*
X0392206Y0539396D01*
X0392206Y0542083D02*
X0392206Y0542615D01*
X0392206Y0545302D02*
X0392206Y0556050D01*
X0392206Y0558737D02*
X0392206Y0559268D01*
X0392206Y0561955D02*
X0392206Y0572703D01*
X0392206Y0575390D02*
X0392206Y0575922D01*
X0392206Y0578609D02*
X0392206Y0589357D01*
X0392206Y0592044D02*
X0392206Y0592575D01*
X0392206Y0595262D02*
X0392206Y0606010D01*
X0380264Y0606010D01*
X0377577Y0606010D02*
X0377046Y0606010D01*
X0374359Y0606010D02*
X0362416Y0606010D01*
X0359729Y0606010D02*
X0359198Y0606010D01*
X0356511Y0606010D02*
X0344569Y0606010D01*
X0341881Y0606010D02*
X0341350Y0606010D01*
X0338663Y0606010D02*
X0326721Y0606010D01*
X0324034Y0606010D02*
X0323502Y0606010D01*
X0320815Y0606010D02*
X0308873Y0606010D01*
X0306186Y0606010D02*
X0305654Y0606010D01*
X0302967Y0606010D02*
X0291025Y0606010D01*
X0291025Y0595262D01*
X0291025Y0592575D02*
X0291025Y0592044D01*
X0291025Y0589357D02*
X0291025Y0578609D01*
X0291025Y0575922D02*
X0291025Y0575390D01*
X0291025Y0572703D02*
X0291025Y0561955D01*
X0291025Y0559268D02*
X0291025Y0558737D01*
X0291025Y0556050D02*
X0291025Y0545302D01*
X0291025Y0542615D02*
X0291025Y0542083D01*
X0291025Y0539396D02*
X0291025Y0528648D01*
X0291025Y0525961D02*
X0291025Y0525430D01*
X0291025Y0522743D02*
X0291025Y0511994D01*
X0291025Y0509307D02*
X0291025Y0508776D01*
X0291025Y0506089D02*
X0291025Y0495341D01*
X0291025Y0259120D02*
X0302967Y0259120D01*
X0305654Y0259120D02*
X0306186Y0259120D01*
X0308873Y0259120D02*
X0320815Y0259120D01*
X0323502Y0259120D02*
X0324034Y0259120D01*
X0326721Y0259120D02*
X0338663Y0259120D01*
X0341350Y0259120D02*
X0341881Y0259120D01*
X0344569Y0259120D02*
X0356511Y0259120D01*
X0359198Y0259120D02*
X0359729Y0259120D01*
X0362416Y0259120D02*
X0374359Y0259120D01*
X0377046Y0259120D02*
X0377577Y0259120D01*
X0380264Y0259120D02*
X0392206Y0259120D01*
X0392206Y0249059D01*
X0392206Y0246372D02*
X0392206Y0245841D01*
X0392206Y0243154D02*
X0392206Y0233092D01*
X0392206Y0230405D02*
X0392206Y0229874D01*
X0392206Y0227187D02*
X0392206Y0217126D01*
X0392206Y0214439D02*
X0392206Y0213907D01*
X0392206Y0211220D02*
X0392206Y0201159D01*
X0392206Y0198472D02*
X0392206Y0197940D01*
X0392206Y0195253D02*
X0392206Y0185192D01*
X0392206Y0182505D02*
X0392206Y0181974D01*
X0392206Y0179287D02*
X0392206Y0169225D01*
X0392206Y0166538D02*
X0392206Y0166007D01*
X0392206Y0163320D02*
X0392206Y0153259D01*
X0392206Y0150572D02*
X0392206Y0150040D01*
X0392206Y0147353D02*
X0392206Y0137292D01*
X0392206Y0134605D02*
X0392206Y0134073D01*
X0392206Y0131386D02*
X0392206Y0121325D01*
X0380264Y0121325D01*
X0377577Y0121325D02*
X0377046Y0121325D01*
X0374359Y0121325D02*
X0362416Y0121325D01*
X0359729Y0121325D02*
X0359198Y0121325D01*
X0356511Y0121325D02*
X0344569Y0121325D01*
X0341881Y0121325D02*
X0341350Y0121325D01*
X0338663Y0121325D02*
X0326721Y0121325D01*
X0324034Y0121325D02*
X0323502Y0121325D01*
X0320815Y0121325D02*
X0308873Y0121325D01*
X0306186Y0121325D02*
X0305654Y0121325D01*
X0302967Y0121325D02*
X0291025Y0121325D01*
X0291025Y0131386D01*
X0291025Y0134073D02*
X0291025Y0134605D01*
X0291025Y0137292D02*
X0291025Y0147353D01*
X0291025Y0150040D02*
X0291025Y0150572D01*
X0291025Y0153259D02*
X0291025Y0163320D01*
X0291025Y0166007D02*
X0291025Y0166538D01*
X0291025Y0169225D02*
X0291025Y0179287D01*
X0291025Y0181974D02*
X0291025Y0182505D01*
X0291025Y0185192D02*
X0291025Y0195253D01*
X0291025Y0197940D02*
X0291025Y0198472D01*
X0291025Y0201159D02*
X0291025Y0211220D01*
X0291025Y0213907D02*
X0291025Y0214439D01*
X0291025Y0217126D02*
X0291025Y0227187D01*
X0291025Y0229874D02*
X0291025Y0230405D01*
X0291025Y0233092D02*
X0291025Y0243154D01*
X0291025Y0245841D02*
X0291025Y0246372D01*
X0291025Y0249059D02*
X0291025Y0259120D01*
D11*
X0053924Y0109248D02*
X0053924Y0097533D01*
X0073187Y0097533D01*
X0079093Y0097533D02*
X0098356Y0097533D01*
X0104261Y0097533D02*
X0123524Y0097533D01*
X0123524Y0109248D01*
X0123524Y0115154D02*
X0123524Y0126869D01*
X0123524Y0132774D02*
X0123524Y0144489D01*
X0123524Y0150395D02*
X0123524Y0162110D01*
X0123524Y0168015D02*
X0123524Y0179730D01*
X0128624Y0179104D02*
X0128624Y0175167D01*
X0148702Y0175167D01*
X0148702Y0171230D01*
X0156576Y0177135D01*
X0148702Y0183041D01*
X0148702Y0179104D01*
X0128624Y0179104D01*
X0128624Y0178333D02*
X0154979Y0178333D01*
X0152324Y0180324D02*
X0152324Y0173947D01*
X0151506Y0173333D02*
X0148702Y0173333D01*
X0147324Y0175167D02*
X0147324Y0179104D01*
X0142324Y0179104D02*
X0142324Y0175167D01*
X0137324Y0175167D02*
X0137324Y0179104D01*
X0132324Y0179104D02*
X0132324Y0175167D01*
X0123524Y0185636D02*
X0123524Y0197351D01*
X0123524Y0203256D02*
X0123524Y0214971D01*
X0123524Y0220877D02*
X0123524Y0232592D01*
X0126655Y0233530D02*
X0134529Y0239435D01*
X0134529Y0235498D01*
X0138466Y0235498D01*
X0138466Y0231561D01*
X0138466Y0247309D01*
X0148309Y0247309D01*
X0148309Y0243372D01*
X0142403Y0243372D01*
X0142403Y0231561D01*
X0138466Y0231561D01*
X0134529Y0231561D01*
X0134529Y0227624D01*
X0126655Y0233530D01*
X0126918Y0233333D02*
X0138466Y0233333D01*
X0142403Y0233333D01*
X0142324Y0231561D02*
X0142324Y0247309D01*
X0142403Y0243333D02*
X0138466Y0243333D01*
X0138466Y0238333D02*
X0142403Y0238333D01*
X0147324Y0243372D02*
X0147324Y0247309D01*
X0142403Y0255183D02*
X0142403Y0428412D01*
X0138466Y0428412D01*
X0138466Y0432349D01*
X0148309Y0432349D01*
X0148309Y0428412D01*
X0138466Y0428412D01*
X0138466Y0255183D01*
X0142403Y0255183D01*
X0142324Y0255183D02*
X0142324Y0428412D01*
X0142324Y0432349D01*
X0142403Y0428333D02*
X0138466Y0428333D01*
X0138466Y0423333D02*
X0142403Y0423333D01*
X0142403Y0418333D02*
X0138466Y0418333D01*
X0138466Y0413333D02*
X0142403Y0413333D01*
X0142403Y0408333D02*
X0138466Y0408333D01*
X0138466Y0403333D02*
X0142403Y0403333D01*
X0142403Y0398333D02*
X0138466Y0398333D01*
X0138466Y0393333D02*
X0142403Y0393333D01*
X0142403Y0388333D02*
X0138466Y0388333D01*
X0138466Y0383333D02*
X0142403Y0383333D01*
X0142403Y0378333D02*
X0138466Y0378333D01*
X0138466Y0373333D02*
X0142403Y0373333D01*
X0142403Y0368333D02*
X0138466Y0368333D01*
X0138466Y0363333D02*
X0142403Y0363333D01*
X0142403Y0358333D02*
X0138466Y0358333D01*
X0138466Y0353333D02*
X0142403Y0353333D01*
X0142403Y0348333D02*
X0138466Y0348333D01*
X0138466Y0343333D02*
X0142403Y0343333D01*
X0142403Y0338333D02*
X0138466Y0338333D01*
X0138466Y0333333D02*
X0142403Y0333333D01*
X0142403Y0328333D02*
X0138466Y0328333D01*
X0138466Y0323333D02*
X0142403Y0323333D01*
X0142403Y0318333D02*
X0138466Y0318333D01*
X0138466Y0313333D02*
X0142403Y0313333D01*
X0142403Y0308333D02*
X0138466Y0308333D01*
X0138466Y0303333D02*
X0142403Y0303333D01*
X0142403Y0298333D02*
X0138466Y0298333D01*
X0138466Y0293333D02*
X0142403Y0293333D01*
X0142403Y0288333D02*
X0138466Y0288333D01*
X0138466Y0283333D02*
X0142403Y0283333D01*
X0142403Y0278333D02*
X0138466Y0278333D01*
X0138466Y0273333D02*
X0142403Y0273333D01*
X0142403Y0268333D02*
X0138466Y0268333D01*
X0138466Y0263333D02*
X0142403Y0263333D01*
X0142403Y0258333D02*
X0138466Y0258333D01*
X0128230Y0258333D01*
X0127324Y0257654D02*
X0127324Y0256650D01*
X0126655Y0257152D02*
X0134529Y0263057D01*
X0134529Y0259120D01*
X0138466Y0259120D01*
X0138466Y0255183D01*
X0134529Y0255183D01*
X0134529Y0251246D01*
X0126655Y0257152D01*
X0123524Y0256118D02*
X0123524Y0267833D01*
X0104261Y0267833D01*
X0098356Y0267833D02*
X0079093Y0267833D01*
X0073187Y0267833D02*
X0053924Y0267833D01*
X0053924Y0256118D01*
X0053924Y0250213D02*
X0053924Y0238497D01*
X0053924Y0232592D02*
X0053924Y0220877D01*
X0053924Y0214971D02*
X0053924Y0203256D01*
X0053924Y0197351D02*
X0053924Y0185636D01*
X0053924Y0179730D02*
X0053924Y0168015D01*
X0053924Y0162110D02*
X0053924Y0150395D01*
X0053924Y0144489D02*
X0053924Y0132774D01*
X0053924Y0126869D02*
X0053924Y0115154D01*
X0127324Y0233028D02*
X0127324Y0234032D01*
X0123524Y0238497D02*
X0123524Y0250213D01*
X0131747Y0253333D02*
X0134529Y0253333D01*
X0132324Y0252900D02*
X0132324Y0261404D01*
X0137324Y0259120D02*
X0137324Y0255183D01*
X0134529Y0238333D02*
X0133059Y0238333D01*
X0132324Y0237782D02*
X0132324Y0229278D01*
X0133584Y0228333D02*
X0134529Y0228333D01*
X0137324Y0231561D02*
X0137324Y0235498D01*
X0160474Y0228963D02*
X0160474Y0148884D01*
X0266773Y0148884D01*
X0266773Y0228963D01*
X0160474Y0228963D01*
X0164450Y0141010D02*
X0164450Y0137073D01*
X0164450Y0129199D01*
X0160513Y0129199D01*
X0166419Y0121325D01*
X0172324Y0129199D01*
X0168387Y0129199D01*
X0168387Y0137073D01*
X0164450Y0137073D01*
X0288072Y0137073D01*
X0288072Y0141010D01*
X0164450Y0141010D01*
X0164450Y0140211D02*
X0288072Y0140211D01*
X0288072Y0139212D02*
X0164450Y0139212D01*
X0164450Y0138214D02*
X0288072Y0138214D01*
X0288072Y0137215D02*
X0164450Y0137215D01*
X0164450Y0136217D02*
X0168387Y0136217D01*
X0168387Y0135218D02*
X0164450Y0135218D01*
X0164450Y0134220D02*
X0168387Y0134220D01*
X0168387Y0133221D02*
X0164450Y0133221D01*
X0164450Y0132223D02*
X0168387Y0132223D01*
X0168387Y0131224D02*
X0164450Y0131224D01*
X0164450Y0130226D02*
X0168387Y0130226D01*
X0168387Y0129227D02*
X0164450Y0129227D01*
X0161990Y0127230D02*
X0170848Y0127230D01*
X0170099Y0126232D02*
X0162739Y0126232D01*
X0163488Y0125233D02*
X0169350Y0125233D01*
X0168601Y0124235D02*
X0164237Y0124235D01*
X0164986Y0123236D02*
X0167852Y0123236D01*
X0167103Y0122238D02*
X0165734Y0122238D01*
X0161241Y0128229D02*
X0171597Y0128229D01*
X0195024Y0115733D02*
X0195024Y0059233D01*
X0137524Y0059233D01*
X0137524Y0115833D01*
X0137524Y0115733D02*
X0195024Y0115733D01*
X0235224Y0115333D02*
X0235224Y0060233D01*
X0293924Y0060233D01*
X0293924Y0115333D01*
X0235224Y0115333D01*
X0258939Y0129199D02*
X0264844Y0121325D01*
X0270750Y0129199D01*
X0266813Y0129199D01*
X0266813Y0137073D01*
X0262876Y0137073D01*
X0262876Y0129199D01*
X0258939Y0129199D01*
X0259666Y0128229D02*
X0270022Y0128229D01*
X0269273Y0127230D02*
X0260415Y0127230D01*
X0261164Y0126232D02*
X0268524Y0126232D01*
X0267775Y0125233D02*
X0261913Y0125233D01*
X0262662Y0124235D02*
X0267026Y0124235D01*
X0266277Y0123236D02*
X0263411Y0123236D01*
X0264160Y0122238D02*
X0265529Y0122238D01*
X0266813Y0129227D02*
X0262876Y0129227D01*
X0262876Y0130226D02*
X0266813Y0130226D01*
X0266813Y0131224D02*
X0262876Y0131224D01*
X0262876Y0132223D02*
X0266813Y0132223D01*
X0266813Y0133221D02*
X0262876Y0133221D01*
X0262876Y0134220D02*
X0266813Y0134220D01*
X0266813Y0135218D02*
X0262876Y0135218D01*
X0262876Y0136217D02*
X0266813Y0136217D01*
X0341616Y0261089D02*
X0335710Y0268963D01*
X0339647Y0268963D01*
X0339647Y0284711D01*
X0343584Y0284711D01*
X0343584Y0268963D01*
X0347521Y0268963D01*
X0341616Y0261089D01*
X0340910Y0262029D02*
X0342321Y0262029D01*
X0343070Y0263028D02*
X0340162Y0263028D01*
X0339413Y0264026D02*
X0343819Y0264026D01*
X0344568Y0265025D02*
X0338664Y0265025D01*
X0337915Y0266023D02*
X0345317Y0266023D01*
X0346065Y0267022D02*
X0337166Y0267022D01*
X0336417Y0268020D02*
X0346814Y0268020D01*
X0343584Y0269019D02*
X0339647Y0269019D01*
X0339647Y0270017D02*
X0343584Y0270017D01*
X0343584Y0271016D02*
X0339647Y0271016D01*
X0339647Y0272014D02*
X0343584Y0272014D01*
X0343584Y0273013D02*
X0339647Y0273013D01*
X0339647Y0274012D02*
X0343584Y0274012D01*
X0343584Y0274869D02*
X0297915Y0274869D01*
X0297915Y0278806D01*
X0343584Y0278806D01*
X0343584Y0274869D01*
X0343584Y0275010D02*
X0297915Y0275010D01*
X0284603Y0275010D01*
X0285934Y0274012D02*
X0290041Y0274012D01*
X0290041Y0274869D02*
X0297915Y0274869D01*
X0297915Y0278806D01*
X0290041Y0278806D01*
X0290041Y0282743D01*
X0282167Y0276837D01*
X0290041Y0270931D01*
X0290041Y0274869D01*
X0290041Y0273013D02*
X0287266Y0273013D01*
X0288597Y0272014D02*
X0290041Y0272014D01*
X0290041Y0271016D02*
X0289928Y0271016D01*
X0290041Y0279004D02*
X0285056Y0279004D01*
X0283725Y0278006D02*
X0297915Y0278006D01*
X0343584Y0278006D01*
X0339647Y0278006D01*
X0339647Y0279004D02*
X0343584Y0279004D01*
X0343584Y0280003D02*
X0339647Y0280003D01*
X0339647Y0281001D02*
X0343584Y0281001D01*
X0343584Y0282000D02*
X0339647Y0282000D01*
X0339647Y0282998D02*
X0343584Y0282998D01*
X0343584Y0283997D02*
X0339647Y0283997D01*
X0339647Y0277007D02*
X0343584Y0277007D01*
X0297915Y0277007D01*
X0282394Y0277007D01*
X0283272Y0276009D02*
X0297915Y0276009D01*
X0343584Y0276009D01*
X0339647Y0276009D01*
X0339647Y0275010D02*
X0343584Y0275010D01*
X0382524Y0288233D02*
X0382524Y0458033D01*
X0300524Y0458033D01*
X0300524Y0288233D01*
X0382524Y0288233D01*
X0290041Y0282000D02*
X0289050Y0282000D01*
X0290041Y0281001D02*
X0287719Y0281001D01*
X0286388Y0280003D02*
X0290041Y0280003D01*
X0362482Y0103609D02*
X0362482Y0099672D01*
X0354608Y0099672D01*
X0354608Y0095735D01*
X0362482Y0095735D01*
X0362482Y0091798D01*
X0370356Y0097703D01*
X0362482Y0103609D01*
X0362482Y0103266D02*
X0362939Y0103266D01*
X0362482Y0102268D02*
X0364270Y0102268D01*
X0365601Y0101269D02*
X0362482Y0101269D01*
X0362482Y0100271D02*
X0366933Y0100271D01*
X0368264Y0099272D02*
X0354608Y0099272D01*
X0354608Y0098274D02*
X0369595Y0098274D01*
X0369785Y0097275D02*
X0354608Y0097275D01*
X0354608Y0096277D02*
X0368454Y0096277D01*
X0367122Y0095278D02*
X0362482Y0095278D01*
X0362482Y0094279D02*
X0365791Y0094279D01*
X0364460Y0093281D02*
X0362482Y0093281D01*
X0362482Y0092282D02*
X0363128Y0092282D01*
X0362482Y0081955D02*
X0362482Y0078018D01*
X0354608Y0078018D01*
X0354608Y0074081D01*
X0362482Y0074081D01*
X0362482Y0070144D01*
X0370356Y0076050D01*
X0362482Y0081955D01*
X0362482Y0078333D02*
X0367311Y0078333D01*
X0367324Y0078323D02*
X0367324Y0073776D01*
X0366734Y0073333D02*
X0362482Y0073333D01*
X0362324Y0074081D02*
X0362324Y0078018D01*
X0357324Y0078018D02*
X0357324Y0074081D01*
X0147324Y0428412D02*
X0147324Y0432349D01*
X0092560Y0472715D02*
X0085160Y0472715D01*
X0085909Y0471717D02*
X0091811Y0471717D01*
X0091062Y0470718D02*
X0086658Y0470718D01*
X0087406Y0469720D02*
X0090313Y0469720D01*
X0089564Y0468721D02*
X0088155Y0468721D01*
X0088860Y0467782D02*
X0082954Y0475656D01*
X0086891Y0475656D01*
X0086891Y0483530D01*
X0086891Y0487467D01*
X0343584Y0487467D01*
X0343584Y0483530D01*
X0086891Y0483530D01*
X0090828Y0483530D01*
X0090828Y0475656D01*
X0094765Y0475656D01*
X0088860Y0467782D01*
X0084411Y0473714D02*
X0093309Y0473714D01*
X0094058Y0474712D02*
X0083662Y0474712D01*
X0086891Y0475711D02*
X0090828Y0475711D01*
X0090828Y0476709D02*
X0086891Y0476709D01*
X0086891Y0477708D02*
X0090828Y0477708D01*
X0090828Y0478706D02*
X0086891Y0478706D01*
X0086891Y0479705D02*
X0090828Y0479705D01*
X0090828Y0480703D02*
X0086891Y0480703D01*
X0086891Y0481702D02*
X0090828Y0481702D01*
X0090828Y0482700D02*
X0086891Y0482700D01*
X0086891Y0483699D02*
X0343584Y0483699D01*
X0343584Y0483530D02*
X0339647Y0483530D01*
X0339647Y0475656D01*
X0335710Y0475656D01*
X0341616Y0467782D01*
X0347521Y0475656D01*
X0343584Y0475656D01*
X0343584Y0483530D01*
X0343584Y0482700D02*
X0339647Y0482700D01*
X0339647Y0481702D02*
X0343584Y0481702D01*
X0343584Y0480703D02*
X0339647Y0480703D01*
X0339647Y0479705D02*
X0343584Y0479705D01*
X0343584Y0478706D02*
X0339647Y0478706D01*
X0339647Y0477708D02*
X0343584Y0477708D01*
X0343584Y0476709D02*
X0339647Y0476709D01*
X0339647Y0475711D02*
X0343584Y0475711D01*
X0346065Y0473714D02*
X0337167Y0473714D01*
X0336418Y0474712D02*
X0346814Y0474712D01*
X0345316Y0472715D02*
X0337916Y0472715D01*
X0338665Y0471717D02*
X0344567Y0471717D01*
X0343818Y0470718D02*
X0339413Y0470718D01*
X0340162Y0469720D02*
X0343069Y0469720D01*
X0342320Y0468721D02*
X0340911Y0468721D01*
X0343584Y0484697D02*
X0086891Y0484697D01*
X0086891Y0485696D02*
X0343584Y0485696D01*
X0343584Y0486694D02*
X0086891Y0486694D01*
X0144609Y0540178D02*
X0277302Y0540178D01*
X0277302Y0536241D01*
X0285176Y0542146D01*
X0277302Y0548052D01*
X0277302Y0544115D01*
X0144609Y0544115D01*
X0144609Y0540178D01*
X0144609Y0540614D02*
X0283132Y0540614D01*
X0281801Y0539616D02*
X0277302Y0539616D01*
X0277302Y0538617D02*
X0280470Y0538617D01*
X0279138Y0537619D02*
X0277302Y0537619D01*
X0277302Y0536620D02*
X0277807Y0536620D01*
X0277302Y0544608D02*
X0281893Y0544608D01*
X0280562Y0545607D02*
X0277302Y0545607D01*
X0277302Y0546605D02*
X0279231Y0546605D01*
X0277899Y0547604D02*
X0277302Y0547604D01*
X0283225Y0543610D02*
X0144609Y0543610D01*
X0144609Y0542611D02*
X0284556Y0542611D01*
X0284464Y0541613D02*
X0144609Y0541613D01*
X0154214Y0572113D02*
X0154214Y0576050D01*
X0162088Y0576050D01*
X0162088Y0579987D01*
X0154214Y0579987D01*
X0154214Y0583924D01*
X0146340Y0578018D01*
X0154214Y0572113D01*
X0154214Y0572566D02*
X0153609Y0572566D01*
X0154214Y0573565D02*
X0152278Y0573565D01*
X0150946Y0574563D02*
X0154214Y0574563D01*
X0154214Y0575562D02*
X0149615Y0575562D01*
X0148284Y0576560D02*
X0162088Y0576560D01*
X0162088Y0577559D02*
X0146952Y0577559D01*
X0147059Y0578557D02*
X0162088Y0578557D01*
X0162088Y0579556D02*
X0148391Y0579556D01*
X0149722Y0580554D02*
X0154214Y0580554D01*
X0154214Y0581553D02*
X0151053Y0581553D01*
X0152385Y0582552D02*
X0154214Y0582552D01*
X0154214Y0583550D02*
X0153716Y0583550D01*
X0167994Y0589829D02*
X0167994Y0566207D01*
X0262482Y0566207D01*
X0262482Y0589829D01*
X0167994Y0589829D01*
X0209332Y0605577D02*
X0215238Y0597703D01*
X0221143Y0605577D01*
X0217206Y0605577D01*
X0217206Y0613451D01*
X0213269Y0613451D01*
X0213269Y0605577D01*
X0209332Y0605577D01*
X0209377Y0605517D02*
X0221098Y0605517D01*
X0220349Y0604519D02*
X0210126Y0604519D01*
X0210875Y0603520D02*
X0219601Y0603520D01*
X0218852Y0602522D02*
X0211624Y0602522D01*
X0212373Y0601523D02*
X0218103Y0601523D01*
X0217354Y0600525D02*
X0213122Y0600525D01*
X0213870Y0599526D02*
X0216605Y0599526D01*
X0215856Y0598528D02*
X0214619Y0598528D01*
X0213269Y0606516D02*
X0217206Y0606516D01*
X0217206Y0607514D02*
X0213269Y0607514D01*
X0213269Y0608513D02*
X0217206Y0608513D01*
X0217206Y0609511D02*
X0213269Y0609511D01*
X0213269Y0610510D02*
X0217206Y0610510D01*
X0217206Y0611508D02*
X0213269Y0611508D01*
X0213269Y0612507D02*
X0217206Y0612507D01*
X0213269Y0511089D02*
X0213269Y0507152D01*
X0286104Y0507152D01*
X0286104Y0511089D01*
X0213269Y0511089D01*
X0213269Y0510659D02*
X0286104Y0510659D01*
X0286104Y0509660D02*
X0213269Y0509660D01*
X0213269Y0508662D02*
X0286104Y0508662D01*
X0286104Y0507663D02*
X0213269Y0507663D01*
X0213269Y0507152D02*
X0213269Y0475656D01*
X0209332Y0475656D01*
X0215238Y0467782D01*
X0221143Y0475656D01*
X0217206Y0475656D01*
X0217206Y0507152D01*
X0213269Y0507152D01*
X0213269Y0506665D02*
X0217206Y0506665D01*
X0217206Y0505666D02*
X0213269Y0505666D01*
X0213269Y0504668D02*
X0217206Y0504668D01*
X0217206Y0503669D02*
X0213269Y0503669D01*
X0213269Y0502671D02*
X0217206Y0502671D01*
X0217206Y0501672D02*
X0213269Y0501672D01*
X0213269Y0500674D02*
X0217206Y0500674D01*
X0217206Y0499675D02*
X0213269Y0499675D01*
X0213269Y0498677D02*
X0217206Y0498677D01*
X0217206Y0497678D02*
X0213269Y0497678D01*
X0213269Y0496680D02*
X0217206Y0496680D01*
X0217206Y0495681D02*
X0213269Y0495681D01*
X0213269Y0494683D02*
X0217206Y0494683D01*
X0217206Y0493684D02*
X0213269Y0493684D01*
X0213269Y0492685D02*
X0217206Y0492685D01*
X0217206Y0491687D02*
X0213269Y0491687D01*
X0213269Y0490688D02*
X0217206Y0490688D01*
X0217206Y0489690D02*
X0213269Y0489690D01*
X0213269Y0488691D02*
X0217206Y0488691D01*
X0217206Y0487693D02*
X0213269Y0487693D01*
X0213269Y0486694D02*
X0217206Y0486694D01*
X0217206Y0485696D02*
X0213269Y0485696D01*
X0213269Y0484697D02*
X0217206Y0484697D01*
X0217206Y0483699D02*
X0213269Y0483699D01*
X0213269Y0482700D02*
X0217206Y0482700D01*
X0217206Y0481702D02*
X0213269Y0481702D01*
X0213269Y0480703D02*
X0217206Y0480703D01*
X0217206Y0479705D02*
X0213269Y0479705D01*
X0213269Y0478706D02*
X0217206Y0478706D01*
X0217206Y0477708D02*
X0213269Y0477708D01*
X0213269Y0476709D02*
X0217206Y0476709D01*
X0217206Y0475711D02*
X0213269Y0475711D01*
X0210789Y0473714D02*
X0219687Y0473714D01*
X0220436Y0474712D02*
X0210040Y0474712D01*
X0211538Y0472715D02*
X0218938Y0472715D01*
X0218189Y0471717D02*
X0212287Y0471717D01*
X0213036Y0470718D02*
X0217440Y0470718D01*
X0216691Y0469720D02*
X0213784Y0469720D01*
X0214533Y0468721D02*
X0215942Y0468721D01*
X0094765Y0282743D02*
X0090828Y0282743D01*
X0090828Y0290617D01*
X0086891Y0290617D01*
X0086891Y0282743D01*
X0082954Y0282743D01*
X0088860Y0274869D01*
X0094765Y0282743D01*
X0094208Y0282000D02*
X0083512Y0282000D01*
X0084260Y0281001D02*
X0093459Y0281001D01*
X0092710Y0280003D02*
X0085009Y0280003D01*
X0085758Y0279004D02*
X0091962Y0279004D01*
X0091213Y0278006D02*
X0086507Y0278006D01*
X0087256Y0277007D02*
X0090464Y0277007D01*
X0089715Y0276009D02*
X0088005Y0276009D01*
X0088754Y0275010D02*
X0088966Y0275010D01*
X0090828Y0282998D02*
X0086891Y0282998D01*
X0086891Y0283997D02*
X0090828Y0283997D01*
X0090828Y0284995D02*
X0086891Y0284995D01*
X0086891Y0285994D02*
X0090828Y0285994D01*
X0090828Y0286992D02*
X0086891Y0286992D01*
X0086891Y0287991D02*
X0090828Y0287991D01*
X0090828Y0288989D02*
X0086891Y0288989D01*
X0086891Y0289988D02*
X0090828Y0289988D01*
D12*
X0090735Y0362833D02*
X0090735Y0367103D01*
X0088560Y0368171D02*
X0088560Y0363901D01*
X0087492Y0362833D01*
X0085357Y0362833D01*
X0084290Y0363901D01*
X0084290Y0368171D02*
X0085357Y0369239D01*
X0087492Y0369239D01*
X0088560Y0368171D01*
X0089097Y0373333D02*
X0089097Y0377603D01*
X0089097Y0375468D02*
X0086962Y0377603D01*
X0085894Y0377603D01*
X0091272Y0376536D02*
X0092340Y0377603D01*
X0094475Y0377603D01*
X0095542Y0376536D01*
X0095542Y0374401D01*
X0094475Y0373333D01*
X0092340Y0373333D01*
X0091272Y0374401D01*
X0091272Y0376536D01*
X0095005Y0367103D02*
X0095005Y0363901D01*
X0093938Y0362833D01*
X0090735Y0362833D01*
X0098772Y0373333D02*
X0098772Y0378671D01*
X0097704Y0379739D01*
X0097704Y0376536D02*
X0099839Y0376536D01*
X0099322Y0400242D02*
X0098255Y0401310D01*
X0098255Y0406647D01*
X0101458Y0406647D01*
X0102525Y0405580D01*
X0102525Y0403445D01*
X0101458Y0402377D01*
X0098255Y0402377D01*
X0099322Y0400242D02*
X0100390Y0400242D01*
X0096080Y0403445D02*
X0096080Y0406647D01*
X0096080Y0403445D02*
X0095012Y0402377D01*
X0091809Y0402377D01*
X0091809Y0406647D01*
X0089634Y0408783D02*
X0088567Y0408783D01*
X0088567Y0402377D01*
X0089634Y0402377D02*
X0087499Y0402377D01*
X0085337Y0403445D02*
X0084270Y0404512D01*
X0081067Y0404512D01*
X0081067Y0405580D02*
X0081067Y0402377D01*
X0084270Y0402377D01*
X0085337Y0403445D01*
X0084270Y0406647D02*
X0082134Y0406647D01*
X0081067Y0405580D01*
X0078892Y0406647D02*
X0076756Y0406647D01*
X0077824Y0407715D02*
X0077824Y0403445D01*
X0076756Y0402377D01*
X0074595Y0403445D02*
X0073527Y0402377D01*
X0071392Y0402377D01*
X0070324Y0403445D01*
X0070324Y0405580D01*
X0071392Y0406647D01*
X0073527Y0406647D01*
X0074595Y0405580D01*
X0074595Y0403445D01*
X0068149Y0404512D02*
X0066014Y0406647D01*
X0064946Y0406647D01*
X0068149Y0406647D02*
X0068149Y0402377D01*
X0069781Y0428348D02*
X0068713Y0429416D01*
X0068713Y0434753D01*
X0071916Y0434753D01*
X0072983Y0433686D01*
X0072983Y0431551D01*
X0071916Y0430483D01*
X0068713Y0430483D01*
X0069781Y0428348D02*
X0070848Y0428348D01*
X0075158Y0430483D02*
X0075158Y0433686D01*
X0076226Y0434753D01*
X0078361Y0434753D01*
X0078361Y0432618D02*
X0075158Y0432618D01*
X0075158Y0430483D02*
X0078361Y0430483D01*
X0079429Y0431551D01*
X0078361Y0432618D01*
X0081591Y0430483D02*
X0082658Y0431551D01*
X0082658Y0435821D01*
X0081591Y0434753D02*
X0083726Y0434753D01*
X0086955Y0436889D02*
X0086955Y0430483D01*
X0085888Y0430483D02*
X0088023Y0430483D01*
X0090198Y0431551D02*
X0090198Y0433686D01*
X0091266Y0434753D01*
X0093401Y0434753D01*
X0094468Y0433686D01*
X0094468Y0431551D01*
X0093401Y0430483D01*
X0091266Y0430483D01*
X0090198Y0431551D01*
X0088023Y0436889D02*
X0086955Y0436889D01*
X0096643Y0436889D02*
X0096643Y0432618D01*
X0098779Y0430483D01*
X0100914Y0432618D01*
X0100914Y0436889D01*
X0109514Y0431551D02*
X0109514Y0430483D01*
X0110582Y0430483D01*
X0110582Y0431551D01*
X0109514Y0431551D01*
X0112757Y0431551D02*
X0112757Y0432618D01*
X0113825Y0433686D01*
X0117027Y0433686D01*
X0117027Y0431551D01*
X0115960Y0430483D01*
X0113825Y0430483D01*
X0112757Y0431551D01*
X0114892Y0435821D02*
X0117027Y0433686D01*
X0114892Y0435821D02*
X0112757Y0436889D01*
X0112207Y0406647D02*
X0111139Y0406647D01*
X0112207Y0406647D02*
X0114342Y0404512D01*
X0114342Y0402377D02*
X0114342Y0406647D01*
X0108971Y0405580D02*
X0107903Y0406647D01*
X0105768Y0406647D01*
X0104700Y0405580D01*
X0104700Y0404512D01*
X0108971Y0404512D01*
X0108971Y0403445D02*
X0108971Y0405580D01*
X0108971Y0403445D02*
X0107903Y0402377D01*
X0105768Y0402377D01*
X0066538Y0431551D02*
X0066538Y0433686D01*
X0065470Y0434753D01*
X0063335Y0434753D01*
X0062267Y0433686D01*
X0062267Y0432618D01*
X0066538Y0432618D01*
X0066538Y0431551D02*
X0065470Y0430483D01*
X0063335Y0430483D01*
X0063545Y0542483D02*
X0061410Y0542483D01*
X0062477Y0542483D02*
X0062477Y0546753D01*
X0063545Y0546753D01*
X0065707Y0546753D02*
X0067842Y0546753D01*
X0066774Y0547821D02*
X0066774Y0543551D01*
X0065707Y0542483D01*
X0070017Y0542483D02*
X0073220Y0542483D01*
X0074287Y0543551D01*
X0074287Y0545686D01*
X0073220Y0546753D01*
X0070017Y0546753D01*
X0068936Y0552983D02*
X0067869Y0554051D01*
X0068936Y0555118D01*
X0071071Y0555118D01*
X0072139Y0556186D01*
X0071071Y0557253D01*
X0067869Y0557253D01*
X0065693Y0557253D02*
X0064626Y0557253D01*
X0064626Y0552983D01*
X0065693Y0552983D02*
X0063558Y0552983D01*
X0062477Y0549956D02*
X0062477Y0548889D01*
X0059248Y0545686D02*
X0059248Y0543551D01*
X0058180Y0542483D01*
X0056045Y0542483D01*
X0054978Y0543551D01*
X0054978Y0545686D01*
X0056045Y0546753D01*
X0058180Y0546753D01*
X0059248Y0545686D01*
X0059261Y0552983D02*
X0057126Y0557253D01*
X0054951Y0556186D02*
X0053883Y0557253D01*
X0051748Y0557253D01*
X0050681Y0556186D01*
X0050681Y0555118D01*
X0054951Y0555118D01*
X0054951Y0554051D02*
X0054951Y0556186D01*
X0054951Y0554051D02*
X0053883Y0552983D01*
X0051748Y0552983D01*
X0052802Y0546753D02*
X0049600Y0546753D01*
X0048532Y0545686D01*
X0048532Y0542483D01*
X0052802Y0542483D02*
X0052802Y0546753D01*
X0059261Y0552983D02*
X0061396Y0557253D01*
X0064626Y0559389D02*
X0064626Y0560456D01*
X0068936Y0552983D02*
X0072139Y0552983D01*
X0074314Y0554051D02*
X0075382Y0555118D01*
X0077517Y0555118D01*
X0078584Y0556186D01*
X0077517Y0557253D01*
X0074314Y0557253D01*
X0074314Y0554051D02*
X0075382Y0552983D01*
X0078584Y0552983D01*
X0080760Y0552983D02*
X0080760Y0556186D01*
X0081827Y0557253D01*
X0083962Y0557253D01*
X0083962Y0555118D02*
X0080760Y0555118D01*
X0080760Y0552983D02*
X0083962Y0552983D01*
X0085030Y0554051D01*
X0083962Y0555118D01*
X0087205Y0556186D02*
X0088273Y0555118D01*
X0091475Y0555118D01*
X0091475Y0552983D02*
X0091475Y0559389D01*
X0088273Y0559389D01*
X0087205Y0558321D01*
X0087205Y0556186D01*
X0083962Y0547821D02*
X0083962Y0543551D01*
X0082895Y0542483D01*
X0080733Y0543551D02*
X0080733Y0545686D01*
X0079665Y0546753D01*
X0077530Y0546753D01*
X0076463Y0545686D01*
X0076463Y0544618D01*
X0080733Y0544618D01*
X0080733Y0543551D02*
X0079665Y0542483D01*
X0077530Y0542483D01*
X0082895Y0546753D02*
X0085030Y0546753D01*
X0087205Y0545686D02*
X0088273Y0546753D01*
X0090408Y0546753D01*
X0091475Y0545686D01*
X0091475Y0543551D01*
X0090408Y0542483D01*
X0088273Y0542483D01*
X0087205Y0543551D01*
X0087205Y0545686D01*
X0093644Y0546753D02*
X0094711Y0546753D01*
X0096847Y0544618D01*
X0096847Y0542483D02*
X0096847Y0546753D01*
X0099022Y0545686D02*
X0099022Y0543551D01*
X0100089Y0542483D01*
X0103292Y0542483D01*
X0103292Y0540348D02*
X0103292Y0546753D01*
X0100089Y0546753D01*
X0099022Y0545686D01*
X0100076Y0552983D02*
X0101144Y0552983D01*
X0101144Y0554051D01*
X0100076Y0554051D01*
X0100076Y0552983D01*
X0103319Y0554051D02*
X0104386Y0552983D01*
X0106522Y0552983D01*
X0107589Y0554051D01*
X0105454Y0556186D02*
X0104386Y0556186D01*
X0103319Y0555118D01*
X0103319Y0554051D01*
X0104386Y0556186D02*
X0103319Y0557253D01*
X0103319Y0558321D01*
X0104386Y0559389D01*
X0106522Y0559389D01*
X0107589Y0558321D01*
X0163655Y0560303D02*
X0164722Y0560303D01*
X0166858Y0558168D01*
X0166858Y0556033D02*
X0166858Y0560303D01*
X0169033Y0559236D02*
X0170100Y0560303D01*
X0172235Y0560303D01*
X0173303Y0559236D01*
X0173303Y0557101D01*
X0172235Y0556033D01*
X0170100Y0556033D01*
X0169033Y0558168D02*
X0173303Y0558168D01*
X0175465Y0556033D02*
X0177600Y0556033D01*
X0176532Y0556033D02*
X0176532Y0560303D01*
X0177600Y0560303D01*
X0176532Y0562439D02*
X0176532Y0563506D01*
X0179762Y0562439D02*
X0180829Y0561371D01*
X0180829Y0556033D01*
X0184059Y0556033D02*
X0186194Y0556033D01*
X0185126Y0556033D02*
X0185126Y0560303D01*
X0186194Y0560303D01*
X0188356Y0560303D02*
X0190491Y0560303D01*
X0189423Y0561371D02*
X0189423Y0557101D01*
X0188356Y0556033D01*
X0192666Y0556033D02*
X0195869Y0556033D01*
X0196937Y0557101D01*
X0196937Y0559236D01*
X0195869Y0560303D01*
X0192666Y0560303D01*
X0199112Y0559236D02*
X0199112Y0558168D01*
X0203382Y0558168D01*
X0203382Y0557101D02*
X0203382Y0559236D01*
X0202314Y0560303D01*
X0200179Y0560303D01*
X0199112Y0559236D01*
X0200179Y0556033D02*
X0202314Y0556033D01*
X0203382Y0557101D01*
X0205551Y0560303D02*
X0206618Y0560303D01*
X0208753Y0558168D01*
X0208753Y0556033D02*
X0208753Y0560303D01*
X0217374Y0559236D02*
X0217374Y0558168D01*
X0221644Y0558168D01*
X0221644Y0557101D02*
X0221644Y0559236D01*
X0220577Y0560303D01*
X0218442Y0560303D01*
X0217374Y0559236D01*
X0218442Y0556033D02*
X0220577Y0556033D01*
X0221644Y0557101D01*
X0223819Y0556033D02*
X0227022Y0556033D01*
X0228090Y0557101D01*
X0228090Y0559236D01*
X0227022Y0560303D01*
X0223819Y0560303D01*
X0223819Y0554966D01*
X0224887Y0553898D01*
X0225955Y0553898D01*
X0230265Y0556033D02*
X0230265Y0562439D01*
X0230265Y0560303D02*
X0233468Y0560303D01*
X0234535Y0559236D01*
X0234535Y0557101D01*
X0233468Y0556033D01*
X0230265Y0556033D01*
X0236697Y0556033D02*
X0238832Y0556033D01*
X0237765Y0556033D02*
X0237765Y0560303D01*
X0238832Y0560303D01*
X0241001Y0560303D02*
X0242068Y0560303D01*
X0244203Y0558168D01*
X0244203Y0556033D02*
X0244203Y0560303D01*
X0246379Y0560303D02*
X0247446Y0559236D01*
X0250649Y0559236D01*
X0250649Y0556033D02*
X0250649Y0562439D01*
X0247446Y0562439D01*
X0246379Y0561371D01*
X0246379Y0560303D01*
X0247446Y0559236D02*
X0246379Y0558168D01*
X0246379Y0557101D01*
X0247446Y0556033D01*
X0250649Y0556033D01*
X0259250Y0556033D02*
X0260317Y0556033D01*
X0260317Y0557101D01*
X0259250Y0557101D01*
X0259250Y0556033D01*
X0262492Y0556033D02*
X0266763Y0556033D01*
X0262492Y0560303D01*
X0262492Y0561371D01*
X0263560Y0562439D01*
X0265695Y0562439D01*
X0266763Y0561371D01*
X0237765Y0562439D02*
X0237765Y0563506D01*
X0241413Y0622062D02*
X0242481Y0623130D01*
X0242481Y0627400D01*
X0243548Y0626333D02*
X0241413Y0626333D01*
X0245723Y0626333D02*
X0245723Y0622062D01*
X0248926Y0622062D01*
X0249994Y0623130D01*
X0249994Y0626333D01*
X0252169Y0625265D02*
X0252169Y0623130D01*
X0253237Y0622062D01*
X0256439Y0622062D01*
X0256439Y0619927D02*
X0256439Y0626333D01*
X0253237Y0626333D01*
X0252169Y0625265D01*
X0258614Y0625265D02*
X0258614Y0622062D01*
X0258614Y0625265D02*
X0259682Y0626333D01*
X0262885Y0626333D01*
X0262885Y0622062D01*
X0265047Y0622062D02*
X0267182Y0622062D01*
X0266114Y0622062D02*
X0266114Y0626333D01*
X0267182Y0626333D01*
X0266114Y0628468D02*
X0266114Y0629535D01*
X0275802Y0627400D02*
X0276870Y0628468D01*
X0279005Y0628468D01*
X0280073Y0627400D01*
X0280073Y0623130D01*
X0279005Y0622062D01*
X0276870Y0622062D01*
X0275802Y0623130D01*
X0282248Y0623130D02*
X0282248Y0627400D01*
X0283316Y0628468D01*
X0286518Y0628468D01*
X0286518Y0622062D01*
X0283316Y0622062D01*
X0282248Y0623130D01*
X0295132Y0626333D02*
X0296200Y0626333D01*
X0298335Y0624197D01*
X0298335Y0622062D02*
X0298335Y0626333D01*
X0300510Y0625265D02*
X0301578Y0626333D01*
X0303713Y0626333D01*
X0304781Y0625265D01*
X0304781Y0623130D01*
X0303713Y0622062D01*
X0301578Y0622062D01*
X0300510Y0623130D01*
X0300510Y0625265D01*
X0313401Y0627400D02*
X0314469Y0628468D01*
X0316604Y0628468D01*
X0317672Y0627400D01*
X0317672Y0623130D01*
X0316604Y0622062D01*
X0314469Y0622062D01*
X0313401Y0623130D01*
X0319847Y0622062D02*
X0319847Y0626333D01*
X0321982Y0628468D01*
X0324117Y0626333D01*
X0324117Y0622062D01*
X0324117Y0625265D02*
X0319847Y0625265D01*
X0332718Y0623130D02*
X0332718Y0622062D01*
X0333785Y0622062D01*
X0333785Y0623130D01*
X0332718Y0623130D01*
X0335960Y0622062D02*
X0340231Y0622062D01*
X0338096Y0622062D02*
X0338096Y0628468D01*
X0340231Y0626333D01*
X0332191Y0568512D02*
X0332191Y0567444D01*
X0332191Y0565309D02*
X0332191Y0561039D01*
X0331124Y0561039D02*
X0333259Y0561039D01*
X0335421Y0561039D02*
X0336488Y0562106D01*
X0336488Y0566376D01*
X0335421Y0565309D02*
X0337556Y0565309D01*
X0339731Y0565309D02*
X0342934Y0565309D01*
X0344001Y0564241D01*
X0344001Y0562106D01*
X0342934Y0561039D01*
X0339731Y0561039D01*
X0333259Y0565309D02*
X0332191Y0565309D01*
X0328962Y0565309D02*
X0326827Y0561039D01*
X0324692Y0565309D01*
X0322516Y0564241D02*
X0321449Y0565309D01*
X0319314Y0565309D01*
X0318246Y0564241D01*
X0318246Y0563174D01*
X0322516Y0563174D01*
X0322516Y0564241D02*
X0322516Y0562106D01*
X0321449Y0561039D01*
X0319314Y0561039D01*
X0328969Y0540906D02*
X0328969Y0539839D01*
X0328969Y0537703D02*
X0328969Y0533433D01*
X0330036Y0533433D02*
X0327901Y0533433D01*
X0325739Y0534501D02*
X0324672Y0533433D01*
X0322536Y0533433D01*
X0321469Y0534501D01*
X0321469Y0536636D01*
X0322536Y0537703D01*
X0324672Y0537703D01*
X0325739Y0536636D01*
X0325739Y0534501D01*
X0328969Y0537703D02*
X0330036Y0537703D01*
X0332198Y0537703D02*
X0334333Y0537703D01*
X0333266Y0538771D02*
X0333266Y0534501D01*
X0332198Y0533433D01*
X0336508Y0533433D02*
X0339711Y0533433D01*
X0340779Y0534501D01*
X0340779Y0536636D01*
X0339711Y0537703D01*
X0336508Y0537703D01*
X0342954Y0536636D02*
X0342954Y0535568D01*
X0347224Y0535568D01*
X0347224Y0534501D02*
X0347224Y0536636D01*
X0346157Y0537703D01*
X0344021Y0537703D01*
X0342954Y0536636D01*
X0344021Y0533433D02*
X0346157Y0533433D01*
X0347224Y0534501D01*
X0349386Y0533433D02*
X0350454Y0534501D01*
X0350454Y0538771D01*
X0351521Y0537703D02*
X0349386Y0537703D01*
X0353696Y0536636D02*
X0354764Y0537703D01*
X0356899Y0537703D01*
X0357967Y0536636D01*
X0357967Y0534501D01*
X0356899Y0533433D01*
X0354764Y0533433D01*
X0353696Y0534501D01*
X0353696Y0536636D01*
X0360135Y0537703D02*
X0361203Y0537703D01*
X0363338Y0535568D01*
X0363338Y0533433D02*
X0363338Y0537703D01*
X0365513Y0536636D02*
X0365513Y0534501D01*
X0366581Y0533433D01*
X0369783Y0533433D01*
X0369783Y0531298D02*
X0369783Y0537703D01*
X0366581Y0537703D01*
X0365513Y0536636D01*
X0363358Y0561039D02*
X0363358Y0567444D01*
X0366561Y0564241D01*
X0362290Y0564241D01*
X0360115Y0562106D02*
X0359048Y0562106D01*
X0359048Y0561039D01*
X0360115Y0561039D01*
X0360115Y0562106D01*
X0350447Y0561039D02*
X0350447Y0565309D01*
X0348312Y0567444D01*
X0346177Y0565309D01*
X0346177Y0561039D01*
X0346177Y0564241D02*
X0350447Y0564241D01*
X0319294Y0537703D02*
X0316091Y0537703D01*
X0315023Y0536636D01*
X0315023Y0533433D01*
X0319294Y0533433D02*
X0319294Y0537703D01*
X0269137Y0399939D02*
X0264867Y0399939D01*
X0264867Y0398871D01*
X0269137Y0394601D01*
X0269137Y0393533D01*
X0262691Y0393533D02*
X0261624Y0393533D01*
X0261624Y0394601D01*
X0262691Y0394601D01*
X0262691Y0393533D01*
X0253023Y0395668D02*
X0250888Y0393533D01*
X0248753Y0395668D01*
X0248753Y0399939D01*
X0246578Y0396736D02*
X0245510Y0397803D01*
X0243375Y0397803D01*
X0242307Y0396736D01*
X0242307Y0394601D01*
X0243375Y0393533D01*
X0245510Y0393533D01*
X0246578Y0394601D01*
X0246578Y0396736D01*
X0253023Y0395668D02*
X0253023Y0399939D01*
X0240132Y0399939D02*
X0239065Y0399939D01*
X0239065Y0393533D01*
X0240132Y0393533D02*
X0237997Y0393533D01*
X0234768Y0394601D02*
X0233700Y0393533D01*
X0234768Y0394601D02*
X0234768Y0398871D01*
X0235835Y0397803D02*
X0233700Y0397803D01*
X0230471Y0397803D02*
X0228336Y0397803D01*
X0227268Y0396736D01*
X0227268Y0393533D01*
X0230471Y0393533D01*
X0231538Y0394601D01*
X0230471Y0395668D01*
X0227268Y0395668D01*
X0225093Y0394601D02*
X0224025Y0393533D01*
X0220822Y0393533D01*
X0220822Y0392466D02*
X0220822Y0397803D01*
X0224025Y0397803D01*
X0225093Y0396736D01*
X0225093Y0394601D01*
X0222958Y0391398D02*
X0221890Y0391398D01*
X0220822Y0392466D01*
X0218647Y0394601D02*
X0218647Y0396736D01*
X0217580Y0397803D01*
X0215445Y0397803D01*
X0214377Y0396736D01*
X0214377Y0395668D01*
X0218647Y0395668D01*
X0218647Y0394601D02*
X0217580Y0393533D01*
X0215445Y0393533D01*
X0205756Y0393533D02*
X0205756Y0397803D01*
X0204689Y0397803D01*
X0203621Y0396736D01*
X0202554Y0397803D01*
X0201486Y0396736D01*
X0201486Y0393533D01*
X0203621Y0393533D02*
X0203621Y0396736D01*
X0199311Y0396736D02*
X0198243Y0397803D01*
X0196108Y0397803D01*
X0195040Y0396736D01*
X0195040Y0395668D01*
X0199311Y0395668D01*
X0199311Y0394601D02*
X0199311Y0396736D01*
X0199311Y0394601D02*
X0198243Y0393533D01*
X0196108Y0393533D01*
X0192865Y0394601D02*
X0191798Y0395668D01*
X0188595Y0395668D01*
X0188595Y0396736D02*
X0188595Y0393533D01*
X0191798Y0393533D01*
X0192865Y0394601D01*
X0191798Y0397803D02*
X0189663Y0397803D01*
X0188595Y0396736D01*
X0186420Y0396736D02*
X0185352Y0397803D01*
X0182149Y0397803D01*
X0179974Y0397803D02*
X0179974Y0394601D01*
X0178907Y0393533D01*
X0175704Y0393533D01*
X0175704Y0397803D01*
X0173529Y0397803D02*
X0173529Y0393533D01*
X0173529Y0395668D02*
X0171394Y0397803D01*
X0170326Y0397803D01*
X0168158Y0396736D02*
X0167090Y0397803D01*
X0164955Y0397803D01*
X0163887Y0396736D01*
X0163887Y0395668D01*
X0168158Y0395668D01*
X0168158Y0394601D02*
X0168158Y0396736D01*
X0168158Y0394601D02*
X0167090Y0393533D01*
X0164955Y0393533D01*
X0182149Y0394601D02*
X0183217Y0395668D01*
X0185352Y0395668D01*
X0186420Y0396736D01*
X0186420Y0393533D02*
X0183217Y0393533D01*
X0182149Y0394601D01*
X0180649Y0249903D02*
X0183852Y0249903D01*
X0184920Y0248836D01*
X0183852Y0247768D01*
X0181717Y0247768D01*
X0180649Y0246701D01*
X0181717Y0245633D01*
X0184920Y0245633D01*
X0187095Y0245633D02*
X0190298Y0245633D01*
X0191365Y0246701D01*
X0190298Y0247768D01*
X0187095Y0247768D01*
X0187095Y0248836D02*
X0187095Y0245633D01*
X0187095Y0248836D02*
X0188163Y0249903D01*
X0190298Y0249903D01*
X0193540Y0248836D02*
X0193540Y0247768D01*
X0197811Y0247768D01*
X0197811Y0246701D02*
X0197811Y0248836D01*
X0196743Y0249903D01*
X0194608Y0249903D01*
X0193540Y0248836D01*
X0194608Y0245633D02*
X0196743Y0245633D01*
X0197811Y0246701D01*
X0199986Y0245633D02*
X0199986Y0248836D01*
X0201054Y0249903D01*
X0202121Y0248836D01*
X0202121Y0245633D01*
X0204256Y0245633D02*
X0204256Y0249903D01*
X0203189Y0249903D01*
X0202121Y0248836D01*
X0212864Y0249903D02*
X0214999Y0249903D01*
X0213931Y0250971D02*
X0213931Y0246701D01*
X0212864Y0245633D01*
X0217174Y0245633D02*
X0217174Y0248836D01*
X0218242Y0249903D01*
X0221444Y0249903D01*
X0221444Y0245633D01*
X0223619Y0247768D02*
X0227890Y0247768D01*
X0227890Y0246701D02*
X0227890Y0248836D01*
X0226822Y0249903D01*
X0224687Y0249903D01*
X0223619Y0248836D01*
X0223619Y0247768D01*
X0224687Y0245633D02*
X0226822Y0245633D01*
X0227890Y0246701D01*
X0230058Y0249903D02*
X0231126Y0249903D01*
X0233261Y0247768D01*
X0233261Y0245633D02*
X0233261Y0249903D01*
X0235430Y0249903D02*
X0236497Y0249903D01*
X0238632Y0247768D01*
X0238632Y0245633D02*
X0238632Y0249903D01*
X0240807Y0249903D02*
X0240807Y0245633D01*
X0244010Y0245633D01*
X0245078Y0246701D01*
X0245078Y0249903D01*
X0247253Y0250971D02*
X0248321Y0252039D01*
X0250456Y0252039D01*
X0251523Y0250971D01*
X0251523Y0246701D01*
X0250456Y0245633D01*
X0248321Y0245633D01*
X0247253Y0246701D01*
X0260124Y0246701D02*
X0260124Y0245633D01*
X0261191Y0245633D01*
X0261191Y0246701D01*
X0260124Y0246701D01*
X0263367Y0246701D02*
X0264434Y0245633D01*
X0266569Y0245633D01*
X0267637Y0246701D01*
X0267637Y0247768D01*
X0266569Y0248836D01*
X0264434Y0248836D01*
X0263367Y0247768D01*
X0263367Y0246701D01*
X0264434Y0248836D02*
X0263367Y0249903D01*
X0263367Y0250971D01*
X0264434Y0252039D01*
X0266569Y0252039D01*
X0267637Y0250971D01*
X0267637Y0249903D01*
X0266569Y0248836D01*
X0243168Y0191539D02*
X0243168Y0185133D01*
X0245303Y0185133D02*
X0241033Y0185133D01*
X0238858Y0186201D02*
X0234588Y0190471D01*
X0234588Y0186201D01*
X0235655Y0185133D01*
X0237790Y0185133D01*
X0238858Y0186201D01*
X0238858Y0190471D01*
X0237790Y0191539D01*
X0235655Y0191539D01*
X0234588Y0190471D01*
X0232412Y0186201D02*
X0231345Y0186201D01*
X0231345Y0185133D01*
X0232412Y0185133D01*
X0232412Y0186201D01*
X0222744Y0186201D02*
X0221677Y0185133D01*
X0219541Y0185133D01*
X0218474Y0186201D01*
X0218474Y0187268D01*
X0219541Y0188336D01*
X0221677Y0188336D01*
X0222744Y0189403D01*
X0222744Y0190471D01*
X0221677Y0191539D01*
X0219541Y0191539D01*
X0218474Y0190471D01*
X0216299Y0188336D02*
X0216299Y0186201D01*
X0215231Y0185133D01*
X0212028Y0185133D01*
X0209853Y0185133D02*
X0209853Y0189403D01*
X0209853Y0187268D02*
X0207718Y0189403D01*
X0206650Y0189403D01*
X0204482Y0188336D02*
X0203414Y0189403D01*
X0201279Y0189403D01*
X0200212Y0188336D01*
X0200212Y0187268D01*
X0204482Y0187268D01*
X0204482Y0186201D02*
X0204482Y0188336D01*
X0204482Y0186201D02*
X0203414Y0185133D01*
X0201279Y0185133D01*
X0198036Y0186201D02*
X0198036Y0188336D01*
X0196969Y0189403D01*
X0194834Y0189403D01*
X0193766Y0188336D01*
X0193766Y0187268D01*
X0198036Y0187268D01*
X0198036Y0186201D02*
X0196969Y0185133D01*
X0194834Y0185133D01*
X0191591Y0185133D02*
X0191591Y0189403D01*
X0188388Y0189403D01*
X0187321Y0188336D01*
X0187321Y0185133D01*
X0212028Y0189403D02*
X0215231Y0189403D01*
X0216299Y0188336D01*
X0243168Y0191539D02*
X0245303Y0189403D01*
X0246425Y0088442D02*
X0243223Y0088442D01*
X0242155Y0087375D01*
X0242155Y0086307D01*
X0243223Y0085239D01*
X0246425Y0085239D01*
X0248601Y0084172D02*
X0248601Y0083104D01*
X0249668Y0082037D01*
X0251803Y0082037D01*
X0252871Y0083104D01*
X0255046Y0083104D02*
X0255046Y0088442D01*
X0252871Y0087375D02*
X0252871Y0086307D01*
X0251803Y0085239D01*
X0249668Y0085239D01*
X0248601Y0084172D01*
X0246425Y0082037D02*
X0243223Y0082037D01*
X0242155Y0083104D01*
X0242155Y0084172D01*
X0243223Y0085239D01*
X0246425Y0082037D02*
X0246425Y0088442D01*
X0248601Y0087375D02*
X0249668Y0088442D01*
X0251803Y0088442D01*
X0252871Y0087375D01*
X0255046Y0083104D02*
X0256114Y0082037D01*
X0258249Y0082037D01*
X0259316Y0083104D01*
X0259316Y0088442D01*
X0267937Y0087375D02*
X0267937Y0086307D01*
X0272207Y0082037D01*
X0267937Y0082037D01*
X0267937Y0087375D02*
X0269005Y0088442D01*
X0271140Y0088442D01*
X0272207Y0087375D01*
X0274362Y0083104D02*
X0274362Y0082037D01*
X0275430Y0082037D01*
X0275430Y0083104D01*
X0274362Y0083104D01*
X0277605Y0082037D02*
X0281876Y0082037D01*
X0277605Y0086307D01*
X0277605Y0087375D01*
X0278673Y0088442D01*
X0280808Y0088442D01*
X0281876Y0087375D01*
X0286186Y0088442D02*
X0286186Y0082037D01*
X0288321Y0082037D02*
X0284051Y0082037D01*
X0288321Y0086307D02*
X0286186Y0088442D01*
X0286716Y0075807D02*
X0287784Y0074739D01*
X0287784Y0072604D01*
X0286716Y0071537D01*
X0284581Y0071537D01*
X0283514Y0072604D01*
X0283514Y0074739D01*
X0284581Y0075807D01*
X0286716Y0075807D01*
X0281338Y0075807D02*
X0281338Y0072604D01*
X0280271Y0071537D01*
X0277068Y0071537D01*
X0277068Y0075807D01*
X0274893Y0075807D02*
X0272758Y0075807D01*
X0273825Y0076875D02*
X0273825Y0072604D01*
X0272758Y0071537D01*
X0270596Y0071537D02*
X0267393Y0071537D01*
X0266326Y0072604D01*
X0266326Y0074739D01*
X0267393Y0075807D01*
X0270596Y0075807D01*
X0270596Y0069401D01*
X0264150Y0072604D02*
X0264150Y0075807D01*
X0264150Y0072604D02*
X0263083Y0071537D01*
X0259880Y0071537D01*
X0259880Y0075807D01*
X0257705Y0075807D02*
X0255570Y0075807D01*
X0256637Y0076875D02*
X0256637Y0072604D01*
X0255570Y0071537D01*
X0246962Y0071537D02*
X0242692Y0075807D01*
X0242692Y0076875D01*
X0243760Y0077942D01*
X0245895Y0077942D01*
X0246962Y0076875D01*
X0246962Y0071537D02*
X0242692Y0071537D01*
X0189359Y0072604D02*
X0188291Y0071537D01*
X0186156Y0071537D01*
X0185088Y0072604D01*
X0185088Y0074739D01*
X0186156Y0075807D01*
X0188291Y0075807D01*
X0189359Y0074739D01*
X0189359Y0072604D01*
X0182913Y0072604D02*
X0181846Y0071537D01*
X0178643Y0071537D01*
X0178643Y0075807D01*
X0176468Y0075807D02*
X0174333Y0075807D01*
X0175400Y0076875D02*
X0175400Y0072604D01*
X0174333Y0071537D01*
X0172171Y0071537D02*
X0168968Y0071537D01*
X0167900Y0072604D01*
X0167900Y0074739D01*
X0168968Y0075807D01*
X0172171Y0075807D01*
X0172171Y0069401D01*
X0165725Y0072604D02*
X0164658Y0071537D01*
X0161455Y0071537D01*
X0161455Y0075807D01*
X0159280Y0075807D02*
X0157145Y0075807D01*
X0158212Y0076875D02*
X0158212Y0072604D01*
X0157145Y0071537D01*
X0148537Y0071537D02*
X0144267Y0071537D01*
X0146402Y0071537D02*
X0146402Y0077942D01*
X0148537Y0075807D01*
X0148000Y0082037D02*
X0144797Y0082037D01*
X0143730Y0083104D01*
X0143730Y0084172D01*
X0144797Y0085239D01*
X0148000Y0085239D01*
X0150175Y0084172D02*
X0150175Y0083104D01*
X0151243Y0082037D01*
X0153378Y0082037D01*
X0154446Y0083104D01*
X0156621Y0083104D02*
X0156621Y0088442D01*
X0154446Y0087375D02*
X0154446Y0086307D01*
X0153378Y0085239D01*
X0151243Y0085239D01*
X0150175Y0084172D01*
X0148000Y0082037D02*
X0148000Y0088442D01*
X0144797Y0088442D01*
X0143730Y0087375D01*
X0143730Y0086307D01*
X0144797Y0085239D01*
X0150175Y0087375D02*
X0151243Y0088442D01*
X0153378Y0088442D01*
X0154446Y0087375D01*
X0156621Y0083104D02*
X0157688Y0082037D01*
X0159824Y0082037D01*
X0160891Y0083104D01*
X0160891Y0088442D01*
X0169512Y0082037D02*
X0173782Y0082037D01*
X0171647Y0082037D02*
X0171647Y0088442D01*
X0173782Y0086307D01*
X0175937Y0083104D02*
X0175937Y0082037D01*
X0177005Y0082037D01*
X0177005Y0083104D01*
X0175937Y0083104D01*
X0179180Y0082037D02*
X0183450Y0082037D01*
X0179180Y0086307D01*
X0179180Y0087375D01*
X0180248Y0088442D01*
X0182383Y0088442D01*
X0183450Y0087375D01*
X0187761Y0088442D02*
X0187761Y0082037D01*
X0189896Y0082037D02*
X0185626Y0082037D01*
X0189896Y0086307D02*
X0187761Y0088442D01*
X0182913Y0075807D02*
X0182913Y0072604D01*
X0165725Y0072604D02*
X0165725Y0075807D01*
X0116490Y0077854D02*
X0115423Y0076787D01*
X0112220Y0076787D01*
X0110045Y0077854D02*
X0108977Y0076787D01*
X0106842Y0076787D01*
X0105775Y0077854D01*
X0105775Y0079989D01*
X0106842Y0081057D01*
X0108977Y0081057D01*
X0110045Y0079989D01*
X0110045Y0077854D01*
X0112220Y0081057D02*
X0115423Y0081057D01*
X0116490Y0079989D01*
X0116490Y0077854D01*
X0110052Y0087287D02*
X0107916Y0087287D01*
X0106849Y0088354D01*
X0106849Y0092625D01*
X0107916Y0093692D01*
X0110052Y0093692D01*
X0111119Y0092625D01*
X0111119Y0091557D01*
X0110052Y0090489D01*
X0106849Y0090489D01*
X0104674Y0088354D02*
X0103606Y0088354D01*
X0103606Y0087287D01*
X0104674Y0087287D01*
X0104674Y0088354D01*
X0110052Y0087287D02*
X0111119Y0088354D01*
X0103599Y0081057D02*
X0103599Y0076787D01*
X0099329Y0076787D02*
X0099329Y0079989D01*
X0100397Y0081057D01*
X0103599Y0081057D01*
X0097154Y0081057D02*
X0095019Y0081057D01*
X0096086Y0082125D02*
X0096086Y0077854D01*
X0095019Y0076787D01*
X0092857Y0076787D02*
X0092857Y0081057D01*
X0092857Y0078922D02*
X0090722Y0081057D01*
X0089654Y0081057D01*
X0087486Y0079989D02*
X0087486Y0077854D01*
X0086418Y0076787D01*
X0084283Y0076787D01*
X0083215Y0077854D01*
X0083215Y0079989D01*
X0084283Y0081057D01*
X0086418Y0081057D01*
X0087486Y0079989D01*
X0087492Y0087287D02*
X0087492Y0091557D01*
X0088560Y0091557D01*
X0087492Y0093692D02*
X0087492Y0094760D01*
X0090735Y0093692D02*
X0090735Y0087287D01*
X0088560Y0087287D02*
X0086425Y0087287D01*
X0084263Y0088354D02*
X0083195Y0087287D01*
X0079993Y0087287D01*
X0077817Y0087287D02*
X0077817Y0091557D01*
X0075682Y0091557D02*
X0074615Y0091557D01*
X0075682Y0091557D02*
X0077817Y0089422D01*
X0079993Y0091557D02*
X0083195Y0091557D01*
X0084263Y0090489D01*
X0084263Y0088354D01*
X0081040Y0083192D02*
X0079973Y0083192D01*
X0079973Y0076787D01*
X0081040Y0076787D02*
X0078905Y0076787D01*
X0076743Y0076787D02*
X0074608Y0076787D01*
X0075676Y0076787D02*
X0075676Y0083192D01*
X0076743Y0083192D01*
X0072446Y0079989D02*
X0072446Y0077854D01*
X0071379Y0076787D01*
X0069243Y0076787D01*
X0068176Y0078922D02*
X0072446Y0078922D01*
X0072446Y0079989D02*
X0071379Y0081057D01*
X0069243Y0081057D01*
X0068176Y0079989D01*
X0068176Y0078922D01*
X0066001Y0078922D02*
X0063866Y0081057D01*
X0062798Y0081057D01*
X0066001Y0081057D02*
X0066001Y0076787D01*
X0069243Y0087287D02*
X0068176Y0088354D01*
X0068176Y0090489D01*
X0069243Y0091557D01*
X0071379Y0091557D01*
X0072446Y0090489D01*
X0072446Y0088354D01*
X0071379Y0087287D01*
X0069243Y0087287D01*
X0082114Y0072692D02*
X0079979Y0070557D01*
X0079979Y0068422D01*
X0082114Y0066287D01*
X0084290Y0067354D02*
X0085357Y0066287D01*
X0087492Y0066287D01*
X0088560Y0067354D01*
X0088560Y0071625D01*
X0087492Y0072692D01*
X0085357Y0072692D01*
X0084290Y0071625D01*
X0090735Y0070557D02*
X0090735Y0066287D01*
X0093938Y0066287D01*
X0095005Y0067354D01*
X0095005Y0070557D01*
X0097167Y0072692D02*
X0099302Y0070557D01*
X0099302Y0068422D01*
X0097167Y0066287D01*
X0095005Y0087287D02*
X0095005Y0093692D01*
X0092870Y0091557D01*
X0090735Y0093692D01*
X0163455Y0245633D02*
X0165590Y0245633D01*
X0166658Y0246701D01*
X0166658Y0248836D01*
X0165590Y0249903D01*
X0163455Y0249903D01*
X0162387Y0248836D01*
X0162387Y0247768D01*
X0166658Y0247768D01*
X0168826Y0249903D02*
X0169894Y0249903D01*
X0172029Y0247768D01*
X0172029Y0245633D02*
X0172029Y0249903D01*
X0174204Y0249903D02*
X0174204Y0245633D01*
X0177407Y0245633D01*
X0178474Y0246701D01*
X0178474Y0249903D01*
X0311409Y0348401D02*
X0312477Y0349468D01*
X0314612Y0349468D01*
X0315680Y0350536D01*
X0314612Y0351603D01*
X0311409Y0351603D01*
X0311409Y0348401D02*
X0312477Y0347333D01*
X0315680Y0347333D01*
X0317841Y0347333D02*
X0318909Y0348401D01*
X0318909Y0352671D01*
X0319977Y0351603D02*
X0317841Y0351603D01*
X0322152Y0351603D02*
X0322152Y0347333D01*
X0325355Y0347333D01*
X0326422Y0348401D01*
X0326422Y0351603D01*
X0328597Y0350536D02*
X0328597Y0348401D01*
X0329665Y0347333D01*
X0332868Y0347333D01*
X0332868Y0345198D02*
X0332868Y0351603D01*
X0329665Y0351603D01*
X0328597Y0350536D01*
X0329121Y0357833D02*
X0330189Y0358901D01*
X0330189Y0363171D01*
X0331256Y0362103D02*
X0329121Y0362103D01*
X0326959Y0361036D02*
X0326959Y0358901D01*
X0325892Y0357833D01*
X0323756Y0357833D01*
X0322689Y0358901D01*
X0322689Y0361036D01*
X0323756Y0362103D01*
X0325892Y0362103D01*
X0326959Y0361036D01*
X0326435Y0366198D02*
X0325368Y0366198D01*
X0324300Y0367266D01*
X0324300Y0372603D01*
X0327503Y0372603D01*
X0328571Y0371536D01*
X0328571Y0369401D01*
X0327503Y0368333D01*
X0324300Y0368333D01*
X0322125Y0369401D02*
X0322125Y0371536D01*
X0321058Y0372603D01*
X0318922Y0372603D01*
X0317855Y0371536D01*
X0317855Y0370468D01*
X0322125Y0370468D01*
X0322125Y0369401D02*
X0321058Y0368333D01*
X0318922Y0368333D01*
X0318379Y0362103D02*
X0317311Y0362103D01*
X0318379Y0362103D02*
X0320514Y0359968D01*
X0320514Y0357833D02*
X0320514Y0362103D01*
X0330746Y0368333D02*
X0333949Y0368333D01*
X0335016Y0369401D01*
X0333949Y0370468D01*
X0330746Y0370468D01*
X0330746Y0371536D02*
X0330746Y0368333D01*
X0330746Y0371536D02*
X0331813Y0372603D01*
X0333949Y0372603D01*
X0337178Y0372603D02*
X0339313Y0372603D01*
X0338246Y0373671D02*
X0338246Y0369401D01*
X0337178Y0368333D01*
X0341475Y0368333D02*
X0343610Y0368333D01*
X0342543Y0368333D02*
X0342543Y0374739D01*
X0343610Y0374739D01*
X0345785Y0371536D02*
X0346853Y0372603D01*
X0348988Y0372603D01*
X0350056Y0371536D01*
X0350056Y0369401D01*
X0348988Y0368333D01*
X0346853Y0368333D01*
X0345785Y0369401D01*
X0345785Y0371536D01*
X0352231Y0370468D02*
X0352231Y0374739D01*
X0356501Y0374739D02*
X0356501Y0370468D01*
X0354366Y0368333D01*
X0352231Y0370468D01*
X0353822Y0362103D02*
X0354890Y0361036D01*
X0354890Y0358901D01*
X0353822Y0357833D01*
X0350619Y0357833D01*
X0350619Y0356766D02*
X0350619Y0362103D01*
X0353822Y0362103D01*
X0357065Y0361036D02*
X0357065Y0359968D01*
X0361335Y0359968D01*
X0361335Y0358901D02*
X0361335Y0361036D01*
X0360268Y0362103D01*
X0358132Y0362103D01*
X0357065Y0361036D01*
X0358132Y0357833D02*
X0360268Y0357833D01*
X0361335Y0358901D01*
X0363504Y0362103D02*
X0364571Y0362103D01*
X0366706Y0359968D01*
X0366706Y0357833D02*
X0366706Y0362103D01*
X0366169Y0368333D02*
X0365102Y0368333D01*
X0365102Y0369401D01*
X0366169Y0369401D01*
X0366169Y0368333D01*
X0368345Y0369401D02*
X0369412Y0368333D01*
X0371547Y0368333D01*
X0372615Y0369401D01*
X0372615Y0371536D02*
X0370480Y0372603D01*
X0369412Y0372603D01*
X0368345Y0371536D01*
X0368345Y0369401D01*
X0372615Y0371536D02*
X0372615Y0374739D01*
X0368345Y0374739D01*
X0370480Y0353739D02*
X0371547Y0352671D01*
X0371547Y0347333D01*
X0372615Y0350536D02*
X0370480Y0350536D01*
X0368318Y0350536D02*
X0368318Y0348401D01*
X0367250Y0347333D01*
X0365115Y0347333D01*
X0364048Y0348401D01*
X0364048Y0350536D01*
X0365115Y0351603D01*
X0367250Y0351603D01*
X0368318Y0350536D01*
X0361872Y0351603D02*
X0361872Y0347333D01*
X0361872Y0349468D02*
X0359737Y0351603D01*
X0358670Y0351603D01*
X0352755Y0355698D02*
X0351687Y0355698D01*
X0350619Y0356766D01*
X0348444Y0358901D02*
X0348444Y0362103D01*
X0348444Y0358901D02*
X0347377Y0357833D01*
X0344174Y0357833D01*
X0344174Y0362103D01*
X0341999Y0364239D02*
X0340931Y0364239D01*
X0340931Y0357833D01*
X0339864Y0357833D02*
X0341999Y0357833D01*
X0337702Y0358901D02*
X0336634Y0359968D01*
X0333431Y0359968D01*
X0333431Y0361036D02*
X0333431Y0357833D01*
X0336634Y0357833D01*
X0337702Y0358901D01*
X0336634Y0362103D02*
X0334499Y0362103D01*
X0333431Y0361036D01*
X0336097Y0352671D02*
X0336097Y0348401D01*
X0335029Y0347333D01*
X0335029Y0351603D02*
X0337165Y0351603D01*
X0339340Y0351603D02*
X0339340Y0347333D01*
X0342543Y0347333D01*
X0343610Y0348401D01*
X0343610Y0351603D01*
X0345785Y0350536D02*
X0346853Y0351603D01*
X0348988Y0351603D01*
X0350056Y0350536D01*
X0350056Y0348401D01*
X0348988Y0347333D01*
X0346853Y0347333D01*
X0345785Y0348401D01*
X0345785Y0350536D01*
X0351541Y0216339D02*
X0350474Y0215271D01*
X0350474Y0213136D01*
X0351541Y0212068D01*
X0354744Y0212068D01*
X0354744Y0209933D02*
X0354744Y0216339D01*
X0351541Y0216339D01*
X0347231Y0214203D02*
X0345096Y0214203D01*
X0344028Y0213136D01*
X0344028Y0209933D01*
X0347231Y0209933D01*
X0348298Y0211001D01*
X0347231Y0212068D01*
X0344028Y0212068D01*
X0341853Y0213136D02*
X0340785Y0214203D01*
X0337583Y0214203D01*
X0338650Y0212068D02*
X0340785Y0212068D01*
X0341853Y0213136D01*
X0341853Y0209933D02*
X0338650Y0209933D01*
X0337583Y0211001D01*
X0338650Y0212068D01*
X0335407Y0213136D02*
X0334340Y0214203D01*
X0331137Y0214203D01*
X0328962Y0214203D02*
X0327894Y0214203D01*
X0327894Y0209933D01*
X0326827Y0209933D02*
X0328962Y0209933D01*
X0331137Y0211001D02*
X0332205Y0212068D01*
X0334340Y0212068D01*
X0335407Y0213136D01*
X0335407Y0209933D02*
X0332205Y0209933D01*
X0331137Y0211001D01*
X0327894Y0216339D02*
X0327894Y0217406D01*
X0324665Y0214203D02*
X0322530Y0209933D01*
X0320395Y0214203D01*
X0318219Y0213136D02*
X0317152Y0214203D01*
X0315017Y0214203D01*
X0313949Y0213136D01*
X0313949Y0212068D01*
X0318219Y0212068D01*
X0318219Y0211001D02*
X0318219Y0213136D01*
X0318219Y0211001D02*
X0317152Y0209933D01*
X0315017Y0209933D01*
X0326290Y0203703D02*
X0328425Y0203703D01*
X0327357Y0204771D02*
X0327357Y0200501D01*
X0326290Y0199433D01*
X0328969Y0196406D02*
X0328969Y0195339D01*
X0328969Y0193203D02*
X0328969Y0188933D01*
X0330036Y0188933D02*
X0327901Y0188933D01*
X0325739Y0190001D02*
X0324672Y0188933D01*
X0322536Y0188933D01*
X0321469Y0190001D01*
X0321469Y0192136D01*
X0322536Y0193203D01*
X0324672Y0193203D01*
X0325739Y0192136D01*
X0325739Y0190001D01*
X0328969Y0193203D02*
X0330036Y0193203D01*
X0332198Y0193203D02*
X0334333Y0193203D01*
X0333266Y0194271D02*
X0333266Y0190001D01*
X0332198Y0188933D01*
X0336508Y0188933D02*
X0339711Y0188933D01*
X0340779Y0190001D01*
X0340779Y0192136D01*
X0339711Y0193203D01*
X0336508Y0193203D01*
X0341316Y0197298D02*
X0341316Y0203703D01*
X0338113Y0203703D01*
X0337045Y0202636D01*
X0337045Y0200501D01*
X0338113Y0199433D01*
X0341316Y0199433D01*
X0343478Y0199433D02*
X0344545Y0200501D01*
X0344545Y0204771D01*
X0343478Y0203703D02*
X0345613Y0203703D01*
X0347788Y0203703D02*
X0347788Y0199433D01*
X0350991Y0199433D01*
X0352058Y0200501D01*
X0352058Y0203703D01*
X0354233Y0202636D02*
X0355301Y0203703D01*
X0357436Y0203703D01*
X0358504Y0202636D01*
X0358504Y0200501D01*
X0357436Y0199433D01*
X0355301Y0199433D01*
X0354233Y0200501D01*
X0354233Y0202636D01*
X0350454Y0194271D02*
X0350454Y0190001D01*
X0349386Y0188933D01*
X0347224Y0190001D02*
X0347224Y0192136D01*
X0346157Y0193203D01*
X0344021Y0193203D01*
X0342954Y0192136D01*
X0342954Y0191068D01*
X0347224Y0191068D01*
X0347224Y0190001D02*
X0346157Y0188933D01*
X0344021Y0188933D01*
X0349386Y0193203D02*
X0351521Y0193203D01*
X0353696Y0192136D02*
X0354764Y0193203D01*
X0356899Y0193203D01*
X0357967Y0192136D01*
X0357967Y0190001D01*
X0356899Y0188933D01*
X0354764Y0188933D01*
X0353696Y0190001D01*
X0353696Y0192136D01*
X0360135Y0193203D02*
X0361203Y0193203D01*
X0363338Y0191068D01*
X0363338Y0188933D02*
X0363338Y0193203D01*
X0365513Y0192136D02*
X0365513Y0190001D01*
X0366581Y0188933D01*
X0369783Y0188933D01*
X0369783Y0186798D02*
X0369783Y0193203D01*
X0366581Y0193203D01*
X0365513Y0192136D01*
X0366587Y0209933D02*
X0370858Y0209933D01*
X0368723Y0209933D02*
X0368723Y0216339D01*
X0370858Y0214203D01*
X0373033Y0209933D02*
X0377303Y0209933D01*
X0375168Y0209933D02*
X0375168Y0216339D01*
X0377303Y0214203D01*
X0364412Y0211001D02*
X0363345Y0211001D01*
X0363345Y0209933D01*
X0364412Y0209933D01*
X0364412Y0211001D01*
X0334870Y0203703D02*
X0334870Y0200501D01*
X0333803Y0199433D01*
X0330600Y0199433D01*
X0330600Y0203703D01*
X0319294Y0193203D02*
X0316091Y0193203D01*
X0315023Y0192136D01*
X0315023Y0188933D01*
X0319294Y0188933D02*
X0319294Y0193203D01*
X0320652Y0100909D02*
X0317449Y0100909D01*
X0316382Y0099841D01*
X0316382Y0097706D01*
X0317449Y0096638D01*
X0320652Y0096638D01*
X0320652Y0094503D02*
X0320652Y0100909D01*
X0322827Y0100909D02*
X0327097Y0100909D01*
X0327097Y0094503D01*
X0322827Y0094503D01*
X0324962Y0097706D02*
X0327097Y0097706D01*
X0329273Y0094503D02*
X0329273Y0100909D01*
X0333543Y0100909D02*
X0333543Y0094503D01*
X0331408Y0096638D01*
X0329273Y0094503D01*
X0335718Y0095571D02*
X0335718Y0099841D01*
X0336786Y0100909D01*
X0338921Y0100909D01*
X0339988Y0099841D01*
X0339988Y0095571D01*
X0338921Y0094503D01*
X0336786Y0094503D01*
X0335718Y0095571D01*
X0342164Y0097706D02*
X0343231Y0096638D01*
X0346434Y0096638D01*
X0346434Y0094503D02*
X0346434Y0100909D01*
X0343231Y0100909D01*
X0342164Y0099841D01*
X0342164Y0097706D01*
X0343231Y0079255D02*
X0346434Y0079255D01*
X0346434Y0072850D01*
X0343231Y0072850D01*
X0342164Y0073917D01*
X0342164Y0078188D01*
X0343231Y0079255D01*
X0339988Y0077120D02*
X0339988Y0072850D01*
X0339988Y0076052D02*
X0335718Y0076052D01*
X0335718Y0077120D02*
X0335718Y0072850D01*
X0335718Y0077120D02*
X0337853Y0079255D01*
X0339988Y0077120D01*
X0333543Y0079255D02*
X0329273Y0079255D01*
X0331408Y0079255D02*
X0331408Y0072850D01*
X0327097Y0072850D02*
X0327097Y0077120D01*
X0324962Y0079255D01*
X0322827Y0077120D01*
X0322827Y0072850D01*
X0322827Y0076052D02*
X0327097Y0076052D01*
X0316382Y0094503D02*
X0318517Y0096638D01*
X0181897Y0559236D02*
X0179762Y0559236D01*
X0185126Y0562439D02*
X0185126Y0563506D01*
X0169033Y0559236D02*
X0169033Y0558168D01*
D13*
X0303427Y0109514D02*
X0303427Y0064239D01*
X0382167Y0064239D01*
X0382167Y0109514D01*
X0303427Y0109514D01*
M02*
