G75*
%MOIN*%
%OFA0B0*%
%FSLAX25Y25*%
%IPPOS*%
%LPD*%
%AMOC8*
5,1,8,0,0,1.08239X$1,22.5*
%
%ADD10C,0.08850*%
%ADD11OC8,0.06300*%
%ADD12C,0.06300*%
%ADD13OC8,0.05200*%
%ADD14C,0.06000*%
%ADD15C,0.10000*%
%ADD16C,0.05200*%
%ADD17R,0.09843X0.09843*%
%ADD18R,0.05937X0.05937*%
%ADD19C,0.05937*%
%ADD20C,0.05200*%
%ADD21C,0.05740*%
%ADD22C,0.13055*%
%ADD23C,0.05600*%
%ADD24OC8,0.08500*%
%ADD25R,0.03962X0.03962*%
%ADD26C,0.03200*%
%ADD27C,0.08600*%
D10*
X0185238Y0573593D02*
X0185238Y0582443D01*
X0205238Y0582443D02*
X0205238Y0573593D01*
X0225238Y0573593D02*
X0225238Y0582443D01*
X0245238Y0582443D02*
X0245238Y0573593D01*
D11*
X0341616Y0523994D03*
X0258584Y0310735D03*
X0093210Y0317191D03*
X0093210Y0445420D03*
D12*
X0103210Y0445420D03*
X0103210Y0317191D03*
X0258584Y0300735D03*
X0341616Y0509994D03*
D13*
X0357009Y0574357D03*
X0346970Y0586168D03*
X0346970Y0596168D03*
X0317009Y0574357D03*
X0306970Y0586168D03*
X0306970Y0596168D03*
X0235238Y0455971D03*
X0235238Y0445971D03*
X0195238Y0445971D03*
X0195238Y0455971D03*
X0210238Y0345735D03*
X0210238Y0335735D03*
X0220238Y0335735D03*
X0220238Y0345735D03*
X0180238Y0325735D03*
X0170238Y0325735D03*
X0170238Y0335735D03*
X0170238Y0345735D03*
X0170238Y0285735D03*
X0180238Y0285735D03*
X0152403Y0219750D03*
X0146403Y0202979D03*
X0132403Y0219750D03*
X0073013Y0312191D03*
X0073013Y0322191D03*
X0078210Y0340577D03*
X0078210Y0386325D03*
X0078210Y0396325D03*
X0118210Y0396325D03*
X0118210Y0386325D03*
X0118210Y0340577D03*
X0038224Y0205181D03*
X0038224Y0195181D03*
X0038024Y0172985D03*
X0038024Y0132985D03*
X0260238Y0335735D03*
X0260238Y0345735D03*
D14*
X0230238Y0221648D02*
X0230238Y0215648D01*
X0220238Y0215648D02*
X0220238Y0221648D01*
X0210238Y0221648D02*
X0210238Y0215648D01*
X0200238Y0215648D02*
X0200238Y0221648D01*
X0205238Y0073144D02*
X0205238Y0067144D01*
X0215238Y0067144D02*
X0215238Y0073144D01*
X0225238Y0073144D02*
X0225238Y0067144D01*
X0108210Y0415097D02*
X0108210Y0421097D01*
X0098210Y0421097D02*
X0098210Y0415097D01*
X0088210Y0415097D02*
X0088210Y0421097D01*
X0112478Y0535459D02*
X0118478Y0535459D01*
X0119478Y0565459D02*
X0125478Y0565459D01*
X0205238Y0622262D02*
X0205238Y0628262D01*
X0215238Y0628262D02*
X0215238Y0622262D01*
X0225238Y0622262D02*
X0225238Y0628262D01*
X0306970Y0551609D02*
X0306970Y0545609D01*
X0316970Y0545609D02*
X0316970Y0551609D01*
X0326970Y0551609D02*
X0326970Y0545609D01*
X0354214Y0545609D02*
X0354214Y0551609D01*
X0364214Y0551609D02*
X0364214Y0545609D01*
X0374214Y0545609D02*
X0374214Y0551609D01*
D15*
X0250238Y0367388D02*
X0240238Y0367388D01*
X0190238Y0367388D02*
X0180238Y0367388D01*
X0082639Y0506159D02*
X0072639Y0506159D01*
X0072639Y0594759D02*
X0082639Y0594759D01*
X0336616Y0248302D02*
X0346616Y0248302D01*
X0346616Y0159702D02*
X0336616Y0159702D01*
D16*
X0325200Y0142191D02*
X0320000Y0142191D01*
X0360000Y0142191D02*
X0365200Y0142191D01*
X0237838Y0261089D02*
X0232638Y0261089D01*
X0230238Y0288135D02*
X0230238Y0293335D01*
X0220238Y0293335D02*
X0220238Y0288135D01*
X0210238Y0288135D02*
X0210238Y0293335D01*
X0200238Y0293335D02*
X0200238Y0288135D01*
X0197838Y0261089D02*
X0192638Y0261089D01*
X0200238Y0318135D02*
X0200238Y0323335D01*
X0210238Y0323335D02*
X0210238Y0318135D01*
X0220238Y0318135D02*
X0220238Y0323335D01*
X0230238Y0323335D02*
X0230238Y0318135D01*
X0232638Y0410695D02*
X0237838Y0410695D01*
X0197838Y0410695D02*
X0192638Y0410695D01*
X0120810Y0350577D02*
X0115610Y0350577D01*
X0080810Y0350577D02*
X0075610Y0350577D01*
D17*
X0307616Y0295294D03*
X0375616Y0295294D03*
X0375616Y0451294D03*
X0307616Y0451294D03*
D18*
X0058860Y0252979D03*
D19*
X0058860Y0242979D03*
X0058860Y0232979D03*
X0058860Y0222979D03*
X0058860Y0212979D03*
X0058860Y0202979D03*
X0058860Y0192979D03*
X0058860Y0182979D03*
X0058860Y0172979D03*
X0058860Y0162979D03*
X0058860Y0152979D03*
X0058860Y0142979D03*
X0058860Y0132979D03*
X0058860Y0122979D03*
X0058860Y0112979D03*
X0118860Y0112979D03*
X0118860Y0122979D03*
X0118860Y0132979D03*
X0118860Y0142979D03*
X0118860Y0152979D03*
X0118860Y0162979D03*
X0118860Y0172979D03*
X0118860Y0182979D03*
X0118860Y0192979D03*
X0118860Y0202979D03*
X0118860Y0212979D03*
X0118860Y0222979D03*
X0118860Y0232979D03*
X0118860Y0242979D03*
X0118860Y0252979D03*
D20*
X0138403Y0202979D03*
D21*
X0152246Y0112817D02*
X0152246Y0107077D01*
X0162088Y0107077D02*
X0162088Y0112817D01*
X0169962Y0112817D02*
X0169962Y0107077D01*
X0179805Y0107077D02*
X0179805Y0112817D01*
X0250671Y0112817D02*
X0250671Y0107077D01*
X0260513Y0107077D02*
X0260513Y0112817D01*
X0268387Y0112817D02*
X0268387Y0107077D01*
X0278230Y0107077D02*
X0278230Y0112817D01*
D22*
X0290317Y0099278D03*
X0238584Y0099278D03*
X0191891Y0099278D03*
X0140159Y0099278D03*
D23*
X0238224Y0273033D02*
X0238224Y0278633D01*
X0248224Y0278633D02*
X0248224Y0273033D01*
X0198038Y0423229D02*
X0192438Y0423229D01*
X0192438Y0433229D02*
X0198038Y0433229D01*
X0121069Y0374708D02*
X0115469Y0374708D01*
X0115469Y0364708D02*
X0121069Y0364708D01*
X0372624Y0248033D02*
X0378224Y0248033D01*
X0378224Y0238033D02*
X0372624Y0238033D01*
D24*
X0387624Y0265033D03*
X0295124Y0265033D03*
X0262482Y0261089D03*
X0262482Y0367388D03*
X0250671Y0410695D03*
X0250671Y0433333D03*
X0250671Y0455971D03*
X0158151Y0367388D03*
X0158151Y0261089D03*
X0046242Y0346955D03*
X0046242Y0366640D03*
X0046242Y0386325D03*
X0046242Y0406010D03*
D25*
X0046050Y0443094D03*
X0079857Y0445954D03*
X0079587Y0453583D03*
X0134561Y0558874D03*
X0133310Y0575465D03*
X0155300Y0605994D03*
X0142200Y0615394D03*
X0160800Y0518494D03*
X0166900Y0431594D03*
X0190789Y0325323D03*
X0190189Y0285623D03*
X0154021Y0230422D03*
X0164945Y0212940D03*
X0165103Y0202861D03*
X0189630Y0218964D03*
X0130100Y0253294D03*
X0085283Y0303717D03*
X0073239Y0303809D03*
X0046350Y0304194D03*
X0046450Y0331894D03*
X0098683Y0327917D03*
X0073600Y0225094D03*
X0072800Y0211994D03*
X0049100Y0213394D03*
X0089500Y0147294D03*
X0249189Y0260623D03*
X0274589Y0261123D03*
X0275800Y0217694D03*
X0273881Y0311553D03*
X0272682Y0318457D03*
X0257832Y0323057D03*
X0261632Y0357457D03*
X0274932Y0367357D03*
X0267300Y0408394D03*
X0305300Y0477294D03*
X0329980Y0519148D03*
X0330280Y0526048D03*
X0355080Y0508948D03*
X0371449Y0574768D03*
X0371243Y0587475D03*
X0358332Y0587656D03*
X0271400Y0523594D03*
X0267300Y0570094D03*
X0268908Y0579554D03*
X0267857Y0587419D03*
X0269200Y0604494D03*
X0394400Y0430994D03*
X0395000Y0375194D03*
X0394400Y0324994D03*
X0377800Y0184594D03*
X0396700Y0112194D03*
X0396900Y0094994D03*
D26*
X0045224Y0065551D02*
X0044289Y0063933D01*
X0200812Y0063933D01*
X0200660Y0064085D01*
X0199838Y0066070D01*
X0199838Y0074218D01*
X0200660Y0076203D01*
X0202179Y0077722D01*
X0204164Y0078544D01*
X0206312Y0078544D01*
X0208297Y0077722D01*
X0209816Y0076203D01*
X0210238Y0075184D01*
X0210660Y0076203D01*
X0212179Y0077722D01*
X0214164Y0078544D01*
X0216312Y0078544D01*
X0218297Y0077722D01*
X0218574Y0077445D01*
X0218735Y0109727D01*
X0218735Y0130885D01*
X0186505Y0130885D01*
X0186505Y0108615D01*
X0185485Y0106152D01*
X0184872Y0105539D01*
X0184409Y0104421D01*
X0186834Y0106846D01*
X0190116Y0108205D01*
X0193667Y0108205D01*
X0196948Y0106846D01*
X0199460Y0104335D01*
X0200819Y0101054D01*
X0200819Y0097502D01*
X0199460Y0094221D01*
X0196948Y0091710D01*
X0193667Y0090350D01*
X0190116Y0090350D01*
X0186834Y0091710D01*
X0184323Y0094221D01*
X0182964Y0097502D01*
X0182964Y0101054D01*
X0184187Y0104006D01*
X0182790Y0102609D01*
X0180853Y0101807D01*
X0178756Y0101807D01*
X0176819Y0102609D01*
X0175337Y0104092D01*
X0174883Y0105187D01*
X0174430Y0104092D01*
X0172947Y0102609D01*
X0171010Y0101807D01*
X0168914Y0101807D01*
X0166977Y0102609D01*
X0166025Y0103561D01*
X0165073Y0102609D01*
X0163136Y0101807D01*
X0161040Y0101807D01*
X0159103Y0102609D01*
X0157620Y0104092D01*
X0157167Y0105187D01*
X0156713Y0104092D01*
X0155231Y0102609D01*
X0153294Y0101807D01*
X0151197Y0101807D01*
X0149260Y0102609D01*
X0147864Y0104006D01*
X0149087Y0101054D01*
X0149087Y0097502D01*
X0147727Y0094221D01*
X0145216Y0091710D01*
X0141935Y0090350D01*
X0138383Y0090350D01*
X0135102Y0091710D01*
X0132591Y0094221D01*
X0131231Y0097502D01*
X0131231Y0101054D01*
X0132591Y0104335D01*
X0135102Y0106846D01*
X0138383Y0108205D01*
X0141935Y0108205D01*
X0145216Y0106846D01*
X0147642Y0104421D01*
X0146976Y0106029D01*
X0146976Y0113866D01*
X0147778Y0115803D01*
X0149260Y0117285D01*
X0151197Y0118087D01*
X0153294Y0118087D01*
X0155231Y0117285D01*
X0156713Y0115803D01*
X0157167Y0114708D01*
X0157620Y0115803D01*
X0159103Y0117285D01*
X0161040Y0118087D01*
X0163136Y0118087D01*
X0165073Y0117285D01*
X0166025Y0116333D01*
X0166977Y0117285D01*
X0168914Y0118087D01*
X0171010Y0118087D01*
X0172947Y0117285D01*
X0173105Y0117128D01*
X0173105Y0136280D01*
X0174125Y0138742D01*
X0176763Y0141380D01*
X0178647Y0143265D01*
X0181110Y0144285D01*
X0224878Y0144285D01*
X0227340Y0143265D01*
X0229230Y0141375D01*
X0229230Y0141375D01*
X0239172Y0131433D01*
X0272657Y0131433D01*
X0273203Y0131207D01*
X0300916Y0158919D01*
X0300916Y0258333D01*
X0293792Y0258333D01*
X0293671Y0258383D01*
X0292370Y0258383D01*
X0291450Y0259303D01*
X0291329Y0259353D01*
X0289444Y0261238D01*
X0289394Y0261359D01*
X0288474Y0262279D01*
X0288474Y0263580D01*
X0288424Y0263700D01*
X0288424Y0266366D01*
X0288474Y0266486D01*
X0288474Y0267788D01*
X0289394Y0268708D01*
X0289444Y0268828D01*
X0291329Y0270713D01*
X0291450Y0270763D01*
X0292370Y0271683D01*
X0293671Y0271683D01*
X0293792Y0271733D01*
X0300916Y0271733D01*
X0300916Y0288757D01*
X0300660Y0289013D01*
X0300294Y0289895D01*
X0300294Y0300692D01*
X0300660Y0301574D01*
X0301335Y0302250D01*
X0302217Y0302615D01*
X0307101Y0302615D01*
X0304551Y0304087D01*
X0302409Y0306229D01*
X0300894Y0308853D01*
X0300110Y0311779D01*
X0300110Y0314808D01*
X0300894Y0317735D01*
X0302409Y0320358D01*
X0304551Y0322500D01*
X0307175Y0324015D01*
X0310101Y0324799D01*
X0313130Y0324799D01*
X0316057Y0324015D01*
X0318680Y0322500D01*
X0320822Y0320358D01*
X0322337Y0317735D01*
X0323121Y0314808D01*
X0323121Y0311779D01*
X0322337Y0308853D01*
X0320822Y0306229D01*
X0318680Y0304087D01*
X0316057Y0302572D01*
X0314098Y0302048D01*
X0314572Y0301574D01*
X0314937Y0300692D01*
X0314937Y0289895D01*
X0314572Y0289013D01*
X0314316Y0288757D01*
X0314316Y0159951D01*
X0327698Y0146569D01*
X0328032Y0146430D01*
X0329439Y0145024D01*
X0330200Y0143186D01*
X0330200Y0141197D01*
X0329439Y0139359D01*
X0328032Y0137953D01*
X0327698Y0137814D01*
X0326395Y0136511D01*
X0323933Y0135491D01*
X0321267Y0135491D01*
X0318805Y0136511D01*
X0317502Y0137814D01*
X0317168Y0137953D01*
X0315761Y0139359D01*
X0315623Y0139693D01*
X0308131Y0147185D01*
X0284930Y0123983D01*
X0284930Y0108615D01*
X0283910Y0106152D01*
X0283297Y0105539D01*
X0282834Y0104421D01*
X0285259Y0106846D01*
X0288541Y0108205D01*
X0292092Y0108205D01*
X0295374Y0106846D01*
X0297885Y0104335D01*
X0299244Y0101054D01*
X0299244Y0097502D01*
X0297885Y0094221D01*
X0295374Y0091710D01*
X0292092Y0090350D01*
X0288541Y0090350D01*
X0285259Y0091710D01*
X0282748Y0094221D01*
X0281389Y0097502D01*
X0281389Y0101054D01*
X0282612Y0104006D01*
X0281215Y0102609D01*
X0279278Y0101807D01*
X0277182Y0101807D01*
X0275245Y0102609D01*
X0273762Y0104092D01*
X0273309Y0105187D01*
X0272855Y0104092D01*
X0271373Y0102609D01*
X0269436Y0101807D01*
X0267339Y0101807D01*
X0265402Y0102609D01*
X0264450Y0103561D01*
X0263499Y0102609D01*
X0261562Y0101807D01*
X0259465Y0101807D01*
X0257528Y0102609D01*
X0256046Y0104092D01*
X0255592Y0105187D01*
X0255139Y0104092D01*
X0253656Y0102609D01*
X0251719Y0101807D01*
X0249623Y0101807D01*
X0247686Y0102609D01*
X0246289Y0104006D01*
X0247512Y0101054D01*
X0247512Y0097502D01*
X0246153Y0094221D01*
X0243641Y0091710D01*
X0240360Y0090350D01*
X0236808Y0090350D01*
X0233527Y0091710D01*
X0232170Y0093067D01*
X0231938Y0070093D01*
X0231931Y0068778D01*
X0231924Y0068762D01*
X0231924Y0068744D01*
X0231408Y0067533D01*
X0230899Y0066321D01*
X0230886Y0066308D01*
X0230879Y0066292D01*
X0230627Y0066045D01*
X0229816Y0064085D01*
X0229663Y0063933D01*
X0386186Y0063933D01*
X0385252Y0065551D01*
X0384441Y0068578D01*
X0384441Y0071711D01*
X0385252Y0074737D01*
X0386818Y0077450D01*
X0389034Y0079666D01*
X0391747Y0081232D01*
X0394774Y0082043D01*
X0397907Y0082043D01*
X0400933Y0081232D01*
X0402551Y0080298D01*
X0402551Y0615108D01*
X0400933Y0614174D01*
X0397907Y0613363D01*
X0394774Y0613363D01*
X0391747Y0614174D01*
X0389034Y0615740D01*
X0386818Y0617956D01*
X0385252Y0620669D01*
X0384441Y0623696D01*
X0384441Y0626829D01*
X0385252Y0629855D01*
X0386186Y0631473D01*
X0229663Y0631473D01*
X0229816Y0631321D01*
X0230638Y0629336D01*
X0230638Y0621188D01*
X0229816Y0619203D01*
X0228297Y0617684D01*
X0226312Y0616862D01*
X0224164Y0616862D01*
X0222179Y0617684D01*
X0220660Y0619203D01*
X0220238Y0620222D01*
X0219816Y0619203D01*
X0218297Y0617684D01*
X0216312Y0616862D01*
X0214164Y0616862D01*
X0212179Y0617684D01*
X0210660Y0619203D01*
X0210238Y0620222D01*
X0209816Y0619203D01*
X0208297Y0617684D01*
X0206312Y0616862D01*
X0204164Y0616862D01*
X0202179Y0617684D01*
X0200660Y0619203D01*
X0199838Y0621188D01*
X0199838Y0629336D01*
X0200660Y0631321D01*
X0200812Y0631473D01*
X0044289Y0631473D01*
X0045224Y0629855D01*
X0046035Y0626829D01*
X0046035Y0623696D01*
X0045224Y0620669D01*
X0043657Y0617956D01*
X0041442Y0615740D01*
X0038728Y0614174D01*
X0035702Y0613363D01*
X0032569Y0613363D01*
X0029542Y0614174D01*
X0027924Y0615108D01*
X0027924Y0080298D01*
X0029542Y0081232D01*
X0032569Y0082043D01*
X0035702Y0082043D01*
X0038728Y0081232D01*
X0041442Y0079666D01*
X0043657Y0077450D01*
X0045224Y0074737D01*
X0046035Y0071711D01*
X0046035Y0068578D01*
X0045224Y0065551D01*
X0044750Y0064730D02*
X0200393Y0064730D01*
X0199838Y0067929D02*
X0045861Y0067929D01*
X0046035Y0071127D02*
X0199838Y0071127D01*
X0199882Y0074326D02*
X0045334Y0074326D01*
X0043583Y0077524D02*
X0201981Y0077524D01*
X0208494Y0077524D02*
X0211981Y0077524D01*
X0218494Y0077524D02*
X0218574Y0077524D01*
X0218590Y0080723D02*
X0039611Y0080723D01*
X0028660Y0080723D02*
X0027924Y0080723D01*
X0027924Y0083921D02*
X0218606Y0083921D01*
X0218622Y0087120D02*
X0027924Y0087120D01*
X0027924Y0090318D02*
X0218638Y0090318D01*
X0218654Y0093517D02*
X0198756Y0093517D01*
X0200493Y0096715D02*
X0218670Y0096715D01*
X0218686Y0099914D02*
X0200819Y0099914D01*
X0199966Y0103112D02*
X0218702Y0103112D01*
X0218718Y0106311D02*
X0197484Y0106311D01*
X0186299Y0106311D02*
X0185550Y0106311D01*
X0186505Y0109509D02*
X0218734Y0109509D01*
X0218735Y0112708D02*
X0186505Y0112708D01*
X0186505Y0115906D02*
X0218735Y0115906D01*
X0218735Y0119105D02*
X0186505Y0119105D01*
X0186505Y0122303D02*
X0218735Y0122303D01*
X0218735Y0125502D02*
X0186505Y0125502D01*
X0186505Y0128700D02*
X0218735Y0128700D01*
X0229111Y0141494D02*
X0283491Y0141494D01*
X0280292Y0138296D02*
X0232309Y0138296D01*
X0235508Y0135097D02*
X0277094Y0135097D01*
X0273895Y0131899D02*
X0238706Y0131899D01*
X0246659Y0103112D02*
X0247183Y0103112D01*
X0247512Y0099914D02*
X0281389Y0099914D01*
X0281718Y0103112D02*
X0282242Y0103112D01*
X0283976Y0106311D02*
X0284724Y0106311D01*
X0284930Y0109509D02*
X0402551Y0109509D01*
X0402551Y0106311D02*
X0295909Y0106311D01*
X0298391Y0103112D02*
X0402551Y0103112D01*
X0402551Y0099914D02*
X0299244Y0099914D01*
X0298918Y0096715D02*
X0402551Y0096715D01*
X0402551Y0093517D02*
X0297181Y0093517D01*
X0283452Y0093517D02*
X0245448Y0093517D01*
X0247186Y0096715D02*
X0281715Y0096715D01*
X0274742Y0103112D02*
X0271875Y0103112D01*
X0264899Y0103112D02*
X0264001Y0103112D01*
X0257025Y0103112D02*
X0254159Y0103112D01*
X0232142Y0090318D02*
X0402551Y0090318D01*
X0402551Y0087120D02*
X0232110Y0087120D01*
X0232077Y0083921D02*
X0402551Y0083921D01*
X0402551Y0080723D02*
X0401816Y0080723D01*
X0390864Y0080723D02*
X0232045Y0080723D01*
X0232013Y0077524D02*
X0386892Y0077524D01*
X0385142Y0074326D02*
X0231980Y0074326D01*
X0231948Y0071127D02*
X0384441Y0071127D01*
X0384615Y0067929D02*
X0231577Y0067929D01*
X0230083Y0064730D02*
X0385726Y0064730D01*
X0402551Y0112708D02*
X0284930Y0112708D01*
X0284930Y0115906D02*
X0402551Y0115906D01*
X0402551Y0119105D02*
X0284930Y0119105D01*
X0284930Y0122303D02*
X0402551Y0122303D01*
X0402551Y0125502D02*
X0286449Y0125502D01*
X0289647Y0128700D02*
X0402551Y0128700D01*
X0402551Y0131899D02*
X0292846Y0131899D01*
X0296044Y0135097D02*
X0402551Y0135097D01*
X0402551Y0138296D02*
X0368376Y0138296D01*
X0368032Y0137953D02*
X0369439Y0139359D01*
X0370200Y0141197D01*
X0370200Y0143186D01*
X0369439Y0145024D01*
X0368032Y0146430D01*
X0366195Y0147191D01*
X0359005Y0147191D01*
X0357168Y0146430D01*
X0355761Y0145024D01*
X0355000Y0143186D01*
X0355000Y0141197D01*
X0355761Y0139359D01*
X0357168Y0137953D01*
X0359005Y0137191D01*
X0366195Y0137191D01*
X0368032Y0137953D01*
X0370200Y0141494D02*
X0402551Y0141494D01*
X0402551Y0144693D02*
X0369576Y0144693D01*
X0355624Y0144693D02*
X0329576Y0144693D01*
X0330200Y0141494D02*
X0355000Y0141494D01*
X0356824Y0138296D02*
X0328376Y0138296D01*
X0326375Y0147891D02*
X0402551Y0147891D01*
X0402551Y0151090D02*
X0323177Y0151090D01*
X0319978Y0154288D02*
X0331565Y0154288D01*
X0332424Y0153429D02*
X0335144Y0152302D01*
X0348088Y0152302D01*
X0350808Y0153429D01*
X0352889Y0155511D01*
X0354016Y0158230D01*
X0354016Y0161174D01*
X0352889Y0163894D01*
X0350808Y0165976D01*
X0348088Y0167102D01*
X0335144Y0167102D01*
X0332424Y0165976D01*
X0330342Y0163894D01*
X0329216Y0161174D01*
X0329216Y0158230D01*
X0330342Y0155511D01*
X0332424Y0153429D01*
X0329524Y0157487D02*
X0316780Y0157487D01*
X0314316Y0160685D02*
X0329216Y0160685D01*
X0330338Y0163884D02*
X0314316Y0163884D01*
X0314316Y0167082D02*
X0335096Y0167082D01*
X0348136Y0167082D02*
X0402551Y0167082D01*
X0402551Y0163884D02*
X0352893Y0163884D01*
X0354016Y0160685D02*
X0402551Y0160685D01*
X0402551Y0157487D02*
X0353708Y0157487D01*
X0351667Y0154288D02*
X0402551Y0154288D01*
X0402551Y0170281D02*
X0314316Y0170281D01*
X0314316Y0173479D02*
X0402551Y0173479D01*
X0402551Y0176678D02*
X0314316Y0176678D01*
X0314316Y0179877D02*
X0402551Y0179877D01*
X0402551Y0183075D02*
X0314316Y0183075D01*
X0314316Y0186274D02*
X0402551Y0186274D01*
X0402551Y0189472D02*
X0314316Y0189472D01*
X0314316Y0192671D02*
X0402551Y0192671D01*
X0402551Y0195869D02*
X0314316Y0195869D01*
X0314316Y0199068D02*
X0402551Y0199068D01*
X0402551Y0202266D02*
X0314316Y0202266D01*
X0314316Y0205465D02*
X0402551Y0205465D01*
X0402551Y0208663D02*
X0314316Y0208663D01*
X0314316Y0211862D02*
X0402551Y0211862D01*
X0402551Y0215060D02*
X0314316Y0215060D01*
X0314316Y0218259D02*
X0402551Y0218259D01*
X0402551Y0221457D02*
X0314316Y0221457D01*
X0314316Y0224656D02*
X0402551Y0224656D01*
X0402551Y0227854D02*
X0314316Y0227854D01*
X0314316Y0231053D02*
X0402551Y0231053D01*
X0402551Y0234251D02*
X0381796Y0234251D01*
X0381170Y0233625D02*
X0382633Y0235087D01*
X0383424Y0236999D01*
X0383424Y0239067D01*
X0382633Y0240979D01*
X0381170Y0242441D01*
X0379742Y0243033D01*
X0381170Y0243625D01*
X0382633Y0245087D01*
X0383424Y0246999D01*
X0383424Y0249067D01*
X0382633Y0250979D01*
X0381170Y0252441D01*
X0379259Y0253233D01*
X0371590Y0253233D01*
X0369679Y0252441D01*
X0368216Y0250979D01*
X0367424Y0249067D01*
X0367424Y0246999D01*
X0368216Y0245087D01*
X0369679Y0243625D01*
X0371107Y0243033D01*
X0369679Y0242441D01*
X0368216Y0240979D01*
X0367424Y0239067D01*
X0367424Y0236999D01*
X0368216Y0235087D01*
X0369679Y0233625D01*
X0371590Y0232833D01*
X0379259Y0232833D01*
X0381170Y0233625D01*
X0383424Y0237450D02*
X0402551Y0237450D01*
X0402551Y0240648D02*
X0382770Y0240648D01*
X0381392Y0243847D02*
X0402551Y0243847D01*
X0402551Y0247045D02*
X0383424Y0247045D01*
X0382937Y0250244D02*
X0402551Y0250244D01*
X0402551Y0253442D02*
X0351941Y0253442D01*
X0352889Y0252494D02*
X0350808Y0254576D01*
X0348088Y0255702D01*
X0335144Y0255702D01*
X0332424Y0254576D01*
X0330342Y0252494D01*
X0329216Y0249774D01*
X0329216Y0246830D01*
X0330342Y0244111D01*
X0332424Y0242029D01*
X0335144Y0240902D01*
X0348088Y0240902D01*
X0350808Y0242029D01*
X0352889Y0244111D01*
X0354016Y0246830D01*
X0354016Y0249774D01*
X0352889Y0252494D01*
X0353821Y0250244D02*
X0367912Y0250244D01*
X0367424Y0247045D02*
X0354016Y0247045D01*
X0352625Y0243847D02*
X0369457Y0243847D01*
X0368079Y0240648D02*
X0314316Y0240648D01*
X0314316Y0237450D02*
X0367424Y0237450D01*
X0369052Y0234251D02*
X0314316Y0234251D01*
X0314316Y0243847D02*
X0330606Y0243847D01*
X0329216Y0247045D02*
X0314316Y0247045D01*
X0314316Y0250244D02*
X0329410Y0250244D01*
X0331290Y0253442D02*
X0314316Y0253442D01*
X0314316Y0256641D02*
X0402551Y0256641D01*
X0402551Y0259839D02*
X0391835Y0259839D01*
X0390379Y0258383D02*
X0394274Y0262279D01*
X0394274Y0267788D01*
X0390379Y0271683D01*
X0384870Y0271683D01*
X0380974Y0267788D01*
X0380974Y0262279D01*
X0384870Y0258383D01*
X0390379Y0258383D01*
X0394274Y0263038D02*
X0402551Y0263038D01*
X0402551Y0266236D02*
X0394274Y0266236D01*
X0392627Y0269435D02*
X0402551Y0269435D01*
X0402551Y0272633D02*
X0314316Y0272633D01*
X0314316Y0269435D02*
X0382622Y0269435D01*
X0380974Y0266236D02*
X0314316Y0266236D01*
X0314316Y0263038D02*
X0380974Y0263038D01*
X0383414Y0259839D02*
X0314316Y0259839D01*
X0300916Y0256641D02*
X0267721Y0256641D01*
X0269332Y0258252D02*
X0269332Y0261089D01*
X0269332Y0263926D01*
X0265319Y0267939D01*
X0262482Y0267939D01*
X0262482Y0261089D01*
X0269332Y0261089D01*
X0262482Y0261089D01*
X0262482Y0261089D01*
X0262482Y0261089D01*
X0262482Y0254239D01*
X0265319Y0254239D01*
X0269332Y0258252D01*
X0269332Y0259839D02*
X0290843Y0259839D01*
X0288474Y0263038D02*
X0269332Y0263038D01*
X0267022Y0266236D02*
X0288424Y0266236D01*
X0290051Y0269435D02*
X0251980Y0269435D01*
X0252633Y0270088D02*
X0253424Y0271999D01*
X0253424Y0279667D01*
X0252633Y0281579D01*
X0251170Y0283041D01*
X0249259Y0283833D01*
X0247190Y0283833D01*
X0245279Y0283041D01*
X0243816Y0281579D01*
X0243224Y0280150D01*
X0242633Y0281579D01*
X0241170Y0283041D01*
X0239259Y0283833D01*
X0237190Y0283833D01*
X0235279Y0283041D01*
X0233816Y0281579D01*
X0233024Y0279667D01*
X0233024Y0271999D01*
X0233816Y0270088D01*
X0235279Y0268625D01*
X0237190Y0267833D01*
X0239259Y0267833D01*
X0241170Y0268625D01*
X0242633Y0270088D01*
X0243224Y0271516D01*
X0243816Y0270088D01*
X0245279Y0268625D01*
X0247190Y0267833D01*
X0249259Y0267833D01*
X0251170Y0268625D01*
X0252633Y0270088D01*
X0253424Y0272633D02*
X0300916Y0272633D01*
X0300916Y0275832D02*
X0253424Y0275832D01*
X0253424Y0279030D02*
X0300916Y0279030D01*
X0300916Y0282229D02*
X0251983Y0282229D01*
X0249917Y0284035D02*
X0252379Y0285055D01*
X0264264Y0296939D01*
X0265284Y0299402D01*
X0265284Y0302067D01*
X0264264Y0304530D01*
X0262388Y0306406D01*
X0264334Y0308353D01*
X0264334Y0310735D01*
X0264334Y0313116D01*
X0260966Y0316485D01*
X0258584Y0316485D01*
X0256203Y0316485D01*
X0252834Y0313116D01*
X0252834Y0310735D01*
X0258584Y0310735D01*
X0258584Y0316485D01*
X0258584Y0310735D01*
X0258584Y0310735D01*
X0258584Y0310735D01*
X0252834Y0310735D01*
X0252834Y0308353D01*
X0254781Y0306406D01*
X0245809Y0297435D01*
X0233209Y0297435D01*
X0233070Y0297573D01*
X0231232Y0298335D01*
X0229243Y0298335D01*
X0227406Y0297573D01*
X0225999Y0296167D01*
X0225861Y0295833D01*
X0224980Y0294952D01*
X0224477Y0296167D01*
X0223070Y0297573D01*
X0221232Y0298335D01*
X0219243Y0298335D01*
X0217406Y0297573D01*
X0215999Y0296167D01*
X0215238Y0294329D01*
X0214477Y0296167D01*
X0213070Y0297573D01*
X0211232Y0298335D01*
X0209243Y0298335D01*
X0207406Y0297573D01*
X0205999Y0296167D01*
X0205238Y0294329D01*
X0204477Y0296167D01*
X0203070Y0297573D01*
X0201232Y0298335D01*
X0199243Y0298335D01*
X0197406Y0297573D01*
X0195999Y0296167D01*
X0195238Y0294329D01*
X0195238Y0287140D01*
X0195999Y0285302D01*
X0197406Y0283896D01*
X0199243Y0283135D01*
X0201232Y0283135D01*
X0203070Y0283896D01*
X0204477Y0285302D01*
X0205238Y0287140D01*
X0205238Y0294329D01*
X0205238Y0287140D01*
X0205999Y0285302D01*
X0207406Y0283896D01*
X0209243Y0283135D01*
X0211232Y0283135D01*
X0213070Y0283896D01*
X0214477Y0285302D01*
X0215238Y0287140D01*
X0215238Y0294329D01*
X0215238Y0287140D01*
X0215999Y0285302D01*
X0217406Y0283896D01*
X0219243Y0283135D01*
X0221232Y0283135D01*
X0223070Y0283896D01*
X0224477Y0285302D01*
X0224980Y0286517D01*
X0225861Y0285637D01*
X0225999Y0285302D01*
X0227406Y0283896D01*
X0229243Y0283135D01*
X0231232Y0283135D01*
X0233070Y0283896D01*
X0233209Y0284035D01*
X0249917Y0284035D01*
X0252752Y0285427D02*
X0300916Y0285427D01*
X0300916Y0288626D02*
X0255951Y0288626D01*
X0259149Y0291824D02*
X0300294Y0291824D01*
X0300294Y0295023D02*
X0262348Y0295023D01*
X0264795Y0298221D02*
X0300294Y0298221D01*
X0300596Y0301420D02*
X0265284Y0301420D01*
X0264176Y0304618D02*
X0304020Y0304618D01*
X0301492Y0307817D02*
X0263798Y0307817D01*
X0264334Y0310735D02*
X0258584Y0310735D01*
X0264334Y0310735D01*
X0264334Y0311015D02*
X0300315Y0311015D01*
X0300110Y0314214D02*
X0263237Y0314214D01*
X0258584Y0314214D02*
X0258584Y0314214D01*
X0258584Y0311015D02*
X0258584Y0311015D01*
X0258584Y0310735D02*
X0258584Y0310735D01*
X0252834Y0311015D02*
X0154432Y0311015D01*
X0157631Y0307817D02*
X0253370Y0307817D01*
X0252993Y0304618D02*
X0160829Y0304618D01*
X0164028Y0301420D02*
X0249794Y0301420D01*
X0246596Y0298221D02*
X0231506Y0298221D01*
X0228970Y0298221D02*
X0221506Y0298221D01*
X0218970Y0298221D02*
X0211506Y0298221D01*
X0208970Y0298221D02*
X0201506Y0298221D01*
X0198970Y0298221D02*
X0167226Y0298221D01*
X0170425Y0295023D02*
X0195525Y0295023D01*
X0195238Y0291824D02*
X0173623Y0291824D01*
X0175918Y0289530D02*
X0142576Y0322871D01*
X0140114Y0323891D01*
X0101878Y0323891D01*
X0099415Y0322871D01*
X0097538Y0320995D01*
X0095592Y0322941D01*
X0093210Y0322941D01*
X0090829Y0322941D01*
X0087460Y0319573D01*
X0087460Y0317191D01*
X0087460Y0314810D01*
X0090829Y0311441D01*
X0093210Y0311441D01*
X0093210Y0317191D01*
X0093210Y0317191D01*
X0087460Y0317191D01*
X0093210Y0317191D01*
X0093210Y0317191D01*
X0093210Y0311441D01*
X0095592Y0311441D01*
X0097538Y0313388D01*
X0099415Y0311511D01*
X0101878Y0310491D01*
X0136006Y0310491D01*
X0163538Y0282959D01*
X0163538Y0265107D01*
X0160906Y0267739D01*
X0155397Y0267739D01*
X0151501Y0263843D01*
X0151501Y0258334D01*
X0155397Y0254439D01*
X0160906Y0254439D01*
X0163538Y0257071D01*
X0163538Y0242591D01*
X0164558Y0240128D01*
X0171723Y0232963D01*
X0173608Y0231078D01*
X0176070Y0230058D01*
X0203524Y0230058D01*
X0203524Y0226182D01*
X0203173Y0226438D01*
X0202387Y0226838D01*
X0201549Y0227110D01*
X0200679Y0227248D01*
X0200238Y0227248D01*
X0200238Y0218648D01*
X0200238Y0210048D01*
X0200679Y0210048D01*
X0201549Y0210186D01*
X0202387Y0210458D01*
X0203173Y0210858D01*
X0203886Y0211377D01*
X0204509Y0212000D01*
X0205027Y0212713D01*
X0205348Y0213342D01*
X0205660Y0212589D01*
X0207179Y0211070D01*
X0209164Y0210248D01*
X0211312Y0210248D01*
X0213297Y0211070D01*
X0214816Y0212589D01*
X0215238Y0213608D01*
X0215660Y0212589D01*
X0217179Y0211070D01*
X0219164Y0210248D01*
X0221312Y0210248D01*
X0223297Y0211070D01*
X0224816Y0212589D01*
X0225238Y0213608D01*
X0225660Y0212589D01*
X0227179Y0211070D01*
X0229164Y0210248D01*
X0231312Y0210248D01*
X0233297Y0211070D01*
X0234816Y0212589D01*
X0235638Y0214574D01*
X0235638Y0222722D01*
X0234816Y0224707D01*
X0233297Y0226226D01*
X0231312Y0227048D01*
X0229164Y0227048D01*
X0227179Y0226226D01*
X0225660Y0224707D01*
X0225238Y0223688D01*
X0224816Y0224707D01*
X0223297Y0226226D01*
X0221312Y0227048D01*
X0219164Y0227048D01*
X0217179Y0226226D01*
X0216924Y0225971D01*
X0216924Y0234966D01*
X0215904Y0237428D01*
X0214020Y0239313D01*
X0212779Y0240553D01*
X0212779Y0240554D01*
X0210894Y0242438D01*
X0208432Y0243458D01*
X0180178Y0243458D01*
X0176938Y0246699D01*
X0176938Y0281681D01*
X0178084Y0280535D01*
X0180238Y0280535D01*
X0182392Y0280535D01*
X0185438Y0283581D01*
X0185438Y0285735D01*
X0185438Y0287889D01*
X0182392Y0290935D01*
X0180238Y0290935D01*
X0180238Y0285735D01*
X0180238Y0285735D01*
X0185438Y0285735D01*
X0180238Y0285735D01*
X0180238Y0285735D01*
X0180238Y0290935D01*
X0178084Y0290935D01*
X0176141Y0288991D01*
X0175918Y0289530D01*
X0180238Y0288626D02*
X0180238Y0288626D01*
X0180238Y0285735D02*
X0180238Y0280535D01*
X0180238Y0285735D01*
X0180238Y0285735D01*
X0180238Y0285427D02*
X0180238Y0285427D01*
X0180238Y0282229D02*
X0180238Y0282229D01*
X0184086Y0282229D02*
X0234466Y0282229D01*
X0233024Y0279030D02*
X0176938Y0279030D01*
X0176938Y0275832D02*
X0233024Y0275832D01*
X0233024Y0272633D02*
X0176938Y0272633D01*
X0176938Y0269435D02*
X0234469Y0269435D01*
X0235238Y0266289D02*
X0232229Y0266289D01*
X0231420Y0266161D01*
X0230642Y0265908D01*
X0229912Y0265536D01*
X0229250Y0265055D01*
X0228671Y0264477D01*
X0228190Y0263814D01*
X0227819Y0263085D01*
X0227566Y0262307D01*
X0227438Y0261498D01*
X0227438Y0261089D01*
X0227438Y0260680D01*
X0227566Y0259871D01*
X0227819Y0259093D01*
X0228190Y0258364D01*
X0228671Y0257701D01*
X0229250Y0257123D01*
X0229912Y0256642D01*
X0230642Y0256270D01*
X0231420Y0256017D01*
X0232229Y0255889D01*
X0235238Y0255889D01*
X0238247Y0255889D01*
X0239055Y0256017D01*
X0239834Y0256270D01*
X0240563Y0256642D01*
X0241225Y0257123D01*
X0241804Y0257701D01*
X0242285Y0258364D01*
X0242657Y0259093D01*
X0242910Y0259871D01*
X0243038Y0260680D01*
X0243038Y0261089D01*
X0243038Y0261498D01*
X0242910Y0262307D01*
X0242657Y0263085D01*
X0242285Y0263814D01*
X0241804Y0264477D01*
X0241225Y0265055D01*
X0240563Y0265536D01*
X0239834Y0265908D01*
X0239055Y0266161D01*
X0238247Y0266289D01*
X0235238Y0266289D01*
X0235238Y0261089D01*
X0243038Y0261089D01*
X0235238Y0261089D01*
X0235238Y0261089D01*
X0235238Y0261089D01*
X0235238Y0255889D01*
X0235238Y0261089D01*
X0235238Y0261089D01*
X0235238Y0266289D01*
X0235238Y0266236D02*
X0235238Y0266236D01*
X0235238Y0263038D02*
X0235238Y0263038D01*
X0235238Y0261089D02*
X0235238Y0261089D01*
X0227438Y0261089D01*
X0235238Y0261089D01*
X0235238Y0259839D02*
X0235238Y0259839D01*
X0235238Y0256641D02*
X0235238Y0256641D01*
X0240562Y0256641D02*
X0257243Y0256641D01*
X0255632Y0258252D02*
X0259645Y0254239D01*
X0262482Y0254239D01*
X0262482Y0261089D01*
X0262482Y0261089D01*
X0262482Y0267939D01*
X0259645Y0267939D01*
X0255632Y0263926D01*
X0255632Y0261089D01*
X0262482Y0261089D01*
X0262482Y0261089D01*
X0255632Y0261089D01*
X0255632Y0258252D01*
X0255632Y0259839D02*
X0242899Y0259839D01*
X0242672Y0263038D02*
X0255632Y0263038D01*
X0257942Y0266236D02*
X0238580Y0266236D01*
X0241980Y0269435D02*
X0244469Y0269435D01*
X0244466Y0282229D02*
X0241983Y0282229D01*
X0231896Y0266236D02*
X0176938Y0266236D01*
X0176938Y0263038D02*
X0188033Y0263038D01*
X0188399Y0263921D02*
X0187638Y0262084D01*
X0187638Y0260094D01*
X0188399Y0258257D01*
X0189806Y0256850D01*
X0191643Y0256089D01*
X0198832Y0256089D01*
X0200670Y0256850D01*
X0202077Y0258257D01*
X0202838Y0260094D01*
X0202838Y0262084D01*
X0202077Y0263921D01*
X0200670Y0265328D01*
X0198832Y0266089D01*
X0191643Y0266089D01*
X0189806Y0265328D01*
X0188399Y0263921D01*
X0187743Y0259839D02*
X0176938Y0259839D01*
X0176938Y0256641D02*
X0190311Y0256641D01*
X0179790Y0243847D02*
X0300916Y0243847D01*
X0300916Y0247045D02*
X0176938Y0247045D01*
X0176938Y0250244D02*
X0300916Y0250244D01*
X0300916Y0253442D02*
X0176938Y0253442D01*
X0163538Y0253442D02*
X0124228Y0253442D01*
X0124228Y0254047D02*
X0123671Y0255392D01*
X0123873Y0255476D01*
X0126362Y0257966D01*
X0127710Y0261218D01*
X0127710Y0264739D01*
X0126362Y0267992D01*
X0123873Y0270481D01*
X0120620Y0271829D01*
X0117099Y0271829D01*
X0113847Y0270481D01*
X0111357Y0267992D01*
X0110010Y0264739D01*
X0110010Y0261218D01*
X0111357Y0257966D01*
X0113847Y0255476D01*
X0114049Y0255392D01*
X0113491Y0254047D01*
X0113491Y0251911D01*
X0114309Y0249938D01*
X0115819Y0248428D01*
X0116629Y0248092D01*
X0115941Y0247741D01*
X0115232Y0247226D01*
X0114612Y0246606D01*
X0114097Y0245897D01*
X0113699Y0245116D01*
X0113428Y0244283D01*
X0113291Y0243417D01*
X0113291Y0242979D01*
X0118860Y0242979D01*
X0124428Y0242979D01*
X0124428Y0243417D01*
X0124291Y0244283D01*
X0124020Y0245116D01*
X0123622Y0245897D01*
X0123107Y0246606D01*
X0122487Y0247226D01*
X0121778Y0247741D01*
X0121090Y0248092D01*
X0121901Y0248428D01*
X0123411Y0249938D01*
X0124228Y0251911D01*
X0124228Y0254047D01*
X0125038Y0256641D02*
X0153195Y0256641D01*
X0151501Y0259839D02*
X0127139Y0259839D01*
X0127710Y0263038D02*
X0151501Y0263038D01*
X0153894Y0266236D02*
X0127090Y0266236D01*
X0124920Y0269435D02*
X0163538Y0269435D01*
X0163538Y0272633D02*
X0027924Y0272633D01*
X0027924Y0269435D02*
X0052800Y0269435D01*
X0053847Y0270481D02*
X0051357Y0267992D01*
X0050010Y0264739D01*
X0050010Y0261218D01*
X0051357Y0257966D01*
X0053491Y0255831D01*
X0053491Y0249533D01*
X0053857Y0248651D01*
X0054532Y0247976D01*
X0055414Y0247610D01*
X0056013Y0247610D01*
X0055819Y0247530D01*
X0054309Y0246020D01*
X0053491Y0244047D01*
X0053491Y0241911D01*
X0054309Y0239938D01*
X0055819Y0238428D01*
X0056902Y0237979D01*
X0055819Y0237530D01*
X0054309Y0236020D01*
X0053491Y0234047D01*
X0053491Y0231911D01*
X0054309Y0229938D01*
X0055819Y0228428D01*
X0056629Y0228092D01*
X0055941Y0227741D01*
X0055232Y0227226D01*
X0054612Y0226606D01*
X0054097Y0225897D01*
X0053699Y0225116D01*
X0053428Y0224283D01*
X0053291Y0223417D01*
X0053291Y0222979D01*
X0058860Y0222979D01*
X0064428Y0222979D01*
X0064428Y0223417D01*
X0064291Y0224283D01*
X0064020Y0225116D01*
X0063622Y0225897D01*
X0063107Y0226606D01*
X0062487Y0227226D01*
X0061778Y0227741D01*
X0061090Y0228092D01*
X0061901Y0228428D01*
X0063411Y0229938D01*
X0064228Y0231911D01*
X0064228Y0234047D01*
X0063411Y0236020D01*
X0061901Y0237530D01*
X0060817Y0237979D01*
X0061901Y0238428D01*
X0063411Y0239938D01*
X0064228Y0241911D01*
X0064228Y0244047D01*
X0063411Y0246020D01*
X0061901Y0247530D01*
X0061707Y0247610D01*
X0062306Y0247610D01*
X0063188Y0247976D01*
X0063863Y0248651D01*
X0064228Y0249533D01*
X0064228Y0255831D01*
X0066363Y0257966D01*
X0067710Y0261218D01*
X0067710Y0264739D01*
X0066363Y0267992D01*
X0063873Y0270481D01*
X0060620Y0271829D01*
X0057099Y0271829D01*
X0053847Y0270481D01*
X0050630Y0266236D02*
X0027924Y0266236D01*
X0027924Y0263038D02*
X0050010Y0263038D01*
X0050581Y0259839D02*
X0027924Y0259839D01*
X0027924Y0256641D02*
X0052682Y0256641D01*
X0053491Y0253442D02*
X0027924Y0253442D01*
X0027924Y0250244D02*
X0053491Y0250244D01*
X0055334Y0247045D02*
X0027924Y0247045D01*
X0027924Y0243847D02*
X0053491Y0243847D01*
X0054014Y0240648D02*
X0027924Y0240648D01*
X0027924Y0237450D02*
X0055739Y0237450D01*
X0053576Y0234251D02*
X0027924Y0234251D01*
X0027924Y0231053D02*
X0053847Y0231053D01*
X0056163Y0227854D02*
X0027924Y0227854D01*
X0027924Y0224656D02*
X0053550Y0224656D01*
X0053291Y0222979D02*
X0053291Y0222540D01*
X0053428Y0221675D01*
X0053699Y0220841D01*
X0054097Y0220060D01*
X0054612Y0219351D01*
X0055232Y0218731D01*
X0055941Y0218216D01*
X0056629Y0217866D01*
X0055819Y0217530D01*
X0054309Y0216020D01*
X0053491Y0214047D01*
X0053491Y0211911D01*
X0054309Y0209938D01*
X0055819Y0208428D01*
X0056902Y0207979D01*
X0055819Y0207530D01*
X0054309Y0206020D01*
X0053491Y0204047D01*
X0053491Y0201911D01*
X0054309Y0199938D01*
X0055819Y0198428D01*
X0056902Y0197979D01*
X0055819Y0197530D01*
X0054309Y0196020D01*
X0053491Y0194047D01*
X0053491Y0191911D01*
X0054309Y0189938D01*
X0055819Y0188428D01*
X0056902Y0187979D01*
X0055819Y0187530D01*
X0054309Y0186020D01*
X0053491Y0184047D01*
X0053491Y0181911D01*
X0054309Y0179938D01*
X0055819Y0178428D01*
X0056902Y0177979D01*
X0055819Y0177530D01*
X0054309Y0176020D01*
X0053491Y0174047D01*
X0053491Y0171911D01*
X0054309Y0169938D01*
X0055819Y0168428D01*
X0056902Y0167979D01*
X0055819Y0167530D01*
X0054309Y0166020D01*
X0053491Y0164047D01*
X0053491Y0161911D01*
X0054309Y0159938D01*
X0055819Y0158428D01*
X0056902Y0157979D01*
X0055819Y0157530D01*
X0054309Y0156020D01*
X0053491Y0154047D01*
X0053491Y0151911D01*
X0054309Y0149938D01*
X0055819Y0148428D01*
X0056902Y0147979D01*
X0055819Y0147530D01*
X0054309Y0146020D01*
X0053491Y0144047D01*
X0053491Y0141911D01*
X0054309Y0139938D01*
X0055819Y0138428D01*
X0056902Y0137979D01*
X0055819Y0137530D01*
X0054309Y0136020D01*
X0053491Y0134047D01*
X0053491Y0131911D01*
X0054309Y0129938D01*
X0055819Y0128428D01*
X0056902Y0127979D01*
X0055819Y0127530D01*
X0054309Y0126020D01*
X0053491Y0124047D01*
X0053491Y0121911D01*
X0054309Y0119938D01*
X0055819Y0118428D01*
X0056902Y0117979D01*
X0055819Y0117530D01*
X0054309Y0116020D01*
X0053491Y0114047D01*
X0053491Y0111911D01*
X0054049Y0110565D01*
X0053847Y0110481D01*
X0051357Y0107992D01*
X0050010Y0104739D01*
X0050010Y0101218D01*
X0051357Y0097966D01*
X0053847Y0095476D01*
X0057099Y0094129D01*
X0060620Y0094129D01*
X0063873Y0095476D01*
X0066363Y0097966D01*
X0067710Y0101218D01*
X0067710Y0104739D01*
X0066363Y0107992D01*
X0063873Y0110481D01*
X0063671Y0110565D01*
X0064228Y0111911D01*
X0064228Y0114047D01*
X0063411Y0116020D01*
X0061901Y0117530D01*
X0060817Y0117979D01*
X0061901Y0118428D01*
X0063411Y0119938D01*
X0064228Y0121911D01*
X0064228Y0124047D01*
X0063411Y0126020D01*
X0061901Y0127530D01*
X0060817Y0127979D01*
X0061901Y0128428D01*
X0063411Y0129938D01*
X0064228Y0131911D01*
X0064228Y0134047D01*
X0063411Y0136020D01*
X0061901Y0137530D01*
X0060817Y0137979D01*
X0061901Y0138428D01*
X0063411Y0139938D01*
X0064228Y0141911D01*
X0064228Y0144047D01*
X0063411Y0146020D01*
X0061901Y0147530D01*
X0060817Y0147979D01*
X0061901Y0148428D01*
X0063411Y0149938D01*
X0064228Y0151911D01*
X0064228Y0154047D01*
X0063411Y0156020D01*
X0061901Y0157530D01*
X0060817Y0157979D01*
X0061901Y0158428D01*
X0063411Y0159938D01*
X0064228Y0161911D01*
X0064228Y0164047D01*
X0063411Y0166020D01*
X0061901Y0167530D01*
X0060817Y0167979D01*
X0061901Y0168428D01*
X0063411Y0169938D01*
X0064228Y0171911D01*
X0064228Y0174047D01*
X0063411Y0176020D01*
X0061901Y0177530D01*
X0060817Y0177979D01*
X0061901Y0178428D01*
X0063411Y0179938D01*
X0064228Y0181911D01*
X0064228Y0184047D01*
X0063411Y0186020D01*
X0061901Y0187530D01*
X0060817Y0187979D01*
X0061901Y0188428D01*
X0063411Y0189938D01*
X0064228Y0191911D01*
X0064228Y0194047D01*
X0063411Y0196020D01*
X0061901Y0197530D01*
X0060817Y0197979D01*
X0061901Y0198428D01*
X0063411Y0199938D01*
X0064228Y0201911D01*
X0064228Y0204047D01*
X0063411Y0206020D01*
X0061901Y0207530D01*
X0060817Y0207979D01*
X0061901Y0208428D01*
X0063411Y0209938D01*
X0064228Y0211911D01*
X0064228Y0214047D01*
X0063411Y0216020D01*
X0061901Y0217530D01*
X0061090Y0217866D01*
X0061778Y0218216D01*
X0062487Y0218731D01*
X0063107Y0219351D01*
X0063622Y0220060D01*
X0064020Y0220841D01*
X0064291Y0221675D01*
X0064428Y0222540D01*
X0064428Y0222979D01*
X0058860Y0222979D01*
X0058860Y0222979D01*
X0058860Y0222979D01*
X0053291Y0222979D01*
X0053499Y0221457D02*
X0027924Y0221457D01*
X0027924Y0218259D02*
X0055883Y0218259D01*
X0053911Y0215060D02*
X0027924Y0215060D01*
X0027924Y0211862D02*
X0053512Y0211862D01*
X0055583Y0208663D02*
X0042096Y0208663D01*
X0043424Y0207335D02*
X0040378Y0210381D01*
X0038224Y0210381D01*
X0036070Y0210381D01*
X0033024Y0207335D01*
X0033024Y0205181D01*
X0033024Y0203027D01*
X0036012Y0200040D01*
X0033224Y0197252D01*
X0033224Y0193110D01*
X0036153Y0190181D01*
X0040295Y0190181D01*
X0043224Y0193110D01*
X0043224Y0197252D01*
X0040437Y0200040D01*
X0043424Y0203027D01*
X0043424Y0205181D01*
X0038225Y0205181D01*
X0038225Y0205181D01*
X0043424Y0205181D01*
X0043424Y0207335D01*
X0043424Y0205465D02*
X0054079Y0205465D01*
X0053491Y0202266D02*
X0042663Y0202266D01*
X0041409Y0199068D02*
X0055179Y0199068D01*
X0054246Y0195869D02*
X0043224Y0195869D01*
X0042785Y0192671D02*
X0053491Y0192671D01*
X0054774Y0189472D02*
X0027924Y0189472D01*
X0027924Y0186274D02*
X0054562Y0186274D01*
X0053491Y0183075D02*
X0027924Y0183075D01*
X0027924Y0179877D02*
X0054370Y0179877D01*
X0054967Y0176678D02*
X0041402Y0176678D01*
X0040095Y0177985D02*
X0035953Y0177985D01*
X0033024Y0175056D01*
X0033024Y0170914D01*
X0035953Y0167985D01*
X0040095Y0167985D01*
X0043024Y0170914D01*
X0043024Y0175056D01*
X0040095Y0177985D01*
X0043024Y0173479D02*
X0053491Y0173479D01*
X0054166Y0170281D02*
X0042391Y0170281D01*
X0033657Y0170281D02*
X0027924Y0170281D01*
X0027924Y0173479D02*
X0033024Y0173479D01*
X0034646Y0176678D02*
X0027924Y0176678D01*
X0027924Y0167082D02*
X0055371Y0167082D01*
X0053491Y0163884D02*
X0027924Y0163884D01*
X0027924Y0160685D02*
X0053999Y0160685D01*
X0055776Y0157487D02*
X0027924Y0157487D01*
X0027924Y0154288D02*
X0053591Y0154288D01*
X0053831Y0151090D02*
X0027924Y0151090D01*
X0027924Y0147891D02*
X0056691Y0147891D01*
X0061028Y0147891D02*
X0116691Y0147891D01*
X0116902Y0147979D02*
X0115819Y0147530D01*
X0114309Y0146020D01*
X0113491Y0144047D01*
X0113491Y0141911D01*
X0114309Y0139938D01*
X0115819Y0138428D01*
X0116902Y0137979D01*
X0115819Y0137530D01*
X0114309Y0136020D01*
X0113491Y0134047D01*
X0113491Y0131911D01*
X0114309Y0129938D01*
X0115819Y0128428D01*
X0116902Y0127979D01*
X0115819Y0127530D01*
X0114309Y0126020D01*
X0113491Y0124047D01*
X0113491Y0121911D01*
X0114309Y0119938D01*
X0115819Y0118428D01*
X0116902Y0117979D01*
X0115819Y0117530D01*
X0114309Y0116020D01*
X0113491Y0114047D01*
X0113491Y0111911D01*
X0114049Y0110565D01*
X0113847Y0110481D01*
X0111357Y0107992D01*
X0110010Y0104739D01*
X0110010Y0101218D01*
X0111357Y0097966D01*
X0113847Y0095476D01*
X0117099Y0094129D01*
X0120620Y0094129D01*
X0123873Y0095476D01*
X0126362Y0097966D01*
X0127710Y0101218D01*
X0127710Y0104739D01*
X0126362Y0107992D01*
X0123873Y0110481D01*
X0123671Y0110565D01*
X0124228Y0111911D01*
X0124228Y0114047D01*
X0123411Y0116020D01*
X0121901Y0117530D01*
X0120817Y0117979D01*
X0121901Y0118428D01*
X0123411Y0119938D01*
X0124228Y0121911D01*
X0124228Y0124047D01*
X0123411Y0126020D01*
X0121901Y0127530D01*
X0120817Y0127979D01*
X0121901Y0128428D01*
X0123411Y0129938D01*
X0124228Y0131911D01*
X0124228Y0134047D01*
X0123411Y0136020D01*
X0121901Y0137530D01*
X0120817Y0137979D01*
X0121901Y0138428D01*
X0123411Y0139938D01*
X0124228Y0141911D01*
X0124228Y0144047D01*
X0123411Y0146020D01*
X0121901Y0147530D01*
X0120817Y0147979D01*
X0121901Y0148428D01*
X0123411Y0149938D01*
X0124228Y0151911D01*
X0124228Y0154047D01*
X0123411Y0156020D01*
X0121901Y0157530D01*
X0120817Y0157979D01*
X0121901Y0158428D01*
X0123411Y0159938D01*
X0124228Y0161911D01*
X0124228Y0164047D01*
X0123411Y0166020D01*
X0121901Y0167530D01*
X0120817Y0167979D01*
X0121901Y0168428D01*
X0123411Y0169938D01*
X0124228Y0171911D01*
X0124228Y0174047D01*
X0123411Y0176020D01*
X0121901Y0177530D01*
X0120817Y0177979D01*
X0121901Y0178428D01*
X0123411Y0179938D01*
X0124228Y0181911D01*
X0124228Y0184047D01*
X0123411Y0186020D01*
X0121901Y0187530D01*
X0120817Y0187979D01*
X0121901Y0188428D01*
X0123411Y0189938D01*
X0124228Y0191911D01*
X0124228Y0194047D01*
X0123411Y0196020D01*
X0121901Y0197530D01*
X0120817Y0197979D01*
X0121901Y0198428D01*
X0123411Y0199938D01*
X0124228Y0201911D01*
X0124228Y0204047D01*
X0123411Y0206020D01*
X0121901Y0207530D01*
X0120817Y0207979D01*
X0121901Y0208428D01*
X0123411Y0209938D01*
X0124228Y0211911D01*
X0124228Y0214047D01*
X0123411Y0216020D01*
X0121901Y0217530D01*
X0120817Y0217979D01*
X0121901Y0218428D01*
X0123411Y0219938D01*
X0124228Y0221911D01*
X0124228Y0224047D01*
X0123411Y0226020D01*
X0121901Y0227530D01*
X0120817Y0227979D01*
X0121901Y0228428D01*
X0123411Y0229938D01*
X0124228Y0231911D01*
X0124228Y0234047D01*
X0123411Y0236020D01*
X0121901Y0237530D01*
X0121090Y0237866D01*
X0121778Y0238216D01*
X0122487Y0238731D01*
X0123107Y0239351D01*
X0123622Y0240060D01*
X0124020Y0240841D01*
X0124291Y0241675D01*
X0124428Y0242540D01*
X0124428Y0242979D01*
X0118860Y0242979D01*
X0118860Y0242979D01*
X0118860Y0242979D01*
X0113291Y0242979D01*
X0113291Y0242540D01*
X0113428Y0241675D01*
X0113699Y0240841D01*
X0114097Y0240060D01*
X0114612Y0239351D01*
X0115232Y0238731D01*
X0115941Y0238216D01*
X0116629Y0237866D01*
X0115819Y0237530D01*
X0114309Y0236020D01*
X0113491Y0234047D01*
X0113491Y0231911D01*
X0114309Y0229938D01*
X0115819Y0228428D01*
X0116902Y0227979D01*
X0115819Y0227530D01*
X0114309Y0226020D01*
X0113491Y0224047D01*
X0113491Y0221911D01*
X0114309Y0219938D01*
X0115819Y0218428D01*
X0116902Y0217979D01*
X0115819Y0217530D01*
X0114309Y0216020D01*
X0113491Y0214047D01*
X0113491Y0211911D01*
X0114309Y0209938D01*
X0115819Y0208428D01*
X0116902Y0207979D01*
X0115819Y0207530D01*
X0114309Y0206020D01*
X0113491Y0204047D01*
X0113491Y0201911D01*
X0114309Y0199938D01*
X0115819Y0198428D01*
X0116902Y0197979D01*
X0115819Y0197530D01*
X0114309Y0196020D01*
X0113491Y0194047D01*
X0113491Y0191911D01*
X0114309Y0189938D01*
X0115819Y0188428D01*
X0116902Y0187979D01*
X0115819Y0187530D01*
X0114309Y0186020D01*
X0113491Y0184047D01*
X0113491Y0181911D01*
X0114309Y0179938D01*
X0115819Y0178428D01*
X0116902Y0177979D01*
X0115819Y0177530D01*
X0114309Y0176020D01*
X0113491Y0174047D01*
X0113491Y0171911D01*
X0114309Y0169938D01*
X0115819Y0168428D01*
X0116902Y0167979D01*
X0115819Y0167530D01*
X0114309Y0166020D01*
X0113491Y0164047D01*
X0113491Y0161911D01*
X0114309Y0159938D01*
X0115819Y0158428D01*
X0116902Y0157979D01*
X0115819Y0157530D01*
X0114309Y0156020D01*
X0113491Y0154047D01*
X0113491Y0151911D01*
X0114309Y0149938D01*
X0115819Y0148428D01*
X0116902Y0147979D01*
X0121028Y0147891D02*
X0289888Y0147891D01*
X0286689Y0144693D02*
X0123961Y0144693D01*
X0124056Y0141494D02*
X0176877Y0141494D01*
X0173940Y0138296D02*
X0121583Y0138296D01*
X0123793Y0135097D02*
X0173105Y0135097D01*
X0173105Y0131899D02*
X0124223Y0131899D01*
X0122174Y0128700D02*
X0173105Y0128700D01*
X0173105Y0125502D02*
X0123626Y0125502D01*
X0124228Y0122303D02*
X0173105Y0122303D01*
X0173105Y0119105D02*
X0122578Y0119105D01*
X0123458Y0115906D02*
X0147882Y0115906D01*
X0146976Y0112708D02*
X0124228Y0112708D01*
X0124845Y0109509D02*
X0146976Y0109509D01*
X0146976Y0106311D02*
X0145752Y0106311D01*
X0148234Y0103112D02*
X0148758Y0103112D01*
X0149087Y0099914D02*
X0182964Y0099914D01*
X0183293Y0103112D02*
X0183816Y0103112D01*
X0183290Y0096715D02*
X0148761Y0096715D01*
X0147023Y0093517D02*
X0185027Y0093517D01*
X0176317Y0103112D02*
X0173450Y0103112D01*
X0166474Y0103112D02*
X0165576Y0103112D01*
X0158600Y0103112D02*
X0155734Y0103112D01*
X0156610Y0115906D02*
X0157724Y0115906D01*
X0134566Y0106311D02*
X0127059Y0106311D01*
X0127710Y0103112D02*
X0132084Y0103112D01*
X0131231Y0099914D02*
X0127169Y0099914D01*
X0125112Y0096715D02*
X0131557Y0096715D01*
X0133295Y0093517D02*
X0027924Y0093517D01*
X0027924Y0096715D02*
X0052608Y0096715D01*
X0050550Y0099914D02*
X0027924Y0099914D01*
X0027924Y0103112D02*
X0050010Y0103112D01*
X0050661Y0106311D02*
X0027924Y0106311D01*
X0027924Y0109509D02*
X0052875Y0109509D01*
X0053491Y0112708D02*
X0027924Y0112708D01*
X0027924Y0115906D02*
X0054262Y0115906D01*
X0055142Y0119105D02*
X0027924Y0119105D01*
X0027924Y0122303D02*
X0053491Y0122303D01*
X0054094Y0125502D02*
X0027924Y0125502D01*
X0027924Y0128700D02*
X0035238Y0128700D01*
X0035953Y0127985D02*
X0040095Y0127985D01*
X0043024Y0130914D01*
X0043024Y0135056D01*
X0040095Y0137985D01*
X0035953Y0137985D01*
X0033024Y0135056D01*
X0033024Y0130914D01*
X0035953Y0127985D01*
X0033024Y0131899D02*
X0027924Y0131899D01*
X0027924Y0135097D02*
X0033066Y0135097D01*
X0027924Y0138296D02*
X0056137Y0138296D01*
X0053927Y0135097D02*
X0042983Y0135097D01*
X0043024Y0131899D02*
X0053496Y0131899D01*
X0055546Y0128700D02*
X0040811Y0128700D01*
X0053664Y0141494D02*
X0027924Y0141494D01*
X0027924Y0144693D02*
X0053759Y0144693D01*
X0061583Y0138296D02*
X0116137Y0138296D01*
X0113927Y0135097D02*
X0063793Y0135097D01*
X0064223Y0131899D02*
X0113496Y0131899D01*
X0115546Y0128700D02*
X0062174Y0128700D01*
X0063626Y0125502D02*
X0114094Y0125502D01*
X0113491Y0122303D02*
X0064228Y0122303D01*
X0062578Y0119105D02*
X0115142Y0119105D01*
X0114262Y0115906D02*
X0063458Y0115906D01*
X0064228Y0112708D02*
X0113491Y0112708D01*
X0112875Y0109509D02*
X0064845Y0109509D01*
X0067059Y0106311D02*
X0110661Y0106311D01*
X0110010Y0103112D02*
X0067710Y0103112D01*
X0067169Y0099914D02*
X0110550Y0099914D01*
X0112608Y0096715D02*
X0065112Y0096715D01*
X0064056Y0141494D02*
X0113664Y0141494D01*
X0113759Y0144693D02*
X0063961Y0144693D01*
X0063888Y0151090D02*
X0113831Y0151090D01*
X0113591Y0154288D02*
X0064128Y0154288D01*
X0061944Y0157487D02*
X0115776Y0157487D01*
X0113999Y0160685D02*
X0063721Y0160685D01*
X0064228Y0163884D02*
X0113491Y0163884D01*
X0115371Y0167082D02*
X0062348Y0167082D01*
X0063553Y0170281D02*
X0114166Y0170281D01*
X0113491Y0173479D02*
X0064228Y0173479D01*
X0062753Y0176678D02*
X0114967Y0176678D01*
X0114370Y0179877D02*
X0063350Y0179877D01*
X0064228Y0183075D02*
X0113491Y0183075D01*
X0114562Y0186274D02*
X0063157Y0186274D01*
X0062945Y0189472D02*
X0114774Y0189472D01*
X0113491Y0192671D02*
X0064228Y0192671D01*
X0063473Y0195869D02*
X0114246Y0195869D01*
X0115179Y0199068D02*
X0062541Y0199068D01*
X0064228Y0202266D02*
X0113491Y0202266D01*
X0114079Y0205465D02*
X0063641Y0205465D01*
X0062136Y0208663D02*
X0115583Y0208663D01*
X0113512Y0211862D02*
X0064208Y0211862D01*
X0063809Y0215060D02*
X0113911Y0215060D01*
X0116227Y0218259D02*
X0061837Y0218259D01*
X0064220Y0221457D02*
X0113679Y0221457D01*
X0113744Y0224656D02*
X0064170Y0224656D01*
X0061557Y0227854D02*
X0116602Y0227854D01*
X0113847Y0231053D02*
X0063873Y0231053D01*
X0064144Y0234251D02*
X0113576Y0234251D01*
X0115739Y0237450D02*
X0061981Y0237450D01*
X0063705Y0240648D02*
X0113798Y0240648D01*
X0113359Y0243847D02*
X0064228Y0243847D01*
X0062386Y0247045D02*
X0115051Y0247045D01*
X0114182Y0250244D02*
X0064228Y0250244D01*
X0064228Y0253442D02*
X0113491Y0253442D01*
X0112682Y0256641D02*
X0065038Y0256641D01*
X0067139Y0259839D02*
X0110581Y0259839D01*
X0110010Y0263038D02*
X0067710Y0263038D01*
X0067090Y0266236D02*
X0110630Y0266236D01*
X0112800Y0269435D02*
X0064920Y0269435D01*
X0070859Y0306991D02*
X0067813Y0310037D01*
X0067813Y0312191D01*
X0073013Y0312191D01*
X0073013Y0312191D01*
X0073013Y0312191D01*
X0073013Y0306991D01*
X0070859Y0306991D01*
X0070034Y0307817D02*
X0027924Y0307817D01*
X0027924Y0311015D02*
X0067813Y0311015D01*
X0067813Y0312191D02*
X0073013Y0312191D01*
X0073013Y0306991D01*
X0075167Y0306991D01*
X0078213Y0310037D01*
X0078213Y0312191D01*
X0073014Y0312191D01*
X0073014Y0312191D01*
X0078213Y0312191D01*
X0078213Y0314345D01*
X0075226Y0317333D01*
X0078013Y0320120D01*
X0078013Y0324262D01*
X0075084Y0327191D01*
X0070942Y0327191D01*
X0068013Y0324262D01*
X0068013Y0320120D01*
X0070801Y0317333D01*
X0067813Y0314345D01*
X0067813Y0312191D01*
X0067813Y0314214D02*
X0027924Y0314214D01*
X0027924Y0317412D02*
X0070721Y0317412D01*
X0068013Y0320611D02*
X0027924Y0320611D01*
X0027924Y0323810D02*
X0068013Y0323810D01*
X0070759Y0327008D02*
X0027924Y0327008D01*
X0027924Y0330207D02*
X0167639Y0330207D01*
X0168167Y0330735D02*
X0165238Y0327806D01*
X0165238Y0323664D01*
X0168167Y0320735D01*
X0172309Y0320735D01*
X0175238Y0323664D01*
X0175238Y0327806D01*
X0172309Y0330735D01*
X0175238Y0333664D01*
X0175238Y0337806D01*
X0172309Y0340735D01*
X0175238Y0343664D01*
X0175238Y0347806D01*
X0172309Y0350735D01*
X0168167Y0350735D01*
X0165238Y0347806D01*
X0165238Y0343664D01*
X0168167Y0340735D01*
X0172309Y0340735D01*
X0168167Y0340735D01*
X0165238Y0337806D01*
X0165238Y0333664D01*
X0168167Y0330735D01*
X0172309Y0330735D01*
X0168167Y0330735D01*
X0165496Y0333405D02*
X0027924Y0333405D01*
X0027924Y0336604D02*
X0075113Y0336604D01*
X0076139Y0335577D02*
X0080281Y0335577D01*
X0083210Y0338506D01*
X0083210Y0342648D01*
X0080481Y0345377D01*
X0081219Y0345377D01*
X0082028Y0345505D01*
X0082806Y0345758D01*
X0083536Y0346130D01*
X0084198Y0346611D01*
X0084777Y0347190D01*
X0085258Y0347852D01*
X0085629Y0348581D01*
X0085882Y0349359D01*
X0086010Y0350168D01*
X0086010Y0350577D01*
X0078210Y0350577D01*
X0070410Y0350577D01*
X0070410Y0350168D01*
X0070538Y0349359D01*
X0070791Y0348581D01*
X0071163Y0347852D01*
X0071644Y0347190D01*
X0072223Y0346611D01*
X0072885Y0346130D01*
X0073614Y0345758D01*
X0074393Y0345505D01*
X0075201Y0345377D01*
X0075939Y0345377D01*
X0073210Y0342648D01*
X0073210Y0338506D01*
X0076139Y0335577D01*
X0073210Y0339802D02*
X0027924Y0339802D01*
X0027924Y0343001D02*
X0040509Y0343001D01*
X0039392Y0344118D02*
X0043404Y0340105D01*
X0046242Y0340105D01*
X0049079Y0340105D01*
X0053092Y0344118D01*
X0053092Y0346955D01*
X0046242Y0346955D01*
X0046242Y0346955D01*
X0053092Y0346955D01*
X0053092Y0349792D01*
X0049079Y0353805D01*
X0046242Y0353805D01*
X0046242Y0346955D01*
X0046242Y0340105D01*
X0046242Y0346955D01*
X0046242Y0346955D01*
X0046242Y0346955D01*
X0039392Y0346955D01*
X0039392Y0344118D01*
X0039392Y0346199D02*
X0027924Y0346199D01*
X0027924Y0349398D02*
X0039392Y0349398D01*
X0039392Y0349792D02*
X0039392Y0346955D01*
X0046242Y0346955D01*
X0046242Y0346955D01*
X0046242Y0353805D01*
X0043404Y0353805D01*
X0039392Y0349792D01*
X0042195Y0352596D02*
X0027924Y0352596D01*
X0027924Y0355795D02*
X0402551Y0355795D01*
X0402551Y0358993D02*
X0027924Y0358993D01*
X0027924Y0362192D02*
X0041286Y0362192D01*
X0039592Y0363886D02*
X0043487Y0359990D01*
X0048996Y0359990D01*
X0052892Y0363886D01*
X0052892Y0369395D01*
X0048996Y0373290D01*
X0043487Y0373290D01*
X0039592Y0369395D01*
X0039592Y0363886D01*
X0039592Y0365390D02*
X0027924Y0365390D01*
X0027924Y0368589D02*
X0039592Y0368589D01*
X0041984Y0371787D02*
X0027924Y0371787D01*
X0027924Y0374986D02*
X0110269Y0374986D01*
X0110269Y0375742D02*
X0110269Y0373674D01*
X0111061Y0371762D01*
X0112524Y0370300D01*
X0113952Y0369708D01*
X0112524Y0369116D01*
X0111061Y0367653D01*
X0110269Y0365742D01*
X0110269Y0363674D01*
X0111061Y0361762D01*
X0112524Y0360300D01*
X0114435Y0359508D01*
X0122104Y0359508D01*
X0124015Y0360300D01*
X0125478Y0361762D01*
X0126269Y0363674D01*
X0126269Y0365742D01*
X0125478Y0367653D01*
X0124015Y0369116D01*
X0122586Y0369708D01*
X0124015Y0370300D01*
X0125478Y0371762D01*
X0126269Y0373674D01*
X0126269Y0375742D01*
X0125478Y0377653D01*
X0124015Y0379116D01*
X0122104Y0379908D01*
X0114435Y0379908D01*
X0112524Y0379116D01*
X0111061Y0377653D01*
X0110269Y0375742D01*
X0111592Y0378184D02*
X0027924Y0378184D01*
X0027924Y0381383D02*
X0041780Y0381383D01*
X0043487Y0379675D02*
X0048996Y0379675D01*
X0052892Y0383571D01*
X0052892Y0389080D01*
X0048996Y0392975D01*
X0043487Y0392975D01*
X0039592Y0389080D01*
X0039592Y0383571D01*
X0043487Y0379675D01*
X0039592Y0384581D02*
X0027924Y0384581D01*
X0027924Y0387780D02*
X0039592Y0387780D01*
X0041490Y0390978D02*
X0027924Y0390978D01*
X0027924Y0394177D02*
X0073288Y0394177D01*
X0073210Y0394254D02*
X0076139Y0391325D01*
X0073210Y0388396D01*
X0073210Y0384254D01*
X0076139Y0381325D01*
X0080281Y0381325D01*
X0083210Y0384254D01*
X0083210Y0388396D01*
X0080281Y0391325D01*
X0076139Y0391325D01*
X0080281Y0391325D01*
X0083210Y0394254D01*
X0083210Y0398396D01*
X0080281Y0401325D01*
X0076139Y0401325D01*
X0073210Y0398396D01*
X0073210Y0394254D01*
X0073210Y0397375D02*
X0027924Y0397375D01*
X0027924Y0400574D02*
X0042274Y0400574D01*
X0043487Y0399360D02*
X0048996Y0399360D01*
X0052892Y0403256D01*
X0052892Y0408765D01*
X0048996Y0412660D01*
X0043487Y0412660D01*
X0039592Y0408765D01*
X0039592Y0403256D01*
X0043487Y0399360D01*
X0039592Y0403772D02*
X0027924Y0403772D01*
X0027924Y0406971D02*
X0039592Y0406971D01*
X0040996Y0410169D02*
X0027924Y0410169D01*
X0027924Y0413368D02*
X0083081Y0413368D01*
X0082810Y0414023D02*
X0083632Y0412038D01*
X0085151Y0410519D01*
X0087136Y0409697D01*
X0089284Y0409697D01*
X0091269Y0410519D01*
X0092788Y0412038D01*
X0093210Y0413057D01*
X0093632Y0412038D01*
X0095151Y0410519D01*
X0097136Y0409697D01*
X0099284Y0409697D01*
X0101269Y0410519D01*
X0102788Y0412038D01*
X0103210Y0413057D01*
X0103632Y0412038D01*
X0105151Y0410519D01*
X0107136Y0409697D01*
X0109284Y0409697D01*
X0111269Y0410519D01*
X0112788Y0412038D01*
X0113610Y0414023D01*
X0113610Y0422171D01*
X0112788Y0424156D01*
X0111269Y0425675D01*
X0109284Y0426497D01*
X0107136Y0426497D01*
X0105151Y0425675D01*
X0103632Y0424156D01*
X0103210Y0423137D01*
X0102788Y0424156D01*
X0101269Y0425675D01*
X0099284Y0426497D01*
X0097136Y0426497D01*
X0095151Y0425675D01*
X0093632Y0424156D01*
X0093210Y0423137D01*
X0092788Y0424156D01*
X0091269Y0425675D01*
X0089284Y0426497D01*
X0087136Y0426497D01*
X0085151Y0425675D01*
X0083632Y0424156D01*
X0082810Y0422171D01*
X0082810Y0414023D01*
X0082810Y0416566D02*
X0027924Y0416566D01*
X0027924Y0419765D02*
X0082810Y0419765D01*
X0083138Y0422963D02*
X0027924Y0422963D01*
X0027924Y0426162D02*
X0086327Y0426162D01*
X0090093Y0426162D02*
X0096327Y0426162D01*
X0100093Y0426162D02*
X0106327Y0426162D01*
X0110093Y0426162D02*
X0188024Y0426162D01*
X0188029Y0426175D02*
X0187238Y0424263D01*
X0187238Y0422195D01*
X0188029Y0420284D01*
X0189492Y0418821D01*
X0191403Y0418029D01*
X0199072Y0418029D01*
X0200983Y0418821D01*
X0202446Y0420284D01*
X0203238Y0422195D01*
X0203238Y0424263D01*
X0202446Y0426175D01*
X0200983Y0427637D01*
X0199555Y0428229D01*
X0200983Y0428821D01*
X0202446Y0430284D01*
X0203238Y0432195D01*
X0203238Y0434263D01*
X0202446Y0436175D01*
X0200983Y0437637D01*
X0199072Y0438429D01*
X0191403Y0438429D01*
X0189492Y0437637D01*
X0188029Y0436175D01*
X0187238Y0434263D01*
X0187238Y0432195D01*
X0188029Y0430284D01*
X0189492Y0428821D01*
X0190921Y0428229D01*
X0189492Y0427637D01*
X0188029Y0426175D01*
X0187238Y0422963D02*
X0113282Y0422963D01*
X0113610Y0419765D02*
X0188548Y0419765D01*
X0189806Y0414934D02*
X0188399Y0413528D01*
X0187638Y0411690D01*
X0187638Y0409701D01*
X0188399Y0407863D01*
X0189806Y0406456D01*
X0191643Y0405695D01*
X0198832Y0405695D01*
X0200670Y0406456D01*
X0202077Y0407863D01*
X0202838Y0409701D01*
X0202838Y0411690D01*
X0202077Y0413528D01*
X0200670Y0414934D01*
X0198832Y0415695D01*
X0191643Y0415695D01*
X0189806Y0414934D01*
X0188333Y0413368D02*
X0113339Y0413368D01*
X0113610Y0416566D02*
X0246855Y0416566D01*
X0247834Y0417545D02*
X0243821Y0413533D01*
X0243821Y0410695D01*
X0243821Y0407858D01*
X0247834Y0403845D01*
X0250671Y0403845D01*
X0253508Y0403845D01*
X0257521Y0407858D01*
X0257521Y0410695D01*
X0250671Y0410695D01*
X0250671Y0403845D01*
X0250671Y0410695D01*
X0250671Y0410695D01*
X0250671Y0410695D01*
X0257521Y0410695D01*
X0257521Y0413533D01*
X0253508Y0417545D01*
X0250671Y0417545D01*
X0250671Y0410695D01*
X0243821Y0410695D01*
X0250671Y0410695D01*
X0250671Y0410695D01*
X0250671Y0410695D01*
X0250671Y0417545D01*
X0247834Y0417545D01*
X0250671Y0416566D02*
X0250671Y0416566D01*
X0250671Y0413368D02*
X0250671Y0413368D01*
X0250671Y0410169D02*
X0250671Y0410169D01*
X0250671Y0406971D02*
X0250671Y0406971D01*
X0256634Y0406971D02*
X0402551Y0406971D01*
X0402551Y0410169D02*
X0257521Y0410169D01*
X0257521Y0413368D02*
X0402551Y0413368D01*
X0402551Y0416566D02*
X0254487Y0416566D01*
X0253425Y0426683D02*
X0247916Y0426683D01*
X0244021Y0430579D01*
X0244021Y0436088D01*
X0247916Y0439983D01*
X0253425Y0439983D01*
X0257321Y0436088D01*
X0257321Y0430579D01*
X0253425Y0426683D01*
X0256103Y0429360D02*
X0360110Y0429360D01*
X0360110Y0428779D02*
X0360894Y0425853D01*
X0362409Y0423229D01*
X0364551Y0421087D01*
X0367175Y0419572D01*
X0370101Y0418788D01*
X0373130Y0418788D01*
X0376057Y0419572D01*
X0378680Y0421087D01*
X0380822Y0423229D01*
X0382337Y0425853D01*
X0383121Y0428779D01*
X0383121Y0431808D01*
X0382337Y0434735D01*
X0380822Y0437358D01*
X0378680Y0439500D01*
X0376057Y0441015D01*
X0373130Y0441799D01*
X0370101Y0441799D01*
X0367175Y0441015D01*
X0364551Y0439500D01*
X0362409Y0437358D01*
X0360894Y0434735D01*
X0360110Y0431808D01*
X0360110Y0428779D01*
X0360811Y0426162D02*
X0202451Y0426162D01*
X0203238Y0422963D02*
X0362675Y0422963D01*
X0366841Y0419765D02*
X0201927Y0419765D01*
X0202143Y0413368D02*
X0228163Y0413368D01*
X0228190Y0413421D02*
X0227819Y0412691D01*
X0227566Y0411913D01*
X0227438Y0411105D01*
X0227438Y0410695D01*
X0227438Y0410286D01*
X0227566Y0409478D01*
X0227819Y0408699D01*
X0228190Y0407970D01*
X0228671Y0407308D01*
X0229250Y0406729D01*
X0229912Y0406248D01*
X0230642Y0405876D01*
X0231420Y0405623D01*
X0232229Y0405495D01*
X0235238Y0405495D01*
X0238247Y0405495D01*
X0239055Y0405623D01*
X0239834Y0405876D01*
X0240563Y0406248D01*
X0241225Y0406729D01*
X0241804Y0407308D01*
X0242285Y0407970D01*
X0242657Y0408699D01*
X0242910Y0409478D01*
X0243038Y0410286D01*
X0243038Y0410695D01*
X0235238Y0410695D01*
X0235238Y0405495D01*
X0235238Y0410695D01*
X0235238Y0410695D01*
X0235238Y0410695D01*
X0243038Y0410695D01*
X0243038Y0411105D01*
X0242910Y0411913D01*
X0242657Y0412691D01*
X0242285Y0413421D01*
X0241804Y0414083D01*
X0241225Y0414662D01*
X0240563Y0415143D01*
X0239834Y0415514D01*
X0239055Y0415767D01*
X0238247Y0415895D01*
X0235238Y0415895D01*
X0235238Y0410695D01*
X0227438Y0410695D01*
X0235238Y0410695D01*
X0235238Y0410695D01*
X0235238Y0410695D01*
X0235238Y0415895D01*
X0232229Y0415895D01*
X0231420Y0415767D01*
X0230642Y0415514D01*
X0229912Y0415143D01*
X0229250Y0414662D01*
X0228671Y0414083D01*
X0228190Y0413421D01*
X0227456Y0410169D02*
X0202838Y0410169D01*
X0201184Y0406971D02*
X0229008Y0406971D01*
X0235238Y0406971D02*
X0235238Y0406971D01*
X0235238Y0410169D02*
X0235238Y0410169D01*
X0235238Y0413368D02*
X0235238Y0413368D01*
X0241467Y0406971D02*
X0244708Y0406971D01*
X0243821Y0410169D02*
X0243019Y0410169D01*
X0242312Y0413368D02*
X0243821Y0413368D01*
X0245239Y0429360D02*
X0201523Y0429360D01*
X0203238Y0432559D02*
X0244021Y0432559D01*
X0244021Y0435757D02*
X0202619Y0435757D01*
X0197309Y0440971D02*
X0200238Y0443900D01*
X0200238Y0448042D01*
X0197309Y0450971D01*
X0193167Y0450971D01*
X0197309Y0450971D01*
X0200238Y0453900D01*
X0200238Y0458042D01*
X0197309Y0460971D01*
X0193167Y0460971D01*
X0190238Y0458042D01*
X0190238Y0453900D01*
X0193167Y0450971D01*
X0190238Y0448042D01*
X0190238Y0443900D01*
X0193167Y0440971D01*
X0197309Y0440971D01*
X0198492Y0442154D02*
X0231700Y0442154D01*
X0233084Y0440771D02*
X0230038Y0443817D01*
X0230038Y0445971D01*
X0235238Y0445971D01*
X0240438Y0445971D01*
X0240438Y0448125D01*
X0237450Y0451112D01*
X0240238Y0453900D01*
X0240238Y0458042D01*
X0237309Y0460971D01*
X0233167Y0460971D01*
X0230238Y0458042D01*
X0230238Y0453900D01*
X0233025Y0451112D01*
X0230038Y0448125D01*
X0230038Y0445971D01*
X0235238Y0445971D01*
X0235238Y0445971D01*
X0240438Y0445971D01*
X0240438Y0443817D01*
X0237392Y0440771D01*
X0235238Y0440771D01*
X0235238Y0445971D01*
X0235238Y0445971D01*
X0235238Y0445971D01*
X0235238Y0440771D01*
X0233084Y0440771D01*
X0235238Y0442154D02*
X0235238Y0442154D01*
X0235238Y0445353D02*
X0235238Y0445353D01*
X0238775Y0442154D02*
X0402551Y0442154D01*
X0402551Y0438956D02*
X0379225Y0438956D01*
X0381747Y0435757D02*
X0402551Y0435757D01*
X0402551Y0432559D02*
X0382920Y0432559D01*
X0383121Y0429360D02*
X0402551Y0429360D01*
X0402551Y0426162D02*
X0382420Y0426162D01*
X0380557Y0422963D02*
X0402551Y0422963D01*
X0402551Y0419765D02*
X0376390Y0419765D01*
X0364007Y0438956D02*
X0254453Y0438956D01*
X0257321Y0435757D02*
X0361485Y0435757D01*
X0360311Y0432559D02*
X0257321Y0432559D01*
X0246889Y0438956D02*
X0027924Y0438956D01*
X0027924Y0442154D02*
X0088344Y0442154D01*
X0087460Y0443038D02*
X0090829Y0439670D01*
X0093210Y0439670D01*
X0093210Y0445420D01*
X0093210Y0451170D01*
X0090829Y0451170D01*
X0087460Y0447801D01*
X0087460Y0445420D01*
X0093210Y0445420D01*
X0093210Y0445420D01*
X0093210Y0445420D01*
X0093210Y0451170D01*
X0095592Y0451170D01*
X0098415Y0448346D01*
X0098505Y0448563D01*
X0100066Y0450125D01*
X0102106Y0450970D01*
X0104314Y0450970D01*
X0106354Y0450125D01*
X0107915Y0448563D01*
X0108760Y0446524D01*
X0108760Y0444316D01*
X0107915Y0442276D01*
X0106354Y0440715D01*
X0104314Y0439870D01*
X0102106Y0439870D01*
X0100066Y0440715D01*
X0098505Y0442276D01*
X0098415Y0442493D01*
X0095592Y0439670D01*
X0093210Y0439670D01*
X0093210Y0445420D01*
X0087460Y0445420D01*
X0087460Y0443038D01*
X0087460Y0445353D02*
X0027924Y0445353D01*
X0027924Y0448551D02*
X0088210Y0448551D01*
X0093210Y0448551D02*
X0093210Y0448551D01*
X0093210Y0445420D02*
X0093210Y0445420D01*
X0093210Y0445353D02*
X0093210Y0445353D01*
X0093210Y0442154D02*
X0093210Y0442154D01*
X0098077Y0442154D02*
X0098627Y0442154D01*
X0098500Y0448551D02*
X0098210Y0448551D01*
X0107920Y0448551D02*
X0190747Y0448551D01*
X0190238Y0445353D02*
X0108760Y0445353D01*
X0107794Y0442154D02*
X0191983Y0442154D01*
X0187857Y0435757D02*
X0027924Y0435757D01*
X0027924Y0432559D02*
X0187238Y0432559D01*
X0188953Y0429360D02*
X0027924Y0429360D01*
X0027924Y0451750D02*
X0192388Y0451750D01*
X0190238Y0454948D02*
X0027924Y0454948D01*
X0027924Y0458147D02*
X0190343Y0458147D01*
X0198088Y0451750D02*
X0232388Y0451750D01*
X0230464Y0448551D02*
X0199728Y0448551D01*
X0200238Y0445353D02*
X0230038Y0445353D01*
X0230238Y0454948D02*
X0200238Y0454948D01*
X0200133Y0458147D02*
X0230343Y0458147D01*
X0240133Y0458147D02*
X0244021Y0458147D01*
X0244021Y0458725D02*
X0244021Y0453216D01*
X0247916Y0449321D01*
X0253425Y0449321D01*
X0257321Y0453216D01*
X0257321Y0458725D01*
X0253425Y0462621D01*
X0247916Y0462621D01*
X0244021Y0458725D01*
X0246641Y0461345D02*
X0027924Y0461345D01*
X0027924Y0464544D02*
X0402551Y0464544D01*
X0402551Y0461345D02*
X0254701Y0461345D01*
X0257321Y0458147D02*
X0301232Y0458147D01*
X0301335Y0458250D02*
X0300660Y0457574D01*
X0300294Y0456692D01*
X0300294Y0445895D01*
X0300660Y0445013D01*
X0301335Y0444338D01*
X0302217Y0443972D01*
X0313014Y0443972D01*
X0313896Y0444338D01*
X0314572Y0445013D01*
X0314937Y0445895D01*
X0314937Y0456692D01*
X0314572Y0457574D01*
X0313896Y0458250D01*
X0313014Y0458615D01*
X0302217Y0458615D01*
X0301335Y0458250D01*
X0300294Y0454948D02*
X0257321Y0454948D01*
X0255854Y0451750D02*
X0300294Y0451750D01*
X0300294Y0448551D02*
X0240011Y0448551D01*
X0240438Y0445353D02*
X0300519Y0445353D01*
X0314712Y0445353D02*
X0368519Y0445353D01*
X0368660Y0445013D02*
X0369335Y0444338D01*
X0370217Y0443972D01*
X0381014Y0443972D01*
X0381896Y0444338D01*
X0382572Y0445013D01*
X0382937Y0445895D01*
X0382937Y0456692D01*
X0382572Y0457574D01*
X0381896Y0458250D01*
X0381014Y0458615D01*
X0370217Y0458615D01*
X0369335Y0458250D01*
X0368660Y0457574D01*
X0368294Y0456692D01*
X0368294Y0445895D01*
X0368660Y0445013D01*
X0368294Y0448551D02*
X0314937Y0448551D01*
X0314937Y0451750D02*
X0368294Y0451750D01*
X0368294Y0454948D02*
X0314937Y0454948D01*
X0313999Y0458147D02*
X0369232Y0458147D01*
X0381999Y0458147D02*
X0402551Y0458147D01*
X0402551Y0454948D02*
X0382937Y0454948D01*
X0382937Y0451750D02*
X0402551Y0451750D01*
X0402551Y0448551D02*
X0382937Y0448551D01*
X0382712Y0445353D02*
X0402551Y0445353D01*
X0402551Y0467743D02*
X0027924Y0467743D01*
X0027924Y0470941D02*
X0402551Y0470941D01*
X0402551Y0474140D02*
X0027924Y0474140D01*
X0027924Y0477338D02*
X0402551Y0477338D01*
X0402551Y0480537D02*
X0027924Y0480537D01*
X0027924Y0483735D02*
X0402551Y0483735D01*
X0402551Y0486934D02*
X0027924Y0486934D01*
X0027924Y0490132D02*
X0402551Y0490132D01*
X0402551Y0493331D02*
X0027924Y0493331D01*
X0027924Y0496529D02*
X0402551Y0496529D01*
X0402551Y0499728D02*
X0086450Y0499728D01*
X0086831Y0499886D02*
X0084111Y0498759D01*
X0071167Y0498759D01*
X0068448Y0499886D01*
X0066366Y0501967D01*
X0065239Y0504687D01*
X0065239Y0507631D01*
X0066366Y0510351D01*
X0068448Y0512432D01*
X0071167Y0513559D01*
X0084111Y0513559D01*
X0086831Y0512432D01*
X0088913Y0510351D01*
X0090039Y0507631D01*
X0090039Y0504687D01*
X0088913Y0501967D01*
X0086831Y0499886D01*
X0089310Y0502926D02*
X0402551Y0502926D01*
X0402551Y0506125D02*
X0345595Y0506125D01*
X0346321Y0506851D02*
X0344760Y0505289D01*
X0342720Y0504444D01*
X0340512Y0504444D01*
X0338472Y0505289D01*
X0336911Y0506851D01*
X0336066Y0508891D01*
X0336066Y0511098D01*
X0336911Y0513138D01*
X0338472Y0514700D01*
X0340512Y0515544D01*
X0342720Y0515544D01*
X0344760Y0514700D01*
X0346321Y0513138D01*
X0347166Y0511098D01*
X0347166Y0508891D01*
X0346321Y0506851D01*
X0347166Y0509323D02*
X0402551Y0509323D01*
X0402551Y0512522D02*
X0346576Y0512522D01*
X0343997Y0518244D02*
X0347366Y0521613D01*
X0347366Y0523994D01*
X0341616Y0523994D01*
X0341616Y0518244D01*
X0343997Y0518244D01*
X0344672Y0518919D02*
X0402551Y0518919D01*
X0402551Y0522117D02*
X0347366Y0522117D01*
X0347366Y0523995D02*
X0347366Y0526376D01*
X0345495Y0528247D01*
X0348933Y0528247D01*
X0351395Y0529267D01*
X0357852Y0535724D01*
X0359737Y0537609D01*
X0360757Y0540071D01*
X0360757Y0541429D01*
X0361155Y0541031D01*
X0363140Y0540209D01*
X0365288Y0540209D01*
X0367273Y0541031D01*
X0368792Y0542550D01*
X0369214Y0543569D01*
X0369636Y0542550D01*
X0371155Y0541031D01*
X0373140Y0540209D01*
X0375288Y0540209D01*
X0377273Y0541031D01*
X0378792Y0542550D01*
X0379614Y0544535D01*
X0379614Y0552683D01*
X0378792Y0554668D01*
X0377273Y0556187D01*
X0375288Y0557009D01*
X0373140Y0557009D01*
X0371155Y0556187D01*
X0369636Y0554668D01*
X0369214Y0553648D01*
X0368792Y0554668D01*
X0367273Y0556187D01*
X0365288Y0557009D01*
X0363140Y0557009D01*
X0361155Y0556187D01*
X0359636Y0554668D01*
X0359214Y0553648D01*
X0358792Y0554668D01*
X0357273Y0556187D01*
X0355288Y0557009D01*
X0353140Y0557009D01*
X0351155Y0556187D01*
X0349636Y0554668D01*
X0348815Y0552685D01*
X0348377Y0552246D01*
X0347357Y0549784D01*
X0347357Y0544179D01*
X0344825Y0541647D01*
X0330645Y0541647D01*
X0331548Y0542550D01*
X0332370Y0544535D01*
X0332370Y0552683D01*
X0331548Y0554668D01*
X0330029Y0556187D01*
X0328044Y0557009D01*
X0325896Y0557009D01*
X0323911Y0556187D01*
X0322392Y0554668D01*
X0321970Y0553648D01*
X0321548Y0554668D01*
X0320029Y0556187D01*
X0318044Y0557009D01*
X0315896Y0557009D01*
X0313911Y0556187D01*
X0312392Y0554668D01*
X0311970Y0553648D01*
X0311548Y0554668D01*
X0310029Y0556187D01*
X0308044Y0557009D01*
X0305896Y0557009D01*
X0303911Y0556187D01*
X0302392Y0554668D01*
X0301570Y0552683D01*
X0301570Y0544535D01*
X0302392Y0542550D01*
X0303911Y0541031D01*
X0305896Y0540209D01*
X0308044Y0540209D01*
X0310029Y0541031D01*
X0310270Y0541272D01*
X0310270Y0539559D01*
X0311290Y0537097D01*
X0313175Y0535212D01*
X0317235Y0531152D01*
X0319120Y0529267D01*
X0321582Y0528247D01*
X0337737Y0528247D01*
X0335866Y0526376D01*
X0335866Y0523995D01*
X0341616Y0523995D01*
X0347366Y0523995D01*
X0347366Y0525316D02*
X0402551Y0525316D01*
X0402551Y0528514D02*
X0349577Y0528514D01*
X0353841Y0531713D02*
X0402551Y0531713D01*
X0402551Y0534911D02*
X0357039Y0534911D01*
X0357852Y0535724D02*
X0357852Y0535724D01*
X0359944Y0538110D02*
X0402551Y0538110D01*
X0402551Y0541308D02*
X0377551Y0541308D01*
X0379603Y0544507D02*
X0402551Y0544507D01*
X0402551Y0547705D02*
X0379614Y0547705D01*
X0379614Y0550904D02*
X0402551Y0550904D01*
X0402551Y0554102D02*
X0379026Y0554102D01*
X0370878Y0541308D02*
X0367551Y0541308D01*
X0360878Y0541308D02*
X0360757Y0541308D01*
X0359402Y0554102D02*
X0359026Y0554102D01*
X0369026Y0554102D02*
X0369402Y0554102D01*
X0359163Y0569157D02*
X0362209Y0572203D01*
X0362209Y0574357D01*
X0362209Y0576511D01*
X0359163Y0579557D01*
X0357009Y0579557D01*
X0354856Y0579557D01*
X0351809Y0576511D01*
X0351809Y0574357D01*
X0357009Y0574357D01*
X0357009Y0574357D01*
X0357009Y0579557D01*
X0357009Y0574357D01*
X0357009Y0574357D01*
X0351809Y0574357D01*
X0351809Y0572203D01*
X0354856Y0569157D01*
X0357009Y0569157D01*
X0357009Y0574357D01*
X0357009Y0574357D01*
X0357010Y0574357D02*
X0362209Y0574357D01*
X0357010Y0574357D01*
X0357010Y0574357D01*
X0357009Y0574357D02*
X0357009Y0569157D01*
X0359163Y0569157D01*
X0360102Y0570095D02*
X0402551Y0570095D01*
X0402551Y0573293D02*
X0362209Y0573293D01*
X0362209Y0576492D02*
X0402551Y0576492D01*
X0402551Y0579690D02*
X0252263Y0579690D01*
X0252263Y0578018D02*
X0252263Y0582904D01*
X0252143Y0583817D01*
X0251904Y0584706D01*
X0251552Y0585557D01*
X0251091Y0586354D01*
X0250531Y0587085D01*
X0249880Y0587736D01*
X0249149Y0588297D01*
X0248352Y0588757D01*
X0247501Y0589110D01*
X0246611Y0589348D01*
X0245698Y0589468D01*
X0245238Y0589468D01*
X0245238Y0578018D01*
X0245238Y0578018D01*
X0252263Y0578018D01*
X0252263Y0573133D01*
X0252143Y0572220D01*
X0251904Y0571330D01*
X0251552Y0570479D01*
X0251091Y0569682D01*
X0250531Y0568951D01*
X0249880Y0568300D01*
X0249149Y0567740D01*
X0248352Y0567279D01*
X0247501Y0566927D01*
X0246611Y0566688D01*
X0245698Y0566568D01*
X0245238Y0566568D01*
X0245238Y0578018D01*
X0245238Y0578018D01*
X0252263Y0578018D01*
X0252263Y0576492D02*
X0312074Y0576492D01*
X0312009Y0576428D02*
X0312009Y0572286D01*
X0314938Y0569357D01*
X0319080Y0569357D01*
X0322009Y0572286D01*
X0322009Y0576428D01*
X0319080Y0579357D01*
X0314938Y0579357D01*
X0312009Y0576428D01*
X0312009Y0573293D02*
X0252263Y0573293D01*
X0251330Y0570095D02*
X0314200Y0570095D01*
X0319819Y0570095D02*
X0353917Y0570095D01*
X0357009Y0570095D02*
X0357009Y0570095D01*
X0357009Y0573293D02*
X0357009Y0573293D01*
X0357009Y0576492D02*
X0357009Y0576492D01*
X0351809Y0576492D02*
X0321945Y0576492D01*
X0322009Y0573293D02*
X0351809Y0573293D01*
X0349124Y0580968D02*
X0352170Y0584014D01*
X0352170Y0586168D01*
X0352170Y0588322D01*
X0349183Y0591309D01*
X0351970Y0594097D01*
X0351970Y0598239D01*
X0349041Y0601168D01*
X0344899Y0601168D01*
X0341970Y0598239D01*
X0341970Y0594097D01*
X0344758Y0591309D01*
X0341770Y0588322D01*
X0341770Y0586168D01*
X0346970Y0586168D01*
X0346970Y0586168D01*
X0352170Y0586168D01*
X0346970Y0586168D01*
X0346970Y0586168D01*
X0341770Y0586168D01*
X0341770Y0584014D01*
X0344816Y0580968D01*
X0346970Y0580968D01*
X0346970Y0586168D01*
X0346970Y0586168D01*
X0346970Y0580968D01*
X0349124Y0580968D01*
X0351045Y0582889D02*
X0402551Y0582889D01*
X0402551Y0586087D02*
X0352170Y0586087D01*
X0351206Y0589286D02*
X0402551Y0589286D01*
X0402551Y0592484D02*
X0350358Y0592484D01*
X0351970Y0595683D02*
X0402551Y0595683D01*
X0402551Y0598881D02*
X0351327Y0598881D01*
X0342613Y0598881D02*
X0311327Y0598881D01*
X0311970Y0598239D02*
X0309041Y0601168D01*
X0304899Y0601168D01*
X0301970Y0598239D01*
X0301970Y0594097D01*
X0304899Y0591168D01*
X0309041Y0591168D01*
X0311970Y0594097D01*
X0311970Y0598239D01*
X0311970Y0595683D02*
X0341970Y0595683D01*
X0343582Y0592484D02*
X0310358Y0592484D01*
X0309041Y0591168D02*
X0304899Y0591168D01*
X0301970Y0588239D01*
X0301970Y0584097D01*
X0304899Y0581168D01*
X0309041Y0581168D01*
X0311970Y0584097D01*
X0311970Y0588239D01*
X0309041Y0591168D01*
X0310923Y0589286D02*
X0342734Y0589286D01*
X0341770Y0586087D02*
X0311970Y0586087D01*
X0310762Y0582889D02*
X0342895Y0582889D01*
X0346970Y0582889D02*
X0346970Y0582889D01*
X0346970Y0586087D02*
X0346970Y0586087D01*
X0349402Y0554102D02*
X0331782Y0554102D01*
X0332370Y0550904D02*
X0347821Y0550904D01*
X0347357Y0547705D02*
X0332370Y0547705D01*
X0332359Y0544507D02*
X0347357Y0544507D01*
X0341616Y0523995D02*
X0341616Y0523994D01*
X0341616Y0523994D01*
X0341616Y0518244D01*
X0339234Y0518244D01*
X0335866Y0521613D01*
X0335866Y0523994D01*
X0341616Y0523994D01*
X0341616Y0523995D01*
X0341616Y0522117D02*
X0341616Y0522117D01*
X0341616Y0518919D02*
X0341616Y0518919D01*
X0338560Y0518919D02*
X0027924Y0518919D01*
X0027924Y0522117D02*
X0335866Y0522117D01*
X0335866Y0525316D02*
X0027924Y0525316D01*
X0027924Y0528514D02*
X0320938Y0528514D01*
X0317235Y0531152D02*
X0317235Y0531152D01*
X0316674Y0531713D02*
X0122368Y0531713D01*
X0123056Y0532400D02*
X0123878Y0534385D01*
X0123878Y0536533D01*
X0123056Y0538518D01*
X0121537Y0540037D01*
X0119552Y0540859D01*
X0111404Y0540859D01*
X0109419Y0540037D01*
X0107900Y0538518D01*
X0107078Y0536533D01*
X0107078Y0534385D01*
X0107900Y0532400D01*
X0109419Y0530881D01*
X0111404Y0530059D01*
X0119552Y0530059D01*
X0121537Y0530881D01*
X0123056Y0532400D01*
X0123878Y0534911D02*
X0313476Y0534911D01*
X0313175Y0535212D02*
X0313175Y0535212D01*
X0310871Y0538110D02*
X0123225Y0538110D01*
X0108587Y0531713D02*
X0027924Y0531713D01*
X0027924Y0534911D02*
X0107078Y0534911D01*
X0107731Y0538110D02*
X0027924Y0538110D01*
X0027924Y0541308D02*
X0303634Y0541308D01*
X0301582Y0544507D02*
X0027924Y0544507D01*
X0027924Y0547705D02*
X0301570Y0547705D01*
X0301570Y0550904D02*
X0027924Y0550904D01*
X0027924Y0554102D02*
X0302158Y0554102D01*
X0311782Y0554102D02*
X0312158Y0554102D01*
X0321782Y0554102D02*
X0322158Y0554102D01*
X0303178Y0582889D02*
X0252263Y0582889D01*
X0251245Y0586087D02*
X0301970Y0586087D01*
X0303017Y0589286D02*
X0246842Y0589286D01*
X0245238Y0589286D02*
X0245238Y0589286D01*
X0245238Y0589468D02*
X0244777Y0589468D01*
X0243864Y0589348D01*
X0242975Y0589110D01*
X0242124Y0588757D01*
X0241327Y0588297D01*
X0240596Y0587736D01*
X0239945Y0587085D01*
X0239384Y0586354D01*
X0238924Y0585557D01*
X0238571Y0584706D01*
X0238333Y0583817D01*
X0238213Y0582904D01*
X0238213Y0578018D01*
X0238213Y0573133D01*
X0238333Y0572220D01*
X0238571Y0571330D01*
X0238924Y0570479D01*
X0239384Y0569682D01*
X0239945Y0568951D01*
X0240596Y0568300D01*
X0241327Y0567740D01*
X0242124Y0567279D01*
X0242975Y0566927D01*
X0243864Y0566688D01*
X0244777Y0566568D01*
X0245238Y0566568D01*
X0245238Y0578018D01*
X0245238Y0578018D01*
X0238213Y0578018D01*
X0245238Y0578018D01*
X0245238Y0578018D01*
X0245238Y0589468D01*
X0243633Y0589286D02*
X0087631Y0589286D01*
X0086831Y0588486D02*
X0088913Y0590567D01*
X0090039Y0593287D01*
X0090039Y0596231D01*
X0088913Y0598951D01*
X0086831Y0601032D01*
X0084111Y0602159D01*
X0071167Y0602159D01*
X0068448Y0601032D01*
X0066366Y0598951D01*
X0065239Y0596231D01*
X0065239Y0593287D01*
X0066366Y0590567D01*
X0068448Y0588486D01*
X0071167Y0587359D01*
X0084111Y0587359D01*
X0086831Y0588486D01*
X0089707Y0592484D02*
X0303582Y0592484D01*
X0301970Y0595683D02*
X0090039Y0595683D01*
X0088941Y0598881D02*
X0302613Y0598881D01*
X0247388Y0566896D02*
X0402551Y0566896D01*
X0402551Y0563698D02*
X0130794Y0563698D01*
X0130668Y0563309D02*
X0130940Y0564148D01*
X0131078Y0565018D01*
X0131078Y0565459D01*
X0122478Y0565459D01*
X0122478Y0565459D01*
X0122478Y0559859D01*
X0125919Y0559859D01*
X0126789Y0559997D01*
X0127628Y0560269D01*
X0128413Y0560670D01*
X0129126Y0561188D01*
X0129749Y0561811D01*
X0130267Y0562524D01*
X0130668Y0563309D01*
X0131078Y0565459D02*
X0131078Y0565900D01*
X0130940Y0566770D01*
X0130668Y0567609D01*
X0130267Y0568394D01*
X0129749Y0569107D01*
X0129126Y0569730D01*
X0128413Y0570249D01*
X0127628Y0570649D01*
X0126789Y0570921D01*
X0125919Y0571059D01*
X0122478Y0571059D01*
X0122478Y0565459D01*
X0122478Y0565459D01*
X0131078Y0565459D01*
X0130899Y0566896D02*
X0183571Y0566896D01*
X0183880Y0566768D02*
X0186595Y0566768D01*
X0189104Y0567807D01*
X0191024Y0569727D01*
X0192063Y0572236D01*
X0192063Y0583801D01*
X0191024Y0586309D01*
X0189104Y0588229D01*
X0186595Y0589268D01*
X0183880Y0589268D01*
X0181372Y0588229D01*
X0179452Y0586309D01*
X0178413Y0583801D01*
X0178413Y0572236D01*
X0179452Y0569727D01*
X0181372Y0567807D01*
X0183880Y0566768D01*
X0186905Y0566896D02*
X0203571Y0566896D01*
X0203880Y0566768D02*
X0206595Y0566768D01*
X0209104Y0567807D01*
X0211024Y0569727D01*
X0212063Y0572236D01*
X0212063Y0583801D01*
X0211024Y0586309D01*
X0209104Y0588229D01*
X0206595Y0589268D01*
X0203880Y0589268D01*
X0201372Y0588229D01*
X0199452Y0586309D01*
X0198413Y0583801D01*
X0198413Y0572236D01*
X0199452Y0569727D01*
X0201372Y0567807D01*
X0203880Y0566768D01*
X0206905Y0566896D02*
X0223571Y0566896D01*
X0223880Y0566768D02*
X0226595Y0566768D01*
X0229104Y0567807D01*
X0231024Y0569727D01*
X0232063Y0572236D01*
X0232063Y0583801D01*
X0231024Y0586309D01*
X0229104Y0588229D01*
X0226595Y0589268D01*
X0223880Y0589268D01*
X0221372Y0588229D01*
X0219452Y0586309D01*
X0218413Y0583801D01*
X0218413Y0572236D01*
X0219452Y0569727D01*
X0221372Y0567807D01*
X0223880Y0566768D01*
X0226905Y0566896D02*
X0243088Y0566896D01*
X0245238Y0566896D02*
X0245238Y0566896D01*
X0245238Y0570095D02*
X0245238Y0570095D01*
X0245238Y0573293D02*
X0245238Y0573293D01*
X0245238Y0576492D02*
X0245238Y0576492D01*
X0245238Y0579690D02*
X0245238Y0579690D01*
X0245238Y0582889D02*
X0245238Y0582889D01*
X0245238Y0586087D02*
X0245238Y0586087D01*
X0239230Y0586087D02*
X0231116Y0586087D01*
X0232063Y0582889D02*
X0238213Y0582889D01*
X0238213Y0579690D02*
X0232063Y0579690D01*
X0232063Y0576492D02*
X0238213Y0576492D01*
X0238213Y0573293D02*
X0232063Y0573293D01*
X0231176Y0570095D02*
X0239146Y0570095D01*
X0219299Y0570095D02*
X0211176Y0570095D01*
X0212063Y0573293D02*
X0218413Y0573293D01*
X0218413Y0576492D02*
X0212063Y0576492D01*
X0212063Y0579690D02*
X0218413Y0579690D01*
X0218413Y0582889D02*
X0212063Y0582889D01*
X0211116Y0586087D02*
X0219360Y0586087D01*
X0199360Y0586087D02*
X0191116Y0586087D01*
X0192063Y0582889D02*
X0198413Y0582889D01*
X0198413Y0579690D02*
X0192063Y0579690D01*
X0192063Y0576492D02*
X0198413Y0576492D01*
X0198413Y0573293D02*
X0192063Y0573293D01*
X0191176Y0570095D02*
X0199299Y0570095D01*
X0179299Y0570095D02*
X0128625Y0570095D01*
X0122478Y0570095D02*
X0122478Y0570095D01*
X0122478Y0571059D02*
X0119037Y0571059D01*
X0118167Y0570921D01*
X0117328Y0570649D01*
X0116543Y0570249D01*
X0115830Y0569730D01*
X0115207Y0569107D01*
X0114688Y0568394D01*
X0114288Y0567609D01*
X0114016Y0566770D01*
X0113878Y0565900D01*
X0113878Y0565459D01*
X0113878Y0565018D01*
X0114016Y0564148D01*
X0114288Y0563309D01*
X0114688Y0562524D01*
X0115207Y0561811D01*
X0115830Y0561188D01*
X0116543Y0560670D01*
X0117328Y0560269D01*
X0118167Y0559997D01*
X0119037Y0559859D01*
X0122478Y0559859D01*
X0122478Y0565459D01*
X0122478Y0565459D01*
X0113878Y0565459D01*
X0122478Y0565459D01*
X0122478Y0565459D01*
X0122478Y0571059D01*
X0122478Y0566896D02*
X0122478Y0566896D01*
X0122478Y0563698D02*
X0122478Y0563698D01*
X0122478Y0560499D02*
X0122478Y0560499D01*
X0128079Y0560499D02*
X0402551Y0560499D01*
X0402551Y0557301D02*
X0027924Y0557301D01*
X0027924Y0560499D02*
X0116877Y0560499D01*
X0114162Y0563698D02*
X0027924Y0563698D01*
X0027924Y0566896D02*
X0114057Y0566896D01*
X0116331Y0570095D02*
X0027924Y0570095D01*
X0027924Y0573293D02*
X0178413Y0573293D01*
X0178413Y0576492D02*
X0027924Y0576492D01*
X0027924Y0579690D02*
X0178413Y0579690D01*
X0178413Y0582889D02*
X0027924Y0582889D01*
X0027924Y0586087D02*
X0179360Y0586087D01*
X0201791Y0618073D02*
X0043724Y0618073D01*
X0045385Y0621271D02*
X0199838Y0621271D01*
X0199838Y0624470D02*
X0046035Y0624470D01*
X0045810Y0627668D02*
X0199838Y0627668D01*
X0200472Y0630867D02*
X0044640Y0630867D01*
X0039941Y0614874D02*
X0390535Y0614874D01*
X0386751Y0618073D02*
X0228685Y0618073D01*
X0230638Y0621271D02*
X0385091Y0621271D01*
X0384441Y0624470D02*
X0230638Y0624470D01*
X0230638Y0627668D02*
X0384666Y0627668D01*
X0385836Y0630867D02*
X0230004Y0630867D01*
X0221791Y0618073D02*
X0218685Y0618073D01*
X0211791Y0618073D02*
X0208685Y0618073D01*
X0240238Y0454948D02*
X0244021Y0454948D01*
X0245487Y0451750D02*
X0238088Y0451750D01*
X0239740Y0374988D02*
X0238752Y0374858D01*
X0237790Y0374600D01*
X0236869Y0374219D01*
X0236006Y0373721D01*
X0235216Y0373114D01*
X0234512Y0372410D01*
X0233905Y0371620D01*
X0233407Y0370757D01*
X0233026Y0369836D01*
X0232768Y0368874D01*
X0232638Y0367886D01*
X0232638Y0367388D01*
X0232638Y0366890D01*
X0232768Y0365902D01*
X0233026Y0364940D01*
X0233407Y0364020D01*
X0233905Y0363157D01*
X0234512Y0362366D01*
X0235216Y0361662D01*
X0236006Y0361055D01*
X0236869Y0360557D01*
X0237790Y0360176D01*
X0238752Y0359918D01*
X0239740Y0359788D01*
X0245238Y0359788D01*
X0250736Y0359788D01*
X0251724Y0359918D01*
X0252686Y0360176D01*
X0253606Y0360557D01*
X0254469Y0361055D01*
X0255260Y0361662D01*
X0255964Y0362366D01*
X0256571Y0363157D01*
X0256737Y0363446D01*
X0259645Y0360538D01*
X0262482Y0360538D01*
X0265319Y0360538D01*
X0269332Y0364551D01*
X0269332Y0367388D01*
X0262482Y0367388D01*
X0262482Y0360538D01*
X0262482Y0367388D01*
X0262482Y0367388D01*
X0262482Y0367388D01*
X0269332Y0367388D01*
X0269332Y0370226D01*
X0265319Y0374238D01*
X0262482Y0374238D01*
X0262482Y0367388D01*
X0257838Y0367388D01*
X0245238Y0367388D01*
X0245238Y0367388D01*
X0245238Y0359788D01*
X0245238Y0367388D01*
X0245238Y0367388D01*
X0262482Y0367388D01*
X0262482Y0367388D01*
X0262482Y0367388D01*
X0262482Y0374238D01*
X0259645Y0374238D01*
X0256737Y0371331D01*
X0256571Y0371620D01*
X0255964Y0372410D01*
X0255260Y0373114D01*
X0254469Y0373721D01*
X0253606Y0374219D01*
X0252686Y0374600D01*
X0251724Y0374858D01*
X0250736Y0374988D01*
X0245238Y0374988D01*
X0245238Y0367388D01*
X0245238Y0367388D01*
X0232638Y0367388D01*
X0245238Y0367388D01*
X0245238Y0367388D01*
X0245238Y0374988D01*
X0239740Y0374988D01*
X0239721Y0374986D02*
X0126269Y0374986D01*
X0125488Y0371787D02*
X0153146Y0371787D01*
X0151501Y0370143D02*
X0151501Y0364634D01*
X0155397Y0360738D01*
X0160906Y0360738D01*
X0164801Y0364634D01*
X0164801Y0370143D01*
X0160906Y0374038D01*
X0155397Y0374038D01*
X0151501Y0370143D01*
X0151501Y0368589D02*
X0124542Y0368589D01*
X0126269Y0365390D02*
X0151501Y0365390D01*
X0153943Y0362192D02*
X0125655Y0362192D01*
X0123643Y0354816D02*
X0121805Y0355577D01*
X0114616Y0355577D01*
X0112778Y0354816D01*
X0111371Y0353409D01*
X0110610Y0351572D01*
X0110610Y0349583D01*
X0111371Y0347745D01*
X0112778Y0346338D01*
X0114616Y0345577D01*
X0121805Y0345577D01*
X0123643Y0346338D01*
X0125049Y0347745D01*
X0125810Y0349583D01*
X0125810Y0351572D01*
X0125049Y0353409D01*
X0123643Y0354816D01*
X0125386Y0352596D02*
X0402551Y0352596D01*
X0402551Y0349398D02*
X0263929Y0349398D01*
X0265438Y0347889D02*
X0262392Y0350935D01*
X0260238Y0350935D01*
X0260238Y0345735D01*
X0260238Y0345735D01*
X0265438Y0345735D01*
X0265438Y0347889D01*
X0265438Y0346199D02*
X0402551Y0346199D01*
X0402551Y0343001D02*
X0264858Y0343001D01*
X0265438Y0343581D02*
X0265438Y0345735D01*
X0260238Y0345735D01*
X0260238Y0345735D01*
X0260238Y0350935D01*
X0258084Y0350935D01*
X0255038Y0347889D01*
X0255038Y0345735D01*
X0260238Y0345735D01*
X0260238Y0345735D01*
X0255038Y0345735D01*
X0255038Y0343581D01*
X0258025Y0340593D01*
X0255238Y0337806D01*
X0255238Y0333664D01*
X0258167Y0330735D01*
X0262309Y0330735D01*
X0265238Y0333664D01*
X0265238Y0337806D01*
X0262450Y0340593D01*
X0265438Y0343581D01*
X0263241Y0339802D02*
X0402551Y0339802D01*
X0402551Y0336604D02*
X0265238Y0336604D01*
X0264979Y0333405D02*
X0402551Y0333405D01*
X0402551Y0330207D02*
X0182837Y0330207D01*
X0182309Y0330735D02*
X0178167Y0330735D01*
X0175238Y0327806D01*
X0175238Y0323664D01*
X0178167Y0320735D01*
X0182309Y0320735D01*
X0185238Y0323664D01*
X0185238Y0327806D01*
X0182309Y0330735D01*
X0177639Y0330207D02*
X0172837Y0330207D01*
X0174979Y0333405D02*
X0205496Y0333405D01*
X0205238Y0333664D02*
X0208167Y0330735D01*
X0212309Y0330735D01*
X0215238Y0333664D01*
X0218167Y0330735D01*
X0222309Y0330735D01*
X0225238Y0333664D01*
X0225238Y0337806D01*
X0222309Y0340735D01*
X0225238Y0343664D01*
X0225238Y0347806D01*
X0222309Y0350735D01*
X0218167Y0350735D01*
X0215238Y0347806D01*
X0215238Y0343664D01*
X0218167Y0340735D01*
X0222309Y0340735D01*
X0218167Y0340735D01*
X0215238Y0337806D01*
X0215238Y0333664D01*
X0215238Y0337806D01*
X0212309Y0340735D01*
X0215238Y0343664D01*
X0215238Y0347806D01*
X0212309Y0350735D01*
X0208167Y0350735D01*
X0205238Y0347806D01*
X0205238Y0343664D01*
X0208167Y0340735D01*
X0212309Y0340735D01*
X0208167Y0340735D01*
X0205238Y0337806D01*
X0205238Y0333664D01*
X0205238Y0336604D02*
X0175238Y0336604D01*
X0173241Y0339802D02*
X0207234Y0339802D01*
X0205901Y0343001D02*
X0174575Y0343001D01*
X0175238Y0346199D02*
X0205238Y0346199D01*
X0206830Y0349398D02*
X0173646Y0349398D01*
X0166830Y0349398D02*
X0125734Y0349398D01*
X0123306Y0346199D02*
X0165238Y0346199D01*
X0165901Y0343001D02*
X0122858Y0343001D01*
X0123210Y0342648D02*
X0120281Y0345577D01*
X0116139Y0345577D01*
X0113210Y0342648D01*
X0113210Y0338506D01*
X0116139Y0335577D01*
X0120281Y0335577D01*
X0123210Y0338506D01*
X0123210Y0342648D01*
X0123210Y0339802D02*
X0167234Y0339802D01*
X0165238Y0336604D02*
X0121308Y0336604D01*
X0115113Y0336604D02*
X0081308Y0336604D01*
X0083210Y0339802D02*
X0113210Y0339802D01*
X0113563Y0343001D02*
X0082858Y0343001D01*
X0083631Y0346199D02*
X0113114Y0346199D01*
X0110687Y0349398D02*
X0085888Y0349398D01*
X0086010Y0350577D02*
X0086010Y0350986D01*
X0085882Y0351795D01*
X0085629Y0352573D01*
X0085258Y0353303D01*
X0084777Y0353965D01*
X0084198Y0354543D01*
X0083536Y0355025D01*
X0082806Y0355396D01*
X0082028Y0355649D01*
X0081219Y0355777D01*
X0078210Y0355777D01*
X0075201Y0355777D01*
X0074393Y0355649D01*
X0073614Y0355396D01*
X0072885Y0355025D01*
X0072223Y0354543D01*
X0071644Y0353965D01*
X0071163Y0353303D01*
X0070791Y0352573D01*
X0070538Y0351795D01*
X0070410Y0350986D01*
X0070410Y0350577D01*
X0078210Y0350577D01*
X0078210Y0350577D01*
X0078210Y0355777D01*
X0078210Y0350577D01*
X0078210Y0350577D01*
X0078210Y0350577D01*
X0086010Y0350577D01*
X0085618Y0352596D02*
X0111035Y0352596D01*
X0110883Y0362192D02*
X0051198Y0362192D01*
X0052892Y0365390D02*
X0110269Y0365390D01*
X0111996Y0368589D02*
X0052892Y0368589D01*
X0050499Y0371787D02*
X0111051Y0371787D01*
X0116056Y0381125D02*
X0113010Y0384171D01*
X0113010Y0386325D01*
X0118210Y0386325D01*
X0118210Y0386325D01*
X0118210Y0386325D01*
X0118210Y0381125D01*
X0116056Y0381125D01*
X0115799Y0381383D02*
X0080339Y0381383D01*
X0076082Y0381383D02*
X0050704Y0381383D01*
X0052892Y0384581D02*
X0073210Y0384581D01*
X0073210Y0387780D02*
X0052892Y0387780D01*
X0050993Y0390978D02*
X0075792Y0390978D01*
X0080628Y0390978D02*
X0115509Y0390978D01*
X0115998Y0391467D02*
X0113010Y0388479D01*
X0113010Y0386325D01*
X0118210Y0386325D01*
X0118210Y0381125D01*
X0120364Y0381125D01*
X0123410Y0384171D01*
X0123410Y0386325D01*
X0118210Y0386325D01*
X0118210Y0386325D01*
X0123410Y0386325D01*
X0123410Y0388479D01*
X0120423Y0391467D01*
X0123210Y0394254D01*
X0123210Y0398396D01*
X0120281Y0401325D01*
X0116139Y0401325D01*
X0113210Y0398396D01*
X0113210Y0394254D01*
X0115998Y0391467D01*
X0113288Y0394177D02*
X0083133Y0394177D01*
X0083210Y0397375D02*
X0113210Y0397375D01*
X0115388Y0400574D02*
X0081033Y0400574D01*
X0075388Y0400574D02*
X0050210Y0400574D01*
X0052892Y0403772D02*
X0402551Y0403772D01*
X0402551Y0400574D02*
X0121033Y0400574D01*
X0123210Y0397375D02*
X0402551Y0397375D01*
X0402551Y0394177D02*
X0123133Y0394177D01*
X0120911Y0390978D02*
X0402551Y0390978D01*
X0402551Y0387780D02*
X0123410Y0387780D01*
X0123410Y0384581D02*
X0402551Y0384581D01*
X0402551Y0381383D02*
X0120622Y0381383D01*
X0118210Y0381383D02*
X0118210Y0381383D01*
X0118210Y0384581D02*
X0118210Y0384581D01*
X0113010Y0384581D02*
X0083210Y0384581D01*
X0083210Y0387780D02*
X0113010Y0387780D01*
X0124947Y0378184D02*
X0402551Y0378184D01*
X0402551Y0374986D02*
X0250755Y0374986D01*
X0256442Y0371787D02*
X0257194Y0371787D01*
X0257991Y0362192D02*
X0255789Y0362192D01*
X0262482Y0362192D02*
X0262482Y0362192D01*
X0262482Y0365390D02*
X0262482Y0365390D01*
X0262482Y0368589D02*
X0262482Y0368589D01*
X0262482Y0371787D02*
X0262482Y0371787D01*
X0267770Y0371787D02*
X0402551Y0371787D01*
X0402551Y0368589D02*
X0269332Y0368589D01*
X0269332Y0365390D02*
X0402551Y0365390D01*
X0402551Y0362192D02*
X0266973Y0362192D01*
X0260238Y0349398D02*
X0260238Y0349398D01*
X0260238Y0346199D02*
X0260238Y0346199D01*
X0256547Y0349398D02*
X0223646Y0349398D01*
X0225238Y0346199D02*
X0255038Y0346199D01*
X0255618Y0343001D02*
X0224575Y0343001D01*
X0223241Y0339802D02*
X0257234Y0339802D01*
X0255238Y0336604D02*
X0225238Y0336604D01*
X0224979Y0333405D02*
X0255496Y0333405D01*
X0253932Y0314214D02*
X0233388Y0314214D01*
X0233070Y0313896D02*
X0234477Y0315302D01*
X0235238Y0317140D01*
X0235238Y0324329D01*
X0234477Y0326167D01*
X0233070Y0327573D01*
X0231232Y0328335D01*
X0229243Y0328335D01*
X0227406Y0327573D01*
X0225999Y0326167D01*
X0225238Y0324329D01*
X0225238Y0317140D01*
X0225999Y0315302D01*
X0227406Y0313896D01*
X0229243Y0313135D01*
X0231232Y0313135D01*
X0233070Y0313896D01*
X0235238Y0317412D02*
X0300808Y0317412D01*
X0302662Y0320611D02*
X0235238Y0320611D01*
X0235238Y0323810D02*
X0306819Y0323810D01*
X0316413Y0323810D02*
X0402551Y0323810D01*
X0402551Y0327008D02*
X0233635Y0327008D01*
X0226840Y0327008D02*
X0223635Y0327008D01*
X0223070Y0327573D02*
X0221232Y0328335D01*
X0219243Y0328335D01*
X0217406Y0327573D01*
X0215999Y0326167D01*
X0215238Y0324329D01*
X0215238Y0317140D01*
X0215999Y0315302D01*
X0217406Y0313896D01*
X0219243Y0313135D01*
X0221232Y0313135D01*
X0223070Y0313896D01*
X0224477Y0315302D01*
X0225238Y0317140D01*
X0225238Y0324329D01*
X0224477Y0326167D01*
X0223070Y0327573D01*
X0225238Y0323810D02*
X0225238Y0323810D01*
X0225238Y0320611D02*
X0225238Y0320611D01*
X0225238Y0317412D02*
X0225238Y0317412D01*
X0223388Y0314214D02*
X0227087Y0314214D01*
X0217087Y0314214D02*
X0213388Y0314214D01*
X0213070Y0313896D02*
X0214477Y0315302D01*
X0215238Y0317140D01*
X0215238Y0324329D01*
X0214477Y0326167D01*
X0213070Y0327573D01*
X0211232Y0328335D01*
X0209243Y0328335D01*
X0207406Y0327573D01*
X0205999Y0326167D01*
X0205315Y0324517D01*
X0205310Y0324552D01*
X0205057Y0325331D01*
X0204685Y0326060D01*
X0204204Y0326722D01*
X0203625Y0327301D01*
X0202963Y0327782D01*
X0202234Y0328154D01*
X0201455Y0328407D01*
X0200647Y0328535D01*
X0200238Y0328535D01*
X0200238Y0320735D01*
X0200238Y0320735D01*
X0200238Y0328535D01*
X0199829Y0328535D01*
X0199020Y0328407D01*
X0198242Y0328154D01*
X0197512Y0327782D01*
X0196850Y0327301D01*
X0196271Y0326722D01*
X0195790Y0326060D01*
X0195419Y0325331D01*
X0195166Y0324552D01*
X0195038Y0323744D01*
X0195038Y0320735D01*
X0200238Y0320735D01*
X0200238Y0320735D01*
X0200238Y0312935D01*
X0200647Y0312935D01*
X0201455Y0313063D01*
X0202234Y0313316D01*
X0202963Y0313687D01*
X0203625Y0314168D01*
X0204204Y0314747D01*
X0204685Y0315409D01*
X0205057Y0316139D01*
X0205310Y0316917D01*
X0205315Y0316953D01*
X0205999Y0315302D01*
X0207406Y0313896D01*
X0209243Y0313135D01*
X0211232Y0313135D01*
X0213070Y0313896D01*
X0215238Y0317412D02*
X0215238Y0317412D01*
X0215238Y0320611D02*
X0215238Y0320611D01*
X0215238Y0323810D02*
X0215238Y0323810D01*
X0216840Y0327008D02*
X0213635Y0327008D01*
X0214979Y0333405D02*
X0215496Y0333405D01*
X0215238Y0336604D02*
X0215238Y0336604D01*
X0217234Y0339802D02*
X0213241Y0339802D01*
X0214575Y0343001D02*
X0215901Y0343001D01*
X0215238Y0346199D02*
X0215238Y0346199D01*
X0213646Y0349398D02*
X0216830Y0349398D01*
X0232905Y0365390D02*
X0197420Y0365390D01*
X0197638Y0365916D02*
X0197638Y0368860D01*
X0196511Y0371580D01*
X0194430Y0373662D01*
X0191710Y0374788D01*
X0178766Y0374788D01*
X0176046Y0373662D01*
X0173964Y0371580D01*
X0172838Y0368860D01*
X0172838Y0365916D01*
X0173964Y0363196D01*
X0176046Y0361115D01*
X0178766Y0359988D01*
X0191710Y0359988D01*
X0194430Y0361115D01*
X0196511Y0363196D01*
X0197638Y0365916D01*
X0197638Y0368589D02*
X0232730Y0368589D01*
X0234034Y0371787D02*
X0196304Y0371787D01*
X0195506Y0362192D02*
X0234686Y0362192D01*
X0245238Y0362192D02*
X0245238Y0362192D01*
X0245238Y0365390D02*
X0245238Y0365390D01*
X0245238Y0368589D02*
X0245238Y0368589D01*
X0245238Y0371787D02*
X0245238Y0371787D01*
X0245238Y0374986D02*
X0245238Y0374986D01*
X0206840Y0327008D02*
X0203918Y0327008D01*
X0200238Y0327008D02*
X0200238Y0327008D01*
X0200238Y0323810D02*
X0200238Y0323810D01*
X0200238Y0320735D02*
X0195038Y0320735D01*
X0195038Y0317725D01*
X0195166Y0316917D01*
X0195419Y0316139D01*
X0195790Y0315409D01*
X0196271Y0314747D01*
X0196850Y0314168D01*
X0197512Y0313687D01*
X0198242Y0313316D01*
X0199020Y0313063D01*
X0199829Y0312935D01*
X0200238Y0312935D01*
X0200238Y0320735D01*
X0200238Y0320735D01*
X0200238Y0320611D02*
X0200238Y0320611D01*
X0200238Y0317412D02*
X0200238Y0317412D01*
X0200238Y0314214D02*
X0200238Y0314214D01*
X0203671Y0314214D02*
X0207087Y0314214D01*
X0196805Y0314214D02*
X0151234Y0314214D01*
X0148035Y0317412D02*
X0195087Y0317412D01*
X0195038Y0320611D02*
X0144837Y0320611D01*
X0140311Y0323810D02*
X0165238Y0323810D01*
X0165238Y0327008D02*
X0075268Y0327008D01*
X0078013Y0323810D02*
X0101680Y0323810D01*
X0093210Y0322941D02*
X0093210Y0317191D01*
X0093210Y0322941D01*
X0093210Y0320611D02*
X0093210Y0320611D01*
X0093210Y0317412D02*
X0093210Y0317412D01*
X0093210Y0317191D02*
X0093210Y0317191D01*
X0093210Y0314214D02*
X0093210Y0314214D01*
X0088056Y0314214D02*
X0078213Y0314214D01*
X0078213Y0311015D02*
X0100612Y0311015D01*
X0088498Y0320611D02*
X0078013Y0320611D01*
X0075306Y0317412D02*
X0087460Y0317412D01*
X0075993Y0307817D02*
X0138680Y0307817D01*
X0141879Y0304618D02*
X0027924Y0304618D01*
X0027924Y0301420D02*
X0145077Y0301420D01*
X0148276Y0298221D02*
X0027924Y0298221D01*
X0027924Y0295023D02*
X0151474Y0295023D01*
X0154673Y0291824D02*
X0027924Y0291824D01*
X0027924Y0288626D02*
X0157871Y0288626D01*
X0161070Y0285427D02*
X0027924Y0285427D01*
X0027924Y0282229D02*
X0163538Y0282229D01*
X0163538Y0279030D02*
X0027924Y0279030D01*
X0027924Y0275832D02*
X0163538Y0275832D01*
X0163538Y0266236D02*
X0162408Y0266236D01*
X0163107Y0256641D02*
X0163538Y0256641D01*
X0163538Y0250244D02*
X0123538Y0250244D01*
X0122668Y0247045D02*
X0163538Y0247045D01*
X0163538Y0243847D02*
X0124360Y0243847D01*
X0123922Y0240648D02*
X0164342Y0240648D01*
X0167236Y0237450D02*
X0121981Y0237450D01*
X0124144Y0234251D02*
X0170435Y0234251D01*
X0171723Y0232963D02*
X0171723Y0232963D01*
X0173670Y0231053D02*
X0123873Y0231053D01*
X0121118Y0227854D02*
X0203524Y0227854D01*
X0200238Y0227248D02*
X0199797Y0227248D01*
X0198926Y0227110D01*
X0198088Y0226838D01*
X0197303Y0226438D01*
X0196590Y0225919D01*
X0195966Y0225296D01*
X0195448Y0224583D01*
X0195048Y0223798D01*
X0194776Y0222959D01*
X0194638Y0222089D01*
X0194638Y0218648D01*
X0194638Y0215207D01*
X0194776Y0214337D01*
X0195048Y0213498D01*
X0195448Y0212713D01*
X0195966Y0212000D01*
X0196590Y0211377D01*
X0197303Y0210858D01*
X0198088Y0210458D01*
X0198926Y0210186D01*
X0199797Y0210048D01*
X0200238Y0210048D01*
X0200238Y0218648D01*
X0200238Y0218648D01*
X0200238Y0218648D01*
X0200238Y0227248D01*
X0200238Y0224656D02*
X0200238Y0224656D01*
X0200238Y0221457D02*
X0200238Y0221457D01*
X0200238Y0218648D02*
X0200238Y0218648D01*
X0194638Y0218648D01*
X0200238Y0218648D01*
X0200238Y0218259D02*
X0200238Y0218259D01*
X0200238Y0215060D02*
X0200238Y0215060D01*
X0200238Y0211862D02*
X0200238Y0211862D01*
X0204371Y0211862D02*
X0206387Y0211862D01*
X0214088Y0211862D02*
X0216387Y0211862D01*
X0224088Y0211862D02*
X0226387Y0211862D01*
X0234088Y0211862D02*
X0300916Y0211862D01*
X0300916Y0215060D02*
X0235638Y0215060D01*
X0235638Y0218259D02*
X0300916Y0218259D01*
X0300916Y0221457D02*
X0235638Y0221457D01*
X0234837Y0224656D02*
X0300916Y0224656D01*
X0300916Y0227854D02*
X0216924Y0227854D01*
X0216924Y0231053D02*
X0300916Y0231053D01*
X0300916Y0234251D02*
X0216924Y0234251D01*
X0215883Y0237450D02*
X0300916Y0237450D01*
X0300916Y0240648D02*
X0212684Y0240648D01*
X0224837Y0224656D02*
X0225639Y0224656D01*
X0229914Y0256641D02*
X0200164Y0256641D01*
X0202732Y0259839D02*
X0227576Y0259839D01*
X0227803Y0263038D02*
X0202443Y0263038D01*
X0204528Y0285427D02*
X0205947Y0285427D01*
X0205238Y0288626D02*
X0205238Y0288626D01*
X0205238Y0291824D02*
X0205238Y0291824D01*
X0204950Y0295023D02*
X0205525Y0295023D01*
X0214950Y0295023D02*
X0215525Y0295023D01*
X0215238Y0291824D02*
X0215238Y0291824D01*
X0215238Y0288626D02*
X0215238Y0288626D01*
X0214528Y0285427D02*
X0215947Y0285427D01*
X0224528Y0285427D02*
X0225947Y0285427D01*
X0225051Y0295023D02*
X0224950Y0295023D01*
X0195947Y0285427D02*
X0185438Y0285427D01*
X0184700Y0288626D02*
X0195238Y0288626D01*
X0195048Y0323810D02*
X0185238Y0323810D01*
X0185238Y0327008D02*
X0196557Y0327008D01*
X0175238Y0327008D02*
X0175238Y0327008D01*
X0175238Y0323810D02*
X0175238Y0323810D01*
X0174969Y0362192D02*
X0162359Y0362192D01*
X0164801Y0365390D02*
X0173056Y0365390D01*
X0172838Y0368589D02*
X0164801Y0368589D01*
X0163157Y0371787D02*
X0174172Y0371787D01*
X0189291Y0406971D02*
X0052892Y0406971D01*
X0051487Y0410169D02*
X0085995Y0410169D01*
X0090425Y0410169D02*
X0095995Y0410169D01*
X0100425Y0410169D02*
X0105995Y0410169D01*
X0110425Y0410169D02*
X0187638Y0410169D01*
X0262482Y0266236D02*
X0262482Y0266236D01*
X0262482Y0263038D02*
X0262482Y0263038D01*
X0262482Y0259839D02*
X0262482Y0259839D01*
X0262482Y0256641D02*
X0262482Y0256641D01*
X0300916Y0208663D02*
X0122136Y0208663D01*
X0123641Y0205465D02*
X0134021Y0205465D01*
X0134164Y0205811D02*
X0133403Y0203973D01*
X0133403Y0201984D01*
X0134164Y0200146D01*
X0135571Y0198740D01*
X0137409Y0197979D01*
X0139398Y0197979D01*
X0141235Y0198740D01*
X0142262Y0199766D01*
X0144249Y0197779D01*
X0146403Y0197779D01*
X0146403Y0202979D01*
X0146403Y0208179D01*
X0144249Y0208179D01*
X0142262Y0206191D01*
X0141235Y0207218D01*
X0139398Y0207979D01*
X0137409Y0207979D01*
X0135571Y0207218D01*
X0134164Y0205811D01*
X0133403Y0202266D02*
X0124228Y0202266D01*
X0122541Y0199068D02*
X0135243Y0199068D01*
X0141563Y0199068D02*
X0142960Y0199068D01*
X0146403Y0199068D02*
X0146403Y0199068D01*
X0146403Y0197779D02*
X0148557Y0197779D01*
X0151603Y0200825D01*
X0151603Y0202979D01*
X0151603Y0205133D01*
X0148557Y0208179D01*
X0146403Y0208179D01*
X0146403Y0202979D01*
X0146403Y0202979D01*
X0151603Y0202979D01*
X0146403Y0202979D01*
X0146403Y0202979D01*
X0146403Y0202979D01*
X0146403Y0197779D01*
X0149846Y0199068D02*
X0300916Y0199068D01*
X0300916Y0202266D02*
X0151603Y0202266D01*
X0151271Y0205465D02*
X0300916Y0205465D01*
X0300916Y0195869D02*
X0123473Y0195869D01*
X0124228Y0192671D02*
X0300916Y0192671D01*
X0300916Y0189472D02*
X0122945Y0189472D01*
X0123157Y0186274D02*
X0300916Y0186274D01*
X0300916Y0183075D02*
X0124228Y0183075D01*
X0123350Y0179877D02*
X0300916Y0179877D01*
X0300916Y0176678D02*
X0122753Y0176678D01*
X0124228Y0173479D02*
X0300916Y0173479D01*
X0300916Y0170281D02*
X0123553Y0170281D01*
X0122348Y0167082D02*
X0300916Y0167082D01*
X0300916Y0163884D02*
X0124228Y0163884D01*
X0123721Y0160685D02*
X0300916Y0160685D01*
X0299483Y0157487D02*
X0121944Y0157487D01*
X0124128Y0154288D02*
X0296285Y0154288D01*
X0293086Y0151090D02*
X0123888Y0151090D01*
X0146403Y0202266D02*
X0146403Y0202266D01*
X0146403Y0205465D02*
X0146403Y0205465D01*
X0150249Y0214550D02*
X0147203Y0217596D01*
X0147203Y0219750D01*
X0152403Y0219750D01*
X0152403Y0219750D01*
X0152403Y0214550D01*
X0150249Y0214550D01*
X0149740Y0215060D02*
X0134784Y0215060D01*
X0134474Y0214750D02*
X0137403Y0217679D01*
X0137403Y0221821D01*
X0134474Y0224750D01*
X0130332Y0224750D01*
X0127403Y0221821D01*
X0127403Y0217679D01*
X0130332Y0214750D01*
X0134474Y0214750D01*
X0130022Y0215060D02*
X0123809Y0215060D01*
X0124208Y0211862D02*
X0196105Y0211862D01*
X0194661Y0215060D02*
X0155067Y0215060D01*
X0154557Y0214550D02*
X0157603Y0217596D01*
X0157603Y0219750D01*
X0152403Y0219750D01*
X0152403Y0214550D01*
X0154557Y0214550D01*
X0152403Y0215060D02*
X0152403Y0215060D01*
X0152403Y0218259D02*
X0152403Y0218259D01*
X0152403Y0219750D02*
X0152403Y0219750D01*
X0152403Y0219750D01*
X0147203Y0219750D01*
X0147203Y0221904D01*
X0150249Y0224950D01*
X0152403Y0224950D01*
X0152403Y0219751D01*
X0152403Y0219751D01*
X0152403Y0224950D01*
X0154557Y0224950D01*
X0157603Y0221904D01*
X0157603Y0219750D01*
X0152403Y0219750D01*
X0152403Y0221457D02*
X0152403Y0221457D01*
X0152403Y0224656D02*
X0152403Y0224656D01*
X0149955Y0224656D02*
X0134569Y0224656D01*
X0137403Y0221457D02*
X0147203Y0221457D01*
X0147203Y0218259D02*
X0137403Y0218259D01*
X0130237Y0224656D02*
X0123976Y0224656D01*
X0124040Y0221457D02*
X0127403Y0221457D01*
X0127403Y0218259D02*
X0121493Y0218259D01*
X0154852Y0224656D02*
X0195501Y0224656D01*
X0194638Y0221457D02*
X0157603Y0221457D01*
X0157603Y0218259D02*
X0194638Y0218259D01*
X0299243Y0138296D02*
X0316824Y0138296D01*
X0313822Y0141494D02*
X0302441Y0141494D01*
X0305640Y0144693D02*
X0310623Y0144693D01*
X0314316Y0275832D02*
X0402551Y0275832D01*
X0402551Y0279030D02*
X0314316Y0279030D01*
X0314316Y0282229D02*
X0402551Y0282229D01*
X0402551Y0285427D02*
X0314316Y0285427D01*
X0314316Y0288626D02*
X0369047Y0288626D01*
X0369335Y0288338D02*
X0370217Y0287972D01*
X0381014Y0287972D01*
X0381896Y0288338D01*
X0382572Y0289013D01*
X0382937Y0289895D01*
X0382937Y0300692D01*
X0382572Y0301574D01*
X0381896Y0302250D01*
X0381014Y0302615D01*
X0370217Y0302615D01*
X0369335Y0302250D01*
X0368660Y0301574D01*
X0368294Y0300692D01*
X0368294Y0289895D01*
X0368660Y0289013D01*
X0369335Y0288338D01*
X0368294Y0291824D02*
X0314937Y0291824D01*
X0314937Y0295023D02*
X0368294Y0295023D01*
X0368294Y0298221D02*
X0314937Y0298221D01*
X0314636Y0301420D02*
X0368596Y0301420D01*
X0382636Y0301420D02*
X0402551Y0301420D01*
X0402551Y0304618D02*
X0319212Y0304618D01*
X0321739Y0307817D02*
X0402551Y0307817D01*
X0402551Y0311015D02*
X0322917Y0311015D01*
X0323121Y0314214D02*
X0402551Y0314214D01*
X0402551Y0317412D02*
X0322423Y0317412D01*
X0320570Y0320611D02*
X0402551Y0320611D01*
X0402551Y0298221D02*
X0382937Y0298221D01*
X0382937Y0295023D02*
X0402551Y0295023D01*
X0402551Y0291824D02*
X0382937Y0291824D01*
X0382185Y0288626D02*
X0402551Y0288626D01*
X0337637Y0506125D02*
X0090039Y0506125D01*
X0089338Y0509323D02*
X0336066Y0509323D01*
X0336655Y0512522D02*
X0086616Y0512522D01*
X0068663Y0512522D02*
X0027924Y0512522D01*
X0027924Y0515720D02*
X0402551Y0515720D01*
X0402551Y0602080D02*
X0084302Y0602080D01*
X0070977Y0602080D02*
X0027924Y0602080D01*
X0027924Y0605279D02*
X0402551Y0605279D01*
X0402551Y0608477D02*
X0027924Y0608477D01*
X0027924Y0611676D02*
X0402551Y0611676D01*
X0402551Y0614874D02*
X0402146Y0614874D01*
X0078210Y0352596D02*
X0078210Y0352596D01*
X0072789Y0346199D02*
X0053092Y0346199D01*
X0053092Y0349398D02*
X0070532Y0349398D01*
X0070803Y0352596D02*
X0050288Y0352596D01*
X0046242Y0352596D02*
X0046242Y0352596D01*
X0046242Y0349398D02*
X0046242Y0349398D01*
X0046242Y0346199D02*
X0046242Y0346199D01*
X0046242Y0343001D02*
X0046242Y0343001D01*
X0051975Y0343001D02*
X0073563Y0343001D01*
X0073013Y0311015D02*
X0073013Y0311015D01*
X0073013Y0307817D02*
X0073013Y0307817D01*
X0038224Y0210381D02*
X0038224Y0205181D01*
X0033024Y0205181D01*
X0038224Y0205181D01*
X0038224Y0205181D01*
X0038224Y0210381D01*
X0038224Y0208663D02*
X0038224Y0208663D01*
X0038224Y0205465D02*
X0038224Y0205465D01*
X0038224Y0205181D02*
X0038224Y0205181D01*
X0034353Y0208663D02*
X0027924Y0208663D01*
X0027924Y0205465D02*
X0033024Y0205465D01*
X0033786Y0202266D02*
X0027924Y0202266D01*
X0027924Y0199068D02*
X0035040Y0199068D01*
X0033224Y0195869D02*
X0027924Y0195869D01*
X0027924Y0192671D02*
X0033664Y0192671D01*
X0027924Y0499728D02*
X0068829Y0499728D01*
X0065969Y0502926D02*
X0027924Y0502926D01*
X0027924Y0506125D02*
X0065239Y0506125D01*
X0065940Y0509323D02*
X0027924Y0509323D01*
X0027924Y0589286D02*
X0067647Y0589286D01*
X0065572Y0592484D02*
X0027924Y0592484D01*
X0027924Y0595683D02*
X0065239Y0595683D01*
X0066337Y0598881D02*
X0027924Y0598881D01*
X0027924Y0614874D02*
X0028330Y0614874D01*
D27*
X0103210Y0317191D02*
X0138781Y0317191D01*
X0170238Y0285735D01*
X0170238Y0243924D01*
X0177403Y0236758D01*
X0207099Y0236758D01*
X0210224Y0233633D01*
X0210224Y0218661D01*
X0210238Y0218648D01*
X0230238Y0290735D02*
X0248584Y0290735D01*
X0258584Y0300735D01*
X0295124Y0265033D02*
X0307316Y0265033D01*
X0307616Y0264733D01*
X0307616Y0157176D01*
X0307616Y0156144D01*
X0278230Y0126758D01*
X0278230Y0109947D01*
X0278230Y0117828D01*
X0271324Y0124733D01*
X0236397Y0124733D01*
X0225435Y0135695D01*
X0225435Y0109711D01*
X0225238Y0070144D01*
X0225631Y0109120D01*
X0225435Y0135695D02*
X0223545Y0137585D01*
X0182443Y0137585D01*
X0179805Y0134947D01*
X0179805Y0109947D01*
X0307616Y0157176D02*
X0322600Y0142191D01*
X0307616Y0264733D02*
X0307616Y0295294D01*
X0322915Y0534947D02*
X0347600Y0534947D01*
X0354057Y0541404D01*
X0354057Y0548451D01*
X0354214Y0548609D01*
X0322915Y0534947D02*
X0316970Y0540892D01*
X0316970Y0548609D01*
M02*
