G75*
%MOIN*%
%OFA0B0*%
%FSLAX25Y25*%
%IPPOS*%
%LPD*%
%AMOC8*
5,1,8,0,0,1.08239X$1,22.5*
%
%ADD10C,0.00000*%
%ADD11C,0.08850*%
%ADD12OC8,0.06300*%
%ADD13C,0.06300*%
%ADD14OC8,0.05200*%
%ADD15C,0.06000*%
%ADD16C,0.10000*%
%ADD17C,0.05200*%
%ADD18R,0.09843X0.09843*%
%ADD19R,0.05937X0.05937*%
%ADD20C,0.05937*%
%ADD21C,0.05200*%
%ADD22C,0.05740*%
%ADD23C,0.13055*%
%ADD24C,0.05600*%
%ADD25OC8,0.08500*%
%ADD26R,0.03962X0.03962*%
%ADD27C,0.03200*%
%ADD28C,0.08600*%
D10*
X0034135Y0058333D02*
X0396340Y0058333D01*
X0390041Y0070144D02*
X0390043Y0070302D01*
X0390049Y0070460D01*
X0390059Y0070618D01*
X0390073Y0070776D01*
X0390091Y0070933D01*
X0390112Y0071090D01*
X0390138Y0071246D01*
X0390168Y0071402D01*
X0390201Y0071557D01*
X0390239Y0071710D01*
X0390280Y0071863D01*
X0390325Y0072015D01*
X0390374Y0072166D01*
X0390427Y0072315D01*
X0390483Y0072463D01*
X0390543Y0072609D01*
X0390607Y0072754D01*
X0390675Y0072897D01*
X0390746Y0073039D01*
X0390820Y0073179D01*
X0390898Y0073316D01*
X0390980Y0073452D01*
X0391064Y0073586D01*
X0391153Y0073717D01*
X0391244Y0073846D01*
X0391339Y0073973D01*
X0391436Y0074098D01*
X0391537Y0074220D01*
X0391641Y0074339D01*
X0391748Y0074456D01*
X0391858Y0074570D01*
X0391971Y0074681D01*
X0392086Y0074790D01*
X0392204Y0074895D01*
X0392325Y0074997D01*
X0392448Y0075097D01*
X0392574Y0075193D01*
X0392702Y0075286D01*
X0392832Y0075376D01*
X0392965Y0075462D01*
X0393100Y0075546D01*
X0393236Y0075625D01*
X0393375Y0075702D01*
X0393516Y0075774D01*
X0393658Y0075844D01*
X0393802Y0075909D01*
X0393948Y0075971D01*
X0394095Y0076029D01*
X0394244Y0076084D01*
X0394394Y0076135D01*
X0394545Y0076182D01*
X0394697Y0076225D01*
X0394850Y0076264D01*
X0395005Y0076300D01*
X0395160Y0076331D01*
X0395316Y0076359D01*
X0395472Y0076383D01*
X0395629Y0076403D01*
X0395787Y0076419D01*
X0395944Y0076431D01*
X0396103Y0076439D01*
X0396261Y0076443D01*
X0396419Y0076443D01*
X0396577Y0076439D01*
X0396736Y0076431D01*
X0396893Y0076419D01*
X0397051Y0076403D01*
X0397208Y0076383D01*
X0397364Y0076359D01*
X0397520Y0076331D01*
X0397675Y0076300D01*
X0397830Y0076264D01*
X0397983Y0076225D01*
X0398135Y0076182D01*
X0398286Y0076135D01*
X0398436Y0076084D01*
X0398585Y0076029D01*
X0398732Y0075971D01*
X0398878Y0075909D01*
X0399022Y0075844D01*
X0399164Y0075774D01*
X0399305Y0075702D01*
X0399444Y0075625D01*
X0399580Y0075546D01*
X0399715Y0075462D01*
X0399848Y0075376D01*
X0399978Y0075286D01*
X0400106Y0075193D01*
X0400232Y0075097D01*
X0400355Y0074997D01*
X0400476Y0074895D01*
X0400594Y0074790D01*
X0400709Y0074681D01*
X0400822Y0074570D01*
X0400932Y0074456D01*
X0401039Y0074339D01*
X0401143Y0074220D01*
X0401244Y0074098D01*
X0401341Y0073973D01*
X0401436Y0073846D01*
X0401527Y0073717D01*
X0401616Y0073586D01*
X0401700Y0073452D01*
X0401782Y0073316D01*
X0401860Y0073179D01*
X0401934Y0073039D01*
X0402005Y0072897D01*
X0402073Y0072754D01*
X0402137Y0072609D01*
X0402197Y0072463D01*
X0402253Y0072315D01*
X0402306Y0072166D01*
X0402355Y0072015D01*
X0402400Y0071863D01*
X0402441Y0071710D01*
X0402479Y0071557D01*
X0402512Y0071402D01*
X0402542Y0071246D01*
X0402568Y0071090D01*
X0402589Y0070933D01*
X0402607Y0070776D01*
X0402621Y0070618D01*
X0402631Y0070460D01*
X0402637Y0070302D01*
X0402639Y0070144D01*
X0402637Y0069986D01*
X0402631Y0069828D01*
X0402621Y0069670D01*
X0402607Y0069512D01*
X0402589Y0069355D01*
X0402568Y0069198D01*
X0402542Y0069042D01*
X0402512Y0068886D01*
X0402479Y0068731D01*
X0402441Y0068578D01*
X0402400Y0068425D01*
X0402355Y0068273D01*
X0402306Y0068122D01*
X0402253Y0067973D01*
X0402197Y0067825D01*
X0402137Y0067679D01*
X0402073Y0067534D01*
X0402005Y0067391D01*
X0401934Y0067249D01*
X0401860Y0067109D01*
X0401782Y0066972D01*
X0401700Y0066836D01*
X0401616Y0066702D01*
X0401527Y0066571D01*
X0401436Y0066442D01*
X0401341Y0066315D01*
X0401244Y0066190D01*
X0401143Y0066068D01*
X0401039Y0065949D01*
X0400932Y0065832D01*
X0400822Y0065718D01*
X0400709Y0065607D01*
X0400594Y0065498D01*
X0400476Y0065393D01*
X0400355Y0065291D01*
X0400232Y0065191D01*
X0400106Y0065095D01*
X0399978Y0065002D01*
X0399848Y0064912D01*
X0399715Y0064826D01*
X0399580Y0064742D01*
X0399444Y0064663D01*
X0399305Y0064586D01*
X0399164Y0064514D01*
X0399022Y0064444D01*
X0398878Y0064379D01*
X0398732Y0064317D01*
X0398585Y0064259D01*
X0398436Y0064204D01*
X0398286Y0064153D01*
X0398135Y0064106D01*
X0397983Y0064063D01*
X0397830Y0064024D01*
X0397675Y0063988D01*
X0397520Y0063957D01*
X0397364Y0063929D01*
X0397208Y0063905D01*
X0397051Y0063885D01*
X0396893Y0063869D01*
X0396736Y0063857D01*
X0396577Y0063849D01*
X0396419Y0063845D01*
X0396261Y0063845D01*
X0396103Y0063849D01*
X0395944Y0063857D01*
X0395787Y0063869D01*
X0395629Y0063885D01*
X0395472Y0063905D01*
X0395316Y0063929D01*
X0395160Y0063957D01*
X0395005Y0063988D01*
X0394850Y0064024D01*
X0394697Y0064063D01*
X0394545Y0064106D01*
X0394394Y0064153D01*
X0394244Y0064204D01*
X0394095Y0064259D01*
X0393948Y0064317D01*
X0393802Y0064379D01*
X0393658Y0064444D01*
X0393516Y0064514D01*
X0393375Y0064586D01*
X0393236Y0064663D01*
X0393100Y0064742D01*
X0392965Y0064826D01*
X0392832Y0064912D01*
X0392702Y0065002D01*
X0392574Y0065095D01*
X0392448Y0065191D01*
X0392325Y0065291D01*
X0392204Y0065393D01*
X0392086Y0065498D01*
X0391971Y0065607D01*
X0391858Y0065718D01*
X0391748Y0065832D01*
X0391641Y0065949D01*
X0391537Y0066068D01*
X0391436Y0066190D01*
X0391339Y0066315D01*
X0391244Y0066442D01*
X0391153Y0066571D01*
X0391064Y0066702D01*
X0390980Y0066836D01*
X0390898Y0066972D01*
X0390820Y0067109D01*
X0390746Y0067249D01*
X0390675Y0067391D01*
X0390607Y0067534D01*
X0390543Y0067679D01*
X0390483Y0067825D01*
X0390427Y0067973D01*
X0390374Y0068122D01*
X0390325Y0068273D01*
X0390280Y0068425D01*
X0390239Y0068578D01*
X0390201Y0068731D01*
X0390168Y0068886D01*
X0390138Y0069042D01*
X0390112Y0069198D01*
X0390091Y0069355D01*
X0390073Y0069512D01*
X0390059Y0069670D01*
X0390049Y0069828D01*
X0390043Y0069986D01*
X0390041Y0070144D01*
X0396340Y0058333D02*
X0396625Y0058336D01*
X0396911Y0058347D01*
X0397196Y0058364D01*
X0397480Y0058388D01*
X0397764Y0058419D01*
X0398047Y0058457D01*
X0398328Y0058502D01*
X0398609Y0058553D01*
X0398889Y0058611D01*
X0399167Y0058676D01*
X0399443Y0058748D01*
X0399717Y0058826D01*
X0399990Y0058911D01*
X0400260Y0059003D01*
X0400528Y0059101D01*
X0400794Y0059205D01*
X0401057Y0059316D01*
X0401317Y0059433D01*
X0401575Y0059556D01*
X0401829Y0059686D01*
X0402080Y0059822D01*
X0402328Y0059963D01*
X0402572Y0060111D01*
X0402813Y0060264D01*
X0403049Y0060424D01*
X0403282Y0060589D01*
X0403511Y0060759D01*
X0403736Y0060935D01*
X0403956Y0061117D01*
X0404172Y0061303D01*
X0404383Y0061495D01*
X0404590Y0061692D01*
X0404792Y0061894D01*
X0404989Y0062101D01*
X0405181Y0062312D01*
X0405367Y0062528D01*
X0405549Y0062748D01*
X0405725Y0062973D01*
X0405895Y0063202D01*
X0406060Y0063435D01*
X0406220Y0063671D01*
X0406373Y0063912D01*
X0406521Y0064156D01*
X0406662Y0064404D01*
X0406798Y0064655D01*
X0406928Y0064909D01*
X0407051Y0065167D01*
X0407168Y0065427D01*
X0407279Y0065690D01*
X0407383Y0065956D01*
X0407481Y0066224D01*
X0407573Y0066494D01*
X0407658Y0066767D01*
X0407736Y0067041D01*
X0407808Y0067317D01*
X0407873Y0067595D01*
X0407931Y0067875D01*
X0407982Y0068156D01*
X0408027Y0068437D01*
X0408065Y0068720D01*
X0408096Y0069004D01*
X0408120Y0069288D01*
X0408137Y0069573D01*
X0408148Y0069859D01*
X0408151Y0070144D01*
X0408151Y0625262D01*
X0390041Y0625262D02*
X0390043Y0625420D01*
X0390049Y0625578D01*
X0390059Y0625736D01*
X0390073Y0625894D01*
X0390091Y0626051D01*
X0390112Y0626208D01*
X0390138Y0626364D01*
X0390168Y0626520D01*
X0390201Y0626675D01*
X0390239Y0626828D01*
X0390280Y0626981D01*
X0390325Y0627133D01*
X0390374Y0627284D01*
X0390427Y0627433D01*
X0390483Y0627581D01*
X0390543Y0627727D01*
X0390607Y0627872D01*
X0390675Y0628015D01*
X0390746Y0628157D01*
X0390820Y0628297D01*
X0390898Y0628434D01*
X0390980Y0628570D01*
X0391064Y0628704D01*
X0391153Y0628835D01*
X0391244Y0628964D01*
X0391339Y0629091D01*
X0391436Y0629216D01*
X0391537Y0629338D01*
X0391641Y0629457D01*
X0391748Y0629574D01*
X0391858Y0629688D01*
X0391971Y0629799D01*
X0392086Y0629908D01*
X0392204Y0630013D01*
X0392325Y0630115D01*
X0392448Y0630215D01*
X0392574Y0630311D01*
X0392702Y0630404D01*
X0392832Y0630494D01*
X0392965Y0630580D01*
X0393100Y0630664D01*
X0393236Y0630743D01*
X0393375Y0630820D01*
X0393516Y0630892D01*
X0393658Y0630962D01*
X0393802Y0631027D01*
X0393948Y0631089D01*
X0394095Y0631147D01*
X0394244Y0631202D01*
X0394394Y0631253D01*
X0394545Y0631300D01*
X0394697Y0631343D01*
X0394850Y0631382D01*
X0395005Y0631418D01*
X0395160Y0631449D01*
X0395316Y0631477D01*
X0395472Y0631501D01*
X0395629Y0631521D01*
X0395787Y0631537D01*
X0395944Y0631549D01*
X0396103Y0631557D01*
X0396261Y0631561D01*
X0396419Y0631561D01*
X0396577Y0631557D01*
X0396736Y0631549D01*
X0396893Y0631537D01*
X0397051Y0631521D01*
X0397208Y0631501D01*
X0397364Y0631477D01*
X0397520Y0631449D01*
X0397675Y0631418D01*
X0397830Y0631382D01*
X0397983Y0631343D01*
X0398135Y0631300D01*
X0398286Y0631253D01*
X0398436Y0631202D01*
X0398585Y0631147D01*
X0398732Y0631089D01*
X0398878Y0631027D01*
X0399022Y0630962D01*
X0399164Y0630892D01*
X0399305Y0630820D01*
X0399444Y0630743D01*
X0399580Y0630664D01*
X0399715Y0630580D01*
X0399848Y0630494D01*
X0399978Y0630404D01*
X0400106Y0630311D01*
X0400232Y0630215D01*
X0400355Y0630115D01*
X0400476Y0630013D01*
X0400594Y0629908D01*
X0400709Y0629799D01*
X0400822Y0629688D01*
X0400932Y0629574D01*
X0401039Y0629457D01*
X0401143Y0629338D01*
X0401244Y0629216D01*
X0401341Y0629091D01*
X0401436Y0628964D01*
X0401527Y0628835D01*
X0401616Y0628704D01*
X0401700Y0628570D01*
X0401782Y0628434D01*
X0401860Y0628297D01*
X0401934Y0628157D01*
X0402005Y0628015D01*
X0402073Y0627872D01*
X0402137Y0627727D01*
X0402197Y0627581D01*
X0402253Y0627433D01*
X0402306Y0627284D01*
X0402355Y0627133D01*
X0402400Y0626981D01*
X0402441Y0626828D01*
X0402479Y0626675D01*
X0402512Y0626520D01*
X0402542Y0626364D01*
X0402568Y0626208D01*
X0402589Y0626051D01*
X0402607Y0625894D01*
X0402621Y0625736D01*
X0402631Y0625578D01*
X0402637Y0625420D01*
X0402639Y0625262D01*
X0402637Y0625104D01*
X0402631Y0624946D01*
X0402621Y0624788D01*
X0402607Y0624630D01*
X0402589Y0624473D01*
X0402568Y0624316D01*
X0402542Y0624160D01*
X0402512Y0624004D01*
X0402479Y0623849D01*
X0402441Y0623696D01*
X0402400Y0623543D01*
X0402355Y0623391D01*
X0402306Y0623240D01*
X0402253Y0623091D01*
X0402197Y0622943D01*
X0402137Y0622797D01*
X0402073Y0622652D01*
X0402005Y0622509D01*
X0401934Y0622367D01*
X0401860Y0622227D01*
X0401782Y0622090D01*
X0401700Y0621954D01*
X0401616Y0621820D01*
X0401527Y0621689D01*
X0401436Y0621560D01*
X0401341Y0621433D01*
X0401244Y0621308D01*
X0401143Y0621186D01*
X0401039Y0621067D01*
X0400932Y0620950D01*
X0400822Y0620836D01*
X0400709Y0620725D01*
X0400594Y0620616D01*
X0400476Y0620511D01*
X0400355Y0620409D01*
X0400232Y0620309D01*
X0400106Y0620213D01*
X0399978Y0620120D01*
X0399848Y0620030D01*
X0399715Y0619944D01*
X0399580Y0619860D01*
X0399444Y0619781D01*
X0399305Y0619704D01*
X0399164Y0619632D01*
X0399022Y0619562D01*
X0398878Y0619497D01*
X0398732Y0619435D01*
X0398585Y0619377D01*
X0398436Y0619322D01*
X0398286Y0619271D01*
X0398135Y0619224D01*
X0397983Y0619181D01*
X0397830Y0619142D01*
X0397675Y0619106D01*
X0397520Y0619075D01*
X0397364Y0619047D01*
X0397208Y0619023D01*
X0397051Y0619003D01*
X0396893Y0618987D01*
X0396736Y0618975D01*
X0396577Y0618967D01*
X0396419Y0618963D01*
X0396261Y0618963D01*
X0396103Y0618967D01*
X0395944Y0618975D01*
X0395787Y0618987D01*
X0395629Y0619003D01*
X0395472Y0619023D01*
X0395316Y0619047D01*
X0395160Y0619075D01*
X0395005Y0619106D01*
X0394850Y0619142D01*
X0394697Y0619181D01*
X0394545Y0619224D01*
X0394394Y0619271D01*
X0394244Y0619322D01*
X0394095Y0619377D01*
X0393948Y0619435D01*
X0393802Y0619497D01*
X0393658Y0619562D01*
X0393516Y0619632D01*
X0393375Y0619704D01*
X0393236Y0619781D01*
X0393100Y0619860D01*
X0392965Y0619944D01*
X0392832Y0620030D01*
X0392702Y0620120D01*
X0392574Y0620213D01*
X0392448Y0620309D01*
X0392325Y0620409D01*
X0392204Y0620511D01*
X0392086Y0620616D01*
X0391971Y0620725D01*
X0391858Y0620836D01*
X0391748Y0620950D01*
X0391641Y0621067D01*
X0391537Y0621186D01*
X0391436Y0621308D01*
X0391339Y0621433D01*
X0391244Y0621560D01*
X0391153Y0621689D01*
X0391064Y0621820D01*
X0390980Y0621954D01*
X0390898Y0622090D01*
X0390820Y0622227D01*
X0390746Y0622367D01*
X0390675Y0622509D01*
X0390607Y0622652D01*
X0390543Y0622797D01*
X0390483Y0622943D01*
X0390427Y0623091D01*
X0390374Y0623240D01*
X0390325Y0623391D01*
X0390280Y0623543D01*
X0390239Y0623696D01*
X0390201Y0623849D01*
X0390168Y0624004D01*
X0390138Y0624160D01*
X0390112Y0624316D01*
X0390091Y0624473D01*
X0390073Y0624630D01*
X0390059Y0624788D01*
X0390049Y0624946D01*
X0390043Y0625104D01*
X0390041Y0625262D01*
X0396340Y0637073D02*
X0396625Y0637070D01*
X0396911Y0637059D01*
X0397196Y0637042D01*
X0397480Y0637018D01*
X0397764Y0636987D01*
X0398047Y0636949D01*
X0398328Y0636904D01*
X0398609Y0636853D01*
X0398889Y0636795D01*
X0399167Y0636730D01*
X0399443Y0636658D01*
X0399717Y0636580D01*
X0399990Y0636495D01*
X0400260Y0636403D01*
X0400528Y0636305D01*
X0400794Y0636201D01*
X0401057Y0636090D01*
X0401317Y0635973D01*
X0401575Y0635850D01*
X0401829Y0635720D01*
X0402080Y0635584D01*
X0402328Y0635443D01*
X0402572Y0635295D01*
X0402813Y0635142D01*
X0403049Y0634982D01*
X0403282Y0634817D01*
X0403511Y0634647D01*
X0403736Y0634471D01*
X0403956Y0634289D01*
X0404172Y0634103D01*
X0404383Y0633911D01*
X0404590Y0633714D01*
X0404792Y0633512D01*
X0404989Y0633305D01*
X0405181Y0633094D01*
X0405367Y0632878D01*
X0405549Y0632658D01*
X0405725Y0632433D01*
X0405895Y0632204D01*
X0406060Y0631971D01*
X0406220Y0631735D01*
X0406373Y0631494D01*
X0406521Y0631250D01*
X0406662Y0631002D01*
X0406798Y0630751D01*
X0406928Y0630497D01*
X0407051Y0630239D01*
X0407168Y0629979D01*
X0407279Y0629716D01*
X0407383Y0629450D01*
X0407481Y0629182D01*
X0407573Y0628912D01*
X0407658Y0628639D01*
X0407736Y0628365D01*
X0407808Y0628089D01*
X0407873Y0627811D01*
X0407931Y0627531D01*
X0407982Y0627250D01*
X0408027Y0626969D01*
X0408065Y0626686D01*
X0408096Y0626402D01*
X0408120Y0626118D01*
X0408137Y0625833D01*
X0408148Y0625547D01*
X0408151Y0625262D01*
X0396340Y0637073D02*
X0034135Y0637073D01*
X0027836Y0625262D02*
X0027838Y0625420D01*
X0027844Y0625578D01*
X0027854Y0625736D01*
X0027868Y0625894D01*
X0027886Y0626051D01*
X0027907Y0626208D01*
X0027933Y0626364D01*
X0027963Y0626520D01*
X0027996Y0626675D01*
X0028034Y0626828D01*
X0028075Y0626981D01*
X0028120Y0627133D01*
X0028169Y0627284D01*
X0028222Y0627433D01*
X0028278Y0627581D01*
X0028338Y0627727D01*
X0028402Y0627872D01*
X0028470Y0628015D01*
X0028541Y0628157D01*
X0028615Y0628297D01*
X0028693Y0628434D01*
X0028775Y0628570D01*
X0028859Y0628704D01*
X0028948Y0628835D01*
X0029039Y0628964D01*
X0029134Y0629091D01*
X0029231Y0629216D01*
X0029332Y0629338D01*
X0029436Y0629457D01*
X0029543Y0629574D01*
X0029653Y0629688D01*
X0029766Y0629799D01*
X0029881Y0629908D01*
X0029999Y0630013D01*
X0030120Y0630115D01*
X0030243Y0630215D01*
X0030369Y0630311D01*
X0030497Y0630404D01*
X0030627Y0630494D01*
X0030760Y0630580D01*
X0030895Y0630664D01*
X0031031Y0630743D01*
X0031170Y0630820D01*
X0031311Y0630892D01*
X0031453Y0630962D01*
X0031597Y0631027D01*
X0031743Y0631089D01*
X0031890Y0631147D01*
X0032039Y0631202D01*
X0032189Y0631253D01*
X0032340Y0631300D01*
X0032492Y0631343D01*
X0032645Y0631382D01*
X0032800Y0631418D01*
X0032955Y0631449D01*
X0033111Y0631477D01*
X0033267Y0631501D01*
X0033424Y0631521D01*
X0033582Y0631537D01*
X0033739Y0631549D01*
X0033898Y0631557D01*
X0034056Y0631561D01*
X0034214Y0631561D01*
X0034372Y0631557D01*
X0034531Y0631549D01*
X0034688Y0631537D01*
X0034846Y0631521D01*
X0035003Y0631501D01*
X0035159Y0631477D01*
X0035315Y0631449D01*
X0035470Y0631418D01*
X0035625Y0631382D01*
X0035778Y0631343D01*
X0035930Y0631300D01*
X0036081Y0631253D01*
X0036231Y0631202D01*
X0036380Y0631147D01*
X0036527Y0631089D01*
X0036673Y0631027D01*
X0036817Y0630962D01*
X0036959Y0630892D01*
X0037100Y0630820D01*
X0037239Y0630743D01*
X0037375Y0630664D01*
X0037510Y0630580D01*
X0037643Y0630494D01*
X0037773Y0630404D01*
X0037901Y0630311D01*
X0038027Y0630215D01*
X0038150Y0630115D01*
X0038271Y0630013D01*
X0038389Y0629908D01*
X0038504Y0629799D01*
X0038617Y0629688D01*
X0038727Y0629574D01*
X0038834Y0629457D01*
X0038938Y0629338D01*
X0039039Y0629216D01*
X0039136Y0629091D01*
X0039231Y0628964D01*
X0039322Y0628835D01*
X0039411Y0628704D01*
X0039495Y0628570D01*
X0039577Y0628434D01*
X0039655Y0628297D01*
X0039729Y0628157D01*
X0039800Y0628015D01*
X0039868Y0627872D01*
X0039932Y0627727D01*
X0039992Y0627581D01*
X0040048Y0627433D01*
X0040101Y0627284D01*
X0040150Y0627133D01*
X0040195Y0626981D01*
X0040236Y0626828D01*
X0040274Y0626675D01*
X0040307Y0626520D01*
X0040337Y0626364D01*
X0040363Y0626208D01*
X0040384Y0626051D01*
X0040402Y0625894D01*
X0040416Y0625736D01*
X0040426Y0625578D01*
X0040432Y0625420D01*
X0040434Y0625262D01*
X0040432Y0625104D01*
X0040426Y0624946D01*
X0040416Y0624788D01*
X0040402Y0624630D01*
X0040384Y0624473D01*
X0040363Y0624316D01*
X0040337Y0624160D01*
X0040307Y0624004D01*
X0040274Y0623849D01*
X0040236Y0623696D01*
X0040195Y0623543D01*
X0040150Y0623391D01*
X0040101Y0623240D01*
X0040048Y0623091D01*
X0039992Y0622943D01*
X0039932Y0622797D01*
X0039868Y0622652D01*
X0039800Y0622509D01*
X0039729Y0622367D01*
X0039655Y0622227D01*
X0039577Y0622090D01*
X0039495Y0621954D01*
X0039411Y0621820D01*
X0039322Y0621689D01*
X0039231Y0621560D01*
X0039136Y0621433D01*
X0039039Y0621308D01*
X0038938Y0621186D01*
X0038834Y0621067D01*
X0038727Y0620950D01*
X0038617Y0620836D01*
X0038504Y0620725D01*
X0038389Y0620616D01*
X0038271Y0620511D01*
X0038150Y0620409D01*
X0038027Y0620309D01*
X0037901Y0620213D01*
X0037773Y0620120D01*
X0037643Y0620030D01*
X0037510Y0619944D01*
X0037375Y0619860D01*
X0037239Y0619781D01*
X0037100Y0619704D01*
X0036959Y0619632D01*
X0036817Y0619562D01*
X0036673Y0619497D01*
X0036527Y0619435D01*
X0036380Y0619377D01*
X0036231Y0619322D01*
X0036081Y0619271D01*
X0035930Y0619224D01*
X0035778Y0619181D01*
X0035625Y0619142D01*
X0035470Y0619106D01*
X0035315Y0619075D01*
X0035159Y0619047D01*
X0035003Y0619023D01*
X0034846Y0619003D01*
X0034688Y0618987D01*
X0034531Y0618975D01*
X0034372Y0618967D01*
X0034214Y0618963D01*
X0034056Y0618963D01*
X0033898Y0618967D01*
X0033739Y0618975D01*
X0033582Y0618987D01*
X0033424Y0619003D01*
X0033267Y0619023D01*
X0033111Y0619047D01*
X0032955Y0619075D01*
X0032800Y0619106D01*
X0032645Y0619142D01*
X0032492Y0619181D01*
X0032340Y0619224D01*
X0032189Y0619271D01*
X0032039Y0619322D01*
X0031890Y0619377D01*
X0031743Y0619435D01*
X0031597Y0619497D01*
X0031453Y0619562D01*
X0031311Y0619632D01*
X0031170Y0619704D01*
X0031031Y0619781D01*
X0030895Y0619860D01*
X0030760Y0619944D01*
X0030627Y0620030D01*
X0030497Y0620120D01*
X0030369Y0620213D01*
X0030243Y0620309D01*
X0030120Y0620409D01*
X0029999Y0620511D01*
X0029881Y0620616D01*
X0029766Y0620725D01*
X0029653Y0620836D01*
X0029543Y0620950D01*
X0029436Y0621067D01*
X0029332Y0621186D01*
X0029231Y0621308D01*
X0029134Y0621433D01*
X0029039Y0621560D01*
X0028948Y0621689D01*
X0028859Y0621820D01*
X0028775Y0621954D01*
X0028693Y0622090D01*
X0028615Y0622227D01*
X0028541Y0622367D01*
X0028470Y0622509D01*
X0028402Y0622652D01*
X0028338Y0622797D01*
X0028278Y0622943D01*
X0028222Y0623091D01*
X0028169Y0623240D01*
X0028120Y0623391D01*
X0028075Y0623543D01*
X0028034Y0623696D01*
X0027996Y0623849D01*
X0027963Y0624004D01*
X0027933Y0624160D01*
X0027907Y0624316D01*
X0027886Y0624473D01*
X0027868Y0624630D01*
X0027854Y0624788D01*
X0027844Y0624946D01*
X0027838Y0625104D01*
X0027836Y0625262D01*
X0022324Y0625262D02*
X0022324Y0070144D01*
X0027836Y0070144D02*
X0027838Y0070302D01*
X0027844Y0070460D01*
X0027854Y0070618D01*
X0027868Y0070776D01*
X0027886Y0070933D01*
X0027907Y0071090D01*
X0027933Y0071246D01*
X0027963Y0071402D01*
X0027996Y0071557D01*
X0028034Y0071710D01*
X0028075Y0071863D01*
X0028120Y0072015D01*
X0028169Y0072166D01*
X0028222Y0072315D01*
X0028278Y0072463D01*
X0028338Y0072609D01*
X0028402Y0072754D01*
X0028470Y0072897D01*
X0028541Y0073039D01*
X0028615Y0073179D01*
X0028693Y0073316D01*
X0028775Y0073452D01*
X0028859Y0073586D01*
X0028948Y0073717D01*
X0029039Y0073846D01*
X0029134Y0073973D01*
X0029231Y0074098D01*
X0029332Y0074220D01*
X0029436Y0074339D01*
X0029543Y0074456D01*
X0029653Y0074570D01*
X0029766Y0074681D01*
X0029881Y0074790D01*
X0029999Y0074895D01*
X0030120Y0074997D01*
X0030243Y0075097D01*
X0030369Y0075193D01*
X0030497Y0075286D01*
X0030627Y0075376D01*
X0030760Y0075462D01*
X0030895Y0075546D01*
X0031031Y0075625D01*
X0031170Y0075702D01*
X0031311Y0075774D01*
X0031453Y0075844D01*
X0031597Y0075909D01*
X0031743Y0075971D01*
X0031890Y0076029D01*
X0032039Y0076084D01*
X0032189Y0076135D01*
X0032340Y0076182D01*
X0032492Y0076225D01*
X0032645Y0076264D01*
X0032800Y0076300D01*
X0032955Y0076331D01*
X0033111Y0076359D01*
X0033267Y0076383D01*
X0033424Y0076403D01*
X0033582Y0076419D01*
X0033739Y0076431D01*
X0033898Y0076439D01*
X0034056Y0076443D01*
X0034214Y0076443D01*
X0034372Y0076439D01*
X0034531Y0076431D01*
X0034688Y0076419D01*
X0034846Y0076403D01*
X0035003Y0076383D01*
X0035159Y0076359D01*
X0035315Y0076331D01*
X0035470Y0076300D01*
X0035625Y0076264D01*
X0035778Y0076225D01*
X0035930Y0076182D01*
X0036081Y0076135D01*
X0036231Y0076084D01*
X0036380Y0076029D01*
X0036527Y0075971D01*
X0036673Y0075909D01*
X0036817Y0075844D01*
X0036959Y0075774D01*
X0037100Y0075702D01*
X0037239Y0075625D01*
X0037375Y0075546D01*
X0037510Y0075462D01*
X0037643Y0075376D01*
X0037773Y0075286D01*
X0037901Y0075193D01*
X0038027Y0075097D01*
X0038150Y0074997D01*
X0038271Y0074895D01*
X0038389Y0074790D01*
X0038504Y0074681D01*
X0038617Y0074570D01*
X0038727Y0074456D01*
X0038834Y0074339D01*
X0038938Y0074220D01*
X0039039Y0074098D01*
X0039136Y0073973D01*
X0039231Y0073846D01*
X0039322Y0073717D01*
X0039411Y0073586D01*
X0039495Y0073452D01*
X0039577Y0073316D01*
X0039655Y0073179D01*
X0039729Y0073039D01*
X0039800Y0072897D01*
X0039868Y0072754D01*
X0039932Y0072609D01*
X0039992Y0072463D01*
X0040048Y0072315D01*
X0040101Y0072166D01*
X0040150Y0072015D01*
X0040195Y0071863D01*
X0040236Y0071710D01*
X0040274Y0071557D01*
X0040307Y0071402D01*
X0040337Y0071246D01*
X0040363Y0071090D01*
X0040384Y0070933D01*
X0040402Y0070776D01*
X0040416Y0070618D01*
X0040426Y0070460D01*
X0040432Y0070302D01*
X0040434Y0070144D01*
X0040432Y0069986D01*
X0040426Y0069828D01*
X0040416Y0069670D01*
X0040402Y0069512D01*
X0040384Y0069355D01*
X0040363Y0069198D01*
X0040337Y0069042D01*
X0040307Y0068886D01*
X0040274Y0068731D01*
X0040236Y0068578D01*
X0040195Y0068425D01*
X0040150Y0068273D01*
X0040101Y0068122D01*
X0040048Y0067973D01*
X0039992Y0067825D01*
X0039932Y0067679D01*
X0039868Y0067534D01*
X0039800Y0067391D01*
X0039729Y0067249D01*
X0039655Y0067109D01*
X0039577Y0066972D01*
X0039495Y0066836D01*
X0039411Y0066702D01*
X0039322Y0066571D01*
X0039231Y0066442D01*
X0039136Y0066315D01*
X0039039Y0066190D01*
X0038938Y0066068D01*
X0038834Y0065949D01*
X0038727Y0065832D01*
X0038617Y0065718D01*
X0038504Y0065607D01*
X0038389Y0065498D01*
X0038271Y0065393D01*
X0038150Y0065291D01*
X0038027Y0065191D01*
X0037901Y0065095D01*
X0037773Y0065002D01*
X0037643Y0064912D01*
X0037510Y0064826D01*
X0037375Y0064742D01*
X0037239Y0064663D01*
X0037100Y0064586D01*
X0036959Y0064514D01*
X0036817Y0064444D01*
X0036673Y0064379D01*
X0036527Y0064317D01*
X0036380Y0064259D01*
X0036231Y0064204D01*
X0036081Y0064153D01*
X0035930Y0064106D01*
X0035778Y0064063D01*
X0035625Y0064024D01*
X0035470Y0063988D01*
X0035315Y0063957D01*
X0035159Y0063929D01*
X0035003Y0063905D01*
X0034846Y0063885D01*
X0034688Y0063869D01*
X0034531Y0063857D01*
X0034372Y0063849D01*
X0034214Y0063845D01*
X0034056Y0063845D01*
X0033898Y0063849D01*
X0033739Y0063857D01*
X0033582Y0063869D01*
X0033424Y0063885D01*
X0033267Y0063905D01*
X0033111Y0063929D01*
X0032955Y0063957D01*
X0032800Y0063988D01*
X0032645Y0064024D01*
X0032492Y0064063D01*
X0032340Y0064106D01*
X0032189Y0064153D01*
X0032039Y0064204D01*
X0031890Y0064259D01*
X0031743Y0064317D01*
X0031597Y0064379D01*
X0031453Y0064444D01*
X0031311Y0064514D01*
X0031170Y0064586D01*
X0031031Y0064663D01*
X0030895Y0064742D01*
X0030760Y0064826D01*
X0030627Y0064912D01*
X0030497Y0065002D01*
X0030369Y0065095D01*
X0030243Y0065191D01*
X0030120Y0065291D01*
X0029999Y0065393D01*
X0029881Y0065498D01*
X0029766Y0065607D01*
X0029653Y0065718D01*
X0029543Y0065832D01*
X0029436Y0065949D01*
X0029332Y0066068D01*
X0029231Y0066190D01*
X0029134Y0066315D01*
X0029039Y0066442D01*
X0028948Y0066571D01*
X0028859Y0066702D01*
X0028775Y0066836D01*
X0028693Y0066972D01*
X0028615Y0067109D01*
X0028541Y0067249D01*
X0028470Y0067391D01*
X0028402Y0067534D01*
X0028338Y0067679D01*
X0028278Y0067825D01*
X0028222Y0067973D01*
X0028169Y0068122D01*
X0028120Y0068273D01*
X0028075Y0068425D01*
X0028034Y0068578D01*
X0027996Y0068731D01*
X0027963Y0068886D01*
X0027933Y0069042D01*
X0027907Y0069198D01*
X0027886Y0069355D01*
X0027868Y0069512D01*
X0027854Y0069670D01*
X0027844Y0069828D01*
X0027838Y0069986D01*
X0027836Y0070144D01*
X0022324Y0070144D02*
X0022327Y0069859D01*
X0022338Y0069573D01*
X0022355Y0069288D01*
X0022379Y0069004D01*
X0022410Y0068720D01*
X0022448Y0068437D01*
X0022493Y0068156D01*
X0022544Y0067875D01*
X0022602Y0067595D01*
X0022667Y0067317D01*
X0022739Y0067041D01*
X0022817Y0066767D01*
X0022902Y0066494D01*
X0022994Y0066224D01*
X0023092Y0065956D01*
X0023196Y0065690D01*
X0023307Y0065427D01*
X0023424Y0065167D01*
X0023547Y0064909D01*
X0023677Y0064655D01*
X0023813Y0064404D01*
X0023954Y0064156D01*
X0024102Y0063912D01*
X0024255Y0063671D01*
X0024415Y0063435D01*
X0024580Y0063202D01*
X0024750Y0062973D01*
X0024926Y0062748D01*
X0025108Y0062528D01*
X0025294Y0062312D01*
X0025486Y0062101D01*
X0025683Y0061894D01*
X0025885Y0061692D01*
X0026092Y0061495D01*
X0026303Y0061303D01*
X0026519Y0061117D01*
X0026739Y0060935D01*
X0026964Y0060759D01*
X0027193Y0060589D01*
X0027426Y0060424D01*
X0027662Y0060264D01*
X0027903Y0060111D01*
X0028147Y0059963D01*
X0028395Y0059822D01*
X0028646Y0059686D01*
X0028900Y0059556D01*
X0029158Y0059433D01*
X0029418Y0059316D01*
X0029681Y0059205D01*
X0029947Y0059101D01*
X0030215Y0059003D01*
X0030485Y0058911D01*
X0030758Y0058826D01*
X0031032Y0058748D01*
X0031308Y0058676D01*
X0031586Y0058611D01*
X0031866Y0058553D01*
X0032147Y0058502D01*
X0032428Y0058457D01*
X0032711Y0058419D01*
X0032995Y0058388D01*
X0033279Y0058364D01*
X0033564Y0058347D01*
X0033850Y0058336D01*
X0034135Y0058333D01*
X0055610Y0102979D02*
X0055612Y0103092D01*
X0055618Y0103206D01*
X0055628Y0103319D01*
X0055642Y0103431D01*
X0055659Y0103543D01*
X0055681Y0103655D01*
X0055707Y0103765D01*
X0055736Y0103875D01*
X0055769Y0103983D01*
X0055806Y0104091D01*
X0055847Y0104196D01*
X0055891Y0104301D01*
X0055939Y0104404D01*
X0055990Y0104505D01*
X0056045Y0104604D01*
X0056104Y0104701D01*
X0056166Y0104796D01*
X0056231Y0104889D01*
X0056299Y0104980D01*
X0056370Y0105068D01*
X0056445Y0105154D01*
X0056522Y0105237D01*
X0056602Y0105317D01*
X0056685Y0105394D01*
X0056771Y0105469D01*
X0056859Y0105540D01*
X0056950Y0105608D01*
X0057043Y0105673D01*
X0057138Y0105735D01*
X0057235Y0105794D01*
X0057334Y0105849D01*
X0057435Y0105900D01*
X0057538Y0105948D01*
X0057643Y0105992D01*
X0057748Y0106033D01*
X0057856Y0106070D01*
X0057964Y0106103D01*
X0058074Y0106132D01*
X0058184Y0106158D01*
X0058296Y0106180D01*
X0058408Y0106197D01*
X0058520Y0106211D01*
X0058633Y0106221D01*
X0058747Y0106227D01*
X0058860Y0106229D01*
X0058973Y0106227D01*
X0059087Y0106221D01*
X0059200Y0106211D01*
X0059312Y0106197D01*
X0059424Y0106180D01*
X0059536Y0106158D01*
X0059646Y0106132D01*
X0059756Y0106103D01*
X0059864Y0106070D01*
X0059972Y0106033D01*
X0060077Y0105992D01*
X0060182Y0105948D01*
X0060285Y0105900D01*
X0060386Y0105849D01*
X0060485Y0105794D01*
X0060582Y0105735D01*
X0060677Y0105673D01*
X0060770Y0105608D01*
X0060861Y0105540D01*
X0060949Y0105469D01*
X0061035Y0105394D01*
X0061118Y0105317D01*
X0061198Y0105237D01*
X0061275Y0105154D01*
X0061350Y0105068D01*
X0061421Y0104980D01*
X0061489Y0104889D01*
X0061554Y0104796D01*
X0061616Y0104701D01*
X0061675Y0104604D01*
X0061730Y0104505D01*
X0061781Y0104404D01*
X0061829Y0104301D01*
X0061873Y0104196D01*
X0061914Y0104091D01*
X0061951Y0103983D01*
X0061984Y0103875D01*
X0062013Y0103765D01*
X0062039Y0103655D01*
X0062061Y0103543D01*
X0062078Y0103431D01*
X0062092Y0103319D01*
X0062102Y0103206D01*
X0062108Y0103092D01*
X0062110Y0102979D01*
X0062108Y0102866D01*
X0062102Y0102752D01*
X0062092Y0102639D01*
X0062078Y0102527D01*
X0062061Y0102415D01*
X0062039Y0102303D01*
X0062013Y0102193D01*
X0061984Y0102083D01*
X0061951Y0101975D01*
X0061914Y0101867D01*
X0061873Y0101762D01*
X0061829Y0101657D01*
X0061781Y0101554D01*
X0061730Y0101453D01*
X0061675Y0101354D01*
X0061616Y0101257D01*
X0061554Y0101162D01*
X0061489Y0101069D01*
X0061421Y0100978D01*
X0061350Y0100890D01*
X0061275Y0100804D01*
X0061198Y0100721D01*
X0061118Y0100641D01*
X0061035Y0100564D01*
X0060949Y0100489D01*
X0060861Y0100418D01*
X0060770Y0100350D01*
X0060677Y0100285D01*
X0060582Y0100223D01*
X0060485Y0100164D01*
X0060386Y0100109D01*
X0060285Y0100058D01*
X0060182Y0100010D01*
X0060077Y0099966D01*
X0059972Y0099925D01*
X0059864Y0099888D01*
X0059756Y0099855D01*
X0059646Y0099826D01*
X0059536Y0099800D01*
X0059424Y0099778D01*
X0059312Y0099761D01*
X0059200Y0099747D01*
X0059087Y0099737D01*
X0058973Y0099731D01*
X0058860Y0099729D01*
X0058747Y0099731D01*
X0058633Y0099737D01*
X0058520Y0099747D01*
X0058408Y0099761D01*
X0058296Y0099778D01*
X0058184Y0099800D01*
X0058074Y0099826D01*
X0057964Y0099855D01*
X0057856Y0099888D01*
X0057748Y0099925D01*
X0057643Y0099966D01*
X0057538Y0100010D01*
X0057435Y0100058D01*
X0057334Y0100109D01*
X0057235Y0100164D01*
X0057138Y0100223D01*
X0057043Y0100285D01*
X0056950Y0100350D01*
X0056859Y0100418D01*
X0056771Y0100489D01*
X0056685Y0100564D01*
X0056602Y0100641D01*
X0056522Y0100721D01*
X0056445Y0100804D01*
X0056370Y0100890D01*
X0056299Y0100978D01*
X0056231Y0101069D01*
X0056166Y0101162D01*
X0056104Y0101257D01*
X0056045Y0101354D01*
X0055990Y0101453D01*
X0055939Y0101554D01*
X0055891Y0101657D01*
X0055847Y0101762D01*
X0055806Y0101867D01*
X0055769Y0101975D01*
X0055736Y0102083D01*
X0055707Y0102193D01*
X0055681Y0102303D01*
X0055659Y0102415D01*
X0055642Y0102527D01*
X0055628Y0102639D01*
X0055618Y0102752D01*
X0055612Y0102866D01*
X0055610Y0102979D01*
X0115610Y0102979D02*
X0115612Y0103092D01*
X0115618Y0103206D01*
X0115628Y0103319D01*
X0115642Y0103431D01*
X0115659Y0103543D01*
X0115681Y0103655D01*
X0115707Y0103765D01*
X0115736Y0103875D01*
X0115769Y0103983D01*
X0115806Y0104091D01*
X0115847Y0104196D01*
X0115891Y0104301D01*
X0115939Y0104404D01*
X0115990Y0104505D01*
X0116045Y0104604D01*
X0116104Y0104701D01*
X0116166Y0104796D01*
X0116231Y0104889D01*
X0116299Y0104980D01*
X0116370Y0105068D01*
X0116445Y0105154D01*
X0116522Y0105237D01*
X0116602Y0105317D01*
X0116685Y0105394D01*
X0116771Y0105469D01*
X0116859Y0105540D01*
X0116950Y0105608D01*
X0117043Y0105673D01*
X0117138Y0105735D01*
X0117235Y0105794D01*
X0117334Y0105849D01*
X0117435Y0105900D01*
X0117538Y0105948D01*
X0117643Y0105992D01*
X0117748Y0106033D01*
X0117856Y0106070D01*
X0117964Y0106103D01*
X0118074Y0106132D01*
X0118184Y0106158D01*
X0118296Y0106180D01*
X0118408Y0106197D01*
X0118520Y0106211D01*
X0118633Y0106221D01*
X0118747Y0106227D01*
X0118860Y0106229D01*
X0118973Y0106227D01*
X0119087Y0106221D01*
X0119200Y0106211D01*
X0119312Y0106197D01*
X0119424Y0106180D01*
X0119536Y0106158D01*
X0119646Y0106132D01*
X0119756Y0106103D01*
X0119864Y0106070D01*
X0119972Y0106033D01*
X0120077Y0105992D01*
X0120182Y0105948D01*
X0120285Y0105900D01*
X0120386Y0105849D01*
X0120485Y0105794D01*
X0120582Y0105735D01*
X0120677Y0105673D01*
X0120770Y0105608D01*
X0120861Y0105540D01*
X0120949Y0105469D01*
X0121035Y0105394D01*
X0121118Y0105317D01*
X0121198Y0105237D01*
X0121275Y0105154D01*
X0121350Y0105068D01*
X0121421Y0104980D01*
X0121489Y0104889D01*
X0121554Y0104796D01*
X0121616Y0104701D01*
X0121675Y0104604D01*
X0121730Y0104505D01*
X0121781Y0104404D01*
X0121829Y0104301D01*
X0121873Y0104196D01*
X0121914Y0104091D01*
X0121951Y0103983D01*
X0121984Y0103875D01*
X0122013Y0103765D01*
X0122039Y0103655D01*
X0122061Y0103543D01*
X0122078Y0103431D01*
X0122092Y0103319D01*
X0122102Y0103206D01*
X0122108Y0103092D01*
X0122110Y0102979D01*
X0122108Y0102866D01*
X0122102Y0102752D01*
X0122092Y0102639D01*
X0122078Y0102527D01*
X0122061Y0102415D01*
X0122039Y0102303D01*
X0122013Y0102193D01*
X0121984Y0102083D01*
X0121951Y0101975D01*
X0121914Y0101867D01*
X0121873Y0101762D01*
X0121829Y0101657D01*
X0121781Y0101554D01*
X0121730Y0101453D01*
X0121675Y0101354D01*
X0121616Y0101257D01*
X0121554Y0101162D01*
X0121489Y0101069D01*
X0121421Y0100978D01*
X0121350Y0100890D01*
X0121275Y0100804D01*
X0121198Y0100721D01*
X0121118Y0100641D01*
X0121035Y0100564D01*
X0120949Y0100489D01*
X0120861Y0100418D01*
X0120770Y0100350D01*
X0120677Y0100285D01*
X0120582Y0100223D01*
X0120485Y0100164D01*
X0120386Y0100109D01*
X0120285Y0100058D01*
X0120182Y0100010D01*
X0120077Y0099966D01*
X0119972Y0099925D01*
X0119864Y0099888D01*
X0119756Y0099855D01*
X0119646Y0099826D01*
X0119536Y0099800D01*
X0119424Y0099778D01*
X0119312Y0099761D01*
X0119200Y0099747D01*
X0119087Y0099737D01*
X0118973Y0099731D01*
X0118860Y0099729D01*
X0118747Y0099731D01*
X0118633Y0099737D01*
X0118520Y0099747D01*
X0118408Y0099761D01*
X0118296Y0099778D01*
X0118184Y0099800D01*
X0118074Y0099826D01*
X0117964Y0099855D01*
X0117856Y0099888D01*
X0117748Y0099925D01*
X0117643Y0099966D01*
X0117538Y0100010D01*
X0117435Y0100058D01*
X0117334Y0100109D01*
X0117235Y0100164D01*
X0117138Y0100223D01*
X0117043Y0100285D01*
X0116950Y0100350D01*
X0116859Y0100418D01*
X0116771Y0100489D01*
X0116685Y0100564D01*
X0116602Y0100641D01*
X0116522Y0100721D01*
X0116445Y0100804D01*
X0116370Y0100890D01*
X0116299Y0100978D01*
X0116231Y0101069D01*
X0116166Y0101162D01*
X0116104Y0101257D01*
X0116045Y0101354D01*
X0115990Y0101453D01*
X0115939Y0101554D01*
X0115891Y0101657D01*
X0115847Y0101762D01*
X0115806Y0101867D01*
X0115769Y0101975D01*
X0115736Y0102083D01*
X0115707Y0102193D01*
X0115681Y0102303D01*
X0115659Y0102415D01*
X0115642Y0102527D01*
X0115628Y0102639D01*
X0115618Y0102752D01*
X0115612Y0102866D01*
X0115610Y0102979D01*
X0115610Y0262979D02*
X0115612Y0263092D01*
X0115618Y0263206D01*
X0115628Y0263319D01*
X0115642Y0263431D01*
X0115659Y0263543D01*
X0115681Y0263655D01*
X0115707Y0263765D01*
X0115736Y0263875D01*
X0115769Y0263983D01*
X0115806Y0264091D01*
X0115847Y0264196D01*
X0115891Y0264301D01*
X0115939Y0264404D01*
X0115990Y0264505D01*
X0116045Y0264604D01*
X0116104Y0264701D01*
X0116166Y0264796D01*
X0116231Y0264889D01*
X0116299Y0264980D01*
X0116370Y0265068D01*
X0116445Y0265154D01*
X0116522Y0265237D01*
X0116602Y0265317D01*
X0116685Y0265394D01*
X0116771Y0265469D01*
X0116859Y0265540D01*
X0116950Y0265608D01*
X0117043Y0265673D01*
X0117138Y0265735D01*
X0117235Y0265794D01*
X0117334Y0265849D01*
X0117435Y0265900D01*
X0117538Y0265948D01*
X0117643Y0265992D01*
X0117748Y0266033D01*
X0117856Y0266070D01*
X0117964Y0266103D01*
X0118074Y0266132D01*
X0118184Y0266158D01*
X0118296Y0266180D01*
X0118408Y0266197D01*
X0118520Y0266211D01*
X0118633Y0266221D01*
X0118747Y0266227D01*
X0118860Y0266229D01*
X0118973Y0266227D01*
X0119087Y0266221D01*
X0119200Y0266211D01*
X0119312Y0266197D01*
X0119424Y0266180D01*
X0119536Y0266158D01*
X0119646Y0266132D01*
X0119756Y0266103D01*
X0119864Y0266070D01*
X0119972Y0266033D01*
X0120077Y0265992D01*
X0120182Y0265948D01*
X0120285Y0265900D01*
X0120386Y0265849D01*
X0120485Y0265794D01*
X0120582Y0265735D01*
X0120677Y0265673D01*
X0120770Y0265608D01*
X0120861Y0265540D01*
X0120949Y0265469D01*
X0121035Y0265394D01*
X0121118Y0265317D01*
X0121198Y0265237D01*
X0121275Y0265154D01*
X0121350Y0265068D01*
X0121421Y0264980D01*
X0121489Y0264889D01*
X0121554Y0264796D01*
X0121616Y0264701D01*
X0121675Y0264604D01*
X0121730Y0264505D01*
X0121781Y0264404D01*
X0121829Y0264301D01*
X0121873Y0264196D01*
X0121914Y0264091D01*
X0121951Y0263983D01*
X0121984Y0263875D01*
X0122013Y0263765D01*
X0122039Y0263655D01*
X0122061Y0263543D01*
X0122078Y0263431D01*
X0122092Y0263319D01*
X0122102Y0263206D01*
X0122108Y0263092D01*
X0122110Y0262979D01*
X0122108Y0262866D01*
X0122102Y0262752D01*
X0122092Y0262639D01*
X0122078Y0262527D01*
X0122061Y0262415D01*
X0122039Y0262303D01*
X0122013Y0262193D01*
X0121984Y0262083D01*
X0121951Y0261975D01*
X0121914Y0261867D01*
X0121873Y0261762D01*
X0121829Y0261657D01*
X0121781Y0261554D01*
X0121730Y0261453D01*
X0121675Y0261354D01*
X0121616Y0261257D01*
X0121554Y0261162D01*
X0121489Y0261069D01*
X0121421Y0260978D01*
X0121350Y0260890D01*
X0121275Y0260804D01*
X0121198Y0260721D01*
X0121118Y0260641D01*
X0121035Y0260564D01*
X0120949Y0260489D01*
X0120861Y0260418D01*
X0120770Y0260350D01*
X0120677Y0260285D01*
X0120582Y0260223D01*
X0120485Y0260164D01*
X0120386Y0260109D01*
X0120285Y0260058D01*
X0120182Y0260010D01*
X0120077Y0259966D01*
X0119972Y0259925D01*
X0119864Y0259888D01*
X0119756Y0259855D01*
X0119646Y0259826D01*
X0119536Y0259800D01*
X0119424Y0259778D01*
X0119312Y0259761D01*
X0119200Y0259747D01*
X0119087Y0259737D01*
X0118973Y0259731D01*
X0118860Y0259729D01*
X0118747Y0259731D01*
X0118633Y0259737D01*
X0118520Y0259747D01*
X0118408Y0259761D01*
X0118296Y0259778D01*
X0118184Y0259800D01*
X0118074Y0259826D01*
X0117964Y0259855D01*
X0117856Y0259888D01*
X0117748Y0259925D01*
X0117643Y0259966D01*
X0117538Y0260010D01*
X0117435Y0260058D01*
X0117334Y0260109D01*
X0117235Y0260164D01*
X0117138Y0260223D01*
X0117043Y0260285D01*
X0116950Y0260350D01*
X0116859Y0260418D01*
X0116771Y0260489D01*
X0116685Y0260564D01*
X0116602Y0260641D01*
X0116522Y0260721D01*
X0116445Y0260804D01*
X0116370Y0260890D01*
X0116299Y0260978D01*
X0116231Y0261069D01*
X0116166Y0261162D01*
X0116104Y0261257D01*
X0116045Y0261354D01*
X0115990Y0261453D01*
X0115939Y0261554D01*
X0115891Y0261657D01*
X0115847Y0261762D01*
X0115806Y0261867D01*
X0115769Y0261975D01*
X0115736Y0262083D01*
X0115707Y0262193D01*
X0115681Y0262303D01*
X0115659Y0262415D01*
X0115642Y0262527D01*
X0115628Y0262639D01*
X0115618Y0262752D01*
X0115612Y0262866D01*
X0115610Y0262979D01*
X0055610Y0262979D02*
X0055612Y0263092D01*
X0055618Y0263206D01*
X0055628Y0263319D01*
X0055642Y0263431D01*
X0055659Y0263543D01*
X0055681Y0263655D01*
X0055707Y0263765D01*
X0055736Y0263875D01*
X0055769Y0263983D01*
X0055806Y0264091D01*
X0055847Y0264196D01*
X0055891Y0264301D01*
X0055939Y0264404D01*
X0055990Y0264505D01*
X0056045Y0264604D01*
X0056104Y0264701D01*
X0056166Y0264796D01*
X0056231Y0264889D01*
X0056299Y0264980D01*
X0056370Y0265068D01*
X0056445Y0265154D01*
X0056522Y0265237D01*
X0056602Y0265317D01*
X0056685Y0265394D01*
X0056771Y0265469D01*
X0056859Y0265540D01*
X0056950Y0265608D01*
X0057043Y0265673D01*
X0057138Y0265735D01*
X0057235Y0265794D01*
X0057334Y0265849D01*
X0057435Y0265900D01*
X0057538Y0265948D01*
X0057643Y0265992D01*
X0057748Y0266033D01*
X0057856Y0266070D01*
X0057964Y0266103D01*
X0058074Y0266132D01*
X0058184Y0266158D01*
X0058296Y0266180D01*
X0058408Y0266197D01*
X0058520Y0266211D01*
X0058633Y0266221D01*
X0058747Y0266227D01*
X0058860Y0266229D01*
X0058973Y0266227D01*
X0059087Y0266221D01*
X0059200Y0266211D01*
X0059312Y0266197D01*
X0059424Y0266180D01*
X0059536Y0266158D01*
X0059646Y0266132D01*
X0059756Y0266103D01*
X0059864Y0266070D01*
X0059972Y0266033D01*
X0060077Y0265992D01*
X0060182Y0265948D01*
X0060285Y0265900D01*
X0060386Y0265849D01*
X0060485Y0265794D01*
X0060582Y0265735D01*
X0060677Y0265673D01*
X0060770Y0265608D01*
X0060861Y0265540D01*
X0060949Y0265469D01*
X0061035Y0265394D01*
X0061118Y0265317D01*
X0061198Y0265237D01*
X0061275Y0265154D01*
X0061350Y0265068D01*
X0061421Y0264980D01*
X0061489Y0264889D01*
X0061554Y0264796D01*
X0061616Y0264701D01*
X0061675Y0264604D01*
X0061730Y0264505D01*
X0061781Y0264404D01*
X0061829Y0264301D01*
X0061873Y0264196D01*
X0061914Y0264091D01*
X0061951Y0263983D01*
X0061984Y0263875D01*
X0062013Y0263765D01*
X0062039Y0263655D01*
X0062061Y0263543D01*
X0062078Y0263431D01*
X0062092Y0263319D01*
X0062102Y0263206D01*
X0062108Y0263092D01*
X0062110Y0262979D01*
X0062108Y0262866D01*
X0062102Y0262752D01*
X0062092Y0262639D01*
X0062078Y0262527D01*
X0062061Y0262415D01*
X0062039Y0262303D01*
X0062013Y0262193D01*
X0061984Y0262083D01*
X0061951Y0261975D01*
X0061914Y0261867D01*
X0061873Y0261762D01*
X0061829Y0261657D01*
X0061781Y0261554D01*
X0061730Y0261453D01*
X0061675Y0261354D01*
X0061616Y0261257D01*
X0061554Y0261162D01*
X0061489Y0261069D01*
X0061421Y0260978D01*
X0061350Y0260890D01*
X0061275Y0260804D01*
X0061198Y0260721D01*
X0061118Y0260641D01*
X0061035Y0260564D01*
X0060949Y0260489D01*
X0060861Y0260418D01*
X0060770Y0260350D01*
X0060677Y0260285D01*
X0060582Y0260223D01*
X0060485Y0260164D01*
X0060386Y0260109D01*
X0060285Y0260058D01*
X0060182Y0260010D01*
X0060077Y0259966D01*
X0059972Y0259925D01*
X0059864Y0259888D01*
X0059756Y0259855D01*
X0059646Y0259826D01*
X0059536Y0259800D01*
X0059424Y0259778D01*
X0059312Y0259761D01*
X0059200Y0259747D01*
X0059087Y0259737D01*
X0058973Y0259731D01*
X0058860Y0259729D01*
X0058747Y0259731D01*
X0058633Y0259737D01*
X0058520Y0259747D01*
X0058408Y0259761D01*
X0058296Y0259778D01*
X0058184Y0259800D01*
X0058074Y0259826D01*
X0057964Y0259855D01*
X0057856Y0259888D01*
X0057748Y0259925D01*
X0057643Y0259966D01*
X0057538Y0260010D01*
X0057435Y0260058D01*
X0057334Y0260109D01*
X0057235Y0260164D01*
X0057138Y0260223D01*
X0057043Y0260285D01*
X0056950Y0260350D01*
X0056859Y0260418D01*
X0056771Y0260489D01*
X0056685Y0260564D01*
X0056602Y0260641D01*
X0056522Y0260721D01*
X0056445Y0260804D01*
X0056370Y0260890D01*
X0056299Y0260978D01*
X0056231Y0261069D01*
X0056166Y0261162D01*
X0056104Y0261257D01*
X0056045Y0261354D01*
X0055990Y0261453D01*
X0055939Y0261554D01*
X0055891Y0261657D01*
X0055847Y0261762D01*
X0055806Y0261867D01*
X0055769Y0261975D01*
X0055736Y0262083D01*
X0055707Y0262193D01*
X0055681Y0262303D01*
X0055659Y0262415D01*
X0055642Y0262527D01*
X0055628Y0262639D01*
X0055618Y0262752D01*
X0055612Y0262866D01*
X0055610Y0262979D01*
X0022324Y0625262D02*
X0022327Y0625547D01*
X0022338Y0625833D01*
X0022355Y0626118D01*
X0022379Y0626402D01*
X0022410Y0626686D01*
X0022448Y0626969D01*
X0022493Y0627250D01*
X0022544Y0627531D01*
X0022602Y0627811D01*
X0022667Y0628089D01*
X0022739Y0628365D01*
X0022817Y0628639D01*
X0022902Y0628912D01*
X0022994Y0629182D01*
X0023092Y0629450D01*
X0023196Y0629716D01*
X0023307Y0629979D01*
X0023424Y0630239D01*
X0023547Y0630497D01*
X0023677Y0630751D01*
X0023813Y0631002D01*
X0023954Y0631250D01*
X0024102Y0631494D01*
X0024255Y0631735D01*
X0024415Y0631971D01*
X0024580Y0632204D01*
X0024750Y0632433D01*
X0024926Y0632658D01*
X0025108Y0632878D01*
X0025294Y0633094D01*
X0025486Y0633305D01*
X0025683Y0633512D01*
X0025885Y0633714D01*
X0026092Y0633911D01*
X0026303Y0634103D01*
X0026519Y0634289D01*
X0026739Y0634471D01*
X0026964Y0634647D01*
X0027193Y0634817D01*
X0027426Y0634982D01*
X0027662Y0635142D01*
X0027903Y0635295D01*
X0028147Y0635443D01*
X0028395Y0635584D01*
X0028646Y0635720D01*
X0028900Y0635850D01*
X0029158Y0635973D01*
X0029418Y0636090D01*
X0029681Y0636201D01*
X0029947Y0636305D01*
X0030215Y0636403D01*
X0030485Y0636495D01*
X0030758Y0636580D01*
X0031032Y0636658D01*
X0031308Y0636730D01*
X0031586Y0636795D01*
X0031866Y0636853D01*
X0032147Y0636904D01*
X0032428Y0636949D01*
X0032711Y0636987D01*
X0032995Y0637018D01*
X0033279Y0637042D01*
X0033564Y0637059D01*
X0033850Y0637070D01*
X0034135Y0637073D01*
X0305710Y0313294D02*
X0305712Y0313447D01*
X0305718Y0313601D01*
X0305728Y0313754D01*
X0305742Y0313906D01*
X0305760Y0314059D01*
X0305782Y0314210D01*
X0305807Y0314361D01*
X0305837Y0314512D01*
X0305871Y0314662D01*
X0305908Y0314810D01*
X0305949Y0314958D01*
X0305994Y0315104D01*
X0306043Y0315250D01*
X0306096Y0315394D01*
X0306152Y0315536D01*
X0306212Y0315677D01*
X0306276Y0315817D01*
X0306343Y0315955D01*
X0306414Y0316091D01*
X0306489Y0316225D01*
X0306566Y0316357D01*
X0306648Y0316487D01*
X0306732Y0316615D01*
X0306820Y0316741D01*
X0306911Y0316864D01*
X0307005Y0316985D01*
X0307103Y0317103D01*
X0307203Y0317219D01*
X0307307Y0317332D01*
X0307413Y0317443D01*
X0307522Y0317551D01*
X0307634Y0317656D01*
X0307748Y0317757D01*
X0307866Y0317856D01*
X0307985Y0317952D01*
X0308107Y0318045D01*
X0308232Y0318134D01*
X0308359Y0318221D01*
X0308488Y0318303D01*
X0308619Y0318383D01*
X0308752Y0318459D01*
X0308887Y0318532D01*
X0309024Y0318601D01*
X0309163Y0318666D01*
X0309303Y0318728D01*
X0309445Y0318786D01*
X0309588Y0318841D01*
X0309733Y0318892D01*
X0309879Y0318939D01*
X0310026Y0318982D01*
X0310174Y0319021D01*
X0310323Y0319057D01*
X0310473Y0319088D01*
X0310624Y0319116D01*
X0310775Y0319140D01*
X0310928Y0319160D01*
X0311080Y0319176D01*
X0311233Y0319188D01*
X0311386Y0319196D01*
X0311539Y0319200D01*
X0311693Y0319200D01*
X0311846Y0319196D01*
X0311999Y0319188D01*
X0312152Y0319176D01*
X0312304Y0319160D01*
X0312457Y0319140D01*
X0312608Y0319116D01*
X0312759Y0319088D01*
X0312909Y0319057D01*
X0313058Y0319021D01*
X0313206Y0318982D01*
X0313353Y0318939D01*
X0313499Y0318892D01*
X0313644Y0318841D01*
X0313787Y0318786D01*
X0313929Y0318728D01*
X0314069Y0318666D01*
X0314208Y0318601D01*
X0314345Y0318532D01*
X0314480Y0318459D01*
X0314613Y0318383D01*
X0314744Y0318303D01*
X0314873Y0318221D01*
X0315000Y0318134D01*
X0315125Y0318045D01*
X0315247Y0317952D01*
X0315366Y0317856D01*
X0315484Y0317757D01*
X0315598Y0317656D01*
X0315710Y0317551D01*
X0315819Y0317443D01*
X0315925Y0317332D01*
X0316029Y0317219D01*
X0316129Y0317103D01*
X0316227Y0316985D01*
X0316321Y0316864D01*
X0316412Y0316741D01*
X0316500Y0316615D01*
X0316584Y0316487D01*
X0316666Y0316357D01*
X0316743Y0316225D01*
X0316818Y0316091D01*
X0316889Y0315955D01*
X0316956Y0315817D01*
X0317020Y0315677D01*
X0317080Y0315536D01*
X0317136Y0315394D01*
X0317189Y0315250D01*
X0317238Y0315104D01*
X0317283Y0314958D01*
X0317324Y0314810D01*
X0317361Y0314662D01*
X0317395Y0314512D01*
X0317425Y0314361D01*
X0317450Y0314210D01*
X0317472Y0314059D01*
X0317490Y0313906D01*
X0317504Y0313754D01*
X0317514Y0313601D01*
X0317520Y0313447D01*
X0317522Y0313294D01*
X0317520Y0313141D01*
X0317514Y0312987D01*
X0317504Y0312834D01*
X0317490Y0312682D01*
X0317472Y0312529D01*
X0317450Y0312378D01*
X0317425Y0312227D01*
X0317395Y0312076D01*
X0317361Y0311926D01*
X0317324Y0311778D01*
X0317283Y0311630D01*
X0317238Y0311484D01*
X0317189Y0311338D01*
X0317136Y0311194D01*
X0317080Y0311052D01*
X0317020Y0310911D01*
X0316956Y0310771D01*
X0316889Y0310633D01*
X0316818Y0310497D01*
X0316743Y0310363D01*
X0316666Y0310231D01*
X0316584Y0310101D01*
X0316500Y0309973D01*
X0316412Y0309847D01*
X0316321Y0309724D01*
X0316227Y0309603D01*
X0316129Y0309485D01*
X0316029Y0309369D01*
X0315925Y0309256D01*
X0315819Y0309145D01*
X0315710Y0309037D01*
X0315598Y0308932D01*
X0315484Y0308831D01*
X0315366Y0308732D01*
X0315247Y0308636D01*
X0315125Y0308543D01*
X0315000Y0308454D01*
X0314873Y0308367D01*
X0314744Y0308285D01*
X0314613Y0308205D01*
X0314480Y0308129D01*
X0314345Y0308056D01*
X0314208Y0307987D01*
X0314069Y0307922D01*
X0313929Y0307860D01*
X0313787Y0307802D01*
X0313644Y0307747D01*
X0313499Y0307696D01*
X0313353Y0307649D01*
X0313206Y0307606D01*
X0313058Y0307567D01*
X0312909Y0307531D01*
X0312759Y0307500D01*
X0312608Y0307472D01*
X0312457Y0307448D01*
X0312304Y0307428D01*
X0312152Y0307412D01*
X0311999Y0307400D01*
X0311846Y0307392D01*
X0311693Y0307388D01*
X0311539Y0307388D01*
X0311386Y0307392D01*
X0311233Y0307400D01*
X0311080Y0307412D01*
X0310928Y0307428D01*
X0310775Y0307448D01*
X0310624Y0307472D01*
X0310473Y0307500D01*
X0310323Y0307531D01*
X0310174Y0307567D01*
X0310026Y0307606D01*
X0309879Y0307649D01*
X0309733Y0307696D01*
X0309588Y0307747D01*
X0309445Y0307802D01*
X0309303Y0307860D01*
X0309163Y0307922D01*
X0309024Y0307987D01*
X0308887Y0308056D01*
X0308752Y0308129D01*
X0308619Y0308205D01*
X0308488Y0308285D01*
X0308359Y0308367D01*
X0308232Y0308454D01*
X0308107Y0308543D01*
X0307985Y0308636D01*
X0307866Y0308732D01*
X0307748Y0308831D01*
X0307634Y0308932D01*
X0307522Y0309037D01*
X0307413Y0309145D01*
X0307307Y0309256D01*
X0307203Y0309369D01*
X0307103Y0309485D01*
X0307005Y0309603D01*
X0306911Y0309724D01*
X0306820Y0309847D01*
X0306732Y0309973D01*
X0306648Y0310101D01*
X0306566Y0310231D01*
X0306489Y0310363D01*
X0306414Y0310497D01*
X0306343Y0310633D01*
X0306276Y0310771D01*
X0306212Y0310911D01*
X0306152Y0311052D01*
X0306096Y0311194D01*
X0306043Y0311338D01*
X0305994Y0311484D01*
X0305949Y0311630D01*
X0305908Y0311778D01*
X0305871Y0311926D01*
X0305837Y0312076D01*
X0305807Y0312227D01*
X0305782Y0312378D01*
X0305760Y0312529D01*
X0305742Y0312682D01*
X0305728Y0312834D01*
X0305718Y0312987D01*
X0305712Y0313141D01*
X0305710Y0313294D01*
X0365710Y0430294D02*
X0365712Y0430447D01*
X0365718Y0430601D01*
X0365728Y0430754D01*
X0365742Y0430906D01*
X0365760Y0431059D01*
X0365782Y0431210D01*
X0365807Y0431361D01*
X0365837Y0431512D01*
X0365871Y0431662D01*
X0365908Y0431810D01*
X0365949Y0431958D01*
X0365994Y0432104D01*
X0366043Y0432250D01*
X0366096Y0432394D01*
X0366152Y0432536D01*
X0366212Y0432677D01*
X0366276Y0432817D01*
X0366343Y0432955D01*
X0366414Y0433091D01*
X0366489Y0433225D01*
X0366566Y0433357D01*
X0366648Y0433487D01*
X0366732Y0433615D01*
X0366820Y0433741D01*
X0366911Y0433864D01*
X0367005Y0433985D01*
X0367103Y0434103D01*
X0367203Y0434219D01*
X0367307Y0434332D01*
X0367413Y0434443D01*
X0367522Y0434551D01*
X0367634Y0434656D01*
X0367748Y0434757D01*
X0367866Y0434856D01*
X0367985Y0434952D01*
X0368107Y0435045D01*
X0368232Y0435134D01*
X0368359Y0435221D01*
X0368488Y0435303D01*
X0368619Y0435383D01*
X0368752Y0435459D01*
X0368887Y0435532D01*
X0369024Y0435601D01*
X0369163Y0435666D01*
X0369303Y0435728D01*
X0369445Y0435786D01*
X0369588Y0435841D01*
X0369733Y0435892D01*
X0369879Y0435939D01*
X0370026Y0435982D01*
X0370174Y0436021D01*
X0370323Y0436057D01*
X0370473Y0436088D01*
X0370624Y0436116D01*
X0370775Y0436140D01*
X0370928Y0436160D01*
X0371080Y0436176D01*
X0371233Y0436188D01*
X0371386Y0436196D01*
X0371539Y0436200D01*
X0371693Y0436200D01*
X0371846Y0436196D01*
X0371999Y0436188D01*
X0372152Y0436176D01*
X0372304Y0436160D01*
X0372457Y0436140D01*
X0372608Y0436116D01*
X0372759Y0436088D01*
X0372909Y0436057D01*
X0373058Y0436021D01*
X0373206Y0435982D01*
X0373353Y0435939D01*
X0373499Y0435892D01*
X0373644Y0435841D01*
X0373787Y0435786D01*
X0373929Y0435728D01*
X0374069Y0435666D01*
X0374208Y0435601D01*
X0374345Y0435532D01*
X0374480Y0435459D01*
X0374613Y0435383D01*
X0374744Y0435303D01*
X0374873Y0435221D01*
X0375000Y0435134D01*
X0375125Y0435045D01*
X0375247Y0434952D01*
X0375366Y0434856D01*
X0375484Y0434757D01*
X0375598Y0434656D01*
X0375710Y0434551D01*
X0375819Y0434443D01*
X0375925Y0434332D01*
X0376029Y0434219D01*
X0376129Y0434103D01*
X0376227Y0433985D01*
X0376321Y0433864D01*
X0376412Y0433741D01*
X0376500Y0433615D01*
X0376584Y0433487D01*
X0376666Y0433357D01*
X0376743Y0433225D01*
X0376818Y0433091D01*
X0376889Y0432955D01*
X0376956Y0432817D01*
X0377020Y0432677D01*
X0377080Y0432536D01*
X0377136Y0432394D01*
X0377189Y0432250D01*
X0377238Y0432104D01*
X0377283Y0431958D01*
X0377324Y0431810D01*
X0377361Y0431662D01*
X0377395Y0431512D01*
X0377425Y0431361D01*
X0377450Y0431210D01*
X0377472Y0431059D01*
X0377490Y0430906D01*
X0377504Y0430754D01*
X0377514Y0430601D01*
X0377520Y0430447D01*
X0377522Y0430294D01*
X0377520Y0430141D01*
X0377514Y0429987D01*
X0377504Y0429834D01*
X0377490Y0429682D01*
X0377472Y0429529D01*
X0377450Y0429378D01*
X0377425Y0429227D01*
X0377395Y0429076D01*
X0377361Y0428926D01*
X0377324Y0428778D01*
X0377283Y0428630D01*
X0377238Y0428484D01*
X0377189Y0428338D01*
X0377136Y0428194D01*
X0377080Y0428052D01*
X0377020Y0427911D01*
X0376956Y0427771D01*
X0376889Y0427633D01*
X0376818Y0427497D01*
X0376743Y0427363D01*
X0376666Y0427231D01*
X0376584Y0427101D01*
X0376500Y0426973D01*
X0376412Y0426847D01*
X0376321Y0426724D01*
X0376227Y0426603D01*
X0376129Y0426485D01*
X0376029Y0426369D01*
X0375925Y0426256D01*
X0375819Y0426145D01*
X0375710Y0426037D01*
X0375598Y0425932D01*
X0375484Y0425831D01*
X0375366Y0425732D01*
X0375247Y0425636D01*
X0375125Y0425543D01*
X0375000Y0425454D01*
X0374873Y0425367D01*
X0374744Y0425285D01*
X0374613Y0425205D01*
X0374480Y0425129D01*
X0374345Y0425056D01*
X0374208Y0424987D01*
X0374069Y0424922D01*
X0373929Y0424860D01*
X0373787Y0424802D01*
X0373644Y0424747D01*
X0373499Y0424696D01*
X0373353Y0424649D01*
X0373206Y0424606D01*
X0373058Y0424567D01*
X0372909Y0424531D01*
X0372759Y0424500D01*
X0372608Y0424472D01*
X0372457Y0424448D01*
X0372304Y0424428D01*
X0372152Y0424412D01*
X0371999Y0424400D01*
X0371846Y0424392D01*
X0371693Y0424388D01*
X0371539Y0424388D01*
X0371386Y0424392D01*
X0371233Y0424400D01*
X0371080Y0424412D01*
X0370928Y0424428D01*
X0370775Y0424448D01*
X0370624Y0424472D01*
X0370473Y0424500D01*
X0370323Y0424531D01*
X0370174Y0424567D01*
X0370026Y0424606D01*
X0369879Y0424649D01*
X0369733Y0424696D01*
X0369588Y0424747D01*
X0369445Y0424802D01*
X0369303Y0424860D01*
X0369163Y0424922D01*
X0369024Y0424987D01*
X0368887Y0425056D01*
X0368752Y0425129D01*
X0368619Y0425205D01*
X0368488Y0425285D01*
X0368359Y0425367D01*
X0368232Y0425454D01*
X0368107Y0425543D01*
X0367985Y0425636D01*
X0367866Y0425732D01*
X0367748Y0425831D01*
X0367634Y0425932D01*
X0367522Y0426037D01*
X0367413Y0426145D01*
X0367307Y0426256D01*
X0367203Y0426369D01*
X0367103Y0426485D01*
X0367005Y0426603D01*
X0366911Y0426724D01*
X0366820Y0426847D01*
X0366732Y0426973D01*
X0366648Y0427101D01*
X0366566Y0427231D01*
X0366489Y0427363D01*
X0366414Y0427497D01*
X0366343Y0427633D01*
X0366276Y0427771D01*
X0366212Y0427911D01*
X0366152Y0428052D01*
X0366096Y0428194D01*
X0366043Y0428338D01*
X0365994Y0428484D01*
X0365949Y0428630D01*
X0365908Y0428778D01*
X0365871Y0428926D01*
X0365837Y0429076D01*
X0365807Y0429227D01*
X0365782Y0429378D01*
X0365760Y0429529D01*
X0365742Y0429682D01*
X0365728Y0429834D01*
X0365718Y0429987D01*
X0365712Y0430141D01*
X0365710Y0430294D01*
D11*
X0245238Y0573593D02*
X0245238Y0582443D01*
X0225238Y0582443D02*
X0225238Y0573593D01*
X0205238Y0573593D02*
X0205238Y0582443D01*
X0185238Y0582443D02*
X0185238Y0573593D01*
D12*
X0093210Y0445420D03*
X0093210Y0317191D03*
X0258584Y0310735D03*
X0341616Y0523994D03*
D13*
X0341616Y0509994D03*
X0258584Y0300735D03*
X0103210Y0317191D03*
X0103210Y0445420D03*
D14*
X0118210Y0396325D03*
X0118210Y0386325D03*
X0118210Y0340577D03*
X0078210Y0340577D03*
X0073013Y0322191D03*
X0073013Y0312191D03*
X0078210Y0386325D03*
X0078210Y0396325D03*
X0170238Y0345735D03*
X0170238Y0335735D03*
X0170238Y0325735D03*
X0180238Y0325735D03*
X0180238Y0285735D03*
X0170238Y0285735D03*
X0210238Y0335735D03*
X0210238Y0345735D03*
X0220238Y0345735D03*
X0220238Y0335735D03*
X0260238Y0335735D03*
X0260238Y0345735D03*
X0235238Y0445971D03*
X0235238Y0455971D03*
X0195238Y0455971D03*
X0195238Y0445971D03*
X0306970Y0586168D03*
X0306970Y0596168D03*
X0317009Y0574357D03*
X0346970Y0586168D03*
X0346970Y0596168D03*
X0357009Y0574357D03*
X0152403Y0219750D03*
X0146403Y0202979D03*
X0132403Y0219750D03*
X0038224Y0205181D03*
X0038224Y0195181D03*
X0038024Y0172985D03*
X0038024Y0132985D03*
D15*
X0200238Y0215648D02*
X0200238Y0221648D01*
X0210238Y0221648D02*
X0210238Y0215648D01*
X0220238Y0215648D02*
X0220238Y0221648D01*
X0230238Y0221648D02*
X0230238Y0215648D01*
X0225238Y0073144D02*
X0225238Y0067144D01*
X0215238Y0067144D02*
X0215238Y0073144D01*
X0205238Y0073144D02*
X0205238Y0067144D01*
X0108210Y0415097D02*
X0108210Y0421097D01*
X0098210Y0421097D02*
X0098210Y0415097D01*
X0088210Y0415097D02*
X0088210Y0421097D01*
X0112478Y0535459D02*
X0118478Y0535459D01*
X0119478Y0565459D02*
X0125478Y0565459D01*
X0205238Y0622262D02*
X0205238Y0628262D01*
X0215238Y0628262D02*
X0215238Y0622262D01*
X0225238Y0622262D02*
X0225238Y0628262D01*
X0306970Y0551609D02*
X0306970Y0545609D01*
X0316970Y0545609D02*
X0316970Y0551609D01*
X0326970Y0551609D02*
X0326970Y0545609D01*
X0354214Y0545609D02*
X0354214Y0551609D01*
X0364214Y0551609D02*
X0364214Y0545609D01*
X0374214Y0545609D02*
X0374214Y0551609D01*
D16*
X0250238Y0367388D02*
X0240238Y0367388D01*
X0190238Y0367388D02*
X0180238Y0367388D01*
X0082639Y0506159D02*
X0072639Y0506159D01*
X0072639Y0594759D02*
X0082639Y0594759D01*
X0336616Y0248302D02*
X0346616Y0248302D01*
X0346616Y0159702D02*
X0336616Y0159702D01*
D17*
X0325200Y0142191D02*
X0320000Y0142191D01*
X0360000Y0142191D02*
X0365200Y0142191D01*
X0237838Y0261089D02*
X0232638Y0261089D01*
X0230238Y0288135D02*
X0230238Y0293335D01*
X0220238Y0293335D02*
X0220238Y0288135D01*
X0210238Y0288135D02*
X0210238Y0293335D01*
X0200238Y0293335D02*
X0200238Y0288135D01*
X0197838Y0261089D02*
X0192638Y0261089D01*
X0200238Y0318135D02*
X0200238Y0323335D01*
X0210238Y0323335D02*
X0210238Y0318135D01*
X0220238Y0318135D02*
X0220238Y0323335D01*
X0230238Y0323335D02*
X0230238Y0318135D01*
X0232638Y0410695D02*
X0237838Y0410695D01*
X0197838Y0410695D02*
X0192638Y0410695D01*
X0120810Y0350577D02*
X0115610Y0350577D01*
X0080810Y0350577D02*
X0075610Y0350577D01*
D18*
X0307616Y0295294D03*
X0375616Y0295294D03*
X0375616Y0451294D03*
X0307616Y0451294D03*
D19*
X0058860Y0252979D03*
D20*
X0058860Y0242979D03*
X0058860Y0232979D03*
X0058860Y0222979D03*
X0058860Y0212979D03*
X0058860Y0202979D03*
X0058860Y0192979D03*
X0058860Y0182979D03*
X0058860Y0172979D03*
X0058860Y0162979D03*
X0058860Y0152979D03*
X0058860Y0142979D03*
X0058860Y0132979D03*
X0058860Y0122979D03*
X0058860Y0112979D03*
X0118860Y0112979D03*
X0118860Y0122979D03*
X0118860Y0132979D03*
X0118860Y0142979D03*
X0118860Y0152979D03*
X0118860Y0162979D03*
X0118860Y0172979D03*
X0118860Y0182979D03*
X0118860Y0192979D03*
X0118860Y0202979D03*
X0118860Y0212979D03*
X0118860Y0222979D03*
X0118860Y0232979D03*
X0118860Y0242979D03*
X0118860Y0252979D03*
D21*
X0138403Y0202979D03*
D22*
X0152246Y0112817D02*
X0152246Y0107077D01*
X0162088Y0107077D02*
X0162088Y0112817D01*
X0169962Y0112817D02*
X0169962Y0107077D01*
X0179805Y0107077D02*
X0179805Y0112817D01*
X0250671Y0112817D02*
X0250671Y0107077D01*
X0260513Y0107077D02*
X0260513Y0112817D01*
X0268387Y0112817D02*
X0268387Y0107077D01*
X0278230Y0107077D02*
X0278230Y0112817D01*
D23*
X0290317Y0099278D03*
X0238584Y0099278D03*
X0191891Y0099278D03*
X0140159Y0099278D03*
D24*
X0238224Y0273033D02*
X0238224Y0278633D01*
X0248224Y0278633D02*
X0248224Y0273033D01*
X0198038Y0423229D02*
X0192438Y0423229D01*
X0192438Y0433229D02*
X0198038Y0433229D01*
X0121069Y0374708D02*
X0115469Y0374708D01*
X0115469Y0364708D02*
X0121069Y0364708D01*
X0372624Y0248033D02*
X0378224Y0248033D01*
X0378224Y0238033D02*
X0372624Y0238033D01*
D25*
X0387624Y0265033D03*
X0295124Y0265033D03*
X0262482Y0261089D03*
X0262482Y0367388D03*
X0250671Y0410695D03*
X0250671Y0433333D03*
X0250671Y0455971D03*
X0158151Y0367388D03*
X0158151Y0261089D03*
X0046242Y0346955D03*
X0046242Y0366640D03*
X0046242Y0386325D03*
X0046242Y0406010D03*
D26*
X0046050Y0443094D03*
X0079857Y0445954D03*
X0079587Y0453583D03*
X0134561Y0558874D03*
X0133310Y0575465D03*
X0155300Y0605994D03*
X0142200Y0615394D03*
X0160800Y0518494D03*
X0166900Y0431594D03*
X0190789Y0325323D03*
X0190189Y0285623D03*
X0154021Y0230422D03*
X0164945Y0212940D03*
X0165103Y0202861D03*
X0189630Y0218964D03*
X0130100Y0253294D03*
X0085283Y0303717D03*
X0073239Y0303809D03*
X0046350Y0304194D03*
X0046450Y0331894D03*
X0098683Y0327917D03*
X0073600Y0225094D03*
X0072800Y0211994D03*
X0049100Y0213394D03*
X0089500Y0147294D03*
X0249189Y0260623D03*
X0274589Y0261123D03*
X0275800Y0217694D03*
X0273881Y0311553D03*
X0272682Y0318457D03*
X0257832Y0323057D03*
X0261632Y0357457D03*
X0274932Y0367357D03*
X0267300Y0408394D03*
X0305300Y0477294D03*
X0329980Y0519148D03*
X0330280Y0526048D03*
X0355080Y0508948D03*
X0371449Y0574768D03*
X0371243Y0587475D03*
X0358332Y0587656D03*
X0271400Y0523594D03*
X0267300Y0570094D03*
X0268908Y0579554D03*
X0267857Y0587419D03*
X0269200Y0604494D03*
X0394400Y0430994D03*
X0395000Y0375194D03*
X0394400Y0324994D03*
X0377800Y0184594D03*
X0396700Y0112194D03*
X0396900Y0094994D03*
D27*
X0402551Y0093517D02*
X0297181Y0093517D01*
X0297885Y0094221D02*
X0299244Y0097502D01*
X0299244Y0101054D01*
X0297885Y0104335D01*
X0295374Y0106846D01*
X0292092Y0108205D01*
X0288541Y0108205D01*
X0285259Y0106846D01*
X0282834Y0104421D01*
X0283500Y0106029D01*
X0283500Y0113866D01*
X0282698Y0115803D01*
X0281215Y0117285D01*
X0280033Y0117775D01*
X0343657Y0117775D01*
X0346120Y0118795D01*
X0362816Y0135491D01*
X0363933Y0135491D01*
X0366395Y0136511D01*
X0367698Y0137814D01*
X0368032Y0137953D01*
X0369439Y0139359D01*
X0370200Y0141197D01*
X0370200Y0143186D01*
X0369439Y0145024D01*
X0368032Y0146430D01*
X0367698Y0146569D01*
X0354016Y0160251D01*
X0354016Y0161174D01*
X0352889Y0163894D01*
X0350808Y0165976D01*
X0348088Y0167102D01*
X0335144Y0167102D01*
X0332424Y0165976D01*
X0330342Y0163894D01*
X0329216Y0161174D01*
X0329216Y0158230D01*
X0330342Y0155511D01*
X0332424Y0153429D01*
X0335144Y0152302D01*
X0343014Y0152302D01*
X0351845Y0143471D01*
X0339549Y0131175D01*
X0156346Y0131175D01*
X0153883Y0130155D01*
X0146566Y0122837D01*
X0145546Y0120374D01*
X0145546Y0108615D01*
X0146566Y0106152D01*
X0147178Y0105539D01*
X0147642Y0104421D01*
X0145216Y0106846D01*
X0141935Y0108205D01*
X0138383Y0108205D01*
X0135102Y0106846D01*
X0132591Y0104335D01*
X0131231Y0101054D01*
X0131231Y0097502D01*
X0132591Y0094221D01*
X0135102Y0091710D01*
X0138383Y0090350D01*
X0141935Y0090350D01*
X0145216Y0091710D01*
X0147727Y0094221D01*
X0149087Y0097502D01*
X0149087Y0101054D01*
X0147864Y0104006D01*
X0149260Y0102609D01*
X0151197Y0101807D01*
X0153294Y0101807D01*
X0155231Y0102609D01*
X0156713Y0104092D01*
X0157167Y0105187D01*
X0157620Y0104092D01*
X0159103Y0102609D01*
X0161040Y0101807D01*
X0163136Y0101807D01*
X0165073Y0102609D01*
X0166025Y0103561D01*
X0166977Y0102609D01*
X0168914Y0101807D01*
X0171010Y0101807D01*
X0172947Y0102609D01*
X0174430Y0104092D01*
X0174883Y0105187D01*
X0175337Y0104092D01*
X0176819Y0102609D01*
X0178756Y0101807D01*
X0180853Y0101807D01*
X0182790Y0102609D01*
X0184187Y0104006D01*
X0182964Y0101054D01*
X0182964Y0097502D01*
X0184323Y0094221D01*
X0186834Y0091710D01*
X0190116Y0090350D01*
X0193667Y0090350D01*
X0196948Y0091710D01*
X0198538Y0093299D01*
X0198538Y0068811D01*
X0199558Y0066349D01*
X0199839Y0066068D01*
X0200660Y0064085D01*
X0200812Y0063933D01*
X0044289Y0063933D01*
X0045224Y0065551D01*
X0046035Y0068578D01*
X0046035Y0071711D01*
X0045224Y0074737D01*
X0043657Y0077450D01*
X0041442Y0079666D01*
X0038728Y0081232D01*
X0035702Y0082043D01*
X0032569Y0082043D01*
X0029542Y0081232D01*
X0027924Y0080298D01*
X0027924Y0615108D01*
X0029542Y0614174D01*
X0032569Y0613363D01*
X0035702Y0613363D01*
X0038728Y0614174D01*
X0041442Y0615740D01*
X0043657Y0617956D01*
X0045224Y0620669D01*
X0046035Y0623696D01*
X0046035Y0626829D01*
X0045224Y0629855D01*
X0044289Y0631473D01*
X0200812Y0631473D01*
X0200660Y0631321D01*
X0199839Y0629338D01*
X0199558Y0629057D01*
X0198538Y0626595D01*
X0198538Y0584102D01*
X0198413Y0583801D01*
X0198413Y0572236D01*
X0199452Y0569727D01*
X0201372Y0567807D01*
X0203880Y0566768D01*
X0206595Y0566768D01*
X0209104Y0567807D01*
X0211024Y0569727D01*
X0212063Y0572236D01*
X0212063Y0583801D01*
X0211938Y0584102D01*
X0211938Y0617925D01*
X0212179Y0617684D01*
X0214164Y0616862D01*
X0216312Y0616862D01*
X0218297Y0617684D01*
X0218538Y0617925D01*
X0218538Y0584102D01*
X0218413Y0583801D01*
X0218413Y0572236D01*
X0219452Y0569727D01*
X0221372Y0567807D01*
X0223880Y0566768D01*
X0226595Y0566768D01*
X0229104Y0567807D01*
X0231024Y0569727D01*
X0232063Y0572236D01*
X0232063Y0583801D01*
X0231938Y0584102D01*
X0231938Y0626595D01*
X0230918Y0629057D01*
X0230637Y0629338D01*
X0229816Y0631321D01*
X0229663Y0631473D01*
X0386186Y0631473D01*
X0385252Y0629855D01*
X0384441Y0626829D01*
X0384441Y0623696D01*
X0385252Y0620669D01*
X0386818Y0617956D01*
X0389034Y0615740D01*
X0391747Y0614174D01*
X0394774Y0613363D01*
X0397907Y0613363D01*
X0400933Y0614174D01*
X0402551Y0615108D01*
X0402551Y0080298D01*
X0400933Y0081232D01*
X0397907Y0082043D01*
X0394774Y0082043D01*
X0391747Y0081232D01*
X0389034Y0079666D01*
X0386818Y0077450D01*
X0385252Y0074737D01*
X0384441Y0071711D01*
X0384441Y0068578D01*
X0385252Y0065551D01*
X0386186Y0063933D01*
X0229663Y0063933D01*
X0229816Y0064085D01*
X0230638Y0066070D01*
X0230638Y0074218D01*
X0229816Y0076203D01*
X0228297Y0077722D01*
X0226312Y0078544D01*
X0224164Y0078544D01*
X0222179Y0077722D01*
X0220660Y0076203D01*
X0220238Y0075184D01*
X0219816Y0076203D01*
X0218297Y0077722D01*
X0216312Y0078544D01*
X0214164Y0078544D01*
X0212179Y0077722D01*
X0211938Y0077481D01*
X0211938Y0114967D01*
X0214745Y0117775D01*
X0243971Y0117775D01*
X0243971Y0108615D01*
X0244991Y0106152D01*
X0245604Y0105539D01*
X0246067Y0104421D01*
X0243641Y0106846D01*
X0240360Y0108205D01*
X0236808Y0108205D01*
X0233527Y0106846D01*
X0231016Y0104335D01*
X0229657Y0101054D01*
X0229657Y0097502D01*
X0231016Y0094221D01*
X0233527Y0091710D01*
X0236808Y0090350D01*
X0240360Y0090350D01*
X0243641Y0091710D01*
X0246153Y0094221D01*
X0247512Y0097502D01*
X0247512Y0101054D01*
X0246289Y0104006D01*
X0247686Y0102609D01*
X0249623Y0101807D01*
X0251719Y0101807D01*
X0253656Y0102609D01*
X0255139Y0104092D01*
X0255592Y0105187D01*
X0256046Y0104092D01*
X0257528Y0102609D01*
X0259465Y0101807D01*
X0261562Y0101807D01*
X0263499Y0102609D01*
X0264450Y0103561D01*
X0265402Y0102609D01*
X0267339Y0101807D01*
X0269436Y0101807D01*
X0271373Y0102609D01*
X0272855Y0104092D01*
X0273309Y0105187D01*
X0273762Y0104092D01*
X0275245Y0102609D01*
X0277182Y0101807D01*
X0279278Y0101807D01*
X0281215Y0102609D01*
X0282612Y0104006D01*
X0281389Y0101054D01*
X0281389Y0097502D01*
X0282748Y0094221D01*
X0285259Y0091710D01*
X0288541Y0090350D01*
X0292092Y0090350D01*
X0295374Y0091710D01*
X0297885Y0094221D01*
X0298918Y0096715D02*
X0402551Y0096715D01*
X0402551Y0099914D02*
X0299244Y0099914D01*
X0298391Y0103112D02*
X0402551Y0103112D01*
X0402551Y0106311D02*
X0295909Y0106311D01*
X0284724Y0106311D02*
X0283500Y0106311D01*
X0283500Y0109509D02*
X0402551Y0109509D01*
X0402551Y0112708D02*
X0283500Y0112708D01*
X0282594Y0115906D02*
X0402551Y0115906D01*
X0402551Y0119105D02*
X0346430Y0119105D01*
X0349628Y0122303D02*
X0402551Y0122303D01*
X0402551Y0125502D02*
X0352827Y0125502D01*
X0356025Y0128700D02*
X0402551Y0128700D01*
X0402551Y0131899D02*
X0359224Y0131899D01*
X0362422Y0135097D02*
X0402551Y0135097D01*
X0402551Y0138296D02*
X0368376Y0138296D01*
X0370200Y0141494D02*
X0402551Y0141494D01*
X0402551Y0144693D02*
X0369576Y0144693D01*
X0366375Y0147891D02*
X0402551Y0147891D01*
X0402551Y0151090D02*
X0363177Y0151090D01*
X0359978Y0154288D02*
X0402551Y0154288D01*
X0402551Y0157487D02*
X0356780Y0157487D01*
X0354016Y0160685D02*
X0402551Y0160685D01*
X0402551Y0163884D02*
X0352893Y0163884D01*
X0348136Y0167082D02*
X0402551Y0167082D01*
X0402551Y0170281D02*
X0123553Y0170281D01*
X0123411Y0169938D02*
X0124228Y0171911D01*
X0124228Y0174047D01*
X0123411Y0176020D01*
X0121901Y0177530D01*
X0120817Y0177979D01*
X0121901Y0178428D01*
X0122306Y0178833D01*
X0208368Y0178833D01*
X0209838Y0179442D01*
X0210963Y0180567D01*
X0233629Y0203233D01*
X0234238Y0204703D01*
X0234238Y0212011D01*
X0234816Y0212589D01*
X0235638Y0214574D01*
X0235638Y0222722D01*
X0234816Y0224707D01*
X0233297Y0226226D01*
X0231312Y0227048D01*
X0229164Y0227048D01*
X0227179Y0226226D01*
X0225660Y0224707D01*
X0225238Y0223688D01*
X0224816Y0224707D01*
X0223297Y0226226D01*
X0221312Y0227048D01*
X0219164Y0227048D01*
X0217179Y0226226D01*
X0215660Y0224707D01*
X0215238Y0223688D01*
X0214816Y0224707D01*
X0213297Y0226226D01*
X0211312Y0227048D01*
X0209164Y0227048D01*
X0207179Y0226226D01*
X0205660Y0224707D01*
X0205348Y0223954D01*
X0205027Y0224583D01*
X0204509Y0225296D01*
X0203886Y0225919D01*
X0203173Y0226438D01*
X0202387Y0226838D01*
X0201549Y0227110D01*
X0200679Y0227248D01*
X0200238Y0227248D01*
X0200238Y0218648D01*
X0200238Y0210048D01*
X0200679Y0210048D01*
X0201549Y0210186D01*
X0202387Y0210458D01*
X0203173Y0210858D01*
X0203886Y0211377D01*
X0204509Y0212000D01*
X0205027Y0212713D01*
X0205348Y0213342D01*
X0205660Y0212589D01*
X0207179Y0211070D01*
X0209164Y0210248D01*
X0211312Y0210248D01*
X0212880Y0210898D01*
X0199316Y0197333D01*
X0122098Y0197333D01*
X0121901Y0197530D01*
X0120817Y0197979D01*
X0121901Y0198428D01*
X0122452Y0198979D01*
X0135332Y0198979D01*
X0135571Y0198740D01*
X0137409Y0197979D01*
X0139398Y0197979D01*
X0141235Y0198740D01*
X0142262Y0199766D01*
X0144249Y0197779D01*
X0146403Y0197779D01*
X0146403Y0202979D01*
X0151603Y0202979D01*
X0151603Y0205133D01*
X0148557Y0208179D01*
X0148324Y0208179D01*
X0148324Y0216475D01*
X0150249Y0214550D01*
X0152403Y0214550D01*
X0152403Y0219750D01*
X0152403Y0219750D01*
X0152403Y0214550D01*
X0154557Y0214550D01*
X0157603Y0217596D01*
X0157603Y0219750D01*
X0152403Y0219750D01*
X0152403Y0219750D01*
X0152403Y0219751D02*
X0152403Y0224950D01*
X0150249Y0224950D01*
X0148324Y0223026D01*
X0148324Y0236476D01*
X0152981Y0241133D01*
X0191320Y0241133D01*
X0192790Y0241742D01*
X0193915Y0242867D01*
X0198629Y0247581D01*
X0199238Y0249051D01*
X0199238Y0256257D01*
X0200670Y0256850D01*
X0202077Y0258257D01*
X0202838Y0260094D01*
X0202838Y0262084D01*
X0202560Y0262754D01*
X0211739Y0271933D01*
X0233052Y0271933D01*
X0233816Y0270088D01*
X0235279Y0268625D01*
X0237190Y0267833D01*
X0239259Y0267833D01*
X0241170Y0268625D01*
X0242633Y0270088D01*
X0243224Y0271516D01*
X0243816Y0270088D01*
X0245279Y0268625D01*
X0247190Y0267833D01*
X0249259Y0267833D01*
X0251170Y0268625D01*
X0252633Y0270088D01*
X0253424Y0271999D01*
X0253424Y0279667D01*
X0252633Y0281579D01*
X0251170Y0283041D01*
X0249259Y0283833D01*
X0249024Y0283833D01*
X0249024Y0316929D01*
X0248457Y0318297D01*
X0248629Y0318469D01*
X0260895Y0330735D01*
X0262309Y0330735D01*
X0265238Y0333664D01*
X0265238Y0337806D01*
X0262450Y0340593D01*
X0265438Y0343581D01*
X0265438Y0345735D01*
X0265438Y0347889D01*
X0262392Y0350935D01*
X0260238Y0350935D01*
X0260238Y0345735D01*
X0260238Y0345735D01*
X0265438Y0345735D01*
X0260238Y0345735D01*
X0260238Y0345735D01*
X0260238Y0350935D01*
X0258084Y0350935D01*
X0255038Y0347889D01*
X0255038Y0345735D01*
X0260238Y0345735D01*
X0260238Y0345735D01*
X0255038Y0345735D01*
X0255038Y0343581D01*
X0258025Y0340593D01*
X0255238Y0337806D01*
X0255238Y0336391D01*
X0243581Y0324735D01*
X0235070Y0324735D01*
X0234477Y0326167D01*
X0233070Y0327573D01*
X0231232Y0328335D01*
X0229243Y0328335D01*
X0227406Y0327573D01*
X0225999Y0326167D01*
X0225238Y0324329D01*
X0225238Y0317603D01*
X0225238Y0317603D01*
X0225238Y0324329D01*
X0224477Y0326167D01*
X0224238Y0326406D01*
X0224238Y0332664D01*
X0225238Y0333664D01*
X0225238Y0337806D01*
X0224238Y0338806D01*
X0224238Y0342664D01*
X0225238Y0343664D01*
X0225238Y0347806D01*
X0222309Y0350735D01*
X0218167Y0350735D01*
X0215238Y0347806D01*
X0215238Y0343664D01*
X0216238Y0342664D01*
X0216238Y0338806D01*
X0215238Y0337806D01*
X0215238Y0333664D01*
X0216238Y0332664D01*
X0216238Y0326406D01*
X0215999Y0326167D01*
X0215238Y0324329D01*
X0215238Y0317140D01*
X0215999Y0315302D01*
X0217406Y0313896D01*
X0219243Y0313135D01*
X0220769Y0313135D01*
X0217868Y0310233D01*
X0162929Y0310233D01*
X0161459Y0309624D01*
X0155759Y0303924D01*
X0154633Y0302799D01*
X0154024Y0301329D01*
X0154024Y0266367D01*
X0151501Y0263843D01*
X0151501Y0258334D01*
X0155397Y0254439D01*
X0160906Y0254439D01*
X0164801Y0258334D01*
X0164801Y0263843D01*
X0162024Y0266620D01*
X0162024Y0298876D01*
X0165381Y0302233D01*
X0220320Y0302233D01*
X0221790Y0302842D01*
X0222915Y0303967D01*
X0232684Y0313736D01*
X0233070Y0313896D01*
X0234477Y0315302D01*
X0235070Y0316735D01*
X0238766Y0316735D01*
X0241024Y0314476D01*
X0241024Y0283102D01*
X0239259Y0283833D01*
X0237190Y0283833D01*
X0235279Y0283041D01*
X0233816Y0281579D01*
X0233134Y0279933D01*
X0209286Y0279933D01*
X0207816Y0279324D01*
X0206691Y0278199D01*
X0194581Y0266089D01*
X0191643Y0266089D01*
X0189806Y0265328D01*
X0188399Y0263921D01*
X0187638Y0262084D01*
X0187638Y0260094D01*
X0188399Y0258257D01*
X0189806Y0256850D01*
X0191238Y0256257D01*
X0191238Y0251503D01*
X0188868Y0249133D01*
X0150529Y0249133D01*
X0149059Y0248524D01*
X0140933Y0240399D01*
X0140324Y0238929D01*
X0140324Y0210557D01*
X0137746Y0207979D01*
X0137409Y0207979D01*
X0135571Y0207218D01*
X0135332Y0206979D01*
X0122452Y0206979D01*
X0121901Y0207530D01*
X0120817Y0207979D01*
X0121901Y0208428D01*
X0122452Y0208979D01*
X0126427Y0208979D01*
X0127897Y0209588D01*
X0133060Y0214750D01*
X0134474Y0214750D01*
X0137403Y0217679D01*
X0137403Y0221821D01*
X0136424Y0222800D01*
X0136424Y0241376D01*
X0147215Y0252167D01*
X0147824Y0253637D01*
X0147824Y0405876D01*
X0148581Y0406633D01*
X0151820Y0406633D01*
X0151970Y0406695D01*
X0189567Y0406695D01*
X0189806Y0406456D01*
X0190140Y0406318D01*
X0191443Y0405015D01*
X0193905Y0403995D01*
X0196571Y0403995D01*
X0199033Y0405015D01*
X0200336Y0406318D01*
X0200670Y0406456D01*
X0202077Y0407863D01*
X0202838Y0409701D01*
X0202838Y0411690D01*
X0202077Y0413528D01*
X0201938Y0413666D01*
X0201938Y0419775D01*
X0202446Y0420284D01*
X0203238Y0422195D01*
X0203238Y0424263D01*
X0202446Y0426175D01*
X0202092Y0426529D01*
X0251900Y0426529D01*
X0252271Y0426683D01*
X0253425Y0426683D01*
X0254241Y0427499D01*
X0254362Y0427549D01*
X0256351Y0429538D01*
X0256401Y0429659D01*
X0257321Y0430579D01*
X0257321Y0431880D01*
X0257371Y0432000D01*
X0257371Y0434666D01*
X0257321Y0434786D01*
X0257321Y0436088D01*
X0256401Y0437008D01*
X0256351Y0437128D01*
X0254466Y0439013D01*
X0254345Y0439063D01*
X0253425Y0439983D01*
X0252124Y0439983D01*
X0252004Y0440033D01*
X0249338Y0440033D01*
X0249217Y0439983D01*
X0247916Y0439983D01*
X0247862Y0439929D01*
X0201938Y0439929D01*
X0201938Y0457304D01*
X0200918Y0459766D01*
X0199033Y0461651D01*
X0196571Y0462671D01*
X0193905Y0462671D01*
X0191443Y0461651D01*
X0189558Y0459766D01*
X0188538Y0457304D01*
X0188538Y0436683D01*
X0188029Y0436175D01*
X0187238Y0434263D01*
X0187238Y0432195D01*
X0188029Y0430284D01*
X0189492Y0428821D01*
X0190651Y0428341D01*
X0190763Y0428229D01*
X0190651Y0428117D01*
X0189492Y0427637D01*
X0188029Y0426175D01*
X0187238Y0424263D01*
X0187238Y0422195D01*
X0188029Y0420284D01*
X0188538Y0419775D01*
X0188538Y0414695D01*
X0150291Y0414695D01*
X0150141Y0414633D01*
X0146129Y0414633D01*
X0144659Y0414024D01*
X0141559Y0410924D01*
X0140433Y0409799D01*
X0139824Y0408329D01*
X0139824Y0256090D01*
X0130159Y0246424D01*
X0129033Y0245299D01*
X0128424Y0243829D01*
X0128424Y0222843D01*
X0127403Y0221821D01*
X0127403Y0220407D01*
X0123975Y0216979D01*
X0122452Y0216979D01*
X0122304Y0217127D01*
X0122609Y0217253D01*
X0124540Y0219183D01*
X0125560Y0221646D01*
X0125560Y0224311D01*
X0124540Y0226774D01*
X0122655Y0228659D01*
X0122285Y0228812D01*
X0123411Y0229938D01*
X0124228Y0231911D01*
X0124228Y0234047D01*
X0123411Y0236020D01*
X0121901Y0237530D01*
X0121090Y0237866D01*
X0121778Y0238216D01*
X0122487Y0238731D01*
X0123107Y0239351D01*
X0123622Y0240060D01*
X0124020Y0240841D01*
X0124291Y0241675D01*
X0124428Y0242540D01*
X0124428Y0242979D01*
X0124428Y0243417D01*
X0124291Y0244283D01*
X0124020Y0245116D01*
X0123622Y0245897D01*
X0123107Y0246606D01*
X0122487Y0247226D01*
X0121778Y0247741D01*
X0121090Y0248092D01*
X0121901Y0248428D01*
X0123411Y0249938D01*
X0124228Y0251911D01*
X0124228Y0254047D01*
X0123671Y0255392D01*
X0123873Y0255476D01*
X0126362Y0257966D01*
X0127710Y0261218D01*
X0127710Y0264739D01*
X0126362Y0267992D01*
X0123873Y0270481D01*
X0120620Y0271829D01*
X0117099Y0271829D01*
X0113847Y0270481D01*
X0111357Y0267992D01*
X0110010Y0264739D01*
X0110010Y0261218D01*
X0111357Y0257966D01*
X0113847Y0255476D01*
X0114049Y0255392D01*
X0113491Y0254047D01*
X0113491Y0251911D01*
X0114309Y0249938D01*
X0115819Y0248428D01*
X0116629Y0248092D01*
X0115941Y0247741D01*
X0115232Y0247226D01*
X0114612Y0246606D01*
X0114097Y0245897D01*
X0113699Y0245116D01*
X0113428Y0244283D01*
X0113291Y0243417D01*
X0113291Y0242979D01*
X0118860Y0242979D01*
X0124428Y0242979D01*
X0118860Y0242979D01*
X0118860Y0242979D01*
X0118860Y0242979D01*
X0113291Y0242979D01*
X0113291Y0242540D01*
X0113428Y0241675D01*
X0113699Y0240841D01*
X0114097Y0240060D01*
X0114612Y0239351D01*
X0115232Y0238731D01*
X0115941Y0238216D01*
X0116629Y0237866D01*
X0115819Y0237530D01*
X0114309Y0236020D01*
X0113491Y0234047D01*
X0113491Y0231911D01*
X0114309Y0229938D01*
X0114613Y0229633D01*
X0113100Y0229633D01*
X0109910Y0232822D01*
X0109910Y0314416D01*
X0123890Y0328396D01*
X0124910Y0330859D01*
X0124910Y0347606D01*
X0125049Y0347745D01*
X0125810Y0349583D01*
X0125810Y0351572D01*
X0125049Y0353409D01*
X0124969Y0353489D01*
X0124969Y0361254D01*
X0125478Y0361762D01*
X0126269Y0363674D01*
X0126269Y0365742D01*
X0125478Y0367653D01*
X0124893Y0368238D01*
X0129602Y0368238D01*
X0132065Y0369258D01*
X0133949Y0371143D01*
X0136149Y0373343D01*
X0137169Y0375805D01*
X0137169Y0394071D01*
X0136149Y0396533D01*
X0130677Y0402005D01*
X0128215Y0403025D01*
X0119844Y0403025D01*
X0119330Y0403238D01*
X0106345Y0403238D01*
X0104910Y0404672D01*
X0104910Y0410760D01*
X0105151Y0410519D01*
X0107136Y0409697D01*
X0109284Y0409697D01*
X0111269Y0410519D01*
X0112788Y0412038D01*
X0113609Y0414021D01*
X0113890Y0414302D01*
X0114910Y0416764D01*
X0114910Y0431359D01*
X0113890Y0433821D01*
X0109910Y0437801D01*
X0109910Y0438720D01*
X0114344Y0438720D01*
X0116806Y0439740D01*
X0180361Y0503294D01*
X0246749Y0503294D01*
X0229558Y0486103D01*
X0228538Y0483641D01*
X0228538Y0454638D01*
X0229558Y0452176D01*
X0231443Y0450291D01*
X0231981Y0450068D01*
X0230038Y0448125D01*
X0230038Y0445971D01*
X0235238Y0445971D01*
X0240438Y0445971D01*
X0240438Y0448125D01*
X0239292Y0449271D01*
X0252004Y0449271D01*
X0252124Y0449321D01*
X0253425Y0449321D01*
X0254345Y0450241D01*
X0254466Y0450291D01*
X0256351Y0452176D01*
X0256401Y0452296D01*
X0257321Y0453216D01*
X0257321Y0454517D01*
X0257371Y0454638D01*
X0257371Y0457304D01*
X0257321Y0457424D01*
X0257321Y0458725D01*
X0256401Y0459645D01*
X0256351Y0459766D01*
X0254466Y0461651D01*
X0254345Y0461701D01*
X0253425Y0462621D01*
X0252124Y0462621D01*
X0252004Y0462671D01*
X0241938Y0462671D01*
X0241938Y0479533D01*
X0265700Y0503294D01*
X0334916Y0503294D01*
X0334916Y0483961D01*
X0335936Y0481498D01*
X0359441Y0457994D01*
X0349052Y0457994D01*
X0346590Y0456974D01*
X0328929Y0439313D01*
X0327044Y0437428D01*
X0326024Y0434966D01*
X0326024Y0393208D01*
X0285729Y0352913D01*
X0283844Y0351028D01*
X0282824Y0348566D01*
X0282824Y0307233D01*
X0263214Y0307233D01*
X0264334Y0308353D01*
X0264334Y0310735D01*
X0264334Y0313116D01*
X0260966Y0316485D01*
X0258584Y0316485D01*
X0256203Y0316485D01*
X0252834Y0313116D01*
X0252834Y0310735D01*
X0258584Y0310735D01*
X0258584Y0316485D01*
X0258584Y0310735D01*
X0258584Y0310735D01*
X0258584Y0310735D01*
X0252834Y0310735D01*
X0252834Y0308353D01*
X0254781Y0306406D01*
X0252904Y0304530D01*
X0251884Y0302067D01*
X0251884Y0299402D01*
X0252904Y0296939D01*
X0254991Y0294853D01*
X0257453Y0293833D01*
X0286957Y0293833D01*
X0289420Y0294853D01*
X0291304Y0296738D01*
X0295204Y0300638D01*
X0296224Y0303100D01*
X0296224Y0344458D01*
X0338404Y0386638D01*
X0339424Y0389100D01*
X0339424Y0430858D01*
X0353160Y0444594D01*
X0369079Y0444594D01*
X0369335Y0444338D01*
X0370217Y0443972D01*
X0381014Y0443972D01*
X0381896Y0444338D01*
X0382572Y0445013D01*
X0382937Y0445895D01*
X0382937Y0456692D01*
X0382572Y0457574D01*
X0381896Y0458250D01*
X0381014Y0458615D01*
X0377770Y0458615D01*
X0348316Y0488069D01*
X0348316Y0507219D01*
X0369894Y0528798D01*
X0370914Y0531260D01*
X0370914Y0541272D01*
X0371155Y0541031D01*
X0373140Y0540209D01*
X0375288Y0540209D01*
X0377273Y0541031D01*
X0378792Y0542550D01*
X0379613Y0544533D01*
X0379894Y0544813D01*
X0380914Y0547276D01*
X0380914Y0559745D01*
X0379894Y0562207D01*
X0374815Y0567286D01*
X0372931Y0569171D01*
X0370468Y0570191D01*
X0360197Y0570191D01*
X0362209Y0572203D01*
X0362209Y0574357D01*
X0362209Y0576511D01*
X0359163Y0579557D01*
X0357009Y0579557D01*
X0354856Y0579557D01*
X0351809Y0576511D01*
X0351809Y0574357D01*
X0357009Y0574357D01*
X0357009Y0574357D01*
X0357009Y0579557D01*
X0357009Y0574357D01*
X0357009Y0574357D01*
X0351809Y0574357D01*
X0351809Y0572203D01*
X0353822Y0570191D01*
X0334064Y0570191D01*
X0334064Y0589416D01*
X0334115Y0589468D01*
X0342916Y0589468D01*
X0341770Y0588322D01*
X0341770Y0586168D01*
X0346970Y0586168D01*
X0346970Y0586168D01*
X0352170Y0586168D01*
X0352170Y0588322D01*
X0350227Y0590265D01*
X0350765Y0590488D01*
X0352650Y0592372D01*
X0353670Y0594835D01*
X0353670Y0597500D01*
X0352650Y0599963D01*
X0350765Y0601848D01*
X0348303Y0602868D01*
X0330007Y0602868D01*
X0327545Y0601848D01*
X0323569Y0597871D01*
X0321684Y0595987D01*
X0320664Y0593524D01*
X0320664Y0580095D01*
X0318342Y0581057D01*
X0315637Y0581057D01*
X0313670Y0580242D01*
X0313670Y0597500D01*
X0312650Y0599963D01*
X0310765Y0601848D01*
X0308303Y0602868D01*
X0305637Y0602868D01*
X0303175Y0601848D01*
X0301290Y0599963D01*
X0300270Y0597500D01*
X0300270Y0547276D01*
X0301290Y0544813D01*
X0301571Y0544533D01*
X0302392Y0542550D01*
X0302783Y0542159D01*
X0114145Y0542159D01*
X0111683Y0541139D01*
X0111402Y0540858D01*
X0109419Y0540037D01*
X0107900Y0538518D01*
X0107079Y0536535D01*
X0084103Y0513559D01*
X0071167Y0513559D01*
X0068448Y0512432D01*
X0066366Y0510351D01*
X0065239Y0507631D01*
X0065239Y0504687D01*
X0066366Y0501967D01*
X0068448Y0499886D01*
X0071167Y0498759D01*
X0084111Y0498759D01*
X0085801Y0499459D01*
X0087511Y0499459D01*
X0089973Y0500479D01*
X0118253Y0528759D01*
X0323382Y0528759D01*
X0325844Y0529779D01*
X0330805Y0534740D01*
X0332689Y0536624D01*
X0333709Y0539087D01*
X0333709Y0546814D01*
X0334064Y0547670D01*
X0334064Y0555715D01*
X0335139Y0556791D01*
X0352614Y0556791D01*
X0351155Y0556187D01*
X0349636Y0554668D01*
X0348814Y0552683D01*
X0348814Y0544535D01*
X0349636Y0542550D01*
X0351155Y0541031D01*
X0353140Y0540209D01*
X0355288Y0540209D01*
X0357273Y0541031D01*
X0357514Y0541272D01*
X0357514Y0535368D01*
X0347366Y0525220D01*
X0347366Y0526376D01*
X0343997Y0529744D01*
X0341616Y0529744D01*
X0341616Y0523995D01*
X0341616Y0523995D01*
X0341616Y0529744D01*
X0339234Y0529744D01*
X0335866Y0526376D01*
X0335866Y0523995D01*
X0341616Y0523995D01*
X0341616Y0523994D01*
X0335866Y0523994D01*
X0335866Y0521613D01*
X0339234Y0518244D01*
X0340391Y0518244D01*
X0338841Y0516694D01*
X0176253Y0516694D01*
X0173791Y0515674D01*
X0110236Y0452120D01*
X0101878Y0452120D01*
X0099415Y0451100D01*
X0097538Y0449223D01*
X0095592Y0451170D01*
X0093210Y0451170D01*
X0090829Y0451170D01*
X0087460Y0447801D01*
X0087460Y0445420D01*
X0093210Y0445420D01*
X0093210Y0451170D01*
X0093210Y0445420D01*
X0093210Y0445420D01*
X0093210Y0445420D01*
X0087460Y0445420D01*
X0087460Y0443038D01*
X0089165Y0441333D01*
X0051192Y0441333D01*
X0048729Y0440313D01*
X0046844Y0438428D01*
X0040562Y0432146D01*
X0039542Y0429683D01*
X0039542Y0404678D01*
X0039592Y0404557D01*
X0039592Y0403256D01*
X0040512Y0402336D01*
X0040562Y0402215D01*
X0042446Y0400330D01*
X0042567Y0400280D01*
X0043487Y0399360D01*
X0044788Y0399360D01*
X0044909Y0399310D01*
X0047574Y0399310D01*
X0047695Y0399360D01*
X0048996Y0399360D01*
X0049916Y0400280D01*
X0050037Y0400330D01*
X0051922Y0402215D01*
X0051972Y0402336D01*
X0052892Y0403256D01*
X0052892Y0404557D01*
X0052942Y0404678D01*
X0052942Y0425575D01*
X0055300Y0427933D01*
X0098343Y0427933D01*
X0100100Y0428661D01*
X0101510Y0427251D01*
X0101510Y0425434D01*
X0101269Y0425675D01*
X0099284Y0426497D01*
X0097136Y0426497D01*
X0095151Y0425675D01*
X0093632Y0424156D01*
X0093210Y0423137D01*
X0092788Y0424156D01*
X0091269Y0425675D01*
X0089284Y0426497D01*
X0087136Y0426497D01*
X0085151Y0425675D01*
X0083632Y0424156D01*
X0082811Y0422173D01*
X0082530Y0421892D01*
X0081510Y0419430D01*
X0081510Y0409100D01*
X0074415Y0402005D01*
X0072530Y0400120D01*
X0071510Y0397658D01*
X0071510Y0393025D01*
X0044909Y0393025D01*
X0044788Y0392975D01*
X0043487Y0392975D01*
X0042567Y0392055D01*
X0042446Y0392005D01*
X0040562Y0390120D01*
X0040512Y0390000D01*
X0039592Y0389080D01*
X0039592Y0387779D01*
X0039542Y0387658D01*
X0039542Y0384992D01*
X0039592Y0384872D01*
X0039592Y0383571D01*
X0040512Y0382651D01*
X0040562Y0382530D01*
X0042446Y0380645D01*
X0042567Y0380595D01*
X0043487Y0379675D01*
X0044788Y0379675D01*
X0044909Y0379625D01*
X0079543Y0379625D01*
X0082005Y0380645D01*
X0083890Y0382530D01*
X0084910Y0384992D01*
X0084910Y0393550D01*
X0091632Y0400271D01*
X0092530Y0398102D01*
X0097889Y0392743D01*
X0099774Y0390858D01*
X0102237Y0389838D01*
X0114369Y0389838D01*
X0113010Y0388479D01*
X0113010Y0386325D01*
X0113010Y0384171D01*
X0115748Y0381433D01*
X0104742Y0381433D01*
X0102280Y0380413D01*
X0100395Y0378528D01*
X0095207Y0373340D01*
X0044909Y0373340D01*
X0044788Y0373290D01*
X0043487Y0373290D01*
X0042567Y0372370D01*
X0042446Y0372320D01*
X0040562Y0370435D01*
X0040512Y0370315D01*
X0039592Y0369395D01*
X0039592Y0368094D01*
X0039542Y0367973D01*
X0039542Y0365307D01*
X0039592Y0365187D01*
X0039592Y0363886D01*
X0040512Y0362966D01*
X0040562Y0362845D01*
X0042446Y0360960D01*
X0042567Y0360910D01*
X0043487Y0359990D01*
X0044788Y0359990D01*
X0044909Y0359940D01*
X0099315Y0359940D01*
X0101777Y0360960D01*
X0108850Y0368033D01*
X0111441Y0368033D01*
X0111061Y0367653D01*
X0110269Y0365742D01*
X0110269Y0363674D01*
X0111061Y0361762D01*
X0111569Y0361254D01*
X0111569Y0353607D01*
X0111371Y0353409D01*
X0110610Y0351572D01*
X0110610Y0349583D01*
X0111371Y0347745D01*
X0111510Y0347606D01*
X0111510Y0334967D01*
X0099415Y0322871D01*
X0097538Y0320995D01*
X0095592Y0322941D01*
X0093210Y0322941D01*
X0090829Y0322941D01*
X0087460Y0319573D01*
X0087460Y0317191D01*
X0087460Y0314810D01*
X0090829Y0311441D01*
X0093210Y0311441D01*
X0093210Y0317191D01*
X0093210Y0317191D01*
X0087460Y0317191D01*
X0093210Y0317191D01*
X0093210Y0317191D01*
X0093210Y0311441D01*
X0095592Y0311441D01*
X0096510Y0312360D01*
X0096510Y0228715D01*
X0097530Y0226252D01*
X0104644Y0219138D01*
X0106529Y0217253D01*
X0108992Y0216233D01*
X0114522Y0216233D01*
X0114309Y0216020D01*
X0113491Y0214047D01*
X0113491Y0211911D01*
X0114309Y0209938D01*
X0115819Y0208428D01*
X0116902Y0207979D01*
X0115819Y0207530D01*
X0114309Y0206020D01*
X0113491Y0204047D01*
X0113491Y0201911D01*
X0114309Y0199938D01*
X0115819Y0198428D01*
X0116902Y0197979D01*
X0115819Y0197530D01*
X0114309Y0196020D01*
X0113491Y0194047D01*
X0113491Y0191911D01*
X0114309Y0189938D01*
X0115819Y0188428D01*
X0116902Y0187979D01*
X0115819Y0187530D01*
X0114309Y0186020D01*
X0113491Y0184047D01*
X0113491Y0181911D01*
X0114309Y0179938D01*
X0115819Y0178428D01*
X0116902Y0177979D01*
X0115819Y0177530D01*
X0114309Y0176020D01*
X0113491Y0174047D01*
X0113491Y0171911D01*
X0114309Y0169938D01*
X0115819Y0168428D01*
X0116902Y0167979D01*
X0115819Y0167530D01*
X0114309Y0166020D01*
X0113491Y0164047D01*
X0113491Y0161911D01*
X0114309Y0159938D01*
X0115819Y0158428D01*
X0116902Y0157979D01*
X0115819Y0157530D01*
X0114309Y0156020D01*
X0113491Y0154047D01*
X0113491Y0151911D01*
X0114309Y0149938D01*
X0115819Y0148428D01*
X0116902Y0147979D01*
X0115819Y0147530D01*
X0114309Y0146020D01*
X0113491Y0144047D01*
X0113491Y0141911D01*
X0114309Y0139938D01*
X0115819Y0138428D01*
X0116902Y0137979D01*
X0115819Y0137530D01*
X0114309Y0136020D01*
X0113491Y0134047D01*
X0113491Y0131911D01*
X0114309Y0129938D01*
X0115819Y0128428D01*
X0116902Y0127979D01*
X0115819Y0127530D01*
X0114309Y0126020D01*
X0113491Y0124047D01*
X0113491Y0121911D01*
X0114309Y0119938D01*
X0115819Y0118428D01*
X0116902Y0117979D01*
X0115819Y0117530D01*
X0114309Y0116020D01*
X0113491Y0114047D01*
X0113491Y0111911D01*
X0114049Y0110565D01*
X0113847Y0110481D01*
X0111357Y0107992D01*
X0110010Y0104739D01*
X0110010Y0101218D01*
X0111357Y0097966D01*
X0113847Y0095476D01*
X0117099Y0094129D01*
X0120620Y0094129D01*
X0123873Y0095476D01*
X0126362Y0097966D01*
X0127710Y0101218D01*
X0127710Y0104739D01*
X0126362Y0107992D01*
X0123873Y0110481D01*
X0123671Y0110565D01*
X0124228Y0111911D01*
X0124228Y0114047D01*
X0123411Y0116020D01*
X0121901Y0117530D01*
X0120817Y0117979D01*
X0121901Y0118428D01*
X0123411Y0119938D01*
X0124228Y0121911D01*
X0124228Y0124047D01*
X0123411Y0126020D01*
X0121901Y0127530D01*
X0120817Y0127979D01*
X0121901Y0128428D01*
X0123411Y0129938D01*
X0124228Y0131911D01*
X0124228Y0134047D01*
X0123411Y0136020D01*
X0121901Y0137530D01*
X0120817Y0137979D01*
X0121901Y0138428D01*
X0123411Y0139938D01*
X0124228Y0141911D01*
X0124228Y0144047D01*
X0123411Y0146020D01*
X0121901Y0147530D01*
X0120817Y0147979D01*
X0121901Y0148428D01*
X0123411Y0149938D01*
X0124228Y0151911D01*
X0124228Y0154047D01*
X0123411Y0156020D01*
X0121901Y0157530D01*
X0120817Y0157979D01*
X0121901Y0158428D01*
X0123411Y0159938D01*
X0124228Y0161911D01*
X0124228Y0164047D01*
X0123411Y0166020D01*
X0121901Y0167530D01*
X0120817Y0167979D01*
X0121901Y0168428D01*
X0123411Y0169938D01*
X0122348Y0167082D02*
X0335096Y0167082D01*
X0330338Y0163884D02*
X0124228Y0163884D01*
X0123721Y0160685D02*
X0329216Y0160685D01*
X0329524Y0157487D02*
X0121944Y0157487D01*
X0124128Y0154288D02*
X0331565Y0154288D01*
X0328032Y0146430D02*
X0326195Y0147191D01*
X0319005Y0147191D01*
X0317168Y0146430D01*
X0315761Y0145024D01*
X0315000Y0143186D01*
X0315000Y0141197D01*
X0315761Y0139359D01*
X0317168Y0137953D01*
X0319005Y0137191D01*
X0326195Y0137191D01*
X0328032Y0137953D01*
X0329439Y0139359D01*
X0330200Y0141197D01*
X0330200Y0143186D01*
X0329439Y0145024D01*
X0328032Y0146430D01*
X0329576Y0144693D02*
X0350623Y0144693D01*
X0349869Y0141494D02*
X0330200Y0141494D01*
X0328376Y0138296D02*
X0346670Y0138296D01*
X0343472Y0135097D02*
X0123793Y0135097D01*
X0124223Y0131899D02*
X0340273Y0131899D01*
X0347425Y0147891D02*
X0121028Y0147891D01*
X0123888Y0151090D02*
X0344226Y0151090D01*
X0316824Y0138296D02*
X0121583Y0138296D01*
X0124056Y0141494D02*
X0315000Y0141494D01*
X0315624Y0144693D02*
X0123961Y0144693D01*
X0116691Y0147891D02*
X0061028Y0147891D01*
X0060817Y0147979D02*
X0061901Y0148428D01*
X0063411Y0149938D01*
X0064228Y0151911D01*
X0064228Y0154047D01*
X0063411Y0156020D01*
X0061901Y0157530D01*
X0060817Y0157979D01*
X0061901Y0158428D01*
X0063411Y0159938D01*
X0064228Y0161911D01*
X0064228Y0164047D01*
X0063411Y0166020D01*
X0061901Y0167530D01*
X0060817Y0167979D01*
X0061901Y0168428D01*
X0063411Y0169938D01*
X0064228Y0171911D01*
X0064228Y0174047D01*
X0063411Y0176020D01*
X0061901Y0177530D01*
X0060817Y0177979D01*
X0061901Y0178428D01*
X0063411Y0179938D01*
X0064228Y0181911D01*
X0064228Y0184047D01*
X0063411Y0186020D01*
X0061901Y0187530D01*
X0060817Y0187979D01*
X0061901Y0188428D01*
X0063411Y0189938D01*
X0064228Y0191911D01*
X0064228Y0194047D01*
X0063411Y0196020D01*
X0061901Y0197530D01*
X0060817Y0197979D01*
X0061901Y0198428D01*
X0063411Y0199938D01*
X0064228Y0201911D01*
X0064228Y0204047D01*
X0063411Y0206020D01*
X0061901Y0207530D01*
X0060817Y0207979D01*
X0061901Y0208428D01*
X0063411Y0209938D01*
X0064228Y0211911D01*
X0064228Y0214047D01*
X0063411Y0216020D01*
X0061901Y0217530D01*
X0061090Y0217866D01*
X0061778Y0218216D01*
X0062487Y0218731D01*
X0063107Y0219351D01*
X0063622Y0220060D01*
X0064020Y0220841D01*
X0064291Y0221675D01*
X0064428Y0222540D01*
X0064428Y0222979D01*
X0064428Y0223417D01*
X0064291Y0224283D01*
X0064020Y0225116D01*
X0063622Y0225897D01*
X0063107Y0226606D01*
X0062487Y0227226D01*
X0061778Y0227741D01*
X0061090Y0228092D01*
X0061901Y0228428D01*
X0063411Y0229938D01*
X0064228Y0231911D01*
X0064228Y0234047D01*
X0063411Y0236020D01*
X0061901Y0237530D01*
X0060817Y0237979D01*
X0061901Y0238428D01*
X0063411Y0239938D01*
X0064228Y0241911D01*
X0064228Y0244047D01*
X0063411Y0246020D01*
X0061901Y0247530D01*
X0061707Y0247610D01*
X0062306Y0247610D01*
X0063188Y0247976D01*
X0063863Y0248651D01*
X0064228Y0249533D01*
X0064228Y0255831D01*
X0066363Y0257966D01*
X0067710Y0261218D01*
X0067710Y0264739D01*
X0066363Y0267992D01*
X0063873Y0270481D01*
X0060620Y0271829D01*
X0057099Y0271829D01*
X0053847Y0270481D01*
X0051357Y0267992D01*
X0050010Y0264739D01*
X0050010Y0261218D01*
X0051357Y0257966D01*
X0053491Y0255831D01*
X0053491Y0249533D01*
X0053857Y0248651D01*
X0054532Y0247976D01*
X0055414Y0247610D01*
X0056013Y0247610D01*
X0055819Y0247530D01*
X0054309Y0246020D01*
X0053491Y0244047D01*
X0053491Y0241911D01*
X0054309Y0239938D01*
X0055819Y0238428D01*
X0056902Y0237979D01*
X0055819Y0237530D01*
X0054309Y0236020D01*
X0053491Y0234047D01*
X0053491Y0231911D01*
X0054309Y0229938D01*
X0055819Y0228428D01*
X0056629Y0228092D01*
X0055941Y0227741D01*
X0055232Y0227226D01*
X0054612Y0226606D01*
X0054097Y0225897D01*
X0053699Y0225116D01*
X0053428Y0224283D01*
X0053291Y0223417D01*
X0053291Y0222979D01*
X0058860Y0222979D01*
X0064428Y0222979D01*
X0058860Y0222979D01*
X0058860Y0222979D01*
X0058860Y0222979D01*
X0053291Y0222979D01*
X0053291Y0222540D01*
X0053428Y0221675D01*
X0053699Y0220841D01*
X0054097Y0220060D01*
X0054612Y0219351D01*
X0055232Y0218731D01*
X0055941Y0218216D01*
X0056629Y0217866D01*
X0055819Y0217530D01*
X0054309Y0216020D01*
X0053491Y0214047D01*
X0053491Y0211911D01*
X0054309Y0209938D01*
X0055819Y0208428D01*
X0056902Y0207979D01*
X0055819Y0207530D01*
X0054309Y0206020D01*
X0053491Y0204047D01*
X0053491Y0201911D01*
X0054309Y0199938D01*
X0055819Y0198428D01*
X0056902Y0197979D01*
X0055819Y0197530D01*
X0054309Y0196020D01*
X0053491Y0194047D01*
X0053491Y0191911D01*
X0054309Y0189938D01*
X0055819Y0188428D01*
X0056902Y0187979D01*
X0055819Y0187530D01*
X0054309Y0186020D01*
X0053491Y0184047D01*
X0053491Y0181911D01*
X0054309Y0179938D01*
X0055819Y0178428D01*
X0056902Y0177979D01*
X0055819Y0177530D01*
X0054309Y0176020D01*
X0053491Y0174047D01*
X0053491Y0171911D01*
X0054309Y0169938D01*
X0055819Y0168428D01*
X0056902Y0167979D01*
X0055819Y0167530D01*
X0054309Y0166020D01*
X0053491Y0164047D01*
X0053491Y0161911D01*
X0054309Y0159938D01*
X0055819Y0158428D01*
X0056902Y0157979D01*
X0055819Y0157530D01*
X0054309Y0156020D01*
X0053491Y0154047D01*
X0053491Y0151911D01*
X0054309Y0149938D01*
X0055819Y0148428D01*
X0056902Y0147979D01*
X0055819Y0147530D01*
X0054309Y0146020D01*
X0053491Y0144047D01*
X0053491Y0141911D01*
X0054309Y0139938D01*
X0055819Y0138428D01*
X0056902Y0137979D01*
X0055819Y0137530D01*
X0055268Y0136979D01*
X0041102Y0136979D01*
X0040095Y0137985D01*
X0035953Y0137985D01*
X0033024Y0135056D01*
X0033024Y0130914D01*
X0035953Y0127985D01*
X0040095Y0127985D01*
X0041089Y0128979D01*
X0055268Y0128979D01*
X0055819Y0128428D01*
X0056902Y0127979D01*
X0055819Y0127530D01*
X0054309Y0126020D01*
X0053491Y0124047D01*
X0053491Y0121911D01*
X0054309Y0119938D01*
X0055819Y0118428D01*
X0056902Y0117979D01*
X0055819Y0117530D01*
X0054309Y0116020D01*
X0053491Y0114047D01*
X0053491Y0111911D01*
X0054049Y0110565D01*
X0053847Y0110481D01*
X0051357Y0107992D01*
X0050010Y0104739D01*
X0050010Y0101218D01*
X0051357Y0097966D01*
X0053847Y0095476D01*
X0057099Y0094129D01*
X0060620Y0094129D01*
X0063873Y0095476D01*
X0066363Y0097966D01*
X0067710Y0101218D01*
X0067710Y0104739D01*
X0066363Y0107992D01*
X0063873Y0110481D01*
X0063671Y0110565D01*
X0064228Y0111911D01*
X0064228Y0114047D01*
X0063411Y0116020D01*
X0061901Y0117530D01*
X0060817Y0117979D01*
X0061901Y0118428D01*
X0063411Y0119938D01*
X0064228Y0121911D01*
X0064228Y0124047D01*
X0063411Y0126020D01*
X0061901Y0127530D01*
X0060817Y0127979D01*
X0061901Y0128428D01*
X0063411Y0129938D01*
X0064228Y0131911D01*
X0064228Y0134047D01*
X0063411Y0136020D01*
X0061901Y0137530D01*
X0060817Y0137979D01*
X0061901Y0138428D01*
X0063411Y0139938D01*
X0064228Y0141911D01*
X0064228Y0144047D01*
X0063411Y0146020D01*
X0061901Y0147530D01*
X0060817Y0147979D01*
X0056691Y0147891D02*
X0027924Y0147891D01*
X0027924Y0144693D02*
X0053759Y0144693D01*
X0053664Y0141494D02*
X0027924Y0141494D01*
X0027924Y0138296D02*
X0056137Y0138296D01*
X0061583Y0138296D02*
X0116137Y0138296D01*
X0113927Y0135097D02*
X0063793Y0135097D01*
X0064223Y0131899D02*
X0113496Y0131899D01*
X0115546Y0128700D02*
X0062174Y0128700D01*
X0063626Y0125502D02*
X0114094Y0125502D01*
X0113491Y0122303D02*
X0064228Y0122303D01*
X0062578Y0119105D02*
X0115142Y0119105D01*
X0114262Y0115906D02*
X0063458Y0115906D01*
X0064228Y0112708D02*
X0113491Y0112708D01*
X0112875Y0109509D02*
X0064845Y0109509D01*
X0067059Y0106311D02*
X0110661Y0106311D01*
X0110010Y0103112D02*
X0067710Y0103112D01*
X0067169Y0099914D02*
X0110550Y0099914D01*
X0112608Y0096715D02*
X0065112Y0096715D01*
X0052608Y0096715D02*
X0027924Y0096715D01*
X0027924Y0093517D02*
X0133295Y0093517D01*
X0131557Y0096715D02*
X0125112Y0096715D01*
X0127169Y0099914D02*
X0131231Y0099914D01*
X0132084Y0103112D02*
X0127710Y0103112D01*
X0127059Y0106311D02*
X0134566Y0106311D01*
X0124845Y0109509D02*
X0145546Y0109509D01*
X0145546Y0112708D02*
X0124228Y0112708D01*
X0123458Y0115906D02*
X0145546Y0115906D01*
X0145546Y0119105D02*
X0122578Y0119105D01*
X0124228Y0122303D02*
X0146345Y0122303D01*
X0149231Y0125502D02*
X0123626Y0125502D01*
X0122174Y0128700D02*
X0152429Y0128700D01*
X0146500Y0106311D02*
X0145752Y0106311D01*
X0148234Y0103112D02*
X0148758Y0103112D01*
X0149087Y0099914D02*
X0182964Y0099914D01*
X0183293Y0103112D02*
X0183816Y0103112D01*
X0183290Y0096715D02*
X0148761Y0096715D01*
X0147023Y0093517D02*
X0185027Y0093517D01*
X0176317Y0103112D02*
X0173450Y0103112D01*
X0166474Y0103112D02*
X0165576Y0103112D01*
X0158600Y0103112D02*
X0155734Y0103112D01*
X0198538Y0090318D02*
X0027924Y0090318D01*
X0027924Y0087120D02*
X0198538Y0087120D01*
X0198538Y0083921D02*
X0027924Y0083921D01*
X0027924Y0080723D02*
X0028660Y0080723D01*
X0027924Y0099914D02*
X0050550Y0099914D01*
X0050010Y0103112D02*
X0027924Y0103112D01*
X0027924Y0106311D02*
X0050661Y0106311D01*
X0052875Y0109509D02*
X0027924Y0109509D01*
X0027924Y0112708D02*
X0053491Y0112708D01*
X0054262Y0115906D02*
X0027924Y0115906D01*
X0027924Y0119105D02*
X0055142Y0119105D01*
X0053491Y0122303D02*
X0027924Y0122303D01*
X0027924Y0125502D02*
X0054094Y0125502D01*
X0055546Y0128700D02*
X0040811Y0128700D01*
X0038031Y0132979D02*
X0038024Y0132985D01*
X0038031Y0132979D02*
X0058860Y0132979D01*
X0064056Y0141494D02*
X0113664Y0141494D01*
X0113759Y0144693D02*
X0063961Y0144693D01*
X0063888Y0151090D02*
X0113831Y0151090D01*
X0113591Y0154288D02*
X0064128Y0154288D01*
X0061944Y0157487D02*
X0115776Y0157487D01*
X0113999Y0160685D02*
X0063721Y0160685D01*
X0064228Y0163884D02*
X0113491Y0163884D01*
X0115371Y0167082D02*
X0062348Y0167082D01*
X0063553Y0170281D02*
X0114166Y0170281D01*
X0113491Y0173479D02*
X0064228Y0173479D01*
X0062753Y0176678D02*
X0114967Y0176678D01*
X0114370Y0179877D02*
X0063350Y0179877D01*
X0064228Y0183075D02*
X0113491Y0183075D01*
X0114562Y0186274D02*
X0063157Y0186274D01*
X0062945Y0189472D02*
X0114774Y0189472D01*
X0113491Y0192671D02*
X0064228Y0192671D01*
X0063473Y0195869D02*
X0114246Y0195869D01*
X0115179Y0199068D02*
X0062541Y0199068D01*
X0064228Y0202266D02*
X0113491Y0202266D01*
X0114079Y0205465D02*
X0063641Y0205465D01*
X0062136Y0208663D02*
X0115583Y0208663D01*
X0113512Y0211862D02*
X0064208Y0211862D01*
X0063809Y0215060D02*
X0113911Y0215060D01*
X0118860Y0212979D02*
X0125631Y0212979D01*
X0132403Y0219750D01*
X0132424Y0219772D01*
X0132424Y0243033D01*
X0143824Y0254433D01*
X0143824Y0407533D01*
X0146924Y0410633D01*
X0151024Y0410633D01*
X0151087Y0410695D01*
X0195238Y0410695D01*
X0188538Y0416566D02*
X0114828Y0416566D01*
X0114910Y0419765D02*
X0188538Y0419765D01*
X0187238Y0422963D02*
X0114910Y0422963D01*
X0114910Y0426162D02*
X0188024Y0426162D01*
X0188953Y0429360D02*
X0114910Y0429360D01*
X0114413Y0432559D02*
X0187238Y0432559D01*
X0187857Y0435757D02*
X0111954Y0435757D01*
X0114914Y0438956D02*
X0188538Y0438956D01*
X0188538Y0442154D02*
X0119221Y0442154D01*
X0122420Y0445353D02*
X0188538Y0445353D01*
X0188538Y0448551D02*
X0125618Y0448551D01*
X0128817Y0451750D02*
X0188538Y0451750D01*
X0188538Y0454948D02*
X0132015Y0454948D01*
X0135214Y0458147D02*
X0188887Y0458147D01*
X0191137Y0461345D02*
X0138412Y0461345D01*
X0141611Y0464544D02*
X0228538Y0464544D01*
X0228538Y0461345D02*
X0199338Y0461345D01*
X0201588Y0458147D02*
X0228538Y0458147D01*
X0228538Y0454948D02*
X0201938Y0454948D01*
X0201938Y0451750D02*
X0229983Y0451750D01*
X0230464Y0448551D02*
X0201938Y0448551D01*
X0201938Y0445353D02*
X0230038Y0445353D01*
X0230038Y0445971D02*
X0230038Y0443817D01*
X0233084Y0440771D01*
X0235238Y0440771D01*
X0237392Y0440771D01*
X0240438Y0443817D01*
X0240438Y0445971D01*
X0235238Y0445971D01*
X0235238Y0445971D01*
X0235238Y0440771D01*
X0235238Y0445971D01*
X0235238Y0445971D01*
X0235238Y0445971D01*
X0230038Y0445971D01*
X0231700Y0442154D02*
X0201938Y0442154D01*
X0202451Y0426162D02*
X0300916Y0426162D01*
X0300916Y0429360D02*
X0256173Y0429360D01*
X0257371Y0432559D02*
X0300916Y0432559D01*
X0300916Y0435757D02*
X0257321Y0435757D01*
X0254523Y0438956D02*
X0300916Y0438956D01*
X0300916Y0442154D02*
X0238775Y0442154D01*
X0235238Y0442154D02*
X0235238Y0442154D01*
X0235238Y0445353D02*
X0235238Y0445353D01*
X0240438Y0445353D02*
X0300519Y0445353D01*
X0300660Y0445013D02*
X0300916Y0444757D01*
X0300916Y0400400D01*
X0291949Y0391433D01*
X0201250Y0391433D01*
X0198787Y0390413D01*
X0196903Y0388528D01*
X0183163Y0374788D01*
X0178766Y0374788D01*
X0177076Y0374088D01*
X0156818Y0374088D01*
X0156698Y0374038D01*
X0155397Y0374038D01*
X0154477Y0373118D01*
X0154356Y0373068D01*
X0152471Y0371183D01*
X0152421Y0371063D01*
X0151501Y0370143D01*
X0151501Y0368842D01*
X0151451Y0368721D01*
X0151451Y0366055D01*
X0151501Y0365935D01*
X0151501Y0364634D01*
X0152421Y0363714D01*
X0152471Y0363593D01*
X0154356Y0361708D01*
X0154477Y0361658D01*
X0155397Y0360738D01*
X0156698Y0360738D01*
X0156818Y0360688D01*
X0177076Y0360688D01*
X0178766Y0359988D01*
X0178834Y0359988D01*
X0169581Y0350735D01*
X0168167Y0350735D01*
X0165238Y0347806D01*
X0165238Y0343664D01*
X0168167Y0340735D01*
X0172309Y0340735D01*
X0175238Y0343664D01*
X0175238Y0345078D01*
X0188629Y0358469D01*
X0189238Y0359939D01*
X0189238Y0359988D01*
X0191710Y0359988D01*
X0194430Y0361115D01*
X0196511Y0363196D01*
X0197638Y0365916D01*
X0197638Y0368860D01*
X0197212Y0369887D01*
X0205358Y0378033D01*
X0296057Y0378033D01*
X0298520Y0379053D01*
X0300404Y0380938D01*
X0313296Y0393829D01*
X0314316Y0396292D01*
X0314316Y0444757D01*
X0314572Y0445013D01*
X0314937Y0445895D01*
X0314937Y0456692D01*
X0314572Y0457574D01*
X0313896Y0458250D01*
X0313014Y0458615D01*
X0302217Y0458615D01*
X0301335Y0458250D01*
X0300660Y0457574D01*
X0300294Y0456692D01*
X0300294Y0445895D01*
X0300660Y0445013D01*
X0300294Y0448551D02*
X0240011Y0448551D01*
X0241938Y0464544D02*
X0352890Y0464544D01*
X0349692Y0467743D02*
X0241938Y0467743D01*
X0241938Y0470941D02*
X0346493Y0470941D01*
X0343295Y0474140D02*
X0241938Y0474140D01*
X0241938Y0477338D02*
X0340096Y0477338D01*
X0336898Y0480537D02*
X0242942Y0480537D01*
X0246140Y0483735D02*
X0335009Y0483735D01*
X0334916Y0486934D02*
X0249339Y0486934D01*
X0252537Y0490132D02*
X0334916Y0490132D01*
X0334916Y0493331D02*
X0255736Y0493331D01*
X0258934Y0496529D02*
X0334916Y0496529D01*
X0334916Y0499728D02*
X0262133Y0499728D01*
X0265331Y0502926D02*
X0334916Y0502926D01*
X0338560Y0518919D02*
X0108413Y0518919D01*
X0111611Y0522117D02*
X0335866Y0522117D01*
X0335866Y0525316D02*
X0114810Y0525316D01*
X0118008Y0528514D02*
X0338004Y0528514D01*
X0341616Y0528514D02*
X0341616Y0528514D01*
X0341616Y0525316D02*
X0341616Y0525316D01*
X0345228Y0528514D02*
X0350660Y0528514D01*
X0347462Y0525316D02*
X0347366Y0525316D01*
X0353859Y0531713D02*
X0327778Y0531713D01*
X0330805Y0534740D02*
X0330805Y0534740D01*
X0330976Y0534911D02*
X0357057Y0534911D01*
X0357514Y0538110D02*
X0333305Y0538110D01*
X0333709Y0541308D02*
X0350878Y0541308D01*
X0348826Y0544507D02*
X0333709Y0544507D01*
X0334064Y0547705D02*
X0348814Y0547705D01*
X0348814Y0550904D02*
X0334064Y0550904D01*
X0334064Y0554102D02*
X0349402Y0554102D01*
X0351809Y0573293D02*
X0334064Y0573293D01*
X0334064Y0576492D02*
X0351809Y0576492D01*
X0357009Y0576492D02*
X0357009Y0576492D01*
X0357010Y0574357D02*
X0362209Y0574357D01*
X0357010Y0574357D01*
X0357010Y0574357D01*
X0362209Y0573293D02*
X0402551Y0573293D01*
X0402551Y0570095D02*
X0370699Y0570095D01*
X0375205Y0566896D02*
X0402551Y0566896D01*
X0402551Y0563698D02*
X0378403Y0563698D01*
X0380602Y0560499D02*
X0402551Y0560499D01*
X0402551Y0557301D02*
X0380914Y0557301D01*
X0380914Y0554102D02*
X0402551Y0554102D01*
X0402551Y0550904D02*
X0380914Y0550904D01*
X0380914Y0547705D02*
X0402551Y0547705D01*
X0402551Y0544507D02*
X0379603Y0544507D01*
X0377551Y0541308D02*
X0402551Y0541308D01*
X0402551Y0538110D02*
X0370914Y0538110D01*
X0370914Y0534911D02*
X0402551Y0534911D01*
X0402551Y0531713D02*
X0370914Y0531713D01*
X0369611Y0528514D02*
X0402551Y0528514D01*
X0402551Y0525316D02*
X0366412Y0525316D01*
X0363214Y0522117D02*
X0402551Y0522117D01*
X0402551Y0518919D02*
X0360015Y0518919D01*
X0356817Y0515720D02*
X0402551Y0515720D01*
X0402551Y0512522D02*
X0353618Y0512522D01*
X0350420Y0509323D02*
X0402551Y0509323D01*
X0402551Y0506125D02*
X0348316Y0506125D01*
X0348316Y0502926D02*
X0402551Y0502926D01*
X0402551Y0499728D02*
X0348316Y0499728D01*
X0348316Y0496529D02*
X0402551Y0496529D01*
X0402551Y0493331D02*
X0348316Y0493331D01*
X0348316Y0490132D02*
X0402551Y0490132D01*
X0402551Y0486934D02*
X0349451Y0486934D01*
X0352650Y0483735D02*
X0402551Y0483735D01*
X0402551Y0480537D02*
X0355848Y0480537D01*
X0359047Y0477338D02*
X0402551Y0477338D01*
X0402551Y0474140D02*
X0362245Y0474140D01*
X0365444Y0470941D02*
X0402551Y0470941D01*
X0402551Y0467743D02*
X0368642Y0467743D01*
X0371841Y0464544D02*
X0402551Y0464544D01*
X0402551Y0461345D02*
X0375039Y0461345D01*
X0381999Y0458147D02*
X0402551Y0458147D01*
X0402551Y0454948D02*
X0382937Y0454948D01*
X0382937Y0451750D02*
X0402551Y0451750D01*
X0402551Y0448551D02*
X0382937Y0448551D01*
X0382712Y0445353D02*
X0402551Y0445353D01*
X0402551Y0442154D02*
X0350721Y0442154D01*
X0347522Y0438956D02*
X0364007Y0438956D01*
X0364551Y0439500D02*
X0362409Y0437358D01*
X0360894Y0434735D01*
X0360110Y0431808D01*
X0360110Y0428779D01*
X0360894Y0425853D01*
X0362409Y0423229D01*
X0364551Y0421087D01*
X0367175Y0419572D01*
X0370101Y0418788D01*
X0373130Y0418788D01*
X0376057Y0419572D01*
X0378680Y0421087D01*
X0380822Y0423229D01*
X0382337Y0425853D01*
X0383121Y0428779D01*
X0383121Y0431808D01*
X0382337Y0434735D01*
X0380822Y0437358D01*
X0378680Y0439500D01*
X0376057Y0441015D01*
X0373130Y0441799D01*
X0370101Y0441799D01*
X0367175Y0441015D01*
X0364551Y0439500D01*
X0361485Y0435757D02*
X0344324Y0435757D01*
X0341125Y0432559D02*
X0360311Y0432559D01*
X0360110Y0429360D02*
X0339424Y0429360D01*
X0339424Y0426162D02*
X0360811Y0426162D01*
X0362675Y0422963D02*
X0339424Y0422963D01*
X0339424Y0419765D02*
X0366841Y0419765D01*
X0376390Y0419765D02*
X0402551Y0419765D01*
X0402551Y0422963D02*
X0380557Y0422963D01*
X0382420Y0426162D02*
X0402551Y0426162D01*
X0402551Y0429360D02*
X0383121Y0429360D01*
X0382920Y0432559D02*
X0402551Y0432559D01*
X0402551Y0435757D02*
X0381747Y0435757D01*
X0379225Y0438956D02*
X0402551Y0438956D01*
X0402551Y0416566D02*
X0339424Y0416566D01*
X0339424Y0413368D02*
X0402551Y0413368D01*
X0402551Y0410169D02*
X0339424Y0410169D01*
X0339424Y0406971D02*
X0402551Y0406971D01*
X0402551Y0403772D02*
X0339424Y0403772D01*
X0339424Y0400574D02*
X0402551Y0400574D01*
X0402551Y0397375D02*
X0339424Y0397375D01*
X0339424Y0394177D02*
X0402551Y0394177D01*
X0402551Y0390978D02*
X0339424Y0390978D01*
X0338877Y0387780D02*
X0402551Y0387780D01*
X0402551Y0384581D02*
X0336348Y0384581D01*
X0333149Y0381383D02*
X0402551Y0381383D01*
X0402551Y0378184D02*
X0329951Y0378184D01*
X0326752Y0374986D02*
X0402551Y0374986D01*
X0402551Y0371787D02*
X0323554Y0371787D01*
X0320355Y0368589D02*
X0402551Y0368589D01*
X0402551Y0365390D02*
X0317157Y0365390D01*
X0313958Y0362192D02*
X0402551Y0362192D01*
X0402551Y0358993D02*
X0310760Y0358993D01*
X0307561Y0355795D02*
X0402551Y0355795D01*
X0402551Y0352596D02*
X0304363Y0352596D01*
X0301164Y0349398D02*
X0402551Y0349398D01*
X0402551Y0346199D02*
X0297966Y0346199D01*
X0296224Y0343001D02*
X0402551Y0343001D01*
X0402551Y0339802D02*
X0296224Y0339802D01*
X0296224Y0336604D02*
X0402551Y0336604D01*
X0402551Y0333405D02*
X0296224Y0333405D01*
X0296224Y0330207D02*
X0402551Y0330207D01*
X0402551Y0327008D02*
X0296224Y0327008D01*
X0296224Y0323810D02*
X0306819Y0323810D01*
X0307175Y0324015D02*
X0304551Y0322500D01*
X0302409Y0320358D01*
X0300894Y0317735D01*
X0300110Y0314808D01*
X0300110Y0311779D01*
X0300894Y0308853D01*
X0302409Y0306229D01*
X0304551Y0304087D01*
X0307101Y0302615D01*
X0302217Y0302615D01*
X0301335Y0302250D01*
X0300660Y0301574D01*
X0300294Y0300692D01*
X0300294Y0289895D01*
X0300660Y0289013D01*
X0301335Y0288338D01*
X0302217Y0287972D01*
X0313014Y0287972D01*
X0313896Y0288338D01*
X0314572Y0289013D01*
X0314937Y0289895D01*
X0314937Y0300692D01*
X0314572Y0301574D01*
X0314098Y0302048D01*
X0316057Y0302572D01*
X0318680Y0304087D01*
X0320822Y0306229D01*
X0322337Y0308853D01*
X0323121Y0311779D01*
X0323121Y0314808D01*
X0322337Y0317735D01*
X0320822Y0320358D01*
X0318680Y0322500D01*
X0316057Y0324015D01*
X0313130Y0324799D01*
X0310101Y0324799D01*
X0307175Y0324015D01*
X0302662Y0320611D02*
X0296224Y0320611D01*
X0296224Y0317412D02*
X0300808Y0317412D01*
X0300110Y0314214D02*
X0296224Y0314214D01*
X0296224Y0311015D02*
X0300315Y0311015D01*
X0301492Y0307817D02*
X0296224Y0307817D01*
X0296224Y0304618D02*
X0304020Y0304618D01*
X0300596Y0301420D02*
X0295528Y0301420D01*
X0292788Y0298221D02*
X0300294Y0298221D01*
X0300294Y0295023D02*
X0289589Y0295023D01*
X0282824Y0307817D02*
X0263798Y0307817D01*
X0264334Y0310735D02*
X0258584Y0310735D01*
X0264334Y0310735D01*
X0264334Y0311015D02*
X0282824Y0311015D01*
X0282824Y0314214D02*
X0263237Y0314214D01*
X0258584Y0314214D02*
X0258584Y0314214D01*
X0258584Y0311015D02*
X0258584Y0311015D01*
X0258584Y0310735D02*
X0258584Y0310735D01*
X0252834Y0311015D02*
X0249024Y0311015D01*
X0249024Y0307817D02*
X0253370Y0307817D01*
X0252993Y0304618D02*
X0249024Y0304618D01*
X0249024Y0301420D02*
X0251884Y0301420D01*
X0252373Y0298221D02*
X0249024Y0298221D01*
X0249024Y0295023D02*
X0254821Y0295023D01*
X0249024Y0291824D02*
X0300294Y0291824D01*
X0301047Y0288626D02*
X0249024Y0288626D01*
X0249024Y0285427D02*
X0368916Y0285427D01*
X0368916Y0282229D02*
X0251983Y0282229D01*
X0253424Y0279030D02*
X0368916Y0279030D01*
X0368916Y0275832D02*
X0253424Y0275832D01*
X0253424Y0272633D02*
X0368916Y0272633D01*
X0368916Y0269435D02*
X0300127Y0269435D01*
X0301774Y0267788D02*
X0297879Y0271683D01*
X0292370Y0271683D01*
X0288474Y0267788D01*
X0288474Y0262279D01*
X0292370Y0258383D01*
X0297879Y0258383D01*
X0301774Y0262279D01*
X0301774Y0267788D01*
X0301774Y0266236D02*
X0368916Y0266236D01*
X0368916Y0263038D02*
X0301774Y0263038D01*
X0299335Y0259839D02*
X0368916Y0259839D01*
X0368916Y0256641D02*
X0267721Y0256641D01*
X0269332Y0258252D02*
X0269332Y0261089D01*
X0269332Y0263926D01*
X0265319Y0267939D01*
X0262482Y0267939D01*
X0262482Y0261089D01*
X0269332Y0261089D01*
X0262482Y0261089D01*
X0262482Y0261089D01*
X0262482Y0261089D01*
X0262482Y0254239D01*
X0265319Y0254239D01*
X0269332Y0258252D01*
X0269332Y0259839D02*
X0290914Y0259839D01*
X0288474Y0263038D02*
X0269332Y0263038D01*
X0267022Y0266236D02*
X0288474Y0266236D01*
X0290122Y0269435D02*
X0251980Y0269435D01*
X0255632Y0263926D02*
X0255632Y0261089D01*
X0262482Y0261089D01*
X0262482Y0261089D01*
X0262482Y0267939D01*
X0259645Y0267939D01*
X0255632Y0263926D01*
X0255632Y0263038D02*
X0242672Y0263038D01*
X0242657Y0263085D02*
X0242285Y0263814D01*
X0241804Y0264477D01*
X0241225Y0265055D01*
X0240563Y0265536D01*
X0239834Y0265908D01*
X0239055Y0266161D01*
X0238247Y0266289D01*
X0235238Y0266289D01*
X0235238Y0261089D01*
X0243038Y0261089D01*
X0243038Y0261498D01*
X0242910Y0262307D01*
X0242657Y0263085D01*
X0243038Y0261089D02*
X0235238Y0261089D01*
X0235238Y0261089D01*
X0235238Y0261089D01*
X0235238Y0255889D01*
X0238247Y0255889D01*
X0239055Y0256017D01*
X0239834Y0256270D01*
X0240563Y0256642D01*
X0241225Y0257123D01*
X0241804Y0257701D01*
X0242285Y0258364D01*
X0242657Y0259093D01*
X0242910Y0259871D01*
X0243038Y0260680D01*
X0243038Y0261089D01*
X0242899Y0259839D02*
X0255632Y0259839D01*
X0255632Y0261089D02*
X0255632Y0258252D01*
X0259645Y0254239D01*
X0262482Y0254239D01*
X0262482Y0261089D01*
X0262482Y0261089D01*
X0255632Y0261089D01*
X0257243Y0256641D02*
X0240562Y0256641D01*
X0235238Y0256641D02*
X0235238Y0256641D01*
X0235238Y0255889D02*
X0235238Y0261089D01*
X0235238Y0261089D01*
X0235238Y0266289D01*
X0232229Y0266289D01*
X0231420Y0266161D01*
X0230642Y0265908D01*
X0229912Y0265536D01*
X0229250Y0265055D01*
X0228671Y0264477D01*
X0228190Y0263814D01*
X0227819Y0263085D01*
X0227566Y0262307D01*
X0227438Y0261498D01*
X0227438Y0261089D01*
X0227438Y0260680D01*
X0227566Y0259871D01*
X0227819Y0259093D01*
X0228190Y0258364D01*
X0228671Y0257701D01*
X0229250Y0257123D01*
X0229912Y0256642D01*
X0230642Y0256270D01*
X0231420Y0256017D01*
X0232229Y0255889D01*
X0235238Y0255889D01*
X0235238Y0259839D02*
X0235238Y0259839D01*
X0235238Y0261089D02*
X0227438Y0261089D01*
X0235238Y0261089D01*
X0235238Y0261089D01*
X0235238Y0263038D02*
X0235238Y0263038D01*
X0235238Y0266236D02*
X0235238Y0266236D01*
X0234469Y0269435D02*
X0209240Y0269435D01*
X0206042Y0266236D02*
X0231896Y0266236D01*
X0227803Y0263038D02*
X0202843Y0263038D01*
X0202732Y0259839D02*
X0227576Y0259839D01*
X0229914Y0256641D02*
X0200164Y0256641D01*
X0199238Y0253442D02*
X0331290Y0253442D01*
X0330342Y0252494D02*
X0332424Y0254576D01*
X0335144Y0255702D01*
X0348088Y0255702D01*
X0349778Y0255002D01*
X0354188Y0255002D01*
X0356650Y0253982D01*
X0365600Y0245033D01*
X0368271Y0245033D01*
X0368216Y0245087D01*
X0367424Y0246999D01*
X0367424Y0249067D01*
X0368216Y0250979D01*
X0368916Y0251678D01*
X0368916Y0288757D01*
X0368660Y0289013D01*
X0368294Y0289895D01*
X0368294Y0300692D01*
X0368660Y0301574D01*
X0369335Y0302250D01*
X0370217Y0302615D01*
X0381014Y0302615D01*
X0381896Y0302250D01*
X0382572Y0301574D01*
X0382937Y0300692D01*
X0382937Y0289895D01*
X0382572Y0289013D01*
X0382316Y0288757D01*
X0382316Y0271533D01*
X0384720Y0271533D01*
X0384870Y0271683D01*
X0386171Y0271683D01*
X0386292Y0271733D01*
X0388957Y0271733D01*
X0389078Y0271683D01*
X0390379Y0271683D01*
X0391299Y0270763D01*
X0391420Y0270713D01*
X0393304Y0268828D01*
X0393354Y0268708D01*
X0394274Y0267788D01*
X0394274Y0266486D01*
X0394324Y0266366D01*
X0394324Y0263700D01*
X0394274Y0263580D01*
X0394274Y0262279D01*
X0393354Y0261359D01*
X0393304Y0261238D01*
X0393104Y0261038D01*
X0391220Y0259153D01*
X0391099Y0259103D01*
X0390379Y0258383D01*
X0389361Y0258383D01*
X0388757Y0258133D01*
X0382316Y0258133D01*
X0382316Y0251296D01*
X0382633Y0250979D01*
X0383424Y0249067D01*
X0383424Y0246999D01*
X0382633Y0245087D01*
X0381170Y0243625D01*
X0380011Y0243145D01*
X0379900Y0243033D01*
X0380011Y0242921D01*
X0381170Y0242441D01*
X0382633Y0240979D01*
X0383424Y0239067D01*
X0383424Y0236999D01*
X0382633Y0235087D01*
X0381170Y0233625D01*
X0380011Y0233145D01*
X0379220Y0232353D01*
X0376757Y0231333D01*
X0374092Y0231333D01*
X0373367Y0231633D01*
X0361492Y0231633D01*
X0359029Y0232653D01*
X0357144Y0234538D01*
X0350080Y0241602D01*
X0349778Y0241602D01*
X0348088Y0240902D01*
X0335144Y0240902D01*
X0332424Y0242029D01*
X0330342Y0244111D01*
X0329216Y0246830D01*
X0329216Y0249774D01*
X0330342Y0252494D01*
X0329410Y0250244D02*
X0199238Y0250244D01*
X0198093Y0247045D02*
X0329216Y0247045D01*
X0330606Y0243847D02*
X0194895Y0243847D01*
X0190524Y0245133D02*
X0195238Y0249846D01*
X0195238Y0261089D01*
X0210082Y0275933D01*
X0238124Y0275933D01*
X0238224Y0275833D01*
X0234466Y0282229D02*
X0184086Y0282229D01*
X0185438Y0283581D02*
X0185438Y0285735D01*
X0185438Y0287889D01*
X0182392Y0290935D01*
X0180238Y0290935D01*
X0180238Y0285735D01*
X0180238Y0285735D01*
X0185438Y0285735D01*
X0180238Y0285735D01*
X0180238Y0285735D01*
X0180238Y0290935D01*
X0178084Y0290935D01*
X0175096Y0287947D01*
X0172309Y0290735D01*
X0168167Y0290735D01*
X0165238Y0287806D01*
X0165238Y0283664D01*
X0168167Y0280735D01*
X0172309Y0280735D01*
X0175096Y0283522D01*
X0178084Y0280535D01*
X0180238Y0280535D01*
X0182392Y0280535D01*
X0185438Y0283581D01*
X0185438Y0285427D02*
X0195947Y0285427D01*
X0195999Y0285302D02*
X0197406Y0283896D01*
X0199243Y0283135D01*
X0201232Y0283135D01*
X0203070Y0283896D01*
X0204477Y0285302D01*
X0205238Y0287140D01*
X0205238Y0294329D01*
X0204477Y0296167D01*
X0203070Y0297573D01*
X0201232Y0298335D01*
X0199243Y0298335D01*
X0197406Y0297573D01*
X0195999Y0296167D01*
X0195238Y0294329D01*
X0195238Y0287140D01*
X0195999Y0285302D01*
X0195238Y0288626D02*
X0184700Y0288626D01*
X0180238Y0288626D02*
X0180238Y0288626D01*
X0180238Y0285735D02*
X0180238Y0280535D01*
X0180238Y0285735D01*
X0180238Y0285735D01*
X0180238Y0285427D02*
X0180238Y0285427D01*
X0180238Y0282229D02*
X0180238Y0282229D01*
X0176390Y0282229D02*
X0173803Y0282229D01*
X0174418Y0288626D02*
X0175775Y0288626D01*
X0166673Y0282229D02*
X0162024Y0282229D01*
X0162024Y0285427D02*
X0165238Y0285427D01*
X0166058Y0288626D02*
X0162024Y0288626D01*
X0162024Y0291824D02*
X0195238Y0291824D01*
X0195525Y0295023D02*
X0162024Y0295023D01*
X0162024Y0298221D02*
X0198970Y0298221D01*
X0201506Y0298221D02*
X0208970Y0298221D01*
X0209243Y0298335D02*
X0207406Y0297573D01*
X0205999Y0296167D01*
X0205238Y0294329D01*
X0205238Y0287140D01*
X0205999Y0285302D01*
X0207406Y0283896D01*
X0209243Y0283135D01*
X0211232Y0283135D01*
X0213070Y0283896D01*
X0214477Y0285302D01*
X0215238Y0287140D01*
X0215238Y0294329D01*
X0214477Y0296167D01*
X0213070Y0297573D01*
X0211232Y0298335D01*
X0209243Y0298335D01*
X0211506Y0298221D02*
X0218970Y0298221D01*
X0219243Y0298335D02*
X0217406Y0297573D01*
X0215999Y0296167D01*
X0215238Y0294329D01*
X0215238Y0287140D01*
X0215999Y0285302D01*
X0217406Y0283896D01*
X0219243Y0283135D01*
X0221232Y0283135D01*
X0223070Y0283896D01*
X0224477Y0285302D01*
X0225238Y0287140D01*
X0225238Y0294329D01*
X0224477Y0296167D01*
X0223070Y0297573D01*
X0221232Y0298335D01*
X0219243Y0298335D01*
X0221506Y0298221D02*
X0228970Y0298221D01*
X0229243Y0298335D02*
X0227406Y0297573D01*
X0225999Y0296167D01*
X0225238Y0294329D01*
X0225238Y0287140D01*
X0225999Y0285302D01*
X0227406Y0283896D01*
X0229243Y0283135D01*
X0231232Y0283135D01*
X0233070Y0283896D01*
X0234477Y0285302D01*
X0235238Y0287140D01*
X0235238Y0294329D01*
X0234477Y0296167D01*
X0233070Y0297573D01*
X0231232Y0298335D01*
X0229243Y0298335D01*
X0231506Y0298221D02*
X0241024Y0298221D01*
X0241024Y0295023D02*
X0234950Y0295023D01*
X0235238Y0291824D02*
X0241024Y0291824D01*
X0241024Y0288626D02*
X0235238Y0288626D01*
X0234528Y0285427D02*
X0241024Y0285427D01*
X0245024Y0279033D02*
X0245024Y0316133D01*
X0240924Y0320233D01*
X0240924Y0320735D01*
X0230238Y0320735D01*
X0230238Y0316946D01*
X0219524Y0306233D01*
X0163724Y0306233D01*
X0158024Y0300533D01*
X0158024Y0261216D01*
X0158151Y0261089D01*
X0153195Y0256641D02*
X0147824Y0256641D01*
X0147824Y0259839D02*
X0151501Y0259839D01*
X0151501Y0263038D02*
X0147824Y0263038D01*
X0147824Y0266236D02*
X0153894Y0266236D01*
X0154024Y0269435D02*
X0147824Y0269435D01*
X0147824Y0272633D02*
X0154024Y0272633D01*
X0154024Y0275832D02*
X0147824Y0275832D01*
X0147824Y0279030D02*
X0154024Y0279030D01*
X0154024Y0282229D02*
X0147824Y0282229D01*
X0147824Y0285427D02*
X0154024Y0285427D01*
X0154024Y0288626D02*
X0147824Y0288626D01*
X0147824Y0291824D02*
X0154024Y0291824D01*
X0154024Y0295023D02*
X0147824Y0295023D01*
X0147824Y0298221D02*
X0154024Y0298221D01*
X0154062Y0301420D02*
X0147824Y0301420D01*
X0147824Y0304618D02*
X0156453Y0304618D01*
X0159651Y0307817D02*
X0147824Y0307817D01*
X0147824Y0311015D02*
X0218650Y0311015D01*
X0217087Y0314214D02*
X0213388Y0314214D01*
X0213070Y0313896D02*
X0214477Y0315302D01*
X0215238Y0317140D01*
X0215238Y0324329D01*
X0214477Y0326167D01*
X0214238Y0326406D01*
X0214238Y0332664D01*
X0215238Y0333664D01*
X0215238Y0337806D01*
X0214238Y0338806D01*
X0214238Y0342664D01*
X0215238Y0343664D01*
X0215238Y0347806D01*
X0212309Y0350735D01*
X0208167Y0350735D01*
X0205238Y0347806D01*
X0205238Y0343664D01*
X0206238Y0342664D01*
X0206238Y0338806D01*
X0205238Y0337806D01*
X0205238Y0333664D01*
X0206238Y0332664D01*
X0206238Y0326406D01*
X0205999Y0326167D01*
X0205315Y0324517D01*
X0205310Y0324552D01*
X0205057Y0325331D01*
X0204685Y0326060D01*
X0204204Y0326722D01*
X0203625Y0327301D01*
X0202963Y0327782D01*
X0202234Y0328154D01*
X0201455Y0328407D01*
X0200647Y0328535D01*
X0200238Y0328535D01*
X0200238Y0320735D01*
X0200238Y0320735D01*
X0200238Y0328535D01*
X0199829Y0328535D01*
X0199020Y0328407D01*
X0198242Y0328154D01*
X0197512Y0327782D01*
X0196850Y0327301D01*
X0196271Y0326722D01*
X0195790Y0326060D01*
X0195419Y0325331D01*
X0195166Y0324552D01*
X0195038Y0323744D01*
X0195038Y0320735D01*
X0200238Y0320735D01*
X0200238Y0320735D01*
X0200238Y0312935D01*
X0200647Y0312935D01*
X0201455Y0313063D01*
X0202234Y0313316D01*
X0202963Y0313687D01*
X0203625Y0314168D01*
X0204204Y0314747D01*
X0204685Y0315409D01*
X0205057Y0316139D01*
X0205310Y0316917D01*
X0205315Y0316953D01*
X0205999Y0315302D01*
X0207406Y0313896D01*
X0209243Y0313135D01*
X0211232Y0313135D01*
X0213070Y0313896D01*
X0215238Y0317412D02*
X0215238Y0317412D01*
X0215238Y0320611D02*
X0215238Y0320611D01*
X0215238Y0323810D02*
X0215238Y0323810D01*
X0214238Y0327008D02*
X0216238Y0327008D01*
X0216238Y0330207D02*
X0214238Y0330207D01*
X0214979Y0333405D02*
X0215496Y0333405D01*
X0215238Y0336604D02*
X0215238Y0336604D01*
X0214238Y0339802D02*
X0216238Y0339802D01*
X0215901Y0343001D02*
X0214575Y0343001D01*
X0215238Y0346199D02*
X0215238Y0346199D01*
X0213646Y0349398D02*
X0216830Y0349398D01*
X0220238Y0345735D02*
X0220238Y0335735D01*
X0220238Y0320735D01*
X0224238Y0327008D02*
X0226840Y0327008D01*
X0225238Y0323810D02*
X0225238Y0323810D01*
X0225238Y0320611D02*
X0225238Y0320611D01*
X0224238Y0330207D02*
X0249053Y0330207D01*
X0252251Y0333405D02*
X0224979Y0333405D01*
X0225238Y0336604D02*
X0255238Y0336604D01*
X0257234Y0339802D02*
X0224238Y0339802D01*
X0224575Y0343001D02*
X0255618Y0343001D01*
X0255038Y0346199D02*
X0225238Y0346199D01*
X0223646Y0349398D02*
X0256547Y0349398D01*
X0260238Y0349398D02*
X0260238Y0349398D01*
X0260238Y0346199D02*
X0260238Y0346199D01*
X0263929Y0349398D02*
X0283169Y0349398D01*
X0282824Y0346199D02*
X0265438Y0346199D01*
X0264858Y0343001D02*
X0282824Y0343001D01*
X0282824Y0339802D02*
X0263241Y0339802D01*
X0265238Y0336604D02*
X0282824Y0336604D01*
X0282824Y0333405D02*
X0264979Y0333405D01*
X0260238Y0335735D02*
X0245238Y0320735D01*
X0245024Y0320521D01*
X0245238Y0320735D02*
X0240924Y0320735D01*
X0241024Y0314214D02*
X0233388Y0314214D01*
X0229964Y0311015D02*
X0241024Y0311015D01*
X0241024Y0307817D02*
X0226765Y0307817D01*
X0223567Y0304618D02*
X0241024Y0304618D01*
X0241024Y0301420D02*
X0164568Y0301420D01*
X0168167Y0320735D02*
X0165238Y0323664D01*
X0165238Y0327806D01*
X0166238Y0328806D01*
X0166238Y0332664D01*
X0165238Y0333664D01*
X0165238Y0337806D01*
X0168167Y0340735D01*
X0172309Y0340735D01*
X0175238Y0337806D01*
X0175238Y0333664D01*
X0174238Y0332664D01*
X0174238Y0329735D01*
X0177167Y0329735D01*
X0178167Y0330735D01*
X0182309Y0330735D01*
X0185238Y0327806D01*
X0185238Y0323664D01*
X0182309Y0320735D01*
X0178167Y0320735D01*
X0177167Y0321735D01*
X0173309Y0321735D01*
X0172309Y0320735D01*
X0168167Y0320735D01*
X0165238Y0323810D02*
X0147824Y0323810D01*
X0147824Y0327008D02*
X0165238Y0327008D01*
X0166238Y0330207D02*
X0147824Y0330207D01*
X0147824Y0333405D02*
X0165496Y0333405D01*
X0165238Y0336604D02*
X0147824Y0336604D01*
X0147824Y0339802D02*
X0167234Y0339802D01*
X0165901Y0343001D02*
X0147824Y0343001D01*
X0147824Y0346199D02*
X0165238Y0346199D01*
X0166830Y0349398D02*
X0147824Y0349398D01*
X0147824Y0352596D02*
X0171442Y0352596D01*
X0174641Y0355795D02*
X0147824Y0355795D01*
X0147824Y0358993D02*
X0177839Y0358993D01*
X0182756Y0352596D02*
X0285412Y0352596D01*
X0288611Y0355795D02*
X0185955Y0355795D01*
X0188846Y0358993D02*
X0291809Y0358993D01*
X0295008Y0362192D02*
X0266973Y0362192D01*
X0265319Y0360538D02*
X0269332Y0364551D01*
X0269332Y0367388D01*
X0262482Y0367388D01*
X0262482Y0360538D01*
X0265319Y0360538D01*
X0262482Y0360538D02*
X0262482Y0367388D01*
X0262482Y0367388D01*
X0262482Y0367388D01*
X0269332Y0367388D01*
X0269332Y0370226D01*
X0265319Y0374238D01*
X0262482Y0374238D01*
X0262482Y0367388D01*
X0257838Y0367388D01*
X0245238Y0367388D01*
X0245238Y0367388D01*
X0245238Y0359788D01*
X0250736Y0359788D01*
X0251724Y0359918D01*
X0252686Y0360176D01*
X0253606Y0360557D01*
X0254469Y0361055D01*
X0255260Y0361662D01*
X0255964Y0362366D01*
X0256571Y0363157D01*
X0256737Y0363446D01*
X0259645Y0360538D01*
X0262482Y0360538D01*
X0262482Y0362192D02*
X0262482Y0362192D01*
X0262482Y0365390D02*
X0262482Y0365390D01*
X0262482Y0367388D02*
X0262482Y0367388D01*
X0262482Y0367388D01*
X0245238Y0367388D01*
X0245238Y0367388D01*
X0245238Y0359788D01*
X0239740Y0359788D01*
X0238752Y0359918D01*
X0237790Y0360176D01*
X0236869Y0360557D01*
X0236006Y0361055D01*
X0235216Y0361662D01*
X0234512Y0362366D01*
X0233905Y0363157D01*
X0233407Y0364020D01*
X0233026Y0364940D01*
X0232768Y0365902D01*
X0232638Y0366890D01*
X0232638Y0367388D01*
X0245238Y0367388D01*
X0245238Y0367388D01*
X0245238Y0374988D01*
X0250736Y0374988D01*
X0251724Y0374858D01*
X0252686Y0374600D01*
X0253606Y0374219D01*
X0254469Y0373721D01*
X0255260Y0373114D01*
X0255964Y0372410D01*
X0256571Y0371620D01*
X0256737Y0371331D01*
X0259645Y0374238D01*
X0262482Y0374238D01*
X0262482Y0367388D01*
X0262482Y0368589D02*
X0262482Y0368589D01*
X0262482Y0371787D02*
X0262482Y0371787D01*
X0267770Y0371787D02*
X0304603Y0371787D01*
X0301405Y0368589D02*
X0269332Y0368589D01*
X0269332Y0365390D02*
X0298206Y0365390D01*
X0296422Y0378184D02*
X0311000Y0378184D01*
X0307802Y0374986D02*
X0250755Y0374986D01*
X0256442Y0371787D02*
X0257194Y0371787D01*
X0257991Y0362192D02*
X0255789Y0362192D01*
X0245238Y0362192D02*
X0245238Y0362192D01*
X0245238Y0365390D02*
X0245238Y0365390D01*
X0245238Y0367388D02*
X0245238Y0367388D01*
X0232638Y0367388D01*
X0232638Y0367886D01*
X0232768Y0368874D01*
X0233026Y0369836D01*
X0233407Y0370757D01*
X0233905Y0371620D01*
X0234512Y0372410D01*
X0235216Y0373114D01*
X0236006Y0373721D01*
X0236869Y0374219D01*
X0237790Y0374600D01*
X0238752Y0374858D01*
X0239740Y0374988D01*
X0245238Y0374988D01*
X0245238Y0367388D01*
X0245238Y0368589D02*
X0245238Y0368589D01*
X0245238Y0371787D02*
X0245238Y0371787D01*
X0245238Y0374986D02*
X0245238Y0374986D01*
X0239721Y0374986D02*
X0202311Y0374986D01*
X0199112Y0371787D02*
X0234034Y0371787D01*
X0232730Y0368589D02*
X0197638Y0368589D01*
X0197420Y0365390D02*
X0232905Y0365390D01*
X0234686Y0362192D02*
X0195506Y0362192D01*
X0185238Y0360735D02*
X0170238Y0345735D01*
X0174575Y0343001D02*
X0205901Y0343001D01*
X0206238Y0339802D02*
X0173241Y0339802D01*
X0175238Y0336604D02*
X0205238Y0336604D01*
X0205496Y0333405D02*
X0174979Y0333405D01*
X0174238Y0330207D02*
X0177639Y0330207D01*
X0180238Y0325735D02*
X0170238Y0325735D01*
X0170238Y0335735D01*
X0176359Y0346199D02*
X0205238Y0346199D01*
X0206830Y0349398D02*
X0179558Y0349398D01*
X0185238Y0360735D02*
X0185238Y0367388D01*
X0183360Y0374986D02*
X0147824Y0374986D01*
X0147824Y0378184D02*
X0186559Y0378184D01*
X0189757Y0381383D02*
X0147824Y0381383D01*
X0147824Y0384581D02*
X0192956Y0384581D01*
X0196154Y0387780D02*
X0147824Y0387780D01*
X0147824Y0390978D02*
X0200152Y0390978D01*
X0196903Y0388528D02*
X0196903Y0388528D01*
X0201184Y0406971D02*
X0229008Y0406971D01*
X0229250Y0406729D02*
X0228671Y0407308D01*
X0228190Y0407970D01*
X0227819Y0408699D01*
X0227566Y0409478D01*
X0227438Y0410286D01*
X0227438Y0410695D01*
X0235238Y0410695D01*
X0235238Y0405495D01*
X0238247Y0405495D01*
X0239055Y0405623D01*
X0239834Y0405876D01*
X0240563Y0406248D01*
X0241225Y0406729D01*
X0241804Y0407308D01*
X0242285Y0407970D01*
X0242657Y0408699D01*
X0242910Y0409478D01*
X0243038Y0410286D01*
X0243038Y0410695D01*
X0235238Y0410695D01*
X0235238Y0410695D01*
X0235238Y0410695D01*
X0235238Y0405495D01*
X0232229Y0405495D01*
X0231420Y0405623D01*
X0230642Y0405876D01*
X0229912Y0406248D01*
X0229250Y0406729D01*
X0227456Y0410169D02*
X0202838Y0410169D01*
X0202143Y0413368D02*
X0228163Y0413368D01*
X0228190Y0413421D02*
X0227819Y0412691D01*
X0227566Y0411913D01*
X0227438Y0411105D01*
X0227438Y0410695D01*
X0235238Y0410695D01*
X0243038Y0410695D01*
X0243038Y0411105D01*
X0242910Y0411913D01*
X0242657Y0412691D01*
X0242285Y0413421D01*
X0241804Y0414083D01*
X0241225Y0414662D01*
X0240563Y0415143D01*
X0239834Y0415514D01*
X0239055Y0415767D01*
X0238247Y0415895D01*
X0235238Y0415895D01*
X0235238Y0410695D01*
X0235238Y0410695D01*
X0235238Y0410695D01*
X0235238Y0415895D01*
X0232229Y0415895D01*
X0231420Y0415767D01*
X0230642Y0415514D01*
X0229912Y0415143D01*
X0229250Y0414662D01*
X0228671Y0414083D01*
X0228190Y0413421D01*
X0235238Y0413368D02*
X0235238Y0413368D01*
X0235238Y0410169D02*
X0235238Y0410169D01*
X0235238Y0406971D02*
X0235238Y0406971D01*
X0241467Y0406971D02*
X0244708Y0406971D01*
X0243821Y0407858D02*
X0247834Y0403845D01*
X0250671Y0403845D01*
X0253508Y0403845D01*
X0257521Y0407858D01*
X0257521Y0410695D01*
X0250671Y0410695D01*
X0250671Y0403845D01*
X0250671Y0410695D01*
X0250671Y0410695D01*
X0250671Y0410695D01*
X0257521Y0410695D01*
X0257521Y0413533D01*
X0253508Y0417545D01*
X0250671Y0417545D01*
X0250671Y0410695D01*
X0243821Y0410695D01*
X0243821Y0407858D01*
X0243821Y0410169D02*
X0243019Y0410169D01*
X0243821Y0410695D02*
X0250671Y0410695D01*
X0250671Y0410695D01*
X0250671Y0410695D01*
X0250671Y0417545D01*
X0247834Y0417545D01*
X0243821Y0413533D01*
X0243821Y0410695D01*
X0243821Y0413368D02*
X0242312Y0413368D01*
X0246855Y0416566D02*
X0201938Y0416566D01*
X0201938Y0419765D02*
X0300916Y0419765D01*
X0300916Y0422963D02*
X0203238Y0422963D01*
X0228538Y0467743D02*
X0144809Y0467743D01*
X0148008Y0470941D02*
X0228538Y0470941D01*
X0228538Y0474140D02*
X0151206Y0474140D01*
X0154405Y0477338D02*
X0228538Y0477338D01*
X0228538Y0480537D02*
X0157603Y0480537D01*
X0160802Y0483735D02*
X0228577Y0483735D01*
X0230388Y0486934D02*
X0164000Y0486934D01*
X0167199Y0490132D02*
X0233587Y0490132D01*
X0236785Y0493331D02*
X0170397Y0493331D01*
X0173596Y0496529D02*
X0239984Y0496529D01*
X0243182Y0499728D02*
X0176794Y0499728D01*
X0179993Y0502926D02*
X0246381Y0502926D01*
X0254771Y0461345D02*
X0356089Y0461345D01*
X0359287Y0458147D02*
X0313999Y0458147D01*
X0314937Y0454948D02*
X0344565Y0454948D01*
X0341366Y0451750D02*
X0314937Y0451750D01*
X0314937Y0448551D02*
X0338168Y0448551D01*
X0334969Y0445353D02*
X0314712Y0445353D01*
X0314316Y0442154D02*
X0331771Y0442154D01*
X0328572Y0438956D02*
X0314316Y0438956D01*
X0314316Y0435757D02*
X0326352Y0435757D01*
X0326024Y0432559D02*
X0314316Y0432559D01*
X0314316Y0429360D02*
X0326024Y0429360D01*
X0326024Y0426162D02*
X0314316Y0426162D01*
X0314316Y0422963D02*
X0326024Y0422963D01*
X0326024Y0419765D02*
X0314316Y0419765D01*
X0314316Y0416566D02*
X0326024Y0416566D01*
X0326024Y0413368D02*
X0314316Y0413368D01*
X0314316Y0410169D02*
X0326024Y0410169D01*
X0326024Y0406971D02*
X0314316Y0406971D01*
X0314316Y0403772D02*
X0326024Y0403772D01*
X0326024Y0400574D02*
X0314316Y0400574D01*
X0314316Y0397375D02*
X0326024Y0397375D01*
X0326024Y0394177D02*
X0313440Y0394177D01*
X0310445Y0390978D02*
X0323794Y0390978D01*
X0320596Y0387780D02*
X0307246Y0387780D01*
X0304048Y0384581D02*
X0317397Y0384581D01*
X0314199Y0381383D02*
X0300849Y0381383D01*
X0294693Y0394177D02*
X0147824Y0394177D01*
X0147824Y0397375D02*
X0297891Y0397375D01*
X0300916Y0400574D02*
X0147824Y0400574D01*
X0147824Y0403772D02*
X0300916Y0403772D01*
X0300916Y0406971D02*
X0256634Y0406971D01*
X0257521Y0410169D02*
X0300916Y0410169D01*
X0300916Y0413368D02*
X0257521Y0413368D01*
X0254487Y0416566D02*
X0300916Y0416566D01*
X0300294Y0451750D02*
X0255925Y0451750D01*
X0257371Y0454948D02*
X0300294Y0454948D01*
X0301232Y0458147D02*
X0257321Y0458147D01*
X0250671Y0416566D02*
X0250671Y0416566D01*
X0250671Y0413368D02*
X0250671Y0413368D01*
X0250671Y0410169D02*
X0250671Y0410169D01*
X0250671Y0406971D02*
X0250671Y0406971D01*
X0210238Y0345735D02*
X0210238Y0335735D01*
X0210238Y0320735D01*
X0207087Y0314214D02*
X0203671Y0314214D01*
X0200238Y0314214D02*
X0200238Y0314214D01*
X0200238Y0312935D02*
X0199829Y0312935D01*
X0199020Y0313063D01*
X0198242Y0313316D01*
X0197512Y0313687D01*
X0196850Y0314168D01*
X0196271Y0314747D01*
X0195790Y0315409D01*
X0195419Y0316139D01*
X0195166Y0316917D01*
X0195038Y0317725D01*
X0195038Y0320735D01*
X0200238Y0320735D01*
X0200238Y0320735D01*
X0200238Y0312935D01*
X0196805Y0314214D02*
X0147824Y0314214D01*
X0147824Y0317412D02*
X0195087Y0317412D01*
X0195038Y0320611D02*
X0147824Y0320611D01*
X0139824Y0320611D02*
X0116105Y0320611D01*
X0112907Y0317412D02*
X0139824Y0317412D01*
X0139824Y0314214D02*
X0109910Y0314214D01*
X0109910Y0311015D02*
X0139824Y0311015D01*
X0139824Y0307817D02*
X0109910Y0307817D01*
X0109910Y0304618D02*
X0139824Y0304618D01*
X0139824Y0301420D02*
X0109910Y0301420D01*
X0109910Y0298221D02*
X0139824Y0298221D01*
X0139824Y0295023D02*
X0109910Y0295023D01*
X0109910Y0291824D02*
X0139824Y0291824D01*
X0139824Y0288626D02*
X0109910Y0288626D01*
X0109910Y0285427D02*
X0139824Y0285427D01*
X0139824Y0282229D02*
X0109910Y0282229D01*
X0109910Y0279030D02*
X0139824Y0279030D01*
X0139824Y0275832D02*
X0109910Y0275832D01*
X0109910Y0272633D02*
X0139824Y0272633D01*
X0139824Y0269435D02*
X0124920Y0269435D01*
X0127090Y0266236D02*
X0139824Y0266236D01*
X0139824Y0263038D02*
X0127710Y0263038D01*
X0127139Y0259839D02*
X0139824Y0259839D01*
X0139824Y0256641D02*
X0125038Y0256641D01*
X0124228Y0253442D02*
X0137177Y0253442D01*
X0133978Y0250244D02*
X0123538Y0250244D01*
X0122668Y0247045D02*
X0130780Y0247045D01*
X0128432Y0243847D02*
X0124360Y0243847D01*
X0123922Y0240648D02*
X0128424Y0240648D01*
X0128424Y0237450D02*
X0121981Y0237450D01*
X0124144Y0234251D02*
X0128424Y0234251D01*
X0128424Y0231053D02*
X0123873Y0231053D01*
X0123460Y0227854D02*
X0128424Y0227854D01*
X0128424Y0224656D02*
X0125417Y0224656D01*
X0125482Y0221457D02*
X0127403Y0221457D01*
X0125255Y0218259D02*
X0123615Y0218259D01*
X0122136Y0208663D02*
X0138431Y0208663D01*
X0140324Y0211862D02*
X0130171Y0211862D01*
X0134784Y0215060D02*
X0140324Y0215060D01*
X0140324Y0218259D02*
X0137403Y0218259D01*
X0137403Y0221457D02*
X0140324Y0221457D01*
X0140324Y0224656D02*
X0136424Y0224656D01*
X0136424Y0227854D02*
X0140324Y0227854D01*
X0140324Y0231053D02*
X0136424Y0231053D01*
X0136424Y0234251D02*
X0140324Y0234251D01*
X0140324Y0237450D02*
X0136424Y0237450D01*
X0136424Y0240648D02*
X0141183Y0240648D01*
X0138895Y0243847D02*
X0144381Y0243847D01*
X0142093Y0247045D02*
X0147580Y0247045D01*
X0145292Y0250244D02*
X0189978Y0250244D01*
X0191238Y0253442D02*
X0147744Y0253442D01*
X0151324Y0245133D02*
X0144324Y0238133D01*
X0144324Y0208900D01*
X0138403Y0202979D01*
X0118860Y0202979D01*
X0119214Y0193333D02*
X0118860Y0192979D01*
X0119214Y0193333D02*
X0200972Y0193333D01*
X0220238Y0212598D01*
X0220238Y0218648D01*
X0224837Y0224656D02*
X0225639Y0224656D01*
X0230238Y0218648D02*
X0230238Y0205498D01*
X0207572Y0182833D01*
X0119006Y0182833D01*
X0118860Y0182979D01*
X0122753Y0176678D02*
X0402551Y0176678D01*
X0402551Y0179877D02*
X0210273Y0179877D01*
X0213471Y0183075D02*
X0402551Y0183075D01*
X0402551Y0186274D02*
X0216670Y0186274D01*
X0219868Y0189472D02*
X0402551Y0189472D01*
X0402551Y0192671D02*
X0223067Y0192671D01*
X0226265Y0195869D02*
X0402551Y0195869D01*
X0402551Y0199068D02*
X0229464Y0199068D01*
X0232662Y0202266D02*
X0402551Y0202266D01*
X0402551Y0205465D02*
X0234238Y0205465D01*
X0234238Y0208663D02*
X0402551Y0208663D01*
X0402551Y0211862D02*
X0234238Y0211862D01*
X0235638Y0215060D02*
X0402551Y0215060D01*
X0402551Y0218259D02*
X0235638Y0218259D01*
X0235638Y0221457D02*
X0402551Y0221457D01*
X0402551Y0224656D02*
X0234837Y0224656D01*
X0215639Y0224656D02*
X0214837Y0224656D01*
X0205639Y0224656D02*
X0204975Y0224656D01*
X0200238Y0224656D02*
X0200238Y0224656D01*
X0200238Y0227248D02*
X0199797Y0227248D01*
X0198926Y0227110D01*
X0198088Y0226838D01*
X0197303Y0226438D01*
X0196590Y0225919D01*
X0195966Y0225296D01*
X0195448Y0224583D01*
X0195048Y0223798D01*
X0194776Y0222959D01*
X0194638Y0222089D01*
X0194638Y0218648D01*
X0194638Y0215207D01*
X0194776Y0214337D01*
X0195048Y0213498D01*
X0195448Y0212713D01*
X0195966Y0212000D01*
X0196590Y0211377D01*
X0197303Y0210858D01*
X0198088Y0210458D01*
X0198926Y0210186D01*
X0199797Y0210048D01*
X0200238Y0210048D01*
X0200238Y0218648D01*
X0200238Y0218648D01*
X0200238Y0218648D01*
X0200238Y0227248D01*
X0200238Y0221457D02*
X0200238Y0221457D01*
X0200238Y0218648D02*
X0200238Y0218648D01*
X0194638Y0218648D01*
X0200238Y0218648D01*
X0200238Y0218259D02*
X0200238Y0218259D01*
X0200238Y0215060D02*
X0200238Y0215060D01*
X0200238Y0211862D02*
X0200238Y0211862D01*
X0204371Y0211862D02*
X0206387Y0211862D01*
X0210646Y0208663D02*
X0148324Y0208663D01*
X0148324Y0211862D02*
X0196105Y0211862D01*
X0194661Y0215060D02*
X0155067Y0215060D01*
X0152403Y0215060D02*
X0152403Y0215060D01*
X0149740Y0215060D02*
X0148324Y0215060D01*
X0152403Y0218259D02*
X0152403Y0218259D01*
X0152403Y0219750D02*
X0157603Y0219750D01*
X0157603Y0221904D01*
X0154557Y0224950D01*
X0152403Y0224950D01*
X0152403Y0219751D01*
X0152403Y0219751D01*
X0152403Y0221457D02*
X0152403Y0221457D01*
X0152403Y0224656D02*
X0152403Y0224656D01*
X0149955Y0224656D02*
X0148324Y0224656D01*
X0148324Y0227854D02*
X0402551Y0227854D01*
X0402551Y0231053D02*
X0148324Y0231053D01*
X0148324Y0234251D02*
X0357431Y0234251D01*
X0354233Y0237450D02*
X0149298Y0237450D01*
X0152496Y0240648D02*
X0351034Y0240648D01*
X0360389Y0250244D02*
X0367912Y0250244D01*
X0367424Y0247045D02*
X0363587Y0247045D01*
X0368916Y0253442D02*
X0357190Y0253442D01*
X0368916Y0288626D02*
X0314185Y0288626D01*
X0314937Y0291824D02*
X0368294Y0291824D01*
X0368294Y0295023D02*
X0314937Y0295023D01*
X0314937Y0298221D02*
X0368294Y0298221D01*
X0368596Y0301420D02*
X0314636Y0301420D01*
X0319212Y0304618D02*
X0402551Y0304618D01*
X0402551Y0301420D02*
X0382636Y0301420D01*
X0382937Y0298221D02*
X0402551Y0298221D01*
X0402551Y0295023D02*
X0382937Y0295023D01*
X0382937Y0291824D02*
X0402551Y0291824D01*
X0402551Y0288626D02*
X0382316Y0288626D01*
X0382316Y0285427D02*
X0402551Y0285427D01*
X0402551Y0282229D02*
X0382316Y0282229D01*
X0382316Y0279030D02*
X0402551Y0279030D01*
X0402551Y0275832D02*
X0382316Y0275832D01*
X0382316Y0272633D02*
X0402551Y0272633D01*
X0402551Y0269435D02*
X0392698Y0269435D01*
X0394324Y0266236D02*
X0402551Y0266236D01*
X0402551Y0263038D02*
X0394274Y0263038D01*
X0391906Y0259839D02*
X0402551Y0259839D01*
X0402551Y0256641D02*
X0382316Y0256641D01*
X0382316Y0253442D02*
X0402551Y0253442D01*
X0402551Y0250244D02*
X0382937Y0250244D01*
X0383424Y0247045D02*
X0402551Y0247045D01*
X0402551Y0243847D02*
X0381392Y0243847D01*
X0382770Y0240648D02*
X0402551Y0240648D01*
X0402551Y0237450D02*
X0383424Y0237450D01*
X0381796Y0234251D02*
X0402551Y0234251D01*
X0402551Y0173479D02*
X0124228Y0173479D01*
X0141563Y0199068D02*
X0142960Y0199068D01*
X0146403Y0199068D02*
X0146403Y0199068D01*
X0146403Y0197779D02*
X0148557Y0197779D01*
X0151603Y0200825D01*
X0151603Y0202979D01*
X0146403Y0202979D01*
X0146403Y0202979D01*
X0146403Y0202979D01*
X0146403Y0197779D01*
X0149846Y0199068D02*
X0201050Y0199068D01*
X0204249Y0202266D02*
X0151603Y0202266D01*
X0151271Y0205465D02*
X0207447Y0205465D01*
X0194638Y0218259D02*
X0157603Y0218259D01*
X0157603Y0221457D02*
X0194638Y0221457D01*
X0195501Y0224656D02*
X0154852Y0224656D01*
X0151324Y0245133D02*
X0190524Y0245133D01*
X0190311Y0256641D02*
X0163107Y0256641D01*
X0164801Y0259839D02*
X0187743Y0259839D01*
X0188033Y0263038D02*
X0164801Y0263038D01*
X0162408Y0266236D02*
X0194728Y0266236D01*
X0197927Y0269435D02*
X0162024Y0269435D01*
X0162024Y0272633D02*
X0201125Y0272633D01*
X0204324Y0275832D02*
X0162024Y0275832D01*
X0162024Y0279030D02*
X0207522Y0279030D01*
X0205947Y0285427D02*
X0204528Y0285427D01*
X0205238Y0288626D02*
X0205238Y0288626D01*
X0205238Y0291824D02*
X0205238Y0291824D01*
X0204950Y0295023D02*
X0205525Y0295023D01*
X0214950Y0295023D02*
X0215525Y0295023D01*
X0215238Y0291824D02*
X0215238Y0291824D01*
X0215238Y0288626D02*
X0215238Y0288626D01*
X0214528Y0285427D02*
X0215947Y0285427D01*
X0224528Y0285427D02*
X0225947Y0285427D01*
X0225238Y0288626D02*
X0225238Y0288626D01*
X0225238Y0291824D02*
X0225238Y0291824D01*
X0224950Y0295023D02*
X0225525Y0295023D01*
X0245024Y0279033D02*
X0248224Y0275833D01*
X0244469Y0269435D02*
X0241980Y0269435D01*
X0238580Y0266236D02*
X0257942Y0266236D01*
X0262482Y0266236D02*
X0262482Y0266236D01*
X0262482Y0263038D02*
X0262482Y0263038D01*
X0262482Y0259839D02*
X0262482Y0259839D01*
X0262482Y0256641D02*
X0262482Y0256641D01*
X0253932Y0314214D02*
X0249024Y0314214D01*
X0248824Y0317412D02*
X0282824Y0317412D01*
X0282824Y0320611D02*
X0250771Y0320611D01*
X0253970Y0323810D02*
X0282824Y0323810D01*
X0282824Y0327008D02*
X0257168Y0327008D01*
X0260367Y0330207D02*
X0282824Y0330207D01*
X0316413Y0323810D02*
X0402551Y0323810D01*
X0402551Y0320611D02*
X0320570Y0320611D01*
X0322423Y0317412D02*
X0402551Y0317412D01*
X0402551Y0314214D02*
X0323121Y0314214D01*
X0322917Y0311015D02*
X0402551Y0311015D01*
X0402551Y0307817D02*
X0321739Y0307817D01*
X0245854Y0327008D02*
X0233635Y0327008D01*
X0206238Y0327008D02*
X0203918Y0327008D01*
X0200238Y0327008D02*
X0200238Y0327008D01*
X0200238Y0323810D02*
X0200238Y0323810D01*
X0200238Y0320611D02*
X0200238Y0320611D01*
X0200238Y0317412D02*
X0200238Y0317412D01*
X0195048Y0323810D02*
X0185238Y0323810D01*
X0185238Y0327008D02*
X0196557Y0327008D01*
X0206238Y0330207D02*
X0182837Y0330207D01*
X0153872Y0362192D02*
X0147824Y0362192D01*
X0147824Y0365390D02*
X0151501Y0365390D01*
X0151451Y0368589D02*
X0147824Y0368589D01*
X0147824Y0371787D02*
X0153075Y0371787D01*
X0139824Y0371787D02*
X0134594Y0371787D01*
X0133949Y0371143D02*
X0133949Y0371143D01*
X0130449Y0368589D02*
X0139824Y0368589D01*
X0139824Y0365390D02*
X0126269Y0365390D01*
X0125655Y0362192D02*
X0139824Y0362192D01*
X0139824Y0358993D02*
X0124969Y0358993D01*
X0124969Y0355795D02*
X0139824Y0355795D01*
X0139824Y0352596D02*
X0125386Y0352596D01*
X0125734Y0349398D02*
X0139824Y0349398D01*
X0139824Y0346199D02*
X0124910Y0346199D01*
X0124910Y0343001D02*
X0139824Y0343001D01*
X0139824Y0339802D02*
X0124910Y0339802D01*
X0124910Y0336604D02*
X0139824Y0336604D01*
X0139824Y0333405D02*
X0124910Y0333405D01*
X0124640Y0330207D02*
X0139824Y0330207D01*
X0139824Y0327008D02*
X0122502Y0327008D01*
X0119304Y0323810D02*
X0139824Y0323810D01*
X0111510Y0336604D02*
X0084910Y0336604D01*
X0084910Y0339802D02*
X0111510Y0339802D01*
X0111510Y0343001D02*
X0084458Y0343001D01*
X0084910Y0341910D02*
X0083890Y0344372D01*
X0082578Y0345684D01*
X0082806Y0345758D01*
X0083536Y0346130D01*
X0084198Y0346611D01*
X0084777Y0347190D01*
X0085258Y0347852D01*
X0085629Y0348581D01*
X0085882Y0349359D01*
X0086010Y0350168D01*
X0086010Y0350577D01*
X0078210Y0350577D01*
X0070410Y0350577D01*
X0070410Y0350168D01*
X0070538Y0349359D01*
X0070791Y0348581D01*
X0071163Y0347852D01*
X0071644Y0347190D01*
X0072223Y0346611D01*
X0072885Y0346130D01*
X0073614Y0345758D01*
X0073842Y0345684D01*
X0072530Y0344372D01*
X0071510Y0341910D01*
X0071510Y0330163D01*
X0067333Y0325987D01*
X0066313Y0323524D01*
X0066313Y0320859D01*
X0067333Y0318396D01*
X0069218Y0316511D01*
X0069757Y0316288D01*
X0067813Y0314345D01*
X0067813Y0312191D01*
X0067813Y0310037D01*
X0070859Y0306991D01*
X0073013Y0306991D01*
X0073013Y0312191D01*
X0067813Y0312191D01*
X0073013Y0312191D01*
X0073013Y0312191D01*
X0073013Y0312191D01*
X0073013Y0306991D01*
X0075167Y0306991D01*
X0078213Y0310037D01*
X0078213Y0312191D01*
X0073014Y0312191D01*
X0073014Y0312191D01*
X0078213Y0312191D01*
X0078213Y0314345D01*
X0076270Y0316288D01*
X0076809Y0316511D01*
X0083890Y0323593D01*
X0084910Y0326055D01*
X0084910Y0341910D01*
X0083631Y0346199D02*
X0111510Y0346199D01*
X0110687Y0349398D02*
X0085888Y0349398D01*
X0086010Y0350577D02*
X0086010Y0350986D01*
X0085882Y0351795D01*
X0085629Y0352573D01*
X0085258Y0353303D01*
X0084777Y0353965D01*
X0084198Y0354543D01*
X0083536Y0355025D01*
X0082806Y0355396D01*
X0082028Y0355649D01*
X0081219Y0355777D01*
X0078210Y0355777D01*
X0075201Y0355777D01*
X0074393Y0355649D01*
X0073614Y0355396D01*
X0072885Y0355025D01*
X0072223Y0354543D01*
X0071644Y0353965D01*
X0071163Y0353303D01*
X0070791Y0352573D01*
X0070538Y0351795D01*
X0070410Y0350986D01*
X0070410Y0350577D01*
X0078210Y0350577D01*
X0078210Y0350577D01*
X0078210Y0355777D01*
X0078210Y0350577D01*
X0078210Y0350577D01*
X0078210Y0350577D01*
X0086010Y0350577D01*
X0085618Y0352596D02*
X0111035Y0352596D01*
X0111569Y0355795D02*
X0027924Y0355795D01*
X0027924Y0358993D02*
X0111569Y0358993D01*
X0110883Y0362192D02*
X0103009Y0362192D01*
X0106207Y0365390D02*
X0110269Y0365390D01*
X0100051Y0378184D02*
X0027924Y0378184D01*
X0027924Y0374986D02*
X0096852Y0374986D01*
X0104621Y0381383D02*
X0082743Y0381383D01*
X0084740Y0384581D02*
X0113010Y0384581D01*
X0113010Y0386325D02*
X0118210Y0386325D01*
X0118210Y0386325D01*
X0113010Y0386325D01*
X0113010Y0387780D02*
X0084910Y0387780D01*
X0084910Y0390978D02*
X0099654Y0390978D01*
X0096455Y0394177D02*
X0085537Y0394177D01*
X0088736Y0397375D02*
X0093257Y0397375D01*
X0105810Y0403772D02*
X0139824Y0403772D01*
X0139824Y0400574D02*
X0132109Y0400574D01*
X0135307Y0397375D02*
X0139824Y0397375D01*
X0139824Y0394177D02*
X0137125Y0394177D01*
X0137169Y0390978D02*
X0139824Y0390978D01*
X0139824Y0387780D02*
X0137169Y0387780D01*
X0137169Y0384581D02*
X0139824Y0384581D01*
X0139824Y0381383D02*
X0137169Y0381383D01*
X0137169Y0378184D02*
X0139824Y0378184D01*
X0139824Y0374986D02*
X0136830Y0374986D01*
X0123769Y0381638D02*
X0120877Y0381638D01*
X0123410Y0384171D01*
X0123410Y0386325D01*
X0118210Y0386325D01*
X0118210Y0386325D01*
X0123410Y0386325D01*
X0123410Y0388479D01*
X0122264Y0389625D01*
X0123769Y0389625D01*
X0123769Y0381638D01*
X0123769Y0384581D02*
X0123410Y0384581D01*
X0123410Y0387780D02*
X0123769Y0387780D01*
X0110425Y0410169D02*
X0140804Y0410169D01*
X0139824Y0406971D02*
X0104910Y0406971D01*
X0104910Y0410169D02*
X0105995Y0410169D01*
X0113339Y0413368D02*
X0144002Y0413368D01*
X0113065Y0454948D02*
X0027924Y0454948D01*
X0027924Y0451750D02*
X0100985Y0451750D01*
X0093210Y0448551D02*
X0093210Y0448551D01*
X0088210Y0448551D02*
X0027924Y0448551D01*
X0027924Y0445353D02*
X0087460Y0445353D01*
X0088344Y0442154D02*
X0027924Y0442154D01*
X0027924Y0438956D02*
X0047372Y0438956D01*
X0044174Y0435757D02*
X0027924Y0435757D01*
X0027924Y0432559D02*
X0040975Y0432559D01*
X0039542Y0429360D02*
X0027924Y0429360D01*
X0027924Y0426162D02*
X0039542Y0426162D01*
X0039542Y0422963D02*
X0027924Y0422963D01*
X0027924Y0419765D02*
X0039542Y0419765D01*
X0039542Y0416566D02*
X0027924Y0416566D01*
X0027924Y0413368D02*
X0039542Y0413368D01*
X0039542Y0410169D02*
X0027924Y0410169D01*
X0027924Y0406971D02*
X0039542Y0406971D01*
X0039592Y0403772D02*
X0027924Y0403772D01*
X0027924Y0400574D02*
X0042203Y0400574D01*
X0050280Y0400574D02*
X0072984Y0400574D01*
X0071510Y0397375D02*
X0027924Y0397375D01*
X0027924Y0394177D02*
X0071510Y0394177D01*
X0076182Y0403772D02*
X0052892Y0403772D01*
X0052942Y0406971D02*
X0079381Y0406971D01*
X0081510Y0410169D02*
X0052942Y0410169D01*
X0052942Y0413368D02*
X0081510Y0413368D01*
X0081510Y0416566D02*
X0052942Y0416566D01*
X0052942Y0419765D02*
X0081649Y0419765D01*
X0083138Y0422963D02*
X0052942Y0422963D01*
X0053528Y0426162D02*
X0086327Y0426162D01*
X0090093Y0426162D02*
X0096327Y0426162D01*
X0100093Y0426162D02*
X0101510Y0426162D01*
X0116263Y0458147D02*
X0027924Y0458147D01*
X0027924Y0461345D02*
X0119462Y0461345D01*
X0122660Y0464544D02*
X0027924Y0464544D01*
X0027924Y0467743D02*
X0125859Y0467743D01*
X0129057Y0470941D02*
X0027924Y0470941D01*
X0027924Y0474140D02*
X0132256Y0474140D01*
X0135454Y0477338D02*
X0027924Y0477338D01*
X0027924Y0480537D02*
X0138653Y0480537D01*
X0141851Y0483735D02*
X0027924Y0483735D01*
X0027924Y0486934D02*
X0145050Y0486934D01*
X0148248Y0490132D02*
X0027924Y0490132D01*
X0027924Y0493331D02*
X0151447Y0493331D01*
X0154645Y0496529D02*
X0027924Y0496529D01*
X0027924Y0499728D02*
X0068829Y0499728D01*
X0065969Y0502926D02*
X0027924Y0502926D01*
X0027924Y0506125D02*
X0065239Y0506125D01*
X0065940Y0509323D02*
X0027924Y0509323D01*
X0027924Y0512522D02*
X0068663Y0512522D01*
X0086264Y0515720D02*
X0027924Y0515720D01*
X0027924Y0518919D02*
X0089462Y0518919D01*
X0092661Y0522117D02*
X0027924Y0522117D01*
X0027924Y0525316D02*
X0095859Y0525316D01*
X0099058Y0528514D02*
X0027924Y0528514D01*
X0027924Y0531713D02*
X0102256Y0531713D01*
X0105455Y0534911D02*
X0027924Y0534911D01*
X0027924Y0538110D02*
X0107731Y0538110D01*
X0112091Y0541308D02*
X0027924Y0541308D01*
X0027924Y0544507D02*
X0301582Y0544507D01*
X0300270Y0547705D02*
X0027924Y0547705D01*
X0027924Y0550904D02*
X0300270Y0550904D01*
X0300270Y0554102D02*
X0027924Y0554102D01*
X0027924Y0557301D02*
X0300270Y0557301D01*
X0300270Y0560499D02*
X0128079Y0560499D01*
X0128413Y0560670D02*
X0129126Y0561188D01*
X0129749Y0561811D01*
X0130267Y0562524D01*
X0130668Y0563309D01*
X0130940Y0564148D01*
X0131078Y0565018D01*
X0131078Y0565459D01*
X0122478Y0565459D01*
X0122478Y0565459D01*
X0122478Y0559859D01*
X0125919Y0559859D01*
X0126789Y0559997D01*
X0127628Y0560269D01*
X0128413Y0560670D01*
X0130794Y0563698D02*
X0300270Y0563698D01*
X0300270Y0566896D02*
X0247388Y0566896D01*
X0247501Y0566927D02*
X0248352Y0567279D01*
X0249149Y0567740D01*
X0249880Y0568300D01*
X0250531Y0568951D01*
X0251091Y0569682D01*
X0251552Y0570479D01*
X0251904Y0571330D01*
X0252143Y0572220D01*
X0252263Y0573133D01*
X0252263Y0578018D01*
X0245238Y0578018D01*
X0245238Y0578018D01*
X0245238Y0566568D01*
X0245698Y0566568D01*
X0246611Y0566688D01*
X0247501Y0566927D01*
X0245238Y0566896D02*
X0245238Y0566896D01*
X0245238Y0566568D02*
X0245238Y0578018D01*
X0245238Y0578018D01*
X0252263Y0578018D01*
X0252263Y0582904D01*
X0252143Y0583817D01*
X0251904Y0584706D01*
X0251552Y0585557D01*
X0251091Y0586354D01*
X0250531Y0587085D01*
X0249880Y0587736D01*
X0249149Y0588297D01*
X0248352Y0588757D01*
X0247501Y0589110D01*
X0246611Y0589348D01*
X0245698Y0589468D01*
X0245238Y0589468D01*
X0245238Y0578018D01*
X0245238Y0578018D01*
X0238213Y0578018D01*
X0238213Y0573133D01*
X0238333Y0572220D01*
X0238571Y0571330D01*
X0238924Y0570479D01*
X0239384Y0569682D01*
X0239945Y0568951D01*
X0240596Y0568300D01*
X0241327Y0567740D01*
X0242124Y0567279D01*
X0242975Y0566927D01*
X0243864Y0566688D01*
X0244777Y0566568D01*
X0245238Y0566568D01*
X0243088Y0566896D02*
X0226905Y0566896D01*
X0223571Y0566896D02*
X0206905Y0566896D01*
X0203571Y0566896D02*
X0186905Y0566896D01*
X0186595Y0566768D02*
X0189104Y0567807D01*
X0191024Y0569727D01*
X0192063Y0572236D01*
X0192063Y0583801D01*
X0191024Y0586309D01*
X0189104Y0588229D01*
X0186595Y0589268D01*
X0186573Y0589268D01*
X0177650Y0598191D01*
X0175765Y0600076D01*
X0173303Y0601096D01*
X0086678Y0601096D01*
X0084111Y0602159D01*
X0071167Y0602159D01*
X0068448Y0601032D01*
X0066366Y0598951D01*
X0065239Y0596231D01*
X0065239Y0593287D01*
X0066366Y0590567D01*
X0068448Y0588486D01*
X0071167Y0587359D01*
X0084111Y0587359D01*
X0084925Y0587696D01*
X0169195Y0587696D01*
X0178413Y0578478D01*
X0178413Y0572236D01*
X0179452Y0569727D01*
X0181372Y0567807D01*
X0183880Y0566768D01*
X0186595Y0566768D01*
X0183571Y0566896D02*
X0130899Y0566896D01*
X0130940Y0566770D02*
X0130668Y0567609D01*
X0130267Y0568394D01*
X0129749Y0569107D01*
X0129126Y0569730D01*
X0128413Y0570249D01*
X0127628Y0570649D01*
X0126789Y0570921D01*
X0125919Y0571059D01*
X0122478Y0571059D01*
X0122478Y0565459D01*
X0122478Y0565459D01*
X0131078Y0565459D01*
X0131078Y0565900D01*
X0130940Y0566770D01*
X0128625Y0570095D02*
X0179299Y0570095D01*
X0178413Y0573293D02*
X0027924Y0573293D01*
X0027924Y0570095D02*
X0116331Y0570095D01*
X0116543Y0570249D02*
X0115830Y0569730D01*
X0115207Y0569107D01*
X0114688Y0568394D01*
X0114288Y0567609D01*
X0114016Y0566770D01*
X0113878Y0565900D01*
X0113878Y0565459D01*
X0113878Y0565018D01*
X0114016Y0564148D01*
X0114288Y0563309D01*
X0114688Y0562524D01*
X0115207Y0561811D01*
X0115830Y0561188D01*
X0116543Y0560670D01*
X0117328Y0560269D01*
X0118167Y0559997D01*
X0119037Y0559859D01*
X0122478Y0559859D01*
X0122478Y0565459D01*
X0122478Y0565459D01*
X0113878Y0565459D01*
X0122478Y0565459D01*
X0122478Y0565459D01*
X0122478Y0571059D01*
X0119037Y0571059D01*
X0118167Y0570921D01*
X0117328Y0570649D01*
X0116543Y0570249D01*
X0114057Y0566896D02*
X0027924Y0566896D01*
X0027924Y0563698D02*
X0114162Y0563698D01*
X0116877Y0560499D02*
X0027924Y0560499D01*
X0027924Y0576492D02*
X0178413Y0576492D01*
X0177200Y0579690D02*
X0027924Y0579690D01*
X0027924Y0582889D02*
X0174002Y0582889D01*
X0170803Y0586087D02*
X0027924Y0586087D01*
X0027924Y0589286D02*
X0067647Y0589286D01*
X0065572Y0592484D02*
X0027924Y0592484D01*
X0027924Y0595683D02*
X0065239Y0595683D01*
X0066337Y0598881D02*
X0027924Y0598881D01*
X0027924Y0602080D02*
X0070977Y0602080D01*
X0084302Y0602080D02*
X0198538Y0602080D01*
X0198538Y0605279D02*
X0027924Y0605279D01*
X0027924Y0608477D02*
X0198538Y0608477D01*
X0198538Y0611676D02*
X0027924Y0611676D01*
X0027924Y0614874D02*
X0028330Y0614874D01*
X0039941Y0614874D02*
X0198538Y0614874D01*
X0198538Y0618073D02*
X0043724Y0618073D01*
X0045385Y0621271D02*
X0198538Y0621271D01*
X0198538Y0624470D02*
X0046035Y0624470D01*
X0045810Y0627668D02*
X0198982Y0627668D01*
X0200472Y0630867D02*
X0044640Y0630867D01*
X0105214Y0515720D02*
X0173901Y0515720D01*
X0170638Y0512522D02*
X0102016Y0512522D01*
X0098817Y0509323D02*
X0167439Y0509323D01*
X0164241Y0506125D02*
X0095619Y0506125D01*
X0092420Y0502926D02*
X0161042Y0502926D01*
X0157844Y0499728D02*
X0088159Y0499728D01*
X0122478Y0560499D02*
X0122478Y0560499D01*
X0122478Y0563698D02*
X0122478Y0563698D01*
X0122478Y0566896D02*
X0122478Y0566896D01*
X0122478Y0570095D02*
X0122478Y0570095D01*
X0176960Y0598881D02*
X0198538Y0598881D01*
X0198538Y0595683D02*
X0180158Y0595683D01*
X0183357Y0592484D02*
X0198538Y0592484D01*
X0198538Y0589286D02*
X0186555Y0589286D01*
X0191116Y0586087D02*
X0198538Y0586087D01*
X0198413Y0582889D02*
X0192063Y0582889D01*
X0192063Y0579690D02*
X0198413Y0579690D01*
X0198413Y0576492D02*
X0192063Y0576492D01*
X0192063Y0573293D02*
X0198413Y0573293D01*
X0199299Y0570095D02*
X0191176Y0570095D01*
X0211176Y0570095D02*
X0219299Y0570095D01*
X0218413Y0573293D02*
X0212063Y0573293D01*
X0212063Y0576492D02*
X0218413Y0576492D01*
X0218413Y0579690D02*
X0212063Y0579690D01*
X0212063Y0582889D02*
X0218413Y0582889D01*
X0218538Y0586087D02*
X0211938Y0586087D01*
X0211938Y0589286D02*
X0218538Y0589286D01*
X0218538Y0592484D02*
X0211938Y0592484D01*
X0211938Y0595683D02*
X0218538Y0595683D01*
X0218538Y0598881D02*
X0211938Y0598881D01*
X0211938Y0602080D02*
X0218538Y0602080D01*
X0218538Y0605279D02*
X0211938Y0605279D01*
X0211938Y0608477D02*
X0218538Y0608477D01*
X0218538Y0611676D02*
X0211938Y0611676D01*
X0211938Y0614874D02*
X0218538Y0614874D01*
X0231938Y0614874D02*
X0390535Y0614874D01*
X0386751Y0618073D02*
X0231938Y0618073D01*
X0231938Y0621271D02*
X0385091Y0621271D01*
X0384441Y0624470D02*
X0231938Y0624470D01*
X0231493Y0627668D02*
X0384666Y0627668D01*
X0385836Y0630867D02*
X0230004Y0630867D01*
X0231938Y0611676D02*
X0402551Y0611676D01*
X0402551Y0614874D02*
X0402146Y0614874D01*
X0402551Y0608477D02*
X0231938Y0608477D01*
X0231938Y0605279D02*
X0402551Y0605279D01*
X0402551Y0602080D02*
X0350204Y0602080D01*
X0353098Y0598881D02*
X0402551Y0598881D01*
X0402551Y0595683D02*
X0353670Y0595683D01*
X0352696Y0592484D02*
X0402551Y0592484D01*
X0402551Y0589286D02*
X0351206Y0589286D01*
X0352170Y0586168D02*
X0346970Y0586168D01*
X0346970Y0586168D01*
X0341770Y0586168D01*
X0341770Y0584014D01*
X0344816Y0580968D01*
X0346970Y0580968D01*
X0346970Y0586168D01*
X0346970Y0586168D01*
X0346970Y0580968D01*
X0349124Y0580968D01*
X0352170Y0584014D01*
X0352170Y0586168D01*
X0352170Y0586087D02*
X0402551Y0586087D01*
X0402551Y0582889D02*
X0351045Y0582889D01*
X0346970Y0582889D02*
X0346970Y0582889D01*
X0346970Y0586087D02*
X0346970Y0586087D01*
X0342895Y0582889D02*
X0334064Y0582889D01*
X0334064Y0586087D02*
X0341770Y0586087D01*
X0342734Y0589286D02*
X0334064Y0589286D01*
X0334064Y0579690D02*
X0402551Y0579690D01*
X0402551Y0576492D02*
X0362209Y0576492D01*
X0328106Y0602080D02*
X0310204Y0602080D01*
X0313098Y0598881D02*
X0324579Y0598881D01*
X0321558Y0595683D02*
X0313670Y0595683D01*
X0313670Y0592484D02*
X0320664Y0592484D01*
X0320664Y0589286D02*
X0313670Y0589286D01*
X0313670Y0586087D02*
X0320664Y0586087D01*
X0320664Y0582889D02*
X0313670Y0582889D01*
X0300270Y0582889D02*
X0252263Y0582889D01*
X0252263Y0579690D02*
X0300270Y0579690D01*
X0300270Y0576492D02*
X0252263Y0576492D01*
X0252263Y0573293D02*
X0300270Y0573293D01*
X0300270Y0570095D02*
X0251330Y0570095D01*
X0245238Y0570095D02*
X0245238Y0570095D01*
X0245238Y0573293D02*
X0245238Y0573293D01*
X0245238Y0576492D02*
X0245238Y0576492D01*
X0245238Y0578018D02*
X0245238Y0578018D01*
X0245238Y0589468D01*
X0244777Y0589468D01*
X0243864Y0589348D01*
X0242975Y0589110D01*
X0242124Y0588757D01*
X0241327Y0588297D01*
X0240596Y0587736D01*
X0239945Y0587085D01*
X0239384Y0586354D01*
X0238924Y0585557D01*
X0238571Y0584706D01*
X0238333Y0583817D01*
X0238213Y0582904D01*
X0238213Y0578018D01*
X0245238Y0578018D01*
X0245238Y0579690D02*
X0245238Y0579690D01*
X0245238Y0582889D02*
X0245238Y0582889D01*
X0245238Y0586087D02*
X0245238Y0586087D01*
X0245238Y0589286D02*
X0245238Y0589286D01*
X0246842Y0589286D02*
X0300270Y0589286D01*
X0300270Y0592484D02*
X0231938Y0592484D01*
X0231938Y0589286D02*
X0243633Y0589286D01*
X0239230Y0586087D02*
X0231938Y0586087D01*
X0232063Y0582889D02*
X0238213Y0582889D01*
X0238213Y0579690D02*
X0232063Y0579690D01*
X0232063Y0576492D02*
X0238213Y0576492D01*
X0238213Y0573293D02*
X0232063Y0573293D01*
X0231176Y0570095D02*
X0239146Y0570095D01*
X0251245Y0586087D02*
X0300270Y0586087D01*
X0300270Y0595683D02*
X0231938Y0595683D01*
X0231938Y0598881D02*
X0300842Y0598881D01*
X0303736Y0602080D02*
X0231938Y0602080D01*
X0078210Y0352596D02*
X0078210Y0352596D01*
X0072789Y0346199D02*
X0053092Y0346199D01*
X0053092Y0346955D02*
X0053092Y0344118D01*
X0049079Y0340105D01*
X0046242Y0340105D01*
X0046242Y0346955D01*
X0046242Y0346955D01*
X0053092Y0346955D01*
X0053092Y0349792D01*
X0049079Y0353805D01*
X0046242Y0353805D01*
X0046242Y0346955D01*
X0053092Y0346955D01*
X0053092Y0349398D02*
X0070532Y0349398D01*
X0070803Y0352596D02*
X0050288Y0352596D01*
X0046242Y0352596D02*
X0046242Y0352596D01*
X0046242Y0353805D02*
X0046242Y0346955D01*
X0046242Y0346955D01*
X0046242Y0346955D01*
X0046242Y0340105D01*
X0043404Y0340105D01*
X0039392Y0344118D01*
X0039392Y0346955D01*
X0046242Y0346955D01*
X0046242Y0346955D01*
X0039392Y0346955D01*
X0039392Y0349792D01*
X0043404Y0353805D01*
X0046242Y0353805D01*
X0042195Y0352596D02*
X0027924Y0352596D01*
X0027924Y0349398D02*
X0039392Y0349398D01*
X0039392Y0346199D02*
X0027924Y0346199D01*
X0027924Y0343001D02*
X0040509Y0343001D01*
X0046242Y0343001D02*
X0046242Y0343001D01*
X0046242Y0346199D02*
X0046242Y0346199D01*
X0046242Y0349398D02*
X0046242Y0349398D01*
X0051975Y0343001D02*
X0071962Y0343001D01*
X0071510Y0339802D02*
X0027924Y0339802D01*
X0027924Y0336604D02*
X0071510Y0336604D01*
X0071510Y0333405D02*
X0027924Y0333405D01*
X0027924Y0330207D02*
X0071510Y0330207D01*
X0068355Y0327008D02*
X0027924Y0327008D01*
X0027924Y0323810D02*
X0066432Y0323810D01*
X0066416Y0320611D02*
X0027924Y0320611D01*
X0027924Y0317412D02*
X0068317Y0317412D01*
X0067813Y0314214D02*
X0027924Y0314214D01*
X0027924Y0311015D02*
X0067813Y0311015D01*
X0070034Y0307817D02*
X0027924Y0307817D01*
X0027924Y0304618D02*
X0096510Y0304618D01*
X0096510Y0301420D02*
X0027924Y0301420D01*
X0027924Y0298221D02*
X0096510Y0298221D01*
X0096510Y0295023D02*
X0027924Y0295023D01*
X0027924Y0291824D02*
X0096510Y0291824D01*
X0096510Y0288626D02*
X0027924Y0288626D01*
X0027924Y0285427D02*
X0096510Y0285427D01*
X0096510Y0282229D02*
X0027924Y0282229D01*
X0027924Y0279030D02*
X0096510Y0279030D01*
X0096510Y0275832D02*
X0027924Y0275832D01*
X0027924Y0272633D02*
X0096510Y0272633D01*
X0096510Y0269435D02*
X0064920Y0269435D01*
X0067090Y0266236D02*
X0096510Y0266236D01*
X0096510Y0263038D02*
X0067710Y0263038D01*
X0067139Y0259839D02*
X0096510Y0259839D01*
X0096510Y0256641D02*
X0065038Y0256641D01*
X0064228Y0253442D02*
X0096510Y0253442D01*
X0096510Y0250244D02*
X0064228Y0250244D01*
X0062386Y0247045D02*
X0096510Y0247045D01*
X0096510Y0243847D02*
X0064228Y0243847D01*
X0063705Y0240648D02*
X0096510Y0240648D01*
X0096510Y0237450D02*
X0061981Y0237450D01*
X0064144Y0234251D02*
X0096510Y0234251D01*
X0096510Y0231053D02*
X0063873Y0231053D01*
X0061557Y0227854D02*
X0096867Y0227854D01*
X0099127Y0224656D02*
X0064170Y0224656D01*
X0064220Y0221457D02*
X0102325Y0221457D01*
X0105524Y0218259D02*
X0061837Y0218259D01*
X0055883Y0218259D02*
X0027924Y0218259D01*
X0027924Y0221457D02*
X0053499Y0221457D01*
X0053550Y0224656D02*
X0027924Y0224656D01*
X0027924Y0227854D02*
X0056163Y0227854D01*
X0053847Y0231053D02*
X0027924Y0231053D01*
X0027924Y0234251D02*
X0053576Y0234251D01*
X0055739Y0237450D02*
X0027924Y0237450D01*
X0027924Y0240648D02*
X0054014Y0240648D01*
X0053491Y0243847D02*
X0027924Y0243847D01*
X0027924Y0247045D02*
X0055334Y0247045D01*
X0053491Y0250244D02*
X0027924Y0250244D01*
X0027924Y0253442D02*
X0053491Y0253442D01*
X0052682Y0256641D02*
X0027924Y0256641D01*
X0027924Y0259839D02*
X0050581Y0259839D01*
X0050010Y0263038D02*
X0027924Y0263038D01*
X0027924Y0266236D02*
X0050630Y0266236D01*
X0052800Y0269435D02*
X0027924Y0269435D01*
X0027924Y0215060D02*
X0053911Y0215060D01*
X0053512Y0211862D02*
X0027924Y0211862D01*
X0027924Y0208663D02*
X0034353Y0208663D01*
X0033024Y0207335D02*
X0036070Y0210381D01*
X0038224Y0210381D01*
X0038224Y0205181D01*
X0033024Y0205181D01*
X0033024Y0203027D01*
X0036012Y0200040D01*
X0033224Y0197252D01*
X0033224Y0193110D01*
X0034224Y0192110D01*
X0034224Y0176256D01*
X0033024Y0175056D01*
X0033024Y0170914D01*
X0035953Y0167985D01*
X0040095Y0167985D01*
X0043024Y0170914D01*
X0043024Y0175056D01*
X0042224Y0175856D01*
X0042224Y0192110D01*
X0043224Y0193110D01*
X0043224Y0197252D01*
X0040437Y0200040D01*
X0043424Y0203027D01*
X0043424Y0205181D01*
X0038225Y0205181D01*
X0038225Y0205181D01*
X0043424Y0205181D01*
X0043424Y0207335D01*
X0040378Y0210381D01*
X0038224Y0210381D01*
X0038224Y0205181D01*
X0038224Y0205181D01*
X0033024Y0205181D01*
X0033024Y0207335D01*
X0033024Y0205465D02*
X0027924Y0205465D01*
X0027924Y0202266D02*
X0033786Y0202266D01*
X0035040Y0199068D02*
X0027924Y0199068D01*
X0027924Y0195869D02*
X0033224Y0195869D01*
X0033664Y0192671D02*
X0027924Y0192671D01*
X0027924Y0189472D02*
X0034224Y0189472D01*
X0034224Y0186274D02*
X0027924Y0186274D01*
X0027924Y0183075D02*
X0034224Y0183075D01*
X0034224Y0179877D02*
X0027924Y0179877D01*
X0027924Y0176678D02*
X0034224Y0176678D01*
X0033024Y0173479D02*
X0027924Y0173479D01*
X0027924Y0170281D02*
X0033657Y0170281D01*
X0038024Y0172985D02*
X0038224Y0173185D01*
X0038224Y0195181D01*
X0041409Y0199068D02*
X0055179Y0199068D01*
X0054246Y0195869D02*
X0043224Y0195869D01*
X0042785Y0192671D02*
X0053491Y0192671D01*
X0054774Y0189472D02*
X0042224Y0189472D01*
X0042224Y0186274D02*
X0054562Y0186274D01*
X0053491Y0183075D02*
X0042224Y0183075D01*
X0042224Y0179877D02*
X0054370Y0179877D01*
X0054967Y0176678D02*
X0042224Y0176678D01*
X0043024Y0173479D02*
X0053491Y0173479D01*
X0054166Y0170281D02*
X0042391Y0170281D01*
X0053491Y0163884D02*
X0027924Y0163884D01*
X0027924Y0167082D02*
X0055371Y0167082D01*
X0053999Y0160685D02*
X0027924Y0160685D01*
X0027924Y0157487D02*
X0055776Y0157487D01*
X0053591Y0154288D02*
X0027924Y0154288D01*
X0027924Y0151090D02*
X0053831Y0151090D01*
X0035238Y0128700D02*
X0027924Y0128700D01*
X0027924Y0131899D02*
X0033024Y0131899D01*
X0033066Y0135097D02*
X0027924Y0135097D01*
X0039611Y0080723D02*
X0198538Y0080723D01*
X0198538Y0077524D02*
X0043583Y0077524D01*
X0045334Y0074326D02*
X0198538Y0074326D01*
X0198538Y0071127D02*
X0046035Y0071127D01*
X0045861Y0067929D02*
X0198903Y0067929D01*
X0200393Y0064730D02*
X0044750Y0064730D01*
X0042663Y0202266D02*
X0053491Y0202266D01*
X0054079Y0205465D02*
X0043424Y0205465D01*
X0042096Y0208663D02*
X0055583Y0208663D01*
X0038224Y0208663D02*
X0038224Y0208663D01*
X0038224Y0205465D02*
X0038224Y0205465D01*
X0038224Y0205181D02*
X0038224Y0205181D01*
X0073013Y0307817D02*
X0073013Y0307817D01*
X0075993Y0307817D02*
X0096510Y0307817D01*
X0096510Y0311015D02*
X0078213Y0311015D01*
X0078213Y0314214D02*
X0088056Y0314214D01*
X0087460Y0317412D02*
X0077710Y0317412D01*
X0080908Y0320611D02*
X0088498Y0320611D01*
X0093210Y0320611D02*
X0093210Y0320611D01*
X0093210Y0322941D02*
X0093210Y0317191D01*
X0093210Y0317191D01*
X0093210Y0322941D01*
X0093210Y0317412D02*
X0093210Y0317412D01*
X0093210Y0314214D02*
X0093210Y0314214D01*
X0099415Y0322871D02*
X0099415Y0322871D01*
X0100353Y0323810D02*
X0083980Y0323810D01*
X0084910Y0327008D02*
X0103552Y0327008D01*
X0106750Y0330207D02*
X0084910Y0330207D01*
X0084910Y0333405D02*
X0109949Y0333405D01*
X0073013Y0311015D02*
X0073013Y0311015D01*
X0041215Y0362192D02*
X0027924Y0362192D01*
X0027924Y0365390D02*
X0039542Y0365390D01*
X0039592Y0368589D02*
X0027924Y0368589D01*
X0027924Y0371787D02*
X0041914Y0371787D01*
X0041709Y0381383D02*
X0027924Y0381383D01*
X0027924Y0384581D02*
X0039592Y0384581D01*
X0039592Y0387780D02*
X0027924Y0387780D01*
X0027924Y0390978D02*
X0041420Y0390978D01*
X0109910Y0269435D02*
X0112800Y0269435D01*
X0110630Y0266236D02*
X0109910Y0266236D01*
X0109910Y0263038D02*
X0110010Y0263038D01*
X0109910Y0259839D02*
X0110581Y0259839D01*
X0109910Y0256641D02*
X0112682Y0256641D01*
X0113491Y0253442D02*
X0109910Y0253442D01*
X0109910Y0250244D02*
X0114182Y0250244D01*
X0115051Y0247045D02*
X0109910Y0247045D01*
X0109910Y0243847D02*
X0113359Y0243847D01*
X0113798Y0240648D02*
X0109910Y0240648D01*
X0109910Y0237450D02*
X0115739Y0237450D01*
X0113576Y0234251D02*
X0109910Y0234251D01*
X0111680Y0231053D02*
X0113847Y0231053D01*
X0146403Y0202266D02*
X0146403Y0202266D01*
X0211938Y0112708D02*
X0243971Y0112708D01*
X0243971Y0115906D02*
X0212877Y0115906D01*
X0211938Y0109509D02*
X0243971Y0109509D01*
X0244177Y0106311D02*
X0244925Y0106311D01*
X0246659Y0103112D02*
X0247183Y0103112D01*
X0247512Y0099914D02*
X0281389Y0099914D01*
X0281718Y0103112D02*
X0282242Y0103112D01*
X0281715Y0096715D02*
X0247186Y0096715D01*
X0245448Y0093517D02*
X0283452Y0093517D01*
X0274742Y0103112D02*
X0271875Y0103112D01*
X0264899Y0103112D02*
X0264001Y0103112D01*
X0257025Y0103112D02*
X0254159Y0103112D01*
X0232992Y0106311D02*
X0211938Y0106311D01*
X0211938Y0103112D02*
X0230509Y0103112D01*
X0229657Y0099914D02*
X0211938Y0099914D01*
X0211938Y0096715D02*
X0229983Y0096715D01*
X0231720Y0093517D02*
X0211938Y0093517D01*
X0211938Y0090318D02*
X0402551Y0090318D01*
X0402551Y0087120D02*
X0211938Y0087120D01*
X0211938Y0083921D02*
X0402551Y0083921D01*
X0402551Y0080723D02*
X0401816Y0080723D01*
X0390864Y0080723D02*
X0211938Y0080723D01*
X0211938Y0077524D02*
X0211981Y0077524D01*
X0218494Y0077524D02*
X0221981Y0077524D01*
X0228494Y0077524D02*
X0386892Y0077524D01*
X0385142Y0074326D02*
X0230593Y0074326D01*
X0230638Y0071127D02*
X0384441Y0071127D01*
X0384615Y0067929D02*
X0230638Y0067929D01*
X0230083Y0064730D02*
X0385726Y0064730D01*
D28*
X0342324Y0124475D02*
X0360041Y0142191D01*
X0362600Y0142191D01*
X0345089Y0159702D01*
X0341616Y0159702D01*
X0342324Y0124475D02*
X0258427Y0124475D01*
X0250671Y0116719D01*
X0250671Y0109947D01*
X0258427Y0124475D02*
X0211970Y0124475D01*
X0205238Y0117743D01*
X0205238Y0070144D01*
X0211970Y0124475D02*
X0157679Y0124475D01*
X0152246Y0119042D01*
X0152246Y0109947D01*
X0118814Y0222933D02*
X0110324Y0222933D01*
X0103210Y0230047D01*
X0103210Y0317191D01*
X0118210Y0332191D01*
X0118210Y0340577D01*
X0118210Y0350577D01*
X0118269Y0350636D01*
X0118269Y0364708D01*
X0118269Y0374708D02*
X0118244Y0374733D01*
X0106075Y0374733D01*
X0097982Y0366640D01*
X0046242Y0366640D01*
X0046242Y0386325D02*
X0078210Y0386325D01*
X0078210Y0396325D01*
X0088210Y0406325D01*
X0088210Y0418097D01*
X0098210Y0418097D02*
X0098210Y0401897D01*
X0103569Y0396538D01*
X0117998Y0396538D01*
X0118210Y0396325D01*
X0126882Y0396325D01*
X0130469Y0392738D01*
X0130469Y0377138D01*
X0128269Y0374938D01*
X0118499Y0374938D01*
X0118269Y0374708D01*
X0108210Y0418097D02*
X0108210Y0430026D01*
X0103210Y0435026D01*
X0103210Y0440833D01*
X0097010Y0434633D01*
X0052524Y0434633D01*
X0046242Y0428350D01*
X0046242Y0406010D01*
X0078210Y0340577D02*
X0078210Y0327388D01*
X0073013Y0322191D01*
X0118860Y0222979D02*
X0118814Y0222933D01*
X0118860Y0222979D01*
X0158151Y0367388D02*
X0185238Y0367388D01*
X0202583Y0384733D01*
X0294724Y0384733D01*
X0307616Y0397624D01*
X0307616Y0451294D01*
X0332724Y0433633D02*
X0332724Y0390433D01*
X0289524Y0347233D01*
X0289524Y0304433D01*
X0285624Y0300533D01*
X0258786Y0300533D01*
X0258584Y0300735D01*
X0250671Y0410695D02*
X0235238Y0410695D01*
X0250567Y0433229D02*
X0250671Y0433333D01*
X0250567Y0433229D02*
X0195238Y0433229D01*
X0195238Y0445971D01*
X0195238Y0455971D01*
X0195238Y0423229D02*
X0195238Y0410695D01*
X0235238Y0455971D02*
X0235238Y0482308D01*
X0262924Y0509994D01*
X0177586Y0509994D01*
X0113011Y0445420D01*
X0103210Y0445420D01*
X0103397Y0445233D01*
X0103210Y0445420D02*
X0103210Y0440833D01*
X0086178Y0506159D02*
X0077639Y0506159D01*
X0086178Y0506159D02*
X0115478Y0535459D01*
X0322049Y0535459D01*
X0327009Y0540420D01*
X0327009Y0548569D01*
X0326970Y0548609D01*
X0327364Y0549002D01*
X0327364Y0558491D01*
X0332364Y0563491D01*
X0369135Y0563491D01*
X0374214Y0558412D01*
X0374214Y0548609D01*
X0364214Y0548609D02*
X0364214Y0532593D01*
X0341616Y0509994D01*
X0341616Y0485294D01*
X0375616Y0451294D01*
X0350385Y0451294D01*
X0332724Y0433633D01*
X0341616Y0509994D02*
X0262924Y0509994D01*
X0250671Y0455971D02*
X0235238Y0455971D01*
X0306970Y0548609D02*
X0306970Y0586168D01*
X0306970Y0596168D01*
X0316970Y0574357D02*
X0316970Y0548609D01*
X0327364Y0558491D02*
X0327364Y0592191D01*
X0331340Y0596168D01*
X0346970Y0596168D01*
X0317009Y0574357D02*
X0316970Y0574357D01*
X0225238Y0578018D02*
X0225238Y0625262D01*
X0205238Y0625262D02*
X0205238Y0578018D01*
X0185238Y0578018D02*
X0185238Y0581128D01*
X0171970Y0594396D01*
X0076034Y0594396D01*
X0077639Y0594759D01*
X0341616Y0248302D02*
X0352855Y0248302D01*
X0362824Y0238333D01*
X0375124Y0238333D01*
X0375424Y0238033D01*
X0375424Y0248033D02*
X0375616Y0248224D01*
X0375616Y0264833D01*
X0387424Y0264833D01*
X0387624Y0265033D01*
X0375616Y0264833D02*
X0375616Y0295294D01*
M02*
