%
M48
M72
T01C0.02362
T02C0.03200
T03C0.03600
T04C0.03740
T05C0.03937
T06C0.04000
T07C0.05200
T08C0.05900
T09C0.05906
T10C0.06299
T11C0.06500
T12C0.09055
T13C0.11811
T14C0.12598
%
T01
X89500Y147294
X72800Y211994
X73600Y225094
X49100Y213394
X46350Y304194
X46450Y331894
X73239Y303809
X85283Y303717
X98683Y327917
X130100Y253294
X154021Y230422
X164945Y212940
X165103Y202861
X189630Y218964
X190189Y285623
X190789Y325323
X249189Y260623
X274589Y261123
X275800Y217694
X273881Y311553
X272682Y318457
X257832Y323057
X261632Y357457
X274932Y367357
X267300Y408394
X305300Y477294
X329980Y519148
X330280Y526048
X355080Y508948
X371449Y574768
X371243Y587475
X358332Y587656
X271400Y523594
X267300Y570094
X268908Y579554
X267857Y587419
X269200Y604494
X160800Y518494
X134561Y558874
X133310Y575465
X155300Y605994
X142200Y615394
X79587Y453583
X79857Y445954
X46050Y443094
X166900Y431594
X377800Y184594
X396700Y112194
X396900Y94994
X394400Y324994
X395000Y375194
X394400Y430994
T02
X341616Y509994
X341616Y523994
X357009Y574357
X346970Y586168
X346970Y596168
X317009Y574357
X306970Y586168
X306970Y596168
X235238Y455971
X235238Y445971
X235238Y410695
X195238Y410695
X195238Y445971
X195238Y455971
X210238Y345735
X210238Y335735
X220238Y335735
X220238Y345735
X220238Y320735
X210238Y320735
X200238Y320735
X180238Y325735
X170238Y325735
X170238Y335735
X170238Y345735
X200238Y290735
X210238Y290735
X220238Y290735
X230238Y290735
X235238Y261089
X258584Y300735
X258584Y310735
X260238Y335735
X260238Y345735
X230238Y320735
X195238Y261089
X180238Y285735
X170238Y285735
X152403Y219750
X146403Y202979
X138403Y202979
X132403Y219750
X73013Y312191
X73013Y322191
X78210Y340577
X78210Y350577
X78210Y386325
X78210Y396325
X93210Y445420
X103210Y445420
X118210Y396325
X118210Y386325
X118210Y350577
X118210Y340577
X103210Y317191
X93210Y317191
X38224Y205181
X38224Y195181
X38024Y172985
X38024Y132985
X322600Y142191
X362600Y142191
T03
X375424Y238033
X375424Y248033
X248224Y275833
X238224Y275833
X195238Y423229
X195238Y433229
X118269Y374708
X118269Y364708
T04
X152246Y109947
X162088Y109947
X169962Y109947
X179805Y109947
X250671Y109947
X260513Y109947
X268387Y109947
X278230Y109947
T05
X118860Y112979
X118860Y122979
X118860Y132979
X118860Y142979
X118860Y152979
X118860Y162979
X118860Y172979
X118860Y182979
X118860Y192979
X118860Y202979
X118860Y212979
X118860Y222979
X118860Y232979
X118860Y242979
X118860Y252979
X58860Y252979
X58860Y242979
X58860Y232979
X58860Y222979
X58860Y212979
X58860Y202979
X58860Y192979
X58860Y182979
X58860Y172979
X58860Y162979
X58860Y152979
X58860Y142979
X58860Y132979
X58860Y122979
X58860Y112979
T06
X200238Y218648
X210238Y218648
X220238Y218648
X230238Y218648
X225238Y70144
X215238Y70144
X205238Y70144
X108210Y418097
X98210Y418097
X88210Y418097
X115478Y535459
X122478Y565459
X205238Y625262
X215238Y625262
X225238Y625262
X306970Y548609
X316970Y548609
X326970Y548609
X354214Y548609
X364214Y548609
X374214Y548609
T07
X262482Y367388
X250671Y410695
X250671Y433333
X250671Y455971
X158151Y367388
X158151Y261089
X262482Y261089
X295124Y265033
X341616Y248302
X387624Y265033
X341616Y159702
X77639Y506159
X77639Y594759
X46242Y406010
X46242Y386325
X46242Y366640
X46242Y346955
T08
X185238Y578018
X205238Y578018
X225238Y578018
X245238Y578018
T09
X307616Y451294
X375616Y451294
X375616Y295294
X307616Y295294
T10
X245238Y367388
X185238Y367388
T11
X118860Y262979
X58860Y262979
X58860Y102979
X118860Y102979
T12
X140159Y99278
X191891Y99278
X238584Y99278
X290317Y99278
T13
X311616Y313294
X371616Y430294
T14
X34135Y70144
X34135Y625262
X396340Y625262
X396340Y70144
M30
